<?xml version="1.0" encoding="UTF-8" standalone="no"?>
<!-- Created with Inkscape (http://www.inkscape.org/) -->

<svg
   xmlns:ns1="http://www.iki.fi/pav/software/textext/"
   xmlns:dc="http://purl.org/dc/elements/1.1/"
   xmlns:cc="http://creativecommons.org/ns#"
   xmlns:rdf="http://www.w3.org/1999/02/22-rdf-syntax-ns#"
   xmlns:svg="http://www.w3.org/2000/svg"
   xmlns="http://www.w3.org/2000/svg"
   xmlns:xlink="http://www.w3.org/1999/xlink"
   xmlns:sodipodi="http://sodipodi.sourceforge.net/DTD/sodipodi-0.dtd"
   xmlns:inkscape="http://www.inkscape.org/namespaces/inkscape"
   width="210mm"
   height="297mm"
   viewBox="0 0 210 297"
   version="1.1"
   id="svg8"
   inkscape:version="0.92.4 (5da689c313, 2019-01-14)"
   sodipodi:docname="MarsNShit.svg">
  <defs
     id="defs2">
    <marker
       inkscape:isstock="true"
       style="overflow:visible"
       id="marker1229"
       refX="0.0"
       refY="0.0"
       orient="auto"
       inkscape:stockid="TriangleOutM">
      <path
         transform="scale(0.4)"
         style="fill-rule:evenodd;stroke:#000000;stroke-width:1pt;stroke-opacity:1;fill:#000000;fill-opacity:1"
         d="M 5.77,0.0 L -2.88,5.0 L -2.88,-5.0 L 5.77,0.0 z "
         id="path1227" />
    </marker>
    <marker
       inkscape:stockid="TriangleOutM"
       orient="auto"
       refY="0.0"
       refX="0.0"
       id="TriangleOutM"
       style="overflow:visible"
       inkscape:isstock="true"
       inkscape:collect="always">
      <path
         id="path998"
         d="M 5.77,0.0 L -2.88,5.0 L -2.88,-5.0 L 5.77,0.0 z "
         style="fill-rule:evenodd;stroke:#000000;stroke-width:1pt;stroke-opacity:1;fill:#000000;fill-opacity:1"
         transform="scale(0.4)" />
    </marker>
    <linearGradient
       id="linearGradient849"
       inkscape:collect="always">
      <stop
         id="stop845"
         offset="0"
         style="stop-color:#c1b549;stop-opacity:1" />
      <stop
         id="stop847"
         offset="1"
         style="stop-color:#866100;stop-opacity:1" />
    </linearGradient>
    <linearGradient
       inkscape:collect="always"
       id="linearGradient837">
      <stop
         style="stop-color:#3b58ff;stop-opacity:1"
         offset="0"
         id="stop833" />
      <stop
         style="stop-color:#0022d3;stop-opacity:1"
         offset="1"
         id="stop835" />
    </linearGradient>
    <linearGradient
       inkscape:collect="always"
       id="linearGradient821">
      <stop
         style="stop-color:#ffec83;stop-opacity:1"
         offset="0"
         id="stop817" />
      <stop
         style="stop-color:#eac800;stop-opacity:1"
         offset="1"
         id="stop819" />
    </linearGradient>
    <radialGradient
       inkscape:collect="always"
       xlink:href="#linearGradient821"
       id="radialGradient825"
       cx="90.871635"
       cy="121.13665"
       fx="90.871635"
       fy="121.13665"
       r="9.3544331"
       gradientUnits="userSpaceOnUse" />
    <radialGradient
       inkscape:collect="always"
       xlink:href="#linearGradient837"
       id="radialGradient839"
       cx="127.92062"
       cy="148.35315"
       fx="127.92062"
       fy="148.35315"
       r="3.5907736"
       gradientTransform="matrix(0.88102412,-0.0061589,0.00552184,0.78989325,14.400287,31.964149)"
       gradientUnits="userSpaceOnUse" />
    <radialGradient
       inkscape:collect="always"
       xlink:href="#linearGradient849"
       id="radialGradient843"
       gradientUnits="userSpaceOnUse"
       gradientTransform="matrix(0.74987082,-0.00524206,0.00469983,0.67230611,-40.02246,60.842651)"
       cx="127.92062"
       cy="148.35315"
       fx="127.92062"
       fy="148.35315"
       r="3.5907736" />
  </defs>
  <sodipodi:namedview
     id="base"
     pagecolor="#ffffff"
     bordercolor="#666666"
     borderopacity="1.0"
     inkscape:pageopacity="0.0"
     inkscape:pageshadow="2"
     inkscape:zoom="1.4"
     inkscape:cx="335.19875"
     inkscape:cy="631.07516"
     inkscape:document-units="mm"
     inkscape:current-layer="layer1"
     showgrid="false"
     showguides="false"
     inkscape:snap-global="false"
     inkscape:window-width="1920"
     inkscape:window-height="1017"
     inkscape:window-x="-8"
     inkscape:window-y="-8"
     inkscape:window-maximized="1" />
  <metadata
     id="metadata5">
    <rdf:RDF>
      <cc:Work
         rdf:about="">
        <dc:format>image/svg+xml</dc:format>
        <dc:type
           rdf:resource="http://purl.org/dc/dcmitype/StillImage" />
        <dc:title></dc:title>
      </cc:Work>
    </rdf:RDF>
  </metadata>
  <g
     inkscape:label="Layer 1"
     inkscape:groupmode="layer"
     id="layer1">
    <circle
       style="opacity:1;fill:url(#radialGradient825);fill-opacity:1;stroke:none;stroke-width:0.85699999;stroke-linecap:square;stroke-miterlimit:4;stroke-dasharray:none;stroke-dashoffset:0;stroke-opacity:1"
       id="path815"
       cx="92.207985"
       cy="119.26576"
       r="9.3544331"
       inkscape:export-xdpi="184.6075"
       inkscape:export-ydpi="184.6075" />
    <path
       style="opacity:1;fill:none;fill-opacity:1;stroke:#000000;stroke-width:0.35699999;stroke-linecap:square;stroke-miterlimit:4;stroke-dasharray:none;stroke-dashoffset:0;stroke-opacity:0.40404041"
       d="m 56.50744,161.30655 35.529762,-42.9003 35.718748,30.61607"
       id="path1867"
       inkscape:connector-curvature="0"
       sodipodi:nodetypes="ccc"
       inkscape:export-xdpi="184.6075"
       inkscape:export-ydpi="184.6075" />
    <ellipse
       style="opacity:1;fill:none;fill-opacity:1;stroke:#000000;stroke-width:0.257;stroke-linecap:square;stroke-miterlimit:4;stroke-dasharray:0.77099999, 0.77099998999999986;stroke-dashoffset:0;stroke-opacity:0.30808082"
       id="path827"
       cx="92.876152"
       cy="122.33939"
       rx="56.260235"
       ry="34.611404"
       inkscape:export-xdpi="184.6075"
       inkscape:export-ydpi="184.6075" />
    <ellipse
       ry="44.177422"
       rx="71.761864"
       cy="122.33939"
       cx="92.876144"
       id="ellipse829"
       style="opacity:1;fill:none;fill-opacity:1;stroke:#000000;stroke-width:0.257;stroke-linecap:square;stroke-miterlimit:4;stroke-dasharray:0.77099999, 0.77099998999999986;stroke-dashoffset:0;stroke-opacity:0.30808082"
       inkscape:export-xdpi="184.6075"
       inkscape:export-ydpi="184.6075" />
    <ellipse
       style="opacity:1;fill:url(#radialGradient839);fill-opacity:1;stroke:none;stroke-width:0.55700004;stroke-linecap:square;stroke-miterlimit:4;stroke-dasharray:none;stroke-dashoffset:0;stroke-opacity:1"
       id="path831"
       cx="128.06236"
       cy="148.83192"
       rx="3.5907736"
       ry="3.5435269"
       inkscape:export-xdpi="184.6075"
       inkscape:export-ydpi="184.6075" />
    <ellipse
       ry="3.0160213"
       rx="3.0562346"
       cy="160.31296"
       cx="56.719357"
       id="ellipse841"
       style="opacity:1;fill:url(#radialGradient843);fill-opacity:1;stroke:none;stroke-width:0.55700004;stroke-linecap:square;stroke-miterlimit:4;stroke-dasharray:none;stroke-dashoffset:0;stroke-opacity:1"
       inkscape:export-xdpi="184.6075"
       inkscape:export-ydpi="184.6075" />
    <path
       style="opacity:1;fill:none;fill-opacity:1;stroke:#000000;stroke-width:0.35699999;stroke-linecap:square;stroke-miterlimit:4;stroke-dasharray:none;stroke-dashoffset:0;stroke-opacity:1;marker-end:url(#TriangleOutM)"
       d="m 132.75468,146.80599 5.27857,-3.20724"
       id="path851"
       inkscape:connector-curvature="0"
       inkscape:export-xdpi="184.6075"
       inkscape:export-ydpi="184.6075" />
    <path
       inkscape:connector-curvature="0"
       id="path1225"
       d="m 61.375682,161.79407 4.11372,1.37939"
       style="opacity:1;fill:none;fill-opacity:1;stroke:#000000;stroke-width:0.35699999;stroke-linecap:square;stroke-miterlimit:4;stroke-dasharray:none;stroke-dashoffset:0;stroke-opacity:1;marker-end:url(#marker1229)"
       sodipodi:nodetypes="cc"
       inkscape:export-xdpi="184.6075"
       inkscape:export-ydpi="184.6075" />
    <path
       style="opacity:1;fill:none;fill-opacity:1;stroke:#00b421;stroke-width:0.35741699;stroke-linecap:square;stroke-miterlimit:4;stroke-dasharray:none;stroke-dashoffset:0;stroke-opacity:1"
       id="path1869"
       sodipodi:type="arc"
       sodipodi:cx="97.414978"
       sodipodi:cy="94.354614"
       sodipodi:rx="31.090662"
       sodipodi:ry="43.297653"
       sodipodi:start="1.1316649"
       sodipodi:end="1.9407398"
       sodipodi:open="true"
       d="m 110.63328,133.54424 a 31.090662,43.297653 0 0 1 -24.459527,1.17885"
       transform="matrix(0.9995386,-0.03037418,-0.03792091,0.99928074,0,0)"
       inkscape:export-xdpi="184.6075"
       inkscape:export-ydpi="184.6075" />
    <g
       id="g1910"
       ns1:jacobian_sqrt="0.770846"
       ns1:alignment="middle center"
       ns1:scale="2.18507528063"
       ns1:preamble="C:\\Users\\Buster\\AppData\\Roaming\\inkscape\\extensions\\textext\\default_packages.tex"
       ns1:text="$80^o$"
       ns1:pdfconverter="pdf2svg"
       ns1:texconverter="pdflatex"
       ns1:version="0.11.0"
       transform="matrix(0.55213747,0,0,0.55213747,8.1035563,64.728543)"
       style="stroke-width:1.39611244"
       inkscape:export-xdpi="184.6075"
       inkscape:export-ydpi="184.6075">
      <g
         id="surface1"
         style="stroke-width:1.39611244">
        <g
           id="g1903"
           style="fill:#000000;fill-opacity:1;stroke-width:1.39611244">
          <path
             id="path1899"
             transform="translate(148.712,134.765)"
             d="m 1.625,-4.5625 c -0.453125,-0.296875 -0.5,-0.625 -0.5,-0.796875 0,-0.609375 0.65625,-1.03125 1.359375,-1.03125 0.71875,0 1.359375,0.515625 1.359375,1.234375 0,0.578125 -0.390625,1.046875 -0.984375,1.390625 z m 1.453125,0.953125 C 3.796875,-3.984375 4.28125,-4.5 4.28125,-5.15625 c 0,-0.921875 -0.875,-1.484375 -1.78125,-1.484375 -1,0 -1.8125,0.734375 -1.8125,1.671875 0,0.171875 0.015625,0.625 0.4375,1.09375 0.109375,0.109375 0.484375,0.359375 0.734375,0.53125 C 1.28125,-3.046875 0.421875,-2.5 0.421875,-1.5 c 0,1.046875 1.015625,1.71875 2.0625,1.71875 1.125,0 2.078125,-0.828125 2.078125,-1.890625 0,-0.359375 -0.109375,-0.8125 -0.5,-1.234375 C 3.875,-3.109375 3.71875,-3.203125 3.078125,-3.609375 Z m -1,0.421875 1.234375,0.78125 c 0.28125,0.1875 0.75,0.484375 0.75,1.09375 0,0.734375 -0.75,1.25 -1.5625,1.25 -0.859375,0 -1.578125,-0.609375 -1.578125,-1.4375 0,-0.578125 0.3125,-1.21875 1.15625,-1.6875 z m 0,0"
             style="stroke:none;stroke-width:0"
             inkscape:connector-curvature="0" />
          <path
             id="path1901"
             transform="translate(153.6933,134.765)"
             d="m 4.578125,-3.1875 c 0,-0.796875 -0.046875,-1.59375 -0.390625,-2.328125 -0.453125,-0.96875 -1.28125,-1.125 -1.6875,-1.125 -0.609375,0 -1.328125,0.265625 -1.75,1.1875 -0.3125,0.6875 -0.359375,1.46875 -0.359375,2.265625 0,0.75 0.03125,1.640625 0.453125,2.40625 0.421875,0.796875 1.15625,1 1.640625,1 0.53125,0 1.296875,-0.203125 1.734375,-1.15625 0.3125,-0.6875 0.359375,-1.46875 0.359375,-2.25 z M 2.484375,0 C 2.09375,0 1.5,-0.25 1.328125,-1.203125 1.21875,-1.796875 1.21875,-2.71875 1.21875,-3.3125 c 0,-0.640625 0,-1.296875 0.078125,-1.828125 0.1875,-1.1875 0.9375,-1.28125 1.1875,-1.28125 0.328125,0 0.984375,0.1875 1.171875,1.171875 0.109375,0.5625 0.109375,1.3125 0.109375,1.9375 0,0.75 0,1.421875 -0.109375,2.0625 C 3.5,-0.296875 2.9375,0 2.484375,0 Z m 0,0"
             style="stroke:none;stroke-width:0"
             inkscape:connector-curvature="0" />
        </g>
        <g
           id="g1907"
           style="fill:#000000;fill-opacity:1;stroke-width:1.39611244">
          <path
             id="path1905"
             transform="translate(158.675,131.149)"
             d="m 3.703125,-1.859375 c 0,-0.765625 -0.578125,-1.21875 -1.265625,-1.21875 -1.03125,0 -2,0.96875 -2,1.921875 0,0.703125 0.5,1.21875 1.265625,1.21875 1,0 2,-0.90625 2,-1.921875 z m -2,1.734375 c -0.34375,0 -0.6875,-0.21875 -0.6875,-0.78125 0,-0.28125 0.125,-0.96875 0.40625,-1.359375 C 1.71875,-2.703125 2.125,-2.875 2.4375,-2.875 c 0.375,0 0.6875,0.25 0.6875,0.765625 C 3.125,-1.9375 3.046875,-1.25 2.734375,-0.765625 2.46875,-0.34375 2.0625,-0.125 1.703125,-0.125 Z m 0,0"
             style="stroke:none;stroke-width:0"
             inkscape:connector-curvature="0" />
        </g>
      </g>
    </g>
  </g>
</svg>
