<?xml version="1.0" encoding="UTF-8" standalone="no"?>
<svg
   xmlns:dc="http://purl.org/dc/elements/1.1/"
   xmlns:cc="http://creativecommons.org/ns#"
   xmlns:rdf="http://www.w3.org/1999/02/22-rdf-syntax-ns#"
   xmlns:svg="http://www.w3.org/2000/svg"
   xmlns="http://www.w3.org/2000/svg"
   id="svg2410"
   version="1.1"
   viewBox="0 0 210 297"
   height="297mm"
   width="210mm">
  <defs
     id="defs2404" />
  <metadata
     id="metadata2407">
    <rdf:RDF>
      <cc:Work
         rdf:about="">
        <dc:format>image/svg+xml</dc:format>
        <dc:type
           rdf:resource="http://purl.org/dc/dcmitype/StillImage" />
        <dc:title></dc:title>
      </cc:Work>
    </rdf:RDF>
  </metadata>
  <g
     id="layer1">
    <path
       d="M 21.27731,5.9816759 A 10.723374,10.837453 0 0 1 17.119894,20.720315 10.723374,10.837453 0 0 1 2.536054,16.519892 10.723374,10.837453 0 0 1 6.6910525,1.7805569 10.723374,10.837453 0 0 1 21.275581,5.9785357"
       id="path2364"
       style="display:inline;opacity:1;fill:#a1ff92;fill-opacity:1;stroke:#000000;stroke-width:0.40000001;stroke-linecap:square;stroke-linejoin:bevel;stroke-miterlimit:4;stroke-dasharray:none;stroke-dashoffset:4.71205187;stroke-opacity:1" />
    <path
       transform="translate(-6.7007011,-113.78078)"
       id="path2366"
       d="m 12.220846,125.86782 c 0.09879,1.70025 0.867578,3.35259 2.104558,4.52328 1.236979,1.17068 2.92912,1.84738 4.632234,1.85246 1.703114,0.005 3.39926,-0.66151 4.643201,-1.8248 1.243941,-1.16328 2.022572,-2.81101 2.131503,-4.51064 0.123775,-1.93125 -0.628927,-3.90178 -2.008714,-5.25869 -1.379786,-1.35692 -3.362619,-2.07658 -5.291527,-1.92055"
       style="display:inline;opacity:1;fill:#a1ff92;fill-opacity:1;stroke:#000000;stroke-width:1.89999998;stroke-linecap:square;stroke-linejoin:bevel;stroke-miterlimit:4;stroke-dasharray:none;stroke-dashoffset:4.71205187;stroke-opacity:1" />
    <path
       id="path2390"
       d="m 10.492921,1.8776762 0.627431,6.44543 -4.7912951,-2.96604 z"
       style="display:inline;opacity:1;fill:#000000;fill-opacity:0.95987674;stroke:none;stroke-width:1.89999998;stroke-linecap:square;stroke-linejoin:bevel;stroke-miterlimit:4;stroke-dasharray:none;stroke-dashoffset:4.71205187;stroke-opacity:1" />
  </g>
</svg>
