<?xml version="1.0" encoding="UTF-8" standalone="no"?>
<svg
   xmlns:dc="http://purl.org/dc/elements/1.1/"
   xmlns:cc="http://creativecommons.org/ns#"
   xmlns:rdf="http://www.w3.org/1999/02/22-rdf-syntax-ns#"
   xmlns:svg="http://www.w3.org/2000/svg"
   xmlns="http://www.w3.org/2000/svg"
   id="svg1780"
   version="1.1"
   viewBox="0 0 210 297"
   height="297mm"
   width="210mm">
  <defs
     id="defs1774" />
  <metadata
     id="metadata1777">
    <rdf:RDF>
      <cc:Work
         rdf:about="">
        <dc:format>image/svg+xml</dc:format>
        <dc:type
           rdf:resource="http://purl.org/dc/dcmitype/StillImage" />
        <dc:title></dc:title>
      </cc:Work>
    </rdf:RDF>
  </metadata>
  <g
     id="layer1">
    <path
       transform="matrix(0.19985895,0,0,0.35862107,105.31853,35.218458)"
       id="path1597"
       d="m -500.28913,-37.951726 c -1.80172,-3.424925 -1.97807,-7.661763 -0.46719,-11.224565 1.51088,-3.562802 4.67918,-6.381277 8.3937,-7.466925 1.93834,-0.56652 4.01191,-0.676735 5.99401,-0.290226 1.98209,0.386509 3.86849,1.271808 5.41385,2.571796 2.22559,1.87222 3.67828,4.530548 4.56313,7.301021 1.11138,3.479757 1.39177,7.22187 0.81135,10.828391"
       style="display:inline;fill:none;stroke:#000000;stroke-width:1.49410212;stroke-linecap:butt;stroke-linejoin:miter;stroke-miterlimit:4;stroke-dasharray:none;stroke-opacity:1" />
    <path
       transform="matrix(0.33503611,0,0,0.33167307,171.04099,33.751047)"
       id="path1601"
       d="m -487.34315,-57.09953 0.91262,-31.485652"
       style="display:inline;fill:none;stroke:#000000;stroke-width:1.19993877;stroke-linecap:butt;stroke-linejoin:miter;stroke-miterlimit:4;stroke-dasharray:none;stroke-opacity:1" />
    <path
       transform="matrix(0.23157421,0,0,0.28190947,120.61156,30.050418)"
       id="path1605"
       d="m -485.97423,-74.439454 c 8.51548,-1.53435 17.03336,-3.055399 25.5536,-4.563139 2.58555,-0.457539 5.17132,-0.913853 7.75731,-1.368941"
       style="display:inline;fill:none;stroke:#000000;stroke-width:1.56552517;stroke-linecap:butt;stroke-linejoin:miter;stroke-miterlimit:4;stroke-dasharray:none;stroke-opacity:1" />
    <path
       d="M 10.144741,1.5040731 A 2.3313048,2.0810773 0 0 1 9.2409015,4.3342813 2.3313048,2.0810773 0 0 1 6.0703159,3.5276892 2.3313048,2.0810773 0 0 1 6.9736293,0.69734726 2.3313048,2.0810773 0 0 1 10.144365,1.5034701"
       id="path1613"
       style="display:inline;opacity:1;fill:none;fill-opacity:1;stroke:#000000;stroke-width:0.40000001;stroke-linecap:square;stroke-linejoin:bevel;stroke-miterlimit:4;stroke-dasharray:none;stroke-dashoffset:0;stroke-opacity:1" />
    <path
       transform="matrix(-0.23157421,0,0,0.28190947,-104.35859,30.050436)"
       id="path1605-8"
       d="m -485.97423,-74.439454 c 8.51548,-1.53435 17.03336,-3.055399 25.5536,-4.563139 2.58555,-0.457539 5.17132,-0.913853 7.75731,-1.368941"
       style="display:inline;fill:none;stroke:#000000;stroke-width:1.56552517;stroke-linecap:butt;stroke-linejoin:miter;stroke-miterlimit:4;stroke-dasharray:none;stroke-opacity:1" />
  </g>
</svg>
