<svg width="185.5mm" height="15.46mm" version="1.1" viewBox="0 0 185.5 15.46" xmlns="http://www.w3.org/2000/svg">
 <g transform="translate(-328.3 -136.8)">
  <g id="atematisk" opacity="0">
   <path d="m353.9 147.3c0 0.5349 0 1.311 1.765 1.311h0.8292c0.321 0 0.5349 0 0.5349-0.4012 0-0.4012-0.214-0.4012-0.4547-0.4012-1.043-0.0267-1.043-0.2407-1.043-0.6419v-3.664c0-1.525-1.204-2.621-3.745-2.621-0.9629 0-3.049 0.0803-3.049 1.578 0 0.7489 0.5884 1.07 1.043 1.07 0.5349 0 1.097-0.3744 1.097-1.07 0-0.5082-0.321-0.8024-0.3744-0.8559 0.4814-0.0803 1.016-0.107 1.23-0.107 1.257 0 1.872 0.7222 1.872 2.006v0.5884c-1.23 0.0534-5.563 0.214-5.563 2.675 0 1.632 2.14 1.953 3.317 1.953 1.364 0 2.166-0.6954 2.541-1.418zm-0.2942-2.675v1.605c0 1.658-1.578 1.872-2.006 1.872-0.8559 0-1.551-0.5884-1.551-1.364 0-1.819 2.701-2.06 3.557-2.113z"/>
   <path d="m358.8 141.9v4.681c0 1.819 1.471 2.193 2.701 2.193 1.284 0 2.06-0.9896 2.06-2.22v-0.9094h-0.8024v0.8826c0 1.15-0.5617 1.551-1.043 1.551-0.9896 0-0.9896-1.097-0.9896-1.471v-4.707h2.514v-0.8024h-2.514v-3.263h-0.8024c0 1.712-0.8292 3.397-2.541 3.45v0.6152z"/>
   <path d="m372.6 144.9c0.3744 0 0.5349 0 0.5349-0.4547 0-0.5349-0.107-1.792-0.9629-2.648-0.6152-0.6152-1.525-0.9094-2.701-0.9094-2.728 0-4.226 1.765-4.226 3.878 0 2.3 1.712 3.959 4.467 3.959 2.701 0 3.424-1.819 3.424-2.113 0-0.2942-0.321-0.2942-0.4012-0.2942-0.2942 0-0.321 0.0803-0.428 0.3477-0.3477 0.8292-1.337 1.364-2.434 1.364-2.407 0-2.434-2.273-2.434-3.129zm-5.162-0.5617c0.0267-0.6687 0.0534-1.391 0.4012-1.953 0.4547-0.6687 1.15-0.8826 1.632-0.8826 2.006 0 2.033 2.247 2.06 2.835z"/>
   <path d="m375.6 142.6v5.269h-1.177v0.8024c0.4814-0.0267 1.498-0.0534 2.14-0.0534 0.6687 0 1.685 0.0267 2.14 0.0534v-0.8024h-1.177v-3.557c0-1.872 1.498-2.701 2.568-2.701 0.5617 0 0.9362 0.3477 0.9362 1.658v4.6h-1.177v0.8024c0.4814-0.0267 1.498-0.0534 2.166-0.0534 0.6687 0 1.658 0.0267 2.14 0.0534v-0.8024h-1.177v-3.557c0-1.872 1.471-2.701 2.541-2.701 0.5884 0 0.9629 0.3477 0.9629 1.658v4.6h-1.177v0.8024c0.4814-0.0267 1.498-0.0534 2.14-0.0534 0.6687 0 1.685 0.0267 2.166 0.0534v-0.8024h-1.177v-4.413c0-1.765-0.8826-2.461-2.648-2.461-1.551 0-2.434 0.8559-2.889 1.632-0.321-1.578-1.899-1.632-2.541-1.632-1.498 0-2.461 0.7757-3.022 1.846v-1.846l-2.915 0.1337v0.8024c1.043 0 1.177 0 1.177 0.6687z"/>
   <path d="m396.4 147.3c0 0.5349 0 1.311 1.765 1.311h0.8292c0.321 0 0.5349 0 0.5349-0.4012 0-0.4012-0.214-0.4012-0.4547-0.4012-1.043-0.0267-1.043-0.2407-1.043-0.6419v-3.664c0-1.525-1.204-2.621-3.745-2.621-0.9629 0-3.049 0.0803-3.049 1.578 0 0.7489 0.5884 1.07 1.043 1.07 0.5349 0 1.097-0.3744 1.097-1.07 0-0.5082-0.321-0.8024-0.3744-0.8559 0.4814-0.0803 1.016-0.107 1.23-0.107 1.257 0 1.872 0.7222 1.872 2.006v0.5884c-1.23 0.0534-5.563 0.214-5.563 2.675 0 1.632 2.14 1.953 3.317 1.953 1.364 0 2.166-0.6954 2.541-1.418zm-0.2942-2.675v1.605c0 1.658-1.578 1.872-2.006 1.872-0.8559 0-1.551-0.5884-1.551-1.364 0-1.819 2.701-2.06 3.557-2.113z"/>
   <path d="m401.3 141.9v4.681c0 1.819 1.471 2.193 2.701 2.193 1.284 0 2.06-0.9896 2.06-2.22v-0.9094h-0.8024v0.8826c0 1.15-0.5617 1.551-1.043 1.551-0.9896 0-0.9896-1.097-0.9896-1.471v-4.707h2.514v-0.8024h-2.514v-3.263h-0.8024c0 1.712-0.8292 3.397-2.541 3.45v0.6152z"/>
   <path d="m411 141-2.969 0.1337v0.8024c1.016 0 1.123 0 1.123 0.6687v5.269h-1.177v0.8024c0.5349-0.0267 1.364-0.0534 2.086-0.0534 0.5082 0 1.391 0.0267 1.979 0.0534v-0.8024h-1.043zm0.1604-2.862c0-0.7489-0.6152-1.311-1.311-1.311-0.7489 0-1.337 0.5884-1.337 1.311 0 0.7489 0.5884 1.337 1.337 1.337 0.6954 0 1.311-0.5884 1.311-1.337z"/>
   <path d="m416.2 143.6c-0.6419-0.107-1.739-0.2942-1.739-1.097 0-1.07 1.578-1.07 1.899-1.07 1.284 0 1.926 0.5082 2.006 1.444 0.0267 0.2675 0.0534 0.3477 0.4012 0.3477 0.4012 0 0.4012-0.0803 0.4012-0.4814v-1.364c0-0.321 0-0.4814-0.2942-0.4814-0.0803 0-0.107 0-0.7756 0.321-0.4547-0.214-1.043-0.321-1.712-0.321-0.5349 0-3.156 0-3.156 2.247 0 0.6687 0.3477 1.123 0.6954 1.418 0.6687 0.5884 1.337 0.6954 2.648 0.9361 0.6152 0.107 1.872 0.321 1.872 1.337 0 1.284-1.551 1.284-1.926 1.284-1.819 0-2.247-1.257-2.461-1.979-0.0803-0.2407-0.1872-0.2407-0.4012-0.2407-0.428 0-0.428 0.107-0.428 0.4814v1.872c0 0.321 0 0.4814 0.321 0.4814 0.107 0 0.1337 0 0.5082-0.2675 0.0267 0 0.4012-0.2407 0.428-0.2942 0.8024 0.5617 1.685 0.5617 2.033 0.5617 0.5349 0 3.156 0 3.156-2.487 0-0.7489-0.3477-1.337-0.9361-1.819-0.6687-0.4814-1.23-0.5884-2.541-0.8291z"/>
   <path d="m424 144.6v-7.81l-3.022 0.1337v0.8024c1.043 0 1.177 0 1.177 0.6687v9.442h-1.177v0.8024c0.6152-0.0267 1.418-0.0534 2.033-0.0534 0.6419 0 1.444 0.0267 2.059 0.0534v-0.8024h-1.177v-2.166c0.5082-0.4012 0.6419-0.5082 0.9896-0.7222l1.712 2.14c0.1604 0.214 0.428 0.5349 0.428 0.5884 0 0.1604-0.2942 0.1604-0.5349 0.1604v0.8024c0.5082-0.0267 2.006-0.0534 2.086-0.0534 0.6152 0 1.204 0.0267 1.792 0.0534v-0.8024h-0.2942c-0.7489 0-0.8024-0.0803-1.016-0.3477l-2.889-3.584 2.22-1.739c0.2407-0.1872 0.4012-0.2942 1.551-0.2942v-0.8024c-0.4814 0.0534-0.9094 0.0534-1.337 0.0534-0.4547 0-1.578-0.0534-1.979-0.0534v0.8024c0.4012 0 0.4547 0.0534 0.5884 0.1872z"/>
  </g>
  <g stroke-width=".2646">
   <path id="T" d="m435.6 141.1 0.3722-3.8 10.33 0.0901 0.2893 3.806-0.4217-4e-3q-0.0599-0.7116-0.1145-1.092-0.0463-0.3808-0.1582-0.82t-0.2837-0.6557q-0.1635-0.2164-0.4595-0.4092-0.2959-0.201-0.717-0.2708-0.4211-0.0698-1.016-0.075l-0.678-6e-3q-0.4713-4e-3 -0.6707 0.1099-0.1911 0.1058-0.1948 0.5275l-0.0784 8.987q-5e-3 0.5209 0.3746 0.6648 0.3791 0.1439 1.718 0.1556l0.3555 3e-3 -5e-3 0.5209q-1.81-0.0654-3.001-0.0758-1.695-0.0148-3.415 0.0198l5e-3 -0.5209 0.3721 3e-3q1.323 0.0115 1.696-0.1175 0.3816-0.1372 0.3862-0.6664l0.0784-8.987q4e-3 -0.4217-0.1855-0.5308-0.1809-0.1173-0.6687-0.1216l-0.6614-6e-3q-0.7276-6e-3 -1.208 0.13-0.4724 0.1282-0.7636 0.3323-0.2828 0.196-0.4606 0.674-0.1695 0.4698-0.2476 0.8908-0.0698 0.4211-0.1432 1.247z"/>
   <path id="0" d="m455.8 143.7q3e-3 -0.3555 0.0809-0.7435 0.0778-0.3879 0.2467-0.7916 0.1772-0.4119 0.5267-0.6652 0.3496-0.2615 0.8043-0.2576 0.7276 6e-3 1.235 0.5565 0.5162 0.542 0.5101 1.236-8.7e-4 0.0992-0.134 1.14-0.1331 1.041-0.1387 1.686-0.013 1.488 0.4531 2.088 0.4662 0.5911 1.078 0.5965 0.5788 5e-3 0.9792-0.3966 0.4004-0.4017 0.503-0.7894 0.017-0.0495 0.0208-0.4877l0.0393-4.506q3e-3 -0.339 0.0539-0.4956 0.1357-0.3874 0.5491-0.3838 0.5953 5e-3 0.5882 0.8237l-0.0387 4.432q-0.0159 1.827 0.7943 1.834 0.3059 3e-3 0.4738-0.2853 0.1762-0.2961 0.2122-0.6266 0.036-0.3304 0.0479-0.752 0.012-0.4299 0.0125-0.4795 0.018-0.1652 0.1424-0.2055 0.1326-0.0402 0.2145 0.0598 0.0656 0.0667 0.0629 0.3726-0.0102 1.166-0.2715 1.742-0.2531 0.5766-0.9311 0.5707-1.067-9e-3 -1.751-1.123-0.638 1.094-1.771 1.093-0.4382-4e-3 -0.8587-0.1398-0.4123-0.1276-0.8395-0.4456-0.4272-0.3179-0.6943-0.9817-0.2671-0.6638-0.2591-1.573 6e-3 -0.6945 0.1476-1.76 0.1499-1.065 0.1518-1.289 0.01-1.116-0.6352-1.122-0.4217-4e-3 -0.7646 0.4481-0.343 0.4518-0.4017 1.501-0.0204 0.4381-0.2271 0.4445-0.0827-7.2e-4 -0.148-0.0922-0.0653-0.0998-0.0641-0.2321z"/>
   <path id="1" d="m465.6 143.7q4e-3 -0.5043 0.0322-0.8431 0.0278-0.347 0.139-0.7678 0.1112-0.4207 0.3693-0.6252 0.2582-0.2127 0.6633-0.2092 0.4713 4e-3 0.9978 0.3064 0.5349 0.2941 0.8182 0.9911 0.2433-0.403 0.4105-0.6083 0.1755-0.2134 0.5908-0.4331 0.4154-0.2279 0.9611-0.2231 0.7772 7e-3 1.419 0.3597 0.6419 0.3529 0.636 1.031-3e-3 0.339-0.2365 0.5685-0.2334 0.2212-0.5559 0.2184-0.339-3e-3 -0.5604-0.2199-0.213-0.2251-0.21-0.5641 3e-3 -0.3059 0.178-0.4946 0.1836-0.1968 0.424-0.2609-0.5601-0.2447-1.114-0.2495-0.4878-4e-3 -0.8702 0.2322-0.3741 0.2283-0.5673 0.5738-0.1849 0.3457-0.2785 0.6425-0.0935 0.2968-0.0951 0.4787l-0.0402 4.605q-6e-3 0.7276-0.6017 0.7306-0.4547-4e-3 -0.5586-0.4183-0.0322-0.0995-0.029-0.4716l0.0393-4.506q0.0139-1.596-0.5875-1.849-0.2554-0.1014-0.4965 0.0453-0.2578 0.1631-0.3449 0.675-0.0872 0.5119-0.0996 0.9914-0.0125 0.4795-0.0792 0.545-0.0502 0.0657-0.1412 0.0732-0.215-2e-3 -0.2122-0.3243z"/>
   <path id="2" d="m474.1 147.7q-0.9168-1.066-0.9026-2.687 0.0142-1.629 0.9577-2.679 0.9435-1.05 2.109-1.04 1 9e-3 1.769 1.032 0.0196-0.3554 0.2028-0.5026 0.1915-0.1554 0.3982-0.1536 0.5953 5e-3 0.5808 0.7162l-0.0636 7.292q-6e-3 0.7441-0.3088 1.279-0.2941 0.5349-0.7925 0.8034-0.4903 0.2768-0.9791 0.3884-0.4806 0.1198-0.985 0.1154-2.538-0.0222-2.535-1.312 3e-3 -0.3555 0.2366-0.5767 0.2334-0.213 0.5558-0.2101 0.3059 3e-3 0.5273 0.2196 0.2296 0.2252 0.2266 0.5642-4e-3 0.4878-0.5024 0.7232 0.5771 0.1952 1.478 0.2031 0.7276 6e-3 1.303-0.5013 0.5832-0.4993 0.5933-1.665l0.0169-1.935q-0.753 1.01-1.786 1.001-1.182-0.0103-2.099-1.077zm0.5195-2.683q-6e-3 0.678 0.0233 1.116 0.0376 0.4303 0.2146 0.9858 0.1854 0.5473 0.538 0.8894 0.4017 0.3921 0.8565 0.3961 0.5788 5e-3 1.154-0.5605 0.5838-0.5737 0.5887-1.136l0.0291-3.332q5e-3 -0.5209-0.5444-1.104-0.5406-0.5835-1.169-0.589-0.5044-4e-3 -0.8714 0.3645-0.367 0.3689-0.5449 0.8552-0.2622 0.6757-0.2748 2.114z"/>
   <path id="3" d="m480.7 143.7q3e-3 -0.3555 0.0809-0.7435 0.0778-0.3879 0.2467-0.7916 0.1772-0.4119 0.5267-0.6652 0.3496-0.2615 0.8043-0.2576 0.7276 6e-3 1.235 0.5565 0.5162 0.542 0.5101 1.236-8.6e-4 0.0992-0.134 1.14-0.1331 1.041-0.1387 1.686-0.013 1.488 0.4531 2.088 0.4662 0.5911 1.078 0.5965 0.5788 5e-3 0.9792-0.3966 0.4004-0.4017 0.503-0.7894 0.017-0.0495 0.0208-0.4877l0.0393-4.506q3e-3 -0.339 0.0539-0.4956 0.1357-0.3874 0.5491-0.3838 0.5953 5e-3 0.5882 0.8237l-0.0387 4.432q-0.0159 1.827 0.7943 1.834 0.3059 3e-3 0.4738-0.2853 0.1762-0.2961 0.2122-0.6266 0.036-0.3304 0.0479-0.752 0.012-0.4299 0.0125-0.4795 0.018-0.1652 0.1424-0.2055 0.1326-0.0402 0.2145 0.0598 0.0656 0.0667 0.0629 0.3726-0.0102 1.166-0.2715 1.742-0.2531 0.5766-0.931 0.5707-1.067-9e-3 -1.751-1.123-0.638 1.094-1.771 1.093-0.4382-4e-3 -0.8587-0.1398-0.4123-0.1276-0.8395-0.4456-0.4272-0.3179-0.6943-0.9817-0.2671-0.6638-0.2591-1.573 6e-3 -0.6945 0.1477-1.76 0.1499-1.065 0.1518-1.289 0.01-1.116-0.6352-1.122-0.4217-4e-3 -0.7646 0.4481-0.343 0.4518-0.4017 1.501-0.0204 0.4381-0.2271 0.4445-0.0827-7.2e-4 -0.148-0.0922-0.0653-0.0998-0.0641-0.2321z"/>
   <path id="4" d="m490.5 143.7q4e-3 -0.5044 0.1246-1.016 0.1202-0.5116 0.5212-0.9794 0.4092-0.4677 1.013-0.4625 0.7276 6e-3 1.235 0.5565 0.5162 0.542 0.51 1.253-2e-3 0.1902-0.2831 2.123-0.2732 1.932-0.276 2.255-0.01 1.1 0.6518 1.105 0.1158 1e-3 0.2485-0.0474 0.141-0.0484 0.3241-0.1873 0.1915-0.1472 0.3434-0.5014 0.1602-0.3542 0.2144-0.8746 0.0174-0.0991 0.0186-0.2396 1e-3 -0.1488 0.0102-0.2232 9e-3 -0.0826 0.0261-0.1486 0.0171-0.066 0.0587-0.0987t0.1326-0.0319q0.2232 2e-3 0.2124 0.2912-4e-3 0.5043-0.1247 1.024-0.1202 0.5116-0.5295 0.9793-0.4009 0.4595-0.9879 0.4544-0.7441-6e-3 -1.252-0.5401-0.4996-0.5418-0.4932-1.278 2e-3 -0.1902 0.2665-2.114 0.2731-1.924 0.2759-2.247 0.01-1.116-0.6352-1.122-0.1158-1e-3 -0.2567 0.0474-0.1327 0.0485-0.3324 0.1955-0.1914 0.1389-0.3516 0.5013-0.152 0.3625-0.2062 0.8912-5.8e-4 0.0661-0.0101 0.2066-9e-3 0.1322-0.0183 0.2066-9e-3 0.0743-0.0262 0.1569-0.0172 0.0825-0.059 0.1318-0.0417 0.041-0.1326 0.0402-0.215-2e-3 -0.2123-0.3078zm2.035-4.852q-0.2129-0.2334-0.2103-0.531 3e-3 -0.3059 0.228-0.5437 0.2336-0.2378 0.556-0.2349 0.339 3e-3 0.5518 0.2446 0.2211 0.2417 0.2186 0.5394-3e-3 0.2894-0.2361 0.5271-0.2253 0.2378-0.5478 0.235-0.339-3e-3 -0.5602-0.2364z"/>
   <path id="5" d="m497.9 147.9q-0.9248-1.1-0.9103-2.753 0.0145-1.662 0.95-2.745 0.9355-1.083 2.118-1.073 1.033 9e-3 1.769 1.049l0.0274-3.134q5.7e-4 -0.0661 0.01-0.1984 9e-3 -0.1405 0.0101-0.2066 6e-3 -0.711-0.2239-0.8784-0.2217-0.1756-1.09-0.1832l5e-3 -0.5292 2.49-0.1602-0.0846 9.698q-0.0161 1.844 0.8024 1.851 0.4051 4e-3 0.5749-0.4994 0.178-0.5028 0.1916-1.106 0.0135-0.6035 0.0305-0.653 0.0503-0.0823 0.1497-0.0979 0.1076-0.0156 0.173 0.0677 0.0492 0.05 0.0464 0.3725-0.0102 1.166-0.2715 1.742-0.2614 0.5765-0.9311 0.5707-0.4713-4e-3 -0.9979-0.2981-0.5266-0.294-0.8101-0.9745-0.7385 1.25-1.937 1.24-1.166-0.0102-2.091-1.101zm0.5119-2.757q-6e-3 0.7276 0.023 1.158 0.0376 0.4303 0.2144 1.019 0.1851 0.5804 0.5542 0.9226 0.3855 0.3589 0.8402 0.3629 0.6449 6e-3 1.188-0.585 0.551-0.5988 0.5554-1.103l0.0302-3.456q5e-3 -0.5209-0.5441-1.129-0.5404-0.6083-1.169-0.6138-0.9343-8e-3 -1.417 1.253-0.2624 0.7005-0.2753 2.172z"/>
   <path id="6" d="m506.3 144.7q0.0131-1.505 1.088-2.463 1.075-0.958 2.447-0.9461 0.9177 8e-3 1.542 0.5261 0.6322 0.5099 0.6253 1.304-4e-3 0.4217-0.1883 0.7343-0.1764 0.3127-0.5253 0.4998-0.3488 0.1789-0.6889 0.2999-0.3317 0.1129-0.853 0.1579-0.513 0.0451-0.8438 0.0505-0.3308 5e-3 -0.8269 1e-3l-0.3555-3e-3q0.0164 1.91 0.6205 2.8 0.6122 0.9149 1.497 0.9226 8e-3 7e-5 0.0165 1.4e-4 0.7937 7e-3 1.582-0.3583 0.797-0.3651 1.224-1.023 0.0167-0.0164 0.0922-0.148 0.0838-0.1316 0.134-0.189 0.0502-0.0657 0.1163-0.0651 0.0828-0.0158 0.1483 0.0592 0.0738 0.0668 0.0731 0.1495-1e-3 0.1654-0.2274 0.4693-0.2176 0.304-0.6093 0.6479t-1.08 0.5942q-0.6885 0.2503-1.474 0.2435-1.521-0.0133-2.535-1.287-1.014-1.282-0.9993-2.977zm1.424-0.2274 0.5291 5e-3q0.6118 5e-3 1.05-0.0239 0.4385-0.0292 0.977-0.1486 0.5468-0.1275 0.8471-0.4226t0.3044-0.7663q5e-3 -0.5788-0.4377-1.004-0.4345-0.4255-1.129-0.4316-0.6284-5e-3 -1.128 0.3622-0.4993 0.3677-0.7441 0.9444-0.2278 0.5189-0.2693 1.486z"/>
  </g>
  <g id="pi" transform="matrix(2.415 0 0 2.415 -31.63 -177.1)" stroke-width=".2934">
   <path transform="matrix(.1096 0 0 .1096 13.1 73.34)" d="m1258 520.3c-1.997 0-5.848-1e-3 -10.7 4.277-3.138 2.995-6.701 7.558-6.701 8.557 0 1.284 0.9978 1.285 1.996 1.285 1.426 0 1.568-0.1443 2.281-1.143 3.565-4.278 9.556-4.277 11.27-4.277h5.418c-2.282 7.131-5.846 14.69-10.84 23.82-1.426 2.71-1.711 3.138-1.711 4.422 0 2.567 1.996 4.135 4.42 4.135 1.854 0 3.281-0.9979 3.852-1.568 1.426-1.284 1.426-1.712 1.996-3.566l6.846-27.24h10.27c-2.139 8.414-3.137 13.98-3.137 19.39 0 6.132 1.712 13.12 6.133 13.12 2.995 0 6.273-2.995 6.273-5.99 0-0.9983-0.2849-1.568-1.141-2.994-4.136-7.273-4.135-14.4-4.135-16.83 0-2.139-1e-4 -3.138 0.4277-6.703h11.41c1.517 0 2.81-5e-3 3.979-0.998v-7.426c-0.8798-0.2597-1.838-0.2754-2.553-0.2754z"/>
  </g>
  <path id="underline" d="m437.8 150.3h72.57" fill="none" stroke="#000" stroke-width=".2646px"/>
  <path id="piM" d="m341.4 137.7v2.302h0.3917l1.811 7.207c0.1509 0.4905 0.1507 0.6035 0.5281 0.9431 0.1509 0.1509 0.5285 0.4155 1.019 0.4155 0.6415 0 1.169-0.4153 1.169-1.095 0-0.3396-0.0754-0.453-0.4527-1.17-1.321-2.415-2.264-4.415-2.868-6.301h0.0121c0-1.4e-4 -0.0169-7e-3 -0.0169-7e-3v-2.295z"/>
 </g>
</svg>
