<svg width="77.7mm" height="15.2mm" version="1.1" viewBox="0 0 77.7 15.2" xmlns="http://www.w3.org/2000/svg"><g transform="translate(-469 -222)"><g stroke-width=".265"><path d="m469 226 0.372-3.8 10.3 0.0901 0.289 3.81-0.422-4e-3q-0.0599-0.712-0.114-1.09-0.0463-0.381-0.158-0.82t-0.284-0.656q-0.163-0.216-0.459-0.409-0.296-0.201-0.717-0.271-0.421-0.0698-1.02-0.075l-0.678-6e-3q-0.471-4e-3 -0.671 0.11-0.191 0.106-0.195 0.527l-0.0784 8.99q-5e-3 0.521 0.375 0.665 0.379 0.144 1.72 0.156l0.356 3e-3 -5e-3 0.521q-1.81-0.0654-3-0.0758-1.69-0.0148-3.42 0.0198l5e-3 -0.521 0.372 3e-3q1.32 0.0115 1.7-0.118 0.382-0.137 0.386-0.666l0.0784-8.99q4e-3 -0.422-0.186-0.531-0.181-0.117-0.669-0.122l-0.661-6e-3q-0.728-6e-3 -1.21 0.13-0.472 0.128-0.764 0.332-0.283 0.196-0.461 0.674-0.169 0.47-0.248 0.891-0.0698 0.421-0.143 1.25z"/><path d="m489 228q3e-3 -0.356 0.0809-0.743 0.0778-0.388 0.247-0.792 0.177-0.412 0.527-0.665 0.35-0.262 0.804-0.258 0.728 6e-3 1.24 0.556 0.516 0.542 0.51 1.24-8.7e-4 0.0992-0.134 1.14-0.133 1.04-0.139 1.69-0.013 1.49 0.453 2.09 0.466 0.591 1.08 0.596 0.579 5e-3 0.979-0.397 0.4-0.402 0.503-0.789 0.017-0.0495 0.0208-0.488l0.0393-4.51q3e-3 -0.339 0.0539-0.496 0.136-0.387 0.549-0.384 0.595 5e-3 0.588 0.824l-0.0387 4.43q-0.0159 1.83 0.794 1.83 0.306 3e-3 0.474-0.285 0.176-0.296 0.212-0.627 0.036-0.33 0.0479-0.752 0.012-0.43 0.0125-0.479 0.018-0.165 0.142-0.205 0.133-0.0402 0.214 0.0598 0.0656 0.0667 0.0629 0.373-0.0102 1.17-0.272 1.74-0.253 0.577-0.931 0.571-1.07-9e-3 -1.75-1.12-0.638 1.09-1.77 1.09-0.438-4e-3 -0.859-0.14-0.412-0.128-0.84-0.446-0.427-0.318-0.694-0.982-0.267-0.664-0.259-1.57 6e-3 -0.694 0.148-1.76 0.15-1.07 0.152-1.29 0.01-1.12-0.635-1.12-0.422-4e-3 -0.765 0.448-0.343 0.452-0.402 1.5-0.0204 0.438-0.227 0.445-0.0827-7.2e-4 -0.148-0.0922-0.0653-0.0998-0.0641-0.232z"/><path d="m499 228q4e-3 -0.504 0.0322-0.843 0.0278-0.347 0.139-0.768 0.111-0.421 0.369-0.625 0.258-0.213 0.663-0.209 0.471 4e-3 0.998 0.306 0.535 0.294 0.818 0.991 0.243-0.403 0.41-0.608 0.176-0.213 0.591-0.433 0.415-0.228 0.961-0.223 0.777 7e-3 1.42 0.36 0.642 0.353 0.636 1.03-3e-3 0.339-0.236 0.568-0.233 0.221-0.556 0.218-0.339-3e-3 -0.56-0.22-0.213-0.225-0.21-0.564 3e-3 -0.306 0.178-0.495 0.184-0.197 0.424-0.261-0.56-0.245-1.11-0.25-0.488-4e-3 -0.87 0.232-0.374 0.228-0.567 0.574-0.185 0.346-0.278 0.643-0.0935 0.297-0.0951 0.479l-0.0402 4.61q-6e-3 0.728-0.602 0.731-0.455-4e-3 -0.559-0.418-0.0322-0.0995-0.029-0.472l0.0393-4.51q0.0139-1.6-0.587-1.85-0.255-0.101-0.497 0.0453-0.258 0.163-0.345 0.675-0.0872 0.512-0.0996 0.991-0.0125 0.479-0.0792 0.545-0.0502 0.0657-0.141 0.0732-0.215-2e-3 -0.212-0.324z"/><path d="m508 232q-0.917-1.07-0.903-2.69 0.0142-1.63 0.958-2.68 0.944-1.05 2.11-1.04 1 9e-3 1.77 1.03 0.0196-0.355 0.203-0.503 0.192-0.155 0.398-0.154 0.595 5e-3 0.581 0.716l-0.0636 7.29q-6e-3 0.744-0.309 1.28-0.294 0.535-0.793 0.803-0.49 0.277-0.979 0.388-0.481 0.12-0.985 0.115-2.54-0.0222-2.54-1.31 3e-3 -0.356 0.237-0.577 0.233-0.213 0.556-0.21 0.306 3e-3 0.527 0.22 0.23 0.225 0.227 0.564-4e-3 0.488-0.502 0.723 0.577 0.195 1.48 0.203 0.728 6e-3 1.3-0.501 0.583-0.499 0.593-1.67l0.0169-1.93q-0.753 1.01-1.79 1-1.18-0.0103-2.1-1.08zm0.52-2.68q-6e-3 0.678 0.0233 1.12 0.0376 0.43 0.215 0.986 0.185 0.547 0.538 0.889 0.402 0.392 0.856 0.396 0.579 5e-3 1.15-0.56 0.584-0.574 0.589-1.14l0.0291-3.33q5e-3 -0.521-0.544-1.1-0.541-0.584-1.17-0.589-0.504-4e-3 -0.871 0.364-0.367 0.369-0.545 0.855-0.262 0.676-0.275 2.11z"/><path d="m514 228q3e-3 -0.356 0.0809-0.743 0.0778-0.388 0.247-0.792 0.177-0.412 0.527-0.665 0.35-0.262 0.804-0.258 0.728 6e-3 1.24 0.556 0.516 0.542 0.51 1.24-8.6e-4 0.0992-0.134 1.14-0.133 1.04-0.139 1.69-0.013 1.49 0.453 2.09 0.466 0.591 1.08 0.596 0.579 5e-3 0.979-0.397 0.4-0.402 0.503-0.789 0.017-0.0495 0.0208-0.488l0.0393-4.51q3e-3 -0.339 0.0539-0.496 0.136-0.387 0.549-0.384 0.595 5e-3 0.588 0.824l-0.0387 4.43q-0.0159 1.83 0.794 1.83 0.306 3e-3 0.474-0.285 0.176-0.296 0.212-0.627 0.036-0.33 0.0479-0.752 0.012-0.43 0.0125-0.479 0.018-0.165 0.142-0.205 0.133-0.0402 0.214 0.0598 0.0656 0.0667 0.0629 0.373-0.0102 1.17-0.272 1.74-0.253 0.577-0.931 0.571-1.07-9e-3 -1.75-1.12-0.638 1.09-1.77 1.09-0.438-4e-3 -0.859-0.14-0.412-0.128-0.84-0.446-0.427-0.318-0.694-0.982-0.267-0.664-0.259-1.57 6e-3 -0.694 0.148-1.76 0.15-1.07 0.152-1.29 0.01-1.12-0.635-1.12-0.422-4e-3 -0.765 0.448-0.343 0.452-0.402 1.5-0.0204 0.438-0.227 0.445-0.0827-7.2e-4 -0.148-0.0922-0.0653-0.0998-0.0641-0.232z"/><path d="m524 228q4e-3 -0.504 0.125-1.02 0.12-0.512 0.521-0.979 0.409-0.468 1.01-0.462 0.728 6e-3 1.24 0.556 0.516 0.542 0.51 1.25-2e-3 0.19-0.283 2.12-0.273 1.93-0.276 2.25-0.01 1.1 0.652 1.11 0.116 1e-3 0.248-0.0474 0.141-0.0484 0.324-0.187 0.191-0.147 0.343-0.501 0.16-0.354 0.214-0.875 0.0174-0.0991 0.0186-0.24 1e-3 -0.149 0.0102-0.223 9e-3 -0.0826 0.0261-0.149 0.0171-0.066 0.0587-0.0987t0.133-0.0319q0.223 2e-3 0.212 0.291-4e-3 0.504-0.125 1.02-0.12 0.512-0.529 0.979-0.401 0.46-0.988 0.454-0.744-6e-3 -1.25-0.54-0.5-0.542-0.493-1.28 2e-3 -0.19 0.267-2.11 0.273-1.92 0.276-2.25 0.01-1.12-0.635-1.12-0.116-1e-3 -0.257 0.0474-0.133 0.0485-0.332 0.196-0.191 0.139-0.352 0.501-0.152 0.362-0.206 0.891-5.8e-4 0.0661-0.0101 0.207-9e-3 0.132-0.0183 0.207-9e-3 0.0743-0.0262 0.157-0.0172 0.0825-0.059 0.132-0.0417 0.041-0.133 0.0402-0.215-2e-3 -0.212-0.308zm2.04-4.85q-0.213-0.233-0.21-0.531 3e-3 -0.306 0.228-0.544 0.234-0.238 0.556-0.235 0.339 3e-3 0.552 0.245 0.221 0.242 0.219 0.539-3e-3 0.289-0.236 0.527-0.225 0.238-0.548 0.235-0.339-3e-3 -0.56-0.236z"/><path d="m531 232q-0.925-1.1-0.91-2.75 0.0145-1.66 0.95-2.75 0.936-1.08 2.12-1.07 1.03 9e-3 1.77 1.05l0.0274-3.13q5.7e-4 -0.0661 0.01-0.198 9e-3 -0.14 0.0101-0.207 6e-3 -0.711-0.224-0.878-0.222-0.176-1.09-0.183l5e-3 -0.529 2.49-0.16-0.0846 9.7q-0.0161 1.84 0.802 1.85 0.405 4e-3 0.575-0.499 0.178-0.503 0.192-1.11 0.0135-0.603 0.0305-0.653 0.0503-0.0823 0.15-0.0979 0.108-0.0156 0.173 0.0677 0.0492 0.05 0.0464 0.372-0.0102 1.17-0.272 1.74-0.261 0.577-0.931 0.571-0.471-4e-3 -0.998-0.298-0.527-0.294-0.81-0.974-0.739 1.25-1.94 1.24-1.17-0.0102-2.09-1.1zm0.512-2.76q-6e-3 0.728 0.023 1.16 0.0376 0.43 0.214 1.02 0.185 0.58 0.554 0.923 0.385 0.359 0.84 0.363 0.645 6e-3 1.19-0.585 0.551-0.599 0.555-1.1l0.0302-3.46q5e-3 -0.521-0.544-1.13-0.54-0.608-1.17-0.614-0.934-8e-3 -1.42 1.25-0.262 0.701-0.275 2.17z"/><path d="m540 229q0.0131-1.5 1.09-2.46 1.08-0.958 2.45-0.946 0.918 8e-3 1.54 0.526 0.632 0.51 0.625 1.3-4e-3 0.422-0.188 0.734-0.176 0.313-0.525 0.5-0.349 0.179-0.689 0.3-0.332 0.113-0.853 0.158-0.513 0.0451-0.844 0.0505-0.331 5e-3 -0.827 1e-3l-0.356-3e-3q0.0164 1.91 0.621 2.8 0.612 0.915 1.5 0.923 8e-3 7e-5 0.0165 1.4e-4 0.794 7e-3 1.58-0.358 0.797-0.365 1.22-1.02 0.0167-0.0164 0.0922-0.148 0.0838-0.132 0.134-0.189 0.0502-0.0657 0.116-0.0651 0.0828-0.0158 0.148 0.0592 0.0738 0.0668 0.0731 0.149-1e-3 0.165-0.227 0.469-0.218 0.304-0.609 0.648t-1.08 0.594q-0.688 0.25-1.47 0.243-1.52-0.0133-2.54-1.29-1.01-1.28-0.999-2.98zm1.42-0.227 0.529 5e-3q0.612 5e-3 1.05-0.0239 0.438-0.0292 0.977-0.149 0.547-0.128 0.847-0.423t0.304-0.766q5e-3 -0.579-0.438-1-0.435-0.425-1.13-0.432-0.628-5e-3 -1.13 0.362-0.499 0.368-0.744 0.944-0.228 0.519-0.269 1.49z"/></g></g></svg>
