<svg width="21.78mm" height="10mm" version="1.1" viewBox="0 0 21.78 10" xmlns="http://www.w3.org/2000/svg" xmlns:xlink="http://www.w3.org/1999/xlink">
 <g transform="translate(-44.82 -16.79)">
  <path d="m47.55 26.13s17.54 1.922 16.79-1.51c-0.7497-3.432-12.3-3.432-16.94-1.716-4.648 1.716 9.297 2.952 13.57 2.265 4.273-0.6865 4.273-3.982-0.2249-4.256-4.498-0.2746-21.59 0.8238-13.8 1.853 7.797 1.03 22.49-0.3432 17.32-2.059-5.173-1.716-24.74-0.2746-17.69 0.068 7.047 0.3433 26.32-1.373 17.77-2.197-8.547-0.8237-24.14-0.2745-17.77 0.4806s24.44-0.8237 16.19-1.579-16.27-0.5492-16.27-0.5492" fill="none" opacity=".999" stroke="#616161" stroke-width=".2381px"/>
 </g>
</svg>
