<svg width="265.1mm" height="42.86mm" version="1.1" viewBox="0 0 265.1 42.86" xmlns="http://www.w3.org/2000/svg" xmlns:xlink="http://www.w3.org/1999/xlink">
 <defs>
  <pattern id="b" xlink:href="#c" patternTransform="matrix(10 0 0 10 -121.4 -1181)"/>
  <pattern id="c" xlink:href="#a" patternTransform="matrix(10 0 0 10 657.4 266.6)"/>
  <pattern id="a" xlink:href="#d" patternTransform="matrix(10 0 0 10 .2985 -.01736)"/>
  <pattern id="d" width="1" height="1.73205080756" patternTransform="translate(0) scale(10)" patternUnits="userSpaceOnUse">
   <circle cy=".5" r=".5"/>
   <circle cx="1" cy=".5" r=".5"/>
   <circle cx=".5" cy="1.366" r=".5"/>
   <circle cx=".5" cy="-.366" r=".5"/>
  </pattern>
 </defs>
 <path d="m264.8 20.69-264.8-20.68 0.2457 42.85 264.4-5.886z" fill="#3b6f4b" opacity=".999"/>
 <path d="m265.1 20.68-264.8-20.68 0.2457 42.85 264.4-5.886z" fill="url(#b)" opacity=".037"/>
 <g fill="#fff" fill-opacity=".9596" stroke="#d4dfda" stroke-width=".2">
  <rect transform="rotate(-12.16)" x="4.101" y="29.91" width="4.544" height="4.544" ry="1.107"/>
  <rect transform="rotate(2.398)" x="10.18" y="17.66" width="4.544" height="4.544" ry="1.107"/>
  <rect transform="rotate(-5.917)" x="13.32" y="25.32" width="4.544" height="4.544" ry="1.107"/>
  <rect transform="rotate(12.32)" x="27.23" y="5.161" width="4.544" height="4.544" ry="1.107"/>
 </g>
 <g>
  <circle cx="11.8" cy="29.25" r=".437"/>
  <circle cx="14.26" cy="30.76" r=".437"/>
  <circle cx="11.61" cy="20.23" r=".437"/>
  <circle cx="17.31" cy="24.62" r=".437"/>
  <circle cx="19.08" cy="24.46" r=".437"/>
  <circle cx="17.4" cy="25.9" r=".437"/>
  <circle cx="19.17" cy="25.73" r=".437"/>
  <circle cx="17.57" cy="27.22" r=".437"/>
  <circle cx="19.34" cy="27.06" r=".437"/>
  <circle transform="rotate(30.51)" cx="29.06" cy="-2.926" r=".437"/>
  <circle transform="rotate(30.51)" cx="31.52" cy="-1.414" r=".437"/>
 </g>
 <g transform="translate(138.2 -1149)" opacity=".999">
  <circle cx="36.04" cy="1186" r="4.166" fill="#ea2f32" opacity="1" stroke="#a41113" stroke-width=".162"/>
  <g fill="#a41113">
   <path d="m35.12 1182 0.339 2.192 1.312 0.02 0.5763-2.086c-0.5968-0.2233-1.35-0.3302-2.227-0.1249z"/>
   <path d="m40.12 1185-2.192 0.339-0.01963 1.312 2.087 0.5764c0.2232-0.5968 0.3302-1.35 0.1249-2.227z"/>
   <path d="m36.91 1190-0.339-2.192-1.312-0.02-0.5763 2.086c0.5968 0.2232 1.35 0.3302 2.227 0.1249z"/>
   <path d="m31.95 1187 2.192-0.339 0.01963-1.312-2.087-0.5763c-0.2232 0.5968-0.3302 1.35-0.1248 2.227z"/>
  </g>
 </g>
 <g transform="rotate(17.09 3930 1068)" opacity=".999">
  <circle cx="42.72" cy="1183" r="4.166" fill="#ea2f32" opacity="1" stroke="#a41113" stroke-width=".162"/>
  <g fill="#a41113">
   <path d="m41.8 1179 0.339 2.192 1.312 0.02 0.5763-2.086c-0.5968-0.2233-1.35-0.3302-2.227-0.1249z"/>
   <path d="m46.8 1182-2.192 0.339-0.01963 1.312 2.087 0.5764c0.2232-0.5968 0.3302-1.35 0.1249-2.227z"/>
   <path d="m43.59 1187-0.339-2.192-1.312-0.02-0.5763 2.086c0.5968 0.2232 1.35 0.3302 2.227 0.1249z"/>
   <path d="m38.63 1184 2.192-0.339 0.01963-1.312-2.087-0.5763c-0.2232 0.5968-0.3302 1.35-0.1249 2.227z"/>
  </g>
 </g>
 <g transform="rotate(17.09 3932 1105)" opacity=".999">
  <circle cx="42.72" cy="1183" r="4.166" fill="#ea2f32" opacity="1" stroke="#a41113" stroke-width=".162"/>
  <g fill="#a41113">
   <path d="m41.8 1179 0.339 2.192 1.312 0.02 0.5763-2.086c-0.5968-0.2233-1.35-0.3302-2.227-0.1249z"/>
   <path d="m46.8 1182-2.192 0.339-0.01963 1.312 2.087 0.5764c0.2232-0.5968 0.3302-1.35 0.1249-2.227z"/>
   <path d="m43.59 1187-0.339-2.192-1.312-0.02-0.5763 2.086c0.5968 0.2232 1.35 0.3302 2.227 0.1249z"/>
   <path d="m38.63 1184 2.192-0.339 0.01963-1.312-2.087-0.5763c-0.2232 0.5968-0.3302 1.35-0.1249 2.227z"/>
  </g>
 </g>
 <g transform="rotate(-29.05 -2115 326.6)" opacity=".999">
  <circle cx="42.72" cy="1183" r="4.166" fill="#ea2f32" opacity="1" stroke="#a41113" stroke-width=".162"/>
  <g fill="#a41113">
   <path d="m41.8 1179 0.339 2.192 1.312 0.02 0.5763-2.086c-0.5968-0.2233-1.35-0.3302-2.227-0.1249z"/>
   <path d="m46.8 1182-2.192 0.339-0.01963 1.312 2.087 0.5764c0.2232-0.5968 0.3302-1.35 0.1249-2.227z"/>
   <path d="m43.59 1187-0.339-2.192-1.312-0.02-0.5763 2.086c0.5968 0.2232 1.35 0.3302 2.227 0.1249z"/>
   <path d="m38.63 1184 2.192-0.339 0.01963-1.312-2.087-0.5763c-0.2232 0.5968-0.3302 1.35-0.1249 2.227z"/>
  </g>
 </g>
 <g transform="rotate(-29.05 -2086 292)" opacity=".999">
  <circle cx="42.72" cy="1183" r="4.166" fill="#ea2f32" opacity="1" stroke="#a41113" stroke-width=".162"/>
  <g fill="#a41113">
   <path d="m41.8 1179 0.339 2.192 1.312 0.02 0.5763-2.086c-0.5968-0.2233-1.35-0.3302-2.227-0.1249z"/>
   <path d="m46.8 1182-2.192 0.339-0.01963 1.312 2.087 0.5764c0.2232-0.5968 0.3302-1.35 0.1249-2.227z"/>
   <path d="m43.59 1187-0.339-2.192-1.312-0.02-0.5763 2.086c0.5968 0.2232 1.35 0.3302 2.227 0.1249z"/>
   <path d="m38.63 1184 2.192-0.339 0.01963-1.312-2.087-0.5763c-0.2232 0.5968-0.3302 1.35-0.1249 2.227z"/>
  </g>
 </g>
</svg>
