<svg width="238.7mm" height="43.35mm" version="1.1" viewBox="0 0 238.7 43.35" xmlns="http://www.w3.org/2000/svg">
 <g transform="translate(51.74 -79.53)">
  <rect transform="matrix(.9868 .1622 -.1318 .9913 0 0)" x="66.61" y="81.54" width="13.96" height="23.83" ry="3.073" fill="#f2f2f2" stroke="#757575" stroke-width=".1527"/>
  <g transform="matrix(.5829 .06284 -.05652 .648 -639.2 -373.4)" fill="#35d2ee" opacity=".999" stroke="#000" stroke-width=".4565" aria-label="3">
   <path d="m1251 623.4 0.5286-2.844q3.464 3.208 7.346 3.208 2.133 0 3.336-1.24 1.221-1.258 1.221-3.536 0-1.932-1.094-3.336-1.076-1.404-3.609-1.404h-2.844v-2.844q2.99-0.2188 3.774-0.5104 1.148-0.4922 2.005-1.549 0.875-1.076 0.875-2.57 0-1.422-0.9115-2.224-0.9115-0.8021-2.607-0.8021-1.076 0-2.06 0.3464-0.9661 0.3281-1.568 0.7474-0.5833 0.401-1.13 0.9479-0.5286 0.5469-0.7109 0.8021-0.1641 0.2552-0.2735 0.4557l-1.714-2.479q2.99-3.628 7.456-3.609 2.953 0 5.086 1.677 2.133 1.677 2.133 4.174 0 3.846-3.956 6.052 2.461 0.8568 3.737 2.57 1.294 1.695 1.294 3.664 0 2.88-2.315 5.232t-6.088 2.352q-4.448 0-7.912-3.281z" fill="#35d2ee" stroke="#000" stroke-width=".4565"/>
  </g>
 </g>
</svg>
