<svg width="52.96mm" height="52.85mm" version="1.1" viewBox="0 0 52.96 52.85" xmlns="http://www.w3.org/2000/svg">
 <g transform="matrix(-1.046 .1262 -.1262 -1.046 179.5 208.8)">
  <g transform="matrix(-.464 .06598 -.06598 -.464 335.4 355.4)" opacity=".999">
   <path d="m448.1 395.2a53.93 54.3 0 0 1 3.484 19.39l-53.93-0.192z" opacity="1"/>
   <path transform="rotate(-20.99)" d="m273.3 510.2a53.93 54.3 0 0 1 3.484 19.39l-53.93-0.192z" fill="#fff" opacity="1"/>
   <path transform="rotate(-42.16)" d="m67.11 555a53.93 54.3 0 0 1 3.484 19.39l-53.93-0.192z" fill="#974949" opacity="1"/>
   <path transform="rotate(-64.6)" d="m-153.6 518.9a53.93 54.3 0 0 1 3.484 19.39l-53.93-0.192z" fill="#974949" opacity="1"/>
   <path transform="rotate(254.5)" d="m-455.1 254a53.93 54.3 0 0 1 3.484 19.39l-53.93-0.192z" opacity="1"/>
   <path transform="rotate(-84.58)" d="m-324.6 416.2a53.93 54.3 0 0 1 3.484 19.39l-53.93-0.192z" fill="#fff" opacity="1"/>
   <path transform="rotate(233.6)" d="m-519.3 55.2a53.93 54.3 0 0 1 3.484 19.39l-53.93-0.192z" fill="#fff" opacity="1"/>
   <path transform="rotate(212.6)" d="m-508.2-153.6a53.93 54.3 0 0 1 3.484 19.39l-53.93-0.192z" fill="#974949" opacity="1"/>
   <path transform="rotate(191.9)" d="m-424.6-342.2a53.93 54.3 0 0 1 3.484 19.39l-53.93-0.192z" fill="#fff" opacity="1"/>
   <path transform="rotate(171.2)" d="m-279.9-489.1a53.93 54.3 0 0 1 3.484 19.39l-53.93-0.192z" fill="#fff" opacity="1" stroke="#2b2b2b" stroke-linecap="round" stroke-width=".465"/>
   <path transform="rotate(150.3)" d="m-89.74-576.1a53.93 54.3 0 0 1 3.484 19.39l-53.93-0.192z" fill="#974949" opacity="1"/>
   <path transform="rotate(129.2)" d="m119.8-589.2a53.93 54.3 0 0 1 3.484 19.39l-53.93-0.192z" fill="#fff" opacity="1"/>
   <path transform="rotate(108.3)" d="m318.4-526.9a53.93 54.3 0 0 1 3.484 19.39l-53.93-0.192z" opacity="1" stroke="#2b2b2b" stroke-linecap="round" stroke-width=".565"/>
   <path transform="rotate(87.17)" d="m483.6-396a53.93 54.3 0 0 1 3.484 19.39l-53.93-0.192z" opacity="1"/>
   <path transform="rotate(66.22)" d="m589.7-216.1a53.93 54.3 0 0 1 3.484 19.39l-53.93-0.192z" fill="#974949" opacity="1"/>
   <path transform="rotate(45.37)" d="m624.5-11.24a53.93 54.3 0 0 1 3.484 19.39l-53.93-0.192z" opacity="1"/>
   <path transform="rotate(24.45)" d="m582.6 190.4a53.93 54.3 0 0 1 4.701 22.37l-53.93-0.192z" fill="#fff" opacity="1"/>
  </g>
 </g>
 <path d="m26.7 26.19 5.131-25.73" fill="none" stroke="#000" stroke-width=".2646px"/>
</svg>
