<svg width="81.96mm" height="50.13mm" version="1.1" viewBox="0 0 81.96 50.13" xmlns="http://www.w3.org/2000/svg">
 <path d="m14.38 49.98 67.27-37.82-32.52-12.02-48.89 44.06z" fill="#ff0" opacity=".999" stroke="#000" stroke-width=".2646px"/>
 <g transform="matrix(.5505 .01271 -.01271 .5505 -658.5 -326.7)" fill="#35d2ee" opacity=".999" stroke="#000" stroke-width=".4565" aria-label="2.5">
  <path d="m1251 606.3q1.896-5.414 7.62-5.414 3.846 0 6.125 2.37 2.279 2.37 2.279 5.688 0 1.039-0.3828 2.042-0.3646 0.9844-0.7838 1.659-0.4011 0.6745-1.458 1.659-1.039 0.9844-1.604 1.44-0.5469 0.4375-2.005 1.604-1.039 0.8203-6.271 5.487h12.51v3.135h-15.7v-2.99q4.812-4.521 7.255-6.599 2.388-2.023 3.536-3.664 1.167-1.641 1.167-3.701 0-2.206-1.44-3.682-1.44-1.495-3.755-1.495-3.737 0-5.031 4.995z"/>
  <path d="m1272 626v-4.375h4.375v4.375z"/>
  <path d="m1281 623 1.641-2.607q2.206 3.354 5.961 3.354 1.24 0 2.151-0.3646 0.9115-0.3828 1.13-0.6016 0.237-0.2188 0.6927-0.7474 0.8568-1.24 0.8568-3.737 0-0.9297-0.091-1.586-0.073-0.6562-0.3829-1.604-0.3098-0.9479-1.112-1.477t-2.042-0.5286q-2.771 0-4.029 2.771h-3.136v-14.29h13.36v2.935h-9.935v6.982q1.823-1.24 3.774-1.221 3.062 0 5.268 2.388t2.206 5.742q0 3.464-2.57 5.87-2.552 2.388-6.143 2.388-4.576 0-7.602-3.664z"/>
 </g>
</svg>
