<svg width="903.2" height="631.6" version="1.1" viewBox="0 0 239 167.1" xmlns="http://www.w3.org/2000/svg">
 <g transform="translate(88.24 -106.7)">
  <g>
   <path d="m-87.89 114.5 238.6-4.811-0.1584 161.3-238.8-19z" fill="#f6f020" opacity=".979"/>
   <path d="m-50.84 113.1-37.17 138.3 30.79 2.887 39.33-141.4z" fill="#f6ee09" opacity=".979"/>
   <path d="m11.46 112.8-37.27 144 30.79 2.887 39.43-147.1z" fill="#f6ee11" opacity=".979"/>
  </g>
  <g fill="#362c00" fill-opacity=".03315">
   <rect x="-87.93" y="114.3" width="7.21" height="139.5"/>
   <rect x="-72.69" y="114.3" width="7.21" height="139.5"/>
   <rect x="-56.97" y="110.9" width="7.21" height="142.9"/>
   <rect x="-41.73" y="111.3" width="7.21" height="145.9"/>
   <rect x="-27.44" y="111.8" width="7.21" height="146.7"/>
   <rect x="-12.2" y="108.4" width="7.21" height="151"/>
   <rect x="3.514" y="110.5" width="7.21" height="151.8"/>
   <rect x="18.75" y="109.2" width="7.21" height="154.4"/>
   <rect x="33.04" y="107.1" width="7.21" height="156.9"/>
   <rect x="48.76" y="106.7" width="7.21" height="158.6"/>
   <rect x="64" y="107.5" width="7.21" height="159.5"/>
   <rect x="78.29" y="107.1" width="7.21" height="162"/>
   <rect x="93.53" y="106.7" width="7.21" height="162.4"/>
   <rect x="109.2" y="106.7" width="7.21" height="165.4"/>
   <rect x="124.5" y="108.4" width="7.21" height="164.1"/>
   <rect x="138.8" y="108.4" width="7.21" height="165.4"/>
  </g>
 </g>
</svg>
