<svg width="325.6mm" height="28.57mm" version="1.1" viewBox="0 0 325.6 28.57" xmlns="http://www.w3.org/2000/svg">
 <g transform="translate(98.56 -75.58)">
  <rect transform="matrix(1 0 -.3941 .9191 0 0)" x="-3.1" y="82.24" width="8.58" height="31.09" fill="#ffd517"/>
  <rect transform="matrix(1 0 -.3941 .9191 0 0)" x="5.367" y="82.24" width="8.58" height="31.09" fill="#362c00"/>
  <rect transform="matrix(1 0 -.3941 .9191 0 0)" x="13.83" y="82.24" width="8.58" height="31.09" fill="#ffd517"/>
  <rect transform="matrix(1 0 -.3941 .9191 0 0)" x="22.3" y="82.24" width="8.58" height="31.09" fill="#362c00"/>
  <rect transform="matrix(1 0 -.3941 .9191 0 0)" x="30.77" y="82.24" width="8.58" height="31.09" fill="#ffd517"/>
  <rect transform="matrix(1 0 -.3941 .9191 0 0)" x="39.23" y="82.24" width="8.58" height="31.09" fill="#362c00"/>
  <rect transform="matrix(1 0 -.3941 .9191 0 0)" x="47.7" y="82.24" width="8.58" height="31.09" fill="#ffd517"/>
  <rect transform="matrix(1 0 -.3941 .9191 0 0)" x="56.17" y="82.24" width="8.58" height="31.09" fill="#362c00"/>
  <rect transform="matrix(1 0 -.3941 .9191 0 0)" x="64.63" y="82.24" width="8.58" height="31.09" fill="#ffd517"/>
  <rect transform="matrix(1 0 -.3941 .9191 0 0)" x="73.1" y="82.24" width="8.58" height="31.09" fill="#362c00"/>
  <rect transform="matrix(1 0 -.3941 .9191 0 0)" x="81.57" y="82.24" width="8.58" height="31.09" fill="#ffd517"/>
  <rect transform="matrix(1 0 -.3941 .9191 0 0)" x="90.03" y="82.24" width="8.58" height="31.09" fill="#362c00"/>
  <rect transform="matrix(1 0 -.3941 .9191 0 0)" x="98.5" y="82.24" width="8.58" height="31.09" fill="#ffd517"/>
  <rect transform="matrix(1 0 -.3941 .9191 0 0)" x="107" y="82.24" width="8.58" height="31.09" fill="#362c00"/>
  <rect transform="matrix(1 0 -.3941 .9191 0 0)" x="115.4" y="82.24" width="8.58" height="31.09" fill="#ffd517"/>
  <rect transform="matrix(1 0 -.3941 .9191 0 0)" x="123.9" y="82.24" width="8.58" height="31.09" fill="#362c00"/>
  <rect transform="matrix(1 0 -.3941 .9191 0 0)" x="132.4" y="82.24" width="8.58" height="31.09" fill="#ffd517"/>
  <rect transform="matrix(1 0 -.3941 .9191 0 0)" x="140.8" y="82.24" width="8.58" height="31.09" fill="#362c00"/>
  <rect transform="matrix(1 0 -.3941 .9191 0 0)" x="149.3" y="82.24" width="8.58" height="31.09" fill="#ffd517"/>
  <rect transform="matrix(1 0 -.3941 .9191 0 0)" x="157.8" y="82.24" width="8.58" height="31.09" fill="#362c00"/>
  <rect transform="matrix(1 0 -.3941 .9191 0 0)" x="166.2" y="82.24" width="8.58" height="31.09" fill="#ffd517"/>
  <rect transform="matrix(1 0 -.3941 .9191 0 0)" x="174.7" y="82.24" width="8.58" height="31.09" fill="#362c00"/>
  <rect transform="matrix(1 0 -.3941 .9191 0 0)" x="183.2" y="82.24" width="8.58" height="31.09" fill="#ffd517"/>
  <rect transform="matrix(1 0 -.3941 .9191 0 0)" x="191.6" y="82.24" width="8.58" height="31.09" fill="#362c00"/>
  <rect transform="matrix(1 0 -.3941 .9191 0 0)" x="200.1" y="82.24" width="8.58" height="31.09" fill="#ffd517"/>
  <rect transform="matrix(1 0 -.3941 .9191 0 0)" x="208.6" y="82.24" width="8.58" height="31.09" fill="#362c00"/>
  <rect transform="matrix(1 0 -.3941 .9191 0 0)" x="217" y="82.24" width="8.58" height="31.09" fill="#ffd517"/>
  <rect transform="matrix(1 0 -.3941 .9191 0 0)" x="225.5" y="82.24" width="8.58" height="31.09" fill="#362c00"/>
  <rect transform="matrix(1 0 -.3941 .9191 0 0)" x="250.9" y="82.24" width="8.58" height="31.09" fill="#ffd517"/>
  <rect transform="matrix(1 0 -.3941 .9191 0 0)" x="234" y="82.24" width="8.58" height="31.09" fill="#ffd517"/>
  <rect transform="matrix(1 0 -.3941 .9191 0 0)" x="242.4" y="82.24" width="8.58" height="31.09" fill="#362c00"/>
  <rect transform="matrix(1 0 -.3941 .9191 0 0)" x="-53.9" y="82.24" width="8.58" height="31.09" fill="#ffd517"/>
  <rect transform="matrix(1 0 -.3941 .9191 0 0)" x="-45.43" y="82.24" width="8.58" height="31.09" fill="#362c00"/>
  <rect transform="matrix(1 0 -.3941 .9191 0 0)" x="-36.97" y="82.24" width="8.58" height="31.09" fill="#ffd517"/>
  <rect transform="matrix(1 0 -.3941 .9191 0 0)" x="-28.5" y="82.24" width="8.58" height="31.09" fill="#362c00"/>
  <rect transform="matrix(1 0 -.3941 .9191 0 0)" x="-20.03" y="82.24" width="8.58" height="31.09" fill="#ffd517"/>
  <rect transform="matrix(1 0 -.3941 .9191 0 0)" x="-11.57" y="82.24" width="8.58" height="31.09" fill="#362c00"/>
 </g>
</svg>
