<svg width="12.19mm" height="19.19mm" version="1.1" viewBox="0 0 12.19 19.19" xmlns="http://www.w3.org/2000/svg">
 <g transform="translate(-219.3 -164.5)">
  <g transform="matrix(.7307 -.06341 .06331 .7299 -733.9 -194.1)" fill="#35d2ee" opacity=".999" stroke="#000" stroke-width=".501" aria-label="5">
   <path d="m1251 623 1.641-2.607q2.206 3.354 5.961 3.354 1.24 0 2.151-0.3646 0.9115-0.3828 1.13-0.6016 0.237-0.2188 0.6928-0.7474 0.8567-1.24 0.8567-3.737 0-0.9297-0.091-1.586-0.073-0.6562-0.3828-1.604-0.3099-0.9479-1.112-1.477t-2.042-0.5286q-2.771 0-4.029 2.771h-3.135v-14.29h13.36v2.935h-9.935v6.982q1.823-1.24 3.774-1.221 3.062 0 5.268 2.388t2.206 5.742q0 3.464-2.57 5.87-2.552 2.388-6.143 2.388-4.576 0-7.602-3.664z" fill="#35d2ee" stroke="#000" stroke-width=".501"/>
  </g>
 </g>
</svg>
