<svg width="16.2mm" height="21.07mm" version="1.1" viewBox="0 0 16.2 21.07" xmlns="http://www.w3.org/2000/svg" xmlns:xlink="http://www.w3.org/1999/xlink">
 <defs>
  <radialGradient id="a" cx="126.8" cy="221.6" r="12.57" gradientTransform="matrix(1 0 0 1 0 -.02867)" gradientUnits="userSpaceOnUse">
   <stop stop-color="#ff987b" offset="0"/>
   <stop stop-color="#c22900" stop-opacity=".9176" offset="1"/>
  </radialGradient>
 </defs>
 <g transform="translate(-201 -177.4)">
  <g transform="matrix(.5483 0 0 .5483 275.6 43.28)" opacity=".988">
   <path transform="matrix(1.175 0 0 1.175 -270.4 7.764)" d="m127.5 209.1c-3.306-0.17-6.661 1.03-9.109 3.259-2.448 2.228-3.958 5.456-4.098 8.764-0.1407 3.307 1.089 6.652 3.339 9.08 2.25 2.428 5.491 3.909 8.8 4.021 3.204 0.108 6.434-1.066 8.82-3.207 1.84-1.651 3.176-3.856 3.787-6.251 0.6111-2.395 0.495-4.971-0.3292-7.301-0.8241-2.33-2.353-4.406-4.334-5.884-1.981-1.478-4.406-2.353-6.875-2.48z" fill="url(#a)" opacity="1"/>
   <path transform="matrix(.9864 0 0 .9864 -249.1 49.65)" d="m127.7 202.2c0.0131-0.1667 0.086-0.3257 0.1919-0.4552 0.1059-0.1294 0.2435-0.2305 0.3918-0.3077 0.2966-0.1545 0.6314-0.215 0.9531-0.3062 1.09-0.309 2.038-0.9743 2.956-1.638 0.9178-0.6636 1.848-1.348 2.924-1.703 0.4762-0.1574 0.9869-0.2474 1.48-0.1585 0.2468 0.0444 0.4867 0.134 0.6952 0.2732 0.2085 0.1393 0.3849 0.3292 0.497 0.5535 0.1393 0.2788 0.175 0.6046 0.1189 0.9112-0.0561 0.3066-0.2014 0.5938-0.3999 0.8341-0.3971 0.4806-0.9885 0.7633-1.59 0.9274-1.12 0.3058-2.302 0.2455-3.462 0.2996-0.58 0.0271-1.161 0.0838-1.724 0.2288-0.5623 0.145-1.107 0.3812-1.563 0.7411-0.15 0.1185-0.2907 0.2504-0.455 0.3479-0.0822 0.0488-0.1702 0.0887-0.263 0.1114-0.0928 0.0228-0.1906 0.028-0.2842 8e-3 -0.1453-0.0305-0.2757-0.122-0.3591-0.2448-0.0834-0.1228-0.1203-0.2753-0.1086-0.4233z" fill="#00c407" opacity="1"/>
   <path transform="matrix(.9864 0 0 .9864 -247.6 49.46)" d="m127.1 206.3c5e-3 -0.9383-0.2939-1.876-0.8415-2.638-0.5476-0.7619-1.341-1.344-2.232-1.638-0.9035-0.2982-1.903-0.2982-2.806 0" fill="none" opacity="1" stroke="#584b08" stroke-linecap="round" stroke-linejoin="bevel" stroke-width="2.534"/>
   <path d="m-122.7 249.2s3.361-1.911 5.471-1.845c2.109 0.0659 2.768-2.043 2.768-2.043" fill="#00af07" opacity="1"/>
  </g>
 </g>
</svg>
