<svg width="1005" height="329.6" version="1.1" viewBox="0 0 265.8 87.21" xmlns="http://www.w3.org/2000/svg">
 <g transform="translate(102.1 -110.5)">
  <path d="m-102.1 115.9v81.83h265.8v-87.18z" fill="#f5e1fc" opacity=".979"/>
  <g fill="none" stroke="#e4adf7">
   <path d="m-49.95 114.2-24.75 91.81" opacity=".979" stroke-width=".2646px"/>
   <path d="m-105.4 153.2 230.8 52.6" opacity=".979" stroke-width=".2646px"/>
   <path d="m-47.76 133.4a32.99 32.99 0 0 1 17.62 25.57 32.99 32.99 0 0 1-11.42 28.87l-21.36-25.14z" stroke-width=".1"/>
  </g>
  <g transform="matrix(.1811 0 0 .1811 -284.3 18.27)" fill="#ecc8fb" opacity=".979" stroke-width=".9575" aria-label="i">
   <path d="m1253 615.3q0-0.1094 0.1458-0.6562 0.1459-0.5651 0.5104-1.44 0.3829-0.8932 0.9115-1.695 0.5286-0.8021 1.385-1.367 0.8568-0.5833 1.823-0.5833 1.148 0 1.969 0.7656 0.8385 0.7656 0.8385 2.224 0 0.7838-0.4557 2.078l-2.388 6.398q-0.9662 2.771-0.9662 3.573 0 1.039 0.8203 1.039 2.206 0 3.464-4.667 0.1094-0.4557 0.2005-0.5286 0.1094-0.0911 0.4375-0.0911 0.5651 0 0.5651 0.3646 0 0.1094-0.1458 0.6562-0.1459 0.5469-0.5287 1.422-0.3646 0.875-0.875 1.695-0.5104 0.8203-1.367 1.404-0.8567 0.5833-1.823 0.5833-1.385 0-2.115-0.8932-0.7291-0.9114-0.7291-2.096 0-0.7474 0.6745-2.589 0.8932-2.461 1.385-3.682l1.112-3.099q0.6745-1.823 0.6745-2.698 0-1.039-0.8203-1.039-2.206 0-3.464 4.703-0.1094 0.4193-0.237 0.5104-0.1094 0.0911-0.4375 0.0911-0.5651-0.0182-0.5651-0.3828zm6.016-11.94q0-0.7474 0.5651-1.258 0.5834-0.5286 1.221-0.5286 0.4922 0 0.875 0.2917 0.401 0.2917 0.401 0.9297 0 0.7474-0.5833 1.276-0.5834 0.5104-1.221 0.5104-0.4922 0-0.875-0.2917-0.3828-0.2917-0.3828-0.9297z" fill="#ecc8fb" stroke-width=".9575"/>
  </g>
  <g transform="matrix(.2035 .04422 -.04422 .2035 -244.8 -10.78)" fill="#ecc8fb" opacity=".979" stroke-width=".9575" aria-label="1">
   <path d="m1254 625.6q0-0.4922 0.237-0.5833 0.237-0.1094 0.8021-0.1094h0.2917q2.096 0 2.698-0.2917 0.6015-0.3099 0.8203-1.294l4.411-17.68q-2.06 1.531-4.156 1.531-0.6016 0-0.6016-0.4557 0-0.6016 0.6016-0.7109 3.7-0.3646 6.581-4.211 0.4922-0.6016 0.711-0.6016 0.4557 0 0.4375 0.4557 0 0.1458-0.1094 0.474l-5.341 21.33q-0.1093 0.4557-0.1093 0.7109 0 0.3646 0.1823 0.474 0.1823 0.1094 0.8567 0.1823 0.9662 0.0729 1.604 0.0911h0.3099q0.3646 0 0.5286 0.0182 0.1823 0.0182 0.3099 0.1094 0.1276 0.0911 0.1276 0.3099 0 0.7109-0.7474 0.7109-0.8203 0-2.497-0.0547-1.677-0.0547-2.497-0.0547-0.7839 0-2.443 0.0547-1.641 0.0547-2.461 0.0547-0.5469 0-0.5469-0.4557z" fill="#ecc8fb" stroke-width=".9575"/>
  </g>
 </g>
</svg>
