<svg width="19.36mm" height="15.82mm" version="1.1" viewBox="0 0 19.36 15.82" xmlns="http://www.w3.org/2000/svg" xmlns:ns1="http://www.iki.fi/pav/software/textext/">
 <g transform="translate(-152.8 -122.3)">
  <g transform="matrix(3.591 0 0 3.591 -382.2 -346.2)" opacity=".999" inkscapeversion="0.92.5" ns1:alignment="middle center" ns1:jacobian_sqrt="1.958225" ns1:pdfconverter="pdf2svg" ns1:preamble="C:\\Users\\bbcoo\\AppData\\Roaming\\inkscape\\extensions\\textext\\default_packages.tex" ns1:scale="5.5508762642" ns1:texconverter="pdflatex" ns1:text="$\\pi$" ns1:version="0.11.1">
   <g>
    <path transform="translate(148.7 134.8)" d="m2.641-3.719h1.125c-0.3281 1.469-0.4219 1.906-0.4219 2.578 0 0.1406 0 0.4062 0.07812 0.75 0.1094 0.4375 0.2188 0.5 0.3594 0.5 0.2031 0 0.4219-0.1719 0.4219-0.375 0-0.0625 0-0.07812-0.0625-0.2188-0.2969-0.7188-0.2969-1.375-0.2969-1.656 0-0.5156 0.07812-1.062 0.1875-1.578h1.125c0.1406 0 0.5 0 0.5-0.3438 0-0.2344-0.2188-0.2344-0.4062-0.2344h-3.344c-0.2188 0-0.5938 0-1.031 0.4688-0.3438 0.3906-0.6094 0.8438-0.6094 0.8906 0 0.01562 0 0.1094 0.125 0.1094 0.07812 0 0.09375-0.04688 0.1562-0.125 0.4844-0.7656 1.062-0.7656 1.266-0.7656h0.5625c-0.3125 1.203-0.8438 2.406-1.266 3.312-0.07812 0.1562-0.07812 0.1719-0.07812 0.25 0 0.1875 0.1562 0.2656 0.2812 0.2656 0.2969 0 0.375-0.2812 0.5-0.6406 0.1406-0.4688 0.1406-0.4844 0.2656-0.9844z"/>
   </g>
  </g>
 </g>
</svg>
