<svg width="9.395mm" height="18.46mm" version="1.1" viewBox="0 0 9.395 18.46" xmlns="http://www.w3.org/2000/svg" xmlns:ns1="http://www.iki.fi/pav/software/textext/">
 <g transform="translate(-199.6 -175.6)">
  <g transform="matrix(2.626 .04989 -.04989 2.626 -185.9 -167.3)" inkscapeversion="0.92.5" ns1:alignment="middle center" ns1:jacobian_sqrt="1.958226" ns1:pdfconverter="pdf2svg" ns1:preamble="C:\\Users\\bbcoo\\AppData\\Roaming\\inkscape\\extensions\\textext\\default_packages.tex" ns1:scale="5.5508762642" ns1:texconverter="pdflatex" ns1:text="$?$" ns1:version="0.11.1">
   <g>
    <path transform="translate(148.7 134.8)" d="m2.344-2.484c0-1.25 0.9688-1.969 1.312-2.219 0.2656-0.2031 0.4844-0.5625 0.4844-0.9844 0-0.5781-0.4062-1.344-1.891-1.344-1.078 0-1.688 0.6875-1.688 1.328 0 0.3438 0.2188 0.4844 0.4531 0.4844 0.2812 0 0.4531-0.2031 0.4531-0.4688 0-0.4375-0.4062-0.4375-0.5469-0.4375 0.2969-0.5312 0.875-0.6875 1.297-0.6875 1.094 0 1.094 0.6875 1.094 1.078 0 0.5781-0.1562 0.7656-0.3438 0.9375-0.6562 0.7188-0.875 1.641-0.875 2.25v0.4375c0 0.1875 0 0.25 0.125 0.25s0.125-0.09375 0.125-0.2812zm0.3906 1.953c0-0.2812-0.2344-0.5312-0.5156-0.5312-0.2969 0-0.5312 0.25-0.5312 0.5312 0 0.2969 0.2344 0.5312 0.5312 0.5312 0.2812 0 0.5156-0.2344 0.5156-0.5312z"/>
   </g>
  </g>
 </g>
</svg>
