<svg width="23.97mm" height="17.14mm" version="1.1" viewBox="0 0 23.97 17.14" xmlns="http://www.w3.org/2000/svg">
 <g transform="translate(-200.8 -193.8)">
  <g transform="matrix(2.443 0 0 2.443 -188.4 -118.7)" opacity=".999">
   <path transform="translate(159.2 134.8)" d="m9.312-6.016c0.125-0.3281 0.2188-0.4375 0.4062-0.4688 0.125-0.01562 0.1719-0.09375 0.1719-0.1719 0-0.1719-0.1562-0.1719-0.3281-0.1719h-1.422c-0.1719 0-0.3281 0-0.3281 0.1719 0 0.09375 0.07812 0.1719 0.1562 0.1719 0.2344 0.03125 0.4688 0.04688 0.4688 0.7188 0 0.8594-0.4375 2.141-0.9375 3.609-0.07812-0.1875-1.266-3.234-1.297-4.078 0.03125-0.0625 0.2344-0.2188 0.4688-0.25 0.0625 0 0.2188-0.01562 0.2188-0.1719 0-0.1719-0.1562-0.1719-0.3281-0.1719h-2.406c-0.1719 0-0.3438 0-0.3438 0.1719 0 0.03125 0.03125 0.1406 0.1719 0.1719 0.1719 0.03125 0.3594 0.04688 0.5625 0.5781 0.125 0.2969 0.2656 0.6562 0.375 1l-1.297 2.984-0.7031-2.031c-0.2344-0.6875-0.625-1.922-0.625-2.266 0-0.1094 0.2031-0.2344 0.375-0.2656 0.03125 0 0.1875-0.01562 0.1875-0.1719 0-0.1719-0.1562-0.1719-0.3438-0.1719h-2.109c-0.1719 0-0.3281 0-0.3281 0.1719 0 0.1406 0.1406 0.1719 0.1875 0.1719 0.2344 0.03125 0.3594 0.3438 0.3906 0.4531l2.141 5.984c0.04688 0.1562 0.07812 0.2344 0.1875 0.2344s0.1406-0.0625 0.2031-0.2031l1.922-4.406 1.656 4.375c0.0625 0.1719 0.09375 0.2344 0.2188 0.2344 0.1094 0 0.1406-0.07812 0.1875-0.2344zm-0.1719-0.4688c-0.09375 0.1719-0.2344 0.5781-0.3438 0.8594 0-0.3594 0-0.5938-0.1562-0.8594zm-4.25 0.5c-0.0625-0.1719-0.1406-0.3438-0.25-0.5h1.312c-0.09375 0.07812-0.09375 0.25-0.09375 0.2969 0 0.7812 1.328 4.203 1.5 4.625-0.1562 0.4375-0.2969 0.8125-0.375 1.078zm-3.859-0.03125c-0.03125-0.1094-0.1094-0.2969-0.2031-0.4688h1.188c-0.03125 0.04688-0.0625 0.09375-0.0625 0.25 0 0.7344 1.203 4.062 1.469 4.797l-0.4062 0.9688z"/>
  </g>
 </g>
</svg>
