<svg width="14.81mm" height="16.68mm" version="1.1" viewBox="0 0 14.81 16.68" xmlns="http://www.w3.org/2000/svg">
 <g transform="translate(-193.4 -180.1)">
  <g transform="matrix(2.443 0 0 2.443 -228.8 -132.4)" opacity=".999">
   <path transform="translate(172.5 134.8)" d="m5.938-6.469c0.09375-0.125 0.09375-0.1562 0.09375-0.1875 0-0.1719-0.1562-0.1719-0.3281-0.1719h-4.562c-0.3281 0-0.3281 0.03125-0.3594 0.2812l-0.1406 1.359-0.01562 0.125c0 0.1406 0.1094 0.1875 0.1719 0.1875 0.09375 0 0.1562-0.0625 0.1719-0.1562 0.03125-0.2344 0.125-0.6719 0.7344-1.047 0.5625-0.375 1.266-0.4062 1.609-0.4062h0.7969l-3.734 6.125c-0.09375 0.125-0.09375 0.1562-0.09375 0.1875 0 0.1719 0.1562 0.1719 0.3438 0.1719h5.109c0.2969 0 0.2969-0.01562 0.3438-0.2812l0.2656-1.969c0-0.1094-0.09375-0.1719-0.1719-0.1719-0.1562 0-0.1719 0.09375-0.2031 0.2969-0.1719 0.8125-0.9375 1.781-2.359 1.781h-1.422zm-4.812-0.01562h0.5312v0.01562c-0.2656 0.1562-0.4531 0.3281-0.5781 0.4375zm3.406 0h1.016l-3.766 6.141h-1.016zm0.5156 6.125c0.2812-0.1562 0.5469-0.375 0.7812-0.6562-0.03125 0.2031-0.04688 0.3125-0.09375 0.6719h-0.6875z"/>
  </g>
 </g>
</svg>
