<svg width="17.33mm" height="21.49mm" version="1.1" viewBox="0 0 17.33 21.49" xmlns="http://www.w3.org/2000/svg">
 <g transform="translate(-192.7 -175.7)">
  <g transform="matrix(2.443 0 0 2.443 -254 -136.4)" opacity=".999">
   <path transform="translate(182.5 134.8)" d="m4.766 0.09375c1.406-0.2969 2.656-1.406 2.656-3.5 0-2.516-1.766-3.609-3.547-3.609-1.828 0-3.547 1.141-3.547 3.594 0 2.141 1.281 3.156 2.453 3.469 0.4531 1.016 1.438 1.734 2.672 1.734 0.5 0 1.047-0.09375 1.562-0.2969 0.1875-0.0625 0.2812-0.1094 0.2812-0.2344 0-0.1094-0.09375-0.1719-0.1719-0.1719-0.01562 0-0.03125 0-0.09375 0.01562-0.2812 0.07812-0.3906 0.07812-0.5469 0.07812-0.9219 0-1.484-0.5781-1.719-1.078zm-2.266-6.484c-0.6094 0.7031-0.7656 1.875-0.7656 2.969 0 0.9844 0.125 2.219 0.7812 3-0.6875-0.25-1.844-1.047-1.844-2.984 0-2.031 1.234-2.781 1.828-3zm2.766-0.01562c0.6719 0.25 1.812 1.047 1.812 2.984 0 2.031-1.234 2.781-1.828 3 0.6094-0.7188 0.7656-1.891 0.7656-2.984 0-0.9844-0.1094-2.219-0.7656-2.984zm-1.391 6.25c-1.609 0-1.797-2.109-1.797-3.25 0-1.203 0.2031-3.266 1.797-3.266 1.625 0 1.797 2.109 1.797 3.25 0 1.203-0.2031 3.266-1.797 3.266zm-0.6562 0.2969c0.2812 0.04688 0.6562 0.04688 0.6562 0.04688 0.04688 0 0.2656 0 0.5469-0.03125 0.2656 0.625 0.7344 1.016 1.234 1.203 0.09375 0.04688 0.1094 0.04688 0.1094 0.0625s-0.1875 0.01562-0.3125 0.01562c-0.8438 0-1.719-0.4062-2.234-1.297z"/>
  </g>
 </g>
</svg>
