<svg width="16.76mm" height="16.68mm" version="1.1" viewBox="0 0 16.76 16.68" xmlns="http://www.w3.org/2000/svg">
 <g transform="translate(-192 -178.8)">
  <g transform="matrix(2.443 0 0 2.443 -281.2 -133.8)" opacity=".999">
   <path transform="translate(193.5 134.8)" d="m2.672-3.125h0.3594l1.5 2.312c0.09375 0.1562 0.3281 0.5469 0.4375 0.6875 0.07812 0.125 0.1094 0.125 0.3281 0.125h1.375c0.1875 0 0.3438 0 0.3438-0.1719 0-0.09375-0.0625-0.1562-0.1562-0.1719-0.375-0.07812-0.8594-0.75-1.094-1.062-0.07812-0.09375-0.5781-0.75-1.234-1.828 0.875-0.1719 1.734-0.5469 1.734-1.734 0-1.375-1.453-1.859-2.641-1.859h-3.125c-0.1875 0-0.3438 0-0.3438 0.1719s0.1875 0.1719 0.2656 0.1719c0.5781 0 0.625 0.07812 0.625 0.5781v4.984c0 0.5-0.04688 0.5781-0.625 0.5781-0.07812 0-0.2656 0-0.2656 0.1719s0.1562 0.1719 0.3438 0.1719h2.734c0.1719 0 0.3281 0 0.3281-0.1719s-0.1719-0.1719-0.2812-0.1719c-0.5625 0-0.6094-0.07812-0.6094-0.5781zm1.922-0.5c0.2812-0.3594 0.3125-0.8906 0.3125-1.328 0-0.4844-0.0625-1.016-0.375-1.422 0.4062 0.09375 1.391 0.4062 1.391 1.406 0 0.6562-0.2969 1.156-1.328 1.344zm-1.922-2.312c0-0.2188 0-0.5469 0.625-0.5469 0.8438 0 1.266 0.3594 1.266 1.531 0 1.281-0.3125 1.469-1.891 1.469zm-1.359 5.594c0.07812-0.1875 0.07812-0.4688 0.07812-0.5469v-5.047c0-0.09375 0-0.3594-0.07812-0.5469h1.141c-0.125 0.1719-0.125 0.3594-0.125 0.5156v5.078c0 0.09375 0 0.3594 0.07812 0.5469zm2.125-2.781c0.07812-0.01562 0.1094-0.03125 0.1875-0.03125 0.1562 0 0.375-0.01562 0.5156-0.03125 0.1562 0.2344 1.234 2.016 2.062 2.844h-0.9688z"/>
  </g>
 </g>
</svg>
