<svg width="17.13mm" height="17.81mm" version="1.1" viewBox="0 0 17.13 17.81" xmlns="http://www.w3.org/2000/svg">
 <g transform="translate(-194.1 -175.6)">
  <g transform="matrix(2.538 0 0 2.538 -184 -149.2)" opacity=".999">
   <path transform="translate(148.7 134.8)" d="m1.109-5.938v4.875c0 0.5312-0.07812 0.7031-0.5781 0.7188-0.1094 0-0.2812 0-0.2812 0.1719s0.1562 0.1719 0.3438 0.1719h1.547c0.1719 0 0.3281 0 0.3281-0.1719s-0.1719-0.1719-0.3125-0.1719c-0.5469-0.01562-0.625-0.2188-0.625-0.75v-4.562l4.312 5.703c0.09375 0.1094 0.1406 0.1406 0.2031 0.1406 0.1719 0 0.1719-0.1562 0.1719-0.3281v-5.625c0-0.5625 0.09375-0.7031 0.5469-0.7188 0.0625 0 0.2344 0 0.2344-0.1719s-0.1562-0.1719-0.3281-0.1719h-1.453c-0.1875 0-0.3438 0-0.3438 0.1719s0.1719 0.1719 0.2812 0.1719c0.5625 0.01562 0.6406 0.2188 0.6406 0.75v3.109l-3-4.062c-0.1094-0.1406-0.1406-0.1406-0.3594-0.1406h-1.734c-0.1875 0-0.3281 0-0.3281 0.1719 0 0.1562 0.1406 0.1719 0.2031 0.1719 0.2656 0.03125 0.4531 0.1875 0.5625 0.3125-0.03125 0.07812-0.03125 0.09375-0.03125 0.2344zm4.766 5.422-4.344-5.719c-0.09375-0.125-0.09375-0.1406-0.2031-0.25h1.188l3.359 4.547z"/>
  </g>
 </g>
</svg>
