<svg width="15.77mm" height="17.6mm" version="1.1" viewBox="0 0 15.77 17.6" xmlns="http://www.w3.org/2000/svg" xmlns:ns1="http://www.iki.fi/pav/software/textext/">
 <g transform="translate(-193.4 -176.5)">
  <g transform="matrix(2.443 0 0 2.443 -170.8 -135.6)" opacity=".999" ns1:alignment="middle center" ns1:jacobian_sqrt="0.708584" ns1:pdfconverter="pdf2svg" ns1:preamble="C:\\Users\\bbcoo\\AppData\\Roaming\\inkscape\\extensions\\textext\\default_packages.tex" ns1:scale="2.00858589339" ns1:texconverter="pdflatex" ns1:text="$\\mathbb{C}$" ns1:version="0.11.1">
   <g>
    <path transform="translate(148.7 134.8)" d="m6.547-6.688c0-0.1719 0-0.3281-0.1719-0.3281 0 0-0.1562 0-0.1719 0.1719-0.03125 0.2812-0.2656 0.2812-0.3281 0.2812-0.3594 0-0.7031-0.1406-0.9062-0.2344-0.5-0.2188-0.9375-0.2188-1.094-0.2188-1.656 0-3.5 1.047-3.5 3.594s1.797 3.609 3.516 3.609c0.5312 0 1.25-0.1094 1.969-0.5469 0.4531-0.2812 0.9688-0.7812 0.9688-0.9219s-0.1562-0.2031-0.2031-0.2031c-0.07812 0-0.1094 0.03125-0.2188 0.1406-0.5781 0.6562-1.469 1.047-2.344 1.047-1.547 0-1.938-1.562-1.938-3.109 0-1.953 0.7188-3.266 1.781-3.266 0.75 0 1.953 0.7344 2.281 1.781 0.03125 0.09375 0.0625 0.2031 0.1875 0.2031 0.1719 0 0.1719-0.1719 0.1719-0.3438zm-0.3438 1.031c-0.125-0.1719-0.25-0.3125-0.5-0.5625 0.04688 0.01562 0.125 0.01562 0.1719 0.01562 0.1094 0 0.25-0.03125 0.3281-0.07812zm-3.547-0.7812c-0.2188 0.2344-0.875 1.078-0.875 3.031 0 1 0.1406 2.375 1.047 3.094-1.641-0.5312-2.109-1.875-2.109-3.094 0-1.844 1-2.719 1.938-3.047z"/>
   </g>
  </g>
 </g>
</svg>
