<?xml version="1.0" encoding="UTF-8" standalone="no"?>
<!-- Created with Inkscape (http://www.inkscape.org/) -->

<svg
   xmlns:ns1="http://www.iki.fi/pav/software/textext/"
   xmlns:dc="http://purl.org/dc/elements/1.1/"
   xmlns:cc="http://creativecommons.org/ns#"
   xmlns:rdf="http://www.w3.org/1999/02/22-rdf-syntax-ns#"
   xmlns:svg="http://www.w3.org/2000/svg"
   xmlns="http://www.w3.org/2000/svg"
   xmlns:sodipodi="http://sodipodi.sourceforge.net/DTD/sodipodi-0.dtd"
   xmlns:inkscape="http://www.inkscape.org/namespaces/inkscape"
   width="210mm"
   height="297mm"
   viewBox="0 0 210 297"
   version="1.1"
   id="svg8"
   inkscape:version="0.92.4 (5da689c313, 2019-01-14)"
   sodipodi:docname="ChargeBetweenTwoPlates.svg">
  <defs
     id="defs2">
    <marker
       inkscape:stockid="TriangleOutM"
       orient="auto"
       refY="0.0"
       refX="0.0"
       id="marker1479"
       style="overflow:visible"
       inkscape:isstock="true">
      <path
         id="path1477"
         d="M 5.77,0.0 L -2.88,5.0 L -2.88,-5.0 L 5.77,0.0 z "
         style="fill-rule:evenodd;stroke:#000000;stroke-width:1pt;stroke-opacity:1;fill:#000000;fill-opacity:1"
         transform="scale(0.4)" />
    </marker>
    <inkscape:path-effect
       effect="spiro"
       id="path-effect1475"
       is_visible="true" />
    <marker
       inkscape:isstock="true"
       style="overflow:visible"
       id="marker1267"
       refX="0.0"
       refY="0.0"
       orient="auto"
       inkscape:stockid="TriangleOutM"
       inkscape:collect="always">
      <path
         transform="scale(0.4)"
         style="fill-rule:evenodd;stroke:#000000;stroke-width:1pt;stroke-opacity:1;fill:#000000;fill-opacity:1"
         d="M 5.77,0.0 L -2.88,5.0 L -2.88,-5.0 L 5.77,0.0 z "
         id="path1265" />
    </marker>
    <inkscape:path-effect
       is_visible="true"
       id="path-effect1263"
       effect="spiro" />
    <marker
       inkscape:stockid="TriangleOutM"
       orient="auto"
       refY="0.0"
       refX="0.0"
       id="TriangleOutM"
       style="overflow:visible"
       inkscape:isstock="true"
       inkscape:collect="always">
      <path
         id="path1118"
         d="M 5.77,0.0 L -2.88,5.0 L -2.88,-5.0 L 5.77,0.0 z "
         style="fill-rule:evenodd;stroke:#000000;stroke-width:1pt;stroke-opacity:1;fill:#000000;fill-opacity:1"
         transform="scale(0.4)" />
    </marker>
    <inkscape:path-effect
       effect="spiro"
       id="path-effect971"
       is_visible="true" />
    <inkscape:path-effect
       effect="spiro"
       id="path-effect967"
       is_visible="true" />
    <inkscape:path-effect
       is_visible="true"
       id="path-effect963"
       effect="spiro" />
    <inkscape:path-effect
       is_visible="true"
       id="path-effect959"
       effect="spiro" />
    <inkscape:path-effect
       effect="spiro"
       id="path-effect887"
       is_visible="true" />
    <inkscape:perspective
       sodipodi:type="inkscape:persp3d"
       inkscape:vp_x="0 : 148.5 : 1"
       inkscape:vp_y="0 : 1000 : 0"
       inkscape:vp_z="210 : 148.5 : 1"
       inkscape:persp3d-origin="105 : 99 : 1"
       id="perspective815" />
    <filter
       inkscape:collect="always"
       style="color-interpolation-filters:sRGB"
       id="filter953"
       x="-0.25178124"
       width="1.5035625"
       y="-0.15515988"
       height="1.3103198">
      <feGaussianBlur
         inkscape:collect="always"
         stdDeviation="0.92954523"
         id="feGaussianBlur955" />
    </filter>
  </defs>
  <sodipodi:namedview
     id="base"
     pagecolor="#ffffff"
     bordercolor="#666666"
     borderopacity="1.0"
     inkscape:pageopacity="0.0"
     inkscape:pageshadow="2"
     inkscape:zoom="2.8"
     inkscape:cx="351.92038"
     inkscape:cy="552.15623"
     inkscape:document-units="mm"
     inkscape:current-layer="layer1"
     showgrid="false"
     inkscape:snap-global="false"
     inkscape:window-width="1920"
     inkscape:window-height="1017"
     inkscape:window-x="-8"
     inkscape:window-y="-8"
     inkscape:window-maximized="1" />
  <metadata
     id="metadata5">
    <rdf:RDF>
      <cc:Work
         rdf:about="">
        <dc:format>image/svg+xml</dc:format>
        <dc:type
           rdf:resource="http://purl.org/dc/dcmitype/StillImage" />
        <dc:title />
      </cc:Work>
    </rdf:RDF>
  </metadata>
  <g
     inkscape:label="Layer 1"
     inkscape:groupmode="layer"
     id="layer1">
    <path
       style="opacity:1;fill:none;fill-opacity:1;stroke:#000000;stroke-width:0.2;stroke-linecap:square;stroke-miterlimit:4;stroke-dasharray:0.4, 0.8;stroke-dashoffset:0;stroke-opacity:1"
       d="m 97.286108,164.83521 0,-21.64883"
       id="path839"
       inkscape:connector-curvature="0"
       sodipodi:nodetypes="cc"
       inkscape:export-xdpi="452"
       inkscape:export-ydpi="452" />
    <path
       inkscape:connector-curvature="0"
       id="path847"
       style="fill:#5e5e5e;fill-opacity:1;fill-rule:evenodd;stroke:none;stroke-width:0.75590551;stroke-linecap:square;stroke-linejoin:round;stroke-miterlimit:4;stroke-dasharray:none;stroke-dashoffset:0;stroke-opacity:0.92777776"
       d="m 69.673502,168.89459 17.990904,5.26623 29.044764,-6.09236 -19.200578,-3.21933 z"
       inkscape:export-xdpi="452"
       inkscape:export-ydpi="452" />
    <path
       style="opacity:1;fill:none;fill-opacity:1;stroke:#000000;stroke-width:0.2;stroke-linecap:square;stroke-miterlimit:4;stroke-dasharray:0.4,0.8;stroke-dashoffset:0;stroke-opacity:1"
       d="m 87.664405,174.05602 v -28.0633"
       id="path835"
       inkscape:connector-curvature="0"
       sodipodi:nodetypes="cc"
       inkscape:export-xdpi="452"
       inkscape:export-ydpi="452" />
    <path
       style="opacity:1;fill:#6d6d6d;fill-opacity:1;stroke:none;stroke-width:0.2;stroke-linecap:square;stroke-miterlimit:4;stroke-dasharray:none;stroke-dashoffset:0;stroke-opacity:1"
       d="m 87.597587,145.85908 29.065563,-5.0113 -19.377044,2.13815 -27.729212,4.34313 z"
       id="path837"
       inkscape:connector-curvature="0"
       sodipodi:nodetypes="ccccc"
       inkscape:export-xdpi="452"
       inkscape:export-ydpi="452" />
    <path
       style="opacity:1;fill:none;fill-opacity:1;stroke:#000000;stroke-width:0.2;stroke-linecap:square;stroke-miterlimit:4;stroke-dasharray:0.4,0.8;stroke-dashoffset:0;stroke-opacity:1"
       d="m 116.66315,168.04245 0,-27.12786"
       id="path841"
       inkscape:connector-curvature="0"
       sodipodi:nodetypes="cc"
       inkscape:export-xdpi="452"
       inkscape:export-ydpi="452" />
    <path
       style="opacity:1;fill:none;fill-opacity:1;stroke:#000000;stroke-width:0.2;stroke-linecap:square;stroke-miterlimit:4;stroke-dasharray:0.4, 0.8;stroke-dashoffset:0;stroke-opacity:1"
       d="M 69.757345,168.77745 V 147.32501"
       id="path843"
       inkscape:connector-curvature="0"
       sodipodi:nodetypes="cc"
       inkscape:export-xdpi="452"
       inkscape:export-ydpi="452" />
    <path
       style="opacity:1;fill:none;fill-opacity:1;stroke:#32e0e6;stroke-width:0.2;stroke-linecap:square;stroke-miterlimit:4;stroke-dasharray:none;stroke-dashoffset:0;stroke-opacity:1"
       d="m 79.579501,163.96659 -1.336347,-2.53906 2.939965,-2.13816 -1.403165,-3.34086"
       id="path867"
       inkscape:connector-curvature="0"
       inkscape:export-xdpi="452"
       inkscape:export-ydpi="452" />
    <path
       style="opacity:1;fill:none;fill-opacity:1;stroke:#32c8e6;stroke-width:0.2;stroke-linecap:square;stroke-miterlimit:4;stroke-dasharray:none;stroke-dashoffset:0;stroke-opacity:1"
       d="m 82.786735,152.34037 2.33861,-2.6727 -0.80181,-2.07134"
       id="path869"
       inkscape:connector-curvature="0"
       inkscape:export-xdpi="452"
       inkscape:export-ydpi="452" />
    <path
       style="opacity:1;fill:none;fill-opacity:1;stroke:#32e6b0;stroke-width:0.2;stroke-linecap:square;stroke-miterlimit:4;stroke-dasharray:none;stroke-dashoffset:0;stroke-opacity:1"
       d="m 93.544333,154.34489 -2.071338,6.08038 3.942226,5.61266 -1.202714,2.13816"
       id="path871"
       inkscape:connector-curvature="0"
       inkscape:export-xdpi="452"
       inkscape:export-ydpi="452" />
    <path
       style="opacity:1;fill:none;fill-opacity:1;stroke:#32e0e6;stroke-width:0.2;stroke-linecap:square;stroke-miterlimit:4;stroke-dasharray:none;stroke-dashoffset:0;stroke-opacity:1"
       d="m 107.37553,156.95077 -1.67043,-3.00679 1.9377,-2.80633"
       id="path873"
       inkscape:connector-curvature="0"
       inkscape:export-xdpi="452"
       inkscape:export-ydpi="452" />
    <path
       style="opacity:1;fill:none;fill-opacity:1;stroke:#32cee6;stroke-width:0.2;stroke-linecap:square;stroke-miterlimit:4;stroke-dasharray:none;stroke-dashoffset:0;stroke-opacity:1"
       d="m 104.5692,161.22707 -1.00226,1.73726 1.80407,2.33861 -0.33409,1.26952 0.80181,0.66818"
       id="path875"
       inkscape:connector-curvature="0"
       inkscape:export-xdpi="452"
       inkscape:export-ydpi="452" />
    <path
       style="opacity:1;fill:none;fill-opacity:1;stroke:#32e0e6;stroke-width:0.2;stroke-linecap:square;stroke-miterlimit:4;stroke-dasharray:none;stroke-dashoffset:0;stroke-opacity:1"
       d="M 95.482038,148.66541 94.88068,145.79226 95.882943,144.79"
       id="path877"
       inkscape:connector-curvature="0"
       inkscape:export-xdpi="452"
       inkscape:export-ydpi="452" />
    <path
       style="opacity:1;fill:none;fill-opacity:1;stroke:#32c2e6;stroke-width:0.2;stroke-linecap:square;stroke-miterlimit:4;stroke-dasharray:none;stroke-dashoffset:0;stroke-opacity:1"
       d="m 111.65185,153.6099 0.73499,-5.01131 -4.40995,-2.47224 -3.94222,1.5368 -1.5368,-1.5368"
       id="path881"
       inkscape:connector-curvature="0"
       inkscape:export-xdpi="452"
       inkscape:export-ydpi="452" />
    <path
       inkscape:connector-curvature="0"
       id="path883"
       d="m 75.370006,154.47852 -0.601358,-2.87315 1.002263,-1.00226"
       style="opacity:1;fill:none;fill-opacity:1;stroke:#32e0e6;stroke-width:0.2;stroke-linecap:square;stroke-miterlimit:4;stroke-dasharray:none;stroke-dashoffset:0;stroke-opacity:1"
       inkscape:export-xdpi="452"
       inkscape:export-ydpi="452" />
    <path
       style="opacity:1;fill:#91fff4;fill-opacity:0.28888891;stroke:none;stroke-width:0.15818648;stroke-linecap:square;stroke-miterlimit:4;stroke-dasharray:none;stroke-dashoffset:0;stroke-opacity:1;filter:url(#filter953)"
       d="m 78.443605,165.97111 c -0.427901,0.12119 -0.892967,0.0999 -1.312398,-0.0479 -0.419431,-0.14787 -0.792314,-0.42018 -1.070877,-0.76686 -0.278563,-0.34669 -0.463299,-0.76609 -0.543729,-1.20349 -0.08043,-0.4374 -0.05756,-0.89205 0.05386,-1.3226 0.198863,-0.76849 0.665059,-1.43485 1.095142,-2.10205 0.430083,-0.66719 0.842313,-1.3833 0.909381,-2.17426 0.03785,-0.44633 -0.03729,-0.89595 -0.159577,-1.32686 -0.122292,-0.43091 -0.291289,-0.84682 -0.446387,-1.26704 -0.155098,-0.42022 -0.297212,-0.84824 -0.362625,-1.29136 -0.06541,-0.44313 -0.05133,-0.90488 0.09996,-1.32649 0.148661,-0.41428 0.428892,-0.77903 0.786353,-1.03584 0.357461,-0.2568 0.790187,-0.4056 1.229609,-0.43084 0.439421,-0.0252 0.884242,0.0722 1.276551,0.27175 0.392309,0.19955 0.731662,0.50007 0.9838,0.86084 0.325824,0.4662 0.502643,1.02226 0.600289,1.58259 0.09765,0.56033 0.120406,1.13053 0.165045,1.69755 0.04464,0.56703 0.112459,1.13744 0.29573,1.67588 0.18327,0.53843 0.490576,1.04753 0.943459,1.39163 0.223896,0.17011 0.477724,0.29633 0.7108,0.45363 0.233077,0.1573 0.452038,0.35529 0.558729,0.61545 0.06028,0.14698 0.0819,0.30881 0.06886,0.46713 -0.01304,0.15833 -0.06025,0.31312 -0.131922,0.45489 -0.143347,0.28355 -0.381039,0.51079 -0.645524,0.68684 -0.528969,0.35211 -1.165997,0.5141 -1.696837,0.86338 -0.668001,0.43953 -1.113199,1.13575 -1.589787,1.77784 -0.238294,0.32104 -0.490396,0.63459 -0.78834,0.90121 -0.297944,0.26661 -0.644876,0.48605 -1.029561,0.595 z"
       id="path885"
       inkscape:connector-curvature="0"
       inkscape:path-effect="#path-effect887"
       inkscape:original-d="m 78.443605,165.97111 c -1.136161,1.09162 -1.915165,-2.22751 -2.873148,-3.34087 -0.957979,-1.11336 1.336615,-2.85114 2.004523,-4.27631 0.667909,-1.42517 -0.578821,-3.47477 -0.868627,-5.21175 -0.289806,-1.73699 2.85114,-0.223 4.276313,-0.33409 1.425172,-0.1111 1.336611,4.2315 2.004523,6.34765 0.667908,2.11615 0.846616,0.71245 1.269529,1.06908 0.422912,0.35662 -1.603354,1.64789 -2.405425,2.47224 -0.802074,0.82435 -2.271528,2.18244 -3.407688,3.27405 z"
       transform="matrix(1.1408039,0.58624878,-0.56964634,1.1084966,79.560942,-63.508572)"
       inkscape:export-xdpi="452"
       inkscape:export-ydpi="452" />
    <path
       transform="matrix(1.2826228,0,0,1.2462992,-10.237497,-39.561562)"
       inkscape:original-d="m 78.443605,165.97111 c -1.136161,1.09162 -1.915165,-2.22751 -2.873148,-3.34087 -0.957979,-1.11336 -0.64297,-2.63669 0.02494,-4.06186 0.667909,-1.42517 1.400764,-3.68922 1.110958,-5.4262 -0.289806,-1.73699 5.455857,-0.11577 6.88103,-0.22686 1.425172,-0.1111 -1.268106,4.12427 -0.600194,6.24042 0.667908,2.11615 3.555521,0.71245 3.978434,1.06908 0.422912,0.35662 -3.739221,3.57794 -4.541292,4.40229 -0.802074,0.82435 -2.844566,0.25239 -3.980726,1.344 z"
       inkscape:path-effect="#path-effect959"
       inkscape:connector-curvature="0"
       id="path957"
       d="m 78.443605,165.97111 c -1.401318,-0.59362 -2.495975,-1.86648 -2.873148,-3.34087 -0.337562,-1.31955 -0.120878,-2.70765 0.02494,-4.06186 0.198857,-1.84679 0.277567,-3.76619 1.110958,-5.4262 0.346204,-0.68959 0.821218,-1.32036 1.423298,-1.80295 0.602081,-0.48259 1.334376,-0.81259 2.101903,-0.89195 0.767526,-0.0794 1.567985,0.10092 2.199373,0.54448 0.631387,0.44356 1.079322,1.15581 1.156456,1.92356 0.05529,0.55034 -0.07425,1.10434 -0.264794,1.62359 -0.190544,0.51926 -0.441982,1.01409 -0.644265,1.52889 -0.202283,0.51479 -0.356441,1.0597 -0.338735,1.61253 0.0089,0.27641 0.06135,0.55265 0.168061,0.80778 0.106715,0.25514 0.268594,0.48879 0.479539,0.66763 0.267104,0.22646 0.603762,0.35854 0.946595,0.4299 0.342833,0.0714 0.694637,0.0855 1.044526,0.0998 0.349889,0.0143 0.70173,0.0293 1.044198,0.10242 0.342469,0.0731 0.67831,0.20782 0.943115,0.43696 0.25387,0.21968 0.433367,0.52083 0.519729,0.84525 0.08636,0.32443 0.0811,0.67088 -0.0011,0.99639 -0.164359,0.65102 -0.628933,1.1994 -1.191272,1.5663 -0.562338,0.36689 -1.217723,0.56769 -1.876823,0.69584 -0.6591,0.12816 -1.329563,0.18798 -1.991847,0.29851 -1.387322,0.23153 -2.736985,0.68721 -3.980726,1.344 z"
       style="opacity:1;fill:#91ffa3;fill-opacity:0.24444444;stroke:none;stroke-width:0.15818648;stroke-linecap:square;stroke-miterlimit:4;stroke-dasharray:none;stroke-dashoffset:0;stroke-opacity:1;filter:url(#filter953)"
       sodipodi:nodetypes="ccssccccc"
       inkscape:export-xdpi="452"
       inkscape:export-ydpi="452" />
    <path
       transform="matrix(0.7122725,-1.0666719,1.0364641,0.69210112,-114.01926,125.08526)"
       inkscape:original-d="m 78.443605,165.97111 c -1.136161,1.09162 -1.915165,-2.22751 -2.873148,-3.34087 -0.957979,-1.11336 1.336615,-2.85114 2.004523,-4.27631 0.667909,-1.42517 -0.578821,-3.47477 -0.868627,-5.21175 -0.289806,-1.73699 2.85114,-0.223 4.276313,-0.33409 1.425172,-0.1111 1.336611,4.2315 2.004523,6.34765 0.667908,2.11615 0.846616,0.71245 1.269529,1.06908 0.422912,0.35662 -1.603354,1.64789 -2.405425,2.47224 -0.802074,0.82435 -2.271528,2.18244 -3.407688,3.27405 z"
       inkscape:path-effect="#path-effect963"
       inkscape:connector-curvature="0"
       id="path961"
       d="m 78.443605,165.97111 c -0.427901,0.12119 -0.892967,0.0999 -1.312398,-0.0479 -0.419431,-0.14787 -0.792314,-0.42018 -1.070877,-0.76686 -0.278563,-0.34669 -0.463299,-0.76609 -0.543729,-1.20349 -0.08043,-0.4374 -0.05756,-0.89205 0.05386,-1.3226 0.198863,-0.76849 0.665059,-1.43485 1.095142,-2.10205 0.430083,-0.66719 0.842313,-1.3833 0.909381,-2.17426 0.03785,-0.44633 -0.03729,-0.89595 -0.159577,-1.32686 -0.122292,-0.43091 -0.291289,-0.84682 -0.446387,-1.26704 -0.155098,-0.42022 -0.297212,-0.84824 -0.362625,-1.29136 -0.06541,-0.44313 -0.05133,-0.90488 0.09996,-1.32649 0.148661,-0.41428 0.428892,-0.77903 0.786353,-1.03584 0.357461,-0.2568 0.790187,-0.4056 1.229609,-0.43084 0.439421,-0.0252 0.884242,0.0722 1.276551,0.27175 0.392309,0.19955 0.731662,0.50007 0.9838,0.86084 0.325824,0.4662 0.502643,1.02226 0.600289,1.58259 0.09765,0.56033 0.120406,1.13053 0.165045,1.69755 0.04464,0.56703 0.112459,1.13744 0.29573,1.67588 0.18327,0.53843 0.490576,1.04753 0.943459,1.39163 0.223896,0.17011 0.477724,0.29633 0.7108,0.45363 0.233077,0.1573 0.452038,0.35529 0.558729,0.61545 0.06028,0.14698 0.0819,0.30881 0.06886,0.46713 -0.01304,0.15833 -0.06025,0.31312 -0.131922,0.45489 -0.143347,0.28355 -0.381039,0.51079 -0.645524,0.68684 -0.528969,0.35211 -1.165997,0.5141 -1.696837,0.86338 -0.668001,0.43953 -1.113199,1.13575 -1.589787,1.77784 -0.238294,0.32104 -0.490396,0.63459 -0.78834,0.90121 -0.297944,0.26661 -0.644876,0.48605 -1.029561,0.595 z"
       style="opacity:1;fill:#3effec;fill-opacity:0.16111112;stroke:none;stroke-width:0.15818648;stroke-linecap:square;stroke-miterlimit:4;stroke-dasharray:none;stroke-dashoffset:0;stroke-opacity:1;filter:url(#filter953)"
       inkscape:export-xdpi="452"
       inkscape:export-ydpi="452" />
    <path
       style="opacity:1;fill:#3effec;fill-opacity:0.16111115;stroke:none;stroke-width:0.15818648;stroke-linecap:square;stroke-miterlimit:4;stroke-dasharray:none;stroke-dashoffset:0;stroke-opacity:1;filter:url(#filter953)"
       d="m 78.443605,165.97111 c -0.427901,0.12119 -0.892967,0.0999 -1.312398,-0.0479 -0.419431,-0.14787 -0.792314,-0.42018 -1.070877,-0.76686 -0.278563,-0.34669 -0.463299,-0.76609 -0.543729,-1.20349 -0.08043,-0.4374 -0.05756,-0.89205 0.05386,-1.3226 0.198863,-0.76849 0.665059,-1.43485 1.095142,-2.10205 0.430083,-0.66719 0.842313,-1.3833 0.909381,-2.17426 0.03785,-0.44633 -0.03729,-0.89595 -0.159577,-1.32686 -0.122292,-0.43091 -0.291289,-0.84682 -0.446387,-1.26704 -0.155098,-0.42022 -0.297212,-0.84824 -0.362625,-1.29136 -0.06541,-0.44313 -0.05133,-0.90488 0.09996,-1.32649 0.148661,-0.41428 0.428892,-0.77903 0.786353,-1.03584 0.357461,-0.2568 0.790187,-0.4056 1.229609,-0.43084 0.439421,-0.0252 0.884242,0.0722 1.276551,0.27175 0.392309,0.19955 0.731662,0.50007 0.9838,0.86084 0.325824,0.4662 0.502643,1.02226 0.600289,1.58259 0.09765,0.56033 0.120406,1.13053 0.165045,1.69755 0.04464,0.56703 0.112459,1.13744 0.29573,1.67588 0.18327,0.53843 0.490576,1.04753 0.943459,1.39163 0.223896,0.17011 0.477724,0.29633 0.7108,0.45363 0.233077,0.1573 0.452038,0.35529 0.558729,0.61545 0.06028,0.14698 0.0819,0.30881 0.06886,0.46713 -0.01304,0.15833 -0.06025,0.31312 -0.131922,0.45489 -0.143347,0.28355 -0.381039,0.51079 -0.645524,0.68684 -0.528969,0.35211 -1.165997,0.5141 -1.696837,0.86338 -0.668001,0.43953 -1.113199,1.13575 -1.589787,1.77784 -0.238294,0.32104 -0.490396,0.63459 -0.78834,0.90121 -0.297944,0.26661 -0.644876,0.48605 -1.029561,0.595 z"
       id="path965"
       inkscape:connector-curvature="0"
       inkscape:path-effect="#path-effect967"
       inkscape:original-d="m 78.443605,165.97111 c -1.136161,1.09162 -1.915165,-2.22751 -2.873148,-3.34087 -0.957979,-1.11336 1.336615,-2.85114 2.004523,-4.27631 0.667909,-1.42517 -0.578821,-3.47477 -0.868627,-5.21175 -0.289806,-1.73699 2.85114,-0.223 4.276313,-0.33409 1.425172,-0.1111 1.336611,4.2315 2.004523,6.34765 0.667908,2.11615 0.846616,0.71245 1.269529,1.06908 0.422912,0.35662 -1.603354,1.64789 -2.405425,2.47224 -0.802074,0.82435 -2.271528,2.18244 -3.407688,3.27405 z"
       transform="matrix(-0.28924419,-1.2495835,1.2141956,-0.28105293,-65.173611,310.8663)"
       inkscape:export-xdpi="452"
       inkscape:export-ydpi="452" />
    <path
       style="opacity:1;fill:none;fill-opacity:0.24444444;stroke:#000000;stroke-width:0.2;stroke-linecap:square;stroke-miterlimit:4;stroke-dasharray:none;stroke-dashoffset:0;stroke-opacity:1;marker-end:url(#TriangleOutM)"
       d="m 87.731221,174.08942 10.757598,-2.17156"
       id="path969"
       inkscape:connector-curvature="0"
       inkscape:path-effect="#path-effect971"
       inkscape:original-d="m 87.731221,174.08942 c 3.563858,-0.72412 7.171996,-1.44797 10.757598,-2.17156"
       inkscape:export-xdpi="452"
       inkscape:export-ydpi="452" />
    <path
       inkscape:original-d="m 87.731221,174.08942 c 3.563858,-0.72412 7.171996,-1.44797 10.757598,-2.17156"
       inkscape:path-effect="#path-effect1263"
       inkscape:connector-curvature="0"
       id="path1261"
       d="m 87.731221,174.08942 10.757598,-2.17156"
       style="opacity:1;fill:none;fill-opacity:0.24444442;stroke:#000000;stroke-width:0.2;stroke-linecap:square;stroke-miterlimit:4;stroke-dasharray:none;stroke-dashoffset:0;stroke-opacity:1;marker-end:url(#marker1267)"
       inkscape:transform-center-x="0.089655512"
       inkscape:transform-center-y="-5.6294522"
       transform="rotate(-78.441612,87.683565,174.1326)"
       inkscape:export-xdpi="452"
       inkscape:export-ydpi="452" />
    <path
       transform="rotate(-151.63452,87.671623,174.15427)"
       inkscape:transform-center-y="-1.5419359"
       inkscape:transform-center-x="5.4149062"
       style="opacity:1;fill:none;fill-opacity:0.24444442;stroke:#000000;stroke-width:0.2;stroke-linecap:square;stroke-miterlimit:4;stroke-dasharray:none;stroke-dashoffset:0;stroke-opacity:1;marker-end:url(#marker1479)"
       d="m 87.731221,174.08942 10.757598,-2.17156"
       id="path1473"
       inkscape:connector-curvature="0"
       inkscape:path-effect="#path-effect1475"
       inkscape:original-d="m 87.731221,174.08942 c 3.563858,-0.72412 7.171996,-1.44797 10.757598,-2.17156"
       inkscape:export-xdpi="452"
       inkscape:export-ydpi="452" />
    <g
       id="g1808"
       ns1:jacobian_sqrt="0.360348"
       inkscapeversion="0.92.4"
       ns1:alignment="middle center"
       ns1:scale="1.02146006288"
       ns1:preamble="C:\\Users\\Buster\\AppData\\Roaming\\inkscape\\extensions\\textext\\default_packages.tex"
       ns1:text="$x$"
       ns1:pdfconverter="pdf2svg"
       ns1:texconverter="pdflatex"
       ns1:version="0.11.0"
       transform="matrix(0.360348,0,0,0.360348,45.20077,125.43432)"
       inkscape:export-xdpi="452"
       inkscape:export-ydpi="452">
      <g
         id="surface1">
        <g
           id="g1805"
           style="fill:#000000;fill-opacity:1">
          <path
             id="path1803"
             transform="translate(148.712,134.765)"
             d="M 3.328125,-3.015625 C 3.390625,-3.265625 3.625,-4.1875 4.3125,-4.1875 c 0.046875,0 0.296875,0 0.5,0.125 C 4.53125,-4 4.34375,-3.765625 4.34375,-3.515625 c 0,0.15625 0.109375,0.34375 0.375,0.34375 0.21875,0 0.53125,-0.171875 0.53125,-0.578125 0,-0.515625 -0.578125,-0.65625 -0.921875,-0.65625 -0.578125,0 -0.921875,0.53125 -1.046875,0.75 -0.25,-0.65625 -0.78125,-0.75 -1.078125,-0.75 -1.03125,0 -1.609375,1.28125 -1.609375,1.53125 0,0.109375 0.109375,0.109375 0.125,0.109375 0.078125,0 0.109375,-0.03125 0.125,-0.109375 0.34375,-1.0625 1,-1.3125 1.34375,-1.3125 0.1875,0 0.53125,0.09375 0.53125,0.671875 0,0.3125 -0.171875,0.96875 -0.53125,2.375 -0.15625,0.609375 -0.515625,1.03125 -0.953125,1.03125 -0.0625,0 -0.28125,0 -0.5,-0.125 0.25,-0.0625 0.46875,-0.265625 0.46875,-0.546875 0,-0.265625 -0.21875,-0.34375 -0.359375,-0.34375 -0.3125,0 -0.546875,0.25 -0.546875,0.578125 0,0.453125 0.484375,0.65625 0.921875,0.65625 0.671875,0 1.03125,-0.703125 1.046875,-0.75 0.125,0.359375 0.484375,0.75 1.078125,0.75 1.03125,0 1.59375,-1.28125 1.59375,-1.53125 0,-0.109375 -0.078125,-0.109375 -0.109375,-0.109375 -0.09375,0 -0.109375,0.046875 -0.140625,0.109375 -0.328125,1.078125 -1,1.3125 -1.3125,1.3125 -0.390625,0 -0.546875,-0.3125 -0.546875,-0.65625 0,-0.21875 0.046875,-0.4375 0.15625,-0.875 z m 0,0"
             style="stroke:none;stroke-width:0"
             inkscape:connector-curvature="0" />
        </g>
      </g>
    </g>
    <g
       id="g1874"
       ns1:jacobian_sqrt="0.360348"
       inkscapeversion="0.92.4"
       ns1:alignment="middle center"
       ns1:scale="1.02146006288"
       ns1:preamble="C:\\Users\\Buster\\AppData\\Roaming\\inkscape\\extensions\\textext\\default_packages.tex"
       ns1:text="$y$"
       ns1:pdfconverter="pdf2svg"
       ns1:texconverter="pdflatex"
       ns1:version="0.11.0"
       transform="matrix(0.360348,0,0,0.360348,20.877176,124.08297)"
       inkscape:export-xdpi="452"
       inkscape:export-ydpi="452">
      <g
         id="g1872">
        <g
           id="g1870"
           style="fill:#000000;fill-opacity:1">
          <path
             id="path1868"
             transform="translate(148.712,134.765)"
             d="m 4.84375,-3.796875 c 0.046875,-0.140625 0.046875,-0.15625 0.046875,-0.234375 0,-0.171875 -0.140625,-0.265625 -0.296875,-0.265625 -0.09375,0 -0.25,0.0625 -0.34375,0.203125 -0.015625,0.0625 -0.109375,0.359375 -0.140625,0.546875 -0.078125,0.25 -0.140625,0.53125 -0.203125,0.796875 l -0.453125,1.796875 c -0.03125,0.140625 -0.46875,0.84375 -1.125,0.84375 -0.5,0 -0.609375,-0.4375 -0.609375,-0.8125 C 1.71875,-1.375 1.890625,-2 2.21875,-2.875 2.375,-3.28125 2.421875,-3.390625 2.421875,-3.59375 c 0,-0.4375 -0.3125,-0.8125 -0.8125,-0.8125 -0.953125,0 -1.3125,1.453125 -1.3125,1.53125 0,0.109375 0.09375,0.109375 0.109375,0.109375 0.109375,0 0.109375,-0.03125 0.15625,-0.1875 0.28125,-0.9375 0.671875,-1.234375 1.015625,-1.234375 0.078125,0 0.25,0 0.25,0.3125 0,0.25 -0.109375,0.515625 -0.171875,0.703125 -0.40625,1.0625 -0.578125,1.625 -0.578125,2.09375 0,0.890625 0.625,1.1875 1.21875,1.1875 0.390625,0 0.71875,-0.171875 1,-0.453125 -0.125,0.515625 -0.25,1.015625 -0.640625,1.546875 -0.265625,0.328125 -0.640625,0.625 -1.09375,0.625 -0.140625,0 -0.59375,-0.03125 -0.765625,-0.421875 0.15625,0 0.296875,0 0.421875,-0.125 C 1.328125,1.203125 1.421875,1.0625 1.421875,0.875 1.421875,0.5625 1.15625,0.53125 1.0625,0.53125 0.828125,0.53125 0.5,0.6875 0.5,1.171875 c 0,0.5 0.4375,0.875 1.0625,0.875 1.015625,0 2.046875,-0.90625 2.328125,-2.03125 z m 0,0"
             style="stroke:none;stroke-width:0"
             inkscape:connector-curvature="0" />
        </g>
      </g>
    </g>
    <g
       id="g1944"
       ns1:jacobian_sqrt="0.360348"
       inkscapeversion="0.92.4"
       ns1:alignment="middle center"
       ns1:scale="1.02146006288"
       ns1:preamble="C:\\Users\\Buster\\AppData\\Roaming\\inkscape\\extensions\\textext\\default_packages.tex"
       ns1:text="$z$"
       ns1:pdfconverter="pdf2svg"
       ns1:texconverter="pdflatex"
       ns1:version="0.11.0"
       transform="matrix(0.360348,0,0,0.360348,31.520847,114.00855)"
       inkscape:export-xdpi="452"
       inkscape:export-ydpi="452">
      <g
         id="g1942">
        <g
           id="g1940"
           style="fill:#000000;fill-opacity:1">
          <path
             id="path1938"
             transform="translate(148.712,134.765)"
             d="m 1.328125,-0.828125 c 0.53125,-0.578125 0.828125,-0.828125 1.1875,-1.140625 0,0 0.609375,-0.53125 0.96875,-0.890625 C 4.4375,-3.78125 4.65625,-4.265625 4.65625,-4.3125 c 0,-0.09375 -0.09375,-0.09375 -0.109375,-0.09375 -0.078125,0 -0.09375,0.015625 -0.15625,0.109375 -0.296875,0.484375 -0.5,0.640625 -0.734375,0.640625 -0.25,0 -0.359375,-0.15625 -0.515625,-0.328125 -0.1875,-0.21875 -0.359375,-0.421875 -0.6875,-0.421875 -0.75,0 -1.203125,0.921875 -1.203125,1.140625 0,0.046875 0.03125,0.109375 0.109375,0.109375 0.09375,0 0.109375,-0.046875 0.140625,-0.109375 0.1875,-0.46875 0.765625,-0.46875 0.84375,-0.46875 0.203125,0 0.390625,0.0625 0.625,0.140625 0.40625,0.15625 0.515625,0.15625 0.765625,0.15625 -0.359375,0.421875 -1.1875,1.140625 -1.375,1.296875 l -0.90625,0.84375 C 0.78125,-0.625 0.421875,-0.0625 0.421875,0.015625 c 0,0.09375 0.109375,0.09375 0.125,0.09375 0.078125,0 0.09375,-0.015625 0.15625,-0.125 0.234375,-0.359375 0.53125,-0.625 0.859375,-0.625 0.21875,0 0.328125,0.09375 0.578125,0.375 0.15625,0.21875 0.34375,0.375 0.625,0.375 1,0 1.578125,-1.265625 1.578125,-1.53125 0,-0.046875 -0.046875,-0.109375 -0.125,-0.109375 -0.09375,0 -0.109375,0.0625 -0.140625,0.140625 C 3.84375,-0.75 3.203125,-0.5625 2.875,-0.5625 c -0.1875,0 -0.375,-0.0625 -0.578125,-0.125 -0.34375,-0.125 -0.5,-0.171875 -0.703125,-0.171875 -0.015625,0 -0.171875,0 -0.265625,0.03125 z m 0,0"
             style="stroke:none;stroke-width:0"
             inkscape:connector-curvature="0" />
        </g>
      </g>
    </g>
    <g
       id="g2038"
       ns1:jacobian_sqrt="0.360348"
       inkscapeversion="0.92.4"
       ns1:alignment="middle center"
       ns1:scale="1.02146006288"
       ns1:preamble="C:\\Users\\Buster\\AppData\\Roaming\\inkscape\\extensions\\textext\\default_packages.tex"
       ns1:text="$(0,0,0)$"
       ns1:pdfconverter="pdf2svg"
       ns1:texconverter="pdflatex"
       ns1:version="0.11.0"
       transform="matrix(0.360348,0,0,0.360348,33.302349,128.96588)"
       inkscape:export-xdpi="452"
       inkscape:export-ydpi="452">
      <g
         id="g2036">
        <g
           id="g2016"
           style="fill:#000000;fill-opacity:1">
          <path
             id="path2012"
             transform="translate(148.712,134.765)"
             d="m 3.296875,2.390625 c 0,-0.03125 0,-0.046875 -0.171875,-0.21875 C 1.890625,0.921875 1.5625,-0.96875 1.5625,-2.5 c 0,-1.734375 0.375,-3.46875 1.609375,-4.703125 0.125,-0.125 0.125,-0.140625 0.125,-0.171875 0,-0.078125 -0.03125,-0.109375 -0.09375,-0.109375 -0.109375,0 -1,0.6875 -1.59375,1.953125 -0.5,1.09375 -0.625,2.203125 -0.625,3.03125 0,0.78125 0.109375,1.984375 0.65625,3.125 C 2.25,1.84375 3.09375,2.5 3.203125,2.5 c 0.0625,0 0.09375,-0.03125 0.09375,-0.109375 z m 0,0"
             style="stroke:none;stroke-width:0"
             inkscape:connector-curvature="0" />
          <path
             id="path2014"
             transform="translate(152.58645,134.765)"
             d="m 4.578125,-3.1875 c 0,-0.796875 -0.046875,-1.59375 -0.390625,-2.328125 -0.453125,-0.96875 -1.28125,-1.125 -1.6875,-1.125 -0.609375,0 -1.328125,0.265625 -1.75,1.1875 -0.3125,0.6875 -0.359375,1.46875 -0.359375,2.265625 0,0.75 0.03125,1.640625 0.453125,2.40625 0.421875,0.796875 1.15625,1 1.640625,1 0.53125,0 1.296875,-0.203125 1.734375,-1.15625 0.3125,-0.6875 0.359375,-1.46875 0.359375,-2.25 z M 2.484375,0 C 2.09375,0 1.5,-0.25 1.328125,-1.203125 1.21875,-1.796875 1.21875,-2.71875 1.21875,-3.3125 c 0,-0.640625 0,-1.296875 0.078125,-1.828125 0.1875,-1.1875 0.9375,-1.28125 1.1875,-1.28125 0.328125,0 0.984375,0.1875 1.171875,1.171875 0.109375,0.5625 0.109375,1.3125 0.109375,1.9375 0,0.75 0,1.421875 -0.109375,2.0625 C 3.5,-0.296875 2.9375,0 2.484375,0 Z m 0,0"
             style="stroke:none;stroke-width:0"
             inkscape:connector-curvature="0" />
        </g>
        <g
           id="g2020"
           style="fill:#000000;fill-opacity:1">
          <path
             id="path2018"
             transform="translate(157.568,134.765)"
             d="m 2.03125,-0.015625 c 0,-0.65625 -0.25,-1.046875 -0.640625,-1.046875 -0.328125,0 -0.53125,0.25 -0.53125,0.53125 C 0.859375,-0.265625 1.0625,0 1.390625,0 1.5,0 1.640625,-0.046875 1.734375,-0.125 1.765625,-0.15625 1.78125,-0.15625 1.78125,-0.15625 c 0.015625,0 0.015625,0 0.015625,0.140625 0,0.75 -0.34375,1.34375 -0.671875,1.671875 -0.109375,0.109375 -0.109375,0.125 -0.109375,0.15625 0,0.078125 0.046875,0.109375 0.09375,0.109375 0.109375,0 0.921875,-0.765625 0.921875,-1.9375 z m 0,0"
             style="stroke:none;stroke-width:0"
             inkscape:connector-curvature="0" />
        </g>
        <g
           id="g2024"
           style="fill:#000000;fill-opacity:1">
          <path
             id="path2022"
             transform="translate(161.996,134.765)"
             d="m 4.578125,-3.1875 c 0,-0.796875 -0.046875,-1.59375 -0.390625,-2.328125 -0.453125,-0.96875 -1.28125,-1.125 -1.6875,-1.125 -0.609375,0 -1.328125,0.265625 -1.75,1.1875 -0.3125,0.6875 -0.359375,1.46875 -0.359375,2.265625 0,0.75 0.03125,1.640625 0.453125,2.40625 0.421875,0.796875 1.15625,1 1.640625,1 0.53125,0 1.296875,-0.203125 1.734375,-1.15625 0.3125,-0.6875 0.359375,-1.46875 0.359375,-2.25 z M 2.484375,0 C 2.09375,0 1.5,-0.25 1.328125,-1.203125 1.21875,-1.796875 1.21875,-2.71875 1.21875,-3.3125 c 0,-0.640625 0,-1.296875 0.078125,-1.828125 0.1875,-1.1875 0.9375,-1.28125 1.1875,-1.28125 0.328125,0 0.984375,0.1875 1.171875,1.171875 0.109375,0.5625 0.109375,1.3125 0.109375,1.9375 0,0.75 0,1.421875 -0.109375,2.0625 C 3.5,-0.296875 2.9375,0 2.484375,0 Z m 0,0"
             style="stroke:none;stroke-width:0"
             inkscape:connector-curvature="0" />
        </g>
        <g
           id="g2028"
           style="fill:#000000;fill-opacity:1">
          <path
             id="path2026"
             transform="translate(166.977,134.765)"
             d="m 2.03125,-0.015625 c 0,-0.65625 -0.25,-1.046875 -0.640625,-1.046875 -0.328125,0 -0.53125,0.25 -0.53125,0.53125 C 0.859375,-0.265625 1.0625,0 1.390625,0 1.5,0 1.640625,-0.046875 1.734375,-0.125 1.765625,-0.15625 1.78125,-0.15625 1.78125,-0.15625 c 0.015625,0 0.015625,0 0.015625,0.140625 0,0.75 -0.34375,1.34375 -0.671875,1.671875 -0.109375,0.109375 -0.109375,0.125 -0.109375,0.15625 0,0.078125 0.046875,0.109375 0.09375,0.109375 0.109375,0 0.921875,-0.765625 0.921875,-1.9375 z m 0,0"
             style="stroke:none;stroke-width:0"
             inkscape:connector-curvature="0" />
        </g>
        <g
           id="g2034"
           style="fill:#000000;fill-opacity:1">
          <path
             id="path2030"
             transform="translate(171.405,134.765)"
             d="m 4.578125,-3.1875 c 0,-0.796875 -0.046875,-1.59375 -0.390625,-2.328125 -0.453125,-0.96875 -1.28125,-1.125 -1.6875,-1.125 -0.609375,0 -1.328125,0.265625 -1.75,1.1875 -0.3125,0.6875 -0.359375,1.46875 -0.359375,2.265625 0,0.75 0.03125,1.640625 0.453125,2.40625 0.421875,0.796875 1.15625,1 1.640625,1 0.53125,0 1.296875,-0.203125 1.734375,-1.15625 0.3125,-0.6875 0.359375,-1.46875 0.359375,-2.25 z M 2.484375,0 C 2.09375,0 1.5,-0.25 1.328125,-1.203125 1.21875,-1.796875 1.21875,-2.71875 1.21875,-3.3125 c 0,-0.640625 0,-1.296875 0.078125,-1.828125 0.1875,-1.1875 0.9375,-1.28125 1.1875,-1.28125 0.328125,0 0.984375,0.1875 1.171875,1.171875 0.109375,0.5625 0.109375,1.3125 0.109375,1.9375 0,0.75 0,1.421875 -0.109375,2.0625 C 3.5,-0.296875 2.9375,0 2.484375,0 Z m 0,0"
             style="stroke:none;stroke-width:0"
             inkscape:connector-curvature="0" />
          <path
             id="path2032"
             transform="translate(176.3863,134.765)"
             d="m 2.875,-2.5 c 0,-0.765625 -0.109375,-1.96875 -0.65625,-3.109375 -0.59375,-1.21875 -1.453125,-1.875 -1.546875,-1.875 -0.0625,0 -0.109375,0.046875 -0.109375,0.109375 0,0.03125 0,0.046875 0.1875,0.234375 0.984375,0.984375 1.546875,2.5625 1.546875,4.640625 0,1.71875 -0.359375,3.46875 -1.59375,4.71875 C 0.5625,2.34375 0.5625,2.359375 0.5625,2.390625 0.5625,2.453125 0.609375,2.5 0.671875,2.5 0.765625,2.5 1.671875,1.8125 2.25,0.546875 2.765625,-0.546875 2.875,-1.65625 2.875,-2.5 Z m 0,0"
             style="stroke:none;stroke-width:0"
             inkscape:connector-curvature="0" />
        </g>
      </g>
    </g>
  </g>
</svg>
