<?xml version="1.0" encoding="UTF-8" standalone="no"?>
<!-- Created with Inkscape (http://www.inkscape.org/) -->

<svg
   xmlns:ns1="http://www.iki.fi/pav/software/textext/"
   xmlns:dc="http://purl.org/dc/elements/1.1/"
   xmlns:cc="http://creativecommons.org/ns#"
   xmlns:rdf="http://www.w3.org/1999/02/22-rdf-syntax-ns#"
   xmlns:svg="http://www.w3.org/2000/svg"
   xmlns="http://www.w3.org/2000/svg"
   xmlns:xlink="http://www.w3.org/1999/xlink"
   xmlns:sodipodi="http://sodipodi.sourceforge.net/DTD/sodipodi-0.dtd"
   xmlns:inkscape="http://www.inkscape.org/namespaces/inkscape"
   width="210mm"
   height="297mm"
   viewBox="0 0 210 297"
   version="1.1"
   id="svg8"
   inkscape:version="0.92.4 (5da689c313, 2019-01-14)"
   sodipodi:docname="TheDartsDeriviation.svg">
  <defs
     id="defs2">
    <linearGradient
       inkscape:collect="always"
       id="linearGradient2098">
      <stop
         style="stop-color:#0062c4;stop-opacity:0.68333334"
         offset="0"
         id="stop2094" />
      <stop
         style="stop-color:#0021c4;stop-opacity:0.16111112"
         offset="1"
         id="stop2096" />
    </linearGradient>
    <linearGradient
       inkscape:collect="always"
       xlink:href="#linearGradient2098"
       id="linearGradient2100"
       x1="179.49097"
       y1="116.74905"
       x2="181.58739"
       y2="119.02872"
       gradientUnits="userSpaceOnUse" />
  </defs>
  <sodipodi:namedview
     id="base"
     pagecolor="#ffffff"
     bordercolor="#666666"
     borderopacity="1.0"
     inkscape:pageopacity="0.0"
     inkscape:pageshadow="2"
     inkscape:zoom="2.8"
     inkscape:cx="556.45201"
     inkscape:cy="393.52374"
     inkscape:document-units="mm"
     inkscape:current-layer="layer1"
     showgrid="false"
     inkscape:window-width="1920"
     inkscape:window-height="1017"
     inkscape:window-x="-8"
     inkscape:window-y="-8"
     inkscape:window-maximized="1"
     inkscape:snap-global="false" />
  <metadata
     id="metadata5">
    <rdf:RDF>
      <cc:Work
         rdf:about="">
        <dc:format>image/svg+xml</dc:format>
        <dc:type
           rdf:resource="http://purl.org/dc/dcmitype/StillImage" />
        <dc:title />
      </cc:Work>
    </rdf:RDF>
  </metadata>
  <g
     inkscape:label="Layer 1"
     inkscape:groupmode="layer"
     id="layer1">
    <path
       d="m 78.765184,53.231424 a 9.5305815,9.4909267 0 0 1 9.021353,0.174894 9.5305815,9.4909267 0 0 1 4.831824,7.588604"
       sodipodi:open="true"
       sodipodi:end="6.2112064"
       sodipodi:start="4.2387369"
       sodipodi:ry="9.4909267"
       sodipodi:rx="9.5305815"
       sodipodi:cy="61.677479"
       sodipodi:cx="83.112457"
       sodipodi:type="arc"
       id="path829"
       style="opacity:1;fill:none;fill-opacity:1;stroke:#00be06;stroke-width:0.2;stroke-linecap:square;stroke-miterlimit:4;stroke-dasharray:none;stroke-dashoffset:0;stroke-opacity:1"
       inkscape:export-xdpi="366.51639"
       inkscape:export-ydpi="366.51639" />
    <path
       style="opacity:1;fill:#335391;fill-opacity:1;stroke:#000000;stroke-width:0.2;stroke-linecap:square;stroke-miterlimit:4;stroke-dasharray:none;stroke-dashoffset:0;stroke-opacity:1"
       d="M 82.198135,28.294544 V 94.042846"
       id="path815"
       inkscape:connector-curvature="0"
       inkscape:export-xdpi="366.51639"
       inkscape:export-ydpi="366.51639" />
    <path
       style="opacity:1;fill:none;fill-opacity:1;stroke:#00be06;stroke-width:0.2;stroke-linecap:square;stroke-miterlimit:4;stroke-dasharray:none;stroke-dashoffset:0;stroke-opacity:1"
       id="path821"
       sodipodi:type="arc"
       sodipodi:cx="76.906792"
       sodipodi:cy="62.337353"
       sodipodi:rx="17.706606"
       sodipodi:ry="17.706606"
       sodipodi:start="5.9457292"
       sodipodi:end="6.2112064"
       sodipodi:open="true"
       d="m 93.614744,56.474912 a 17.706606,17.706606 0 0 1 0.952805,4.589039"
       inkscape:export-xdpi="366.51639"
       inkscape:export-ydpi="366.51639" />
    <path
       inkscape:connector-curvature="0"
       id="path817"
       d="M 115.07229,61.168695 H 49.323984"
       style="opacity:1;fill:#335391;fill-opacity:1;stroke:#000000;stroke-width:0.2;stroke-linecap:square;stroke-miterlimit:4;stroke-dasharray:none;stroke-dashoffset:0;stroke-opacity:1"
       inkscape:export-xdpi="366.51639"
       inkscape:export-ydpi="366.51639" />
    <path
       style="opacity:1;fill:#335391;fill-opacity:1;stroke:#434343;stroke-width:0.2;stroke-linecap:square;stroke-miterlimit:4;stroke-dasharray:0.6, 0.6;stroke-dashoffset:0;stroke-opacity:1"
       d="M 48.91229,74.853166 114.99468,47.725309"
       id="path819"
       inkscape:connector-curvature="0"
       sodipodi:nodetypes="cc"
       inkscape:export-xdpi="366.51639"
       inkscape:export-ydpi="366.51639" />
    <ellipse
       style="opacity:1;fill:#0021c4;fill-opacity:1;stroke:#000000;stroke-width:0.12;stroke-linecap:square;stroke-miterlimit:4;stroke-dasharray:none;stroke-dashoffset:0;stroke-opacity:1"
       id="path823"
       cx="108.01866"
       cy="50.610905"
       rx="0.42955038"
       ry="0.41236836"
       inkscape:export-xdpi="366.51639"
       inkscape:export-ydpi="366.51639" />
    <path
       sodipodi:nodetypes="cc"
       inkscape:connector-curvature="0"
       id="path825"
       d="M 97.47335,93.800707 67.310055,29.047494"
       style="opacity:1;fill:#335391;fill-opacity:1;stroke:#434343;stroke-width:0.2;stroke-linecap:square;stroke-miterlimit:4;stroke-dasharray:0.6, 0.6;stroke-dashoffset:0;stroke-opacity:1"
       inkscape:transform-center-x="-0.15473536"
       inkscape:transform-center-y="0.27660407"
       inkscape:export-xdpi="366.51639"
       inkscape:export-ydpi="366.51639" />
    <ellipse
       ry="0.41236836"
       rx="0.42955038"
       cy="73.328812"
       cx="87.906631"
       id="ellipse827"
       style="opacity:1;fill:#0021c4;fill-opacity:1;stroke:none;stroke-width:0.2;stroke-linecap:square;stroke-miterlimit:4;stroke-dasharray:none;stroke-dashoffset:0;stroke-opacity:1"
       inkscape:export-xdpi="366.51639"
       inkscape:export-ydpi="366.51639" />
    <ellipse
       ry="0.41236836"
       rx="0.42955038"
       cy="73.34552"
       cx="87.906631"
       id="ellipse855"
       style="opacity:1;fill:#0021c4;fill-opacity:1;stroke:#000000;stroke-width:0.12;stroke-linecap:square;stroke-miterlimit:4;stroke-dasharray:none;stroke-dashoffset:0;stroke-opacity:1"
       inkscape:export-xdpi="366.51639"
       inkscape:export-ydpi="366.51639" />
    <g
       id="g949"
       ns1:jacobian_sqrt="0.275539"
       ns1:alignment="middle center"
       ns1:scale="0.781055795739"
       ns1:preamble="C:\\Users\\Buster\\AppData\\Roaming\\inkscape\\extensions\\textext\\default_packages.tex"
       ns1:text="$r_1$"
       ns1:pdfconverter="pdf2svg"
       ns1:texconverter="pdflatex"
       ns1:version="0.11.0"
       transform="matrix(0.275539,0,0,0.275539,54.491365,16.620246)"
       inkscape:export-xdpi="366.51639"
       inkscape:export-ydpi="366.51639">
      <g
         id="g947">
        <g
           id="g941"
           style="fill:#000000;fill-opacity:1">
          <path
             id="path939"
             transform="translate(148.712,134.765)"
             d="m 0.875,-0.59375 c -0.03125,0.15625 -0.09375,0.390625 -0.09375,0.4375 0,0.171875 0.140625,0.265625 0.296875,0.265625 0.125,0 0.296875,-0.078125 0.375,-0.28125 C 1.46875,-0.203125 1.796875,-1.5625 1.84375,-1.75 c 0.078125,-0.328125 0.265625,-1.015625 0.3125,-1.296875 0.046875,-0.125 0.328125,-0.59375 0.5625,-0.8125 0.078125,-0.0625 0.375,-0.328125 0.796875,-0.328125 0.265625,0 0.40625,0.125 0.421875,0.125 -0.296875,0.046875 -0.515625,0.28125 -0.515625,0.546875 0,0.15625 0.109375,0.34375 0.375,0.34375 0.265625,0 0.546875,-0.234375 0.546875,-0.59375 0,-0.34375 -0.3125,-0.640625 -0.828125,-0.640625 C 2.875,-4.40625 2.4375,-3.921875 2.25,-3.640625 2.15625,-4.09375 1.796875,-4.40625 1.328125,-4.40625 0.875,-4.40625 0.6875,-4.015625 0.59375,-3.84375 0.421875,-3.5 0.296875,-2.90625 0.296875,-2.875 c 0,0.109375 0.09375,0.109375 0.109375,0.109375 0.109375,0 0.109375,-0.015625 0.171875,-0.234375 0.171875,-0.703125 0.375,-1.1875 0.734375,-1.1875 0.15625,0 0.296875,0.078125 0.296875,0.453125 0,0.21875 -0.03125,0.328125 -0.15625,0.84375 z m 0,0"
             style="stroke:none;stroke-width:0"
             inkscape:connector-curvature="0" />
        </g>
        <g
           id="g945"
           style="fill:#000000;fill-opacity:1">
          <path
             id="path943"
             transform="translate(153.207,136.259)"
             d="m 2.328125,-4.4375 c 0,-0.1875 0,-0.1875 -0.203125,-0.1875 -0.453125,0.4375 -1.078125,0.4375 -1.359375,0.4375 v 0.25 c 0.15625,0 0.625,0 1,-0.1875 v 3.546875 c 0,0.234375 0,0.328125 -0.6875,0.328125 H 0.8125 V 0 c 0.125,0 0.984375,-0.03125 1.234375,-0.03125 0.21875,0 1.09375,0.03125 1.25,0.03125 V -0.25 H 3.03125 c -0.703125,0 -0.703125,-0.09375 -0.703125,-0.328125 z m 0,0"
             style="stroke:none;stroke-width:0"
             inkscape:connector-curvature="0" />
        </g>
      </g>
    </g>
    <g
       id="g994"
       ns1:jacobian_sqrt="0.275539"
       ns1:alignment="middle center"
       ns1:scale="0.781055795739"
       ns1:preamble="C:\\Users\\Buster\\AppData\\Roaming\\inkscape\\extensions\\textext\\default_packages.tex"
       ns1:text="$r_2$"
       ns1:pdfconverter="pdf2svg"
       ns1:texconverter="pdflatex"
       ns1:version="0.11.0"
       transform="matrix(0.275539,0,0,0.275539,44.70589,30.31781)"
       inkscape:export-xdpi="366.51639"
       inkscape:export-ydpi="366.51639">
      <g
         id="surface1">
        <g
           id="g987"
           style="fill:#000000;fill-opacity:1">
          <path
             id="path985"
             transform="translate(148.712,134.765)"
             d="m 0.875,-0.59375 c -0.03125,0.15625 -0.09375,0.390625 -0.09375,0.4375 0,0.171875 0.140625,0.265625 0.296875,0.265625 0.125,0 0.296875,-0.078125 0.375,-0.28125 C 1.46875,-0.203125 1.796875,-1.5625 1.84375,-1.75 c 0.078125,-0.328125 0.265625,-1.015625 0.3125,-1.296875 0.046875,-0.125 0.328125,-0.59375 0.5625,-0.8125 0.078125,-0.0625 0.375,-0.328125 0.796875,-0.328125 0.265625,0 0.40625,0.125 0.421875,0.125 -0.296875,0.046875 -0.515625,0.28125 -0.515625,0.546875 0,0.15625 0.109375,0.34375 0.375,0.34375 0.265625,0 0.546875,-0.234375 0.546875,-0.59375 0,-0.34375 -0.3125,-0.640625 -0.828125,-0.640625 C 2.875,-4.40625 2.4375,-3.921875 2.25,-3.640625 2.15625,-4.09375 1.796875,-4.40625 1.328125,-4.40625 0.875,-4.40625 0.6875,-4.015625 0.59375,-3.84375 0.421875,-3.5 0.296875,-2.90625 0.296875,-2.875 c 0,0.109375 0.09375,0.109375 0.109375,0.109375 0.109375,0 0.109375,-0.015625 0.171875,-0.234375 0.171875,-0.703125 0.375,-1.1875 0.734375,-1.1875 0.15625,0 0.296875,0.078125 0.296875,0.453125 0,0.21875 -0.03125,0.328125 -0.15625,0.84375 z m 0,0"
             style="stroke:none;stroke-width:0"
             inkscape:connector-curvature="0" />
        </g>
        <g
           id="g991"
           style="fill:#000000;fill-opacity:1">
          <path
             id="path989"
             transform="translate(153.207,136.259)"
             d="M 3.515625,-1.265625 H 3.28125 c -0.015625,0.15625 -0.09375,0.5625 -0.1875,0.625 C 3.046875,-0.59375 2.515625,-0.59375 2.40625,-0.59375 H 1.125 c 0.734375,-0.640625 0.984375,-0.84375 1.390625,-1.171875 0.515625,-0.40625 1,-0.84375 1,-1.5 0,-0.84375 -0.734375,-1.359375 -1.625,-1.359375 -0.859375,0 -1.453125,0.609375 -1.453125,1.25 0,0.34375 0.296875,0.390625 0.375,0.390625 0.15625,0 0.359375,-0.125 0.359375,-0.375 0,-0.125 -0.046875,-0.375 -0.40625,-0.375 C 0.984375,-4.21875 1.453125,-4.375 1.78125,-4.375 c 0.703125,0 1.0625,0.546875 1.0625,1.109375 0,0.609375 -0.4375,1.078125 -0.65625,1.328125 L 0.515625,-0.265625 C 0.4375,-0.203125 0.4375,-0.1875 0.4375,0 h 2.875 z m 0,0"
             style="stroke:none;stroke-width:0"
             inkscape:connector-curvature="0" />
        </g>
      </g>
    </g>
    <g
       id="g1042"
       ns1:jacobian_sqrt="0.275539"
       ns1:alignment="middle center"
       ns1:scale="0.781055795739"
       ns1:preamble="C:\\Users\\Buster\\AppData\\Roaming\\inkscape\\extensions\\textext\\default_packages.tex"
       ns1:text="$\\theta_1$"
       ns1:pdfconverter="pdf2svg"
       ns1:texconverter="pdflatex"
       ns1:version="0.11.0"
       transform="matrix(0.275539,0,0,0.275539,53.714079,22.327282)"
       inkscape:export-xdpi="366.51639"
       inkscape:export-ydpi="366.51639">
      <g
         id="g1040">
        <g
           id="g1034"
           style="fill:#000000;fill-opacity:1">
          <path
             id="path1032"
             transform="translate(148.712,134.765)"
             d="m 4.53125,-4.984375 c 0,-0.65625 -0.171875,-2.046875 -1.1875,-2.046875 -1.390625,0 -2.921875,2.8125 -2.921875,5.09375 0,0.9375 0.28125,2.046875 1.1875,2.046875 1.40625,0 2.921875,-2.859375 2.921875,-5.09375 z M 1.46875,-3.625 C 1.640625,-4.25 1.84375,-5.046875 2.25,-5.765625 2.515625,-6.25 2.875,-6.8125 3.328125,-6.8125 c 0.484375,0 0.546875,0.640625 0.546875,1.203125 0,0.5 -0.078125,1 -0.3125,1.984375 z m 2,0.328125 C 3.359375,-2.84375 3.15625,-2 2.765625,-1.28125 c -0.34375,0.6875 -0.71875,1.171875 -1.15625,1.171875 -0.328125,0 -0.53125,-0.296875 -0.53125,-1.21875 0,-0.421875 0.0625,-1 0.3125,-1.96875 z m 0,0"
             style="stroke:none;stroke-width:0"
             inkscape:connector-curvature="0" />
        </g>
        <g
           id="g1038"
           style="fill:#000000;fill-opacity:1">
          <path
             id="path1036"
             transform="translate(153.389,136.259)"
             d="m 2.328125,-4.4375 c 0,-0.1875 0,-0.1875 -0.203125,-0.1875 -0.453125,0.4375 -1.078125,0.4375 -1.359375,0.4375 v 0.25 c 0.15625,0 0.625,0 1,-0.1875 v 3.546875 c 0,0.234375 0,0.328125 -0.6875,0.328125 H 0.8125 V 0 c 0.125,0 0.984375,-0.03125 1.234375,-0.03125 0.21875,0 1.09375,0.03125 1.25,0.03125 V -0.25 H 3.03125 c -0.703125,0 -0.703125,-0.09375 -0.703125,-0.328125 z m 0,0"
             style="stroke:none;stroke-width:0"
             inkscape:connector-curvature="0" />
        </g>
      </g>
    </g>
    <g
       id="g1092"
       ns1:jacobian_sqrt="0.275539"
       ns1:alignment="middle center"
       ns1:scale="0.781055795739"
       ns1:preamble="C:\\Users\\Buster\\AppData\\Roaming\\inkscape\\extensions\\textext\\default_packages.tex"
       ns1:text="$\\theta_2$"
       ns1:pdfconverter="pdf2svg"
       ns1:texconverter="pdflatex"
       ns1:version="0.11.0"
       transform="matrix(0.275539,0.000000,0.000000,0.275539,47.469926,16.113265)"
       inkscape:export-xdpi="366.51639"
       inkscape:export-ydpi="366.51639">
      <g
         id="g1090">
        <g
           id="g1084"
           style="fill:rgb(0%,0%,0%);fill-opacity:1;">
          <path
             id="path1082"
             transform="translate(148.712,134.765)"
             d="M 4.53125 -4.984375 C 4.53125 -5.640625 4.359375 -7.03125 3.34375 -7.03125 C 1.953125 -7.03125 0.421875 -4.21875 0.421875 -1.9375 C 0.421875 -1 0.703125 0.109375 1.609375 0.109375 C 3.015625 0.109375 4.53125 -2.75 4.53125 -4.984375 Z M 1.46875 -3.625 C 1.640625 -4.25 1.84375 -5.046875 2.25 -5.765625 C 2.515625 -6.25 2.875 -6.8125 3.328125 -6.8125 C 3.8125 -6.8125 3.875 -6.171875 3.875 -5.609375 C 3.875 -5.109375 3.796875 -4.609375 3.5625 -3.625 Z M 3.46875 -3.296875 C 3.359375 -2.84375 3.15625 -2 2.765625 -1.28125 C 2.421875 -0.59375 2.046875 -0.109375 1.609375 -0.109375 C 1.28125 -0.109375 1.078125 -0.40625 1.078125 -1.328125 C 1.078125 -1.75 1.140625 -2.328125 1.390625 -3.296875 Z M 3.46875 -3.296875 "
             style="stroke:none;stroke-width:0" />
        </g>
        <g
           id="g1088"
           style="fill:rgb(0%,0%,0%);fill-opacity:1;">
          <path
             id="path1086"
             transform="translate(153.389,136.259)"
             d="M 3.515625 -1.265625 L 3.28125 -1.265625 C 3.265625 -1.109375 3.1875 -0.703125 3.09375 -0.640625 C 3.046875 -0.59375 2.515625 -0.59375 2.40625 -0.59375 L 1.125 -0.59375 C 1.859375 -1.234375 2.109375 -1.4375 2.515625 -1.765625 C 3.03125 -2.171875 3.515625 -2.609375 3.515625 -3.265625 C 3.515625 -4.109375 2.78125 -4.625 1.890625 -4.625 C 1.03125 -4.625 0.4375 -4.015625 0.4375 -3.375 C 0.4375 -3.03125 0.734375 -2.984375 0.8125 -2.984375 C 0.96875 -2.984375 1.171875 -3.109375 1.171875 -3.359375 C 1.171875 -3.484375 1.125 -3.734375 0.765625 -3.734375 C 0.984375 -4.21875 1.453125 -4.375 1.78125 -4.375 C 2.484375 -4.375 2.84375 -3.828125 2.84375 -3.265625 C 2.84375 -2.65625 2.40625 -2.1875 2.1875 -1.9375 L 0.515625 -0.265625 C 0.4375 -0.203125 0.4375 -0.1875 0.4375 0 L 3.3125 0 Z M 3.515625 -1.265625 "
             style="stroke:none;stroke-width:0" />
        </g>
      </g>
    </g>
    <path
       inkscape:export-ydpi="366.51639"
       inkscape:export-xdpi="366.51639"
       sodipodi:nodetypes="cc"
       inkscape:connector-curvature="0"
       id="path1202"
       d="M 117.23149,76.176083 183.31388,49.048226"
       style="opacity:1;fill:#335391;fill-opacity:1;stroke:#434343;stroke-width:0.2;stroke-linecap:square;stroke-miterlimit:4;stroke-dasharray:0.6, 0.6;stroke-dashoffset:0;stroke-opacity:1" />
    <path
       inkscape:connector-curvature="0"
       id="path1104"
       d="M 153.5591,28.428179 V 94.176481"
       style="opacity:1;fill:#335391;fill-opacity:1;stroke:#000000;stroke-width:0.2;stroke-linecap:square;stroke-miterlimit:4;stroke-dasharray:none;stroke-dashoffset:0;stroke-opacity:1"
       inkscape:export-xdpi="366.51639"
       inkscape:export-ydpi="366.51639" />
    <path
       style="opacity:1;fill:#335391;fill-opacity:1;stroke:#000000;stroke-width:0.2;stroke-linecap:square;stroke-miterlimit:4;stroke-dasharray:none;stroke-dashoffset:0;stroke-opacity:1"
       d="m 186.43325,61.30233 h -65.7483"
       id="path1108"
       inkscape:connector-curvature="0"
       inkscape:export-xdpi="366.51639"
       inkscape:export-ydpi="366.51639" />
    <ellipse
       ry="0.64860344"
       rx="0.6743784"
       cy="61.277367"
       cx="153.55351"
       id="ellipse1112"
       style="opacity:1;fill:#c40000;fill-opacity:1;stroke:#000000;stroke-width:0.11999998;stroke-linecap:square;stroke-miterlimit:4;stroke-dasharray:none;stroke-dashoffset:0;stroke-opacity:1"
       inkscape:export-xdpi="366.51639"
       inkscape:export-ydpi="366.51639" />
    <ellipse
       style="opacity:1;fill:none;fill-opacity:1;stroke:#000000;stroke-width:0.12000001;stroke-linecap:square;stroke-miterlimit:4;stroke-dasharray:none;stroke-dashoffset:0;stroke-opacity:1"
       id="ellipse1168"
       cx="153.55354"
       cy="61.277561"
       rx="27.469772"
       ry="26.50354"
       inkscape:export-xdpi="366.51639"
       inkscape:export-ydpi="366.51639" />
    <ellipse
       ry="10.445008"
       rx="10.827122"
       cy="61.277561"
       cx="153.55354"
       id="ellipse1170"
       style="opacity:1;fill:none;fill-opacity:1;stroke:#000000;stroke-width:0.11999998;stroke-linecap:square;stroke-miterlimit:4;stroke-dasharray:none;stroke-dashoffset:0;stroke-opacity:1"
       inkscape:export-xdpi="366.51639"
       inkscape:export-ydpi="366.51639" />
    <g
       transform="translate(70.323879,-51.259684)"
       id="g908"
       inkscape:export-filename="C:\Users\Buster\Desktop\Google drive\vigtigt\kreativt\Matematik\Min bog\Hjemmeside\Assets\Chapter4\KontinuerligProb\Darts.png"
       inkscape:export-xdpi="366.51639"
       inkscape:export-ydpi="366.51639">
      <g
         id="g1196">
        <path
           inkscape:connector-curvature="0"
           id="path896"
           d="m 105.57347,103.39351 1.25795,-0.75596 -1.06896,0.99219"
           style="opacity:1;fill:#3e3e3e;fill-opacity:1;stroke:none;stroke-width:0.34299999;stroke-linecap:butt;stroke-miterlimit:4;stroke-dasharray:none;stroke-dashoffset:0;stroke-opacity:1" />
        <path
           inkscape:connector-curvature="0"
           id="path898"
           d="m 102.76227,105.46056 2.92932,-1.98437"
           style="opacity:1;fill:none;fill-opacity:1;stroke:#000000;stroke-width:0.84299999;stroke-linecap:butt;stroke-miterlimit:4;stroke-dasharray:none;stroke-dashoffset:0;stroke-opacity:1" />
        <g
           id="g906">
          <path
             inkscape:connector-curvature="0"
             id="path900"
             d="m 101.69921,106.12202 2.92932,-1.98437"
             style="opacity:1;fill:none;fill-opacity:1;stroke:#000000;stroke-width:0.34299999;stroke-linecap:butt;stroke-miterlimit:4;stroke-dasharray:none;stroke-dashoffset:0;stroke-opacity:1" />
          <path
             style="opacity:1;fill:#bebebe;fill-opacity:1;stroke:none;stroke-width:0.34299999;stroke-linecap:butt;stroke-miterlimit:4;stroke-dasharray:none;stroke-dashoffset:0;stroke-opacity:1"
             d="m 102.39118,105.46508 -0.84738,-0.1629 -0.33994,0.2883 0.0811,0.31048 0.36307,0.19771 0.77336,-0.59024 z"
             id="path902"
             inkscape:connector-curvature="0" />
          <path
             inkscape:connector-curvature="0"
             id="path904"
             d="m 101.8209,106.30079 0.84377,0.18073 0.34594,-0.28108 -0.0746,-0.31209 -0.3588,-0.20531 -0.78563,0.57379 z"
             style="opacity:1;fill:#bebebe;fill-opacity:1;stroke:none;stroke-width:0.34299999;stroke-linecap:butt;stroke-miterlimit:4;stroke-dasharray:none;stroke-dashoffset:0;stroke-opacity:1" />
        </g>
      </g>
    </g>
    <ellipse
       inkscape:export-ydpi="366.51639"
       inkscape:export-xdpi="366.51639"
       ry="0.41236836"
       rx="0.42955038"
       cy="51.461349"
       cx="177.37729"
       id="ellipse1204"
       style="opacity:1;fill:#0021c4;fill-opacity:1;stroke:#000000;stroke-width:0.12;stroke-linecap:square;stroke-miterlimit:4;stroke-dasharray:none;stroke-dashoffset:0;stroke-opacity:1" />
    <ellipse
       style="opacity:1;fill:none;fill-opacity:1;stroke:#000000;stroke-width:0.11999999;stroke-linecap:square;stroke-miterlimit:4;stroke-dasharray:none;stroke-dashoffset:0;stroke-opacity:1"
       id="ellipse1206"
       cx="153.55354"
       cy="61.277557"
       rx="5.2519727"
       ry="5.0655346"
       inkscape:export-xdpi="366.51639"
       inkscape:export-ydpi="366.51639" />
    <g
       id="g1278"
       ns1:jacobian_sqrt="0.275539"
       ns1:alignment="middle center"
       ns1:scale="0.781055795739"
       ns1:preamble="C:\\Users\\Buster\\AppData\\Roaming\\inkscape\\extensions\\textext\\default_packages.tex"
       ns1:text="$\\theta$"
       ns1:pdfconverter="pdf2svg"
       ns1:texconverter="pdflatex"
       ns1:version="0.11.0"
       transform="matrix(0.275539,0,0,0.275539,123.66408,22.635125)"
       inkscape:export-xdpi="366.51639"
       inkscape:export-ydpi="366.51639">
      <g
         id="g1276">
        <g
           id="g1274"
           style="fill:#000000;fill-opacity:1">
          <path
             id="path1272"
             transform="translate(148.712,134.765)"
             d="m 4.53125,-4.984375 c 0,-0.65625 -0.171875,-2.046875 -1.1875,-2.046875 -1.390625,0 -2.921875,2.8125 -2.921875,5.09375 0,0.9375 0.28125,2.046875 1.1875,2.046875 1.40625,0 2.921875,-2.859375 2.921875,-5.09375 z M 1.46875,-3.625 C 1.640625,-4.25 1.84375,-5.046875 2.25,-5.765625 2.515625,-6.25 2.875,-6.8125 3.328125,-6.8125 c 0.484375,0 0.546875,0.640625 0.546875,1.203125 0,0.5 -0.078125,1 -0.3125,1.984375 z m 2,0.328125 C 3.359375,-2.84375 3.15625,-2 2.765625,-1.28125 c -0.34375,0.6875 -0.71875,1.171875 -1.15625,1.171875 -0.328125,0 -0.53125,-0.296875 -0.53125,-1.21875 0,-0.421875 0.0625,-1 0.3125,-1.96875 z m 0,0"
             style="stroke:none;stroke-width:0"
             inkscape:connector-curvature="0" />
        </g>
      </g>
    </g>
    <g
       id="g1356"
       ns1:jacobian_sqrt="0.275539"
       ns1:alignment="middle center"
       ns1:scale="0.781055795739"
       ns1:preamble="C:\\Users\\Buster\\AppData\\Roaming\\inkscape\\extensions\\textext\\default_packages.tex"
       ns1:text="$r$"
       ns1:pdfconverter="pdf2svg"
       ns1:texconverter="pdflatex"
       ns1:version="0.11.0"
       transform="matrix(0.275539,0,0,0.275539,124.1796,18.399224)"
       inkscape:export-xdpi="366.51639"
       inkscape:export-ydpi="366.51639">
      <g
         id="g1354">
        <g
           id="g1352"
           style="fill:#000000;fill-opacity:1">
          <path
             id="path1350"
             transform="translate(148.712,134.765)"
             d="m 0.875,-0.59375 c -0.03125,0.15625 -0.09375,0.390625 -0.09375,0.4375 0,0.171875 0.140625,0.265625 0.296875,0.265625 0.125,0 0.296875,-0.078125 0.375,-0.28125 C 1.46875,-0.203125 1.796875,-1.5625 1.84375,-1.75 c 0.078125,-0.328125 0.265625,-1.015625 0.3125,-1.296875 0.046875,-0.125 0.328125,-0.59375 0.5625,-0.8125 0.078125,-0.0625 0.375,-0.328125 0.796875,-0.328125 0.265625,0 0.40625,0.125 0.421875,0.125 -0.296875,0.046875 -0.515625,0.28125 -0.515625,0.546875 0,0.15625 0.109375,0.34375 0.375,0.34375 0.265625,0 0.546875,-0.234375 0.546875,-0.59375 0,-0.34375 -0.3125,-0.640625 -0.828125,-0.640625 C 2.875,-4.40625 2.4375,-3.921875 2.25,-3.640625 2.15625,-4.09375 1.796875,-4.40625 1.328125,-4.40625 0.875,-4.40625 0.6875,-4.015625 0.59375,-3.84375 0.421875,-3.5 0.296875,-2.90625 0.296875,-2.875 c 0,0.109375 0.09375,0.109375 0.109375,0.109375 0.109375,0 0.109375,-0.015625 0.171875,-0.234375 0.171875,-0.703125 0.375,-1.1875 0.734375,-1.1875 0.15625,0 0.296875,0.078125 0.296875,0.453125 0,0.21875 -0.03125,0.328125 -0.15625,0.84375 z m 0,0"
             style="stroke:none;stroke-width:0"
             inkscape:connector-curvature="0" />
        </g>
      </g>
    </g>
    <path
       inkscape:export-ydpi="366.51639"
       inkscape:export-xdpi="366.51639"
       inkscape:connector-curvature="0"
       id="path1366"
       d="M 81.930865,97.650986 V 163.39929"
       style="opacity:1;fill:#335391;fill-opacity:1;stroke:#000000;stroke-width:0.2;stroke-linecap:square;stroke-miterlimit:4;stroke-dasharray:none;stroke-dashoffset:0;stroke-opacity:1" />
    <path
       inkscape:export-ydpi="366.51639"
       inkscape:export-xdpi="366.51639"
       style="opacity:1;fill:#335391;fill-opacity:1;stroke:#000000;stroke-width:0.2;stroke-linecap:square;stroke-miterlimit:4;stroke-dasharray:none;stroke-dashoffset:0;stroke-opacity:1"
       d="M 114.80502,130.52514 H 49.056714"
       id="path1370"
       inkscape:connector-curvature="0" />
    <ellipse
       inkscape:export-ydpi="366.51639"
       inkscape:export-xdpi="366.51639"
       ry="0.41236836"
       rx="0.42955038"
       cy="117.605"
       cx="81.907265"
       id="ellipse1374"
       style="opacity:1;fill:#0021c4;fill-opacity:1;stroke:#000000;stroke-width:0.12;stroke-linecap:square;stroke-miterlimit:4;stroke-dasharray:none;stroke-dashoffset:0;stroke-opacity:1" />
    <ellipse
       inkscape:export-ydpi="366.51639"
       inkscape:export-xdpi="366.51639"
       style="opacity:1;fill:#0021c4;fill-opacity:1;stroke:#000000;stroke-width:0.12;stroke-linecap:square;stroke-miterlimit:4;stroke-dasharray:none;stroke-dashoffset:0;stroke-opacity:1"
       id="ellipse1380"
       cx="101.76622"
       cy="130.55948"
       rx="0.42955038"
       ry="0.41236836" />
    <g
       inkscape:export-ydpi="366.51639"
       inkscape:export-xdpi="366.51639"
       transform="matrix(0.275539,0,0,0.275539,50.45105,95.476698)"
       ns1:version="0.11.0"
       ns1:texconverter="pdflatex"
       ns1:pdfconverter="pdf2svg"
       ns1:text="$r_1$"
       ns1:preamble="C:\\Users\\Buster\\AppData\\Roaming\\inkscape\\extensions\\textext\\default_packages.tex"
       ns1:scale="0.781055795739"
       ns1:alignment="middle center"
       ns1:jacobian_sqrt="0.275539"
       id="g1392">
      <g
         id="g1390">
        <g
           style="fill:#000000;fill-opacity:1"
           id="g1384">
          <path
             inkscape:connector-curvature="0"
             style="stroke:none;stroke-width:0"
             d="m 0.875,-0.59375 c -0.03125,0.15625 -0.09375,0.390625 -0.09375,0.4375 0,0.171875 0.140625,0.265625 0.296875,0.265625 0.125,0 0.296875,-0.078125 0.375,-0.28125 C 1.46875,-0.203125 1.796875,-1.5625 1.84375,-1.75 c 0.078125,-0.328125 0.265625,-1.015625 0.3125,-1.296875 0.046875,-0.125 0.328125,-0.59375 0.5625,-0.8125 0.078125,-0.0625 0.375,-0.328125 0.796875,-0.328125 0.265625,0 0.40625,0.125 0.421875,0.125 -0.296875,0.046875 -0.515625,0.28125 -0.515625,0.546875 0,0.15625 0.109375,0.34375 0.375,0.34375 0.265625,0 0.546875,-0.234375 0.546875,-0.59375 0,-0.34375 -0.3125,-0.640625 -0.828125,-0.640625 C 2.875,-4.40625 2.4375,-3.921875 2.25,-3.640625 2.15625,-4.09375 1.796875,-4.40625 1.328125,-4.40625 0.875,-4.40625 0.6875,-4.015625 0.59375,-3.84375 0.421875,-3.5 0.296875,-2.90625 0.296875,-2.875 c 0,0.109375 0.09375,0.109375 0.109375,0.109375 0.109375,0 0.109375,-0.015625 0.171875,-0.234375 0.171875,-0.703125 0.375,-1.1875 0.734375,-1.1875 0.15625,0 0.296875,0.078125 0.296875,0.453125 0,0.21875 -0.03125,0.328125 -0.15625,0.84375 z m 0,0"
             transform="translate(148.712,134.765)"
             id="path1382" />
        </g>
        <g
           style="fill:#000000;fill-opacity:1"
           id="g1388">
          <path
             inkscape:connector-curvature="0"
             style="stroke:none;stroke-width:0"
             d="m 2.328125,-4.4375 c 0,-0.1875 0,-0.1875 -0.203125,-0.1875 -0.453125,0.4375 -1.078125,0.4375 -1.359375,0.4375 v 0.25 c 0.15625,0 0.625,0 1,-0.1875 v 3.546875 c 0,0.234375 0,0.328125 -0.6875,0.328125 H 0.8125 V 0 c 0.125,0 0.984375,-0.03125 1.234375,-0.03125 0.21875,0 1.09375,0.03125 1.25,0.03125 V -0.25 H 3.03125 c -0.703125,0 -0.703125,-0.09375 -0.703125,-0.328125 z m 0,0"
             transform="translate(153.207,136.259)"
             id="path1386" />
        </g>
      </g>
    </g>
    <g
       inkscape:export-ydpi="366.51639"
       inkscape:export-xdpi="366.51639"
       transform="matrix(0.275539,0,0,0.275539,38.048808,87.153791)"
       ns1:version="0.11.0"
       ns1:texconverter="pdflatex"
       ns1:pdfconverter="pdf2svg"
       ns1:text="$r_2$"
       ns1:preamble="C:\\Users\\Buster\\AppData\\Roaming\\inkscape\\extensions\\textext\\default_packages.tex"
       ns1:scale="0.781055795739"
       ns1:alignment="middle center"
       ns1:jacobian_sqrt="0.275539"
       id="g1404">
      <g
         id="g1402">
        <g
           style="fill:#000000;fill-opacity:1"
           id="g1396">
          <path
             inkscape:connector-curvature="0"
             style="stroke:none;stroke-width:0"
             d="m 0.875,-0.59375 c -0.03125,0.15625 -0.09375,0.390625 -0.09375,0.4375 0,0.171875 0.140625,0.265625 0.296875,0.265625 0.125,0 0.296875,-0.078125 0.375,-0.28125 C 1.46875,-0.203125 1.796875,-1.5625 1.84375,-1.75 c 0.078125,-0.328125 0.265625,-1.015625 0.3125,-1.296875 0.046875,-0.125 0.328125,-0.59375 0.5625,-0.8125 0.078125,-0.0625 0.375,-0.328125 0.796875,-0.328125 0.265625,0 0.40625,0.125 0.421875,0.125 -0.296875,0.046875 -0.515625,0.28125 -0.515625,0.546875 0,0.15625 0.109375,0.34375 0.375,0.34375 0.265625,0 0.546875,-0.234375 0.546875,-0.59375 0,-0.34375 -0.3125,-0.640625 -0.828125,-0.640625 C 2.875,-4.40625 2.4375,-3.921875 2.25,-3.640625 2.15625,-4.09375 1.796875,-4.40625 1.328125,-4.40625 0.875,-4.40625 0.6875,-4.015625 0.59375,-3.84375 0.421875,-3.5 0.296875,-2.90625 0.296875,-2.875 c 0,0.109375 0.09375,0.109375 0.109375,0.109375 0.109375,0 0.109375,-0.015625 0.171875,-0.234375 0.171875,-0.703125 0.375,-1.1875 0.734375,-1.1875 0.15625,0 0.296875,0.078125 0.296875,0.453125 0,0.21875 -0.03125,0.328125 -0.15625,0.84375 z m 0,0"
             transform="translate(148.712,134.765)"
             id="path1394" />
        </g>
        <g
           style="fill:#000000;fill-opacity:1"
           id="g1400">
          <path
             inkscape:connector-curvature="0"
             style="stroke:none;stroke-width:0"
             d="M 3.515625,-1.265625 H 3.28125 c -0.015625,0.15625 -0.09375,0.5625 -0.1875,0.625 C 3.046875,-0.59375 2.515625,-0.59375 2.40625,-0.59375 H 1.125 c 0.734375,-0.640625 0.984375,-0.84375 1.390625,-1.171875 0.515625,-0.40625 1,-0.84375 1,-1.5 0,-0.84375 -0.734375,-1.359375 -1.625,-1.359375 -0.859375,0 -1.453125,0.609375 -1.453125,1.25 0,0.34375 0.296875,0.390625 0.375,0.390625 0.15625,0 0.359375,-0.125 0.359375,-0.375 0,-0.125 -0.046875,-0.375 -0.40625,-0.375 C 0.984375,-4.21875 1.453125,-4.375 1.78125,-4.375 c 0.703125,0 1.0625,0.546875 1.0625,1.109375 0,0.609375 -0.4375,1.078125 -0.65625,1.328125 L 0.515625,-0.265625 C 0.4375,-0.203125 0.4375,-0.1875 0.4375,0 h 2.875 z m 0,0"
             transform="translate(153.207,136.259)"
             id="path1398" />
        </g>
      </g>
    </g>
    <path
       inkscape:export-ydpi="366.51639"
       inkscape:export-xdpi="366.51639"
       inkscape:connector-curvature="0"
       id="path1432"
       d="M 153.63563,98.031152 V 163.77945"
       style="opacity:1;fill:#335391;fill-opacity:1;stroke:#000000;stroke-width:0.2;stroke-linecap:square;stroke-miterlimit:4;stroke-dasharray:none;stroke-dashoffset:0;stroke-opacity:1" />
    <path
       inkscape:export-ydpi="366.51639"
       inkscape:export-xdpi="366.51639"
       d="m 165.10416,126.36162 a 17.706606,17.706606 0 0 1 0.9009,4.43894"
       sodipodi:open="true"
       sodipodi:end="6.2112064"
       sodipodi:start="5.9546991"
       sodipodi:ry="17.706606"
       sodipodi:rx="17.706606"
       sodipodi:cy="132.07396"
       sodipodi:cx="148.3443"
       sodipodi:type="arc"
       id="path1434"
       style="opacity:1;fill:none;fill-opacity:1;stroke:#00be06;stroke-width:0.2;stroke-linecap:square;stroke-miterlimit:4;stroke-dasharray:none;stroke-dashoffset:0;stroke-opacity:1" />
    <path
       inkscape:export-ydpi="366.51639"
       inkscape:export-xdpi="366.51639"
       style="opacity:1;fill:#335391;fill-opacity:1;stroke:#000000;stroke-width:0.2;stroke-linecap:square;stroke-miterlimit:4;stroke-dasharray:none;stroke-dashoffset:0;stroke-opacity:1"
       d="M 186.50979,130.9053 H 120.76148"
       id="path1436"
       inkscape:connector-curvature="0" />
    <path
       inkscape:export-ydpi="366.51639"
       inkscape:export-xdpi="366.51639"
       sodipodi:nodetypes="cc"
       inkscape:connector-curvature="0"
       id="path1438"
       d="m 153.61169,130.88813 32.82049,-13.42621"
       style="opacity:1;fill:#626262;fill-opacity:0.98333335;stroke:#434343;stroke-width:0.15;stroke-linecap:square;stroke-miterlimit:4;stroke-dasharray:0.45,0.45;stroke-dashoffset:0;stroke-opacity:0.5" />
    <g
       id="g1623"
       ns1:jacobian_sqrt="0.275539"
       inkscapeversion="0.92.4"
       ns1:alignment="middle center"
       ns1:scale="0.781055795739"
       ns1:preamble="C:\\Users\\Buster\\AppData\\Roaming\\inkscape\\extensions\\textext\\default_packages.tex"
       ns1:text="$P$"
       ns1:pdfconverter="pdf2svg"
       ns1:texconverter="pdflatex"
       ns1:version="0.11.0"
       transform="matrix(0.275539,0,0,0.275539,135.85623,85.27182)">
      <g
         id="g1621">
        <g
           id="g1619"
           style="fill:#000000;fill-opacity:1">
          <path
             id="path1617"
             transform="translate(148.712,134.765)"
             d="M 3.015625,-3.15625 H 4.71875 c 1.40625,0 2.796875,-1.03125 2.796875,-2.140625 0,-0.78125 -0.65625,-1.515625 -1.96875,-1.515625 h -3.21875 c -0.1875,0 -0.296875,0 -0.296875,0.1875 0,0.125 0.078125,0.125 0.28125,0.125 0.125,0 0.3125,0.015625 0.421875,0.015625 0.171875,0.03125 0.21875,0.046875 0.21875,0.171875 0,0.03125 0,0.0625 -0.03125,0.1875 l -1.34375,5.34375 c -0.09375,0.390625 -0.109375,0.46875 -0.90625,0.46875 -0.15625,0 -0.265625,0 -0.265625,0.1875 C 0.40625,0 0.515625,0 0.546875,0 0.828125,0 1.53125,-0.03125 1.8125,-0.03125 c 0.21875,0 0.4375,0.015625 0.640625,0.015625 0.21875,0 0.4375,0.015625 0.640625,0.015625 0.078125,0 0.203125,0 0.203125,-0.203125 0,-0.109375 -0.09375,-0.109375 -0.28125,-0.109375 -0.359375,0 -0.640625,0 -0.640625,-0.171875 0,-0.0625 0.015625,-0.109375 0.03125,-0.171875 z M 3.734375,-6.125 C 3.828125,-6.46875 3.84375,-6.5 4.28125,-6.5 h 0.953125 c 0.828125,0 1.359375,0.265625 1.359375,0.953125 0,0.390625 -0.203125,1.25 -0.59375,1.609375 -0.5,0.453125 -1.09375,0.53125 -1.53125,0.53125 H 3.0625 Z m 0,0"
             style="stroke:none;stroke-width:0"
             inkscape:connector-curvature="0" />
        </g>
      </g>
    </g>
    <g
       id="g1728"
       ns1:jacobian_sqrt="0.275539"
       inkscapeversion="0.92.4"
       ns1:alignment="middle center"
       ns1:scale="0.781055795739"
       ns1:preamble="C:\\Users\\Buster\\AppData\\Roaming\\inkscape\\extensions\\textext\\default_packages.tex"
       ns1:text="$\\theta$"
       ns1:pdfconverter="pdf2svg"
       ns1:texconverter="pdflatex"
       ns1:version="0.11.0"
       transform="matrix(0.275539,0,0,0.275539,125.29178,92.054197)">
      <g
         id="g1726">
        <g
           id="g1724"
           style="fill:#000000;fill-opacity:1">
          <path
             id="path1722"
             transform="translate(148.712,134.765)"
             d="m 4.53125,-4.984375 c 0,-0.65625 -0.171875,-2.046875 -1.1875,-2.046875 -1.390625,0 -2.921875,2.8125 -2.921875,5.09375 0,0.9375 0.28125,2.046875 1.1875,2.046875 1.40625,0 2.921875,-2.859375 2.921875,-5.09375 z M 1.46875,-3.625 C 1.640625,-4.25 1.84375,-5.046875 2.25,-5.765625 2.515625,-6.25 2.875,-6.8125 3.328125,-6.8125 c 0.484375,0 0.546875,0.640625 0.546875,1.203125 0,0.5 -0.078125,1 -0.3125,1.984375 z m 2,0.328125 C 3.359375,-2.84375 3.15625,-2 2.765625,-1.28125 c -0.34375,0.6875 -0.71875,1.171875 -1.15625,1.171875 -0.328125,0 -0.53125,-0.296875 -0.53125,-1.21875 0,-0.421875 0.0625,-1 0.3125,-1.96875 z m 0,0"
             style="stroke:none;stroke-width:0"
             inkscape:connector-curvature="0" />
        </g>
      </g>
    </g>
    <g
       id="g1831"
       ns1:jacobian_sqrt="0.275539"
       inkscapeversion="0.92.4"
       ns1:alignment="middle center"
       ns1:scale="0.781055795739"
       ns1:preamble="C:\\Users\\Buster\\AppData\\Roaming\\inkscape\\extensions\\textext\\default_packages.tex"
       ns1:text="$r$"
       ns1:pdfconverter="pdf2svg"
       ns1:texconverter="pdflatex"
       ns1:version="0.11.0"
       transform="matrix(0.275539,0,0,0.275539,126.13664,87.148969)">
      <g
         id="g1829">
        <g
           id="g1827"
           style="fill:#000000;fill-opacity:1">
          <path
             id="path1825"
             transform="translate(148.712,134.765)"
             d="m 0.875,-0.59375 c -0.03125,0.15625 -0.09375,0.390625 -0.09375,0.4375 0,0.171875 0.140625,0.265625 0.296875,0.265625 0.125,0 0.296875,-0.078125 0.375,-0.28125 C 1.46875,-0.203125 1.796875,-1.5625 1.84375,-1.75 c 0.078125,-0.328125 0.265625,-1.015625 0.3125,-1.296875 0.046875,-0.125 0.328125,-0.59375 0.5625,-0.8125 0.078125,-0.0625 0.375,-0.328125 0.796875,-0.328125 0.265625,0 0.40625,0.125 0.421875,0.125 -0.296875,0.046875 -0.515625,0.28125 -0.515625,0.546875 0,0.15625 0.109375,0.34375 0.375,0.34375 0.265625,0 0.546875,-0.234375 0.546875,-0.59375 0,-0.34375 -0.3125,-0.640625 -0.828125,-0.640625 C 2.875,-4.40625 2.4375,-3.921875 2.25,-3.640625 2.15625,-4.09375 1.796875,-4.40625 1.328125,-4.40625 0.875,-4.40625 0.6875,-4.015625 0.59375,-3.84375 0.421875,-3.5 0.296875,-2.90625 0.296875,-2.875 c 0,0.109375 0.09375,0.109375 0.109375,0.109375 0.109375,0 0.109375,-0.015625 0.171875,-0.234375 0.171875,-0.703125 0.375,-1.1875 0.734375,-1.1875 0.15625,0 0.296875,0.078125 0.296875,0.453125 0,0.21875 -0.03125,0.328125 -0.15625,0.84375 z m 0,0"
             style="stroke:none;stroke-width:0"
             inkscape:connector-curvature="0" />
        </g>
      </g>
    </g>
    <path
       inkscape:export-ydpi="366.51639"
       inkscape:export-xdpi="366.51639"
       id="ellipse1839"
       style="opacity:1;fill:none;fill-opacity:1;stroke:#000000;stroke-width:0.12;stroke-linecap:square;stroke-miterlimit:4;stroke-dasharray:none;stroke-dashoffset:0;stroke-opacity:0.43888888"
       sodipodi:type="arc"
       sodipodi:cx="153.48672"
       sodipodi:cy="130.96808"
       sodipodi:rx="28.225723"
       sodipodi:ry="27.23296"
       sodipodi:start="5.515993"
       sodipodi:end="6.1974157"
       sodipodi:open="true"
       d="m 173.80536,112.06522 a 28.225723,27.23296 0 0 1 7.80333,16.56996" />
    <rect
       style="opacity:1;fill:url(#linearGradient2100);fill-opacity:1;stroke:#000000;stroke-width:0.12;stroke-linecap:square;stroke-miterlimit:4;stroke-dasharray:none;stroke-dashoffset:0;stroke-opacity:0.99215686"
       id="rect1843"
       width="3.6182485"
       height="3.4466584"
       x="179.50372"
       y="116.8211"
       ry="0" />
    <ellipse
       inkscape:export-ydpi="366.51639"
       inkscape:export-xdpi="366.51639"
       ry="0.41236836"
       rx="0.42955038"
       cy="120.34751"
       cx="179.45616"
       id="ellipse1440"
       style="opacity:1;fill:#0021c4;fill-opacity:1;stroke:#000000;stroke-width:0.12;stroke-linecap:square;stroke-miterlimit:4;stroke-dasharray:none;stroke-dashoffset:0;stroke-opacity:1" />
    <g
       id="g1958"
       ns1:jacobian_sqrt="0.275539"
       inkscapeversion="0.92.4"
       ns1:alignment="middle center"
       ns1:scale="0.781055795739"
       ns1:preamble="C:\\Users\\Buster\\AppData\\Roaming\\inkscape\\extensions\\textext\\default_packages.tex"
       ns1:text="$dy$"
       ns1:pdfconverter="pdf2svg"
       ns1:texconverter="pdflatex"
       ns1:version="0.11.0"
       transform="matrix(0.275539,0,0,0.275539,142.45955,82.016169)">
      <g
         id="g1956">
        <g
           id="g1954"
           style="fill:#000000;fill-opacity:1">
          <path
             id="path1950"
             transform="translate(148.712,134.765)"
             d="m 5.140625,-6.8125 c 0,0 0,-0.109375 -0.125,-0.109375 -0.15625,0 -1.09375,0.09375 -1.265625,0.109375 -0.078125,0.015625 -0.140625,0.0625 -0.140625,0.1875 0,0.125 0.09375,0.125 0.234375,0.125 0.484375,0 0.5,0.0625 0.5,0.171875 L 4.3125,-6.125 3.71875,-3.765625 C 3.53125,-4.140625 3.25,-4.40625 2.796875,-4.40625 c -1.15625,0 -2.390625,1.46875 -2.390625,2.921875 0,0.9375 0.546875,1.59375 1.3125,1.59375 0.203125,0 0.703125,-0.046875 1.296875,-0.75 0.078125,0.421875 0.4375,0.75 0.90625,0.75 0.359375,0 0.578125,-0.234375 0.75,-0.546875 0.15625,-0.359375 0.296875,-0.96875 0.296875,-0.984375 0,-0.109375 -0.09375,-0.109375 -0.125,-0.109375 -0.09375,0 -0.109375,0.046875 -0.140625,0.1875 -0.171875,0.640625 -0.34375,1.234375 -0.75,1.234375 -0.28125,0 -0.296875,-0.265625 -0.296875,-0.453125 0,-0.25 0.015625,-0.3125 0.046875,-0.484375 z m -2.0625,5.625 C 3.015625,-1 3.015625,-0.984375 2.875,-0.8125 2.4375,-0.265625 2.03125,-0.109375 1.75,-0.109375 c -0.5,0 -0.640625,-0.546875 -0.640625,-0.9375 0,-0.5 0.3125,-1.71875 0.546875,-2.1875 0.3125,-0.578125 0.75,-0.953125 1.15625,-0.953125 0.640625,0 0.78125,0.8125 0.78125,0.875 0,0.0625 -0.015625,0.125 -0.03125,0.171875 z m 0,0"
             style="stroke:none;stroke-width:0"
             inkscape:connector-curvature="0" />
          <path
             id="path1952"
             transform="translate(153.89753,134.765)"
             d="m 4.84375,-3.796875 c 0.046875,-0.140625 0.046875,-0.15625 0.046875,-0.234375 0,-0.171875 -0.140625,-0.265625 -0.296875,-0.265625 -0.09375,0 -0.25,0.0625 -0.34375,0.203125 -0.015625,0.0625 -0.109375,0.359375 -0.140625,0.546875 -0.078125,0.25 -0.140625,0.53125 -0.203125,0.796875 l -0.453125,1.796875 c -0.03125,0.140625 -0.46875,0.84375 -1.125,0.84375 -0.5,0 -0.609375,-0.4375 -0.609375,-0.8125 C 1.71875,-1.375 1.890625,-2 2.21875,-2.875 2.375,-3.28125 2.421875,-3.390625 2.421875,-3.59375 c 0,-0.4375 -0.3125,-0.8125 -0.8125,-0.8125 -0.953125,0 -1.3125,1.453125 -1.3125,1.53125 0,0.109375 0.09375,0.109375 0.109375,0.109375 0.109375,0 0.109375,-0.03125 0.15625,-0.1875 0.28125,-0.9375 0.671875,-1.234375 1.015625,-1.234375 0.078125,0 0.25,0 0.25,0.3125 0,0.25 -0.109375,0.515625 -0.171875,0.703125 -0.40625,1.0625 -0.578125,1.625 -0.578125,2.09375 0,0.890625 0.625,1.1875 1.21875,1.1875 0.390625,0 0.71875,-0.171875 1,-0.453125 -0.125,0.515625 -0.25,1.015625 -0.640625,1.546875 -0.265625,0.328125 -0.640625,0.625 -1.09375,0.625 -0.140625,0 -0.59375,-0.03125 -0.765625,-0.421875 0.15625,0 0.296875,0 0.421875,-0.125 C 1.328125,1.203125 1.421875,1.0625 1.421875,0.875 1.421875,0.5625 1.15625,0.53125 1.0625,0.53125 0.828125,0.53125 0.5,0.6875 0.5,1.171875 c 0,0.5 0.4375,0.875 1.0625,0.875 1.015625,0 2.046875,-0.90625 2.328125,-2.03125 z m 0,0"
             style="stroke:none;stroke-width:0"
             inkscape:connector-curvature="0" />
        </g>
      </g>
    </g>
    <g
       id="g2085"
       ns1:jacobian_sqrt="0.275539"
       inkscapeversion="0.92.4"
       ns1:alignment="middle center"
       ns1:scale="0.781055795739"
       ns1:preamble="C:\\Users\\Buster\\AppData\\Roaming\\inkscape\\extensions\\textext\\default_packages.tex"
       ns1:text="$dx$"
       ns1:pdfconverter="pdf2svg"
       ns1:texconverter="pdflatex"
       ns1:version="0.11.0"
       transform="matrix(0.275539,0,0,0.275539,138.92812,79.221659)">
      <g
         id="g2083">
        <g
           id="g2081"
           style="fill:#000000;fill-opacity:1">
          <path
             id="path2077"
             transform="translate(148.712,134.765)"
             d="m 5.140625,-6.8125 c 0,0 0,-0.109375 -0.125,-0.109375 -0.15625,0 -1.09375,0.09375 -1.265625,0.109375 -0.078125,0.015625 -0.140625,0.0625 -0.140625,0.1875 0,0.125 0.09375,0.125 0.234375,0.125 0.484375,0 0.5,0.0625 0.5,0.171875 L 4.3125,-6.125 3.71875,-3.765625 C 3.53125,-4.140625 3.25,-4.40625 2.796875,-4.40625 c -1.15625,0 -2.390625,1.46875 -2.390625,2.921875 0,0.9375 0.546875,1.59375 1.3125,1.59375 0.203125,0 0.703125,-0.046875 1.296875,-0.75 0.078125,0.421875 0.4375,0.75 0.90625,0.75 0.359375,0 0.578125,-0.234375 0.75,-0.546875 0.15625,-0.359375 0.296875,-0.96875 0.296875,-0.984375 0,-0.109375 -0.09375,-0.109375 -0.125,-0.109375 -0.09375,0 -0.109375,0.046875 -0.140625,0.1875 -0.171875,0.640625 -0.34375,1.234375 -0.75,1.234375 -0.28125,0 -0.296875,-0.265625 -0.296875,-0.453125 0,-0.25 0.015625,-0.3125 0.046875,-0.484375 z m -2.0625,5.625 C 3.015625,-1 3.015625,-0.984375 2.875,-0.8125 2.4375,-0.265625 2.03125,-0.109375 1.75,-0.109375 c -0.5,0 -0.640625,-0.546875 -0.640625,-0.9375 0,-0.5 0.3125,-1.71875 0.546875,-2.1875 0.3125,-0.578125 0.75,-0.953125 1.15625,-0.953125 0.640625,0 0.78125,0.8125 0.78125,0.875 0,0.0625 -0.015625,0.125 -0.03125,0.171875 z m 0,0"
             style="stroke:none;stroke-width:0"
             inkscape:connector-curvature="0" />
          <path
             id="path2079"
             transform="translate(153.89753,134.765)"
             d="M 3.328125,-3.015625 C 3.390625,-3.265625 3.625,-4.1875 4.3125,-4.1875 c 0.046875,0 0.296875,0 0.5,0.125 C 4.53125,-4 4.34375,-3.765625 4.34375,-3.515625 c 0,0.15625 0.109375,0.34375 0.375,0.34375 0.21875,0 0.53125,-0.171875 0.53125,-0.578125 0,-0.515625 -0.578125,-0.65625 -0.921875,-0.65625 -0.578125,0 -0.921875,0.53125 -1.046875,0.75 -0.25,-0.65625 -0.78125,-0.75 -1.078125,-0.75 -1.03125,0 -1.609375,1.28125 -1.609375,1.53125 0,0.109375 0.109375,0.109375 0.125,0.109375 0.078125,0 0.109375,-0.03125 0.125,-0.109375 0.34375,-1.0625 1,-1.3125 1.34375,-1.3125 0.1875,0 0.53125,0.09375 0.53125,0.671875 0,0.3125 -0.171875,0.96875 -0.53125,2.375 -0.15625,0.609375 -0.515625,1.03125 -0.953125,1.03125 -0.0625,0 -0.28125,0 -0.5,-0.125 0.25,-0.0625 0.46875,-0.265625 0.46875,-0.546875 0,-0.265625 -0.21875,-0.34375 -0.359375,-0.34375 -0.3125,0 -0.546875,0.25 -0.546875,0.578125 0,0.453125 0.484375,0.65625 0.921875,0.65625 0.671875,0 1.03125,-0.703125 1.046875,-0.75 0.125,0.359375 0.484375,0.75 1.078125,0.75 1.03125,0 1.59375,-1.28125 1.59375,-1.53125 0,-0.109375 -0.078125,-0.109375 -0.109375,-0.109375 -0.09375,0 -0.109375,0.046875 -0.140625,0.109375 -0.328125,1.078125 -1,1.3125 -1.3125,1.3125 -0.390625,0 -0.546875,-0.3125 -0.546875,-0.65625 0,-0.21875 0.046875,-0.4375 0.15625,-0.875 z m 0,0"
             style="stroke:none;stroke-width:0"
             inkscape:connector-curvature="0" />
        </g>
      </g>
    </g>
    <rect
       style="opacity:1;fill:none;fill-opacity:0.68333333;stroke:none;stroke-width:0.14999999;stroke-linecap:square;stroke-miterlimit:4;stroke-dasharray:0.44999999, 0.44999999000000002;stroke-dashoffset:0;stroke-opacity:0.5"
       id="rect2102"
       width="35.145943"
       height="34.945492"
       x="151.54182"
       y="97.817368"
       inkscape:export-xdpi="650.4306"
       inkscape:export-ydpi="650.4306" />
    <path
       style="opacity:1;fill:#335391;fill-opacity:1;stroke:#000000;stroke-width:0.2;stroke-linecap:square;stroke-miterlimit:4;stroke-dasharray:none;stroke-dashoffset:0;stroke-opacity:1"
       d="m 81.740127,165.51671 v 65.7483"
       id="path2104"
       inkscape:connector-curvature="0"
       inkscape:export-xdpi="366.51639"
       inkscape:export-ydpi="366.51639" />
    <path
       style="opacity:1;fill:none;fill-opacity:1;stroke:#00be06;stroke-width:0.2;stroke-linecap:square;stroke-miterlimit:4;stroke-dasharray:none;stroke-dashoffset:0;stroke-opacity:1"
       id="path2106"
       sodipodi:type="arc"
       sodipodi:cx="76.448799"
       sodipodi:cy="199.55951"
       sodipodi:rx="17.706606"
       sodipodi:ry="17.706606"
       sodipodi:start="5.9546991"
       sodipodi:end="6.2112064"
       sodipodi:open="true"
       d="m 93.208665,193.84717 a 17.706606,17.706606 0 0 1 0.900891,4.43894"
       inkscape:export-xdpi="366.51639"
       inkscape:export-ydpi="366.51639" />
    <path
       inkscape:connector-curvature="0"
       id="path2108"
       d="M 114.61429,198.39086 H 48.865977"
       style="opacity:1;fill:#335391;fill-opacity:1;stroke:#000000;stroke-width:0.2;stroke-linecap:square;stroke-miterlimit:4;stroke-dasharray:none;stroke-dashoffset:0;stroke-opacity:1"
       inkscape:export-xdpi="366.51639"
       inkscape:export-ydpi="366.51639" />
    <path
       style="opacity:1;fill:#626262;fill-opacity:0.98333333;stroke:#434343;stroke-width:0.15000001;stroke-linecap:square;stroke-miterlimit:4;stroke-dasharray:0.45, 0.45;stroke-dashoffset:0;stroke-opacity:0.5"
       d="M 81.716187,198.37369 114.53668,184.94748"
       id="path2110"
       inkscape:connector-curvature="0"
       sodipodi:nodetypes="cc"
       inkscape:export-xdpi="366.51639"
       inkscape:export-ydpi="366.51639" />
    <g
       transform="matrix(0.275539,0,0,0.275539,53.396277,159.53975)"
       ns1:version="0.11.0"
       ns1:texconverter="pdflatex"
       ns1:pdfconverter="pdf2svg"
       ns1:text="$\\theta$"
       ns1:preamble="C:\\Users\\Buster\\AppData\\Roaming\\inkscape\\extensions\\textext\\default_packages.tex"
       ns1:scale="0.781055795739"
       ns1:alignment="middle center"
       inkscapeversion="0.92.4"
       ns1:jacobian_sqrt="0.275539"
       id="g2126">
      <g
         id="g2124">
        <g
           style="fill:#000000;fill-opacity:1"
           id="g2122">
          <path
             inkscape:connector-curvature="0"
             style="stroke:none;stroke-width:0"
             d="m 4.53125,-4.984375 c 0,-0.65625 -0.171875,-2.046875 -1.1875,-2.046875 -1.390625,0 -2.921875,2.8125 -2.921875,5.09375 0,0.9375 0.28125,2.046875 1.1875,2.046875 1.40625,0 2.921875,-2.859375 2.921875,-5.09375 z M 1.46875,-3.625 C 1.640625,-4.25 1.84375,-5.046875 2.25,-5.765625 2.515625,-6.25 2.875,-6.8125 3.328125,-6.8125 c 0.484375,0 0.546875,0.640625 0.546875,1.203125 0,0.5 -0.078125,1 -0.3125,1.984375 z m 2,0.328125 C 3.359375,-2.84375 3.15625,-2 2.765625,-1.28125 c -0.34375,0.6875 -0.71875,1.171875 -1.15625,1.171875 -0.328125,0 -0.53125,-0.296875 -0.53125,-1.21875 0,-0.421875 0.0625,-1 0.3125,-1.96875 z m 0,0"
             transform="translate(148.712,134.765)"
             id="path2120" />
        </g>
      </g>
    </g>
    <g
       transform="matrix(0.275539,0,0,0.275539,54.241137,154.63452)"
       ns1:version="0.11.0"
       ns1:texconverter="pdflatex"
       ns1:pdfconverter="pdf2svg"
       ns1:text="$r$"
       ns1:preamble="C:\\Users\\Buster\\AppData\\Roaming\\inkscape\\extensions\\textext\\default_packages.tex"
       ns1:scale="0.781055795739"
       ns1:alignment="middle center"
       inkscapeversion="0.92.4"
       ns1:jacobian_sqrt="0.275539"
       id="g2134">
      <g
         id="g2132">
        <g
           style="fill:#000000;fill-opacity:1"
           id="g2130">
          <path
             inkscape:connector-curvature="0"
             style="stroke:none;stroke-width:0"
             d="m 0.875,-0.59375 c -0.03125,0.15625 -0.09375,0.390625 -0.09375,0.4375 0,0.171875 0.140625,0.265625 0.296875,0.265625 0.125,0 0.296875,-0.078125 0.375,-0.28125 C 1.46875,-0.203125 1.796875,-1.5625 1.84375,-1.75 c 0.078125,-0.328125 0.265625,-1.015625 0.3125,-1.296875 0.046875,-0.125 0.328125,-0.59375 0.5625,-0.8125 0.078125,-0.0625 0.375,-0.328125 0.796875,-0.328125 0.265625,0 0.40625,0.125 0.421875,0.125 -0.296875,0.046875 -0.515625,0.28125 -0.515625,0.546875 0,0.15625 0.109375,0.34375 0.375,0.34375 0.265625,0 0.546875,-0.234375 0.546875,-0.59375 0,-0.34375 -0.3125,-0.640625 -0.828125,-0.640625 C 2.875,-4.40625 2.4375,-3.921875 2.25,-3.640625 2.15625,-4.09375 1.796875,-4.40625 1.328125,-4.40625 0.875,-4.40625 0.6875,-4.015625 0.59375,-3.84375 0.421875,-3.5 0.296875,-2.90625 0.296875,-2.875 c 0,0.109375 0.09375,0.109375 0.109375,0.109375 0.109375,0 0.109375,-0.015625 0.171875,-0.234375 0.171875,-0.703125 0.375,-1.1875 0.734375,-1.1875 0.15625,0 0.296875,0.078125 0.296875,0.453125 0,0.21875 -0.03125,0.328125 -0.15625,0.84375 z m 0,0"
             transform="translate(148.712,134.765)"
             id="path2128" />
        </g>
      </g>
    </g>
    <path
       d="m 101.90986,179.55077 a 28.225723,27.23296 0 0 1 7.80333,16.56996"
       sodipodi:open="true"
       sodipodi:end="6.1974157"
       sodipodi:start="5.515993"
       sodipodi:ry="27.23296"
       sodipodi:rx="28.225723"
       sodipodi:cy="198.45363"
       sodipodi:cx="81.591225"
       sodipodi:type="arc"
       style="opacity:1;fill:none;fill-opacity:1;stroke:#000000;stroke-width:0.12;stroke-linecap:square;stroke-miterlimit:4;stroke-dasharray:none;stroke-dashoffset:0;stroke-opacity:0.43888891"
       id="path2136"
       inkscape:export-xdpi="366.51639"
       inkscape:export-ydpi="366.51639" />
    <rect
       inkscape:export-ydpi="650.4306"
       inkscape:export-xdpi="650.4306"
       y="165.30292"
       x="79.646324"
       height="34.945492"
       width="35.145943"
       id="rect2162"
       style="opacity:1;fill:none;fill-opacity:0.68333333;stroke:none;stroke-width:0.14999999;stroke-linecap:square;stroke-miterlimit:4;stroke-dasharray:0.44999999, 0.44999999;stroke-dashoffset:0;stroke-opacity:0.5" />
    <rect
       style="opacity:1;fill:none;fill-opacity:1;stroke:#000000;stroke-width:0.12;stroke-linecap:square;stroke-miterlimit:4;stroke-dasharray:none;stroke-dashoffset:0;stroke-opacity:0.99215686"
       id="rect2166"
       width="4.7974486"
       height="4.5704927"
       x="27.731676"
       y="212.03282"
       ry="0"
       transform="matrix(0.92844725,-0.37146427,0.3713566,0.92849032,0,0)" />
    <path
       style="opacity:1;fill:#0021c4;fill-opacity:1;stroke:#000000;stroke-width:0.12;stroke-linecap:square;stroke-miterlimit:4;stroke-dasharray:none;stroke-dashoffset:0;stroke-opacity:1"
       id="ellipse2140"
       inkscape:export-xdpi="366.51639"
       inkscape:export-ydpi="366.51639"
       sodipodi:type="arc"
       sodipodi:cx="107.54813"
       sodipodi:cy="187.83725"
       sodipodi:rx="0.42955038"
       sodipodi:ry="0.41236836"
       sodipodi:start="4.3800087"
       sodipodi:end="4.3322568"
       sodipodi:open="true"
       d="m 107.40797,187.44745 a 0.42955038,0.41236836 0 0 1 0.54449,0.2506 0.42955038,0.41236836 0 0 1 -0.25452,0.52568 0.42955038,0.41236836 0 0 1 -0.55058,-0.23806 0.42955038,0.41236836 0 0 1 0.24138,-0.53135" />
    <rect
       style="opacity:1;fill:none;fill-opacity:0.68333333;stroke:#000000;stroke-width:0.07;stroke-linecap:square;stroke-miterlimit:4;stroke-dasharray:none;stroke-dashoffset:0;stroke-opacity:0.26111115"
       id="rect2170"
       width="35.340775"
       height="35.057293"
       x="79.563988"
       y="165.27528"
       inkscape:export-xdpi="646.84503"
       inkscape:export-ydpi="646.84503" />
    <path
       inkscape:export-ydpi="366.51639"
       inkscape:export-xdpi="366.51639"
       inkscape:connector-curvature="0"
       id="path2172"
       d="m 153.9029,166.58579 v 65.7483"
       style="opacity:1;fill:#335391;fill-opacity:1;stroke:#000000;stroke-width:0.2;stroke-linecap:square;stroke-miterlimit:4;stroke-dasharray:none;stroke-dashoffset:0;stroke-opacity:1" />
    <path
       inkscape:export-ydpi="366.51639"
       inkscape:export-xdpi="366.51639"
       d="m 165.37144,194.91625 a 17.706606,17.706606 0 0 1 0.90089,4.43893"
       sodipodi:open="true"
       sodipodi:end="6.2112064"
       sodipodi:start="5.9546991"
       sodipodi:ry="17.706606"
       sodipodi:rx="17.706606"
       sodipodi:cy="200.62859"
       sodipodi:cx="148.61157"
       sodipodi:type="arc"
       id="path2174"
       style="opacity:1;fill:none;fill-opacity:1;stroke:#00be06;stroke-width:0.2;stroke-linecap:square;stroke-miterlimit:4;stroke-dasharray:none;stroke-dashoffset:0;stroke-opacity:1" />
    <path
       inkscape:export-ydpi="366.51639"
       inkscape:export-xdpi="366.51639"
       style="opacity:1;fill:#335391;fill-opacity:1;stroke:#000000;stroke-width:0.2;stroke-linecap:square;stroke-miterlimit:4;stroke-dasharray:none;stroke-dashoffset:0;stroke-opacity:1"
       d="M 186.77706,199.45994 H 121.02875"
       id="path2176"
       inkscape:connector-curvature="0" />
    <path
       inkscape:export-ydpi="366.51639"
       inkscape:export-xdpi="366.51639"
       sodipodi:nodetypes="cc"
       inkscape:connector-curvature="0"
       id="path2178"
       d="m 153.87896,199.44277 32.82049,-13.42621"
       style="opacity:1;fill:#626262;fill-opacity:0.98333333;stroke:#434343;stroke-width:0.15000001;stroke-linecap:square;stroke-miterlimit:4;stroke-dasharray:0.45, 0.45;stroke-dashoffset:0;stroke-opacity:0.5" />
    <g
       id="g2186"
       ns1:jacobian_sqrt="0.275539"
       inkscapeversion="0.92.4"
       ns1:alignment="middle center"
       ns1:scale="0.781055795739"
       ns1:preamble="C:\\Users\\Buster\\AppData\\Roaming\\inkscape\\extensions\\textext\\default_packages.tex"
       ns1:text="$\\theta$"
       ns1:pdfconverter="pdf2svg"
       ns1:texconverter="pdflatex"
       ns1:version="0.11.0"
       transform="matrix(0.275539,0,0,0.275539,125.55905,160.60883)">
      <g
         id="g2184">
        <g
           id="g2182"
           style="fill:#000000;fill-opacity:1">
          <path
             id="path2180"
             transform="translate(148.712,134.765)"
             d="m 4.53125,-4.984375 c 0,-0.65625 -0.171875,-2.046875 -1.1875,-2.046875 -1.390625,0 -2.921875,2.8125 -2.921875,5.09375 0,0.9375 0.28125,2.046875 1.1875,2.046875 1.40625,0 2.921875,-2.859375 2.921875,-5.09375 z M 1.46875,-3.625 C 1.640625,-4.25 1.84375,-5.046875 2.25,-5.765625 2.515625,-6.25 2.875,-6.8125 3.328125,-6.8125 c 0.484375,0 0.546875,0.640625 0.546875,1.203125 0,0.5 -0.078125,1 -0.3125,1.984375 z m 2,0.328125 C 3.359375,-2.84375 3.15625,-2 2.765625,-1.28125 c -0.34375,0.6875 -0.71875,1.171875 -1.15625,1.171875 -0.328125,0 -0.53125,-0.296875 -0.53125,-1.21875 0,-0.421875 0.0625,-1 0.3125,-1.96875 z m 0,0"
             style="stroke:none;stroke-width:0"
             inkscape:connector-curvature="0" />
        </g>
      </g>
    </g>
    <g
       id="g2194"
       ns1:jacobian_sqrt="0.275539"
       inkscapeversion="0.92.4"
       ns1:alignment="middle center"
       ns1:scale="0.781055795739"
       ns1:preamble="C:\\Users\\Buster\\AppData\\Roaming\\inkscape\\extensions\\textext\\default_packages.tex"
       ns1:text="$r$"
       ns1:pdfconverter="pdf2svg"
       ns1:texconverter="pdflatex"
       ns1:version="0.11.0"
       transform="matrix(0.275539,0,0,0.275539,126.40391,155.7036)">
      <g
         id="g2192">
        <g
           id="g2190"
           style="fill:#000000;fill-opacity:1">
          <path
             id="path2188"
             transform="translate(148.712,134.765)"
             d="m 0.875,-0.59375 c -0.03125,0.15625 -0.09375,0.390625 -0.09375,0.4375 0,0.171875 0.140625,0.265625 0.296875,0.265625 0.125,0 0.296875,-0.078125 0.375,-0.28125 C 1.46875,-0.203125 1.796875,-1.5625 1.84375,-1.75 c 0.078125,-0.328125 0.265625,-1.015625 0.3125,-1.296875 0.046875,-0.125 0.328125,-0.59375 0.5625,-0.8125 0.078125,-0.0625 0.375,-0.328125 0.796875,-0.328125 0.265625,0 0.40625,0.125 0.421875,0.125 -0.296875,0.046875 -0.515625,0.28125 -0.515625,0.546875 0,0.15625 0.109375,0.34375 0.375,0.34375 0.265625,0 0.546875,-0.234375 0.546875,-0.59375 0,-0.34375 -0.3125,-0.640625 -0.828125,-0.640625 C 2.875,-4.40625 2.4375,-3.921875 2.25,-3.640625 2.15625,-4.09375 1.796875,-4.40625 1.328125,-4.40625 0.875,-4.40625 0.6875,-4.015625 0.59375,-3.84375 0.421875,-3.5 0.296875,-2.90625 0.296875,-2.875 c 0,0.109375 0.09375,0.109375 0.109375,0.109375 0.109375,0 0.109375,-0.015625 0.171875,-0.234375 0.171875,-0.703125 0.375,-1.1875 0.734375,-1.1875 0.15625,0 0.296875,0.078125 0.296875,0.453125 0,0.21875 -0.03125,0.328125 -0.15625,0.84375 z m 0,0"
             style="stroke:none;stroke-width:0"
             inkscape:connector-curvature="0" />
        </g>
      </g>
    </g>
    <path
       inkscape:export-ydpi="366.51639"
       inkscape:export-xdpi="366.51639"
       id="path2196"
       style="opacity:1;fill:none;fill-opacity:1;stroke:#000000;stroke-width:0.12;stroke-linecap:square;stroke-miterlimit:4;stroke-dasharray:none;stroke-dashoffset:0;stroke-opacity:0.43888891"
       sodipodi:type="arc"
       sodipodi:cx="153.754"
       sodipodi:cy="199.52271"
       sodipodi:rx="28.225723"
       sodipodi:ry="27.23296"
       sodipodi:start="5.515993"
       sodipodi:end="6.1974157"
       sodipodi:open="true"
       d="m 174.07263,180.61985 a 28.225723,27.23296 0 0 1 7.80333,16.56996" />
    <rect
       style="opacity:1;fill:none;fill-opacity:0.68333333;stroke:none;stroke-width:0.14999999;stroke-linecap:square;stroke-miterlimit:4;stroke-dasharray:0.44999999, 0.44999999;stroke-dashoffset:0;stroke-opacity:0.5"
       id="rect2198"
       width="35.145943"
       height="34.945492"
       x="151.8091"
       y="166.37199"
       inkscape:export-xdpi="650.4306"
       inkscape:export-ydpi="650.4306" />
    <rect
       transform="matrix(0.92844725,-0.37146427,0.3713566,0.92849032,0,0)"
       ry="0"
       y="239.8313"
       x="94.337105"
       height="4.5704927"
       width="4.7974486"
       id="rect2200"
       style="opacity:1;fill:none;fill-opacity:1;stroke:#000000;stroke-width:0.12;stroke-linecap:square;stroke-miterlimit:4;stroke-dasharray:none;stroke-dashoffset:0;stroke-opacity:0.99215686" />
    <rect
       inkscape:export-ydpi="646.84503"
       inkscape:export-xdpi="646.84503"
       y="166.34436"
       x="144.64656"
       height="46.207592"
       width="42.420975"
       id="rect2204"
       style="opacity:1;fill:none;fill-opacity:0.68333333;stroke:none;stroke-width:0.07;stroke-linecap:square;stroke-miterlimit:4;stroke-dasharray:none;stroke-dashoffset:0;stroke-opacity:0.26111115" />
    <rect
       style="opacity:1;fill:none;fill-opacity:1;stroke:#000000;stroke-width:0.12;stroke-linecap:square;stroke-miterlimit:4;stroke-dasharray:none;stroke-dashoffset:0;stroke-opacity:0.99215686"
       id="rect2206"
       width="2.4030821"
       height="2.2885461"
       x="96.682259"
       y="239.81609"
       ry="0"
       transform="matrix(0.92851308,-0.3712997,0.37152117,0.92842448,0,0)"
       inkscape:transform-center-x="-0.66737609"
       inkscape:transform-center-y="-1.464635" />
    <rect
       inkscape:transform-center-y="-1.464635"
       inkscape:transform-center-x="-0.66737609"
       transform="matrix(0.92851308,-0.3712997,0.37152117,0.92842448,0,0)"
       ry="0"
       y="242.08049"
       x="96.675735"
       height="2.2885461"
       width="2.4030821"
       id="rect2208"
       style="opacity:1;fill:none;fill-opacity:1;stroke:#000000;stroke-width:0.12;stroke-linecap:square;stroke-miterlimit:4;stroke-dasharray:none;stroke-dashoffset:0;stroke-opacity:0.99215686" />
    <rect
       style="opacity:1;fill:none;fill-opacity:1;stroke:#000000;stroke-width:0.12;stroke-linecap:square;stroke-miterlimit:4;stroke-dasharray:none;stroke-dashoffset:0;stroke-opacity:0.99215686"
       id="rect2210"
       width="2.4030821"
       height="2.2885461"
       x="94.308968"
       y="242.10553"
       ry="0"
       transform="matrix(0.92851308,-0.3712997,0.37152117,0.92842448,0,0)"
       inkscape:transform-center-x="-0.66737609"
       inkscape:transform-center-y="-1.464635" />
    <path
       d="m 179.57073,188.51653 a 0.42955038,0.41236836 0 0 1 0.5445,0.2506 0.42955038,0.41236836 0 0 1 -0.25452,0.52567 0.42955038,0.41236836 0 0 1 -0.55058,-0.23805 0.42955038,0.41236836 0 0 1 0.24138,-0.53136"
       sodipodi:open="true"
       sodipodi:end="4.3322568"
       sodipodi:start="4.3800087"
       sodipodi:ry="0.41236836"
       sodipodi:rx="0.42955038"
       sodipodi:cy="188.90633"
       sodipodi:cx="179.71089"
       sodipodi:type="arc"
       inkscape:export-ydpi="366.51639"
       inkscape:export-xdpi="366.51639"
       id="path2202"
       style="opacity:1;fill:#0021c4;fill-opacity:1;stroke:#000000;stroke-width:0.12;stroke-linecap:square;stroke-miterlimit:4;stroke-dasharray:none;stroke-dashoffset:0;stroke-opacity:1" />
    <g
       id="g2367"
       ns1:jacobian_sqrt="0.275539"
       inkscapeversion="0.92.4"
       ns1:alignment="middle center"
       ns1:scale="0.781055795739"
       ns1:preamble="C:\\Users\\Buster\\AppData\\Roaming\\inkscape\\extensions\\textext\\default_packages.tex"
       ns1:text="$dr$"
       ns1:pdfconverter="pdf2svg"
       ns1:texconverter="pdflatex"
       ns1:version="0.11.0"
       transform="matrix(0.275539,0,0,0.275539,137.24036,148.64748)">
      <g
         id="g2365">
        <g
           id="g2363"
           style="fill:#000000;fill-opacity:1">
          <path
             id="path2359"
             transform="translate(148.712,134.765)"
             d="m 5.140625,-6.8125 c 0,0 0,-0.109375 -0.125,-0.109375 -0.15625,0 -1.09375,0.09375 -1.265625,0.109375 -0.078125,0.015625 -0.140625,0.0625 -0.140625,0.1875 0,0.125 0.09375,0.125 0.234375,0.125 0.484375,0 0.5,0.0625 0.5,0.171875 L 4.3125,-6.125 3.71875,-3.765625 C 3.53125,-4.140625 3.25,-4.40625 2.796875,-4.40625 c -1.15625,0 -2.390625,1.46875 -2.390625,2.921875 0,0.9375 0.546875,1.59375 1.3125,1.59375 0.203125,0 0.703125,-0.046875 1.296875,-0.75 0.078125,0.421875 0.4375,0.75 0.90625,0.75 0.359375,0 0.578125,-0.234375 0.75,-0.546875 0.15625,-0.359375 0.296875,-0.96875 0.296875,-0.984375 0,-0.109375 -0.09375,-0.109375 -0.125,-0.109375 -0.09375,0 -0.109375,0.046875 -0.140625,0.1875 -0.171875,0.640625 -0.34375,1.234375 -0.75,1.234375 -0.28125,0 -0.296875,-0.265625 -0.296875,-0.453125 0,-0.25 0.015625,-0.3125 0.046875,-0.484375 z m -2.0625,5.625 C 3.015625,-1 3.015625,-0.984375 2.875,-0.8125 2.4375,-0.265625 2.03125,-0.109375 1.75,-0.109375 c -0.5,0 -0.640625,-0.546875 -0.640625,-0.9375 0,-0.5 0.3125,-1.71875 0.546875,-2.1875 0.3125,-0.578125 0.75,-0.953125 1.15625,-0.953125 0.640625,0 0.78125,0.8125 0.78125,0.875 0,0.0625 -0.015625,0.125 -0.03125,0.171875 z m 0,0"
             style="stroke:none;stroke-width:0"
             inkscape:connector-curvature="0" />
          <path
             id="path2361"
             transform="translate(153.89753,134.765)"
             d="m 0.875,-0.59375 c -0.03125,0.15625 -0.09375,0.390625 -0.09375,0.4375 0,0.171875 0.140625,0.265625 0.296875,0.265625 0.125,0 0.296875,-0.078125 0.375,-0.28125 C 1.46875,-0.203125 1.796875,-1.5625 1.84375,-1.75 c 0.078125,-0.328125 0.265625,-1.015625 0.3125,-1.296875 0.046875,-0.125 0.328125,-0.59375 0.5625,-0.8125 0.078125,-0.0625 0.375,-0.328125 0.796875,-0.328125 0.265625,0 0.40625,0.125 0.421875,0.125 -0.296875,0.046875 -0.515625,0.28125 -0.515625,0.546875 0,0.15625 0.109375,0.34375 0.375,0.34375 0.265625,0 0.546875,-0.234375 0.546875,-0.59375 0,-0.34375 -0.3125,-0.640625 -0.828125,-0.640625 C 2.875,-4.40625 2.4375,-3.921875 2.25,-3.640625 2.15625,-4.09375 1.796875,-4.40625 1.328125,-4.40625 0.875,-4.40625 0.6875,-4.015625 0.59375,-3.84375 0.421875,-3.5 0.296875,-2.90625 0.296875,-2.875 c 0,0.109375 0.09375,0.109375 0.109375,0.109375 0.109375,0 0.109375,-0.015625 0.171875,-0.234375 0.171875,-0.703125 0.375,-1.1875 0.734375,-1.1875 0.15625,0 0.296875,0.078125 0.296875,0.453125 0,0.21875 -0.03125,0.328125 -0.15625,0.84375 z m 0,0"
             style="stroke:none;stroke-width:0"
             inkscape:connector-curvature="0" />
        </g>
      </g>
    </g>
    <g
       id="g2540"
       style="fill:#000000;fill-opacity:1"
       transform="matrix(0.275539,0,0,0.275539,141.74934,152.45599)">
      <path
         id="path2538"
         transform="translate(148.712,134.765)"
         d="m 5.140625,-6.8125 c 0,0 0,-0.109375 -0.125,-0.109375 -0.15625,0 -1.09375,0.09375 -1.265625,0.109375 -0.078125,0.015625 -0.140625,0.0625 -0.140625,0.1875 0,0.125 0.09375,0.125 0.234375,0.125 0.484375,0 0.5,0.0625 0.5,0.171875 L 4.3125,-6.125 3.71875,-3.765625 C 3.53125,-4.140625 3.25,-4.40625 2.796875,-4.40625 c -1.15625,0 -2.390625,1.46875 -2.390625,2.921875 0,0.9375 0.546875,1.59375 1.3125,1.59375 0.203125,0 0.703125,-0.046875 1.296875,-0.75 0.078125,0.421875 0.4375,0.75 0.90625,0.75 0.359375,0 0.578125,-0.234375 0.75,-0.546875 0.15625,-0.359375 0.296875,-0.96875 0.296875,-0.984375 0,-0.109375 -0.09375,-0.109375 -0.125,-0.109375 -0.09375,0 -0.109375,0.046875 -0.140625,0.1875 -0.171875,0.640625 -0.34375,1.234375 -0.75,1.234375 -0.28125,0 -0.296875,-0.265625 -0.296875,-0.453125 0,-0.25 0.015625,-0.3125 0.046875,-0.484375 z m -2.0625,5.625 C 3.015625,-1 3.015625,-0.984375 2.875,-0.8125 2.4375,-0.265625 2.03125,-0.109375 1.75,-0.109375 c -0.5,0 -0.640625,-0.546875 -0.640625,-0.9375 0,-0.5 0.3125,-1.71875 0.546875,-2.1875 0.3125,-0.578125 0.75,-0.953125 1.15625,-0.953125 0.640625,0 0.78125,0.8125 0.78125,0.875 0,0.0625 -0.015625,0.125 -0.03125,0.171875 z m 0,0"
         style="stroke:none;stroke-width:0"
         inkscape:connector-curvature="0" />
    </g>
    <g
       id="g2544"
       style="fill:#000000;fill-opacity:1"
       transform="matrix(0.275539,0,0,0.275539,141.00756,152.45599)">
      <path
         id="path2542"
         transform="translate(156.665,134.765)"
         d="m 4.078125,-6.296875 c 0,-0.1875 0,-0.359375 -0.203125,-0.359375 -0.203125,0 -0.203125,0.203125 -0.203125,0.359375 V -0.40625 H 0.90625 c -0.15625,0 -0.359375,0 -0.359375,0.203125 C 0.546875,0 0.75,0 0.90625,0 h 5.953125 c 0.171875,0 0.34375,0 0.34375,-0.203125 0,-0.203125 -0.171875,-0.203125 -0.34375,-0.203125 h -2.78125 z m 0,0"
         style="stroke:none;stroke-width:0"
         inkscape:connector-curvature="0" />
    </g>
    <g
       id="g2548"
       style="fill:#000000;fill-opacity:1"
       transform="matrix(0.275539,0,0,0.275539,141.00756,152.45599)">
      <path
         id="path2546"
         transform="translate(164.414,136.259)"
         d="m 3.5625,-3.390625 c 0,-0.734375 -0.28125,-1.515625 -0.96875,-1.515625 -1.046875,0 -2.15625,1.875 -2.15625,3.46875 0,0.828125 0.328125,1.5 0.96875,1.5 1.046875,0 2.15625,-1.890625 2.15625,-3.453125 z m -2.34375,0.84375 c 0.359375,-1.5 0.96875,-2.15625 1.375,-2.15625 0.4375,0 0.4375,0.765625 0.4375,0.890625 0,0.28125 -0.046875,0.6875 -0.1875,1.265625 z m 1.5625,0.25 C 2.578125,-1.53125 2.421875,-1.15625 2.203125,-0.8125 2,-0.453125 1.71875,-0.125 1.40625,-0.125 c -0.375,0 -0.4375,-0.53125 -0.4375,-0.90625 0,-0.453125 0.125,-1 0.1875,-1.265625 z m 0,0"
         style="stroke:none;stroke-width:0"
         inkscape:connector-curvature="0" />
    </g>
    <path
       style="opacity:1;fill:#626262;fill-opacity:0.98333333;stroke:#434343;stroke-width:0.15000001;stroke-linecap:square;stroke-miterlimit:4;stroke-dasharray:0.45, 0.45;stroke-dashoffset:0;stroke-opacity:0.5"
       d="M 159.88036,214.33496 146.45415,181.51447"
       id="path2577"
       inkscape:connector-curvature="0"
       sodipodi:nodetypes="cc"
       inkscape:export-xdpi="366.51639"
       inkscape:export-ydpi="366.51639"
       inkscape:transform-center-x="6.715139"
       inkscape:transform-center-y="-16.420369" />
    <g
       transform="matrix(0.275539,0,0,0.275539,102.58757,152.65644)"
       style="fill:#000000;fill-opacity:1"
       id="g2581">
      <path
         inkscape:connector-curvature="0"
         style="stroke:none;stroke-width:0"
         d="m 4.078125,-6.296875 c 0,-0.1875 0,-0.359375 -0.203125,-0.359375 -0.203125,0 -0.203125,0.203125 -0.203125,0.359375 V -0.40625 H 0.90625 c -0.15625,0 -0.359375,0 -0.359375,0.203125 C 0.546875,0 0.75,0 0.90625,0 h 5.953125 c 0.171875,0 0.34375,0 0.34375,-0.203125 0,-0.203125 -0.171875,-0.203125 -0.34375,-0.203125 h -2.78125 z m 0,0"
         transform="translate(156.665,134.765)"
         id="path2579" />
    </g>
    <g
       transform="matrix(0.275539,0,0,0.275539,102.58757,152.65644)"
       style="fill:#000000;fill-opacity:1"
       id="g2585">
      <path
         inkscape:connector-curvature="0"
         style="stroke:none;stroke-width:0"
         d="m 3.5625,-3.390625 c 0,-0.734375 -0.28125,-1.515625 -0.96875,-1.515625 -1.046875,0 -2.15625,1.875 -2.15625,3.46875 0,0.828125 0.328125,1.5 0.96875,1.5 1.046875,0 2.15625,-1.890625 2.15625,-3.453125 z m -2.34375,0.84375 c 0.359375,-1.5 0.96875,-2.15625 1.375,-2.15625 0.4375,0 0.4375,0.765625 0.4375,0.890625 0,0.28125 -0.046875,0.6875 -0.1875,1.265625 z m 1.5625,0.25 C 2.578125,-1.53125 2.421875,-1.15625 2.203125,-0.8125 2,-0.453125 1.71875,-0.125 1.40625,-0.125 c -0.375,0 -0.4375,-0.53125 -0.4375,-0.90625 0,-0.453125 0.125,-1 0.1875,-1.265625 z m 0,0"
         transform="translate(164.414,136.259)"
         id="path2583" />
    </g>
    <path
       inkscape:connector-curvature="0"
       id="path2591"
       d="m 153.30448,197.84759 1.40168,-0.55979"
       style="opacity:1;fill:none;fill-opacity:0.68333333;stroke:#00be06;stroke-width:0.17;stroke-linecap:square;stroke-miterlimit:4;stroke-dasharray:none;stroke-dashoffset:0;stroke-opacity:1" />
    <path
       style="opacity:1;fill:none;fill-opacity:0.68333333;stroke:#00be06;stroke-width:0.17;stroke-linecap:square;stroke-miterlimit:4;stroke-dasharray:none;stroke-dashoffset:0;stroke-opacity:1"
       d="M 155.33334,198.67082 154.766,197.2878"
       id="path2593"
       inkscape:connector-curvature="0" />
    <rect
       style="opacity:1;fill:none;fill-opacity:1;stroke:none;stroke-width:0.49999994;stroke-linecap:square;stroke-miterlimit:4;stroke-dasharray:none;stroke-dashoffset:0;stroke-opacity:0.33333333"
       id="rect974"
       width="45.735123"
       height="38.0811"
       x="141.64658"
       y="177.18155"
       inkscape:export-xdpi="555.37177"
       inkscape:export-ydpi="555.37177" />
  </g>
</svg>
