<svg width="11.17mm" height="17.2mm" version="1.1" viewBox="0 0 11.17 17.2" xmlns="http://www.w3.org/2000/svg">
 <g transform="translate(-28.94 3.338)">
  <g transform="matrix(.6705 .004642 -.004642 .6705 -806.8 -411.9)" fill="#35d2ee" opacity=".999" stroke="#000" stroke-width=".4565" aria-label="2">
   <path d="m1251 606.3q1.896-5.414 7.62-5.414 3.846 0 6.125 2.37 2.279 2.37 2.279 5.688 0 1.039-0.3828 2.042-0.3646 0.9844-0.7838 1.659-0.4011 0.6745-1.458 1.659-1.039 0.9844-1.604 1.44-0.5469 0.4375-2.005 1.604-1.039 0.8203-6.271 5.487h12.51v3.135h-15.7v-2.99q4.812-4.521 7.255-6.599 2.388-2.023 3.536-3.664 1.167-1.641 1.167-3.701 0-2.206-1.44-3.682-1.44-1.495-3.755-1.495-3.737 0-5.031 4.995z" fill="#35d2ee" stroke="#000" stroke-width=".4565"/>
  </g>
 </g>
</svg>
