<svg width="30.22mm" height="13.88mm" version="1.1" viewBox="0 0 30.22 13.88" xmlns="http://www.w3.org/2000/svg" xmlns:ns1="http://www.iki.fi/pav/software/textext/">
 <defs>
  <clipPath id="a">
   <path d="m149.5 132c0.0695-0.0455 1.568-0.9541 1.568-0.9541l1.899-2e-3 1.219 0.0628s0.2476-0.1866 0.2676-0.2418c0.0199-0.0552 0.048-0.3371 0.0487-0.4094 7.8e-4 -0.0723-0.1545-0.4517-0.2906-0.4938-0.1361-0.042-4.049-0.0124-4.049-0.0124s-0.3639 0.0728-0.5542 0.1669c-0.1903 0.0942-0.7748 0.5436-0.8068 0.5775-0.032 0.0339-0.3911 0.677-0.3946 0.7206-4e-3 0.0436 0.026 0.5793 0.026 0.5793l0.2326 0.4646z" fill="none" stroke="#000" stroke-width=".2646px"/>
  </clipPath>
 </defs>
 <g transform="translate(-36.03 48.68)">
  <g transform="matrix(5.7 -.4627 .4627 5.7 -874.2 -721.1)" clip-path="url(#a)" opacity=".999" stroke-width=".1239" inkscapeversion="0.92.5" ns1:alignment="middle center" ns1:jacobian_sqrt="0.708584" ns1:pdfconverter="pdf2svg" ns1:preamble="C:\\Users\\bbcoo\\AppData\\Roaming\\inkscape\\extensions\\textext\\default_packages.tex" ns1:scale="2.00858589339" ns1:texconverter="pdflatex" ns1:text="$\\pi$" ns1:version="0.11.1">
   <g stroke-width=".1239">
    <g stroke-width=".1239">
     <path transform="translate(148.7 134.8)" d="m2.641-3.719h1.125c-0.3281 1.469-0.4219 1.906-0.4219 2.578 0 0.1406 0 0.4062 0.07812 0.75 0.1094 0.4375 0.2188 0.5 0.3594 0.5 0.2031 0 0.4219-0.1719 0.4219-0.375 0-0.0625 0-0.07812-0.0625-0.2188-0.2969-0.7188-0.2969-1.375-0.2969-1.656 0-0.5156 0.07812-1.062 0.1875-1.578h1.125c0.1406 0 0.5 0 0.5-0.3438 0-0.2344-0.2188-0.2344-0.4062-0.2344h-3.344c-0.2188 0-0.5938 0-1.031 0.4688-0.3438 0.3906-0.6094 0.8438-0.6094 0.8906 0 0.01562 0 0.1094 0.125 0.1094 0.07812 0 0.09375-0.04688 0.1562-0.125 0.4844-0.7656 1.062-0.7656 1.266-0.7656h0.5625c-0.3125 1.203-0.8438 2.406-1.266 3.312-0.07812 0.1562-0.07812 0.1719-0.07812 0.25 0 0.1875 0.1562 0.2656 0.2812 0.2656 0.2969 0 0.375-0.2812 0.5-0.6406 0.1406-0.4688 0.1406-0.4844 0.2656-0.9844z"/>
    </g>
   </g>
  </g>
 </g>
</svg>
