<?xml version="1.0" encoding="UTF-8" standalone="no"?>
<!-- Created with Inkscape (http://www.inkscape.org/) -->

<svg
   xmlns:dc="http://purl.org/dc/elements/1.1/"
   xmlns:cc="http://creativecommons.org/ns#"
   xmlns:rdf="http://www.w3.org/1999/02/22-rdf-syntax-ns#"
   xmlns:svg="http://www.w3.org/2000/svg"
   xmlns="http://www.w3.org/2000/svg"
   xmlns:xlink="http://www.w3.org/1999/xlink"
   xmlns:sodipodi="http://sodipodi.sourceforge.net/DTD/sodipodi-0.dtd"
   xmlns:inkscape="http://www.inkscape.org/namespaces/inkscape"
   width="210mm"
   height="297mm"
   viewBox="0 0 210 297"
   version="1.1"
   id="svg8"
   inkscape:version="0.92.4 (5da689c313, 2019-01-14)"
   sodipodi:docname="InductionElectricity.svg">
  <defs
     id="defs2">
    <linearGradient
       inkscape:collect="always"
       id="linearGradient895">
      <stop
         style="stop-color:#fcf500;stop-opacity:1"
         offset="0"
         id="stop891" />
      <stop
         style="stop-color:#fbf50a;stop-opacity:0.09090909"
         offset="1"
         id="stop893" />
    </linearGradient>
    <radialGradient
       inkscape:collect="always"
       xlink:href="#linearGradient895"
       id="radialGradient899"
       cx="-37.551361"
       cy="197.44211"
       fx="-37.551361"
       fy="197.44211"
       r="18.980986"
       gradientTransform="matrix(1,0,0,1.2111384,15.497024,-59.074522)"
       gradientUnits="userSpaceOnUse" />
  </defs>
  <sodipodi:namedview
     id="base"
     pagecolor="#ffffff"
     bordercolor="#666666"
     borderopacity="1.0"
     inkscape:pageopacity="0.0"
     inkscape:pageshadow="2"
     inkscape:zoom="0.98994949"
     inkscape:cx="193.1832"
     inkscape:cy="544.71783"
     inkscape:document-units="mm"
     inkscape:current-layer="layer1"
     showgrid="false"
     inkscape:snap-global="false"
     inkscape:window-width="1920"
     inkscape:window-height="1017"
     inkscape:window-x="-8"
     inkscape:window-y="-8"
     inkscape:window-maximized="1" />
  <metadata
     id="metadata5">
    <rdf:RDF>
      <cc:Work
         rdf:about="">
        <dc:format>image/svg+xml</dc:format>
        <dc:type
           rdf:resource="http://purl.org/dc/dcmitype/StillImage" />
        <dc:title></dc:title>
      </cc:Work>
    </rdf:RDF>
  </metadata>
  <g
     inkscape:label="Layer 1"
     inkscape:groupmode="layer"
     id="layer1">
    <rect
       style="opacity:1;fill:#e6fffd;fill-opacity:1;stroke:none;stroke-width:0.36500001;stroke-linecap:square;stroke-miterlimit:4;stroke-dasharray:none;stroke-dashoffset:0;stroke-opacity:1"
       id="rect815"
       width="388.55954"
       height="262.31549"
       x="-188.79912"
       y="55.284222" />
    <path
       d="m -27.655046,208.15681 a 12.405659,9.3332796 0 0 1 -5.90623,-12.42127 12.405659,9.3332796 0 0 1 16.503782,-4.45688 12.405659,9.3332796 0 0 1 5.941814,12.41165 12.405659,9.3332796 0 0 1 -16.490971,4.48365"
       sodipodi:open="true"
       sodipodi:end="2.008874"
       sodipodi:start="2.0131862"
       sodipodi:ry="9.3332796"
       sodipodi:rx="12.405659"
       sodipodi:cy="199.72203"
       sodipodi:cx="-22.344177"
       sodipodi:type="arc"
       id="path883"
       style="opacity:1;fill:#dedede;fill-opacity:1;stroke:#000000;stroke-width:0.26499999;stroke-linecap:square;stroke-miterlimit:4;stroke-dasharray:none;stroke-dashoffset:0;stroke-opacity:1" />
    <rect
       style="opacity:1;fill:none;fill-opacity:1;stroke:#000000;stroke-width:0.465;stroke-linecap:square;stroke-miterlimit:4;stroke-dasharray:none;stroke-dashoffset:0;stroke-opacity:1"
       id="rect817"
       width="47.654167"
       height="45.00045"
       x="83.765472"
       y="62.00481"
       ry="8.6934528"
       transform="rotate(24.479876)" />
    <rect
       transform="rotate(24.479876)"
       ry="8.6934528"
       y="91.382286"
       x="97.141335"
       height="45.00045"
       width="47.654167"
       id="rect819"
       style="opacity:1;fill:none;fill-opacity:1;stroke:#000000;stroke-width:0.465;stroke-linecap:square;stroke-miterlimit:4;stroke-dasharray:none;stroke-dashoffset:0;stroke-opacity:1" />
    <path
       style="opacity:1;fill:none;fill-opacity:1;stroke:#000000;stroke-width:0.46499997;stroke-linecap:square;stroke-miterlimit:4;stroke-dasharray:none;stroke-dashoffset:0;stroke-opacity:1"
       d="m 34.544587,128.01884 v 31.27053"
       id="path821"
       inkscape:connector-curvature="0" />
    <path
       style="opacity:1;fill:none;fill-opacity:1;stroke:#000000;stroke-width:0.46499997;stroke-linecap:square;stroke-miterlimit:4;stroke-dasharray:none;stroke-dashoffset:0;stroke-opacity:1"
       d="m 91.07209,114.85581 v 32.2728"
       id="path823"
       inkscape:connector-curvature="0" />
    <path
       style="opacity:0.97982471;fill:none;fill-opacity:1;stroke:#ffd366;stroke-width:0.46499997;stroke-linecap:square;stroke-miterlimit:4;stroke-dasharray:none;stroke-dashoffset:0;stroke-opacity:1"
       d="m 34.11235,134.37574 c 0,0 -2.267857,3.40179 3.96875,5.85863 6.236608,2.45685 29.576638,12.90789 29.576638,12.90789 0,0 8.220981,3.96876 12.18973,-2.92931 5.060033,-8.79482 11.811757,-25.85358 11.811757,-25.85358 0,0 0.661458,-2.55133 -0.472472,-4.25222"
       id="path825"
       inkscape:connector-curvature="0"
       sodipodi:nodetypes="cccscc" />
    <path
       sodipodi:nodetypes="cccscc"
       inkscape:connector-curvature="0"
       id="path827"
       d="m 34.11235,135.43408 c 0,0 -2.267857,3.40179 3.96875,5.85863 6.236608,2.45685 29.576638,12.90789 29.576638,12.90789 0,0 8.220981,3.96876 12.18973,-2.92931 5.060033,-8.79482 11.811757,-25.85358 11.811757,-25.85358 0,0 0.661458,-2.55133 -0.472472,-4.25222"
       style="opacity:0.98617386;fill:none;fill-opacity:1;stroke:#ffcb68;stroke-width:0.46499997;stroke-linecap:square;stroke-miterlimit:4;stroke-dasharray:none;stroke-dashoffset:0;stroke-opacity:1" />
    <path
       style="opacity:0.95496982;fill:none;fill-opacity:1;stroke:#ffd168;stroke-width:0.46499997;stroke-linecap:square;stroke-miterlimit:4;stroke-dasharray:none;stroke-dashoffset:0;stroke-opacity:1"
       d="m 34.11235,136.49242 c 0,0 -2.267857,3.40179 3.96875,5.85863 6.236608,2.45685 29.576638,12.90789 29.576638,12.90789 0,0 8.220981,3.96876 12.18973,-2.92931 5.060033,-8.79482 11.811757,-25.85358 11.811757,-25.85358 0,0 0.661458,-2.55133 -0.472472,-4.25222"
       id="path829"
       inkscape:connector-curvature="0"
       sodipodi:nodetypes="cccscc" />
    <path
       sodipodi:nodetypes="cccscc"
       inkscape:connector-curvature="0"
       id="path831"
       d="m 34.11235,137.55076 c 0,0 -2.267857,3.40179 3.96875,5.85863 6.236608,2.45685 29.576638,12.90789 29.576638,12.90789 0,0 8.220981,3.96876 12.18973,-2.92931 5.060033,-8.79482 11.811757,-25.85358 11.811757,-25.85358 0,0 0.661458,-2.55133 -0.472472,-4.25222"
       style="opacity:0.96178882;fill:none;fill-opacity:1;stroke:#ffd467;stroke-width:0.46499997;stroke-linecap:square;stroke-miterlimit:4;stroke-dasharray:none;stroke-dashoffset:0;stroke-opacity:1" />
    <path
       style="opacity:0.98698539;fill:none;fill-opacity:1;stroke:#ffca68;stroke-width:0.46499997;stroke-linecap:square;stroke-miterlimit:4;stroke-dasharray:none;stroke-dashoffset:0;stroke-opacity:1"
       d="m 34.11235,138.6091 c 0,0 -2.267857,3.40179 3.96875,5.85863 6.236608,2.45685 29.576638,12.90789 29.576638,12.90789 0,0 8.220981,3.96876 12.18973,-2.92931 5.060033,-8.79482 11.811757,-25.85358 11.811757,-25.85358 0,0 0.661458,-2.55133 -0.472472,-4.25222"
       id="path833"
       inkscape:connector-curvature="0"
       sodipodi:nodetypes="cccscc" />
    <path
       sodipodi:nodetypes="cccscc"
       inkscape:connector-curvature="0"
       id="path835"
       d="m 34.11235,139.66744 c 0,0 -2.267857,3.40179 3.96875,5.85863 6.236608,2.45685 29.576638,12.90789 29.576638,12.90789 0,0 8.220981,3.96876 12.18973,-2.92931 5.060033,-8.79482 11.811757,-25.85358 11.811757,-25.85358 0,0 0.661458,-2.55133 -0.472472,-4.25222"
       style="opacity:0.98594342;fill:none;fill-opacity:1;stroke:#ffd269;stroke-width:0.46499997;stroke-linecap:square;stroke-miterlimit:4;stroke-dasharray:none;stroke-dashoffset:0;stroke-opacity:1" />
    <path
       style="opacity:0.97457485;fill:none;fill-opacity:1;stroke:#ffce69;stroke-width:0.46499997;stroke-linecap:square;stroke-miterlimit:4;stroke-dasharray:none;stroke-dashoffset:0;stroke-opacity:1"
       d="m 34.11235,140.72578 c 0,0 -2.267857,3.40179 3.96875,5.85863 6.236608,2.45685 29.576638,12.90789 29.576638,12.90789 0,0 8.220981,3.96876 12.18973,-2.92931 5.060033,-8.79482 11.811757,-25.85358 11.811757,-25.85358 0,0 0.661458,-2.55133 -0.472472,-4.25222"
       id="path837"
       inkscape:connector-curvature="0"
       sodipodi:nodetypes="cccscc" />
    <path
       sodipodi:nodetypes="cccscc"
       inkscape:connector-curvature="0"
       id="path839"
       d="m 34.11235,141.78412 c 0,0 -2.267857,3.40179 3.96875,5.85863 6.236608,2.45685 29.576638,12.90789 29.576638,12.90789 0,0 8.220981,3.96876 12.18973,-2.92931 5.060033,-8.79482 11.811757,-25.85358 11.811757,-25.85358 0,0 0.661458,-2.55133 -0.472472,-4.25222"
       style="opacity:0.96285406;fill:none;fill-opacity:1;stroke:#ffcd66;stroke-width:0.46499997;stroke-linecap:square;stroke-miterlimit:4;stroke-dasharray:none;stroke-dashoffset:0;stroke-opacity:1" />
    <path
       style="opacity:0.98969056;fill:none;fill-opacity:1;stroke:#ffd067;stroke-width:0.46499997;stroke-linecap:square;stroke-miterlimit:4;stroke-dasharray:none;stroke-dashoffset:0;stroke-opacity:1"
       d="m 34.11235,142.84246 c 0,0 -2.267857,3.40179 3.96875,5.85863 6.236608,2.45685 29.576638,12.90789 29.576638,12.90789 0,0 8.220981,3.96876 12.18973,-2.92931 5.060033,-8.79482 11.811757,-25.85358 11.811757,-25.85358 0,0 0.661458,-2.55133 -0.472472,-4.25222"
       id="path841"
       inkscape:connector-curvature="0"
       sodipodi:nodetypes="cccscc" />
    <path
       sodipodi:nodetypes="cccscc"
       inkscape:connector-curvature="0"
       id="path843"
       d="m 34.11235,143.9008 c 0,0 -2.267857,3.40179 3.96875,5.85863 6.236608,2.45685 29.576638,12.90789 29.576638,12.90789 0,0 8.220981,3.96876 12.18973,-2.92931 5.060033,-8.79482 11.811757,-25.85358 11.811757,-25.85358 0,0 0.661458,-2.55133 -0.472472,-4.25222"
       style="opacity:0.96011706;fill:none;fill-opacity:1;stroke:#ffcb64;stroke-width:0.46499997;stroke-linecap:square;stroke-miterlimit:4;stroke-dasharray:none;stroke-dashoffset:0;stroke-opacity:1" />
    <path
       style="opacity:0.98544796;fill:none;fill-opacity:1;stroke:#ffce66;stroke-width:0.46499997;stroke-linecap:square;stroke-miterlimit:4;stroke-dasharray:none;stroke-dashoffset:0;stroke-opacity:1"
       d="m 34.11235,144.95914 c 0,0 -2.267857,3.40179 3.96875,5.85863 6.236608,2.45685 29.576638,12.90789 29.576638,12.90789 0,0 8.220981,3.96876 12.18973,-2.92931 5.060033,-8.79482 11.811757,-25.85358 11.811757,-25.85358 0,0 0.661458,-2.55133 -0.472472,-4.25222"
       id="path845"
       inkscape:connector-curvature="0"
       sodipodi:nodetypes="cccscc" />
    <path
       sodipodi:nodetypes="cccscc"
       inkscape:connector-curvature="0"
       id="path847"
       d="m 34.11235,146.01748 c 0,0 -2.267857,3.40179 3.96875,5.85863 6.236608,2.45685 29.576638,12.90789 29.576638,12.90789 0,0 8.220981,3.96876 12.18973,-2.92931 5.060033,-8.79482 11.811757,-25.85358 11.811757,-25.85358 0,0 0.661458,-2.55133 -0.472472,-4.25222"
       style="opacity:0.98427549;fill:none;fill-opacity:1;stroke:#ffd16a;stroke-width:0.46499997;stroke-linecap:square;stroke-miterlimit:4;stroke-dasharray:none;stroke-dashoffset:0;stroke-opacity:1" />
    <path
       style="opacity:0.95530916;fill:none;fill-opacity:1;stroke:#ffda69;stroke-width:0.46499997;stroke-linecap:square;stroke-miterlimit:4;stroke-dasharray:none;stroke-dashoffset:0;stroke-opacity:1"
       d="m 34.11235,147.07582 c 0,0 -2.267857,3.40179 3.96875,5.85863 6.236608,2.45685 29.576638,12.90789 29.576638,12.90789 0,0 8.220981,3.96876 12.18973,-2.92931 5.060033,-8.79482 11.811757,-25.85358 11.811757,-25.85358 0,0 0.661458,-2.55133 -0.472472,-4.25222"
       id="path849"
       inkscape:connector-curvature="0"
       sodipodi:nodetypes="cccscc" />
    <path
       sodipodi:nodetypes="cccscc"
       inkscape:connector-curvature="0"
       id="path851"
       d="m 34.11235,148.13416 c 0,0 -2.267857,3.40179 3.96875,5.85863 6.236608,2.45685 29.576638,12.90789 29.576638,12.90789 0,0 8.220981,3.96876 12.18973,-2.92931 5.060033,-8.79482 11.811757,-25.85358 11.811757,-25.85358 0,0 0.661458,-2.55133 -0.472472,-4.25222"
       style="opacity:0.98116922;fill:none;fill-opacity:1;stroke:#ffd36a;stroke-width:0.46499997;stroke-linecap:square;stroke-miterlimit:4;stroke-dasharray:none;stroke-dashoffset:0;stroke-opacity:1" />
    <path
       style="opacity:0.99034759;fill:none;fill-opacity:1;stroke:#ffcb67;stroke-width:0.46499997;stroke-linecap:square;stroke-miterlimit:4;stroke-dasharray:none;stroke-dashoffset:0;stroke-opacity:1"
       d="m 34.11235,149.1925 c 0,0 -2.267857,3.40179 3.96875,5.85863 6.236608,2.45685 29.576638,12.90789 29.576638,12.90789 0,0 8.220981,3.96876 12.18973,-2.92931 5.060033,-8.79482 11.811757,-25.85358 11.811757,-25.85358 0,0 0.661458,-2.55133 -0.472472,-4.25222"
       id="path853"
       inkscape:connector-curvature="0"
       sodipodi:nodetypes="cccscc" />
    <path
       sodipodi:nodetypes="cccscc"
       inkscape:connector-curvature="0"
       id="path855"
       d="m 34.11235,150.25084 c 0,0 -2.267857,3.40179 3.96875,5.85863 6.236608,2.45685 29.576638,12.90789 29.576638,12.90789 0,0 8.220981,3.96876 12.18973,-2.92931 5.060033,-8.79482 11.811757,-25.85358 11.811757,-25.85358 0,0 0.661458,-2.55133 -0.472472,-4.25222"
       style="opacity:0.94901069;fill:none;fill-opacity:1;stroke:#ffd666;stroke-width:0.46499997;stroke-linecap:square;stroke-miterlimit:4;stroke-dasharray:none;stroke-dashoffset:0;stroke-opacity:1" />
    <path
       style="opacity:0.98453956;fill:none;fill-opacity:1;stroke:#ffd066;stroke-width:0.46499997;stroke-linecap:square;stroke-miterlimit:4;stroke-dasharray:none;stroke-dashoffset:0;stroke-opacity:1"
       d="m 34.11235,151.30918 c 0,0 -2.267857,3.40179 3.96875,5.85863 6.236608,2.45685 29.576638,12.90789 29.576638,12.90789 0,0 8.220981,3.96876 12.18973,-2.92931 5.060033,-8.79482 11.811757,-25.85358 11.811757,-25.85358 0,0 0.661458,-2.55133 -0.472472,-4.25222"
       id="path857"
       inkscape:connector-curvature="0"
       sodipodi:nodetypes="cccscc" />
    <path
       sodipodi:nodetypes="cccscc"
       inkscape:connector-curvature="0"
       id="path859"
       d="m 34.11235,152.36752 c 0,0 -2.267857,3.40179 3.96875,5.85863 6.236608,2.45685 29.576638,12.90789 29.576638,12.90789 0,0 8.220981,3.96876 12.18973,-2.92931 5.060033,-8.79482 11.811757,-25.85358 11.811757,-25.85358 0,0 0.661458,-2.55133 -0.472472,-4.25222"
       style="opacity:0.98650333;fill:none;fill-opacity:1;stroke:#ffce67;stroke-width:0.46499997;stroke-linecap:square;stroke-miterlimit:4;stroke-dasharray:none;stroke-dashoffset:0;stroke-opacity:1" />
    <path
       style="opacity:0.99105081;fill:none;fill-opacity:1;stroke:#ffd267;stroke-width:0.46499997;stroke-linecap:square;stroke-miterlimit:4;stroke-dasharray:none;stroke-dashoffset:0;stroke-opacity:1"
       d="m 34.11235,153.42586 c 0,0 -2.267857,3.40179 3.96875,5.85863 6.236608,2.45685 29.576638,12.90789 29.576638,12.90789 0,0 8.220981,3.96876 12.18973,-2.92931 5.060033,-8.79482 11.811757,-25.85358 11.811757,-25.85358 0,0 0.661458,-2.55133 -0.472472,-4.25222"
       id="path861"
       inkscape:connector-curvature="0"
       sodipodi:nodetypes="cccscc" />
    <path
       sodipodi:nodetypes="cccscc"
       inkscape:connector-curvature="0"
       id="path863"
       d="m 34.11235,154.4842 c 0,0 -2.267857,3.40179 3.96875,5.85863 6.236608,2.45685 29.576638,12.90789 29.576638,12.90789 0,0 8.220981,3.96876 12.18973,-2.92931 5.060033,-8.79482 11.811757,-25.85358 11.811757,-25.85358 0,0 0.661458,-2.55133 -0.472472,-4.25222"
       style="opacity:0.99519935;fill:none;fill-opacity:1;stroke:#ffcd68;stroke-width:0.46499997;stroke-linecap:square;stroke-miterlimit:4;stroke-dasharray:none;stroke-dashoffset:0;stroke-opacity:1" />
    <path
       style="opacity:0.98918283;fill:none;fill-opacity:1;stroke:#ffd069;stroke-width:0.46499997;stroke-linecap:square;stroke-miterlimit:4;stroke-dasharray:none;stroke-dashoffset:0;stroke-opacity:1"
       d="m 34.11235,155.54254 c 0,0 -2.267857,3.40179 3.96875,5.85863 6.236608,2.45685 29.576638,12.90789 29.576638,12.90789 0,0 8.220981,3.96876 12.18973,-2.92931 5.060033,-8.79482 11.811757,-25.85358 11.811757,-25.85358 0,0 0.661458,-2.55133 -0.472472,-4.25222"
       id="path865"
       inkscape:connector-curvature="0"
       sodipodi:nodetypes="cccscc" />
    <path
       style="opacity:1;fill:url(#radialGradient899);fill-opacity:1;stroke:#000000;stroke-width:0.26499999;stroke-linecap:square;stroke-miterlimit:4;stroke-dasharray:none;stroke-dashoffset:0;stroke-opacity:1"
       id="path881"
       sodipodi:type="arc"
       sodipodi:cx="-22.054344"
       sodipodi:cy="180.05519"
       sodipodi:rx="18.842501"
       sodipodi:ry="22.851543"
       sodipodi:start="2.0149906"
       sodipodi:end="2.008874"
       sodipodi:open="true"
       d="m -30.151541,200.68916 a 18.842501,22.851543 0 0 1 -8.929137,-30.42241 18.842501,22.851543 0 0 1 25.071459,-10.87546 18.842501,22.851543 0 0 1 9.0058129,30.38915 18.842501,22.851543 0 0 1 -25.0439169,10.9684" />
    <path
       style="opacity:1;fill:none;fill-opacity:1;stroke:#000000;stroke-width:0.26499999;stroke-linecap:square;stroke-miterlimit:4;stroke-dasharray:none;stroke-dashoffset:0;stroke-opacity:1"
       id="path885"
       sodipodi:type="arc"
       sodipodi:cx="-22.444403"
       sodipodi:cy="204.93379"
       sodipodi:rx="12.405659"
       sodipodi:ry="9.3332796"
       sodipodi:start="2.0089175"
       sodipodi:end="2.008874"
       sodipodi:open="true"
       d="m -27.707365,213.38555 a 12.405659,9.3332796 0 0 1 -5.971043,-12.41121 12.405659,9.3332796 0 0 1 16.496723,-4.49239 12.405659,9.3332796 0 0 1 5.971402,12.41111 12.405659,9.3332796 0 0 1 -16.496593,4.49266" />
    <path
       style="opacity:1;fill:none;fill-opacity:1;stroke:#000000;stroke-width:0.26499999;stroke-linecap:square;stroke-miterlimit:4;stroke-dasharray:none;stroke-dashoffset:0;stroke-opacity:1"
       d="m -34.821055,205.10454 v -5.95312"
       id="path887"
       inkscape:connector-curvature="0" />
    <path
       style="opacity:1;fill:none;fill-opacity:1;stroke:#000000;stroke-width:0.26499999;stroke-linecap:square;stroke-miterlimit:4;stroke-dasharray:none;stroke-dashoffset:0;stroke-opacity:1"
       d="m -9.9218752,205.34078 v -5.48066"
       id="path889"
       inkscape:connector-curvature="0" />
    <rect
       transform="matrix(0.91017531,0.41422325,-0.414524,0.91003838,0,0)"
       ry="2.6713283"
       y="37.154346"
       x="140.45715"
       height="13.82776"
       width="14.647408"
       id="rect901"
       style="opacity:1;fill:none;fill-opacity:1;stroke:#000000;stroke-width:0.46500001;stroke-linecap:square;stroke-miterlimit:4;stroke-dasharray:none;stroke-dashoffset:0;stroke-opacity:1" />
    <rect
       style="opacity:1;fill:none;fill-opacity:1;stroke:#000000;stroke-width:0.46500003;stroke-linecap:square;stroke-miterlimit:4;stroke-dasharray:none;stroke-dashoffset:0;stroke-opacity:1"
       id="rect903"
       width="14.647408"
       height="13.82776"
       x="146.8185"
       y="51.121788"
       ry="2.6713283"
       transform="matrix(0.91017531,0.41422325,-0.414524,0.91003838,0,0)" />
    <rect
       transform="matrix(0.91017531,0.41422325,-0.414524,0.91003838,0,0)"
       ry="2.6713283"
       y="65.089233"
       x="153.17984"
       height="13.82776"
       width="14.647408"
       id="rect905"
       style="opacity:1;fill:none;fill-opacity:1;stroke:#000000;stroke-width:0.46500003;stroke-linecap:square;stroke-miterlimit:4;stroke-dasharray:none;stroke-dashoffset:0;stroke-opacity:1" />
    <path
       style="opacity:1;fill:#dedede;fill-opacity:1;stroke:#000000;stroke-width:0.465;stroke-linecap:square;stroke-miterlimit:4;stroke-dasharray:none;stroke-dashoffset:0;stroke-opacity:1"
       d="M 124.83108,130.05103 V 98.780504"
       id="path907"
       inkscape:connector-curvature="0" />
    <path
       style="opacity:1;fill:#dedede;fill-opacity:1;stroke:#000000;stroke-width:0.465;stroke-linecap:square;stroke-miterlimit:4;stroke-dasharray:none;stroke-dashoffset:0;stroke-opacity:1"
       d="M 107.57598,134.63376 V 103.76413"
       id="path909"
       inkscape:connector-curvature="0" />
    <path
       inkscape:connector-curvature="0"
       id="path911"
       d="m 119.15161,140.3409 0.13363,-30.46872"
       style="opacity:1;fill:#dedede;fill-opacity:1;stroke:#000000;stroke-width:0.465;stroke-linecap:square;stroke-miterlimit:4;stroke-dasharray:none;stroke-dashoffset:0;stroke-opacity:1"
       sodipodi:nodetypes="cc" />
  </g>
</svg>
