<?xml version="1.0" encoding="UTF-8" standalone="no"?>
<!-- Created with Inkscape (http://www.inkscape.org/) -->

<svg
   xmlns:ns1="http://www.iki.fi/pav/software/textext/"
   xmlns:dc="http://purl.org/dc/elements/1.1/"
   xmlns:cc="http://creativecommons.org/ns#"
   xmlns:rdf="http://www.w3.org/1999/02/22-rdf-syntax-ns#"
   xmlns:svg="http://www.w3.org/2000/svg"
   xmlns="http://www.w3.org/2000/svg"
   xmlns:sodipodi="http://sodipodi.sourceforge.net/DTD/sodipodi-0.dtd"
   xmlns:inkscape="http://www.inkscape.org/namespaces/inkscape"
   width="210mm"
   height="297mm"
   viewBox="0 0 210 297"
   version="1.1"
   id="svg8"
   inkscape:version="0.92.5 (2060ec1f9f, 2020-04-08)"
   sodipodi:docname="SinCosPhase.svg">
  <defs
     id="defs2" />
  <sodipodi:namedview
     id="base"
     pagecolor="#ffffff"
     bordercolor="#666666"
     borderopacity="1.0"
     inkscape:pageopacity="0.0"
     inkscape:pageshadow="2"
     inkscape:zoom="0.7"
     inkscape:cx="256.55626"
     inkscape:cy="196.6129"
     inkscape:document-units="mm"
     inkscape:current-layer="layer1"
     showgrid="false"
     inkscape:snap-global="false"
     inkscape:window-width="1920"
     inkscape:window-height="1017"
     inkscape:window-x="-8"
     inkscape:window-y="-8"
     inkscape:window-maximized="1" />
  <metadata
     id="metadata5">
    <rdf:RDF>
      <cc:Work
         rdf:about="">
        <dc:format>image/svg+xml</dc:format>
        <dc:type
           rdf:resource="http://purl.org/dc/dcmitype/StillImage" />
        <dc:title />
      </cc:Work>
    </rdf:RDF>
  </metadata>
  <g
     inkscape:label="Layer 1"
     inkscape:groupmode="layer"
     id="layer1">
    <path
       style="opacity:1;fill:none;fill-opacity:1;stroke:#0b000f;stroke-width:0.66499996;stroke-linecap:square;stroke-miterlimit:4;stroke-dasharray:none;stroke-dashoffset:0;stroke-opacity:1"
       id="path826"
       sodipodi:type="arc"
       sodipodi:cx="114.14878"
       sodipodi:cy="145.05388"
       sodipodi:rx="109.9907"
       sodipodi:ry="109.9907"
       sodipodi:start="6.2828629"
       sodipodi:end="6.2734899"
       d="M 224.13947,145.01842 A 109.9907,109.9907 0 0 1 114.44198,255.04419 109.9907,109.9907 0 0 1 4.1594608,145.60481 109.9907,109.9907 0 0 1 113.34012,35.066152 109.9907,109.9907 0 0 1 224.13431,143.98749"
       sodipodi:open="true"
       inkscape:export-xdpi="102.71435"
       inkscape:export-ydpi="102.71435" />
    <path
       style="opacity:1;fill:none;fill-opacity:1;stroke:#0b000f;stroke-width:0.565;stroke-linecap:square;stroke-miterlimit:4;stroke-dasharray:none;stroke-dashoffset:0;stroke-opacity:0.60606062"
       d="M -1.8493972,144.3891 H 229.606"
       id="path828"
       inkscape:connector-curvature="0"
       inkscape:export-xdpi="102.71435"
       inkscape:export-ydpi="102.71435" />
    <path
       style="opacity:1;fill:none;fill-opacity:1;stroke:#0b000f;stroke-width:0.565;stroke-linecap:square;stroke-miterlimit:4;stroke-dasharray:none;stroke-dashoffset:0;stroke-opacity:0.60606061"
       d="m 114.92589,136.63828 0,-106.37327"
       id="path830"
       inkscape:connector-curvature="0"
       sodipodi:nodetypes="cc"
       inkscape:export-xdpi="102.71435"
       inkscape:export-ydpi="102.71435" />
    <path
       style="opacity:1;fill:none;fill-opacity:1;stroke:#0b000f;stroke-width:0.66500002;stroke-linecap:square;stroke-miterlimit:4;stroke-dasharray:none;stroke-dashoffset:0;stroke-opacity:0.45959598"
       d="M 115.25802,144.07319 218.53801,110.79007"
       id="path832"
       inkscape:connector-curvature="0"
       sodipodi:nodetypes="cc"
       inkscape:export-xdpi="102.71435"
       inkscape:export-ydpi="102.71435" />
    <path
       sodipodi:nodetypes="cc"
       inkscape:connector-curvature="0"
       id="path834"
       d="M 114.70096,143.69182 81.417852,40.411832"
       style="opacity:1;fill:none;fill-opacity:1;stroke:#0b000f;stroke-width:0.66500002;stroke-linecap:square;stroke-miterlimit:4;stroke-dasharray:none;stroke-dashoffset:0;stroke-opacity:0.45959598"
       inkscape:export-xdpi="102.71435"
       inkscape:export-ydpi="102.71435" />
    <path
       style="opacity:1;fill:none;fill-opacity:1;stroke:#00cb50;stroke-width:0.66500002;stroke-linecap:square;stroke-miterlimit:4;stroke-dasharray:none;stroke-dashoffset:0;stroke-opacity:1"
       id="path840"
       sodipodi:type="arc"
       sodipodi:cx="114.00508"
       sodipodi:cy="145.11292"
       sodipodi:rx="26.997478"
       sodipodi:ry="24.992767"
       sodipodi:start="5.9473185"
       sodipodi:end="6.2322999"
       sodipodi:open="true"
       d="m 139.49407,136.87561 a 26.997478,24.992767 0 0 1 1.47354,6.96609"
       inkscape:export-xdpi="102.71435"
       inkscape:export-ydpi="102.71435" />
    <path
       style="opacity:1;fill:none;fill-opacity:1;stroke:#00cb50;stroke-width:0.66500002;stroke-linecap:square;stroke-miterlimit:4;stroke-dasharray:none;stroke-dashoffset:0;stroke-opacity:1"
       d="m 121.1967,141.48272 -1.95962,-5.62135 -5.71058,1.99073"
       id="path846"
       inkscape:connector-curvature="0"
       inkscape:export-xdpi="102.71435"
       inkscape:export-ydpi="102.71435" />
    <path
       sodipodi:nodetypes="cc"
       inkscape:connector-curvature="0"
       id="path848"
       d="M 114.92589,254.77141 V 144.65637"
       style="opacity:1;fill:none;fill-opacity:1;stroke:#0b000f;stroke-width:0.565;stroke-linecap:square;stroke-miterlimit:4;stroke-dasharray:none;stroke-dashoffset:0;stroke-opacity:0.60606061"
       inkscape:export-xdpi="102.71435"
       inkscape:export-ydpi="102.71435" />
    <circle
       style="opacity:1;fill:#0041d6;fill-opacity:1;stroke:#000000;stroke-width:0.465;stroke-linecap:square;stroke-miterlimit:4;stroke-dasharray:none;stroke-dashoffset:0;stroke-opacity:1"
       id="path850"
       cx="218.62648"
       cy="110.71313"
       r="1.4699824"
       inkscape:export-xdpi="102.71435"
       inkscape:export-ydpi="102.71435" />
    <circle
       r="1.4699824"
       cy="39.753067"
       cx="81.11631"
       id="circle852"
       style="opacity:1;fill:#0041d6;fill-opacity:1;stroke:#000000;stroke-width:0.465;stroke-linecap:square;stroke-miterlimit:4;stroke-dasharray:none;stroke-dashoffset:0;stroke-opacity:1"
       inkscape:export-xdpi="102.71435"
       inkscape:export-ydpi="102.71435" />
    <g
       id="g1117"
       transform="matrix(1.4831781,0,0,1.4831781,-141.34471,32.97159)"
       style="stroke-width:0.67422789"
       inkscape:export-xdpi="102.71435"
       inkscape:export-ydpi="102.71435">
      <g
         transform="matrix(0.706356,0,0,0.706356,120.87614,-45.692307)"
         style="fill:#000000;fill-opacity:1;stroke-width:0.67422789"
         id="g921">
        <path
           inkscape:connector-curvature="0"
           style="stroke:none;stroke-width:0"
           d="m 3.296875,2.390625 c 0,-0.03125 0,-0.046875 -0.171875,-0.21875 C 1.890625,0.921875 1.5625,-0.96875 1.5625,-2.5 c 0,-1.734375 0.375,-3.46875 1.609375,-4.703125 0.125,-0.125 0.125,-0.140625 0.125,-0.171875 0,-0.078125 -0.03125,-0.109375 -0.09375,-0.109375 -0.109375,0 -1,0.6875 -1.59375,1.953125 -0.5,1.09375 -0.625,2.203125 -0.625,3.03125 0,0.78125 0.109375,1.984375 0.65625,3.125 C 2.25,1.84375 3.09375,2.5 3.203125,2.5 c 0.0625,0 0.09375,-0.03125 0.09375,-0.109375 z m 0,0"
           transform="translate(173.951,134.765)"
           id="path919" />
      </g>
      <g
         transform="matrix(0.706356,0,0,0.706356,120.87614,-45.692307)"
         style="fill:#000000;fill-opacity:1;stroke-width:0.67422789"
         id="g925">
        <path
           inkscape:connector-curvature="0"
           style="stroke:none;stroke-width:0"
           d="M 3.328125,-3.015625 C 3.390625,-3.265625 3.625,-4.1875 4.3125,-4.1875 c 0.046875,0 0.296875,0 0.5,0.125 C 4.53125,-4 4.34375,-3.765625 4.34375,-3.515625 c 0,0.15625 0.109375,0.34375 0.375,0.34375 0.21875,0 0.53125,-0.171875 0.53125,-0.578125 0,-0.515625 -0.578125,-0.65625 -0.921875,-0.65625 -0.578125,0 -0.921875,0.53125 -1.046875,0.75 -0.25,-0.65625 -0.78125,-0.75 -1.078125,-0.75 -1.03125,0 -1.609375,1.28125 -1.609375,1.53125 0,0.109375 0.109375,0.109375 0.125,0.109375 0.078125,0 0.109375,-0.03125 0.125,-0.109375 0.34375,-1.0625 1,-1.3125 1.34375,-1.3125 0.1875,0 0.53125,0.09375 0.53125,0.671875 0,0.3125 -0.171875,0.96875 -0.53125,2.375 -0.15625,0.609375 -0.515625,1.03125 -0.953125,1.03125 -0.0625,0 -0.28125,0 -0.5,-0.125 0.25,-0.0625 0.46875,-0.265625 0.46875,-0.546875 0,-0.265625 -0.21875,-0.34375 -0.359375,-0.34375 -0.3125,0 -0.546875,0.25 -0.546875,0.578125 0,0.453125 0.484375,0.65625 0.921875,0.65625 0.671875,0 1.03125,-0.703125 1.046875,-0.75 0.125,0.359375 0.484375,0.75 1.078125,0.75 1.03125,0 1.59375,-1.28125 1.59375,-1.53125 0,-0.109375 -0.078125,-0.109375 -0.109375,-0.109375 -0.09375,0 -0.109375,0.046875 -0.140625,0.109375 -0.328125,1.078125 -1,1.3125 -1.3125,1.3125 -0.390625,0 -0.546875,-0.3125 -0.546875,-0.65625 0,-0.21875 0.046875,-0.4375 0.15625,-0.875 z m 0,0"
           transform="translate(177.825,134.765)"
           id="path923" />
      </g>
      <g
         transform="matrix(0.706356,0,0,0.706356,120.87614,-45.692307)"
         style="fill:#000000;fill-opacity:1;stroke-width:0.67422789"
         id="g929">
        <path
           inkscape:connector-curvature="0"
           style="stroke:none;stroke-width:0"
           d="m 2.328125,-4.4375 c 0,-0.1875 0,-0.1875 -0.203125,-0.1875 -0.453125,0.4375 -1.078125,0.4375 -1.359375,0.4375 v 0.25 c 0.15625,0 0.625,0 1,-0.1875 v 3.546875 c 0,0.234375 0,0.328125 -0.6875,0.328125 H 0.8125 V 0 c 0.125,0 0.984375,-0.03125 1.234375,-0.03125 0.21875,0 1.09375,0.03125 1.25,0.03125 V -0.25 H 3.03125 c -0.703125,0 -0.703125,-0.09375 -0.703125,-0.328125 z m 0,0"
           transform="translate(183.519,136.259)"
           id="path927" />
      </g>
      <g
         transform="matrix(0.706356,0,0,0.706356,120.87614,-45.692307)"
         style="fill:#000000;fill-opacity:1;stroke-width:0.67422789"
         id="g933">
        <path
           inkscape:connector-curvature="0"
           style="stroke:none;stroke-width:0"
           d="m 2.03125,-0.015625 c 0,-0.65625 -0.25,-1.046875 -0.640625,-1.046875 -0.328125,0 -0.53125,0.25 -0.53125,0.53125 C 0.859375,-0.265625 1.0625,0 1.390625,0 1.5,0 1.640625,-0.046875 1.734375,-0.125 1.765625,-0.15625 1.78125,-0.15625 1.78125,-0.15625 c 0.015625,0 0.015625,0 0.015625,0.140625 0,0.75 -0.34375,1.34375 -0.671875,1.671875 -0.109375,0.109375 -0.109375,0.125 -0.109375,0.15625 0,0.078125 0.046875,0.109375 0.09375,0.109375 0.109375,0 0.921875,-0.765625 0.921875,-1.9375 z m 0,0"
           transform="translate(187.989,134.765)"
           id="path931" />
      </g>
      <g
         transform="matrix(0.706356,0,0,0.706356,120.87614,-45.692307)"
         style="fill:#000000;fill-opacity:1;stroke-width:0.67422789"
         id="g937">
        <path
           inkscape:connector-curvature="0"
           style="stroke:none;stroke-width:0"
           d="m 4.84375,-3.796875 c 0.046875,-0.140625 0.046875,-0.15625 0.046875,-0.234375 0,-0.171875 -0.140625,-0.265625 -0.296875,-0.265625 -0.09375,0 -0.25,0.0625 -0.34375,0.203125 -0.015625,0.0625 -0.109375,0.359375 -0.140625,0.546875 -0.078125,0.25 -0.140625,0.53125 -0.203125,0.796875 l -0.453125,1.796875 c -0.03125,0.140625 -0.46875,0.84375 -1.125,0.84375 -0.5,0 -0.609375,-0.4375 -0.609375,-0.8125 C 1.71875,-1.375 1.890625,-2 2.21875,-2.875 2.375,-3.28125 2.421875,-3.390625 2.421875,-3.59375 c 0,-0.4375 -0.3125,-0.8125 -0.8125,-0.8125 -0.953125,0 -1.3125,1.453125 -1.3125,1.53125 0,0.109375 0.09375,0.109375 0.109375,0.109375 0.109375,0 0.109375,-0.03125 0.15625,-0.1875 0.28125,-0.9375 0.671875,-1.234375 1.015625,-1.234375 0.078125,0 0.25,0 0.25,0.3125 0,0.25 -0.109375,0.515625 -0.171875,0.703125 -0.40625,1.0625 -0.578125,1.625 -0.578125,2.09375 0,0.890625 0.625,1.1875 1.21875,1.1875 0.390625,0 0.71875,-0.171875 1,-0.453125 -0.125,0.515625 -0.25,1.015625 -0.640625,1.546875 -0.265625,0.328125 -0.640625,0.625 -1.09375,0.625 -0.140625,0 -0.59375,-0.03125 -0.765625,-0.421875 0.15625,0 0.296875,0 0.421875,-0.125 C 1.328125,1.203125 1.421875,1.0625 1.421875,0.875 1.421875,0.5625 1.15625,0.53125 1.0625,0.53125 0.828125,0.53125 0.5,0.6875 0.5,1.171875 c 0,0.5 0.4375,0.875 1.0625,0.875 1.015625,0 2.046875,-0.90625 2.328125,-2.03125 z m 0,0"
           transform="translate(192.42036,134.765)"
           id="path935" />
      </g>
      <g
         transform="matrix(0.706356,0,0,0.706356,120.87614,-45.692307)"
         style="fill:#000000;fill-opacity:1;stroke-width:0.67422789"
         id="g941">
        <path
           inkscape:connector-curvature="0"
           style="stroke:none;stroke-width:0"
           d="m 2.328125,-4.4375 c 0,-0.1875 0,-0.1875 -0.203125,-0.1875 -0.453125,0.4375 -1.078125,0.4375 -1.359375,0.4375 v 0.25 c 0.15625,0 0.625,0 1,-0.1875 v 3.546875 c 0,0.234375 0,0.328125 -0.6875,0.328125 H 0.8125 V 0 c 0.125,0 0.984375,-0.03125 1.234375,-0.03125 0.21875,0 1.09375,0.03125 1.25,0.03125 V -0.25 H 3.03125 c -0.703125,0 -0.703125,-0.09375 -0.703125,-0.328125 z m 0,0"
           transform="translate(197.301,136.259)"
           id="path939" />
      </g>
      <g
         transform="matrix(0.706356,0,0,0.706356,120.87614,-45.692307)"
         style="fill:#000000;fill-opacity:1;stroke-width:0.67422789"
         id="g945">
        <path
           inkscape:connector-curvature="0"
           style="stroke:none;stroke-width:0"
           d="m 2.875,-2.5 c 0,-0.765625 -0.109375,-1.96875 -0.65625,-3.109375 -0.59375,-1.21875 -1.453125,-1.875 -1.546875,-1.875 -0.0625,0 -0.109375,0.046875 -0.109375,0.109375 0,0.03125 0,0.046875 0.1875,0.234375 0.984375,0.984375 1.546875,2.5625 1.546875,4.640625 0,1.71875 -0.359375,3.46875 -1.59375,4.71875 C 0.5625,2.34375 0.5625,2.359375 0.5625,2.390625 0.5625,2.453125 0.609375,2.5 0.671875,2.5 0.765625,2.5 1.671875,1.8125 2.25,0.546875 2.765625,-0.546875 2.875,-1.65625 2.875,-2.5 Z m 0,0"
           transform="translate(201.77,134.765)"
           id="path943" />
      </g>
    </g>
    <g
       id="g1133"
       transform="matrix(1.4831781,0,0,1.4831781,-348.40982,-39.174642)"
       style="stroke-width:0.67422789"
       inkscape:export-xdpi="102.71435"
       inkscape:export-ydpi="102.71435">
      <g
         transform="matrix(0.706356,0,0,0.706356,120.87614,-45.692307)"
         style="fill:#000000;fill-opacity:1;stroke-width:0.67422789"
         id="g949">
        <path
           inkscape:connector-curvature="0"
           style="stroke:none;stroke-width:0"
           d="m 3.296875,2.390625 c 0,-0.03125 0,-0.046875 -0.171875,-0.21875 C 1.890625,0.921875 1.5625,-0.96875 1.5625,-2.5 c 0,-1.734375 0.375,-3.46875 1.609375,-4.703125 0.125,-0.125 0.125,-0.140625 0.125,-0.171875 0,-0.078125 -0.03125,-0.109375 -0.09375,-0.109375 -0.109375,0 -1,0.6875 -1.59375,1.953125 -0.5,1.09375 -0.625,2.203125 -0.625,3.03125 0,0.78125 0.109375,1.984375 0.65625,3.125 C 2.25,1.84375 3.09375,2.5 3.203125,2.5 c 0.0625,0 0.09375,-0.03125 0.09375,-0.109375 z m 0,0"
           transform="translate(208.962,134.765)"
           id="path947" />
      </g>
      <g
         transform="matrix(0.706356,0,0,0.706356,120.87614,-45.692307)"
         style="fill:#000000;fill-opacity:1;stroke-width:0.67422789"
         id="g953">
        <path
           inkscape:connector-curvature="0"
           style="stroke:none;stroke-width:0"
           d="M 3.328125,-3.015625 C 3.390625,-3.265625 3.625,-4.1875 4.3125,-4.1875 c 0.046875,0 0.296875,0 0.5,0.125 C 4.53125,-4 4.34375,-3.765625 4.34375,-3.515625 c 0,0.15625 0.109375,0.34375 0.375,0.34375 0.21875,0 0.53125,-0.171875 0.53125,-0.578125 0,-0.515625 -0.578125,-0.65625 -0.921875,-0.65625 -0.578125,0 -0.921875,0.53125 -1.046875,0.75 -0.25,-0.65625 -0.78125,-0.75 -1.078125,-0.75 -1.03125,0 -1.609375,1.28125 -1.609375,1.53125 0,0.109375 0.109375,0.109375 0.125,0.109375 0.078125,0 0.109375,-0.03125 0.125,-0.109375 0.34375,-1.0625 1,-1.3125 1.34375,-1.3125 0.1875,0 0.53125,0.09375 0.53125,0.671875 0,0.3125 -0.171875,0.96875 -0.53125,2.375 -0.15625,0.609375 -0.515625,1.03125 -0.953125,1.03125 -0.0625,0 -0.28125,0 -0.5,-0.125 0.25,-0.0625 0.46875,-0.265625 0.46875,-0.546875 0,-0.265625 -0.21875,-0.34375 -0.359375,-0.34375 -0.3125,0 -0.546875,0.25 -0.546875,0.578125 0,0.453125 0.484375,0.65625 0.921875,0.65625 0.671875,0 1.03125,-0.703125 1.046875,-0.75 0.125,0.359375 0.484375,0.75 1.078125,0.75 1.03125,0 1.59375,-1.28125 1.59375,-1.53125 0,-0.109375 -0.078125,-0.109375 -0.109375,-0.109375 -0.09375,0 -0.109375,0.046875 -0.140625,0.109375 -0.328125,1.078125 -1,1.3125 -1.3125,1.3125 -0.390625,0 -0.546875,-0.3125 -0.546875,-0.65625 0,-0.21875 0.046875,-0.4375 0.15625,-0.875 z m 0,0"
           transform="translate(212.84,134.765)"
           id="path951" />
      </g>
      <g
         transform="matrix(0.706356,0,0,0.706356,120.87614,-45.692307)"
         style="fill:#000000;fill-opacity:1;stroke-width:0.67422789"
         id="g957">
        <path
           inkscape:connector-curvature="0"
           style="stroke:none;stroke-width:0"
           d="M 3.515625,-1.265625 H 3.28125 c -0.015625,0.15625 -0.09375,0.5625 -0.1875,0.625 C 3.046875,-0.59375 2.515625,-0.59375 2.40625,-0.59375 H 1.125 c 0.734375,-0.640625 0.984375,-0.84375 1.390625,-1.171875 0.515625,-0.40625 1,-0.84375 1,-1.5 0,-0.84375 -0.734375,-1.359375 -1.625,-1.359375 -0.859375,0 -1.453125,0.609375 -1.453125,1.25 0,0.34375 0.296875,0.390625 0.375,0.390625 0.15625,0 0.359375,-0.125 0.359375,-0.375 0,-0.125 -0.046875,-0.375 -0.40625,-0.375 C 0.984375,-4.21875 1.453125,-4.375 1.78125,-4.375 c 0.703125,0 1.0625,0.546875 1.0625,1.109375 0,0.609375 -0.4375,1.078125 -0.65625,1.328125 L 0.515625,-0.265625 C 0.4375,-0.203125 0.4375,-0.1875 0.4375,0 h 2.875 z m 0,0"
           transform="translate(218.534,136.259)"
           id="path955" />
      </g>
      <g
         transform="matrix(0.706356,0,0,0.706356,120.87614,-45.692307)"
         style="fill:#000000;fill-opacity:1;stroke-width:0.67422789"
         id="g961">
        <path
           inkscape:connector-curvature="0"
           style="stroke:none;stroke-width:0"
           d="m 2.03125,-0.015625 c 0,-0.65625 -0.25,-1.046875 -0.640625,-1.046875 -0.328125,0 -0.53125,0.25 -0.53125,0.53125 C 0.859375,-0.265625 1.0625,0 1.390625,0 1.5,0 1.640625,-0.046875 1.734375,-0.125 1.765625,-0.15625 1.78125,-0.15625 1.78125,-0.15625 c 0.015625,0 0.015625,0 0.015625,0.140625 0,0.75 -0.34375,1.34375 -0.671875,1.671875 -0.109375,0.109375 -0.109375,0.125 -0.109375,0.15625 0,0.078125 0.046875,0.109375 0.09375,0.109375 0.109375,0 0.921875,-0.765625 0.921875,-1.9375 z m 0,0"
           transform="translate(223.003,134.765)"
           id="path959" />
      </g>
      <g
         transform="matrix(0.706356,0,0,0.706356,120.87614,-45.692307)"
         style="fill:#000000;fill-opacity:1;stroke-width:0.67422789"
         id="g965">
        <path
           inkscape:connector-curvature="0"
           style="stroke:none;stroke-width:0"
           d="m 4.84375,-3.796875 c 0.046875,-0.140625 0.046875,-0.15625 0.046875,-0.234375 0,-0.171875 -0.140625,-0.265625 -0.296875,-0.265625 -0.09375,0 -0.25,0.0625 -0.34375,0.203125 -0.015625,0.0625 -0.109375,0.359375 -0.140625,0.546875 -0.078125,0.25 -0.140625,0.53125 -0.203125,0.796875 l -0.453125,1.796875 c -0.03125,0.140625 -0.46875,0.84375 -1.125,0.84375 -0.5,0 -0.609375,-0.4375 -0.609375,-0.8125 C 1.71875,-1.375 1.890625,-2 2.21875,-2.875 2.375,-3.28125 2.421875,-3.390625 2.421875,-3.59375 c 0,-0.4375 -0.3125,-0.8125 -0.8125,-0.8125 -0.953125,0 -1.3125,1.453125 -1.3125,1.53125 0,0.109375 0.09375,0.109375 0.109375,0.109375 0.109375,0 0.109375,-0.03125 0.15625,-0.1875 0.28125,-0.9375 0.671875,-1.234375 1.015625,-1.234375 0.078125,0 0.25,0 0.25,0.3125 0,0.25 -0.109375,0.515625 -0.171875,0.703125 -0.40625,1.0625 -0.578125,1.625 -0.578125,2.09375 0,0.890625 0.625,1.1875 1.21875,1.1875 0.390625,0 0.71875,-0.171875 1,-0.453125 -0.125,0.515625 -0.25,1.015625 -0.640625,1.546875 -0.265625,0.328125 -0.640625,0.625 -1.09375,0.625 -0.140625,0 -0.59375,-0.03125 -0.765625,-0.421875 0.15625,0 0.296875,0 0.421875,-0.125 C 1.328125,1.203125 1.421875,1.0625 1.421875,0.875 1.421875,0.5625 1.15625,0.53125 1.0625,0.53125 0.828125,0.53125 0.5,0.6875 0.5,1.171875 c 0,0.5 0.4375,0.875 1.0625,0.875 1.015625,0 2.046875,-0.90625 2.328125,-2.03125 z m 0,0"
           transform="translate(227.43436,134.765)"
           id="path963" />
      </g>
      <g
         transform="matrix(0.706356,0,0,0.706356,120.87614,-45.692307)"
         style="fill:#000000;fill-opacity:1;stroke-width:0.67422789"
         id="g969">
        <path
           inkscape:connector-curvature="0"
           style="stroke:none;stroke-width:0"
           d="M 3.515625,-1.265625 H 3.28125 c -0.015625,0.15625 -0.09375,0.5625 -0.1875,0.625 C 3.046875,-0.59375 2.515625,-0.59375 2.40625,-0.59375 H 1.125 c 0.734375,-0.640625 0.984375,-0.84375 1.390625,-1.171875 0.515625,-0.40625 1,-0.84375 1,-1.5 0,-0.84375 -0.734375,-1.359375 -1.625,-1.359375 -0.859375,0 -1.453125,0.609375 -1.453125,1.25 0,0.34375 0.296875,0.390625 0.375,0.390625 0.15625,0 0.359375,-0.125 0.359375,-0.375 0,-0.125 -0.046875,-0.375 -0.40625,-0.375 C 0.984375,-4.21875 1.453125,-4.375 1.78125,-4.375 c 0.703125,0 1.0625,0.546875 1.0625,1.109375 0,0.609375 -0.4375,1.078125 -0.65625,1.328125 L 0.515625,-0.265625 C 0.4375,-0.203125 0.4375,-0.1875 0.4375,0 h 2.875 z m 0,0"
           transform="translate(232.316,136.259)"
           id="path967" />
      </g>
      <g
         transform="matrix(0.706356,0,0,0.706356,120.87614,-45.692307)"
         style="fill:#000000;fill-opacity:1;stroke-width:0.67422789"
         id="g973">
        <path
           inkscape:connector-curvature="0"
           style="stroke:none;stroke-width:0"
           d="m 2.875,-2.5 c 0,-0.765625 -0.109375,-1.96875 -0.65625,-3.109375 -0.59375,-1.21875 -1.453125,-1.875 -1.546875,-1.875 -0.0625,0 -0.109375,0.046875 -0.109375,0.109375 0,0.03125 0,0.046875 0.1875,0.234375 0.984375,0.984375 1.546875,2.5625 1.546875,4.640625 0,1.71875 -0.359375,3.46875 -1.59375,4.71875 C 0.5625,2.34375 0.5625,2.359375 0.5625,2.390625 0.5625,2.453125 0.609375,2.5 0.671875,2.5 0.765625,2.5 1.671875,1.8125 2.25,0.546875 2.765625,-0.546875 2.875,-1.65625 2.875,-2.5 Z m 0,0"
           transform="translate(236.785,134.765)"
           id="path971" />
      </g>
    </g>
    <g
       id="g1194"
       ns1:jacobian_sqrt="0.706356"
       inkscapeversion="0.92.4"
       ns1:alignment="middle center"
       ns1:scale="2.00226919557"
       ns1:preamble="C:\\Users\\Buster\\AppData\\Roaming\\inkscape\\extensions\\textext\\default_packages.tex"
       ns1:text="$v$"
       ns1:pdfconverter="pdf2svg"
       ns1:texconverter="pdflatex"
       ns1:version="0.11.0"
       transform="matrix(1.116806,0,0,1.116806,-23.948287,-8.969761)"
       style="stroke-width:0.63247871"
       inkscape:export-xdpi="102.71435"
       inkscape:export-ydpi="102.71435">
      <g
         id="surface1"
         style="stroke-width:0.63247871">
        <g
           id="g1191"
           style="fill:#000000;fill-opacity:1;stroke-width:0.63247871">
          <path
             id="path1189"
             transform="translate(148.712,134.765)"
             d="m 4.671875,-3.703125 c 0,-0.546875 -0.265625,-0.703125 -0.4375,-0.703125 -0.25,0 -0.5,0.265625 -0.5,0.484375 0,0.125 0.046875,0.1875 0.15625,0.296875 0.21875,0.203125 0.34375,0.453125 0.34375,0.8125 0,0.421875 -0.609375,2.703125 -1.765625,2.703125 -0.515625,0 -0.75,-0.34375 -0.75,-0.875 0,-0.546875 0.28125,-1.28125 0.578125,-2.109375 0.078125,-0.171875 0.125,-0.3125 0.125,-0.5 0,-0.4375 -0.3125,-0.8125 -0.8125,-0.8125 -0.9375,0 -1.3125,1.453125 -1.3125,1.53125 0,0.109375 0.09375,0.109375 0.109375,0.109375 0.109375,0 0.109375,-0.03125 0.15625,-0.1875 0.296875,-1 0.71875,-1.234375 1.015625,-1.234375 0.078125,0 0.25,0 0.25,0.3125 0,0.25 -0.109375,0.53125 -0.171875,0.703125 -0.4375,1.15625 -0.5625,1.609375 -0.5625,2.046875 0,1.078125 0.875,1.234375 1.328125,1.234375 1.671875,0 2.25,-3.296875 2.25,-3.8125 z m 0,0"
             style="stroke:none;stroke-width:0"
             inkscape:connector-curvature="0" />
        </g>
      </g>
    </g>
    <g
       id="g1264"
       ns1:jacobian_sqrt="0.854325"
       inkscapeversion="0.92.4"
       ns1:alignment="middle center"
       ns1:scale="2.42170974857"
       ns1:preamble="C:\\Users\\Buster\\AppData\\Roaming\\inkscape\\extensions\\textext\\default_packages.tex"
       ns1:text="$a$"
       ns1:pdfconverter="pdf2svg"
       ns1:texconverter="pdflatex"
       ns1:version="0.11.0"
       transform="matrix(0.854325,0,0,0.854325,-36.216864,7.0662802)"
       inkscape:export-xdpi="102.71435"
       inkscape:export-ydpi="102.71435">
      <g
         id="g1262">
        <g
           id="g1260"
           style="fill:#000000;fill-opacity:1">
          <path
             id="path1258"
             d="m 172.44755,120.53353 c -0.24511,-0.49021 -0.61277,-0.83744 -1.20511,-0.83744 -1.51149,0 -3.12511,1.92 -3.12511,3.81958 0,1.22553 0.71489,2.08341 1.71574,2.08341 0.26554,0 0.91916,-0.0613 1.69533,-0.98043 0.10213,0.55149 0.57191,0.98043 1.18468,0.98043 0.46979,0 0.75575,-0.30638 0.98043,-0.7149 0.20426,-0.46978 0.38809,-1.26638 0.38809,-1.28681 0,-0.14298 -0.12256,-0.14298 -0.16341,-0.14298 -0.12255,0 -0.14298,0.0613 -0.18383,0.24511 -0.22468,0.83745 -0.44936,1.61362 -0.98043,1.61362 -0.36766,0 -0.38808,-0.34723 -0.38808,-0.59234 0,-0.28596 0.0204,-0.40851 0.1634,-0.98043 0.14298,-0.53106 0.16341,-0.67404 0.28596,-1.16426 l 0.46979,-1.81787 c 0.0817,-0.36766 0.0817,-0.38809 0.0817,-0.44937 0,-0.22468 -0.14298,-0.34723 -0.36766,-0.34723 -0.32681,0 -0.51064,0.28596 -0.55149,0.57191 z m -0.83745,3.37023 c -0.0817,0.2451 -0.0817,0.26553 -0.26553,0.49021 -0.57192,0.7149 -1.10298,0.91915 -1.47064,0.91915 -0.65362,0 -0.83745,-0.71489 -0.83745,-1.22553 0,-0.65362 0.40851,-2.24682 0.71489,-2.85959 0.40851,-0.75574 0.98043,-1.24596 1.5115,-1.24596 0.83744,0 1.02127,1.06213 1.02127,1.14384 0,0.0817 -0.0204,0.1634 -0.0409,0.22468 z m 0,0"
             style="stroke:none;stroke-width:0"
             inkscape:connector-curvature="0" />
        </g>
      </g>
    </g>
    <path
       inkscape:export-ydpi="102.71435"
       inkscape:export-xdpi="102.71435"
       d="m -118.48041,107.3129 a 26.997478,24.992767 0 0 1 1.47354,6.96609"
       sodipodi:open="true"
       sodipodi:end="6.2322999"
       sodipodi:start="5.9473185"
       sodipodi:ry="24.992767"
       sodipodi:rx="26.997478"
       sodipodi:cy="115.55021"
       sodipodi:cx="-143.96941"
       sodipodi:type="arc"
       id="path1272"
       style="opacity:1;fill:none;fill-opacity:1;stroke:#00cb50;stroke-width:0.66500002;stroke-linecap:square;stroke-miterlimit:4;stroke-dasharray:none;stroke-dashoffset:0;stroke-opacity:1"
       transform="rotate(-90)" />
  </g>
</svg>
