<?xml version="1.0" encoding="UTF-8" standalone="no"?>
<svg
   xmlns:ns1="http://www.iki.fi/pav/software/textext/"
   xmlns:dc="http://purl.org/dc/elements/1.1/"
   xmlns:cc="http://creativecommons.org/ns#"
   xmlns:rdf="http://www.w3.org/1999/02/22-rdf-syntax-ns#"
   xmlns:svg="http://www.w3.org/2000/svg"
   xmlns="http://www.w3.org/2000/svg"
   xmlns:sodipodi="http://sodipodi.sourceforge.net/DTD/sodipodi-0.dtd"
   xmlns:inkscape="http://www.inkscape.org/namespaces/inkscape"
   width="18.08mm"
   height="10.96mm"
   version="1.1"
   viewBox="0 0 18.08 10.96"
   id="svg45"
   sodipodi:docname="browserIcon.svg"
   inkscape:version="0.92.5 (2060ec1f9f, 2020-04-08)">
  <metadata
     id="metadata49">
    <rdf:RDF>
      <cc:Work
         rdf:about="">
        <dc:format>image/svg+xml</dc:format>
        <dc:type
           rdf:resource="http://purl.org/dc/dcmitype/StillImage" />
      </cc:Work>
    </rdf:RDF>
  </metadata>
  <sodipodi:namedview
     pagecolor="#ffffff"
     bordercolor="#666666"
     borderopacity="1"
     objecttolerance="10"
     gridtolerance="10"
     guidetolerance="10"
     inkscape:pageopacity="0"
     inkscape:pageshadow="2"
     inkscape:window-width="1719"
     inkscape:window-height="873"
     id="namedview47"
     showgrid="false"
     inkscape:zoom="4.1999678"
     inkscape:cx="57.293077"
     inkscape:cy="12.875781"
     inkscape:window-x="0"
     inkscape:window-y="0"
     inkscape:window-maximized="0"
     inkscape:current-layer="svg45" />
  <defs
     id="defs11">
    <clipPath
       id="c">
      <path
         d="m152.9 131.3h-1.406v-1.384h3.967v2.144l-0.6078 2.268-1.18 1.18-1.33-0.3564s0.1702-1.877 0-2.047c-0.1702-0.1702-0.3207-1.197-0.3207-1.197z"
         id="path2" />
    </clipPath>
    <clipPath
       id="b">
      <path
         d="m128.9 41.81 0.4594-1.929v-1.587h-1.144v3.191z"
         fill="#0f0fff"
         fill-opacity=".3333"
         id="path5" />
    </clipPath>
    <clipPath
       id="a">
      <path
         d="m136.1 40.98-0.1107-0.4677 1.226 0.1002 0.142 0.4239z"
         fill="#0594e5"
         fill-opacity=".4848"
         id="path8" />
    </clipPath>
  </defs>
  <g
     transform="translate(-122.5 -38.25)"
     id="g43">
    <g
       stroke-width=".2934"
       id="g37">
      <g
         transform="matrix(-2.415 0 0 2.415 502.6 -276.5)"
         fill="#00000a"
         inkscapeversion="0.92.5"
         ns1:alignment="middle center"
         ns1:jacobian_sqrt="0.708584"
         ns1:pdfconverter="pdf2svg"
         ns1:preamble="C:\\Users\\bbcoo\\AppData\\Roaming\\inkscape\\extensions\\textext\\default_packages.tex"
         ns1:scale="2.00858589339"
         ns1:texconverter="pdflatex"
         ns1:text="$\\boldsymbol{\\pi}$"
         ns1:version="0.11.1"
         id="g19">
        <g
           fill="#00000a"
           stroke-width=".2934"
           id="g17">
          <g
             fill="#00000a"
             stroke-width=".2934"
             id="g15">
            <path
               transform="matrix(-.1096 0 0 .1096 293.3 73.35)"
               d="m1264 520.2c-1.711 0-4.848 1e-3 -4.848 3.566 0 1.997 1.14 3.137 1.854 3.707 1.284 1.426 2.71 1.426 4.422 1.426h1.742v-8.699zm26.13 0.8397-0.088 7.86h1.48l6.846 27.24c0.5704 1.854 0.5699 2.281 1.996 3.564 0.5704 0.5705 1.998 1.57 3.852 1.57 2.424 0 4.42-1.57 4.42-4.137 0-1.284-0.2848-1.712-1.711-4.422-4.992-9.127-8.556-16.69-10.84-23.82-0.024-0.0609 0-7e-3 -0.014-0.0234l-0.1786-7.694z"
               fill="#00000a"
               id="path13" />
          </g>
        </g>
      </g>
      <g
         transform="matrix(2.415 0 0 2.415 -237.4 -276.5)"
         fill="#00000a"
         inkscapeversion="0.92.5"
         ns1:alignment="middle center"
         ns1:jacobian_sqrt="0.708584"
         ns1:pdfconverter="pdf2svg"
         ns1:preamble="C:\\Users\\bbcoo\\AppData\\Roaming\\inkscape\\extensions\\textext\\default_packages.tex"
         ns1:scale="2.00858589339"
         ns1:texconverter="pdflatex"
         ns1:text="$\\boldsymbol{\\pi}$"
         ns1:version="0.11.1"
         id="g27">
        <g
           fill="#00000a"
           stroke-width=".2934"
           id="g25">
          <g
             fill="#00000a"
             stroke-width=".2934"
             id="g23">
            <path
               transform="matrix(.1096 0 0 .1096 13.1 73.34)"
               d="m1258 520.3c-1.997 0-5.848-1e-3 -10.7 4.277-3.138 2.995-6.701 7.558-6.701 8.557 0 1.284 0.9978 1.285 1.996 1.285 1.426 0 1.568-0.1443 2.281-1.143 3.565-4.278 9.556-4.277 11.27-4.277h5.418c-2.282 7.131-5.846 14.69-10.84 23.82-1.426 2.71-1.711 3.138-1.711 4.422 0 2.567 1.996 4.135 4.42 4.135 1.854 0 3.281-0.9979 3.852-1.568 1.426-1.284 1.426-1.712 1.996-3.566l6.846-27.24h10.27c-2.139 8.414-3.137 13.98-3.137 19.39 0 6.132 1.712 13.12 6.133 13.12 2.995 0 6.273-2.995 6.273-5.99 0-0.9983-0.2849-1.568-1.141-2.994-4.136-7.273-4.135-14.4-4.135-16.83 0-2.139-1e-4 -3.138 0.4277-6.703h11.41c1.517 0 2.81-5e-3 3.979-0.998v-7.426c-0.8798-0.2597-1.838-0.2754-2.553-0.2754z"
               fill="#00000a"
               id="path21" />
          </g>
        </g>
      </g>
      <g
         transform="matrix(2.415 0 0 2.415 -237.4 -276.5)"
         clip-path="url(#c)"
         inkscapeversion="0.92.5"
         ns1:alignment="middle center"
         ns1:jacobian_sqrt="0.708584"
         ns1:pdfconverter="pdf2svg"
         ns1:preamble="C:\\Users\\bbcoo\\AppData\\Roaming\\inkscape\\extensions\\textext\\default_packages.tex"
         ns1:scale="2.00858589339"
         ns1:texconverter="pdflatex"
         ns1:text="$\\boldsymbol{\\pi}$"
         ns1:version="0.11.1"
         id="g35">
        <g
           stroke-width=".2934"
           id="g33">
          <g
             stroke-width=".2934"
             id="g31">
            <path
               transform="matrix(.1096 0 0 .1096 13.1 73.34)"
               d="m1258 520.3c-1.997 0-5.848-1e-3 -10.7 4.277-3.138 2.995-6.701 7.558-6.701 8.557 0 1.284 0.9978 1.285 1.996 1.285 1.426 0 1.568-0.1443 2.281-1.143 3.565-4.278 9.556-4.277 11.27-4.277h5.418c-2.282 7.131-5.846 14.69-10.84 23.82-1.426 2.71-1.711 3.138-1.711 4.422 0 2.567 1.996 4.135 4.42 4.135 1.854 0 3.281-0.9979 3.852-1.568 1.426-1.284 1.426-1.712 1.996-3.566l6.846-27.24h10.27c-2.139 8.414-3.137 13.98-3.137 19.39 0 6.132 1.712 13.12 6.133 13.12 2.995 0 6.273-2.995 6.273-5.99 0-0.9983-0.2849-1.568-1.141-2.994-4.136-7.273-4.135-14.4-4.135-16.83 0-2.139-1e-4 -3.138 0.4277-6.703h11.41c1.517 0 2.81-5e-3 3.979-0.998v-7.426c-0.8798-0.2597-1.838-0.2754-2.553-0.2754z"
               id="path29" />
          </g>
        </g>
      </g>
    </g>
    <path
       transform="translate(.008859)"
       d="m129.2 40.8h-0.6264l-0.0118-2.512"
       clip-path="url(#b)"
       fill="none"
       stroke="#fff"
       stroke-linejoin="round"
       stroke-width=".365"
       id="path39" />
    <path
       transform="matrix(1.024 0 0 1 -3.197 .004134)"
       d="m135.7 40.74h1.908"
       clip-path="url(#a)"
       fill="#fff"
       stroke="#fff"
       stroke-width=".2646px"
       id="path41" />
  </g>
  <rect
     style="opacity:1;fill:none;fill-opacity:0.4848485;stroke:none;stroke-width:0.36500001;stroke-linecap:round;stroke-linejoin:round;stroke-miterlimit:4;stroke-dasharray:none;stroke-dashoffset:0;stroke-opacity:1"
     id="rect858"
     width="18.205994"
     height="18.205994"
     x="-0.062996522"
     y="0.061602872"
     inkscape:export-xdpi="66.966965"
     inkscape:export-ydpi="66.966965" />
</svg>
