<svg width="52.47mm" height="9.249mm" version="1.1" viewBox="0 0 52.47 9.249" xmlns="http://www.w3.org/2000/svg">
 <g transform="translate(-293.6 -12.34)">
  <g stroke-width=".8015">
   <path d="m306.7 21.25v-0.3945h0.3068q0.695 0 0.8516-0.1127 0.1628-0.119 0.1628-0.4947v-6.719q0-0.3694-0.1628-0.4821-0.1628-0.119-0.8516-0.119h-0.3068v-0.4007h7.038l0.3569 2.887h-0.3194q-0.0876-0.7326-0.2066-1.146-0.1127-0.4195-0.3757-0.7514t-0.7076-0.4571q-0.4383-0.1315-1.158-0.1315h-1.54q-0.4383 0-0.5322 0.09392-0.0939 0.08766-0.0939 0.4195v3.244h1.102q0.8704 0 1.115-0.3131 0.2442-0.3131 0.2442-1.19h0.3193v3.4h-0.3193q0-0.8829-0.2442-1.19-0.2442-0.3131-1.115-0.3131h-1.102v3.156q0 0.2692 0.0438 0.3757 0.0438 0.1002 0.3131 0.1753 0.2692 0.06888 0.8578 0.06888h0.4258v0.3945q-0.4634-0.03757-2.154-0.03757-1.497 0-1.947 0.03757z"/>
   <path d="m314.8 20.56q-0.8453-0.8391-0.8453-2.054 0-1.221 0.8265-2.11 0.8328-0.8954 2.023-0.8954 1.165 0 1.997 0.8892 0.839 0.8829 0.839 2.116 0 1.208-0.8453 2.048-0.839 0.8391-2.004 0.8391-1.14 0-1.991-0.8328zm0.2192-2.16q0 1.246 0.3256 1.81 0.5009 0.8578 1.459 0.8578 0.4759 0 0.8704-0.2567 0.4008-0.2567 0.6199-0.6888 0.2818-0.5635 0.2818-1.722 0-1.234-0.3381-1.778-0.5009-0.8328-1.446-0.8328-0.4133 0-0.8203 0.2192-0.4007 0.2129-0.6449 0.6387-0.3068 0.5635-0.3068 1.753z"/>
   <path d="m320.4 21.25v-0.3945q0.6825 0 0.8391-0.0814 0.1628-0.08766 0.1628-0.5009v-3.438q0-0.4759-0.1691-0.5949-0.1628-0.119-0.8328-0.119v-0.4007l1.785-0.1378v1.409q0.1816-0.551 0.5636-0.9768 0.3882-0.4321 1.014-0.4321 0.4133 0 0.6763 0.2317 0.2692 0.2317 0.2692 0.551 0 0.2818-0.1753 0.4258-0.1691 0.1378-0.3757 0.1378-0.2317 0-0.3945-0.144-0.1565-0.1503-0.1565-0.407 0-0.1565 0.0688-0.2755 0.0751-0.1252 0.1315-0.1691 0.0563-0.04383 0.0939-0.05635-0.025-0.01253-0.1378-0.01253-0.7076 0-1.115 0.7076-0.4008 0.7013-0.4008 1.703v1.972q0 0.3694 0.1503 0.4884 0.1565 0.119 0.8265 0.119h0.2692v0.3945q-0.5135-0.03757-1.628-0.03757-0.1566 0-0.4008 0.0063t-0.5636 0.01879q-0.3193 0.01253-0.5009 0.01253z"/>
   <path d="m325.5 21.08v-1.691q0-0.144 6e-3 -0.1941 6e-3 -0.05009 0.0438-0.08766 0.0376-0.03757 0.1127-0.03757 0.0877 0 0.119 0.03757 0.0376 0.03757 0.0626 0.1816 0.1941 0.8829 0.6074 1.353 0.4195 0.4634 1.177 0.4634 0.7201 0 1.083-0.3193 0.3632-0.3193 0.3632-0.8453 0-0.9392-1.334-1.177-0.7702-0.1565-1.09-0.2567-0.3193-0.1064-0.6011-0.3381-0.551-0.4508-0.551-1.09t0.4821-1.108q0.4884-0.4696 1.565-0.4696 0.7201 0 1.208 0.3632 0.144-0.1127 0.2192-0.2066 0.169-0.1565 0.2567-0.1565 0.1002 0 0.119 0.06888 0.0188 0.06262 0.0188 0.2442v1.29q0 0.144-6e-3 0.1941-6e-3 0.05009-0.0438 0.08766-0.0376 0.03131-0.119 0.03131-0.144 0-0.1503-0.119-0.1002-1.553-1.503-1.553-0.7577 0-1.096 0.2943-0.3381 0.288-0.3381 0.6825 0 0.2192 0.1002 0.3882 0.1065 0.1628 0.238 0.263 0.1378 0.09392 0.3882 0.1878 0.2505 0.08766 0.4007 0.119 0.1566 0.03131 0.4508 0.09392 1.027 0.1941 1.459 0.6136 0.5385 0.5385 0.5385 1.221 0 0.7577-0.5134 1.271-0.5134 0.5135-1.547 0.5135-0.8328 0-1.415-0.5573-0.0751 0.07514-0.1315 0.144-0.0563 0.06262-0.0814 0.08766-0.0188 0.02505-0.025 0.04383-6e-3 0.01253-0.0188 0.02505-0.2567 0.2567-0.3193 0.2567-0.1002 0-0.119-0.06888-0.0188-0.06262-0.0188-0.2442z"/>
   <path d="m330.5 21.25v-0.3945q0.6825 0 0.839-0.0814 0.1566-0.08766 0.1566-0.5009v-3.45q0-0.4759-0.1628-0.5886-0.1565-0.1127-0.7827-0.1127v-0.4007l1.791-0.1378v4.702q0 0.382 0.1378 0.4759 0.1378 0.09392 0.7639 0.09392v0.3945q-1.309-0.03757-1.334-0.03757-0.1753 0-1.409 0.03757zm0.5385-7.902q0-0.2567 0.1941-0.4634 0.2004-0.2129 0.4821-0.2129 0.2818 0 0.4822 0.1941 0.2004 0.1878 0.2004 0.4884 0 0.2943-0.2004 0.4884-0.2004 0.1878-0.4822 0.1878-0.2943 0-0.4884-0.2066-0.1879-0.2066-0.1879-0.4759z"/>
   <path d="m334.1 18.5q0-1.221 0.8516-2.066 0.8516-0.8453 2.004-0.8453 0.9768 0 1.616 0.7952v-2.774q0-0.4759-0.1691-0.5949-0.1628-0.119-0.8265-0.119v-0.4007l1.847-0.1378v7.783q0 0.4759 0.1628 0.6011 0.1691 0.119 0.8328 0.119v0.3945l-1.885 0.144v-0.8516q-0.6637 0.8453-1.716 0.8516-1.102 0-1.91-0.8453-0.8078-0.8453-0.8078-2.054zm1.064 0.01252q0 1.19 0.3694 1.778 0.5134 0.8203 1.346 0.8203 0.9518 0 1.515-0.8954 0.144-0.2192 0.1378-0.4759v-2.63q0-0.2567-0.1378-0.4696-0.526-0.7702-1.384-0.7702-0.8954 0-1.453 0.8203-0.3945 0.6136-0.3945 1.822z"/>
   <path d="m341.1 18.43q0-1.208 0.7764-2.066 0.7764-0.8578 1.891-0.8578 1.127 0 1.709 0.7326 0.5886 0.7326 0.5886 1.785 0 0.1941-0.0501 0.2317t-0.2692 0.03757h-3.582q0 1.309 0.3882 1.922 0.5385 0.8578 1.446 0.8578 0.1252 0 0.2755-0.02505t0.4571-0.1315q0.3068-0.1127 0.5761-0.407 0.2693-0.2943 0.4258-0.7577 0.0376-0.1816 0.1628-0.1753 0.1691 0 0.1691 0.1503 0 0.1127-0.1252 0.3694-0.119 0.2505-0.3506 0.551-0.2317 0.3006-0.6825 0.526-0.4446 0.2254-0.9831 0.2254-1.127 0-1.979-0.8516-0.8453-0.8578-0.8453-2.116zm1.077-0.407h3.043q0-0.2692-0.0501-0.5698-0.0438-0.3006-0.1816-0.7138-0.1315-0.4195-0.4446-0.6825-0.3131-0.263-0.7764-0.263-0.2066 0-0.4321 0.08766-0.2192 0.08766-0.4884 0.3006-0.2692 0.2129-0.4571 0.695-0.1878 0.4821-0.2129 1.146z"/>
  </g>
  <g transform="matrix(2.093 0 0 2.093 438.8 6.271)" fill="none" stroke="#000" stroke-width=".565">
   <path d="m-65.32 5.108h-4.049"/>
   <path d="m-69.17 5.025 1.984-1.925"/>
   <path d="m-69.17 5.187 1.984 1.925"/>
   <path d="m-69.17 5.025 1.984-1.925"/>
  </g>
 </g>
</svg>
