<svg width="82.33mm" height="11.96mm" version="1.1" viewBox="0 0 82.33 11.96" xmlns="http://www.w3.org/2000/svg">
 <g transform="translate(-467.3 -197.6)">
  <g>
   <path d="m473.2 208.1c0 0.5349 0 1.311 1.765 1.311h0.8292c0.321 0 0.5349 0 0.5349-0.4012 0-0.4012-0.214-0.4012-0.4547-0.4012-1.043-0.0267-1.043-0.2407-1.043-0.6419v-3.664c0-1.525-1.204-2.621-3.745-2.621-0.9629 0-3.049 0.0803-3.049 1.578 0 0.7489 0.5884 1.07 1.043 1.07 0.5349 0 1.097-0.3744 1.097-1.07 0-0.5082-0.321-0.8024-0.3744-0.8559 0.4814-0.0803 1.016-0.107 1.23-0.107 1.257 0 1.872 0.7222 1.872 2.006v0.5884c-1.23 0.0534-5.563 0.214-5.563 2.675 0 1.632 2.14 1.953 3.317 1.953 1.364 0 2.166-0.6954 2.541-1.418zm-0.2942-2.675v1.605c0 1.658-1.578 1.872-2.006 1.872-0.8559 0-1.551-0.5884-1.551-1.364 0-1.819 2.701-2.06 3.557-2.113z"/>
   <path d="m478.1 202.7v4.681c0 1.819 1.471 2.193 2.701 2.193 1.284 0 2.06-0.9896 2.06-2.22v-0.9094h-0.8024v0.8826c0 1.15-0.5617 1.551-1.043 1.551-0.9896 0-0.9896-1.097-0.9896-1.471v-4.707h2.514v-0.8024h-2.514v-3.263h-0.8024c0 1.712-0.8292 3.397-2.541 3.45v0.6152z"/>
   <path d="m491.8 205.7c0.3744 0 0.5349 0 0.5349-0.4547 0-0.5349-0.107-1.792-0.9629-2.648-0.6152-0.6152-1.525-0.9094-2.701-0.9094-2.728 0-4.226 1.765-4.226 3.878 0 2.3 1.712 3.959 4.467 3.959 2.701 0 3.424-1.819 3.424-2.113 0-0.2942-0.321-0.2942-0.4012-0.2942-0.2942 0-0.321 0.0803-0.428 0.3477-0.3477 0.8292-1.337 1.364-2.434 1.364-2.407 0-2.434-2.273-2.434-3.129zm-5.162-0.5617c0.0267-0.6687 0.0534-1.391 0.4012-1.953 0.4547-0.6687 1.15-0.8826 1.632-0.8826 2.006 0 2.033 2.247 2.06 2.835z"/>
   <path d="m494.9 203.4v5.269h-1.177v0.8024c0.4814-0.0267 1.498-0.0534 2.14-0.0534 0.6687 0 1.685 0.0267 2.14 0.0534v-0.8024h-1.177v-3.557c0-1.872 1.498-2.701 2.568-2.701 0.5617 0 0.9362 0.3477 0.9362 1.658v4.6h-1.177v0.8024c0.4814-0.0267 1.498-0.0534 2.166-0.0534 0.6687 0 1.658 0.0267 2.14 0.0534v-0.8024h-1.177v-3.557c0-1.872 1.471-2.701 2.541-2.701 0.5884 0 0.9629 0.3477 0.9629 1.658v4.6h-1.177v0.8024c0.4814-0.0267 1.498-0.0534 2.14-0.0534 0.6687 0 1.685 0.0267 2.166 0.0534v-0.8024h-1.177v-4.413c0-1.765-0.8826-2.461-2.648-2.461-1.551 0-2.434 0.8559-2.889 1.632-0.321-1.578-1.899-1.632-2.541-1.632-1.498 0-2.461 0.7757-3.022 1.846v-1.846l-2.915 0.1337v0.8024c1.043 0 1.177 0 1.177 0.6687z"/>
   <path d="m515.7 208.1c0 0.5349 0 1.311 1.765 1.311h0.8292c0.321 0 0.5349 0 0.5349-0.4012 0-0.4012-0.214-0.4012-0.4547-0.4012-1.043-0.0267-1.043-0.2407-1.043-0.6419v-3.664c0-1.525-1.204-2.621-3.745-2.621-0.9629 0-3.049 0.0803-3.049 1.578 0 0.7489 0.5884 1.07 1.043 1.07 0.5349 0 1.097-0.3744 1.097-1.07 0-0.5082-0.321-0.8024-0.3744-0.8559 0.4814-0.0803 1.016-0.107 1.23-0.107 1.257 0 1.872 0.7222 1.872 2.006v0.5884c-1.23 0.0534-5.563 0.214-5.563 2.675 0 1.632 2.14 1.953 3.317 1.953 1.364 0 2.166-0.6954 2.541-1.418zm-0.2942-2.675v1.605c0 1.658-1.578 1.872-2.006 1.872-0.8559 0-1.551-0.5884-1.551-1.364 0-1.819 2.701-2.06 3.557-2.113z"/>
   <path d="m520.6 202.7v4.681c0 1.819 1.471 2.193 2.701 2.193 1.284 0 2.06-0.9896 2.06-2.22v-0.9094h-0.8024v0.8826c0 1.15-0.5617 1.551-1.043 1.551-0.9896 0-0.9896-1.097-0.9896-1.471v-4.707h2.514v-0.8024h-2.514v-3.263h-0.8024c0 1.712-0.8292 3.397-2.541 3.45v0.6152z"/>
   <path d="m530.2 201.8-2.969 0.1337v0.8024c1.016 0 1.123 0 1.123 0.6687v5.269h-1.177v0.8024c0.5349-0.0267 1.364-0.0534 2.086-0.0534 0.5082 0 1.391 0.0267 1.979 0.0534v-0.8024h-1.043zm0.1604-2.862c0-0.7489-0.6152-1.311-1.311-1.311-0.7489 0-1.337 0.5884-1.337 1.311 0 0.7489 0.5884 1.337 1.337 1.337 0.6954 0 1.311-0.5884 1.311-1.337z"/>
   <path d="m535.5 204.4c-0.6419-0.107-1.739-0.2942-1.739-1.097 0-1.07 1.578-1.07 1.899-1.07 1.284 0 1.926 0.5082 2.006 1.444 0.0267 0.2675 0.0534 0.3477 0.4012 0.3477 0.4012 0 0.4012-0.0803 0.4012-0.4814v-1.364c0-0.321 0-0.4814-0.2942-0.4814-0.0803 0-0.107 0-0.7756 0.321-0.4547-0.214-1.043-0.321-1.712-0.321-0.5349 0-3.156 0-3.156 2.247 0 0.6687 0.3477 1.123 0.6954 1.418 0.6687 0.5884 1.337 0.6954 2.648 0.9361 0.6152 0.107 1.872 0.321 1.872 1.337 0 1.284-1.551 1.284-1.926 1.284-1.819 0-2.247-1.257-2.461-1.979-0.0803-0.2407-0.1872-0.2407-0.4012-0.2407-0.428 0-0.428 0.107-0.428 0.4814v1.872c0 0.321 0 0.4814 0.321 0.4814 0.107 0 0.1337 0 0.5082-0.2675 0.0267 0 0.4012-0.2407 0.428-0.2942 0.8024 0.5617 1.685 0.5617 2.033 0.5617 0.5349 0 3.156 0 3.156-2.487 0-0.7489-0.3477-1.337-0.9361-1.819-0.6687-0.4814-1.23-0.5884-2.541-0.8291z"/>
   <path d="m543.3 205.4v-7.81l-3.022 0.1337v0.8024c1.043 0 1.177 0 1.177 0.6687v9.442h-1.177v0.8024c0.6152-0.0267 1.418-0.0534 2.033-0.0534 0.6419 0 1.444 0.0267 2.059 0.0534v-0.8024h-1.177v-2.166c0.5082-0.4012 0.6419-0.5082 0.9896-0.7222l1.712 2.14c0.1604 0.214 0.428 0.5349 0.428 0.5884 0 0.1604-0.2942 0.1604-0.5349 0.1604v0.8024c0.5082-0.0267 2.006-0.0534 2.086-0.0534 0.6152 0 1.204 0.0267 1.792 0.0534v-0.8024h-0.2942c-0.7489 0-0.8024-0.0803-1.016-0.3477l-2.889-3.584 2.22-1.739c0.2407-0.1872 0.4012-0.2942 1.551-0.2942v-0.8024c-0.4814 0.0534-0.9094 0.0534-1.337 0.0534-0.4547 0-1.578-0.0534-1.979-0.0534v0.8024c0.4012 0 0.4547 0.0534 0.5884 0.1872z"/>
  </g>
 </g>
</svg>
