<svg width="8.368mm" height="7.673mm" version="1.1" viewBox="0 0 8.368 7.673" xmlns="http://www.w3.org/2000/svg">
 <g transform="translate(50.3 -119.3)">
  <path d="m-49.66 123.1q0.0143-1.645 1.074-2.736 1.06-1.09 2.482-1.078 1.472 0.0129 2.487 1.154 1.015 1.142 1.002 2.721-0.0144 1.645-1.074 2.728-1.06 1.082-2.482 1.07-1.472-0.0128-2.487-1.146-1.015-1.142-1.002-2.713zm1.422 0.0289q-0.0117 1.339 0.288 2.053 0.2185 0.5476 0.6779 0.9651 0.4595 0.4092 1.104 0.4148 0.8268 7e-3 1.428-0.7152 0.702-0.8538 0.7185-2.747 0.0111-1.273-0.2883-2.02-0.2185-0.5476-0.6861-0.9734-0.4676-0.4258-1.112-0.4314-0.8268-7e-3 -1.429 0.7317-0.6852 0.8291-0.7018 2.722z" stroke-width=".2646"/>
  <g fill="none" stroke="#000" stroke-width=".365">
   <path d="m-42.91 122.1a4.001 2.016 0 0 1-0.5808 2.727 4.001 2.016 0 0 1-5.439-0.0871 4.001 2.016 0 0 1-0.2358-2.74"/>
   <path d="m-50.11 123.2s0.0238-2.693 3.157-3.66"/>
   <path d="m-46.05 126.8c-0.0135 3e-3 3.399 0.1997 3.933-3.408"/>
  </g>
 </g>
</svg>
