<svg width="8.388mm" height="7.925mm" version="1.1" viewBox="0 0 8.388 7.925" xmlns="http://www.w3.org/2000/svg">
 <g transform="translate(27.79 -94.44)">
  <path d="m-27 98.51q0.0138-1.645 1.034-2.736 1.02-1.09 2.388-1.078 1.416 0.0129 2.394 1.154 0.9772 1.142 0.964 2.721-0.0139 1.645-1.034 2.728-1.02 1.082-2.388 1.07-1.416-0.0128-2.394-1.146-0.9772-1.142-0.964-2.713zm1.369 0.0289q-0.0113 1.339 0.2772 2.053 0.2103 0.5476 0.6524 0.9651 0.4422 0.4092 1.063 0.4148 0.7957 7e-3 1.375-0.7152 0.6756-0.8538 0.6916-2.747 0.0107-1.273-0.2775-2.02-0.2103-0.5476-0.6603-0.9734-0.45-0.4258-1.071-0.4314-0.7957-7e-3 -1.375 0.7317-0.6595 0.8291-0.6754 2.722z" stroke-width=".2646"/>
  <g fill="none">
   <g stroke="#000" stroke-width=".365">
    <path d="m-20.59 97.34a4.001 2.016 0 0 1-0.2071 2.781 4.001 2.016 0 0 1-5.523 0.0275 4.001 2.016 0 0 1-0.3159-2.778"/>
    <path d="m-27.58 98.63c-0.049-0.0413-0.0961-2.97 3.274-3.696"/>
    <path d="m-23.52 102.2c-0.0135 3e-3 3.399 0.1997 3.933-3.408"/>
   </g>
   <rect x="-27.79" y="94.44" width="8.387" height="4.549"/>
  </g>
 </g>
</svg>
