<svg width="8.407mm" height="7.685mm" version="1.1" viewBox="0 0 8.407 7.685" xmlns="http://www.w3.org/2000/svg">
 <g transform="translate(11.09 -73.98)">
  <path d="m-7.928 77.79c3e-3 -1.097 0.0558-2.009 0.2575-2.736 0.2023-0.727 0.4893-1.086 0.7608-1.078 0.281 9e-3 0.5683 0.3934 0.7622 1.154 0.1939 0.7611 0.2396 1.668 0.2369 2.721-3e-3 1.097-0.0562 2.006-0.2579 2.728-0.2023 0.7215-0.4888 1.078-0.7604 1.07-0.281-9e-3 -0.5688-0.3906-0.7626-1.146-0.1939-0.7611-0.2391-1.665-0.2365-2.713zm0.4072 0.0289c-0.00101 0.8929 0.0262 1.577 0.0825 2.053 0.0417 0.3651 0.1064 0.6868 0.1941 0.9651 0.0877 0.2728 0.1932 0.4111 0.3163 0.4148 0.1579 5e-3 0.2942-0.2337 0.4091-0.7152 0.134-0.5692 0.2026-1.485 0.2058-2.747 0.00101-0.8488-0.0262-1.522-0.0826-2.02-0.0417-0.3651-0.1072-0.6896-0.1965-0.9734-0.0893-0.2838-0.1955-0.4276-0.3186-0.4314-0.1579-5e-3 -0.2942 0.2392-0.4091 0.7317-0.1308 0.5528-0.1978 1.46-0.201 2.722z" stroke-width=".2646"/>
  <g fill="none" stroke="#000" stroke-width=".365">
   <path d="m-6.122 75.98a4.001 2.016 0 0 1 3.212 2.175 4.001 2.016 0 0 1-3.988 1.82 4.001 2.016 0 0 1-3.977-1.826 4.001 2.016 0 0 1 3.225-2.17"/>
   <path d="m-10.9 77.92c-0.0709-0.0767-0.0681-3.677 3.936-3.762"/>
   <path d="m-6.996 81.46c0.0887 0.0178 4.39 0.3704 4.114-3.509"/>
  </g>
 </g>
</svg>
