<svg width="8.416mm" height="7.685mm" version="1.1" viewBox="0 0 8.416 7.685" xmlns="http://www.w3.org/2000/svg">
 <g transform="translate(8.018 -69.33)">
  <path d="m-4.579 73.15c3e-3 -1.097 0.0279-2.009 0.1765-2.736 0.1493-0.727 0.3744-1.086 0.5747-1.078 0.2073 9e-3 0.4325 0.3934 0.5755 1.154 0.143 0.7611 0.2136 1.668 0.2116 2.721-3e-3 1.097-0.0783 2.006-0.2269 2.728-0.1492 0.7215-0.374 1.078-0.5743 1.07-0.2073-9e-3 -0.4328-0.3906-0.5758-1.146-0.143-0.7611-0.1632-1.665-0.1612-2.713zm0.3004 0.0289c-6.615e-4 0.8929 0.0196 1.577 0.0609 2.053 0.0308 0.3651 0.0785 0.6868 0.1432 0.9651 0.0647 0.2728 0.1425 0.411 0.2333 0.4148 0.1165 5e-3 0.2171-0.2337 0.3018-0.7152 0.0989-0.5692 0.1995-1.485 0.2018-2.747 6.614e-4 -0.8488-0.0696-1.522-0.1109-2.02-0.0308-0.3651-0.0791-0.6896-0.145-0.9734-0.0659-0.2838-0.1442-0.4276-0.235-0.4314-0.1165-5e-3 -0.2171 0.2392-0.3018 0.7317-0.0965 0.5528-0.146 1.46-0.1483 2.722z" stroke-width=".2646"/>
  <g fill="none" stroke="#000" stroke-width=".365">
   <path d="m-3.263 71.32a4.001 2.016 0 0 1 3.449 2.123 4.001 2.016 0 0 1-3.947 1.89 4.001 2.016 0 0 1-4.033-1.844 4.001 2.016 0 0 1 3.35-2.163"/>
   <path d="m-7.811 73.28c-0.0776-0.0789-0.228-3.731 3.936-3.762"/>
   <path d="m-3.911 76.82c0.0887 0.0178 4.39 0.3704 4.114-3.509"/>
  </g>
 </g>
</svg>
