<svg width="8.416mm" height="7.685mm" version="1.1" viewBox="0 0 8.416 7.685" xmlns="http://www.w3.org/2000/svg">
 <g transform="translate(6.48 -68.16)">
  <path d="m-2.842 71.98c0.00201-1.097 8e-3 -2.009 0.1168-2.736 0.1094-0.727 0.2872-1.086 0.4341-1.078 0.152 9e-3 0.33 0.3934 0.4349 1.154 0.1049 0.7611 0.107 1.668 0.1056 2.721-0.00201 1.097-8e-3 2.006-0.1168 2.728-0.1094 0.7215-0.2872 1.078-0.4341 1.07-0.152-9e-3 -0.33-0.3906-0.4349-1.146-0.1049-0.7611-0.107-1.665-0.1056-2.713zm0.2203 0.0289c-5.027e-4 0.8929 0.0144 1.577 0.0447 2.053 0.0226 0.3651 0.0576 0.6868 0.105 0.9651 0.0475 0.2728 0.1045 0.411 0.1711 0.4148 0.0854 5e-3 0.1592-0.2337 0.2213-0.7152 0.0725-0.5692 0.1096-1.485 0.1113-2.747 5.027e-4 -0.8488-0.0144-1.522-0.0447-2.02-0.0226-0.3651-0.058-0.6896-0.1063-0.9734-0.0483-0.2838-0.1058-0.4276-0.1724-0.4314-0.0854-5e-3 -0.1592 0.2392-0.2213 0.7317-0.0708 0.5528-0.107 1.46-0.1087 2.722z" stroke-width=".2646"/>
  <g fill="none" stroke="#000" stroke-width=".365">
   <path d="m-1.794 70.15a4.001 2.016 0 0 1 3.519 2.117 4.001 2.016 0 0 1-3.976 1.901 4.001 2.016 0 0 1-4.011-1.882 4.001 2.016 0 0 1 3.48-2.134"/>
   <path d="m-6.273 72.11c-0.0776-0.0789-0.228-3.731 3.936-3.762"/>
   <path d="m-2.373 75.65c0.0887 0.0178 4.39 0.3704 4.114-3.509"/>
  </g>
 </g>
</svg>
