<svg width="8.373mm" height="7.673mm" version="1.1" viewBox="0 0 8.373 7.673" xmlns="http://www.w3.org/2000/svg">
 <g transform="translate(26.69 -89.77)">
  <path d="m-25.62 93.59q0.0126-1.645 0.9429-2.736t2.179-1.078q1.292 0.0129 2.183 1.154 0.8914 1.142 0.8793 2.721-0.0127 1.645-0.9428 2.728-0.9302 1.082-2.179 1.07-1.292-0.0128-2.184-1.146-0.8914-1.142-0.8794-2.713zm1.248 0.0289q-0.0103 1.339 0.2529 2.053 0.1918 0.5476 0.5951 0.9651 0.4034 0.4092 0.9696 0.4148 0.7259 7e-3 1.254-0.7152 0.6163-0.8538 0.6308-2.747 0.01-1.273-0.2531-2.02-0.1918-0.5476-0.6023-0.9734-0.4105-0.4258-0.9767-0.4314-0.7259-7e-3 -1.254 0.7317-0.6016 0.8291-0.6161 2.722z" stroke-width=".2646"/>
  <g fill="none" stroke="#000" stroke-width=".365">
   <path d="m-19.75 92.29a4.001 2.016 0 0 1 0.9236 2.259 4.001 2.016 0 0 1-3.888 1.217 4.001 2.016 0 0 1-3.611-1.418 4.001 2.016 0 0 1 1.393-2.197"/>
   <path d="m-26.51 93.72c-0.0267-0.0183-0.1225-2.954 3.356-3.685"/>
   <path d="m-22.44 97.26c0.0114-5e-3 3.61 0.1293 3.933-3.408"/>
  </g>
 </g>
</svg>
