<svg width="8.373mm" height="7.673mm" version="1.1" viewBox="0 0 8.373 7.673" xmlns="http://www.w3.org/2000/svg">
 <g transform="translate(21.06 -89.33)">
  <path d="m-19.72 93.15q0.0115-1.645 0.8622-2.736 0.8507-1.09 1.992-1.078 1.181 0.0129 1.997 1.154 0.8151 1.142 0.8041 2.721-0.0116 1.645-0.8622 2.728-0.8506 1.082-1.992 1.07-1.182-0.0128-1.997-1.146-0.8151-1.142-0.8041-2.713zm1.142 0.0289q-9e-3 1.339 0.2312 2.053 0.1754 0.5476 0.5442 0.9651 0.3689 0.4092 0.8866 0.4148 0.6638 7e-3 1.147-0.7152 0.5636-0.8538 0.5769-2.747 9e-3 -1.273-0.2315-2.02-0.1754-0.5476-0.5508-0.9734-0.3754-0.4258-0.8931-0.4314-0.6638-7e-3 -1.147 0.7317-0.5501 0.8291-0.5634 2.722z" stroke-width=".2646"/>
  <g fill="none" stroke="#000" stroke-width=".365">
   <path d="m-14.72 91.61a4.001 2.016 0 0 1 1.715 2.228 4.001 2.016 0 0 1-3.711 1.488 4.001 2.016 0 0 1-3.924-1.342 4.001 2.016 0 0 1 1.376-2.287"/>
   <path d="m-20.87 93.28c-0.0378-0.0258-0.0242-3.2 3.692-3.745"/>
   <path d="m-16.8 96.82c0.0204-6e-3 3.795 0.1028 3.933-3.408"/>
  </g>
 </g>
</svg>
