<svg width="8.373mm" height="7.673mm" version="1.1" viewBox="0 0 8.373 7.673" xmlns="http://www.w3.org/2000/svg">
 <g transform="translate(21.1 -86.09)">
  <path d="m-19.57 89.9q0.0107-1.645 0.8017-2.736 0.791-1.09 1.853-1.078 1.099 0.0129 1.857 1.154 0.7579 1.142 0.7476 2.721-0.0108 1.645-0.8017 2.728-0.7909 1.082-1.852 1.07-1.099-0.0128-1.857-1.146-0.7579-1.142-0.7477-2.713zm1.061 0.0289q-8e-3 1.339 0.215 2.053 0.1631 0.5476 0.506 0.9651 0.343 0.4092 0.8244 0.4148 0.6172 7e-3 1.066-0.7152 0.524-0.8538 0.5364-2.747 8e-3 -1.273-0.2152-2.02-0.1631-0.5476-0.5121-0.9734-0.3491-0.4258-0.8305-0.4314-0.6172-7e-3 -1.066 0.7317-0.5115 0.8291-0.5239 2.722z" stroke-width=".2646"/>
  <g fill="none" stroke="#000" stroke-width=".365">
   <path d="m-14.78 88.36a4.001 2.016 0 0 1 1.719 2.257 4.001 2.016 0 0 1-3.815 1.466 4.001 2.016 0 0 1-3.864-1.432 4.001 2.016 0 0 1 1.641-2.272"/>
   <path d="m-20.91 90.03c-0.0378-0.0258-0.0242-3.2 3.692-3.745"/>
   <path d="m-16.85 93.58c0.0411-6e-3 3.943 0.1028 3.933-3.408"/>
  </g>
 </g>
</svg>
