<svg width="8.381mm" height="7.675mm" version="1.1" viewBox="0 0 8.381 7.675" xmlns="http://www.w3.org/2000/svg">
 <g transform="translate(19.61 -83.64)">
  <path d="m-17.91 87.46q0.01-1.645 0.7513-2.736 0.7412-1.09 1.736-1.078 1.03 0.0129 1.74 1.154 0.7103 1.142 0.7006 2.721-0.0101 1.645-0.7512 2.728-0.7412 1.082-1.736 1.07-1.03-0.0128-1.74-1.146-0.7103-1.142-0.7007-2.713zm0.9947 0.0289q-7e-3 1.339 0.2015 2.053 0.1528 0.5476 0.4742 0.9651 0.3214 0.4092 0.7726 0.4148 0.5783 7e-3 0.9992-0.7152 0.4911-0.8538 0.5027-2.747 7e-3 -1.273-0.2017-2.02-0.1528-0.5476-0.4799-0.9734-0.3271-0.4258-0.7782-0.4314-0.5784-7e-3 -0.9993 0.7317-0.4793 0.8291-0.4909 2.722z" stroke-width=".2646"/>
  <g fill="none" stroke="#000" stroke-width=".365">
   <path d="m-13.58 85.83a4.001 2.016 0 0 1 2.056 2.252 4.001 2.016 0 0 1-3.831 1.555 4.001 2.016 0 0 1-3.928-1.492 4.001 2.016 0 0 1 1.912-2.284"/>
   <path d="m-19.42 87.58c-0.058-0.0485-0.0387-3.368 3.816-3.758"/>
   <path d="m-15.35 91.13c0.0626 0.0112 4.063 0.199 3.933-3.408"/>
  </g>
 </g>
</svg>
