<svg width="8.407mm" height="7.677mm" version="1.1" viewBox="0 0 8.407 7.677" xmlns="http://www.w3.org/2000/svg">
 <g transform="translate(16.87 -82.4)">
  <path d="m-14.83 86.22q9e-3 -1.645 0.6504-2.736 0.6418-1.09 1.503-1.078 0.8913 0.0129 1.506 1.154 0.6149 1.142 0.6066 2.721-9e-3 1.645-0.6504 2.728-0.6417 1.082-1.503 1.07-0.8913-0.0128-1.506-1.146-0.6149-1.142-0.6066-2.713zm0.8612 0.0289q-6e-3 1.339 0.1744 2.053 0.1323 0.5476 0.4105 0.9651 0.2783 0.4092 0.6689 0.4148 0.5007 7e-3 0.8651-0.7152 0.4252-0.8538 0.4352-2.747 6e-3 -1.273-0.1746-2.02-0.1323-0.5476-0.4155-0.9734-0.2832-0.4258-0.6738-0.4314-0.5007-7e-3 -0.8652 0.7317-0.415 0.8291-0.425 2.722z" stroke-width=".2646"/>
  <g fill="none" stroke="#000" stroke-width=".365">
   <path d="m-10.96 84.56a4.001 2.016 0 0 1 2.204 2.25 4.001 2.016 0 0 1-3.851 1.59 4.001 2.016 0 0 1-3.944-1.531 4.001 2.016 0 0 1 2.07-2.282"/>
   <g>
    <path d="m-16.67 86.35c-0.0612-0.0541-0.0644-3.504 3.866-3.762"/>
    <path d="m-12.6 89.89c0.0887 0.0178 4.245 0.143 3.945-3.513"/>
    <path d="m-12.6 89.89c0.0887 0.0178 4.245 0.143 3.945-3.513"/>
   </g>
  </g>
 </g>
</svg>
