<svg width="8.404mm" height="7.684mm" version="1.1" viewBox="0 0 8.404 7.684" xmlns="http://www.w3.org/2000/svg">
 <g transform="translate(14.92 -82.7)">
  <path d="m-12.59 86.51q8e-3 -1.645 0.5597-2.736 0.5522-1.09 1.293-1.078 0.7669 0.0129 1.296 1.154 0.5291 1.142 0.5219 2.721-8e-3 1.645-0.5597 2.728-0.5522 1.082-1.293 1.07-0.767-0.0128-1.296-1.146-0.5291-1.142-0.522-2.713zm0.741 0.0289q-5e-3 1.339 0.1501 2.053 0.1138 0.5476 0.3533 0.9651 0.2394 0.4092 0.5755 0.4148 0.4309 7e-3 0.7444-0.7152 0.3659-0.8538 0.3745-2.747 5e-3 -1.273-0.1502-2.02-0.1138-0.5476-0.3575-0.9734-0.2437-0.4258-0.5798-0.4314-0.4309-7e-3 -0.7445 0.7317-0.3571 0.8291-0.3657 2.722z" stroke-width=".2646"/>
  <g fill="none" stroke="#000" stroke-width=".365">
   <path d="m-9.346 84.79a4.001 2.016 0 0 1 2.565 2.233 4.001 2.016 0 0 1-3.892 1.676 4.001 2.016 0 0 1-3.977-1.625 4.001 2.016 0 0 1 2.449-2.265"/>
   <path d="m-14.73 86.64c-0.0612-0.0541-0.0644-3.504 3.866-3.762"/>
   <path d="m-10.83 90.18c0.0887 0.0178 4.39 0.3704 4.114-3.509"/>
  </g>
 </g>
</svg>
