<svg width="8.404mm" height="7.684mm" version="1.1" viewBox="0 0 8.404 7.684" xmlns="http://www.w3.org/2000/svg">
 <g transform="translate(11.17 -83.2)">
  <path d="m-8.541 87.01q7e-3 -1.645 0.4689-2.736 0.4627-1.09 1.084-1.078 0.6426 0.0129 1.086 1.154 0.4433 1.142 0.4373 2.721-7e-3 1.645-0.4689 2.728-0.4626 1.082-1.084 1.07-0.6426-0.0128-1.086-1.146-0.4433-1.142-0.4373-2.713zm0.6208 0.0289q-4e-3 1.339 0.1258 2.053 0.0954 0.5476 0.296 0.9651 0.2006 0.4092 0.4822 0.4148 0.361 7e-3 0.6237-0.7152 0.3065-0.8538 0.3137-2.747 4e-3 -1.273-0.1259-2.02-0.0954-0.5476-0.2995-0.9734-0.2042-0.4258-0.4858-0.4314-0.361-7e-3 -0.6238 0.7317-0.2992 0.8291-0.3064 2.722z" stroke-width=".2646"/>
  <g fill="none" stroke="#000" stroke-width=".365">
   <path d="m-5.863 85.24a4.001 2.016 0 0 1 2.85 2.214 4.001 2.016 0 0 1-3.94 1.739 4.001 2.016 0 0 1-3.98-1.715 4.001 2.016 0 0 1 2.798-2.231"/>
   <path d="m-10.98 87.14c-0.0612-0.0541-0.0644-3.504 3.866-3.762"/>
   <path d="m-7.08 90.68c0.0887 0.0178 4.39 0.3704 4.114-3.509"/>
  </g>
 </g>
</svg>
