<svg width="8.402mm" height="7.684mm" version="1.1" viewBox="0 0 8.402 7.684" xmlns="http://www.w3.org/2000/svg">
 <g transform="translate(9.095 -79.09)">
  <path d="m-6.199 82.9q6e-3 -1.645 0.3883-2.736 0.3831-1.09 0.8972-1.078 0.532 0.0129 0.8991 1.154 0.3671 1.142 0.3621 2.721-6e-3 1.645-0.3882 2.728-0.383 1.082-0.8971 1.07-0.532-0.0128-0.8991-1.146-0.3671-1.142-0.3621-2.713zm0.514 0.0289q-3e-3 1.339 0.1041 2.053 0.079 0.5476 0.2451 0.9651 0.1661 0.4092 0.3992 0.4148 0.2989 7e-3 0.5164-0.7152 0.2538-0.8538 0.2598-2.747 3e-3 -1.273-0.1042-2.02-0.079-0.5476-0.248-0.9734-0.169-0.4258-0.4022-0.4314-0.2989-7e-3 -0.5164 0.7317-0.2477 0.8291-0.2537 2.722z" stroke-width=".2646"/>
  <g fill="none" stroke="#000" stroke-width=".365">
   <path d="m-3.97 81.11a4.001 2.016 0 0 1 3.047 2.189 4.001 2.016 0 0 1-3.944 1.788 4.001 2.016 0 0 1-4-1.757 4.001 2.016 0 0 1 2.978-2.213"/>
   <path d="m-8.902 83.03c-0.0612-0.0541 6e-3 -3.504 3.936-3.762"/>
   <path d="m-5.002 86.57c0.0887 0.0178 4.39 0.3704 4.114-3.509"/>
  </g>
 </g>
</svg>
