<svg width="14.71mm" height="10.9mm" version="1.1" viewBox="0 0 14.71 10.9" xmlns="http://www.w3.org/2000/svg" xmlns:ns1="http://www.iki.fi/pav/software/textext/">
 <g transform="translate(-466.7 -184.1)">
  <g transform="matrix(2.415 0 0 2.415 106.8 -130.7)" stroke-width=".2934" inkscapeversion="0.92.5" ns1:alignment="middle center" ns1:jacobian_sqrt="0.708584" ns1:pdfconverter="pdf2svg" ns1:preamble="C:\\Users\\bbcoo\\AppData\\Roaming\\inkscape\\extensions\\textext\\default_packages.tex" ns1:scale="2.00858589339" ns1:texconverter="pdflatex" ns1:text="$\\boldsymbol{\\pi}$" ns1:version="0.11.1">
   <g stroke-width=".2934">
    <g stroke-width=".2934">
     <path transform="matrix(.1096 0 0 .1096 13.1 73.34)" d="m1258 520.3c-1.997 0-5.848-1e-3 -10.7 4.277-3.138 2.995-6.701 7.558-6.701 8.557 0 1.284 0.9978 1.285 1.996 1.285 1.426 0 1.568-0.1443 2.281-1.143 3.565-4.278 9.556-4.277 11.27-4.277h5.418c-2.282 7.131-5.846 14.69-10.84 23.82-1.426 2.71-1.711 3.138-1.711 4.422 0 2.567 1.996 4.135 4.42 4.135 1.854 0 3.281-0.9979 3.852-1.568 1.426-1.284 1.426-1.712 1.996-3.566l6.846-27.24h10.27c-2.139 8.414-3.137 13.98-3.137 19.39 0 6.132 1.712 13.12 6.133 13.12 2.995 0 6.273-2.995 6.273-5.99 0-0.9983-0.2849-1.568-1.141-2.994-4.136-7.273-4.135-14.4-4.135-16.83 0-2.139-1e-4 -3.138 0.4277-6.703h11.41c1.517 0 2.81-5e-3 3.979-0.998v-7.426c-0.8798-0.2597-1.838-0.2754-2.553-0.2754z"/>
    </g>
   </g>
  </g>
 </g>
</svg>
