<svg width="4.92mm" height="10.87mm" version="1.1" viewBox="0 0 4.92 10.87" xmlns="http://www.w3.org/2000/svg">
 <g transform="translate(-492.8 -184)">
  <g transform="matrix(-2.415 0 0 2.415 858 -130.3)" stroke-width=".2934">
   <path d="m151.2 130.1v0.9531h-0.1622l-0.75 2.984c-0.0625 0.2031-0.0624 0.2499-0.2187 0.3905-0.0625 0.0625-0.2188 0.172-0.422 0.172-0.2656 0-0.4842-0.172-0.4842-0.4532 0-0.1406 0.0312-0.1876 0.1874-0.4845 0.5469-1 0.9374-1.828 1.187-2.609h-5e-3c0-6e-5 7e-3 -3e-3 7e-3 -3e-3v-0.9505z"/>
  </g>
 </g>
</svg>
