<?xml version="1.0" encoding="UTF-8" standalone="no"?>
<svg
   xmlns:dc="http://purl.org/dc/elements/1.1/"
   xmlns:cc="http://creativecommons.org/ns#"
   xmlns:rdf="http://www.w3.org/1999/02/22-rdf-syntax-ns#"
   xmlns:svg="http://www.w3.org/2000/svg"
   xmlns="http://www.w3.org/2000/svg"
   xmlns:sodipodi="http://sodipodi.sourceforge.net/DTD/sodipodi-0.dtd"
   xmlns:inkscape="http://www.inkscape.org/namespaces/inkscape"
   width="10.960999mm"
   height="11.5411mm"
   version="1.1"
   viewBox="0 0 10.961 11.5411"
   id="svg22"
   sodipodi:docname="T.svg"
   inkscape:version="0.92.5 (2060ec1f9f, 2020-04-08)">
  <metadata
     id="metadata28">
    <rdf:RDF>
      <cc:Work
         rdf:about="">
        <dc:format>image/svg+xml</dc:format>
        <dc:type
           rdf:resource="http://purl.org/dc/dcmitype/StillImage" />
        <dc:title></dc:title>
      </cc:Work>
    </rdf:RDF>
  </metadata>
  <defs
     id="defs26" />
  <sodipodi:namedview
     pagecolor="#ffffff"
     bordercolor="#666666"
     borderopacity="1"
     objecttolerance="10"
     gridtolerance="10"
     guidetolerance="10"
     inkscape:pageopacity="0"
     inkscape:pageshadow="2"
     inkscape:window-width="1920"
     inkscape:window-height="1017"
     id="namedview24"
     showgrid="false"
     fit-margin-top="0"
     fit-margin-left="0"
     fit-margin-right="0"
     fit-margin-bottom="0"
     inkscape:zoom="2.7641931"
     inkscape:cx="115.1666"
     inkscape:cy="-19.841594"
     inkscape:window-x="-8"
     inkscape:window-y="-8"
     inkscape:window-maximized="1"
     inkscape:current-layer="svg22" />
  <path
     style="stroke-width:0.26499999"
     d="M 0,3.8 0.372,0 l 10.3,0.0901 0.289,3.81 -0.422,-0.004 Q 10.4791,3.1841 10.425,2.8061 10.3787,2.4251 10.267,1.9861 10.1553,1.5471 9.983,1.3301 9.82,1.1141 9.524,0.9211 9.228,0.7201 8.807,0.6501 8.386,0.5803 7.787,0.5751 L 7.109,0.5691 q -0.471,-0.004 -0.671,0.11 -0.191,0.106 -0.195,0.527 l -0.0784,8.99 q -0.005,0.521 0.375,0.665 0.379,0.144 1.72,0.156 l 0.356,0.003 -0.005,0.521 q -1.81,-0.0654 -3,-0.0758 -1.69,-0.0148 -3.42,0.0198 l 0.005,-0.521 0.372,0.003 q 1.32,0.0115 1.7,-0.118 0.382,-0.137 0.386,-0.666 L 4.732,1.1931 Q 4.736,0.7711 4.546,0.6621 4.365,0.5451 3.877,0.5401 L 3.216,0.5341 q -0.728,-0.006 -1.21,0.13 -0.472,0.128 -0.764,0.332 -0.283,0.196 -0.461,0.674 -0.169,0.47 -0.248,0.891 -0.0698,0.421 -0.143,1.25 z"
     id="path2"
     inkscape:connector-curvature="0" />
</svg>
