<svg width="7.037mm" height="7.688mm" version="1.1" viewBox="0 0 7.037 7.688" xmlns="http://www.w3.org/2000/svg">
 <path d="m0 2.445q4e-3 -0.504 0.0322-0.843 0.0278-0.347 0.139-0.768 0.111-0.421 0.369-0.625 0.258-0.213 0.663-0.209 0.471 4e-3 0.998 0.306 0.535 0.294 0.818 0.991 0.243-0.403 0.41-0.608 0.176-0.213 0.591-0.433 0.415-0.228 0.961-0.223 0.777 7e-3 1.42 0.36 0.642 0.353 0.636 1.03-3e-3 0.339-0.236 0.568-0.233 0.221-0.556 0.218-0.339-3e-3 -0.56-0.22-0.213-0.225-0.21-0.564 3e-3 -0.306 0.178-0.495 0.184-0.197 0.424-0.261-0.56-0.245-1.11-0.25-0.488-4e-3 -0.87 0.232-0.374 0.228-0.567 0.574-0.185 0.346-0.278 0.643-0.0935 0.297-0.0951 0.479l-0.0402 4.61q-6e-3 0.728-0.602 0.731-0.455-4e-3 -0.559-0.418-0.0322-0.0995-0.029-0.472l0.0393-4.51q0.0139-1.6-0.587-1.85-0.255-0.101-0.497 0.0453-0.258 0.163-0.345 0.675-0.0872 0.512-0.0996 0.991-0.0125 0.479-0.0792 0.545-0.0502 0.0657-0.141 0.0732-0.215-2e-3 -0.212-0.324z" stroke-width=".265"/>
</svg>
