<svg width="6.021mm" height="10.97mm" version="1.1" viewBox="0 0 6.021 10.97" xmlns="http://www.w3.org/2000/svg">
 <path d="m0.9032 6.41q-0.917-1.07-0.903-2.69 0.0142-1.63 0.958-2.68 0.944-1.05 2.11-1.04 1 9e-3 1.77 1.03 0.0196-0.355 0.203-0.503 0.192-0.155 0.398-0.154 0.595 5e-3 0.581 0.716l-0.0636 7.29q-6e-3 0.744-0.309 1.28-0.294 0.535-0.793 0.803-0.49 0.277-0.979 0.388-0.481 0.12-0.985 0.115-2.54-0.0222-2.54-1.31 3e-3 -0.356 0.237-0.577 0.233-0.213 0.556-0.21 0.306 3e-3 0.527 0.22 0.23 0.225 0.227 0.564-4e-3 0.488-0.502 0.723 0.577 0.195 1.48 0.203 0.728 6e-3 1.3-0.501 0.583-0.499 0.593-1.67l0.0169-1.93q-0.753 1.01-1.79 1-1.18-0.0103-2.1-1.08zm0.52-2.68q-6e-3 0.678 0.0233 1.12 0.0376 0.43 0.215 0.986 0.185 0.547 0.538 0.889 0.402 0.392 0.856 0.396 0.579 5e-3 1.15-0.56 0.584-0.574 0.589-1.14l0.0291-3.33q5e-3 -0.521-0.544-1.1-0.541-0.584-1.17-0.589-0.504-4e-3 -0.871 0.364-0.367 0.369-0.545 0.855-0.262 0.676-0.275 2.11z" stroke-width=".265"/>
</svg>
