<svg width="9.323mm" height="7.728mm" version="1.1" viewBox="0 0 9.323 7.728" xmlns="http://www.w3.org/2000/svg">
 <path d="m0 2.458q3e-3 -0.356 0.0809-0.743 0.0778-0.388 0.247-0.792 0.177-0.412 0.527-0.665 0.35-0.262 0.804-0.258 0.728 6e-3 1.24 0.556 0.516 0.542 0.51 1.24-8.6e-4 0.0992-0.134 1.14-0.133 1.04-0.139 1.69-0.013 1.49 0.453 2.09 0.466 0.591 1.08 0.596 0.579 5e-3 0.979-0.397t0.503-0.789q0.017-0.0495 0.0208-0.488l0.0393-4.51q3e-3 -0.339 0.0539-0.496 0.136-0.387 0.549-0.384 0.595 5e-3 0.588 0.824l-0.0387 4.43q-0.0159 1.83 0.794 1.83 0.306 3e-3 0.474-0.285 0.176-0.296 0.212-0.627 0.036-0.33 0.0479-0.752 0.012-0.43 0.0125-0.479 0.018-0.165 0.142-0.205 0.133-0.0402 0.214 0.0598 0.0656 0.0667 0.0629 0.373-0.0102 1.17-0.272 1.74-0.253 0.577-0.931 0.571-1.07-9e-3 -1.75-1.12-0.638 1.09-1.77 1.09-0.438-4e-3 -0.859-0.14-0.412-0.128-0.84-0.446-0.427-0.318-0.694-0.982t-0.259-1.57q6e-3 -0.694 0.148-1.76 0.15-1.07 0.152-1.29 0.01-1.12-0.635-1.12-0.422-4e-3 -0.765 0.448-0.343 0.452-0.402 1.5-0.0204 0.438-0.227 0.445-0.0827-7.2e-4 -0.148-0.0922-0.0653-0.0998-0.0641-0.232z" stroke-width=".265"/>
</svg>
