<svg width="5.087mm" height="11.38mm" version="1.1" viewBox="0 0 5.087 11.38" xmlns="http://www.w3.org/2000/svg">
 <path d="m0 6.16q4e-3 -0.504 0.125-1.02 0.12-0.512 0.521-0.979 0.409-0.468 1.01-0.462 0.728 6e-3 1.24 0.556 0.516 0.542 0.51 1.25-2e-3 0.19-0.283 2.12-0.273 1.93-0.276 2.25-0.01 1.1 0.652 1.11 0.116 1e-3 0.248-0.0474 0.141-0.0484 0.324-0.187 0.191-0.147 0.343-0.501 0.16-0.354 0.214-0.875 0.0174-0.0991 0.0186-0.24 1e-3 -0.149 0.0102-0.223 9e-3 -0.0826 0.0261-0.149 0.0171-0.066 0.0587-0.0987t0.133-0.0319q0.223 2e-3 0.212 0.291-4e-3 0.504-0.125 1.02-0.12 0.512-0.529 0.979-0.401 0.46-0.988 0.454-0.744-6e-3 -1.25-0.54-0.5-0.542-0.493-1.28 2e-3 -0.19 0.267-2.11 0.273-1.92 0.276-2.25 0.01-1.12-0.635-1.12-0.116-1e-3 -0.257 0.0474-0.133 0.0485-0.332 0.196-0.191 0.139-0.352 0.501-0.152 0.362-0.206 0.891-5.8e-4 0.0661-0.0101 0.207-9e-3 0.132-0.0183 0.207-9e-3 0.0743-0.0262 0.157-0.0172 0.0825-0.059 0.132-0.0417 0.041-0.133 0.0402-0.215-2e-3 -0.212-0.308zm2.04-4.85q-0.213-0.233-0.21-0.531 3e-3 -0.306 0.228-0.544 0.234-0.238 0.556-0.235 0.339 3e-3 0.552 0.245 0.221 0.242 0.219 0.539-3e-3 0.289-0.236 0.527-0.225 0.238-0.548 0.235-0.339-3e-3 -0.56-0.236z" stroke-width=".265"/>
</svg>
