<svg width="7.953mm" height="11.94mm" version="1.1" viewBox="0 0 7.953 11.94" xmlns="http://www.w3.org/2000/svg">
 <path d="m0.9102 10.8q-0.925-1.1-0.91-2.75 0.0145-1.66 0.95-2.75 0.936-1.08 2.12-1.07 1.03 9e-3 1.77 1.05l0.0274-3.13q5.7e-4 -0.0661 0.01-0.198 9e-3 -0.14 0.0101-0.207 6e-3 -0.711-0.224-0.878-0.222-0.176-1.09-0.183l5e-3 -0.529 2.49-0.16-0.0846 9.7q-0.0161 1.84 0.802 1.85 0.405 4e-3 0.575-0.499 0.178-0.503 0.192-1.11 0.0135-0.603 0.0305-0.653 0.0503-0.0823 0.15-0.0979 0.108-0.0156 0.173 0.0677 0.0492 0.05 0.0464 0.372-0.0102 1.17-0.272 1.74-0.261 0.577-0.931 0.571-0.471-4e-3 -0.998-0.298t-0.81-0.974q-0.739 1.25-1.94 1.24-1.17-0.0102-2.09-1.1zm0.512-2.76q-6e-3 0.728 0.023 1.16 0.0376 0.43 0.214 1.02 0.185 0.58 0.554 0.923 0.385 0.359 0.84 0.363 0.645 6e-3 1.19-0.585 0.551-0.599 0.555-1.1l0.0302-3.46q5e-3 -0.521-0.544-1.13-0.54-0.608-1.17-0.614-0.934-8e-3 -1.42 1.25-0.262 0.701-0.275 2.17z" stroke-width=".265"/>
</svg>
