<svg width="6.925mm" height="7.672mm" version="1.1" viewBox="0 0 6.925 7.672" xmlns="http://www.w3.org/2000/svg">
 <path d="m0.001319 3.406q0.0131-1.5 1.09-2.46 1.08-0.958 2.45-0.946 0.918 8e-3 1.54 0.526 0.632 0.51 0.625 1.3-4e-3 0.422-0.188 0.734-0.176 0.313-0.525 0.5-0.349 0.179-0.689 0.3-0.332 0.113-0.853 0.158-0.513 0.0451-0.844 0.0505-0.331 5e-3 -0.827 1e-3l-0.356-3e-3q0.0164 1.91 0.621 2.8 0.612 0.915 1.5 0.923 8e-3 7e-5 0.0165 1.4e-4 0.794 7e-3 1.58-0.358 0.797-0.365 1.22-1.02 0.0167-0.0164 0.0922-0.148 0.0838-0.132 0.134-0.189 0.0502-0.0657 0.116-0.0651 0.0828-0.0158 0.148 0.0592 0.0738 0.0668 0.0731 0.149-1e-3 0.165-0.227 0.469-0.218 0.304-0.609 0.648t-1.08 0.594q-0.688 0.25-1.47 0.243-1.52-0.0133-2.54-1.29-1.01-1.28-0.999-2.98zm1.42-0.227 0.529 5e-3q0.612 5e-3 1.05-0.0239 0.438-0.0292 0.977-0.149 0.547-0.128 0.847-0.423t0.304-0.766q5e-3 -0.579-0.438-1-0.435-0.425-1.13-0.432-0.628-5e-3 -1.13 0.362-0.499 0.368-0.744 0.944-0.228 0.519-0.269 1.49z" stroke-width=".265"/>
</svg>
