<svg width="265mm" height="88.31mm" version="1.1" viewBox="0 0 265 88.31" xmlns="http://www.w3.org/2000/svg">
 <defs>
  <linearGradient id="a" x1="122.6" x2="382.7" y1="616.3" y2="605.6" gradientTransform="matrix(-1 0 0 1 386.5 -591.5)" gradientUnits="userSpaceOnUse">
   <stop stop-color="#8ee1ff" offset="0"/>
   <stop stop-color="#d1f3ff" offset="1"/>
  </linearGradient>
 </defs>
 <path d="m264.8 0.6355-264.6 51.86v35.53l264.4-65.68z" fill="url(#a)" opacity=".999"/>
 <g fill="#a0e195">
  <path d="m0.436 85.62s2.08 0.4813 3.214 0.3438 5.191-0.3782 5.191-0.3782l-8.457 2.303z" opacity=".999"/>
  <path d="m30.18 79.9s0.5012-1.437 5.98-2.439c5.479-1.002 17.04-3.775 17.04-3.775z" opacity=".999"/>
  <path d="m104.1 60.07s2.173-0.6615 2.693-1.181c0.5198-0.5197 2.977-0.2835 2.977-0.2835z" opacity=".999"/>
  <path d="m157.9 45.59s6.214-2.472 9.889-3.14c3.675-0.6682 13.36-2.94 14.1-3.14 0.735-0.2004 6.414-3.074 9.354-3.942 2.94-0.8686 7.751-0.8018 9.488-1.336 1.737-0.5345 9.555-2.272 9.555-2.272z" opacity=".999"/>
  <path d="m219.9 29.03s10.16-2.835 11.48-3.544c1.323-0.7087 17.34-4.063 20.36-4.961 3.024-0.8977-31.84 8.504-31.84 8.504z" opacity=".999"/>
 </g>
 <path d="m51.66 71.37 11.31-42.88 25.21 1.649 20.26 10.13 50.89 5.655-108.6 28.75z" fill="#b7b7b7" opacity=".999"/>
 <path d="m63.09 28.37-0.4712 27.57 20.5 8.364-31.45 6.715z" fill="#adadad" opacity=".999"/>
 <path d="m74.27 38.36 27.66 6.498 6.331 13.33 49.32-12.5-49.15-5.331-20.83-10.33-24.66-1.333z" fill="#bcbcbc" opacity=".999"/>
 <g transform="translate(-1110 -386.7)" opacity=".999">
  <path d="m1110 467s8.221 1.512 12.1 0.7559c3.874-0.7559 14.46-3.402 16.54-4.63 2.079-1.228 8.504-3.685 11.24-4.347 2.74-0.6614 14.17-2.079 16.35-2.362 2.173-0.2835 7.776-2.164 12.5-2.447 4.725-0.2835 13.74-3.102 15.72-3.764 1.984-0.6614 6.55-1.538 9.952-2.672s12.28-4.536 17.76-4.63c5.481-0.0945 18.07-4.893 20.53-5.932 4.929-2.242 15.26-3.045 17.34-3.801 2.079-0.756 7.772-3.024 9.379-3.591 1.606-0.567 6.993-1.606 7.938-1.701 0.9449-0.0945 7.389-1.313 7.956-1.502s4.612-1.994 6.218-2.844 3.685-2.835 4.63-3.496c0.945-0.6614 3.638-2.212 5.67-2.74 5.741-1.492 12.76-1.512 17.76-1.039 8.282-1.265 15.5-6.237 21.07-6.804 5.575-0.567 16.63-1.606 20.22-2.929 3.591-1.323 6.142-2.74 8.41-3.307s5.386-1.417 5.386-1.417l-0.2363 2.103-264.3 70.82z" fill="#8bda7c" opacity=".999"/>
  <path d="m1110 466.8s8.835 1.937 11.76 1.228c2.929-0.7087 12.8-3.213 15.21-4.158s7.938-4.299 13.32-5.15c5.386-0.8504 16.63-2.504 16.63-2.504s6.378-1.417 8.93-1.89c2.551-0.4725 7.654-0.567 14.98-3.071 7.323-2.504 8.693-2.268 10.77-2.788 2.079-0.5197 12.66-4.205 12.66-4.205s5.811-1.606 9.638-1.606 18-5.244 18-5.244 6.662-2.788 11.2-3.118c4.536-0.3307 8.457-1.701 8.457-1.701s7.078-3.26 11.14-3.922c4.063-0.6614 13.05-2.362 13.05-2.362l6.615-3.166s6.473-6.284 11.67-6.426c4.724-0.7198 6.245-0.6977 6.274-0.6615 0 0 5.537-0.3307 9.081 0.189 4.236-0.1724 11.21-3.572 11.21-3.571 0 0 7.402-3.28 10.33-3.28 2.929 0 15.54-1.701 18.28-2.362 2.74-0.6615 7.04-3.118 9.308-3.732 2.268-0.6142 5.906-1.512 5.906-1.512" fill="none" opacity=".999" stroke="#6acf56" stroke-width=".2646px"/>
 </g>
</svg>
