<svg width="240.3mm" height="140.8mm" version="1.1" viewBox="0 0 240.3 140.8" xmlns="http://www.w3.org/2000/svg">
 <g transform="translate(20.13 -62.81)">
  <g>
   <path d="m-20.13 203.6 239.5-0.7298-0.3484-140.1-239 0.8577z" fill="#7f6a38"/>
   <path d="m16.17 200.8s-6.056-7.838-2.448-19.87c3.608-12.03 22.13-32.47 36.32-36.8 14.19-4.33 41.85-9.622 51.96-19.48 10.1-9.862 25.5-37.52 25.5-37.52l-146.8 39.51 0.1932 76.66z" fill="#826d3a"/>
   <path d="m-19.31 163.4s28.46-28.62 47.22-35.12c18.76-6.495 41.85-22.61 44.98-24.05 3.127-1.443 20.45-7.938 20.45-7.938l-113.7 9.79z" fill="#7f6a38"/>
   <path d="m55.63 203.7s15.1-45.12 43.24-47.52c28.14-2.405 30.55 22.13 44.98-11.06 14.43-33.19 71.79 58.77 71.79 58.77z" fill="#826d3a"/>
   <path d="m109.7 186.3c7.477-9.051 17.71-14.95 31.09-7.87 13.38 7.083 17.71 15.74 5.116 17.31-12.59 1.574-16.92-6.296-28.33-2.755-11.41 3.542-15.35 6.296-18.1-0.787-2.755-7.083 10.23-5.903 10.23-5.903z" fill="#7f6a38"/>
   <path d="m189.6 71.02s4.076 22.89-18.18 35.43c-22.26 12.54 30.72 27.43 35.43 36.2 4.703 8.778 11.6 15.53 11.6 15.53l-0.9406-95.31z" fill="#826d3a"/>
  </g>
  <path d="m-20.39 117.3s29.67-40.36 60.4-31.54c30.74 8.82 76.17-22.99 76.17-22.99l-137.1 0.2673z" fill="#826d3a" fill-opacity=".9804"/>
 </g>
</svg>
