<svg width="265mm" height="88.31mm" version="1.1" viewBox="0 0 265 88.31" xmlns="http://www.w3.org/2000/svg">
 <g transform="translate(109.5 -6.049)">
  <path d="m91.2 40.48s-2.087-0.6998-2.78-2.093c-0.6935-1.393-0.9968-4.594 0.8237-5.56 1.82-0.9658 3.142-1.427 5.684-0.4084 2.542 1.019 3.749 1.613 5.675-0.2319 1.926-1.845 2.74-2.746 4.158-2.789 1.418-0.0433 2.195-0.2383 4.192 1.047 1.997 1.285 2.145 1.761 2.594 2.26 0.5573 0.6192 1.882 2.341 0.9008 3.056-0.9815 0.7151-2.647 0.9813-2.647 0.9813z" fill="#00a02b" opacity=".999" stroke="#008123" stroke-width=".2646px"/>
  <g fill="#2dff27" fill-opacity=".5202">
   <ellipse cx="93.52" cy="34.12" rx=".4817" ry=".4473"/>
   <ellipse cx="92.85" cy="37.73" rx=".3859" ry=".3583"/>
   <ellipse cx="101.2" cy="35.66" rx=".4043" ry=".3755"/>
   <ellipse cx="104.6" cy="31.46" rx=".3748" ry=".3481"/>
   <ellipse cx="108.8" cy="33.56" rx=".334" ry=".3102"/>
  </g>
 </g>
</svg>
