<svg width="85.44mm" height="31.39mm" version="1.1" viewBox="0 0 85.44 31.39" xmlns="http://www.w3.org/2000/svg">
 <defs>
  <filter id="a" x="-.2391" y="-.6391" width="1.478" height="2.278" color-interpolation-filters="sRGB">
   <feGaussianBlur stdDeviation="3.4175488"/>
  </filter>
 </defs>
 <g transform="translate(3.768 -122.5)">
  <path transform="matrix(1.701 -.05911 .03471 .9991 33.57 336.6)" d="m-6.014-203.3c1.509-0.8182 3.249-1.157 4.966-1.142 1.717 0.0148 3.416 0.3709 5.057 0.8744 1.337 0.4102 2.644 0.919 3.999 1.266 1.355 0.347 2.778 0.5293 4.153 0.2724 1.268-0.237 2.434-0.8338 3.617-1.348 1.183-0.514 2.447-0.9576 3.733-0.8588 1.022 0.0785 2.01 0.5086 2.777 1.188 0.7675 0.6789 1.313 1.601 1.559 2.595s0.194 2.058-0.1272 3.031-0.9089 1.854-1.67 2.54c-0.8754 0.7896-1.967 1.317-3.106 1.622-1.139 0.3052-2.326 0.3956-3.505 0.3815-2.358-0.0283-4.703-0.4685-7.059-0.387-3.359 0.1162-6.623 1.288-9.983 1.323-1.684 0.0178-3.404-0.2654-4.878-1.081-0.7368-0.4078-1.405-0.9467-1.931-1.604-0.5266-0.6572-0.9095-1.434-1.075-2.26-0.2561-1.277 0.02224-2.635 0.6729-3.763 0.6507-1.128 1.657-2.031 2.802-2.652z" fill="#fff" filter="url(#a)" opacity=".795"/>
 </g>
</svg>
