<svg width="269.6mm" height="173.5mm" version="1.1" viewBox="0 0 269.6 173.5" xmlns="http://www.w3.org/2000/svg">
 <g transform="translate(68.3 -60.56)">
  <g transform="translate(-186.3 -531.2)" opacity=".999">
   <path d="m120.6 765.1 267-20.41-1.278-136.1-265.3 71.1z" fill="#7f6a38"/>
   <path d="m160.9 762s-6.729-8.709-2.72-22.07c4.009-13.36 24.59-36.08 40.36-40.89 15.77-4.811 46.5-10.69 57.73-21.65 11.23-10.96 28.33-41.69 28.33-41.69l-164.9 44.37-1.729 85.18z" fill="#826d3a"/>
   <path d="m118.4 720.4s34.75-31.81 55.59-39.02c20.85-7.216 46.5-25.12 49.98-26.73 3.474-1.604 22.72-8.82 22.72-8.82l-128.6 34.75z" fill="#7f6a38"/>
   <path d="m209.5 758.4s12.03-43.3 43.3-45.97c31.27-2.673 33.94 24.59 49.98-12.29 16.04-36.88 70.56 45.7 70.56 45.7z" fill="#826d3a"/>
   <path d="m254.9 737c5.078-6.147 12.03-10.16 21.11-5.345 9.087 4.811 12.03 10.69 3.475 11.76-8.553 1.069-11.49-4.276-19.24-1.871-7.751 2.405-10.42 4.276-12.29-0.5345-1.871-4.811 6.949-4.009 6.949-4.009z" fill="#7f6a38"/>
   <path d="m362.4 615.7s3.474 19.51-15.5 30.2c-18.98 10.69 26.19 23.38 30.2 30.86 4.009 7.484 9.889 13.24 9.889 13.24l-0.8018-81.25z" fill="#826d3a"/>
  </g>
  <path d="m-64.89 113.7 264.6-52.92v17.01l-264.4 70.84z" fill="none" opacity=".999" stroke="#000" stroke-width=".365"/>
 </g>
</svg>
