<?xml version="1.0" encoding="UTF-8" standalone="no"?>
<!-- Created with Inkscape (http://www.inkscape.org/) -->

<svg
   xmlns:dc="http://purl.org/dc/elements/1.1/"
   xmlns:cc="http://creativecommons.org/ns#"
   xmlns:rdf="http://www.w3.org/1999/02/22-rdf-syntax-ns#"
   xmlns:svg="http://www.w3.org/2000/svg"
   xmlns="http://www.w3.org/2000/svg"
   xmlns:xlink="http://www.w3.org/1999/xlink"
   xmlns:sodipodi="http://sodipodi.sourceforge.net/DTD/sodipodi-0.dtd"
   xmlns:inkscape="http://www.inkscape.org/namespaces/inkscape"
   width="297mm"
   height="210mm"
   viewBox="0 0 297 210"
   version="1.1"
   id="svg1045"
   inkscape:version="0.92.4 (5da689c313, 2019-01-14)"
   sodipodi:docname="Desert.svg">
  <defs
     id="defs1039">
    <linearGradient
       inkscape:collect="always"
       id="linearGradient1872">
      <stop
         style="stop-color:#ffe105;stop-opacity:1;"
         offset="0"
         id="stop1868" />
      <stop
         style="stop-color:#ffe105;stop-opacity:0;"
         offset="1"
         id="stop1870" />
    </linearGradient>
    <inkscape:path-effect
       effect="spiro"
       id="path-effect1858"
       is_visible="true" />
    <linearGradient
       inkscape:collect="always"
       id="linearGradient1852">
      <stop
         style="stop-color:#fce42c;stop-opacity:1;"
         offset="0"
         id="stop1848" />
      <stop
         style="stop-color:#fce42c;stop-opacity:0;"
         offset="1"
         id="stop1850" />
    </linearGradient>
    <inkscape:path-effect
       effect="spiro"
       id="path-effect1746"
       is_visible="true" />
    <inkscape:path-effect
       effect="spiro"
       id="path-effect1742"
       is_visible="true" />
    <inkscape:path-effect
       effect="spiro"
       id="path-effect1736"
       is_visible="true" />
    <inkscape:path-effect
       effect="spiro"
       id="path-effect1732"
       is_visible="true" />
    <inkscape:path-effect
       effect="spiro"
       id="path-effect1728"
       is_visible="true" />
    <inkscape:path-effect
       effect="spiro"
       id="path-effect1720"
       is_visible="true" />
    <inkscape:path-effect
       effect="spiro"
       id="path-effect1716"
       is_visible="true" />
    <inkscape:path-effect
       effect="spiro"
       id="path-effect1712"
       is_visible="true" />
    <inkscape:path-effect
       effect="spiro"
       id="path-effect1708"
       is_visible="true" />
    <inkscape:path-effect
       effect="spiro"
       id="path-effect1704"
       is_visible="true" />
    <inkscape:path-effect
       effect="spiro"
       id="path-effect1700"
       is_visible="true" />
    <inkscape:path-effect
       effect="spiro"
       id="path-effect1696"
       is_visible="true" />
    <inkscape:path-effect
       effect="powerstroke"
       id="path-effect1692"
       is_visible="true"
       offset_points="0,1.7999998"
       sort_points="true"
       interpolator_type="CubicBezierJohan"
       interpolator_beta="0.2"
       start_linecap_type="zerowidth"
       linejoin_type="extrp_arc"
       miter_limit="4"
       end_linecap_type="zerowidth" />
    <inkscape:path-effect
       effect="powerstroke"
       id="path-effect1688"
       is_visible="true"
       offset_points="0,1.7999998"
       sort_points="true"
       interpolator_type="CubicBezierJohan"
       interpolator_beta="0.2"
       start_linecap_type="zerowidth"
       linejoin_type="extrp_arc"
       miter_limit="4"
       end_linecap_type="zerowidth" />
    <inkscape:path-effect
       effect="powerstroke"
       id="path-effect1680"
       is_visible="true"
       offset_points="0,1.7999998"
       sort_points="true"
       interpolator_type="CubicBezierJohan"
       interpolator_beta="0.2"
       start_linecap_type="zerowidth"
       linejoin_type="extrp_arc"
       miter_limit="4"
       end_linecap_type="zerowidth" />
    <inkscape:path-effect
       effect="powerstroke"
       id="path-effect1676"
       is_visible="true"
       offset_points="0,1.7999998"
       sort_points="true"
       interpolator_type="CubicBezierJohan"
       interpolator_beta="0.2"
       start_linecap_type="zerowidth"
       linejoin_type="extrp_arc"
       miter_limit="4"
       end_linecap_type="zerowidth" />
    <inkscape:path-effect
       effect="powerstroke"
       id="path-effect1672"
       is_visible="true"
       offset_points="0,1.7999998"
       sort_points="true"
       interpolator_type="CubicBezierJohan"
       interpolator_beta="0.2"
       start_linecap_type="zerowidth"
       linejoin_type="extrp_arc"
       miter_limit="4"
       end_linecap_type="zerowidth" />
    <inkscape:path-effect
       effect="powerstroke"
       id="path-effect1668"
       is_visible="true"
       offset_points="0,1.7999998"
       sort_points="true"
       interpolator_type="CubicBezierJohan"
       interpolator_beta="0.2"
       start_linecap_type="zerowidth"
       linejoin_type="extrp_arc"
       miter_limit="4"
       end_linecap_type="zerowidth" />
    <inkscape:path-effect
       effect="powerstroke"
       id="path-effect1664"
       is_visible="true"
       offset_points="0,1.7999998"
       sort_points="true"
       interpolator_type="CubicBezierJohan"
       interpolator_beta="0.2"
       start_linecap_type="zerowidth"
       linejoin_type="extrp_arc"
       miter_limit="4"
       end_linecap_type="zerowidth" />
    <inkscape:path-effect
       effect="powerstroke"
       id="path-effect1660"
       is_visible="true"
       offset_points="0,1.7999998"
       sort_points="true"
       interpolator_type="CubicBezierJohan"
       interpolator_beta="0.2"
       start_linecap_type="zerowidth"
       linejoin_type="extrp_arc"
       miter_limit="4"
       end_linecap_type="zerowidth" />
    <inkscape:path-effect
       effect="powerstroke"
       id="path-effect1652"
       is_visible="true"
       offset_points="0,1.7999998"
       sort_points="true"
       interpolator_type="CubicBezierJohan"
       interpolator_beta="0.2"
       start_linecap_type="zerowidth"
       linejoin_type="extrp_arc"
       miter_limit="4"
       end_linecap_type="zerowidth" />
    <inkscape:path-effect
       effect="powerstroke"
       id="path-effect1648"
       is_visible="true"
       offset_points="0,1.7999998"
       sort_points="true"
       interpolator_type="CubicBezierJohan"
       interpolator_beta="0.2"
       start_linecap_type="zerowidth"
       linejoin_type="extrp_arc"
       miter_limit="4"
       end_linecap_type="zerowidth" />
    <inkscape:path-effect
       effect="spiro"
       id="path-effect1598"
       is_visible="true" />
    <inkscape:path-effect
       effect="spiro"
       id="path-effect1594"
       is_visible="true" />
    <filter
       inkscape:collect="always"
       style="color-interpolation-filters:sRGB"
       id="filter1832"
       x="-0.088338169"
       width="1.1766763"
       y="-0.38929381"
       height="1.7785876">
      <feGaussianBlur
         inkscape:collect="always"
         stdDeviation="11.700316"
         id="feGaussianBlur1834" />
    </filter>
    <radialGradient
       inkscape:collect="always"
       xlink:href="#linearGradient1852"
       id="radialGradient1854"
       cx="224.13987"
       cy="117.83929"
       fx="224.13987"
       fy="117.83929"
       r="211.28868"
       gradientTransform="matrix(1.2254025,0,0,0.92508028,11.486743,-114.13887)"
       gradientUnits="userSpaceOnUse" />
    <linearGradient
       inkscape:collect="always"
       xlink:href="#linearGradient1872"
       id="linearGradient1874"
       x1="118.52074"
       y1="120.67411"
       x2="75.759018"
       y2="136.17114"
       gradientUnits="userSpaceOnUse" />
    <inkscape:path-effect
       effect="spiro"
       id="path-effect1858-9"
       is_visible="true" />
    <linearGradient
       inkscape:collect="always"
       xlink:href="#linearGradient1872"
       id="linearGradient1902"
       gradientUnits="userSpaceOnUse"
       x1="118.52074"
       y1="120.67411"
       x2="75.759018"
       y2="136.17114" />
    <linearGradient
       inkscape:collect="always"
       xlink:href="#linearGradient1872"
       id="linearGradient1902-8"
       gradientUnits="userSpaceOnUse"
       x1="118.52074"
       y1="120.67411"
       x2="75.759018"
       y2="136.17114" />
    <inkscape:path-effect
       effect="spiro"
       id="path-effect1858-9-1"
       is_visible="true" />
  </defs>
  <sodipodi:namedview
     id="base"
     pagecolor="#ffffff"
     bordercolor="#666666"
     borderopacity="1.0"
     inkscape:pageopacity="0.0"
     inkscape:pageshadow="2"
     inkscape:zoom="0.7"
     inkscape:cx="592.17634"
     inkscape:cy="409.04783"
     inkscape:document-units="mm"
     inkscape:current-layer="layer1"
     showgrid="false"
     inkscape:snap-global="false"
     showguides="false"
     inkscape:window-width="1920"
     inkscape:window-height="1017"
     inkscape:window-x="-8"
     inkscape:window-y="-8"
     inkscape:window-maximized="1" />
  <metadata
     id="metadata1042">
    <rdf:RDF>
      <cc:Work
         rdf:about="">
        <dc:format>image/svg+xml</dc:format>
        <dc:type
           rdf:resource="http://purl.org/dc/dcmitype/StillImage" />
        <dc:title></dc:title>
      </cc:Work>
    </rdf:RDF>
  </metadata>
  <g
     inkscape:label="Layer 1"
     inkscape:groupmode="layer"
     id="layer1"
     transform="translate(0,-87)">
    <rect
       style="opacity:1;fill:#e6cda6;fill-opacity:1;fill-rule:nonzero;stroke:none;stroke-width:3.59999967;stroke-linecap:square;stroke-linejoin:miter;stroke-miterlimit:4;stroke-dasharray:none;stroke-dashoffset:0;stroke-opacity:1"
       id="rect1590"
       width="304.27084"
       height="215.8244"
       x="-2.2678571"
       y="83.821434" />
    <path
       style="opacity:1;fill:#e4c89d;fill-opacity:1;fill-rule:nonzero;stroke:none;stroke-width:3.59999967;stroke-linecap:square;stroke-linejoin:miter;stroke-miterlimit:4;stroke-dasharray:none;stroke-dashoffset:0;stroke-opacity:1"
       d="m -3.7797618,211.95536 c 9.7202263,-1.31159 18.5691088,-6.61583 25.6337228,-13.41982 7.064614,-6.80399 12.530669,-15.07277 17.675759,-23.42329 5.145089,-8.35052 10.056449,-16.89451 16.229315,-24.51677 6.172865,-7.62226 13.755262,-14.3673 22.860012,-18.01512 12.991774,-5.20516 27.655303,-3.63605 41.367783,-0.83468 13.71248,2.80136 27.42829,6.77422 41.409,6.12635 20.05083,-0.92915 38.28401,-11.18133 56.11955,-20.38963 8.91777,-4.60415 17.98473,-9.02508 27.56887,-12.00316 9.58415,-2.97808 19.75871,-4.4814 29.70443,-3.13697 9.18534,1.24164 17.91935,4.86107 27.10062,6.13248 4.59063,0.63571 9.31733,0.66936 13.80741,-0.47832 4.49009,-1.14767 8.74165,-3.54232 11.63068,-7.16607 2.50922,-3.147347 3.90455,-7.132418 4.08337,-11.15361 0.17881,-4.021191 -0.83506,-8.064936 -2.7336,-11.614234 -3.79707,-7.098596 -10.97445,-11.994056 -18.69461,-14.275936 -7.72016,-2.281881 -15.9664,-2.173022 -23.94583,-1.10694 -7.97943,1.066083 -15.80244,3.061591 -23.72125,4.510841 -38.85902,7.11173 -78.74592,0.936455 -117.92471,-4.125446 C 105.21198,58.003134 64.627571,54.171156 26.836309,65.678576 7.1889788,71.661178 -11.369127,81.864732 -25.786852,96.491362 -40.204576,111.11799 -50.294575,130.3082 -52.53869,150.72322 c -1.643599,14.95204 1.128382,30.76995 9.873798,43.00852 4.372708,6.11929 10.187708,11.24787 16.952038,14.53574 6.76433,3.28787 14.479586,4.69361 21.9330922,3.68788 z"
       id="path1592"
       inkscape:connector-curvature="0"
       inkscape:path-effect="#path-effect1594"
       inkscape:original-d="m -3.7797618,211.95536 c 16.2527118,20.41098 54.9328028,-52.91693 82.3988088,-79.375 27.466003,-26.45807 55.184793,3.52752 82.776783,5.29167 27.592,1.76415 75.5955,-23.68678 113.39285,-35.52976 37.79737,-11.842993 35.02607,-1.0082 52.53871,-1.51191 C 344.84,100.32666 283.98636,78.40351 262.31547,67.190481 240.64457,55.977451 105.32963,66.18228 26.836309,65.678576 c -78.49332,-0.503703 -52.916401,56.696164 -79.374999,85.044644 -26.458598,28.34848 32.506217,40.82116 48.7589282,61.23214 z" />
    <path
       style="opacity:1;fill:#e4c89d;fill-opacity:1;fill-rule:nonzero;stroke:none;stroke-width:3.59999967;stroke-linecap:square;stroke-linejoin:miter;stroke-miterlimit:4;stroke-dasharray:none;stroke-dashoffset:0;stroke-opacity:1"
       d="m 27.214285,304.9375 c 3.952316,-12.40773 10.558357,-24.04543 19.700175,-33.31903 9.141817,-9.2736 20.861289,-16.11429 33.594466,-18.84168 18.410436,-3.94344 37.422554,0.73031 55.825674,4.70776 9.20156,1.98872 18.47945,3.81264 27.88099,4.29727 9.40153,0.48463 18.98148,-0.40845 27.79631,-3.71336 14.28518,-5.35589 25.48141,-16.53245 36.11073,-27.47638 10.62931,-10.94393 21.59972,-22.27236 35.70475,-28.08612 8.34044,-3.43773 17.55001,-4.77435 26.5131,-3.75259 8.96308,1.02177 17.65801,4.40993 24.89167,9.8002 8.24436,6.14341 14.48701,14.79291 18.32505,24.33127 3.83803,9.53837 5.32705,19.93935 4.97356,30.21485 -0.70698,20.55101 -8.5921,40.1875 -18.00695,58.46876 -16.80508,32.6312 -39.14952,62.82445 -67.93808,85.59339 -28.78856,22.76895 -64.31691,37.7967 -101.00309,38.94975 -36.68619,1.15306 -74.294232,-12.38606 -99.387589,-39.1728 C 39.648372,393.54542 30.349237,377.05494 25.832684,359.26724 21.31613,341.47954 21.64421,322.42395 27.214285,304.9375 Z"
       id="path1596"
       inkscape:connector-curvature="0"
       inkscape:path-effect="#path-effect1598"
       inkscape:original-d="m 27.214285,304.9375 c -97.770105,-5.54339 35.530027,-34.77407 53.294641,-52.16071 17.764617,-17.38664 74.335584,3.52751 111.502974,5.29167 37.1674,1.76415 47.87725,-37.04194 71.81548,-55.5625 23.93821,-18.52057 34.27011,4.03148 51.40477,6.04761 17.13465,2.01614 3.52803,75.34299 5.29166,113.01488 1.76361,37.6719 -195.53942,-11.08756 -293.309525,-16.63095 z" />
    <rect
       style="opacity:0;fill:none;fill-opacity:1;fill-rule:nonzero;stroke:#000000;stroke-width:3.49145913;stroke-linecap:square;stroke-linejoin:miter;stroke-miterlimit:4;stroke-dasharray:none;stroke-dashoffset:0;stroke-opacity:1"
       id="rect1600"
       width="297.05359"
       height="210.11903"
       x="1.5297579"
       y="85.729172"
       inkscape:export-xdpi="44.099998"
       inkscape:export-ydpi="44.099998" />
    <path
       style="opacity:0.252;fill:#9a803c;fill-opacity:1;fill-rule:nonzero;stroke:none;stroke-width:3.59999967;stroke-linecap:square;stroke-linejoin:miter;stroke-miterlimit:4;stroke-dasharray:none;stroke-dashoffset:0;stroke-opacity:1"
       d="m -5.6696427,262.22619 c 0,0 -1.684267,0.63501 -1.684267,0.63501 0.2415399,0.64065 0.5179985,1.23453 0.842645,1.74488 0.3080488,0.48427 0.7042223,0.96435 1.223157,1.31868 0.5279591,0.36048 1.1702977,0.57873 1.8821938,0.53444 0.6657129,-0.0414 1.2391422,-0.30244 1.7031524,-0.62516 0.4466943,-0.31068 0.84051173,-0.71125 1.19042304,-1.14489 0.34435047,-0.42675 0.67529682,-0.92198 0.99579404,-1.46976 0.61677032,-1.05415 1.23547962,-2.3732 1.85981842,-3.91743 1.1771042,-2.91142 2.4027636,-6.69558 3.6690663,-11.13384 1.1837295,-4.14885 2.3729904,-8.76337 3.5592933,-13.59951 1.1314344,-4.61246 2.1855484,-9.11792 3.2144524,-13.49279 0.957777,-4.07244 1.857423,-7.87578 2.601758,-10.73879 0.364103,-1.40048 0.690771,-2.57538 0.972784,-3.46778 0.139303,-0.4408 0.261958,-0.79432 0.367807,-1.06482 0.102813,-0.26275 0.199144,-0.43861 0.186415,-0.4265 -0.0063,0.006 -0.03248,0.067 -0.205199,0.19696 -0.08085,0.0608 -0.219152,0.14987 -0.413542,0.21107 -0.205048,0.0645 -0.459401,0.0932 -0.734029,0.036 -0.271253,-0.0564 -0.482113,-0.17977 -0.629562,-0.30306 -0.140537,-0.11753 -0.225029,-0.23546 -0.270228,-0.30852 -0.06325,-0.10225 -0.119842,-0.25872 -0.08953,-0.19482 0.01711,0.0361 0.05733,0.24633 0.0866,0.60479 0.02881,0.35287 0.04701,0.82157 0.05099,1.42131 0.01562,5.77539 1.683951,10.90325 4.672257,15.39375 2.903466,4.36301 7.011592,8.0639 11.92148,11.17504 9.519867,6.03225 22.084185,9.85991 34.617252,11.95526 6.095874,1.01915 12.149359,1.62143 17.74744,1.86151 5.517367,0.23661 10.587946,0.12082 14.769566,-0.29524 2.071481,-0.20612 3.934261,-0.4869 5.526331,-0.83821 1.57457,-0.34744 2.92712,-0.77299 3.96249,-1.28774 0.51727,-0.25716 0.98595,-0.55153 1.36901,-0.89343 0.38158,-0.34059 0.71453,-0.76119 0.89283,-1.27352 0.18509,-0.53185 0.17542,-1.08511 -0.0121,-1.61313 -0.17951,-0.50543 -0.50671,-0.94932 -0.90296,-1.33915 -8.83869,-8.8126 -15.062117,-15.54922 -19.111307,-20.63111 -2.016096,-2.53028 -3.475311,-4.62816 -4.450102,-6.35354 -0.485851,-0.85995 -0.844837,-1.61595 -1.092403,-2.27754 -0.247848,-0.66234 -0.377366,-1.21244 -0.418265,-1.66548 -0.04055,-0.4492 0.007,-0.78976 0.101368,-1.05166 0.09249,-0.2567 0.243828,-0.47753 0.471868,-0.67387 0.234105,-0.20156 0.561483,-0.38729 1.007423,-0.54232 0.445574,-0.1549 0.988952,-0.27199 1.634732,-0.34761 1.295431,-0.15171 2.924171,-0.12806 4.852769,0.0346 1.921853,0.16212 4.105907,0.45897 6.502707,0.83886 4.78882,0.75902 10.39186,1.84455 16.32531,2.8114 5.94468,0.96868 12.22021,1.81777 18.36514,2.10297 6.16464,0.28612 12.20308,0.005 17.64972,-1.295 5.48056,-1.30815 10.36306,-3.64876 14.16277,-7.47457 3.00216,-3.05471 5.27022,-7.09981 7.14072,-11.48585 1.90673,-4.471 3.45596,-9.43885 4.90566,-14.17055 1.52491,-4.97717 2.92455,-9.63758 4.5988,-13.80538 1.73686,-4.32367 3.6784,-7.86857 6.11531,-10.34915 3.6969,-3.74283 9.069,-6.14884 14.98514,-7.93659 6.28257,-1.89849 13.73817,-3.23793 20.42519,-4.49062 7.95541,-1.4903 14.85413,-2.86084 21.37078,-4.92641 7.70971,-2.44372 13.49186,-5.46809 17.87619,-9.2867 -4.3842,3.81849 -10.17843,6.82721 -17.89269,9.23426 -6.5166,2.03335 -13.42813,3.36773 -21.3862,4.80522 -6.68363,1.20729 -14.17354,2.4963 -20.48853,4.34388 -5.93792,1.73727 -11.42543,4.11033 -15.25386,7.89298 -2.55566,2.51203 -4.59144,6.10592 -6.40887,10.44328 -1.75113,4.17911 -3.22572,8.8543 -4.81678,13.8003 -1.51851,4.72049 -3.12105,9.61253 -5.06829,13.99351 -1.91385,4.30588 -4.17108,8.14697 -7.05864,10.98173 -3.60178,3.57574 -8.24568,5.77974 -13.54169,7.00613 -5.27245,1.22094 -11.15978,1.46549 -17.23688,1.14619 -6.05391,-0.31808 -12.25482,-1.19312 -18.16636,-2.19433 -5.89567,-0.99853 -11.48383,-2.11978 -16.31325,-2.9234 -2.411424,-0.40126 -4.642204,-0.72455 -6.626362,-0.91106 -1.978954,-0.18601 -3.748517,-0.23967 -5.226486,-0.0868 -0.741777,0.0767 -1.429788,0.20736 -2.04492,0.40943 -0.615458,0.20218 -1.178515,0.48262 -1.650198,0.87033 -0.478388,0.39322 -0.847615,0.88494 -1.077244,1.47724 -0.227787,0.58756 -0.302834,1.2337 -0.252661,1.92068 0.04999,0.68439 0.22493,1.42192 0.509292,2.21096 0.285154,0.79124 0.686719,1.65182 1.203253,2.5858 1.03355,1.86881 2.551821,4.07507 4.591656,6.66524 4.097813,5.20338 10.363616,12.03488 19.19668,20.89399 0.23408,0.2408 0.31754,0.40823 0.34169,0.49293 0.0187,0.0656 0.003,0.0774 -0.006,0.0944 -0.0171,0.0346 -0.0742,0.13923 -0.26071,0.29646 -0.18696,0.15763 -0.46732,0.33708 -0.86569,0.52608 -0.80244,0.38071 -1.95273,0.73907 -3.43594,1.04828 -1.48095,0.30873 -3.24874,0.55935 -5.253221,0.74092 -4.046486,0.36655 -8.996593,0.44656 -14.417272,0.1788 -5.495611,-0.27146 -11.438134,-0.89818 -17.416297,-1.93276 -12.344156,-2.13628 -24.47591,-5.94368 -33.513448,-11.7469 -4.643602,-2.98178 -8.390472,-6.43788 -10.981723,-10.38723 -2.648411,-4.03647 -4.095849,-8.59476 -4.080341,-13.74557 0.0039,-0.64126 -0.0072,-1.18812 -0.03515,-1.63985 -0.02704,-0.43646 -0.07353,-0.85837 -0.166235,-1.21125 -0.0453,-0.17244 -0.124205,-0.41889 -0.275837,-0.66169 -0.07946,-0.12724 -0.199974,-0.28772 -0.377894,-0.43619 -0.184967,-0.15434 -0.434893,-0.2972 -0.74673,-0.36193 -0.315293,-0.0654 -0.611834,-0.0339 -0.860541,0.0446 -0.238237,0.0752 -0.421703,0.18928 -0.549334,0.28592 -0.242733,0.18379 -0.407124,0.39946 -0.503953,0.54016 -0.203402,0.29557 -0.373147,0.65511 -0.516181,0.99778 -0.152326,0.36492 -0.308607,0.7957 -0.467939,1.27452 -0.323197,0.97125 -0.681428,2.20857 -1.06462,3.62611 -0.785443,2.90557 -1.720801,6.73954 -2.7019175,10.79945 -1.0610086,4.3905 -2.127217,8.84283 -3.2805018,13.44545 -1.2055545,4.81123 -2.4038844,9.3719 -3.5902974,13.45806 -1.27324,4.3852 -2.47623072,8.02649 -3.59851091,10.76231 -0.59617699,1.45332 -1.14787939,2.59736 -1.65051199,3.4449 -0.2597012,0.43791 -0.4937369,0.77524 -0.6991592,1.02619 -0.2147887,0.26239 -0.3690668,0.39426 -0.4532085,0.45088 -0.077536,0.0522 -0.026993,-0.002 0.1192274,-0.0121 0.1865662,-0.0125 0.322997,0.054 0.3663605,0.0824 0.027655,0.0181 -0.076221,-0.0601 -0.2161983,-0.28112 -0.1508437,-0.23816 -0.3254738,-0.59078 -0.51185,-1.08511 0,0 -1.684267,0.63501 -1.684267,0.63501 z"
       id="path1646"
       inkscape:connector-curvature="0"
       inkscape:path-effect="#path-effect1648"
       inkscape:original-d="m -5.6696427,262.22619 c 6.9827628,18.52057 21.9226187,-74.97771 21.9226187,-55.18452 0,44.27142 102.306604,43.72029 92.226194,33.63988 -70.90036,-70.90036 26.62855,-8.10772 56.31845,-37.79762 11.68961,-11.68961 12.85598,-39.31431 23.05654,-49.51488 14.63856,-14.63856 55.28528,-9.42742 74.83929,-26.45833" />
    <path
       style="opacity:0.252;fill:#9a8043;fill-opacity:1;fill-rule:nonzero;stroke:none;stroke-width:3.59999967;stroke-linecap:square;stroke-linejoin:miter;stroke-miterlimit:4;stroke-dasharray:none;stroke-dashoffset:0;stroke-opacity:1"
       d="m 69.547617,84.19941 c 0,0 -1.141484,-1.391766 -1.141484,-1.391766 -0.28077,0.230279 -0.68003,0.525633 -1.240353,0.903228 -0.502809,0.338837 -1.111657,0.728076 -1.848953,1.18064 -1.344112,0.825038 -2.967745,1.77119 -5.039008,2.959531 -3.192323,1.831525 -8.344744,4.736638 -12.827035,7.495482 -4.142168,2.5495 -8.568599,5.482675 -11.867515,8.363055 -1.562444,1.36422 -2.93362,2.76885 -3.909699,4.16584 -0.479556,0.68635 -0.87802,1.39099 -1.153879,2.10602 -0.273003,0.70763 -0.432733,1.44347 -0.417648,2.18821 0.0075,0.57934 0.139416,1.13416 0.371631,1.65658 0.229414,0.51613 0.553246,0.99334 0.942566,1.43471 0.766278,0.86873 1.832824,1.65081 3.100068,2.36649 2.509033,1.41699 6.033254,2.69923 10.236528,3.86695 8.334607,2.31546 19.529994,4.22976 31.133186,5.7512 11.594863,1.52035 23.508272,2.6365 33.177028,3.35628 4.89458,0.36438 9.216,0.62742 12.66175,0.79225 1.74229,0.0833 3.26255,0.14168 4.52638,0.1756 1.27504,0.0342 2.29095,0.0437 3.01668,0.0288 1.89539,-0.0151 3.29656,0.10979 4.28401,0.34679 0.49692,0.11927 0.87477,0.26361 1.15398,0.42313 0.27893,0.15936 0.45111,0.32891 0.55222,0.4977 0.1003,0.16746 0.14812,0.36297 0.13086,0.60388 -0.0178,0.24823 -0.10506,0.54295 -0.27669,0.88632 -0.34932,0.69886 -1.01042,1.52619 -1.94931,2.46551 -1.92214,1.92305 -4.93426,4.24278 -8.51816,6.79261 -3.70765,2.63788 -8.2076,5.64675 -12.70505,8.6646 -10.55853,7.08491 -20.390773,13.77999 -28.939573,20.85649 -4.792599,3.9672 -8.706265,7.67644 -11.760357,11.18119 -3.606455,4.13862 -5.823629,7.7757 -6.983839,11.00771 1.160324,-3.23233 3.390242,-6.86304 7.013838,-10.98144 3.068263,-3.48723 7.001095,-7.17278 11.813607,-11.10625 8.568791,-7.00365 18.473644,-13.65217 29.073484,-20.63099 4.5151,-2.97269 9.06221,-5.94942 12.80204,-8.54415 3.6113,-2.50555 6.6962,-4.80755 8.70139,-6.73203 0.97448,-0.93527 1.72534,-1.81031 2.15701,-2.60413 0.2144,-0.39429 0.36019,-0.78662 0.40636,-1.17088 0.0465,-0.38722 -0.009,-0.765 -0.19251,-1.11417 -0.1809,-0.34369 -0.47078,-0.63028 -0.84739,-0.86565 -0.37243,-0.23277 -0.83787,-0.42083 -1.3916,-0.56994 -1.09539,-0.29496 -2.58941,-0.45132 -4.52432,-0.46634 -0.7057,-0.015 -1.70454,-0.0539 -2.97211,-0.11828 -1.25409,-0.0637 -2.76592,-0.15209 -4.50071,-0.26572 -3.43002,-0.22469 -7.73891,-0.54866 -12.61708,-0.97416 -9.639768,-0.84082 -21.512558,-2.07919 -33.048348,-3.71814 -11.567827,-1.6435 -22.62651,-3.66609 -30.780041,-6.05803 -4.130249,-1.21166 -7.420877,-2.49146 -9.652185,-3.81796 -1.127271,-0.67015 -1.924244,-1.31751 -2.423415,-1.92187 -0.247816,-0.30003 -0.409727,-0.5745 -0.50721,-0.82103 -0.09652,-0.24409 -0.132053,-0.46557 -0.124756,-0.6736 0.015,-0.34523 0.11105,-0.74131 0.311996,-1.19455 0.204202,-0.46059 0.50929,-0.96319 0.920014,-1.50518 0.843777,-1.11343 2.071579,-2.31266 3.580596,-3.55902 3.182832,-2.62883 7.495067,-5.36714 11.651482,-7.816776 4.471617,-2.635409 9.622912,-5.42519 12.873332,-7.220141 2.090572,-1.154458 3.776555,-2.101665 5.17802,-2.935076 0.772808,-0.459567 1.434252,-0.869995 1.997313,-1.240887 0.621375,-0.409303 1.129108,-0.774483 1.534343,-1.106844 0,0 -1.141484,-1.391766 -1.141484,-1.391766 z"
       id="path1650"
       inkscape:connector-curvature="0"
       inkscape:path-effect="#path-effect1652"
       inkscape:original-d="m 69.547617,84.19941 c -5.817028,4.770948 -38.175593,19.29475 -38.175593,27.97024 0,12.62615 86.396836,18.89881 97.895836,18.89881 30.46924,0 -54.717424,35.57846 -65.011909,64.25595" />
    <path
       style="opacity:0.252;fill:#9a8034;fill-opacity:1;fill-rule:nonzero;stroke:none;stroke-width:3.59999967;stroke-linecap:square;stroke-linejoin:miter;stroke-miterlimit:4;stroke-dasharray:none;stroke-dashoffset:0;stroke-opacity:1"
       d="m 167.82143,299.64584 c 0,0 1.23931,1.30542 1.23931,1.30542 7.93614,-7.53427 17.32586,-14.07593 32.8875,-24.77939 10.63695,-7.31621 24.03118,-16.53471 33.4878,-26.08403 0.57215,-0.57768 1.05131,-1.15477 1.41992,-1.73383 0.3656,-0.57435 0.63954,-1.1775 0.7713,-1.80551 0.13325,-0.63507 0.11628,-1.27635 -0.0776,-1.89573 -0.19095,-0.60994 -0.5322,-1.13154 -0.95579,-1.57084 -0.41652,-0.43198 -0.92032,-0.79303 -1.46891,-1.10008 -0.54707,-0.30621 -1.16392,-0.57275 -1.8318,-0.80788 -1.32035,-0.46482 -2.91272,-0.83192 -4.70328,-1.12793 -3.5306,-0.58365 -7.96844,-0.91242 -12.89674,-1.11411 -4.8576,-0.1988 -10.14865,-0.27275 -15.5317,-0.3473 -5.2643,-0.0729 -10.60526,-0.1463 -15.4586,-0.34409 -4.80753,-0.19593 -9.15626,-0.51445 -12.56673,-1.07595 -1.69202,-0.27858 -3.12145,-0.61198 -4.24894,-1.00656 -0.55991,-0.19594 -1.03007,-0.40171 -1.41359,-0.61437 -0.38401,-0.21293 -0.66121,-0.42176 -0.8535,-0.61715 -0.1881,-0.19113 -0.28778,-0.36164 -0.33783,-0.51007 -0.0487,-0.14456 -0.0679,-0.31883 -0.0227,-0.54906 0.0468,-0.23813 0.16483,-0.5444 0.40415,-0.92421 0.23851,-0.37851 0.58465,-0.80968 1.06263,-1.29424 3.3223,-3.37432 7.29592,-5.77847 11.63823,-7.6494 4.31769,-1.86034 8.92209,-3.16206 13.51292,-4.38751 4.57055,-1.22005 9.09207,-2.35556 13.15045,-3.88166 4.09436,-1.53963 7.73125,-3.48133 10.51861,-6.32077 0.1089,-0.11221 0.18625,-0.24012 0.23854,-0.37169 0.0516,-0.12995 0.0784,-0.26207 0.09,-0.388 0.0228,-0.24699 -0.009,-0.5074 -0.0659,-0.76064 -0.11326,-0.50784 -0.35587,-1.12138 -0.68045,-1.80118 -0.65792,-1.37796 -1.726,-3.17729 -3.03907,-5.22258 -2.6654,-4.15171 -6.45684,-9.49331 -10.11978,-14.6323 -3.85027,-5.40181 -7.50692,-10.50882 -10.16,-14.53289 -1.35499,-2.05519 -2.40836,-3.76911 -3.0625,-5.04074 -0.33375,-0.64879 -0.55544,-1.16698 -0.66409,-1.55079 -0.055,-0.19436 -0.0768,-0.33982 -0.0762,-0.44413 3e-4,-0.0513 0.006,-0.0869 0.0125,-0.111 0.006,-0.0223 0.0129,-0.0355 0.0166,-0.0413 8.32374,-8.36953 17.232,-12.09977 25.72308,-14.03546 8.85415,-2.01847 18.6861,-2.27027 26.33332,-2.96737 4.41362,-0.40234 8.47447,-0.94977 12.32075,-1.92321 4.11146,-1.04055 7.81156,-2.53049 11.17864,-4.67462 3.67518,-2.34033 6.85072,-5.39832 9.61062,-9.26457 3.10459,-4.34913 5.60774,-9.61968 7.63375,-15.69771 -2.02614,6.07841 -4.53435,11.34661 -7.6466,15.68852 -2.76665,3.85978 -5.94902,6.90506 -9.62721,9.22733 -3.36927,2.12723 -7.0689,3.5969 -11.17592,4.61436 -3.84234,0.95188 -7.89885,1.47676 -12.30957,1.85404 -7.62047,0.65185 -17.50126,0.84883 -26.39104,2.81713 -8.54398,1.89173 -17.56287,5.59247 -26.0138,13.99758 -0.0677,0.0649 -0.11595,0.14315 -0.14836,0.22775 -0.0319,0.0833 -0.0486,0.1728 -0.0547,0.26412 -0.0121,0.1797 0.0154,0.38627 0.0699,0.61072 0.10823,0.44548 0.336,1.01239 0.66173,1.68198 0.64175,1.3192 1.68272,3.07469 3.01299,5.15445 2.6071,4.07599 6.2183,9.23564 10.00593,14.67436 3.6114,5.18565 7.32677,10.54575 9.91265,14.70839 1.27781,2.05697 2.27995,3.82145 2.86956,5.13949 0.29446,0.65824 0.47172,1.17438 0.53691,1.54006 0.0324,0.18149 0.0314,0.29718 0.0198,0.35469 -0.0103,0.051 -0.006,0.006 -0.009,0.0189 0.003,-0.0132 0.0149,-0.0405 0.0407,-0.0698 -2.63909,2.58707 -6.09721,4.37011 -10.10429,5.79769 -3.98904,1.42115 -8.42844,2.46019 -13.05911,3.61808 -4.6068,1.15193 -9.35592,2.41128 -13.84885,4.26445 -4.53237,1.86943 -8.80803,4.34444 -12.44135,7.92569 -0.56554,0.55903 -1.03048,1.10818 -1.3857,1.65069 -0.3556,0.5431 -0.6147,1.1001 -0.74274,1.67023 -0.13025,0.57995 -0.12108,1.15933 0.0451,1.71822 0.16528,0.55589 0.47005,1.03904 0.8579,1.4534 0.38538,0.41173 0.85892,0.76266 1.3834,1.06594 0.52719,0.30484 1.12588,0.57306 1.77771,0.81165 1.30535,0.47779 2.88376,0.85832 4.64981,1.16783 3.56087,0.62406 8.03145,0.98375 12.86609,1.21644 4.89402,0.23555 10.27139,0.34517 15.52699,0.45274 5.39144,0.11036 10.64246,0.2184 15.45397,0.44954 4.89667,0.23523 9.19063,0.59225 12.53604,1.17828 1.69727,0.29732 3.10272,0.64569 4.19545,1.04645 0.54894,0.20132 0.99982,0.40897 1.35952,0.61816 0.3637,0.21151 0.60944,0.41029 0.76799,0.58299 0.15572,0.16961 0.2157,0.30052 0.23996,0.39265 0.0227,0.0861 0.0309,0.20102 -0.01,0.37155 -0.0439,0.18374 -0.14877,0.44454 -0.37557,0.78891 -0.22807,0.34629 -0.56149,0.74978 -1.02843,1.21112 -9.29447,9.20116 -22.49589,18.15242 -33.23719,25.43875 -15.52762,10.53311 -25.29447,17.26703 -33.43514,24.99546 0,0 1.23931,1.30542 1.23931,1.30542 z"
       id="path1658"
       inkscape:connector-curvature="0"
       inkscape:path-effect="#path-effect1660"
       inkscape:original-d="m 167.82143,299.64584 c 17.7149,-16.81784 48.54069,-32.6657 66.52381,-50.64881 16.68265,-16.68266 -85.09635,-1.46021 -68.41369,-18.14286 13.97353,-13.97353 38.23594,-11.02165 49.1369,-21.92262 2.64794,-2.64794 -29.50626,-42.30921 -27.21429,-44.60119 32.66714,-32.66714 75.62047,3.70407 92.98215,-48.38095" />
    <path
       style="opacity:0.252;fill:#b8893e;fill-opacity:1;fill-rule:nonzero;stroke:none;stroke-width:3.59999967;stroke-linecap:square;stroke-linejoin:miter;stroke-miterlimit:4;stroke-dasharray:none;stroke-dashoffset:0;stroke-opacity:1"
       d="m 101.29762,301.91369 c 0,0 1.57937,-0.86348 1.57937,-0.86348 -1.87425,-3.42813 -3.587357,-7.20005 -4.347733,-10.90403 -0.5753,-2.80242 -0.57534,-5.3933 0.07714,-7.91517 0.586332,-2.26619 1.676704,-4.40675 3.253114,-6.65361 1.51137,-2.15414 3.34074,-4.23243 5.37558,-6.53964 4.30487,-4.88108 8.47284,-9.70178 11.29955,-16.49646 3.7993,-9.13252 3.7728,-18.85317 2.41774,-28.11273 1.35658,9.26997 1.06877,19.02578 -3.06769,27.8251 -3.0551,6.49898 -7.41232,10.99943 -11.96185,15.55202 -2.14864,2.15009 -4.20182,4.19142 -5.945492,6.35072 -1.836566,2.27433 -3.274001,4.61404 -4.141188,7.25392 -0.977259,2.97497 -1.137493,6.06802 -0.600151,9.33941 0.697821,4.2484 2.526726,8.45066 4.482245,12.02743 0,0 1.579366,-0.86348 1.579366,-0.86348 z"
       id="path1662"
       inkscape:connector-curvature="0"
       inkscape:path-effect="#path-effect1664"
       inkscape:original-d="M 101.29762,301.91369 C 81.946032,266.51834 128.1812,273.82552 120.95238,224.42857" />
    <path
       style="opacity:0.252;fill:#9a803b;fill-opacity:1;fill-rule:nonzero;stroke:none;stroke-width:3.59999967;stroke-linecap:square;stroke-linejoin:miter;stroke-miterlimit:4;stroke-dasharray:none;stroke-dashoffset:0;stroke-opacity:1"
       d="m -1.5119047,108.76786 c 0,0 -1.134255,1.39766 -1.134255,1.39766 12.7402037,10.33914 23.4495047,17.65387 35.4752327,25.10274 3.901083,2.41638 7.276651,4.46156 9.748927,6.21697 2.405154,1.70775 4.025329,3.18237 5.000103,4.77624 0.483095,0.78991 0.817255,1.62407 1.007541,2.55498 0.193277,0.94553 0.238514,1.99359 0.136564,3.19063 -0.213188,2.50316 -1.065423,5.57 -2.365432,9.34265 -3.348807,9.71831 -9.489056,24.84785 -13.850825,36.99849 4.361769,-12.15064 10.758573,-27.13032 14.517954,-36.75331 1.445572,-3.70027 2.51327,-6.81941 2.930603,-9.43566 0.202335,-1.26843 0.258526,-2.44885 0.132682,-3.57413 -0.125004,-1.11777 -0.427952,-2.16631 -0.928016,-3.18401 -1.003921,-2.04312 -2.755569,-3.86352 -5.15724,-5.79582 -2.472564,-1.98934 -5.814269,-4.22814 -9.608749,-6.76628 -12.361782,-8.26886 -21.524322,-14.71879 -34.77083469,-25.46881 0,0 -1.13425501,1.39766 -1.13425501,1.39766 z"
       id="path1666"
       inkscape:connector-curvature="0"
       inkscape:path-effect="#path-effect1668"
       inkscape:original-d="M -1.5119047,108.76786 C 60.642364,159.2083 58.009324,127.30311 32.505951,198.34822" />
    <path
       style="opacity:0.252;fill:#a88034;fill-opacity:1;fill-rule:nonzero;stroke:none;stroke-width:3.59999967;stroke-linecap:square;stroke-linejoin:miter;stroke-miterlimit:4;stroke-dasharray:none;stroke-dashoffset:0;stroke-opacity:1"
       d="m 249.46428,88.735124 c 0,0 -0.61835,1.690456 -0.61835,1.690456 9.57954,3.504094 18.10106,7.952649 24.17215,13.6445 4.9011,4.59495 7.98636,9.79238 9.07247,15.67893 0.96338,5.22139 0.34211,10.92347 -1.85078,17.09137 -2.02317,5.69051 -5.30954,11.56598 -9.55506,17.50472 -7.98047,11.16328 -18.63668,21.56925 -27.97705,29.87171 -4.41205,3.92178 -8.20683,7.09211 -10.98553,9.47156 -1.34978,1.15584 -2.42799,2.09855 -3.14451,2.79133 -0.35349,0.34179 -0.64236,0.6447 -0.83872,0.90067 -0.0913,0.11896 -0.20407,0.28047 -0.2789,0.46232 -0.0371,0.0902 -0.091,0.24683 -0.0908,0.43945 9e-5,0.10245 0.0155,0.22449 0.0639,0.35278 0.0496,0.13133 0.12701,0.25071 0.22813,0.3497 9.83994,9.70632 19.16245,15.41543 26.86176,19.49119 3.96654,2.09975 7.51281,3.77478 10.54027,5.32774 3.16141,1.62166 5.70643,3.08064 7.6938,4.71634 2.08476,1.71586 3.48781,3.57775 4.24401,5.85035 0.82035,2.46542 0.86081,5.37764 0.19055,8.87745 -0.75407,3.93742 -2.39725,8.53676 -4.65436,13.64884 -2.75548,6.24082 -6.44664,13.27549 -10.22178,20.07073 3.77317,-6.79171 7.49306,-13.81894 10.29559,-20.03781 2.29501,-5.09267 3.99959,-9.68634 4.82753,-13.63218 0.7351,-3.50344 0.78155,-6.48399 0.009,-9.06782 -0.71756,-2.39902 -2.11894,-4.39855 -4.22979,-6.25099 -1.99963,-1.75484 -4.56462,-3.32175 -7.70017,-5.03285 -3.00807,-1.64154 -6.50885,-3.39543 -10.40211,-5.56112 -7.5559,-4.20307 -16.63056,-9.98847 -26.18121,-19.67267 0.0876,0.0855 0.15503,0.18914 0.19806,0.30251 0.0419,0.11032 0.0541,0.21218 0.0545,0.29222 7e-4,0.14628 -0.0388,0.25232 -0.0484,0.27864 -0.0233,0.064 -0.0202,0.052 0.0444,-0.0159 0.13396,-0.14077 0.34618,-0.34361 0.71093,-0.66343 0.70663,-0.61958 1.77445,-1.49357 3.16116,-2.61952 2.80864,-2.28051 6.72303,-5.43258 11.20595,-9.29477 9.50012,-8.18471 20.47217,-18.63799 28.7643,-29.95218 4.41998,-6.03083 7.93933,-12.11785 10.15929,-18.13152 2.41101,-6.53118 3.22873,-12.81364 2.20231,-18.74687 -1.16445,-6.73112 -4.63041,-12.59889 -9.95344,-17.65062 -6.52963,-6.196835 -15.54785,-10.880012 -25.35054,-14.465732 0,0 -0.61835,1.690456 -0.61835,1.690456 z"
       id="path1670"
       inkscape:connector-curvature="0"
       inkscape:path-effect="#path-effect1672"
       inkscape:original-d="m 249.46428,88.735124 c 89.65823,32.796026 -22.89446,107.885296 -21.16666,109.613096 38.49215,38.49215 69.34101,15.03739 34.01785,78.61904"
       transform="translate(1.1339286,-4.5357143)" />
    <path
       style="opacity:0.263;fill:#a08838;fill-opacity:1;fill-rule:nonzero;stroke:none;stroke-width:3.59999967;stroke-linecap:square;stroke-linejoin:miter;stroke-miterlimit:4;stroke-dasharray:none;stroke-dashoffset:0;stroke-opacity:1"
       d="m 300.86906,184.74107 c 0,0 -0.69199,-1.66167 -0.69199,-1.66167 -3.75001,1.56167 -11.30018,4.96231 -18.7069,8.0129 -7.17039,2.95325 -14.68905,5.89336 -17.64279,6.87794 3.31269,-1.10423 10.50687,-2.96866 18.2337,-5.17769 8.21986,-2.34999 15.24891,-4.61948 19.49997,-6.38981 0,0 -0.69199,-1.66167 -0.69199,-1.66167 z"
       id="path1674"
       inkscape:connector-curvature="0"
       inkscape:path-effect="#path-effect1676"
       inkscape:original-d="m 300.86906,184.74107 c -12.59589,5.24548 -25.99937,9.5484 -37.04168,13.22917" />
    <path
       style="opacity:0.252;fill:#9a6730;fill-opacity:1;fill-rule:nonzero;stroke:none;stroke-width:3.59999967;stroke-linecap:square;stroke-linejoin:miter;stroke-miterlimit:4;stroke-dasharray:none;stroke-dashoffset:0;stroke-opacity:1"
       d="m 123.22024,85.711314 c 0,0 -1.71107,-0.558786 -1.71107,-0.558786 -1.49467,4.576849 -3.60101,10.111322 -7.08381,14.43858 -2.62506,3.261562 -5.85088,5.653422 -10.17829,7.349302 -4.311861,1.68979 -9.397016,2.559 -14.976118,3.13444 -6.116091,0.63082 -16.259997,1.13302 -20.479286,1.33884 5.351863,-0.26107 13.169852,-0.29196 20.532025,-0.63005 5.576424,-0.25608 10.873759,-0.75144 15.508789,-2.14109 4.72792,-1.4175 8.54863,-3.69545 11.77279,-7.1552 4.21804,-4.52625 6.78166,-10.488184 8.32604,-15.21725 0,0 -1.71107,-0.558786 -1.71107,-0.558786 z"
       id="path1678"
       inkscape:connector-curvature="0"
       inkscape:path-effect="#path-effect1680"
       inkscape:original-d="m 123.22024,85.711314 c -8.53562,26.137076 -23.1361,24.175916 -54.428574,25.702376" />
    <path
       style="opacity:0.252;fill:#9a7536;fill-opacity:1;fill-rule:nonzero;stroke:none;stroke-width:3.59999967;stroke-linecap:square;stroke-linejoin:miter;stroke-miterlimit:4;stroke-dasharray:none;stroke-dashoffset:0;stroke-opacity:1"
       d="m 160.63988,85.711314 c 0,0 -1.45206,1.063724 -1.45206,1.063724 3.60909,4.926691 7.21477,10.581822 9.48455,16.370922 1.72614,4.40254 2.5788,8.61091 2.42135,12.7262 -0.14038,3.66915 -1.07543,7.14722 -2.74017,10.64887 -1.59121,3.34695 -3.77227,6.56098 -6.3304,9.87963 -5.64818,7.32736 -11.20495,13.01605 -16.12462,21.17492 -6.43023,10.66399 -8.16649,20.41122 -7.93722,29.81133 -0.22914,-9.39473 1.81908,-19.14748 8.53919,-29.43345 5.14323,-7.87235 10.89371,-13.28995 16.92292,-20.42176 2.73393,-3.2339 5.17699,-6.47525 7.03448,-9.94603 1.95653,-3.65585 3.19003,-7.43495 3.5198,-11.53921 0.37007,-4.6059 -0.42963,-9.28991 -2.1728,-14.08245 -2.27588,-6.257108 -6.01544,-12.269033 -9.71296,-17.31642 0,0 -1.45206,1.063724 -1.45206,1.063724 z"
       id="path1686"
       inkscape:connector-curvature="0"
       inkscape:path-effect="#path-effect1688"
       inkscape:original-d="M 160.63988,85.711314 C 197.63845,136.2172 136.75658,137.99321 137.96131,187.38691" />
    <path
       style="opacity:0.252;fill:#aea335;fill-opacity:1;fill-rule:nonzero;stroke:none;stroke-width:3.59999967;stroke-linecap:square;stroke-linejoin:miter;stroke-miterlimit:4;stroke-dasharray:none;stroke-dashoffset:0;stroke-opacity:1"
       d="m 185.96428,84.577386 c 0,0 -0.70187,1.657521 -0.70187,1.657521 3.4522,1.461821 8.50931,3.411559 13.7898,5.540147 5.32334,2.145857 10.73383,4.453096 15.44944,7.176067 4.10979,2.373149 7.47257,4.929729 10.24433,7.899869 3.68813,3.95212 5.77499,8.0835 6.95342,11.36628 -1.17666,-3.27784 -2.98191,-7.51823 -6.41499,-11.83024 -2.58657,-3.24879 -5.79203,-6.16892 -9.81881,-8.95604 -4.61619,-3.195072 -9.94861,-5.95457 -15.19477,-8.438216 -4.75709,-2.252113 -10.60843,-4.804159 -13.60468,-6.072909 0,0 -0.70187,1.657521 -0.70187,1.657521 z"
       id="path1690"
       inkscape:connector-curvature="0"
       inkscape:path-effect="#path-effect1692"
       inkscape:original-d="m 185.96428,84.577386 c 22.96479,9.724343 39.17508,15.36548 45.73512,33.639884" />
    <path
       style="opacity:0.93562365;fill:#866c2b;fill-opacity:1;fill-rule:nonzero;stroke:#437745;stroke-width:3.59999967;stroke-linecap:square;stroke-linejoin:miter;stroke-miterlimit:4;stroke-dasharray:none;stroke-dashoffset:0;stroke-opacity:1"
       d="m 59.909225,235.76786 c -0.05169,-2.43721 -1.178789,-4.83231 -3.023809,-6.4256 -0.88112,-0.7609 -1.915986,-1.34301 -3.023809,-1.70089"
       id="path1694"
       inkscape:connector-curvature="0"
       inkscape:path-effect="#path-effect1696"
       inkscape:original-d="m 59.909225,235.76786 c -1.007671,-2.14213 -2.015609,-4.28399 -3.023809,-6.4256 -1.0082,-2.1416 -2.015609,-1.13419 -3.023809,-1.70089"
       transform="matrix(0.7586291,0,0,0.7586291,15.043205,72.588155)" />
    <path
       style="opacity:0.81979137;fill:none;fill-opacity:1;fill-rule:nonzero;stroke:#438b55;stroke-width:3.59999967;stroke-linecap:square;stroke-linejoin:miter;stroke-miterlimit:4;stroke-dasharray:none;stroke-dashoffset:0;stroke-opacity:1"
       d="m 71.815475,238.41369 c -1.203369,-3.54907 -0.996148,-7.55533 0.566965,-10.96131 1.20862,-2.63355 3.20708,-4.89847 5.669642,-6.42559"
       id="path1698"
       inkscape:connector-curvature="0"
       inkscape:path-effect="#path-effect1700"
       inkscape:original-d="m 71.815475,238.41369 c 0.189254,-3.59103 0.37824,-7.3078 0.566965,-10.96131 0.188722,-3.6535 3.780025,-4.28399 5.669642,-6.42559"
       transform="matrix(0.7586291,0,0,0.7586291,15.043205,72.588155)" />
    <path
       style="opacity:0.90589636;fill:none;fill-opacity:1;fill-rule:nonzero;stroke:#427545;stroke-width:3.59999967;stroke-linecap:square;stroke-linejoin:miter;stroke-miterlimit:4;stroke-dasharray:none;stroke-dashoffset:0;stroke-opacity:1"
       d="m 57.452381,206.66369 c 3.885776,4.46656 6.64012,9.90967 7.9375,15.68602 1.014473,4.51676 1.14362,9.2306 0.377976,13.79613"
       id="path1702"
       inkscape:connector-curvature="0"
       inkscape:path-effect="#path-effect1704"
       inkscape:original-d="m 57.452381,206.66369 c 2.646098,5.16541 5.291931,10.45708 7.9375,15.68602 2.645569,5.22893 0.252248,9.19715 0.377976,13.79613"
       transform="matrix(0.7586291,0,0,0.7586291,15.043205,72.588155)" />
    <path
       style="opacity:0.83810598;fill:none;fill-opacity:1;fill-rule:nonzero;stroke:#42814a;stroke-width:3.59999967;stroke-linecap:square;stroke-linejoin:miter;stroke-miterlimit:4;stroke-dasharray:none;stroke-dashoffset:0;stroke-opacity:1"
       d="m 65.200892,253.91072 c -4.980877,-3.70991 -8.842414,-8.90301 -10.961309,-14.74107 -2.918619,-8.04148 -2.429825,-17.25873 1.322916,-24.94643"
       id="path1706"
       inkscape:connector-curvature="0"
       inkscape:path-effect="#path-effect1708"
       inkscape:original-d="m 65.200892,253.91072 c -3.653505,-4.85096 -7.307276,-9.82765 -10.961309,-14.74107 -3.654034,-4.91343 0.882208,-16.63122 1.322916,-24.94643"
       transform="matrix(0.7586291,0,0,0.7586291,15.043205,72.588155)" />
    <path
       style="opacity:0.81147593;fill:none;fill-opacity:1;fill-rule:nonzero;stroke:#47844d;stroke-width:3.59999967;stroke-linecap:square;stroke-linejoin:miter;stroke-miterlimit:4;stroke-dasharray:none;stroke-dashoffset:0;stroke-opacity:1"
       d="m 72.571427,249.56399 c 3.64794,-8.49095 5.403477,-17.78879 5.10268,-27.0253 -0.240098,-7.37263 -1.782913,-14.701 -4.535715,-21.54464"
       id="path1710"
       inkscape:connector-curvature="0"
       inkscape:path-effect="#path-effect1712"
       inkscape:original-d="m 72.571427,249.56399 c 1.638162,-9.13469 3.402052,-18.01713 5.10268,-27.0253 1.700627,-9.00817 -3.023545,-14.36336 -4.535715,-21.54464"
       transform="matrix(0.7586291,0,0,0.7586291,15.043205,72.588155)" />
    <path
       style="opacity:0.90923366;fill:none;fill-opacity:1;fill-rule:nonzero;stroke:#457a4e;stroke-width:3.59999967;stroke-linecap:square;stroke-linejoin:miter;stroke-miterlimit:4;stroke-dasharray:none;stroke-dashoffset:0;stroke-opacity:1"
       d="m 48.191964,254.85566 c 0.318355,-0.0442 0.634078,-0.10734 0.944941,-0.18899 1.702241,-0.44711 3.248971,-1.46593 4.331836,-2.85336 1.082865,-1.38742 1.695504,-3.13529 1.715782,-4.89515"
       id="path1714"
       inkscape:connector-curvature="0"
       inkscape:path-effect="#path-effect1716"
       inkscape:original-d="m 48.191964,254.85566 c 0.252249,-2.7e-4 0.630225,-0.12626 0.944941,-0.18899 0.314714,-0.0627 4.032009,-5.16594 6.047618,-7.74851"
       transform="matrix(0.7586291,0,0,0.7586291,15.043205,72.588155)" />
    <path
       style="opacity:0.90072213;fill:none;fill-opacity:1;fill-rule:nonzero;stroke:#457f49;stroke-width:3.59999967;stroke-linecap:square;stroke-linejoin:miter;stroke-miterlimit:4;stroke-dasharray:none;stroke-dashoffset:0;stroke-opacity:1"
       d="m 44.223214,215.92411 c 0.119294,5.30066 -0.133516,10.60966 -0.755954,15.875 -0.541423,4.58002 -1.362401,9.12697 -2.456844,13.60714"
       id="path1718"
       inkscape:connector-curvature="0"
       inkscape:path-effect="#path-effect1720"
       inkscape:original-d="m 44.223214,215.92411 c -0.251719,5.2914 -0.503703,10.58307 -0.755954,15.875 -0.252248,5.29193 -1.63763,9.07116 -2.456844,13.60714"
       transform="matrix(0.7586291,0,0,0.7586291,15.043205,72.588155)" />
    <path
       style="opacity:0.80042707;fill:none;fill-opacity:1;fill-rule:nonzero;stroke:#438b48;stroke-width:3.59999967;stroke-linecap:square;stroke-linejoin:miter;stroke-miterlimit:4;stroke-dasharray:none;stroke-dashoffset:0;stroke-opacity:1"
       d="m 80.508926,251.83185 c 4.113932,-1.00204 7.858036,-3.45876 10.414895,-6.83382 2.55686,-3.37505 3.908278,-7.64442 3.759213,-11.876 -0.111117,-3.15434 -1.021191,-6.22184 -2.008215,-9.21983 -0.987024,-2.998 -2.063622,-5.99 -2.527498,-9.11202 -0.761442,-5.12472 0.206903,-10.491 2.711508,-15.02636 2.504605,-4.53537 6.530681,-8.21304 11.273611,-10.29804"
       id="path1726"
       inkscape:connector-curvature="0"
       inkscape:path-effect="#path-effect1728"
       inkscape:original-d="m 80.508926,251.83185 c 4.661972,-6.23687 9.449671,-12.47348 14.174108,-18.70982 4.724439,-6.23634 -3.023545,-12.2215 -4.535713,-18.33185 -1.51217,-6.11035 9.323676,-16.8832 13.985119,-25.3244"
       transform="matrix(0.7586291,0,0,0.7586291,15.043205,72.588155)" />
    <path
       style="opacity:0.8081072;fill:none;fill-opacity:1;fill-rule:nonzero;stroke:#468a43;stroke-width:3.59999967;stroke-linecap:square;stroke-linejoin:miter;stroke-miterlimit:4;stroke-dasharray:none;stroke-dashoffset:0;stroke-opacity:1"
       d="m 51.026784,163.95238 c 3.794815,1.80299 7.099857,4.62448 9.475843,8.08946 2.375986,3.46498 3.816926,7.56471 4.1313,11.75429 0.316947,4.22386 -0.488637,8.44485 -1.368306,12.58824 -0.879669,4.14339 -1.842254,8.31144 -1.84449,12.54718 -0.0036,6.83262 2.607176,13.6344 7.181546,18.70982"
       id="path1730"
       inkscape:connector-curvature="0"
       inkscape:path-effect="#path-effect1732"
       inkscape:original-d="m 51.026784,163.95238 c 4.472983,6.55133 9.071695,13.22891 13.607143,19.84375 4.53545,6.61485 -2.141599,16.75669 -3.212796,25.13542 -1.071197,8.37874 4.787963,12.47295 7.181546,18.70982"
       transform="matrix(0.7586291,0,0,0.7586291,17.337155,84.918135)" />
    <path
       style="opacity:0.78534061;fill:none;fill-opacity:1;fill-rule:nonzero;stroke:#3b7f3f;stroke-width:3.59999967;stroke-linecap:square;stroke-linejoin:miter;stroke-miterlimit:4;stroke-dasharray:none;stroke-dashoffset:0;stroke-opacity:1"
       d="m 73.327381,217.81399 c 4.229887,-2.24887 7.366436,-6.4547 8.315475,-11.1503 1.053806,-5.21396 -0.484321,-10.56255 -0.755951,-15.875 -0.281736,-5.51011 0.83346,-11.08609 3.212796,-16.06398"
       id="path1734"
       inkscape:connector-curvature="0"
       inkscape:path-effect="#path-effect1736"
       inkscape:original-d="m 73.327381,217.81399 c 2.709092,-3.59104 5.543915,-7.4338 8.315475,-11.1503 2.771561,-3.7165 -0.503703,-10.5836 -0.755951,-15.875 -0.252249,-5.2914 2.142127,-10.70959 3.212796,-16.06398"
       transform="matrix(0.7586291,0,0,0.7586291,15.043205,72.588155)" />
    <path
       style="opacity:0.944;fill:#31a2b0;fill-opacity:1;fill-rule:nonzero;stroke:none;stroke-width:3.59999967;stroke-linecap:square;stroke-linejoin:miter;stroke-miterlimit:4;stroke-dasharray:none;stroke-dashoffset:0;stroke-opacity:1"
       d="m -61.610119,162.81845 c 19.067223,-24.41959 46.752811,-41.96808 76.97426,-48.79008 30.221448,-6.822 62.760802,-2.8683 90.469189,10.99247 12.1891,6.09744 23.37607,13.98915 35.05143,21.02043 11.67536,7.03129 24.09504,13.29305 37.52,15.64326 11.57825,2.02692 23.47219,1.06737 35.10852,-0.59397 11.63633,-1.66134 23.19459,-4.0201 34.92362,-4.79095 11.72902,-0.77086 23.80142,0.11841 34.61932,4.71593 5.40896,2.29876 10.45286,5.51875 14.62129,9.66184 4.16844,4.14309 7.4455,9.22287 9.23914,14.81965 1.89454,5.91161 2.10765,12.2267 1.91551,18.43149 -0.19214,6.2048 -0.77292,12.4134 -0.40359,18.61017 0.15981,2.68127 0.49162,5.4234 -0.21402,8.01508 -0.35282,1.29585 -0.97323,2.53627 -1.91,3.49864 -0.93676,0.96237 -2.20535,1.62975 -3.54563,1.71545 -1.5591,0.0997 -3.08409,-0.58199 -4.31693,-1.5416 -1.23283,-0.9596 -2.22429,-2.18728 -3.24259,-3.37209 -10.23055,-11.9034 -24.19526,-20.34197 -39.1963,-24.95977 -15.00103,-4.6178 -31.00694,-5.52082 -46.60429,-3.76642 -10.83919,1.2192 -21.60257,3.70303 -32.50595,3.40179 -17.47858,-0.48291 -33.94462,-8.06625 -49.2194,-16.57595 -15.27478,-8.5097 -30.128782,-18.17422 -46.786555,-23.48953 -18.718194,-5.97277 -38.788726,-6.14149 -58.389604,-4.78122 -19.6008771,1.36027 -39.135714,4.1934 -58.783015,4.02527 -8.470768,-0.0725 -16.936707,-0.70428 -25.324405,-1.88989 z"
       id="path1740"
       inkscape:connector-curvature="0"
       inkscape:path-effect="#path-effect1742"
       inkscape:original-d="m -61.610119,162.81845 c 35.908003,4.15748 131.535977,-41.95561 167.443449,-37.79761 35.90748,4.158 48.38122,24.44219 72.57143,36.66369 24.19021,12.22149 87.18677,15.37077 128.51189,23.8125 41.32514,8.44173 0.75622,25.19815 1.51192,37.04166 0.75568,11.84352 -5.03941,8.81918 -5.66965,13.22917 -0.63021,4.40999 -5.03941,-3.27606 -7.55952,-4.91369 -2.5201,-1.63763 -57.20013,-19.15106 -85.80059,-28.72619 -28.60047,-9.57513 -21.67037,2.26759 -32.50595,3.40179 -10.83559,1.13419 -63.11412,-51.04838 -96.005955,-40.06548 -73.2016558,24.44273 -95.119324,16.44874 -117.172619,-0.75595 -10.174106,-7.93724 -25.702117,15.74874 -25.324405,-1.88989 z"
       transform="translate(-0.37797619,1.1339286)"
       sodipodi:nodetypes="cssscccscssc" />
    <path
       style="opacity:0.944;fill:none;fill-opacity:1;fill-rule:nonzero;stroke:#000000;stroke-width:4.8;stroke-linecap:square;stroke-linejoin:miter;stroke-miterlimit:4;stroke-dasharray:none;stroke-dashoffset:0;stroke-opacity:1;filter:url(#filter1832)"
       d="m -11.717262,144.6756 c 21.0954832,-7.44583 44.011679,-9.67198 66.145834,-6.42559 24.253252,3.55719 47.123448,13.4851 68.791668,24.94642 14.94021,7.90256 29.84667,16.71802 46.49107,19.65476 15.44032,2.72429 31.24573,0.18414 46.86904,-1.13392 13.22907,-1.11607 26.64418,-1.34107 39.6875,1.13392 18.70564,3.54943 36.30144,12.74723 49.89287,26.08036"
       id="path1744"
       inkscape:connector-curvature="0"
       inkscape:path-effect="#path-effect1746"
       inkscape:original-d="m -11.717262,144.6756 c 22.048876,-2.39411 44.097486,-4.284 66.145834,-6.42559 22.048345,-2.14161 45.861378,16.63068 68.791668,24.94642 22.93029,8.31574 30.99431,13.10291 46.49107,19.65476 15.49676,6.55186 31.24629,-0.75621 46.86904,-1.13392 15.62276,-0.37772 26.4586,0.75568 39.6875,1.13392 13.2289,0.37825 33.26217,17.38664 49.89287,26.08036" />
    <rect
       style="opacity:0.944;fill:url(#radialGradient1854);fill-opacity:1;fill-rule:nonzero;stroke:none;stroke-width:5.88193226;stroke-linecap:square;stroke-linejoin:miter;stroke-miterlimit:4;stroke-dasharray:none;stroke-dashoffset:0;stroke-opacity:1"
       id="rect1846"
       width="517.82739"
       height="390.918"
       x="27.234629"
       y="-200.58705" />
    <path
       style="opacity:0.342;fill:#fce42c;fill-opacity:1;fill-rule:nonzero;stroke:url(#linearGradient1874);stroke-width:4.80000019;stroke-linecap:round;stroke-linejoin:miter;stroke-miterlimit:4;stroke-dasharray:none;stroke-dashoffset:0;stroke-opacity:0.3705357"
       d="m 127.37797,116.32738 -50.648804,20.7887"
       id="path1856"
       inkscape:connector-curvature="0"
       inkscape:path-effect="#path-effect1858"
       inkscape:original-d="m 127.37797,116.32738 c -16.88267,6.80331 -33.765604,13.85887 -50.648804,20.7887"
       transform="rotate(14.604509,193.4184,91.029337)" />
    <path
       transform="rotate(-7.7513615,307.59642,-156.41095)"
       style="opacity:0.342;fill:#fce42c;fill-opacity:1;fill-rule:nonzero;stroke:url(#linearGradient1902);stroke-width:4.80000019;stroke-linecap:round;stroke-linejoin:miter;stroke-miterlimit:4;stroke-dasharray:none;stroke-dashoffset:0;stroke-opacity:0.3705357"
       d="m 127.37797,116.32738 -50.648804,20.7887"
       id="path1856-2"
       inkscape:connector-curvature="0"
       inkscape:path-effect="#path-effect1858-9"
       inkscape:original-d="m 127.37797,116.32738 c -16.88267,6.80331 -33.765604,13.85887 -50.648804,20.7887" />
    <path
       transform="rotate(-38.247534,247.34208,-46.18763)"
       style="opacity:0.342;fill:#fce42c;fill-opacity:1;fill-rule:nonzero;stroke:url(#linearGradient1902-8);stroke-width:4.80000019;stroke-linecap:round;stroke-linejoin:miter;stroke-miterlimit:4;stroke-dasharray:none;stroke-dashoffset:0;stroke-opacity:0.3705357"
       d="m 127.37797,116.32738 -50.648804,20.7887"
       id="path1856-2-1"
       inkscape:connector-curvature="0"
       inkscape:path-effect="#path-effect1858-9-1"
       inkscape:original-d="m 127.37797,116.32738 c -16.88267,6.80331 -33.765604,13.85887 -50.648804,20.7887"
       inkscape:transform-center-x="1.2448111"
       inkscape:transform-center-y="1.6104488" />
    <ellipse
       style="opacity:0.425;fill:none;fill-opacity:1;fill-rule:nonzero;stroke:#ff0505;stroke-width:2.41300011;stroke-linecap:round;stroke-linejoin:miter;stroke-miterlimit:4;stroke-dasharray:none;stroke-dashoffset:0;stroke-opacity:0.3705357"
       id="path1931"
       cx="40.491322"
       cy="206.12102"
       rx="20.205227"
       ry="17.406233" />
    <path
       style="opacity:0.425;fill:none;fill-opacity:1;fill-rule:nonzero;stroke:#000000;stroke-width:2.41299987;stroke-linecap:round;stroke-linejoin:miter;stroke-miterlimit:4;stroke-dasharray:none;stroke-dashoffset:0;stroke-opacity:0.3705357"
       d="M 60.269278,205.72746 H 38.754081 l 18.14426,10.47559"
       id="path1933"
       inkscape:connector-curvature="0" />
    <path
       style="opacity:0.425;fill:none;fill-opacity:1;fill-rule:nonzero;stroke:#000000;stroke-width:2.41299997;stroke-linecap:round;stroke-linejoin:miter;stroke-miterlimit:4;stroke-dasharray:2.41299997,7.23899991;stroke-dashoffset:0;stroke-opacity:0.3705357"
       d="m 57.195677,217.08641 74.568193,43.29767"
       id="path1935"
       inkscape:connector-curvature="0" />
    <ellipse
       style="opacity:0.425;fill:none;fill-opacity:1;fill-rule:nonzero;stroke:#ff0505;stroke-width:2.41300011;stroke-linecap:round;stroke-linejoin:miter;stroke-miterlimit:4;stroke-dasharray:none;stroke-dashoffset:0;stroke-opacity:0.3705357"
       id="path1931-4"
       cx="132.83296"
       cy="259.71588"
       rx="20.205227"
       ry="17.406233" />
    <path
       style="opacity:0.425;fill:none;fill-opacity:1;fill-rule:nonzero;stroke:#000000;stroke-width:2.41299987;stroke-linecap:round;stroke-linejoin:miter;stroke-miterlimit:4;stroke-dasharray:none;stroke-dashoffset:0;stroke-opacity:0.3705357"
       d="m 133.92103,260.43943 h 19.10976"
       id="path1967"
       inkscape:connector-curvature="0" />
    <path
       inkscape:connector-curvature="0"
       id="path1969"
       d="m 133.45295,260.08754 13.32043,-13.70216"
       style="opacity:0.425;fill:none;fill-opacity:1;fill-rule:nonzero;stroke:#000000;stroke-width:2.41299987;stroke-linecap:round;stroke-linejoin:miter;stroke-miterlimit:4;stroke-dasharray:none;stroke-dashoffset:0;stroke-opacity:0.3705357"
       inkscape:transform-center-x="-6.842612"
       inkscape:transform-center-y="-7.580951" />
    <path
       inkscape:connector-curvature="0"
       id="path1969-2"
       d="M 80.736924,322.29268 130.40601,263.42196"
       style="opacity:0.425;fill:none;fill-opacity:1;fill-rule:nonzero;stroke:#000000;stroke-width:2.41300022;stroke-linecap:round;stroke-linejoin:miter;stroke-miterlimit:4;stroke-dasharray:2.41300022,7.23900067;stroke-dashoffset:0;stroke-opacity:0.3705357"
       inkscape:transform-center-x="-6.842612"
       inkscape:transform-center-y="-7.580951"
       sodipodi:nodetypes="cc" />
  </g>
</svg>
