<?xml version="1.0" encoding="UTF-8" standalone="no"?>
<!-- Created with Inkscape (http://www.inkscape.org/) -->

<svg
   xmlns:ns1="http://www.iki.fi/pav/software/textext/"
   xmlns:dc="http://purl.org/dc/elements/1.1/"
   xmlns:cc="http://creativecommons.org/ns#"
   xmlns:rdf="http://www.w3.org/1999/02/22-rdf-syntax-ns#"
   xmlns:svg="http://www.w3.org/2000/svg"
   xmlns="http://www.w3.org/2000/svg"
   xmlns:xlink="http://www.w3.org/1999/xlink"
   xmlns:sodipodi="http://sodipodi.sourceforge.net/DTD/sodipodi-0.dtd"
   xmlns:inkscape="http://www.inkscape.org/namespaces/inkscape"
   width="210mm"
   height="297mm"
   viewBox="0 0 210 297"
   version="1.1"
   id="svg8"
   inkscape:version="0.92.4 (5da689c313, 2019-01-14)"
   sodipodi:docname="Darts.svg">
  <defs
     id="defs2">
    <marker
       inkscape:stockid="StopM"
       orient="auto"
       refY="0.0"
       refX="0.0"
       id="marker1186"
       style="overflow:visible"
       inkscape:isstock="true">
      <path
         id="path1184"
         d="M 0.0,5.65 L 0.0,-5.65"
         style="fill:#ee0000;fill-opacity:1;fill-rule:evenodd;stroke:#fc0000;stroke-width:1pt;stroke-opacity:1"
         transform="scale(0.4)" />
    </marker>
    <marker
       inkscape:stockid="TriangleInS"
       orient="auto"
       refY="0.0"
       refX="0.0"
       id="TriangleInS"
       style="overflow:visible"
       inkscape:isstock="true">
      <path
         id="path1009"
         d="M 5.77,0.0 L -2.88,5.0 L -2.88,-5.0 L 5.77,0.0 z "
         style="fill-rule:evenodd;stroke:#fc0000;stroke-width:1pt;stroke-opacity:1;fill:#ee0000;fill-opacity:1"
         transform="scale(-0.2)" />
    </marker>
    <marker
       inkscape:stockid="StopM"
       orient="auto"
       refY="0.0"
       refX="0.0"
       id="StopM"
       style="overflow:visible"
       inkscape:isstock="true">
      <path
         id="path1042"
         d="M 0.0,5.65 L 0.0,-5.65"
         style="fill:#ee0000;fill-opacity:1;fill-rule:evenodd;stroke:#fc0000;stroke-width:1pt;stroke-opacity:1"
         transform="scale(0.4)" />
    </marker>
    <linearGradient
       inkscape:collect="always"
       id="linearGradient833">
      <stop
         style="stop-color:#e7e7e7;stop-opacity:1;"
         offset="0"
         id="stop829" />
      <stop
         style="stop-color:#d2d2d2;stop-opacity:1"
         offset="1"
         id="stop831" />
    </linearGradient>
    <linearGradient
       inkscape:collect="always"
       id="linearGradient825">
      <stop
         style="stop-color:#79bc84;stop-opacity:1;"
         offset="0"
         id="stop821" />
      <stop
         style="stop-color:#5dae6a;stop-opacity:1"
         offset="1"
         id="stop823" />
    </linearGradient>
    <linearGradient
       inkscape:collect="always"
       xlink:href="#linearGradient825"
       id="linearGradient827"
       x1="71.8209"
       y1="99.643028"
       x2="129.72661"
       y2="106.39177"
       gradientUnits="userSpaceOnUse"
       gradientTransform="translate(0.13363477)" />
    <linearGradient
       inkscape:collect="always"
       xlink:href="#linearGradient833"
       id="linearGradient835"
       x1="45.786793"
       y1="143.15193"
       x2="148.37732"
       y2="69.352089"
       gradientUnits="userSpaceOnUse"
       gradientTransform="translate(0.66817382,0.96885204)" />
    <linearGradient
       inkscape:collect="always"
       xlink:href="#linearGradient825"
       id="linearGradient936"
       gradientUnits="userSpaceOnUse"
       gradientTransform="translate(145.65447,-6.2366071)"
       x1="71.8209"
       y1="99.643028"
       x2="129.72661"
       y2="106.39177" />
  </defs>
  <sodipodi:namedview
     id="base"
     pagecolor="#ffffff"
     bordercolor="#666666"
     borderopacity="1.0"
     inkscape:pageopacity="0.0"
     inkscape:pageshadow="2"
     inkscape:zoom="2.8"
     inkscape:cx="933.42"
     inkscape:cy="779.77502"
     inkscape:document-units="mm"
     inkscape:current-layer="layer1"
     showgrid="false"
     inkscape:snap-global="false"
     inkscape:window-width="1920"
     inkscape:window-height="1017"
     inkscape:window-x="-8"
     inkscape:window-y="-8"
     inkscape:window-maximized="1" />
  <metadata
     id="metadata5">
    <rdf:RDF>
      <cc:Work
         rdf:about="">
        <dc:format>image/svg+xml</dc:format>
        <dc:type
           rdf:resource="http://purl.org/dc/dcmitype/StillImage" />
        <dc:title />
      </cc:Work>
    </rdf:RDF>
  </metadata>
  <g
     inkscape:label="Layer 1"
     inkscape:groupmode="layer"
     id="layer1">
    <rect
       style="opacity:1;fill:url(#linearGradient835);fill-opacity:1;stroke:#012200;stroke-width:0.243;stroke-linecap:round;stroke-miterlimit:4;stroke-dasharray:none;stroke-dashoffset:0;stroke-opacity:1"
       id="rect815"
       width="111.98593"
       height="94.613411"
       x="46.103996"
       y="57.693546" />
    <rect
       style="opacity:1;fill:url(#linearGradient827);fill-opacity:1;stroke:#012200;stroke-width:0.14630875;stroke-linecap:round;stroke-miterlimit:4;stroke-dasharray:none;stroke-dashoffset:0;stroke-opacity:1"
       id="rect817"
       width="58.116035"
       height="7.0718846"
       x="71.744202"
       y="99.319885" />
    <circle
       style="opacity:1;fill:#e05555;fill-opacity:1;stroke:#012200;stroke-width:0.10309582;stroke-linecap:round;stroke-miterlimit:4;stroke-dasharray:none;stroke-dashoffset:0;stroke-opacity:1"
       id="path819"
       cx="100.19266"
       cy="102.79528"
       r="2.0410645" />
    <circle
       r="0.53767335"
       cy="102.76187"
       cx="100.22811"
       id="circle837"
       style="opacity:1;fill:#ffffff;fill-opacity:1;stroke:none;stroke-width:0.02715832;stroke-linecap:round;stroke-miterlimit:4;stroke-dasharray:none;stroke-dashoffset:0;stroke-opacity:1" />
    <g
       id="g866"
       transform="translate(0.94494051,-0.47247022)">
      <path
         inkscape:connector-curvature="0"
         id="path849"
         d="m 105.57347,103.39351 1.25795,-0.75596 -1.06896,0.99219"
         style="opacity:1;fill:#3e3e3e;fill-opacity:1;stroke:none;stroke-width:0.34299999;stroke-linecap:butt;stroke-miterlimit:4;stroke-dasharray:none;stroke-dashoffset:0;stroke-opacity:1" />
      <path
         inkscape:connector-curvature="0"
         id="path839"
         d="m 102.76227,105.46056 2.92932,-1.98437"
         style="opacity:1;fill:none;fill-opacity:1;stroke:#000000;stroke-width:0.84299999;stroke-linecap:butt;stroke-miterlimit:4;stroke-dasharray:none;stroke-dashoffset:0;stroke-opacity:1" />
      <g
         id="g858">
        <path
           inkscape:connector-curvature="0"
           id="path847"
           d="m 101.69921,106.12202 2.92932,-1.98437"
           style="opacity:1;fill:none;fill-opacity:1;stroke:#000000;stroke-width:0.34299999;stroke-linecap:butt;stroke-miterlimit:4;stroke-dasharray:none;stroke-dashoffset:0;stroke-opacity:1" />
        <path
           style="opacity:1;fill:#ebebeb;fill-opacity:1;stroke:none;stroke-width:0.34299999;stroke-linecap:butt;stroke-miterlimit:4;stroke-dasharray:none;stroke-dashoffset:0;stroke-opacity:1"
           d="m 102.39118,105.46508 -0.84738,-0.1629 -0.33994,0.2883 0.0811,0.31048 0.36307,0.19771 0.77336,-0.59024 z"
           id="path851"
           inkscape:connector-curvature="0" />
        <path
           inkscape:connector-curvature="0"
           id="path853"
           d="m 101.8209,106.30079 0.84377,0.18073 0.34594,-0.28108 -0.0746,-0.31209 -0.3588,-0.20531 -0.78563,0.57379 z"
           style="opacity:1;fill:#ebebeb;fill-opacity:1;stroke:none;stroke-width:0.34299999;stroke-linecap:butt;stroke-miterlimit:4;stroke-dasharray:none;stroke-dashoffset:0;stroke-opacity:1" />
      </g>
    </g>
    <path
       style="opacity:1;fill:#ee0000;fill-opacity:1;stroke:#fc0000;stroke-width:0.2;stroke-linecap:butt;stroke-miterlimit:4;stroke-dasharray:0.6, 0.6;stroke-dashoffset:0;stroke-opacity:1;marker-start:url(#StopM);marker-end:url(#marker1186)"
       d="m 100.29862,96.858317 7.57542,0.0084"
       id="path868"
       inkscape:connector-curvature="0"
       sodipodi:nodetypes="cc" />
    <path
       style="opacity:1;fill:#ee0000;fill-opacity:1;stroke:#000000;stroke-width:0.15;stroke-linecap:butt;stroke-miterlimit:4;stroke-dasharray:0.3, 0.14999999999999999, 0.07500000000000000, 0.14999999999999999;stroke-dashoffset:0;stroke-opacity:0.48333332"
       d="M 100.32905,102.74386 V 97.641181"
       id="path1296"
       inkscape:connector-curvature="0" />
    <path
       inkscape:connector-curvature="0"
       id="path1370"
       d="m 107.86495,102.05878 0,-4.677458"
       style="opacity:1;fill:#ee0000;fill-opacity:1;stroke:#000000;stroke-width:0.15000001;stroke-linecap:butt;stroke-miterlimit:4;stroke-dasharray:0.3, 0.15, 0.075, 0.15;stroke-dashoffset:0;stroke-opacity:0.48333333"
       sodipodi:nodetypes="cc" />
    <g
       id="g1570"
       ns1:jacobian_sqrt="1.112388"
       ns1:alignment="middle center"
       ns1:scale="3.15322550306"
       ns1:preamble="C:\\Users\\Buster\\AppData\\Roaming\\inkscape\\extensions\\textext\\default_packages.tex"
       ns1:text="$5cm$"
       ns1:pdfconverter="pdf2svg"
       ns1:texconverter="pdflatex"
       ns1:version="0.11.0"
       transform="matrix(0.27404747,0,0,0.27404747,60.876931,59.102326)">
      <g
         id="surface1">
        <g
           id="g1561"
           style="fill:#000000;fill-opacity:1">
          <path
             id="path1559"
             transform="translate(148.712,134.765)"
             d="m 4.46875,-2 c 0,-1.1875 -0.8125,-2.1875 -1.890625,-2.1875 -0.46875,0 -0.90625,0.15625 -1.265625,0.515625 V -5.625 c 0.203125,0.0625 0.53125,0.125 0.84375,0.125 1.234375,0 1.9375,-0.90625 1.9375,-1.03125 0,-0.0625 -0.03125,-0.109375 -0.109375,-0.109375 0,0 -0.03125,0 -0.078125,0.03125 C 3.703125,-6.515625 3.21875,-6.3125 2.546875,-6.3125 2.15625,-6.3125 1.6875,-6.390625 1.21875,-6.59375 1.140625,-6.625 1.125,-6.625 1.109375,-6.625 1,-6.625 1,-6.546875 1,-6.390625 V -3.4375 c 0,0.171875 0,0.25 0.140625,0.25 0.078125,0 0.09375,-0.015625 0.140625,-0.078125 C 1.390625,-3.421875 1.75,-3.96875 2.5625,-3.96875 c 0.515625,0 0.765625,0.453125 0.84375,0.640625 0.15625,0.375 0.1875,0.75 0.1875,1.25 0,0.359375 0,0.953125 -0.25,1.375 C 3.109375,-0.3125 2.734375,-0.0625 2.28125,-0.0625 c -0.71875,0 -1.296875,-0.53125 -1.46875,-1.109375 0.03125,0 0.0625,0.015625 0.171875,0.015625 0.328125,0 0.5,-0.25 0.5,-0.484375 0,-0.25 -0.171875,-0.5 -0.5,-0.5 C 0.84375,-2.140625 0.5,-2.0625 0.5,-1.609375 0.5,-0.75 1.1875,0.21875 2.296875,0.21875 3.453125,0.21875 4.46875,-0.734375 4.46875,-2 Z m 0,0"
             style="stroke:none;stroke-width:0"
             inkscape:connector-curvature="0" />
        </g>
        <g
           id="g1567"
           style="fill:#000000;fill-opacity:1">
          <path
             id="path1563"
             transform="translate(153.694,134.765)"
             d="m 3.953125,-3.78125 c -0.171875,0 -0.296875,0 -0.4375,0.125 -0.171875,0.15625 -0.1875,0.328125 -0.1875,0.390625 0,0.25 0.1875,0.359375 0.375,0.359375 0.28125,0 0.546875,-0.25 0.546875,-0.640625 0,-0.484375 -0.46875,-0.859375 -1.171875,-0.859375 -1.34375,0 -2.671875,1.421875 -2.671875,2.828125 0,0.90625 0.578125,1.6875 1.625,1.6875 1.421875,0 2.25,-1.0625 2.25,-1.171875 0,-0.0625 -0.046875,-0.140625 -0.109375,-0.140625 -0.0625,0 -0.078125,0.03125 -0.140625,0.109375 -0.78125,0.984375 -1.875,0.984375 -1.984375,0.984375 -0.625,0 -0.90625,-0.484375 -0.90625,-1.09375 0,-0.40625 0.203125,-1.375 0.546875,-1.984375 0.3125,-0.578125 0.859375,-1 1.40625,-1 0.328125,0 0.71875,0.125 0.859375,0.40625 z m 0,0"
             style="stroke:none;stroke-width:0"
             inkscape:connector-curvature="0" />
          <path
             id="path1565"
             transform="translate(158.00581,134.765)"
             d="m 0.875,-0.59375 c -0.03125,0.15625 -0.09375,0.390625 -0.09375,0.4375 0,0.171875 0.140625,0.265625 0.296875,0.265625 0.125,0 0.296875,-0.078125 0.375,-0.28125 0,-0.015625 0.125,-0.484375 0.1875,-0.734375 l 0.21875,-0.890625 C 1.90625,-2.03125 1.96875,-2.25 2.03125,-2.46875 c 0.03125,-0.171875 0.109375,-0.46875 0.125,-0.5 0.140625,-0.3125 0.671875,-1.21875 1.625,-1.21875 0.453125,0 0.53125,0.375 0.53125,0.703125 0,0.25 -0.0625,0.53125 -0.140625,0.828125 L 3.890625,-1.5 3.6875,-0.75 c -0.03125,0.203125 -0.125,0.546875 -0.125,0.59375 0,0.171875 0.140625,0.265625 0.28125,0.265625 0.3125,0 0.375,-0.25 0.453125,-0.5625 0.140625,-0.5625 0.515625,-2.015625 0.59375,-2.40625 0.03125,-0.125 0.5625,-1.328125 1.65625,-1.328125 0.421875,0 0.53125,0.34375 0.53125,0.703125 0,0.5625 -0.421875,1.703125 -0.625,2.234375 -0.078125,0.234375 -0.125,0.34375 -0.125,0.546875 0,0.46875 0.34375,0.8125 0.8125,0.8125 0.9375,0 1.3125,-1.453125 1.3125,-1.53125 0,-0.109375 -0.09375,-0.109375 -0.125,-0.109375 -0.09375,0 -0.09375,0.03125 -0.140625,0.1875 -0.15625,0.53125 -0.46875,1.234375 -1.015625,1.234375 -0.171875,0 -0.25,-0.09375 -0.25,-0.328125 0,-0.25 0.09375,-0.484375 0.1875,-0.703125 0.1875,-0.53125 0.609375,-1.625 0.609375,-2.203125 0,-0.640625 -0.40625,-1.0625 -1.15625,-1.0625 -0.734375,0 -1.25,0.4375 -1.625,0.96875 0,-0.125 -0.03125,-0.46875 -0.3125,-0.703125 -0.25,-0.21875 -0.5625,-0.265625 -0.8125,-0.265625 -0.90625,0 -1.390625,0.640625 -1.5625,0.875 -0.046875,-0.578125 -0.46875,-0.875 -0.921875,-0.875 -0.453125,0 -0.640625,0.390625 -0.734375,0.5625 -0.171875,0.359375 -0.296875,0.9375 -0.296875,0.96875 0,0.109375 0.09375,0.109375 0.109375,0.109375 0.109375,0 0.109375,-0.015625 0.171875,-0.234375 0.171875,-0.703125 0.375,-1.1875 0.734375,-1.1875 0.15625,0 0.296875,0.078125 0.296875,0.453125 0,0.21875 -0.03125,0.328125 -0.15625,0.84375 z m 0,0"
             style="stroke:none;stroke-width:0"
             inkscape:connector-curvature="0" />
        </g>
      </g>
    </g>
    <rect
       style="opacity:1;fill:none;fill-opacity:1;stroke:none;stroke-width:0.14999999;stroke-linecap:butt;stroke-miterlimit:4;stroke-dasharray:0.3, 0.14999999999999999, 0.07500000000000000, 0.14999999999999999;stroke-dashoffset:0;stroke-opacity:0.48333333"
       id="rect1581"
       width="67.01783"
       height="24.388344"
       x="67.619186"
       y="88.930664" />
    <rect
       style="opacity:1;fill:none;fill-opacity:1;stroke:none;stroke-width:0.1435377;stroke-linecap:butt;stroke-miterlimit:4;stroke-dasharray:0.2870754, 0.1435377, 0.07176885, 0.1435377;stroke-dashoffset:0;stroke-opacity:0.48333333"
       id="rect1583"
       width="68.88871"
       height="24.722429"
       x="66.951019"
       y="89.598831"
       inkscape:export-xdpi="369.44809"
       inkscape:export-ydpi="369.44809" />
    <rect
       y="93.083275"
       x="217.26503"
       height="7.0718846"
       width="58.116035"
       id="rect890"
       style="opacity:1;fill:url(#linearGradient936);fill-opacity:1;stroke:#012200;stroke-width:0.14630875;stroke-linecap:round;stroke-miterlimit:4;stroke-dasharray:none;stroke-dashoffset:0;stroke-opacity:1"
       inkscape:export-filename="C:\Users\Buster\Desktop\Google drive\vigtigt\kreativt\Matematik\Min bog\Hjemmeside\Assets\Chapter4\KontinuerligProb\Darts.png"
       inkscape:export-xdpi="392.36325"
       inkscape:export-ydpi="392.36325" />
    <circle
       r="2.0410645"
       cy="96.55867"
       cx="245.71349"
       id="circle892"
       style="opacity:1;fill:#e05555;fill-opacity:1;stroke:#012200;stroke-width:0.10309582;stroke-linecap:round;stroke-miterlimit:4;stroke-dasharray:none;stroke-dashoffset:0;stroke-opacity:1"
       inkscape:export-filename="C:\Users\Buster\Desktop\Google drive\vigtigt\kreativt\Matematik\Min bog\Hjemmeside\Assets\Chapter4\KontinuerligProb\Darts.png"
       inkscape:export-xdpi="392.36325"
       inkscape:export-ydpi="392.36325" />
    <circle
       style="opacity:1;fill:#ffffff;fill-opacity:1;stroke:none;stroke-width:0.02715832;stroke-linecap:round;stroke-miterlimit:4;stroke-dasharray:none;stroke-dashoffset:0;stroke-opacity:1"
       id="circle894"
       cx="245.74895"
       cy="96.525261"
       r="0.53767335"
       inkscape:export-filename="C:\Users\Buster\Desktop\Google drive\vigtigt\kreativt\Matematik\Min bog\Hjemmeside\Assets\Chapter4\KontinuerligProb\Darts.png"
       inkscape:export-xdpi="392.36325"
       inkscape:export-ydpi="392.36325" />
    <g
       transform="translate(146.46577,-6.7090773)"
       id="g908"
       inkscape:export-filename="C:\Users\Buster\Desktop\Google drive\vigtigt\kreativt\Matematik\Min bog\Hjemmeside\Assets\Chapter4\KontinuerligProb\Darts.png"
       inkscape:export-xdpi="392.36325"
       inkscape:export-ydpi="392.36325">
      <path
         style="opacity:1;fill:#3e3e3e;fill-opacity:1;stroke:none;stroke-width:0.34299999;stroke-linecap:butt;stroke-miterlimit:4;stroke-dasharray:none;stroke-dashoffset:0;stroke-opacity:1"
         d="m 105.57347,103.39351 1.25795,-0.75596 -1.06896,0.99219"
         id="path896"
         inkscape:connector-curvature="0" />
      <path
         style="opacity:1;fill:none;fill-opacity:1;stroke:#000000;stroke-width:0.84299999;stroke-linecap:butt;stroke-miterlimit:4;stroke-dasharray:none;stroke-dashoffset:0;stroke-opacity:1"
         d="m 102.76227,105.46056 2.92932,-1.98437"
         id="path898"
         inkscape:connector-curvature="0" />
      <g
         id="g906">
        <path
           style="opacity:1;fill:none;fill-opacity:1;stroke:#000000;stroke-width:0.34299999;stroke-linecap:butt;stroke-miterlimit:4;stroke-dasharray:none;stroke-dashoffset:0;stroke-opacity:1"
           d="m 101.69921,106.12202 2.92932,-1.98437"
           id="path900"
           inkscape:connector-curvature="0" />
        <path
           inkscape:connector-curvature="0"
           id="path902"
           d="m 102.39118,105.46508 -0.84738,-0.1629 -0.33994,0.2883 0.0811,0.31048 0.36307,0.19771 0.77336,-0.59024 z"
           style="opacity:1;fill:#ebebeb;fill-opacity:1;stroke:none;stroke-width:0.34299999;stroke-linecap:butt;stroke-miterlimit:4;stroke-dasharray:none;stroke-dashoffset:0;stroke-opacity:1" />
        <path
           style="opacity:1;fill:#ebebeb;fill-opacity:1;stroke:none;stroke-width:0.34299999;stroke-linecap:butt;stroke-miterlimit:4;stroke-dasharray:none;stroke-dashoffset:0;stroke-opacity:1"
           d="m 101.8209,106.30079 0.84377,0.18073 0.34594,-0.28108 -0.0746,-0.31209 -0.3588,-0.20531 -0.78563,0.57379 z"
           id="path904"
           inkscape:connector-curvature="0" />
      </g>
    </g>
    <path
       sodipodi:nodetypes="cc"
       inkscape:connector-curvature="0"
       id="path910"
       d="m 245.81945,90.62171 7.57542,0.0084"
       style="opacity:1;fill:#ee0000;fill-opacity:1;stroke:#fc0000;stroke-width:0.2;stroke-linecap:butt;stroke-miterlimit:4;stroke-dasharray:0.6, 0.6;stroke-dashoffset:0;stroke-opacity:1;marker-start:url(#StopM);marker-end:url(#marker1186)"
       inkscape:export-filename="C:\Users\Buster\Desktop\Google drive\vigtigt\kreativt\Matematik\Min bog\Hjemmeside\Assets\Chapter4\KontinuerligProb\Darts.png"
       inkscape:export-xdpi="392.36325"
       inkscape:export-ydpi="392.36325" />
    <path
       inkscape:connector-curvature="0"
       id="path912"
       d="M 245.84988,96.507253 V 91.404574"
       style="opacity:1;fill:#ee0000;fill-opacity:1;stroke:#000000;stroke-width:0.15000001;stroke-linecap:butt;stroke-miterlimit:4;stroke-dasharray:0.3, 0.15, 0.075, 0.15;stroke-dashoffset:0;stroke-opacity:0.48333333"
       inkscape:export-filename="C:\Users\Buster\Desktop\Google drive\vigtigt\kreativt\Matematik\Min bog\Hjemmeside\Assets\Chapter4\KontinuerligProb\Darts.png"
       inkscape:export-xdpi="392.36325"
       inkscape:export-ydpi="392.36325" />
    <path
       sodipodi:nodetypes="cc"
       style="opacity:1;fill:#ee0000;fill-opacity:1;stroke:#000000;stroke-width:0.15000001;stroke-linecap:butt;stroke-miterlimit:4;stroke-dasharray:0.3, 0.15, 0.075, 0.15;stroke-dashoffset:0;stroke-opacity:0.48333333"
       d="M 253.38578,95.822173 V 91.144715"
       id="path914"
       inkscape:connector-curvature="0"
       inkscape:export-filename="C:\Users\Buster\Desktop\Google drive\vigtigt\kreativt\Matematik\Min bog\Hjemmeside\Assets\Chapter4\KontinuerligProb\Darts.png"
       inkscape:export-xdpi="392.36325"
       inkscape:export-ydpi="392.36325" />
    <rect
       y="82.694054"
       x="213.14001"
       height="24.388344"
       width="67.01783"
       id="rect930"
       style="opacity:1;fill:none;fill-opacity:1;stroke:none;stroke-width:0.14999999;stroke-linecap:butt;stroke-miterlimit:4;stroke-dasharray:0.3, 0.15, 0.075, 0.15;stroke-dashoffset:0;stroke-opacity:0.48333333" />
    <rect
       inkscape:export-ydpi="369.44809"
       inkscape:export-xdpi="369.44809"
       y="83.362221"
       x="212.47185"
       height="24.722429"
       width="68.88871"
       id="rect932"
       style="opacity:1;fill:none;fill-opacity:1;stroke:none;stroke-width:0.1435377;stroke-linecap:butt;stroke-miterlimit:4;stroke-dasharray:0.2870754, 0.1435377, 0.07176885, 0.1435377;stroke-dashoffset:0;stroke-opacity:0.48333333" />
    <g
       id="g1008"
       ns1:jacobian_sqrt="0.274047"
       inkscapeversion="0.92.4"
       ns1:alignment="middle center"
       ns1:scale="0.776827394266"
       ns1:preamble="C:\\Users\\Buster\\AppData\\Roaming\\inkscape\\extensions\\textext\\default_packages.tex"
       ns1:text="$x \\text{ } cm$"
       ns1:pdfconverter="pdf2svg"
       ns1:texconverter="pdflatex"
       ns1:version="0.11.0"
       transform="matrix(0.274047,0.000000,0.000000,0.274047,205.873575,52.574606)"
       inkscape:export-filename="C:\Users\Buster\Desktop\Google drive\vigtigt\kreativt\Matematik\Min bog\Hjemmeside\Assets\Chapter4\KontinuerligProb\Darts.png"
       inkscape:export-xdpi="392.36325"
       inkscape:export-ydpi="392.36325">
      <g
         id="g1006">
        <g
           id="g998"
           style="fill:rgb(0%,0%,0%);fill-opacity:1;">
          <path
             id="path996"
             transform="translate(148.712,134.765)"
             d="M 3.328125 -3.015625 C 3.390625 -3.265625 3.625 -4.1875 4.3125 -4.1875 C 4.359375 -4.1875 4.609375 -4.1875 4.8125 -4.0625 C 4.53125 -4 4.34375 -3.765625 4.34375 -3.515625 C 4.34375 -3.359375 4.453125 -3.171875 4.71875 -3.171875 C 4.9375 -3.171875 5.25 -3.34375 5.25 -3.75 C 5.25 -4.265625 4.671875 -4.40625 4.328125 -4.40625 C 3.75 -4.40625 3.40625 -3.875 3.28125 -3.65625 C 3.03125 -4.3125 2.5 -4.40625 2.203125 -4.40625 C 1.171875 -4.40625 0.59375 -3.125 0.59375 -2.875 C 0.59375 -2.765625 0.703125 -2.765625 0.71875 -2.765625 C 0.796875 -2.765625 0.828125 -2.796875 0.84375 -2.875 C 1.1875 -3.9375 1.84375 -4.1875 2.1875 -4.1875 C 2.375 -4.1875 2.71875 -4.09375 2.71875 -3.515625 C 2.71875 -3.203125 2.546875 -2.546875 2.1875 -1.140625 C 2.03125 -0.53125 1.671875 -0.109375 1.234375 -0.109375 C 1.171875 -0.109375 0.953125 -0.109375 0.734375 -0.234375 C 0.984375 -0.296875 1.203125 -0.5 1.203125 -0.78125 C 1.203125 -1.046875 0.984375 -1.125 0.84375 -1.125 C 0.53125 -1.125 0.296875 -0.875 0.296875 -0.546875 C 0.296875 -0.09375 0.78125 0.109375 1.21875 0.109375 C 1.890625 0.109375 2.25 -0.59375 2.265625 -0.640625 C 2.390625 -0.28125 2.75 0.109375 3.34375 0.109375 C 4.375 0.109375 4.9375 -1.171875 4.9375 -1.421875 C 4.9375 -1.53125 4.859375 -1.53125 4.828125 -1.53125 C 4.734375 -1.53125 4.71875 -1.484375 4.6875 -1.421875 C 4.359375 -0.34375 3.6875 -0.109375 3.375 -0.109375 C 2.984375 -0.109375 2.828125 -0.421875 2.828125 -0.765625 C 2.828125 -0.984375 2.875 -1.203125 2.984375 -1.640625 Z M 3.328125 -3.015625 "
             style="stroke:none;stroke-width:0" />
        </g>
        <g
           id="g1004"
           style="fill:rgb(0%,0%,0%);fill-opacity:1;">
          <path
             id="path1000"
             transform="translate(157.723172,134.765)"
             d="M 3.953125 -3.78125 C 3.78125 -3.78125 3.65625 -3.78125 3.515625 -3.65625 C 3.34375 -3.5 3.328125 -3.328125 3.328125 -3.265625 C 3.328125 -3.015625 3.515625 -2.90625 3.703125 -2.90625 C 3.984375 -2.90625 4.25 -3.15625 4.25 -3.546875 C 4.25 -4.03125 3.78125 -4.40625 3.078125 -4.40625 C 1.734375 -4.40625 0.40625 -2.984375 0.40625 -1.578125 C 0.40625 -0.671875 0.984375 0.109375 2.03125 0.109375 C 3.453125 0.109375 4.28125 -0.953125 4.28125 -1.0625 C 4.28125 -1.125 4.234375 -1.203125 4.171875 -1.203125 C 4.109375 -1.203125 4.09375 -1.171875 4.03125 -1.09375 C 3.25 -0.109375 2.15625 -0.109375 2.046875 -0.109375 C 1.421875 -0.109375 1.140625 -0.59375 1.140625 -1.203125 C 1.140625 -1.609375 1.34375 -2.578125 1.6875 -3.1875 C 2 -3.765625 2.546875 -4.1875 3.09375 -4.1875 C 3.421875 -4.1875 3.8125 -4.0625 3.953125 -3.78125 Z M 3.953125 -3.78125 "
             style="stroke:none;stroke-width:0" />
          <path
             id="path1002"
             transform="translate(162.034985,134.765)"
             d="M 0.875 -0.59375 C 0.84375 -0.4375 0.78125 -0.203125 0.78125 -0.15625 C 0.78125 0.015625 0.921875 0.109375 1.078125 0.109375 C 1.203125 0.109375 1.375 0.03125 1.453125 -0.171875 C 1.453125 -0.1875 1.578125 -0.65625 1.640625 -0.90625 L 1.859375 -1.796875 C 1.90625 -2.03125 1.96875 -2.25 2.03125 -2.46875 C 2.0625 -2.640625 2.140625 -2.9375 2.15625 -2.96875 C 2.296875 -3.28125 2.828125 -4.1875 3.78125 -4.1875 C 4.234375 -4.1875 4.3125 -3.8125 4.3125 -3.484375 C 4.3125 -3.234375 4.25 -2.953125 4.171875 -2.65625 L 3.890625 -1.5 L 3.6875 -0.75 C 3.65625 -0.546875 3.5625 -0.203125 3.5625 -0.15625 C 3.5625 0.015625 3.703125 0.109375 3.84375 0.109375 C 4.15625 0.109375 4.21875 -0.140625 4.296875 -0.453125 C 4.4375 -1.015625 4.8125 -2.46875 4.890625 -2.859375 C 4.921875 -2.984375 5.453125 -4.1875 6.546875 -4.1875 C 6.96875 -4.1875 7.078125 -3.84375 7.078125 -3.484375 C 7.078125 -2.921875 6.65625 -1.78125 6.453125 -1.25 C 6.375 -1.015625 6.328125 -0.90625 6.328125 -0.703125 C 6.328125 -0.234375 6.671875 0.109375 7.140625 0.109375 C 8.078125 0.109375 8.453125 -1.34375 8.453125 -1.421875 C 8.453125 -1.53125 8.359375 -1.53125 8.328125 -1.53125 C 8.234375 -1.53125 8.234375 -1.5 8.1875 -1.34375 C 8.03125 -0.8125 7.71875 -0.109375 7.171875 -0.109375 C 7 -0.109375 6.921875 -0.203125 6.921875 -0.4375 C 6.921875 -0.6875 7.015625 -0.921875 7.109375 -1.140625 C 7.296875 -1.671875 7.71875 -2.765625 7.71875 -3.34375 C 7.71875 -3.984375 7.3125 -4.40625 6.5625 -4.40625 C 5.828125 -4.40625 5.3125 -3.96875 4.9375 -3.4375 C 4.9375 -3.5625 4.90625 -3.90625 4.625 -4.140625 C 4.375 -4.359375 4.0625 -4.40625 3.8125 -4.40625 C 2.90625 -4.40625 2.421875 -3.765625 2.25 -3.53125 C 2.203125 -4.109375 1.78125 -4.40625 1.328125 -4.40625 C 0.875 -4.40625 0.6875 -4.015625 0.59375 -3.84375 C 0.421875 -3.484375 0.296875 -2.90625 0.296875 -2.875 C 0.296875 -2.765625 0.390625 -2.765625 0.40625 -2.765625 C 0.515625 -2.765625 0.515625 -2.78125 0.578125 -3 C 0.75 -3.703125 0.953125 -4.1875 1.3125 -4.1875 C 1.46875 -4.1875 1.609375 -4.109375 1.609375 -3.734375 C 1.609375 -3.515625 1.578125 -3.40625 1.453125 -2.890625 Z M 0.875 -0.59375 "
             style="stroke:none;stroke-width:0" />
        </g>
      </g>
    </g>
  </g>
</svg>
