<?xml version="1.0" encoding="UTF-8" standalone="no"?>
<!-- Created with Inkscape (http://www.inkscape.org/) -->

<svg
   xmlns:ns1="http://www.iki.fi/pav/software/textext/"
   xmlns:dc="http://purl.org/dc/elements/1.1/"
   xmlns:cc="http://creativecommons.org/ns#"
   xmlns:rdf="http://www.w3.org/1999/02/22-rdf-syntax-ns#"
   xmlns:svg="http://www.w3.org/2000/svg"
   xmlns="http://www.w3.org/2000/svg"
   xmlns:sodipodi="http://sodipodi.sourceforge.net/DTD/sodipodi-0.dtd"
   xmlns:inkscape="http://www.inkscape.org/namespaces/inkscape"
   width="210mm"
   height="297mm"
   viewBox="0 0 210 297"
   version="1.1"
   id="svg8"
   inkscape:version="0.92.4 (5da689c313, 2019-01-14)"
   sodipodi:docname="TriangleOmkreds.svg">
  <defs
     id="defs2" />
  <sodipodi:namedview
     id="base"
     pagecolor="#ffffff"
     bordercolor="#666666"
     borderopacity="1.0"
     inkscape:pageopacity="0.0"
     inkscape:pageshadow="2"
     inkscape:zoom="0.98994949"
     inkscape:cx="416.04704"
     inkscape:cy="507.34483"
     inkscape:document-units="mm"
     inkscape:current-layer="layer1"
     showgrid="false"
     inkscape:window-width="1800"
     inkscape:window-height="1001"
     inkscape:window-x="99"
     inkscape:window-y="0"
     inkscape:window-maximized="0"
     inkscape:snap-global="false"
     showguides="false" />
  <metadata
     id="metadata5">
    <rdf:RDF>
      <cc:Work
         rdf:about="">
        <dc:format>image/svg+xml</dc:format>
        <dc:type
           rdf:resource="http://purl.org/dc/dcmitype/StillImage" />
        <dc:title></dc:title>
      </cc:Work>
    </rdf:RDF>
  </metadata>
  <g
     inkscape:label="Layer 1"
     inkscape:groupmode="layer"
     id="layer1">
    <g
       id="g835"
       ns1:jacobian_sqrt="0.875401"
       ns1:alignment="middle center"
       ns1:scale="2.4814505923"
       ns1:preamble="C:\\Users\\Buster\\AppData\\Roaming\\inkscape\\extensions\\textext\\default_packages.tex"
       ns1:text="$1$"
       ns1:pdfconverter="pdf2svg"
       ns1:texconverter="pdflatex"
       ns1:version="0.11.0"
       transform="matrix(1.1973822,0,0,1.1973822,-183.95517,26.980227)"
       style="stroke-width:0.73109573"
       inkscape:export-xdpi="211.81799"
       inkscape:export-ydpi="211.81799">
      <g
         id="surface1"
         style="stroke-width:0.73109573">
        <g
           id="g832"
           style="fill:#000000;fill-opacity:1;stroke-width:0.73109573">
          <path
             id="path830"
             transform="translate(148.712,134.765)"
             d="m 2.9375,-6.375 c 0,-0.25 0,-0.265625 -0.234375,-0.265625 C 2.078125,-6 1.203125,-6 0.890625,-6 v 0.3125 c 0.203125,0 0.78125,0 1.296875,-0.265625 v 5.171875 c 0,0.359375 -0.03125,0.46875 -0.921875,0.46875 h -0.3125 V 0 c 0.34375,-0.03125 1.203125,-0.03125 1.609375,-0.03125 0.390625,0 1.265625,0 1.609375,0.03125 v -0.3125 h -0.3125 c -0.90625,0 -0.921875,-0.109375 -0.921875,-0.46875 z m 0,0"
             style="stroke:none;stroke-width:0"
             inkscape:connector-curvature="0" />
        </g>
      </g>
    </g>
    <g
       style="stroke-width:0.73109573"
       transform="matrix(1.1973822,0,0,1.1973822,-277.20459,-13.516949)"
       ns1:version="0.11.0"
       ns1:texconverter="pdflatex"
       ns1:pdfconverter="pdf2svg"
       ns1:text="$1$"
       ns1:preamble="C:\\Users\\Buster\\AppData\\Roaming\\inkscape\\extensions\\textext\\default_packages.tex"
       ns1:scale="2.4814505923"
       ns1:alignment="middle center"
       ns1:jacobian_sqrt="0.875401"
       id="g850"
       inkscape:export-xdpi="211.81799"
       inkscape:export-ydpi="211.81799">
      <g
         style="stroke-width:0.73109573"
         id="g848">
        <g
           style="fill:#000000;fill-opacity:1;stroke-width:0.73109573"
           id="g846">
          <path
             inkscape:connector-curvature="0"
             style="stroke:none;stroke-width:0"
             d="m 2.9375,-6.375 c 0,-0.25 0,-0.265625 -0.234375,-0.265625 C 2.078125,-6 1.203125,-6 0.890625,-6 v 0.3125 c 0.203125,0 0.78125,0 1.296875,-0.265625 v 5.171875 c 0,0.359375 -0.03125,0.46875 -0.921875,0.46875 h -0.3125 V 0 c 0.34375,-0.03125 1.203125,-0.03125 1.609375,-0.03125 0.390625,0 1.265625,0 1.609375,0.03125 v -0.3125 h -0.3125 c -0.90625,0 -0.921875,-0.109375 -0.921875,-0.46875 z m 0,0"
             transform="translate(148.712,134.765)"
             id="path844" />
        </g>
      </g>
    </g>
    <g
       id="g878"
       ns1:jacobian_sqrt="1.197382"
       ns1:alignment="middle center"
       ns1:scale="3.39415281614"
       ns1:preamble="C:\\Users\\Buster\\AppData\\Roaming\\inkscape\\extensions\\textext\\default_packages.tex"
       ns1:text="$x$"
       ns1:pdfconverter="pdf2svg"
       ns1:texconverter="pdflatex"
       ns1:version="0.11.0"
       transform="matrix(1.197382,0,0,1.197382,-249.25704,38.050286)"
       inkscape:export-xdpi="211.81799"
       inkscape:export-ydpi="211.81799">
      <g
         id="g876">
        <g
           id="g874"
           style="fill:#000000;fill-opacity:1">
          <path
             id="path872"
             transform="translate(148.712,134.765)"
             d="M 3.328125,-3.015625 C 3.390625,-3.265625 3.625,-4.1875 4.3125,-4.1875 c 0.046875,0 0.296875,0 0.5,0.125 C 4.53125,-4 4.34375,-3.765625 4.34375,-3.515625 c 0,0.15625 0.109375,0.34375 0.375,0.34375 0.21875,0 0.53125,-0.171875 0.53125,-0.578125 0,-0.515625 -0.578125,-0.65625 -0.921875,-0.65625 -0.578125,0 -0.921875,0.53125 -1.046875,0.75 -0.25,-0.65625 -0.78125,-0.75 -1.078125,-0.75 -1.03125,0 -1.609375,1.28125 -1.609375,1.53125 0,0.109375 0.109375,0.109375 0.125,0.109375 0.078125,0 0.109375,-0.03125 0.125,-0.109375 0.34375,-1.0625 1,-1.3125 1.34375,-1.3125 0.1875,0 0.53125,0.09375 0.53125,0.671875 0,0.3125 -0.171875,0.96875 -0.53125,2.375 -0.15625,0.609375 -0.515625,1.03125 -0.953125,1.03125 -0.0625,0 -0.28125,0 -0.5,-0.125 0.25,-0.0625 0.46875,-0.265625 0.46875,-0.546875 0,-0.265625 -0.21875,-0.34375 -0.359375,-0.34375 -0.3125,0 -0.546875,0.25 -0.546875,0.578125 0,0.453125 0.484375,0.65625 0.921875,0.65625 0.671875,0 1.03125,-0.703125 1.046875,-0.75 0.125,0.359375 0.484375,0.75 1.078125,0.75 1.03125,0 1.59375,-1.28125 1.59375,-1.53125 0,-0.109375 -0.078125,-0.109375 -0.109375,-0.109375 -0.09375,0 -0.109375,0.046875 -0.140625,0.109375 -0.328125,1.078125 -1,1.3125 -1.3125,1.3125 -0.390625,0 -0.546875,-0.3125 -0.546875,-0.65625 0,-0.21875 0.046875,-0.4375 0.15625,-0.875 z m 0,0"
             style="stroke:none;stroke-width:0"
             inkscape:connector-curvature="0" />
        </g>
      </g>
    </g>
    <path
       style="opacity:1;fill:none;fill-opacity:1;stroke:#000000;stroke-width:0.80000001;stroke-linecap:round;stroke-miterlimit:4;stroke-dasharray:none;stroke-dashoffset:0;stroke-opacity:1"
       d="M -44.36674,190.89399 H 45.16855 L -70.559154,100.28962 Z"
       id="path916"
       inkscape:connector-curvature="0"
       inkscape:export-xdpi="211.81799"
       inkscape:export-ydpi="211.81799" />
    <path
       style="opacity:0.889;fill:none;fill-opacity:1;stroke:#000000;stroke-width:0.80000001;stroke-linecap:round;stroke-miterlimit:4;stroke-dasharray:3.19999999, 3.19999998999999979;stroke-dashoffset:0;stroke-opacity:1"
       d="M -99.9588,99.22054 H 45.97036"
       id="path918"
       inkscape:connector-curvature="0"
       inkscape:export-xdpi="211.81799"
       inkscape:export-ydpi="211.81799" />
    <path
       inkscape:connector-curvature="0"
       id="path920"
       d="m -44.099462,202.25293 0,-103.566935"
       style="opacity:0.595;fill:none;fill-opacity:1;stroke:#000000;stroke-width:0.80000001;stroke-linecap:round;stroke-miterlimit:4;stroke-dasharray:0.8, 1.60000000000000009;stroke-dashoffset:0;stroke-opacity:1"
       sodipodi:nodetypes="cc"
       inkscape:export-xdpi="211.81799"
       inkscape:export-ydpi="211.81799" />
    <path
       sodipodi:nodetypes="cc"
       style="opacity:0.595;fill:none;fill-opacity:1;stroke:#000000;stroke-width:0.8;stroke-linecap:round;stroke-miterlimit:4;stroke-dasharray:3.19999999, 6.39999997999999959;stroke-dashoffset:0;stroke-opacity:1"
       d="m -89.802551,190.35944 v -90.3371"
       id="path922"
       inkscape:connector-curvature="0"
       inkscape:export-xdpi="211.81799"
       inkscape:export-ydpi="211.81799" />
    <path
       inkscape:connector-curvature="0"
       id="path924"
       d="m -89.802551,190.35944 44.601191,0.56617"
       style="opacity:0.595;fill:none;fill-opacity:1;stroke:#000000;stroke-width:0.80000001;stroke-linecap:round;stroke-miterlimit:4;stroke-dasharray:3.19999999, 6.39999997999999959;stroke-dashoffset:0;stroke-opacity:1"
       sodipodi:nodetypes="cc"
       inkscape:export-xdpi="211.81799"
       inkscape:export-ydpi="211.81799" />
    <circle
       style="opacity:1;fill:#313131;fill-opacity:1;stroke:#000000;stroke-width:0.40000001;stroke-linecap:round;stroke-miterlimit:4;stroke-dasharray:none;stroke-dashoffset:0;stroke-opacity:1"
       id="path926"
       cx="-89.769142"
       cy="190.32603"
       r="1.637026"
       inkscape:export-xdpi="211.81799"
       inkscape:export-ydpi="211.81799" />
    <circle
       r="1.637026"
       cy="190.86057"
       cx="-44.199688"
       id="circle928"
       style="opacity:1;fill:#313131;fill-opacity:1;stroke:#000000;stroke-width:0.40000001;stroke-linecap:round;stroke-miterlimit:4;stroke-dasharray:none;stroke-dashoffset:0;stroke-opacity:1"
       inkscape:export-xdpi="211.81799"
       inkscape:export-ydpi="211.81799" />
    <g
       style="stroke-width:0.73109573"
       transform="matrix(1.1973822,0,0,1.1973822,-10.086122,27.358203)"
       ns1:version="0.11.0"
       ns1:texconverter="pdflatex"
       ns1:pdfconverter="pdf2svg"
       ns1:text="$1$"
       ns1:preamble="C:\\Users\\Buster\\AppData\\Roaming\\inkscape\\extensions\\textext\\default_packages.tex"
       ns1:scale="2.4814505923"
       ns1:alignment="middle center"
       ns1:jacobian_sqrt="0.875401"
       id="g936"
       inkscape:export-xdpi="211.81799"
       inkscape:export-ydpi="211.81799">
      <g
         style="stroke-width:0.73109573"
         id="g934">
        <g
           style="fill:#000000;fill-opacity:1;stroke-width:0.73109573"
           id="g932">
          <path
             inkscape:connector-curvature="0"
             style="stroke:none;stroke-width:0"
             d="m 2.9375,-6.375 c 0,-0.25 0,-0.265625 -0.234375,-0.265625 C 2.078125,-6 1.203125,-6 0.890625,-6 v 0.3125 c 0.203125,0 0.78125,0 1.296875,-0.265625 v 5.171875 c 0,0.359375 -0.03125,0.46875 -0.921875,0.46875 h -0.3125 V 0 c 0.34375,-0.03125 1.203125,-0.03125 1.609375,-0.03125 0.390625,0 1.265625,0 1.609375,0.03125 v -0.3125 h -0.3125 c -0.90625,0 -0.921875,-0.109375 -0.921875,-0.46875 z m 0,0"
             transform="translate(148.712,134.765)"
             id="path930" />
        </g>
      </g>
    </g>
    <g
       id="g944"
       ns1:jacobian_sqrt="0.875401"
       ns1:alignment="middle center"
       ns1:scale="2.4814505923"
       ns1:preamble="C:\\Users\\Buster\\AppData\\Roaming\\inkscape\\extensions\\textext\\default_packages.tex"
       ns1:text="$1$"
       ns1:pdfconverter="pdf2svg"
       ns1:texconverter="pdflatex"
       ns1:version="0.11.0"
       transform="matrix(1.1973822,0,0,1.1973822,-84.092134,-10.733547)"
       style="stroke-width:0.73109573"
       inkscape:export-xdpi="211.81799"
       inkscape:export-ydpi="211.81799">
      <g
         id="g942"
         style="stroke-width:0.73109573">
        <g
           id="g940"
           style="fill:#000000;fill-opacity:1;stroke-width:0.73109573">
          <path
             id="path938"
             transform="translate(148.712,134.765)"
             d="m 2.9375,-6.375 c 0,-0.25 0,-0.265625 -0.234375,-0.265625 C 2.078125,-6 1.203125,-6 0.890625,-6 v 0.3125 c 0.203125,0 0.78125,0 1.296875,-0.265625 v 5.171875 c 0,0.359375 -0.03125,0.46875 -0.921875,0.46875 h -0.3125 V 0 c 0.34375,-0.03125 1.203125,-0.03125 1.609375,-0.03125 0.390625,0 1.265625,0 1.609375,0.03125 v -0.3125 h -0.3125 c -0.90625,0 -0.921875,-0.109375 -0.921875,-0.46875 z m 0,0"
             style="stroke:none;stroke-width:0"
             inkscape:connector-curvature="0" />
        </g>
      </g>
    </g>
    <path
       inkscape:connector-curvature="0"
       id="path954"
       d="M 129.50231,191.27197 H 219.0376 L 103.30989,100.6676 Z"
       style="opacity:1;fill:none;fill-opacity:1;stroke:#000000;stroke-width:0.80000001;stroke-linecap:round;stroke-miterlimit:4;stroke-dasharray:none;stroke-dashoffset:0;stroke-opacity:1"
       inkscape:export-xdpi="211.81799"
       inkscape:export-ydpi="211.81799" />
    <path
       inkscape:connector-curvature="0"
       id="path956"
       d="m 96.360888,99.598516 123.478522,0"
       style="opacity:0.88899997;fill:none;fill-opacity:1;stroke:#000000;stroke-width:0.80000001;stroke-linecap:round;stroke-miterlimit:4;stroke-dasharray:3.19999999, 3.19999999;stroke-dashoffset:0;stroke-opacity:0.38383843"
       sodipodi:nodetypes="cc"
       inkscape:export-xdpi="211.81799"
       inkscape:export-ydpi="211.81799" />
    <path
       sodipodi:nodetypes="cc"
       style="opacity:0.59500002;fill:none;fill-opacity:1;stroke:#000000;stroke-width:0.80000001;stroke-linecap:round;stroke-miterlimit:4;stroke-dasharray:0.8, 1.6;stroke-dashoffset:0;stroke-opacity:1"
       d="M 129.76959,202.63091 V 99.063971"
       id="path958"
       inkscape:connector-curvature="0"
       inkscape:export-xdpi="211.81799"
       inkscape:export-ydpi="211.81799" />
    <path
       inkscape:connector-curvature="0"
       id="path960"
       d="m 102.58735,190.73742 v -90.3371"
       style="opacity:0.59500002;fill:none;fill-opacity:1;stroke:#000000;stroke-width:0.80000001;stroke-linecap:round;stroke-miterlimit:4;stroke-dasharray:3.19999999, 6.39999998;stroke-dashoffset:0;stroke-opacity:1"
       sodipodi:nodetypes="cc"
       inkscape:export-xdpi="211.81799"
       inkscape:export-ydpi="211.81799" />
    <path
       sodipodi:nodetypes="cc"
       style="opacity:0.59500002;fill:none;fill-opacity:1;stroke:#000000;stroke-width:0.80000001;stroke-linecap:round;stroke-miterlimit:4;stroke-dasharray:3.19999999, 6.39999998;stroke-dashoffset:0;stroke-opacity:1"
       d="m 102.20935,190.73742 26.45834,0.56617"
       id="path962"
       inkscape:connector-curvature="0"
       inkscape:export-xdpi="211.81799"
       inkscape:export-ydpi="211.81799" />
    <circle
       r="1.637026"
       cy="190.70401"
       cx="102.80973"
       id="circle964"
       style="opacity:1;fill:#313131;fill-opacity:1;stroke:#000000;stroke-width:0.40000001;stroke-linecap:round;stroke-miterlimit:4;stroke-dasharray:none;stroke-dashoffset:0;stroke-opacity:1"
       inkscape:export-xdpi="211.81799"
       inkscape:export-ydpi="211.81799" />
    <circle
       style="opacity:1;fill:#313131;fill-opacity:1;stroke:#000000;stroke-width:0.40000001;stroke-linecap:round;stroke-miterlimit:4;stroke-dasharray:none;stroke-dashoffset:0;stroke-opacity:1"
       id="circle966"
       cx="129.66936"
       cy="191.23854"
       r="1.637026"
       inkscape:export-xdpi="211.81799"
       inkscape:export-ydpi="211.81799" />
    <path
       style="opacity:0.88899997;fill:#313131;fill-opacity:1;stroke:#ed0000;stroke-width:0.80000001;stroke-linecap:round;stroke-miterlimit:4;stroke-dasharray:none;stroke-dashoffset:0;stroke-opacity:1"
       d="M 130.21279,191.16665 156.29315,99.696413"
       id="path968"
       inkscape:connector-curvature="0"
       inkscape:export-xdpi="211.81799"
       inkscape:export-ydpi="211.81799" />
    <path
       sodipodi:nodetypes="cc"
       style="opacity:0.59500002;fill:none;fill-opacity:1;stroke:#000000;stroke-width:0.80000001;stroke-linecap:round;stroke-miterlimit:4;stroke-dasharray:3.19999999, 6.39999998;stroke-dashoffset:0;stroke-opacity:1"
       d="M 156.57579,189.66834 V 99.331242"
       id="path970"
       inkscape:connector-curvature="0"
       inkscape:export-xdpi="211.81799"
       inkscape:export-ydpi="211.81799" />
    <g
       id="g978"
       ns1:jacobian_sqrt="1.197382"
       ns1:alignment="middle center"
       ns1:scale="3.39415281614"
       ns1:preamble="C:\\Users\\Buster\\AppData\\Roaming\\inkscape\\extensions\\textext\\default_packages.tex"
       ns1:text="$x$"
       ns1:pdfconverter="pdf2svg"
       ns1:texconverter="pdflatex"
       ns1:version="0.11.0"
       transform="matrix(1.197382,0,0,1.197382,-37.468144,37.091914)"
       inkscape:export-xdpi="211.81799"
       inkscape:export-ydpi="211.81799">
      <g
         id="g976">
        <g
           id="g974"
           style="fill:#000000;fill-opacity:1">
          <path
             id="path972"
             transform="translate(148.712,134.765)"
             d="M 3.328125,-3.015625 C 3.390625,-3.265625 3.625,-4.1875 4.3125,-4.1875 c 0.046875,0 0.296875,0 0.5,0.125 C 4.53125,-4 4.34375,-3.765625 4.34375,-3.515625 c 0,0.15625 0.109375,0.34375 0.375,0.34375 0.21875,0 0.53125,-0.171875 0.53125,-0.578125 0,-0.515625 -0.578125,-0.65625 -0.921875,-0.65625 -0.578125,0 -0.921875,0.53125 -1.046875,0.75 -0.25,-0.65625 -0.78125,-0.75 -1.078125,-0.75 -1.03125,0 -1.609375,1.28125 -1.609375,1.53125 0,0.109375 0.109375,0.109375 0.125,0.109375 0.078125,0 0.109375,-0.03125 0.125,-0.109375 0.34375,-1.0625 1,-1.3125 1.34375,-1.3125 0.1875,0 0.53125,0.09375 0.53125,0.671875 0,0.3125 -0.171875,0.96875 -0.53125,2.375 -0.15625,0.609375 -0.515625,1.03125 -0.953125,1.03125 -0.0625,0 -0.28125,0 -0.5,-0.125 0.25,-0.0625 0.46875,-0.265625 0.46875,-0.546875 0,-0.265625 -0.21875,-0.34375 -0.359375,-0.34375 -0.3125,0 -0.546875,0.25 -0.546875,0.578125 0,0.453125 0.484375,0.65625 0.921875,0.65625 0.671875,0 1.03125,-0.703125 1.046875,-0.75 0.125,0.359375 0.484375,0.75 1.078125,0.75 1.03125,0 1.59375,-1.28125 1.59375,-1.53125 0,-0.109375 -0.078125,-0.109375 -0.109375,-0.109375 -0.09375,0 -0.109375,0.046875 -0.140625,0.109375 -0.328125,1.078125 -1,1.3125 -1.3125,1.3125 -0.390625,0 -0.546875,-0.3125 -0.546875,-0.65625 0,-0.21875 0.046875,-0.4375 0.15625,-0.875 z m 0,0"
             style="stroke:none;stroke-width:0"
             inkscape:connector-curvature="0" />
        </g>
      </g>
    </g>
    <g
       id="g1033"
       ns1:jacobian_sqrt="1.197382"
       ns1:alignment="middle center"
       ns1:scale="3.39415281614"
       ns1:preamble="C:\\Users\\Buster\\AppData\\Roaming\\inkscape\\extensions\\textext\\default_packages.tex"
       ns1:text="$-x$"
       ns1:pdfconverter="pdf2svg"
       ns1:texconverter="pdflatex"
       ns1:version="0.11.0"
       transform="matrix(1.197382,0,0,1.197382,-72.305729,37.091914)"
       inkscape:export-xdpi="211.81799"
       inkscape:export-ydpi="211.81799">
      <g
         id="g1031">
        <g
           id="g1025"
           style="fill:#000000;fill-opacity:1">
          <path
             id="path1023"
             transform="translate(148.712,134.765)"
             d="m 6.5625,-2.296875 c 0.171875,0 0.359375,0 0.359375,-0.203125 0,-0.1875 -0.1875,-0.1875 -0.359375,-0.1875 H 1.171875 c -0.171875,0 -0.34375,0 -0.34375,0.1875 0,0.203125 0.171875,0.203125 0.34375,0.203125 z m 0,0"
             style="stroke:none;stroke-width:0"
             inkscape:connector-curvature="0" />
        </g>
        <g
           id="g1029"
           style="fill:#000000;fill-opacity:1">
          <path
             id="path1027"
             transform="translate(156.461,134.765)"
             d="M 3.328125,-3.015625 C 3.390625,-3.265625 3.625,-4.1875 4.3125,-4.1875 c 0.046875,0 0.296875,0 0.5,0.125 C 4.53125,-4 4.34375,-3.765625 4.34375,-3.515625 c 0,0.15625 0.109375,0.34375 0.375,0.34375 0.21875,0 0.53125,-0.171875 0.53125,-0.578125 0,-0.515625 -0.578125,-0.65625 -0.921875,-0.65625 -0.578125,0 -0.921875,0.53125 -1.046875,0.75 -0.25,-0.65625 -0.78125,-0.75 -1.078125,-0.75 -1.03125,0 -1.609375,1.28125 -1.609375,1.53125 0,0.109375 0.109375,0.109375 0.125,0.109375 0.078125,0 0.109375,-0.03125 0.125,-0.109375 0.34375,-1.0625 1,-1.3125 1.34375,-1.3125 0.1875,0 0.53125,0.09375 0.53125,0.671875 0,0.3125 -0.171875,0.96875 -0.53125,2.375 -0.15625,0.609375 -0.515625,1.03125 -0.953125,1.03125 -0.0625,0 -0.28125,0 -0.5,-0.125 0.25,-0.0625 0.46875,-0.265625 0.46875,-0.546875 0,-0.265625 -0.21875,-0.34375 -0.359375,-0.34375 -0.3125,0 -0.546875,0.25 -0.546875,0.578125 0,0.453125 0.484375,0.65625 0.921875,0.65625 0.671875,0 1.03125,-0.703125 1.046875,-0.75 0.125,0.359375 0.484375,0.75 1.078125,0.75 1.03125,0 1.59375,-1.28125 1.59375,-1.53125 0,-0.109375 -0.078125,-0.109375 -0.109375,-0.109375 -0.09375,0 -0.109375,0.046875 -0.140625,0.109375 -0.328125,1.078125 -1,1.3125 -1.3125,1.3125 -0.390625,0 -0.546875,-0.3125 -0.546875,-0.65625 0,-0.21875 0.046875,-0.4375 0.15625,-0.875 z m 0,0"
             style="stroke:none;stroke-width:0"
             inkscape:connector-curvature="0" />
        </g>
      </g>
    </g>
    <path
       inkscape:connector-curvature="0"
       id="path1043"
       d="M 218.8482,191.16665 156.48213,99.696413"
       style="opacity:0.88899997;fill:#313131;fill-opacity:1;stroke:#ed0000;stroke-width:0.80000001;stroke-linecap:round;stroke-miterlimit:4;stroke-dasharray:none;stroke-dashoffset:0;stroke-opacity:1"
       sodipodi:nodetypes="cc"
       inkscape:export-xdpi="211.81799"
       inkscape:export-ydpi="211.81799" />
  </g>
</svg>
