<?xml version="1.0" encoding="UTF-8" standalone="no"?>
<!-- Created with Inkscape (http://www.inkscape.org/) -->

<svg
   xmlns:ns1="http://www.iki.fi/pav/software/textext/"
   xmlns:dc="http://purl.org/dc/elements/1.1/"
   xmlns:cc="http://creativecommons.org/ns#"
   xmlns:rdf="http://www.w3.org/1999/02/22-rdf-syntax-ns#"
   xmlns:svg="http://www.w3.org/2000/svg"
   xmlns="http://www.w3.org/2000/svg"
   xmlns:sodipodi="http://sodipodi.sourceforge.net/DTD/sodipodi-0.dtd"
   xmlns:inkscape="http://www.inkscape.org/namespaces/inkscape"
   width="297mm"
   height="210mm"
   viewBox="0 0 297 210"
   version="1.1"
   id="svg8"
   inkscape:version="0.92.4 (5da689c313, 2019-01-14)"
   sodipodi:docname="MessyProbability.svg">
  <defs
     id="defs2" />
  <sodipodi:namedview
     id="base"
     pagecolor="#ffffff"
     bordercolor="#666666"
     borderopacity="1.0"
     inkscape:pageopacity="0.0"
     inkscape:pageshadow="2"
     inkscape:zoom="0.98994949"
     inkscape:cx="648.5953"
     inkscape:cy="475.88283"
     inkscape:document-units="mm"
     inkscape:current-layer="layer1"
     showgrid="false"
     inkscape:window-width="1920"
     inkscape:window-height="1017"
     inkscape:window-x="-8"
     inkscape:window-y="-8"
     inkscape:window-maximized="1"
     inkscape:snap-global="false"
     showguides="true" />
  <metadata
     id="metadata5">
    <rdf:RDF>
      <cc:Work
         rdf:about="">
        <dc:format>image/svg+xml</dc:format>
        <dc:type
           rdf:resource="http://purl.org/dc/dcmitype/StillImage" />
        <dc:title></dc:title>
      </cc:Work>
    </rdf:RDF>
  </metadata>
  <g
     inkscape:label="Layer 1"
     inkscape:groupmode="layer"
     id="layer1"
     transform="translate(0,-87)">
    <text
       xml:space="preserve"
       style="font-style:normal;font-weight:normal;font-size:5.67470789px;line-height:1.25;font-family:sans-serif;letter-spacing:0px;word-spacing:0px;fill:#000000;fill-opacity:1;stroke:none;stroke-width:0.26458332"
       x="182.93599"
       y="115.83372"
       id="text817"><tspan
         sodipodi:role="line"
         id="tspan815"
         x="182.93599"
         y="115.83372"
         style="stroke-width:0.26458332">Ruder konge</tspan></text>
    <text
       xml:space="preserve"
       style="font-style:normal;font-weight:normal;font-size:5.48889208px;line-height:1.25;font-family:sans-serif;letter-spacing:0px;word-spacing:0px;fill:#000000;fill-opacity:1;stroke:none;stroke-width:0.26458332"
       x="182.91263"
       y="151.09718"
       id="text821"><tspan
         sodipodi:role="line"
         x="182.91263"
         y="151.09718"
         style="stroke-width:0.26458332"
         id="tspan1058">Ikke-ruder konge</tspan></text>
    <text
       xml:space="preserve"
       style="font-style:normal;font-weight:normal;font-size:5.0887928px;line-height:1.25;font-family:sans-serif;letter-spacing:0px;word-spacing:0px;fill:#000000;fill-opacity:1;stroke:none;stroke-width:0.26458332"
       x="182.84999"
       y="204.59329"
       id="text821-4"><tspan
         sodipodi:role="line"
         id="tspan819-3"
         x="182.84999"
         y="204.59329"
         style="stroke-width:0.26458332">Ikke-konge ruder</tspan></text>
    <text
       xml:space="preserve"
       style="font-style:normal;font-weight:normal;font-size:5.0887928px;line-height:1.25;font-family:sans-serif;letter-spacing:0px;word-spacing:0px;fill:#000000;fill-opacity:1;stroke:none;stroke-width:0.26458332"
       x="183.2858"
       y="238.65599"
       id="text821-4-9"><tspan
         sodipodi:role="line"
         id="tspan819-3-1"
         x="183.2858"
         y="238.65599"
         style="stroke-width:0.26458332">Hverken konge</tspan><tspan
         sodipodi:role="line"
         x="183.2858"
         y="245.01697"
         style="stroke-width:0.26458332"
         id="tspan877">eller ruder</tspan></text>
    <path
       style="fill:none;stroke:#000000;stroke-width:0.26458332px;stroke-linecap:butt;stroke-linejoin:miter;stroke-opacity:1"
       d="m 129.5979,175.71757 52.41264,-60.99538"
       id="path922"
       inkscape:connector-curvature="0"
       sodipodi:nodetypes="cc" />
    <path
       style="fill:none;stroke:#000000;stroke-width:0.26458332px;stroke-linecap:butt;stroke-linejoin:miter;stroke-opacity:1"
       d="m 133.9548,176.17844 48.05575,-26.17668"
       id="path924"
       inkscape:connector-curvature="0"
       sodipodi:nodetypes="cc" />
    <path
       style="fill:none;stroke:#000000;stroke-width:0.26458332px;stroke-linecap:butt;stroke-linejoin:miter;stroke-opacity:1"
       d="m 133.19885,177.36283 48.8117,25.5556"
       id="path926"
       inkscape:connector-curvature="0"
       sodipodi:nodetypes="cc" />
    <path
       style="fill:none;stroke:#000000;stroke-width:0.26458332px;stroke-linecap:butt;stroke-linejoin:miter;stroke-opacity:1"
       d="m 130.04303,178.46895 51.70025,59.73176"
       id="path928"
       inkscape:connector-curvature="0"
       sodipodi:nodetypes="cc" />
    <path
       style="fill:none;stroke:#000000;stroke-width:0.465;stroke-linecap:butt;stroke-linejoin:miter;stroke-opacity:1;stroke-miterlimit:4;stroke-dasharray:none"
       d="m 220.35422,114.68976 18.58473,0.0324"
       id="path932"
       inkscape:connector-curvature="0"
       sodipodi:nodetypes="cc" />
    <text
       xml:space="preserve"
       style="font-style:normal;font-weight:normal;font-size:5.48675728px;line-height:1.25;font-family:sans-serif;letter-spacing:0px;word-spacing:0px;fill:#000000;fill-opacity:1;stroke:none;stroke-width:0.26458332"
       x="240.85876"
       y="116.28512"
       id="text817-2-2"><tspan
         sodipodi:role="line"
         id="tspan815-0-1"
         x="240.85876"
         y="116.28512"
         style="stroke-width:0.26458332">Ikke-konge</tspan></text>
    <path
       sodipodi:nodetypes="cc"
       inkscape:connector-curvature="0"
       id="path1078"
       d="m 219.97625,147.04471 17.37253,-6.1472"
       style="fill:none;stroke:#000000;stroke-width:0.26458332px;stroke-linecap:butt;stroke-linejoin:miter;stroke-opacity:1" />
    <path
       sodipodi:nodetypes="cc"
       inkscape:connector-curvature="0"
       id="path1080"
       d="m 219.4417,152.3901 17.63979,6.14721"
       style="fill:none;stroke:#000000;stroke-width:0.26458332px;stroke-linecap:butt;stroke-linejoin:miter;stroke-opacity:1" />
    <text
       id="text1084"
       y="142.23486"
       x="238.04939"
       style="font-style:normal;font-weight:normal;font-size:5.48675728px;line-height:1.25;font-family:sans-serif;letter-spacing:0px;word-spacing:0px;fill:#000000;fill-opacity:1;stroke:none;stroke-width:0.26458332"
       xml:space="preserve"><tspan
         style="stroke-width:0.26458332"
         y="142.23486"
         x="238.04939"
         id="tspan1082"
         sodipodi:role="line">Konge</tspan></text>
    <text
       id="text1088"
       y="160.63477"
       x="238.19948"
       style="font-style:normal;font-weight:normal;font-size:5.48675728px;line-height:1.25;font-family:sans-serif;letter-spacing:0px;word-spacing:0px;fill:#000000;fill-opacity:1;stroke:none;stroke-width:0.26458332"
       xml:space="preserve"><tspan
         style="stroke-width:0.26458332"
         y="160.63477"
         x="238.19948"
         id="tspan1086"
         sodipodi:role="line">Ikke-konge</tspan></text>
    <path
       style="fill:none;stroke:#000000;stroke-width:0.26458332px;stroke-linecap:butt;stroke-linejoin:miter;stroke-opacity:1"
       d="m 219.78726,200.18818 17.37253,-6.1472"
       id="path1090"
       inkscape:connector-curvature="0"
       sodipodi:nodetypes="cc" />
    <path
       style="fill:none;stroke:#000000;stroke-width:0.26458332px;stroke-linecap:butt;stroke-linejoin:miter;stroke-opacity:1"
       d="m 219.25271,205.53357 17.63979,6.14721"
       id="path1092"
       inkscape:connector-curvature="0"
       sodipodi:nodetypes="cc" />
    <text
       xml:space="preserve"
       style="font-style:normal;font-weight:normal;font-size:5.48675728px;line-height:1.25;font-family:sans-serif;letter-spacing:0px;word-spacing:0px;fill:#000000;fill-opacity:1;stroke:none;stroke-width:0.26458332"
       x="237.8604"
       y="195.3783"
       id="text1096"><tspan
         sodipodi:role="line"
         id="tspan1094"
         x="237.8604"
         y="195.3783"
         style="stroke-width:0.26458332">Konge</tspan></text>
    <text
       xml:space="preserve"
       style="font-style:normal;font-weight:normal;font-size:5.48675728px;line-height:1.25;font-family:sans-serif;letter-spacing:0px;word-spacing:0px;fill:#000000;fill-opacity:1;stroke:none;stroke-width:0.26458332"
       x="238.01048"
       y="213.7782"
       id="text1100"><tspan
         sodipodi:role="line"
         id="tspan1098"
         x="238.01048"
         y="213.7782"
         style="stroke-width:0.26458332">Ikke-konge</tspan></text>
    <path
       sodipodi:nodetypes="cc"
       inkscape:connector-curvature="0"
       id="path1102"
       d="m 218.46434,235.03756 17.37253,-6.1472"
       style="fill:none;stroke:#000000;stroke-width:0.26458332px;stroke-linecap:butt;stroke-linejoin:miter;stroke-opacity:1" />
    <path
       sodipodi:nodetypes="cc"
       inkscape:connector-curvature="0"
       id="path1104"
       d="m 217.92979,240.38295 17.63979,6.14721"
       style="fill:none;stroke:#000000;stroke-width:0.26458332px;stroke-linecap:butt;stroke-linejoin:miter;stroke-opacity:1" />
    <text
       id="text1108"
       y="230.22775"
       x="236.53748"
       style="font-style:normal;font-weight:normal;font-size:5.48675728px;line-height:1.25;font-family:sans-serif;letter-spacing:0px;word-spacing:0px;fill:#000000;fill-opacity:1;stroke:none;stroke-width:0.26458332"
       xml:space="preserve"><tspan
         style="stroke-width:0.26458332"
         y="230.22775"
         x="236.53748"
         id="tspan1106"
         sodipodi:role="line">Konge</tspan></text>
    <text
       id="text1112"
       y="248.62766"
       x="236.68756"
       style="font-style:normal;font-weight:normal;font-size:5.48675728px;line-height:1.25;font-family:sans-serif;letter-spacing:0px;word-spacing:0px;fill:#000000;fill-opacity:1;stroke:none;stroke-width:0.26458332"
       xml:space="preserve"><tspan
         style="stroke-width:0.26458332"
         y="248.62766"
         x="236.68756"
         id="tspan1110"
         sodipodi:role="line">Ikke-konge</tspan></text>
    <g
       id="g1225"
       ns1:jacobian_sqrt="1.143126"
       ns1:alignment="middle center"
       ns1:scale="3.24035773799"
       ns1:preamble="C:\\Users\\Buster\\AppData\\Roaming\\inkscape\\extensions\\textext\\default_packages.tex"
       ns1:text="$\\text{Tr\xc3\xa6k 1}$"
       ns1:pdfconverter="pdf2svg"
       ns1:texconverter="pdflatex"
       ns1:version="0.11.0"
       transform="matrix(1.143126,0,0,1.143126,-36.106308,-64.504415)">
      <g
         id="surface1">
        <g
           id="g1210"
           style="fill:#000000;fill-opacity:1">
          <path
             id="path1208"
             transform="translate(148.712,134.765)"
             d="m 6.640625,-6.75 h -6.09375 l -0.1875,2.25 h 0.25 C 0.75,-6.109375 0.890625,-6.4375 2.40625,-6.4375 c 0.171875,0 0.4375,0 0.53125,0.015625 0.21875,0.046875 0.21875,0.15625 0.21875,0.375 v 5.265625 c 0,0.328125 0,0.46875 -1.046875,0.46875 H 1.703125 V 0 C 2.109375,-0.03125 3.125,-0.03125 3.59375,-0.03125 c 0.453125,0 1.484375,0 1.890625,0.03125 v -0.3125 h -0.40625 c -1.046875,0 -1.046875,-0.140625 -1.046875,-0.46875 v -5.265625 c 0,-0.1875 0,-0.328125 0.1875,-0.375 0.109375,-0.015625 0.375,-0.015625 0.5625,-0.015625 1.515625,0 1.65625,0.328125 1.796875,1.9375 h 0.25 z m 0,0"
             style="stroke:none;stroke-width:0"
             inkscape:connector-curvature="0" />
        </g>
        <g
           id="g1218"
           style="fill:#000000;fill-opacity:1">
          <path
             id="path1212"
             transform="translate(155.08009,134.765)"
             d="M 1.671875,-3.3125 V -4.40625 L 0.28125,-4.296875 v 0.3125 c 0.703125,0 0.78125,0.0625 0.78125,0.5625 V -0.75 c 0,0.4375 -0.109375,0.4375 -0.78125,0.4375 V 0 c 0.390625,-0.015625 0.859375,-0.03125 1.140625,-0.03125 0.390625,0 0.859375,0 1.265625,0.03125 V -0.3125 H 2.46875 c -0.734375,0 -0.75,-0.109375 -0.75,-0.46875 V -2.3125 c 0,-0.984375 0.421875,-1.875 1.171875,-1.875 0.0625,0 0.09375,0 0.109375,0.015625 -0.03125,0 -0.234375,0.125 -0.234375,0.390625 0,0.265625 0.21875,0.421875 0.4375,0.421875 0.171875,0 0.421875,-0.125 0.421875,-0.4375 0,-0.3125 -0.3125,-0.609375 -0.734375,-0.609375 -0.734375,0 -1.09375,0.671875 -1.21875,1.09375 z m 0,0"
             style="stroke:none;stroke-width:0"
             inkscape:connector-curvature="0" />
          <path
             id="path1214"
             transform="translate(158.98244,134.765)"
             d="M 3.953125,-2.515625 C 4.046875,-3.96875 4.875,-4.25 5.234375,-4.25 c 0.953125,0 1,1.34375 1.015625,1.734375 z M 3.9375,-2.296875 h 2.71875 c 0.21875,0 0.25,0 0.25,-0.21875 0,-1.109375 -0.578125,-1.953125 -1.65625,-1.953125 -0.4375,0 -1,0.15625 -1.515625,0.765625 C 3.453125,-4.171875 2.84375,-4.46875 2.21875,-4.46875 c -0.796875,0 -1.515625,0.46875 -1.515625,1.125 0,0.296875 0.203125,0.46875 0.46875,0.46875 0.28125,0 0.453125,-0.203125 0.453125,-0.453125 0,-0.125 -0.046875,-0.453125 -0.515625,-0.453125 0.25,-0.328125 0.71875,-0.46875 1.078125,-0.46875 0.515625,0 1.0625,0.40625 1.0625,1.28125 V -2.5 c -1.609375,0 -2.796875,0.625 -2.796875,1.578125 0,0.796875 0.90625,1.03125 1.578125,1.03125 0.8125,0 1.421875,-0.40625 1.671875,-0.890625 0.578125,0.8125 1.359375,0.890625 1.65625,0.890625 1.125,0 1.546875,-1.109375 1.546875,-1.296875 0,-0.09375 -0.078125,-0.125 -0.125,-0.125 -0.09375,0 -0.109375,0.046875 -0.15625,0.203125 -0.140625,0.5 -0.609375,0.96875 -1.21875,0.96875 -0.109375,0 -1.46875,0 -1.46875,-2.15625 z M 3.25,-2.28125 c 0,0.234375 0,0.4375 0.09375,0.75 0.03125,0.109375 0.03125,0.1875 0.03125,0.21875 0,0.640625 -0.578125,1.203125 -1.296875,1.203125 -0.46875,0 -0.859375,-0.34375 -0.859375,-0.8125 0,-0.53125 0.421875,-1.296875 2.03125,-1.359375 z m 0,0"
             style="stroke:none;stroke-width:0"
             inkscape:connector-curvature="0" />
          <path
             id="path1216"
             transform="translate(166.17743,134.765)"
             d="m 1.0625,-0.75 c 0,0.4375 -0.109375,0.4375 -0.78125,0.4375 V 0 c 0.328125,-0.015625 0.796875,-0.03125 1.078125,-0.03125 0.3125,0 0.703125,0.015625 1.109375,0.03125 v -0.3125 c -0.671875,0 -0.78125,0 -0.78125,-0.4375 v -1.03125 l 0.640625,-0.546875 c 0.765625,1.046875 1.1875,1.609375 1.1875,1.796875 0,0.1875 -0.171875,0.21875 -0.359375,0.21875 V 0 c 0.265625,-0.015625 0.859375,-0.03125 1.078125,-0.03125 0.28125,0 0.578125,0.015625 0.859375,0.03125 v -0.3125 c -0.375,0 -0.59375,0 -0.96875,-0.53125 L 2.859375,-2.625 c -0.015625,-0.015625 -0.0625,-0.078125 -0.0625,-0.109375 0,-0.03125 0.71875,-0.640625 0.8125,-0.71875 0.625,-0.5 1.046875,-0.53125 1.25,-0.53125 v -0.3125 c -0.28125,0.03125 -0.40625,0.03125 -0.6875,0.03125 -0.359375,0 -0.984375,-0.015625 -1.125,-0.03125 v 0.3125 c 0.1875,0 0.296875,0.109375 0.296875,0.25 0,0.203125 -0.140625,0.3125 -0.21875,0.390625 l -1.40625,1.203125 v -4.78125 L 0.28125,-6.8125 V -6.5 c 0.703125,0 0.78125,0.0625 0.78125,0.5625 z m 0,0"
             style="stroke:none;stroke-width:0"
             inkscape:connector-curvature="0" />
        </g>
        <g
           id="g1222"
           style="fill:#000000;fill-opacity:1">
          <path
             id="path1220"
             transform="translate(174.75324,134.765)"
             d="m 2.9375,-6.375 c 0,-0.25 0,-0.265625 -0.234375,-0.265625 C 2.078125,-6 1.203125,-6 0.890625,-6 v 0.3125 c 0.203125,0 0.78125,0 1.296875,-0.265625 v 5.171875 c 0,0.359375 -0.03125,0.46875 -0.921875,0.46875 h -0.3125 V 0 c 0.34375,-0.03125 1.203125,-0.03125 1.609375,-0.03125 0.390625,0 1.265625,0 1.609375,0.03125 v -0.3125 h -0.3125 c -0.90625,0 -0.921875,-0.109375 -0.921875,-0.46875 z m 0,0"
             style="stroke:none;stroke-width:0"
             inkscape:connector-curvature="0" />
        </g>
      </g>
    </g>
    <g
       id="g1349"
       ns1:jacobian_sqrt="1.143126"
       ns1:alignment="middle center"
       ns1:scale="3.24035773799"
       ns1:preamble="C:\\Users\\Buster\\AppData\\Roaming\\inkscape\\extensions\\textext\\default_packages.tex"
       ns1:text="$\\text{Tr\xc3\xa6k 2}$"
       ns1:pdfconverter="pdf2svg"
       ns1:texconverter="pdflatex"
       ns1:version="0.11.0"
       transform="matrix(1.143126,0,0,1.143126,36.598792,-64.799466)">
      <g
         id="g1347">
        <g
           id="g1333"
           style="fill:#000000;fill-opacity:1">
          <path
             id="path1331"
             transform="translate(148.712,134.765)"
             d="m 6.640625,-6.75 h -6.09375 l -0.1875,2.25 h 0.25 C 0.75,-6.109375 0.890625,-6.4375 2.40625,-6.4375 c 0.171875,0 0.4375,0 0.53125,0.015625 0.21875,0.046875 0.21875,0.15625 0.21875,0.375 v 5.265625 c 0,0.328125 0,0.46875 -1.046875,0.46875 H 1.703125 V 0 C 2.109375,-0.03125 3.125,-0.03125 3.59375,-0.03125 c 0.453125,0 1.484375,0 1.890625,0.03125 v -0.3125 h -0.40625 c -1.046875,0 -1.046875,-0.140625 -1.046875,-0.46875 v -5.265625 c 0,-0.1875 0,-0.328125 0.1875,-0.375 0.109375,-0.015625 0.375,-0.015625 0.5625,-0.015625 1.515625,0 1.65625,0.328125 1.796875,1.9375 h 0.25 z m 0,0"
             style="stroke:none;stroke-width:0"
             inkscape:connector-curvature="0" />
        </g>
        <g
           id="g1341"
           style="fill:#000000;fill-opacity:1">
          <path
             id="path1335"
             transform="translate(155.08009,134.765)"
             d="M 1.671875,-3.3125 V -4.40625 L 0.28125,-4.296875 v 0.3125 c 0.703125,0 0.78125,0.0625 0.78125,0.5625 V -0.75 c 0,0.4375 -0.109375,0.4375 -0.78125,0.4375 V 0 c 0.390625,-0.015625 0.859375,-0.03125 1.140625,-0.03125 0.390625,0 0.859375,0 1.265625,0.03125 V -0.3125 H 2.46875 c -0.734375,0 -0.75,-0.109375 -0.75,-0.46875 V -2.3125 c 0,-0.984375 0.421875,-1.875 1.171875,-1.875 0.0625,0 0.09375,0 0.109375,0.015625 -0.03125,0 -0.234375,0.125 -0.234375,0.390625 0,0.265625 0.21875,0.421875 0.4375,0.421875 0.171875,0 0.421875,-0.125 0.421875,-0.4375 0,-0.3125 -0.3125,-0.609375 -0.734375,-0.609375 -0.734375,0 -1.09375,0.671875 -1.21875,1.09375 z m 0,0"
             style="stroke:none;stroke-width:0"
             inkscape:connector-curvature="0" />
          <path
             id="path1337"
             transform="translate(158.98244,134.765)"
             d="M 3.953125,-2.515625 C 4.046875,-3.96875 4.875,-4.25 5.234375,-4.25 c 0.953125,0 1,1.34375 1.015625,1.734375 z M 3.9375,-2.296875 h 2.71875 c 0.21875,0 0.25,0 0.25,-0.21875 0,-1.109375 -0.578125,-1.953125 -1.65625,-1.953125 -0.4375,0 -1,0.15625 -1.515625,0.765625 C 3.453125,-4.171875 2.84375,-4.46875 2.21875,-4.46875 c -0.796875,0 -1.515625,0.46875 -1.515625,1.125 0,0.296875 0.203125,0.46875 0.46875,0.46875 0.28125,0 0.453125,-0.203125 0.453125,-0.453125 0,-0.125 -0.046875,-0.453125 -0.515625,-0.453125 0.25,-0.328125 0.71875,-0.46875 1.078125,-0.46875 0.515625,0 1.0625,0.40625 1.0625,1.28125 V -2.5 c -1.609375,0 -2.796875,0.625 -2.796875,1.578125 0,0.796875 0.90625,1.03125 1.578125,1.03125 0.8125,0 1.421875,-0.40625 1.671875,-0.890625 0.578125,0.8125 1.359375,0.890625 1.65625,0.890625 1.125,0 1.546875,-1.109375 1.546875,-1.296875 0,-0.09375 -0.078125,-0.125 -0.125,-0.125 -0.09375,0 -0.109375,0.046875 -0.15625,0.203125 -0.140625,0.5 -0.609375,0.96875 -1.21875,0.96875 -0.109375,0 -1.46875,0 -1.46875,-2.15625 z M 3.25,-2.28125 c 0,0.234375 0,0.4375 0.09375,0.75 0.03125,0.109375 0.03125,0.1875 0.03125,0.21875 0,0.640625 -0.578125,1.203125 -1.296875,1.203125 -0.46875,0 -0.859375,-0.34375 -0.859375,-0.8125 0,-0.53125 0.421875,-1.296875 2.03125,-1.359375 z m 0,0"
             style="stroke:none;stroke-width:0"
             inkscape:connector-curvature="0" />
          <path
             id="path1339"
             transform="translate(166.17743,134.765)"
             d="m 1.0625,-0.75 c 0,0.4375 -0.109375,0.4375 -0.78125,0.4375 V 0 c 0.328125,-0.015625 0.796875,-0.03125 1.078125,-0.03125 0.3125,0 0.703125,0.015625 1.109375,0.03125 v -0.3125 c -0.671875,0 -0.78125,0 -0.78125,-0.4375 v -1.03125 l 0.640625,-0.546875 c 0.765625,1.046875 1.1875,1.609375 1.1875,1.796875 0,0.1875 -0.171875,0.21875 -0.359375,0.21875 V 0 c 0.265625,-0.015625 0.859375,-0.03125 1.078125,-0.03125 0.28125,0 0.578125,0.015625 0.859375,0.03125 v -0.3125 c -0.375,0 -0.59375,0 -0.96875,-0.53125 L 2.859375,-2.625 c -0.015625,-0.015625 -0.0625,-0.078125 -0.0625,-0.109375 0,-0.03125 0.71875,-0.640625 0.8125,-0.71875 0.625,-0.5 1.046875,-0.53125 1.25,-0.53125 v -0.3125 c -0.28125,0.03125 -0.40625,0.03125 -0.6875,0.03125 -0.359375,0 -0.984375,-0.015625 -1.125,-0.03125 v 0.3125 c 0.1875,0 0.296875,0.109375 0.296875,0.25 0,0.203125 -0.140625,0.3125 -0.21875,0.390625 l -1.40625,1.203125 v -4.78125 L 0.28125,-6.8125 V -6.5 c 0.703125,0 0.78125,0.0625 0.78125,0.5625 z m 0,0"
             style="stroke:none;stroke-width:0"
             inkscape:connector-curvature="0" />
        </g>
        <g
           id="g1345"
           style="fill:#000000;fill-opacity:1">
          <path
             id="path1343"
             transform="translate(174.75324,134.765)"
             d="m 1.265625,-0.765625 1.0625,-1.03125 c 1.546875,-1.375 2.140625,-1.90625 2.140625,-2.90625 0,-1.140625 -0.890625,-1.9375 -2.109375,-1.9375 -1.125,0 -1.859375,0.921875 -1.859375,1.8125 0,0.546875 0.5,0.546875 0.53125,0.546875 0.171875,0 0.515625,-0.109375 0.515625,-0.53125 0,-0.25 -0.1875,-0.515625 -0.53125,-0.515625 -0.078125,0 -0.09375,0 -0.125,0.015625 0.21875,-0.65625 0.765625,-1.015625 1.34375,-1.015625 0.90625,0 1.328125,0.8125 1.328125,1.625 C 3.5625,-3.90625 3.078125,-3.125 2.515625,-2.5 l -1.90625,2.125 C 0.5,-0.265625 0.5,-0.234375 0.5,0 H 4.203125 L 4.46875,-1.734375 H 4.234375 C 4.171875,-1.4375 4.109375,-1 4,-0.84375 3.9375,-0.765625 3.28125,-0.765625 3.0625,-0.765625 Z m 0,0"
             style="stroke:none;stroke-width:0"
             inkscape:connector-curvature="0" />
        </g>
      </g>
    </g>
    <rect
       style="opacity:0;fill:#ff4ada;fill-opacity:0.27222224;stroke:#000000;stroke-width:1.06500006;stroke-linecap:round;stroke-miterlimit:4;stroke-dasharray:6.38999989, 6.38999989000000035;stroke-dashoffset:0;stroke-opacity:0.35911602"
       id="rect1363"
       width="152.61089"
       height="179.33786"
       x="122.94398"
       y="79.175339"
       inkscape:export-xdpi="87.059998"
       inkscape:export-ydpi="87.059998" />
    <g
       id="g1872"
       ns1:jacobian_sqrt="0.935629"
       ns1:alignment="middle center"
       ns1:scale="2.65217622617"
       ns1:preamble="C:\\Users\\Buster\\AppData\\Roaming\\inkscape\\extensions\\textext\\default_packages.tex"
       ns1:text="$t_{1,1}$"
       ns1:pdfconverter="pdf2svg"
       ns1:texconverter="pdflatex"
       ns1:version="0.11.0"
       transform="matrix(0.935629,0,0,0.935629,13.328066,5.6222856)">
      <g
         id="g1870">
        <g
           id="g1856"
           style="fill:#000000;fill-opacity:1">
          <path
             id="path1854"
             transform="translate(148.712,134.765)"
             d="m 2.046875,-3.984375 h 0.9375 c 0.203125,0 0.3125,0 0.3125,-0.203125 0,-0.109375 -0.109375,-0.109375 -0.28125,-0.109375 h -0.875 C 2.5,-5.71875 2.546875,-5.90625 2.546875,-5.96875 c 0,-0.171875 -0.125,-0.265625 -0.296875,-0.265625 -0.03125,0 -0.3125,0 -0.390625,0.359375 L 1.46875,-4.296875 h -0.9375 c -0.203125,0 -0.296875,0 -0.296875,0.1875 0,0.125 0.078125,0.125 0.28125,0.125 h 0.875 C 0.671875,-1.15625 0.625,-0.984375 0.625,-0.8125 0.625,-0.265625 1,0.109375 1.546875,0.109375 2.5625,0.109375 3.125,-1.34375 3.125,-1.421875 3.125,-1.53125 3.046875,-1.53125 3.015625,-1.53125 2.921875,-1.53125 2.90625,-1.5 2.859375,-1.390625 2.4375,-0.34375 1.90625,-0.109375 1.5625,-0.109375 c -0.203125,0 -0.3125,-0.125 -0.3125,-0.453125 0,-0.25 0.03125,-0.3125 0.0625,-0.484375 z m 0,0"
             style="stroke:none;stroke-width:0"
             inkscape:connector-curvature="0" />
        </g>
        <g
           id="g1860"
           style="fill:#000000;fill-opacity:1">
          <path
             id="path1858"
             transform="translate(152.31,136.259)"
             d="m 2.328125,-4.4375 c 0,-0.1875 0,-0.1875 -0.203125,-0.1875 -0.453125,0.4375 -1.078125,0.4375 -1.359375,0.4375 v 0.25 c 0.15625,0 0.625,0 1,-0.1875 v 3.546875 c 0,0.234375 0,0.328125 -0.6875,0.328125 H 0.8125 V 0 c 0.125,0 0.984375,-0.03125 1.234375,-0.03125 0.21875,0 1.09375,0.03125 1.25,0.03125 V -0.25 H 3.03125 c -0.703125,0 -0.703125,-0.09375 -0.703125,-0.328125 z m 0,0"
             style="stroke:none;stroke-width:0"
             inkscape:connector-curvature="0" />
        </g>
        <g
           id="g1864"
           style="fill:#000000;fill-opacity:1">
          <path
             id="path1862"
             transform="translate(156.281,136.259)"
             d="m 1.46875,-0.109375 c 0,0.375 -0.0625,0.828125 -0.546875,1.265625 C 0.90625,1.1875 0.875,1.21875 0.875,1.25 c 0,0.046875 0.0625,0.09375 0.09375,0.09375 0.109375,0 0.703125,-0.5625 0.703125,-1.390625 0,-0.421875 -0.171875,-0.75 -0.5,-0.75 -0.21875,0 -0.390625,0.171875 -0.390625,0.390625 C 0.78125,-0.1875 0.9375,0 1.1875,0 1.359375,0 1.46875,-0.109375 1.46875,-0.109375 Z m 0,0"
             style="stroke:none;stroke-width:0"
             inkscape:connector-curvature="0" />
        </g>
        <g
           id="g1868"
           style="fill:#000000;fill-opacity:1">
          <path
             id="path1866"
             transform="translate(158.647,136.259)"
             d="m 2.328125,-4.4375 c 0,-0.1875 0,-0.1875 -0.203125,-0.1875 -0.453125,0.4375 -1.078125,0.4375 -1.359375,0.4375 v 0.25 c 0.15625,0 0.625,0 1,-0.1875 v 3.546875 c 0,0.234375 0,0.328125 -0.6875,0.328125 H 0.8125 V 0 c 0.125,0 0.984375,-0.03125 1.234375,-0.03125 0.21875,0 1.09375,0.03125 1.25,0.03125 V -0.25 H 3.03125 c -0.703125,0 -0.703125,-0.09375 -0.703125,-0.328125 z m 0,0"
             style="stroke:none;stroke-width:0"
             inkscape:connector-curvature="0" />
        </g>
      </g>
    </g>
    <rect
       style="opacity:0;fill:#ff4ada;fill-opacity:0.27222224;stroke:#000000;stroke-width:1.06500006;stroke-linecap:round;stroke-miterlimit:4;stroke-dasharray:6.38999992, 6.38999992;stroke-dashoffset:0;stroke-opacity:0.35911602"
       id="rect2124"
       width="151.54182"
       height="185.21779"
       x="125.34941"
       y="76.235374"
       inkscape:export-xdpi="87.214973"
       inkscape:export-ydpi="87.214973" />
    <g
       id="g2316"
       ns1:jacobian_sqrt="0.935629"
       ns1:alignment="middle center"
       ns1:scale="2.65217622617"
       ns1:preamble="C:\\Users\\Buster\\AppData\\Roaming\\inkscape\\extensions\\textext\\default_packages.tex"
       ns1:text="$t_{1,2}$"
       ns1:pdfconverter="pdf2svg"
       ns1:texconverter="pdflatex"
       ns1:version="0.11.0"
       transform="matrix(0.935629,0.000000,0.000000,0.935629,13.493002,30.781892)">
      <g
         id="g2314">
        <g
           id="g2300"
           style="fill:rgb(0%,0%,0%);fill-opacity:1;">
          <path
             id="path2298"
             transform="translate(148.712,134.765)"
             d="M 2.046875 -3.984375 L 2.984375 -3.984375 C 3.1875 -3.984375 3.296875 -3.984375 3.296875 -4.1875 C 3.296875 -4.296875 3.1875 -4.296875 3.015625 -4.296875 L 2.140625 -4.296875 C 2.5 -5.71875 2.546875 -5.90625 2.546875 -5.96875 C 2.546875 -6.140625 2.421875 -6.234375 2.25 -6.234375 C 2.21875 -6.234375 1.9375 -6.234375 1.859375 -5.875 L 1.46875 -4.296875 L 0.53125 -4.296875 C 0.328125 -4.296875 0.234375 -4.296875 0.234375 -4.109375 C 0.234375 -3.984375 0.3125 -3.984375 0.515625 -3.984375 L 1.390625 -3.984375 C 0.671875 -1.15625 0.625 -0.984375 0.625 -0.8125 C 0.625 -0.265625 1 0.109375 1.546875 0.109375 C 2.5625 0.109375 3.125 -1.34375 3.125 -1.421875 C 3.125 -1.53125 3.046875 -1.53125 3.015625 -1.53125 C 2.921875 -1.53125 2.90625 -1.5 2.859375 -1.390625 C 2.4375 -0.34375 1.90625 -0.109375 1.5625 -0.109375 C 1.359375 -0.109375 1.25 -0.234375 1.25 -0.5625 C 1.25 -0.8125 1.28125 -0.875 1.3125 -1.046875 Z M 2.046875 -3.984375 "
             style="stroke:none;stroke-width:0" />
        </g>
        <g
           id="g2304"
           style="fill:rgb(0%,0%,0%);fill-opacity:1;">
          <path
             id="path2302"
             transform="translate(152.31,136.259)"
             d="M 2.328125 -4.4375 C 2.328125 -4.625 2.328125 -4.625 2.125 -4.625 C 1.671875 -4.1875 1.046875 -4.1875 0.765625 -4.1875 L 0.765625 -3.9375 C 0.921875 -3.9375 1.390625 -3.9375 1.765625 -4.125 L 1.765625 -0.578125 C 1.765625 -0.34375 1.765625 -0.25 1.078125 -0.25 L 0.8125 -0.25 L 0.8125 0 C 0.9375 0 1.796875 -0.03125 2.046875 -0.03125 C 2.265625 -0.03125 3.140625 0 3.296875 0 L 3.296875 -0.25 L 3.03125 -0.25 C 2.328125 -0.25 2.328125 -0.34375 2.328125 -0.578125 Z M 2.328125 -4.4375 "
             style="stroke:none;stroke-width:0" />
        </g>
        <g
           id="g2308"
           style="fill:rgb(0%,0%,0%);fill-opacity:1;">
          <path
             id="path2306"
             transform="translate(156.281,136.259)"
             d="M 1.46875 -0.109375 C 1.46875 0.265625 1.40625 0.71875 0.921875 1.15625 C 0.90625 1.1875 0.875 1.21875 0.875 1.25 C 0.875 1.296875 0.9375 1.34375 0.96875 1.34375 C 1.078125 1.34375 1.671875 0.78125 1.671875 -0.046875 C 1.671875 -0.46875 1.5 -0.796875 1.171875 -0.796875 C 0.953125 -0.796875 0.78125 -0.625 0.78125 -0.40625 C 0.78125 -0.1875 0.9375 0 1.1875 0 C 1.359375 0 1.46875 -0.109375 1.46875 -0.109375 Z M 1.46875 -0.109375 "
             style="stroke:none;stroke-width:0" />
        </g>
        <g
           id="g2312"
           style="fill:rgb(0%,0%,0%);fill-opacity:1;">
          <path
             id="path2310"
             transform="translate(158.647,136.259)"
             d="M 3.515625 -1.265625 L 3.28125 -1.265625 C 3.265625 -1.109375 3.1875 -0.703125 3.09375 -0.640625 C 3.046875 -0.59375 2.515625 -0.59375 2.40625 -0.59375 L 1.125 -0.59375 C 1.859375 -1.234375 2.109375 -1.4375 2.515625 -1.765625 C 3.03125 -2.171875 3.515625 -2.609375 3.515625 -3.265625 C 3.515625 -4.109375 2.78125 -4.625 1.890625 -4.625 C 1.03125 -4.625 0.4375 -4.015625 0.4375 -3.375 C 0.4375 -3.03125 0.734375 -2.984375 0.8125 -2.984375 C 0.96875 -2.984375 1.171875 -3.109375 1.171875 -3.359375 C 1.171875 -3.484375 1.125 -3.734375 0.765625 -3.734375 C 0.984375 -4.21875 1.453125 -4.375 1.78125 -4.375 C 2.484375 -4.375 2.84375 -3.828125 2.84375 -3.265625 C 2.84375 -2.65625 2.40625 -2.1875 2.1875 -1.9375 L 0.515625 -0.265625 C 0.4375 -0.203125 0.4375 -0.1875 0.4375 0 L 3.3125 0 Z M 3.515625 -1.265625 "
             style="stroke:none;stroke-width:0" />
        </g>
      </g>
    </g>
    <g
       id="g2520"
       ns1:jacobian_sqrt="0.935629"
       ns1:alignment="middle center"
       ns1:scale="2.65217622617"
       ns1:preamble="C:\\Users\\Buster\\AppData\\Roaming\\inkscape\\extensions\\textext\\default_packages.tex"
       ns1:text="$t_{1,3}$"
       ns1:pdfconverter="pdf2svg"
       ns1:texconverter="pdflatex"
       ns1:version="0.11.0"
       transform="matrix(0.935629,0.000000,0.000000,0.935629,13.463763,59.356910)">
      <g
         id="g2518">
        <g
           id="g2504"
           style="fill:rgb(0%,0%,0%);fill-opacity:1;">
          <path
             id="path2502"
             transform="translate(148.712,134.765)"
             d="M 2.046875 -3.984375 L 2.984375 -3.984375 C 3.1875 -3.984375 3.296875 -3.984375 3.296875 -4.1875 C 3.296875 -4.296875 3.1875 -4.296875 3.015625 -4.296875 L 2.140625 -4.296875 C 2.5 -5.71875 2.546875 -5.90625 2.546875 -5.96875 C 2.546875 -6.140625 2.421875 -6.234375 2.25 -6.234375 C 2.21875 -6.234375 1.9375 -6.234375 1.859375 -5.875 L 1.46875 -4.296875 L 0.53125 -4.296875 C 0.328125 -4.296875 0.234375 -4.296875 0.234375 -4.109375 C 0.234375 -3.984375 0.3125 -3.984375 0.515625 -3.984375 L 1.390625 -3.984375 C 0.671875 -1.15625 0.625 -0.984375 0.625 -0.8125 C 0.625 -0.265625 1 0.109375 1.546875 0.109375 C 2.5625 0.109375 3.125 -1.34375 3.125 -1.421875 C 3.125 -1.53125 3.046875 -1.53125 3.015625 -1.53125 C 2.921875 -1.53125 2.90625 -1.5 2.859375 -1.390625 C 2.4375 -0.34375 1.90625 -0.109375 1.5625 -0.109375 C 1.359375 -0.109375 1.25 -0.234375 1.25 -0.5625 C 1.25 -0.8125 1.28125 -0.875 1.3125 -1.046875 Z M 2.046875 -3.984375 "
             style="stroke:none;stroke-width:0" />
        </g>
        <g
           id="g2508"
           style="fill:rgb(0%,0%,0%);fill-opacity:1;">
          <path
             id="path2506"
             transform="translate(152.31,136.259)"
             d="M 2.328125 -4.4375 C 2.328125 -4.625 2.328125 -4.625 2.125 -4.625 C 1.671875 -4.1875 1.046875 -4.1875 0.765625 -4.1875 L 0.765625 -3.9375 C 0.921875 -3.9375 1.390625 -3.9375 1.765625 -4.125 L 1.765625 -0.578125 C 1.765625 -0.34375 1.765625 -0.25 1.078125 -0.25 L 0.8125 -0.25 L 0.8125 0 C 0.9375 0 1.796875 -0.03125 2.046875 -0.03125 C 2.265625 -0.03125 3.140625 0 3.296875 0 L 3.296875 -0.25 L 3.03125 -0.25 C 2.328125 -0.25 2.328125 -0.34375 2.328125 -0.578125 Z M 2.328125 -4.4375 "
             style="stroke:none;stroke-width:0" />
        </g>
        <g
           id="g2512"
           style="fill:rgb(0%,0%,0%);fill-opacity:1;">
          <path
             id="path2510"
             transform="translate(156.281,136.259)"
             d="M 1.46875 -0.109375 C 1.46875 0.265625 1.40625 0.71875 0.921875 1.15625 C 0.90625 1.1875 0.875 1.21875 0.875 1.25 C 0.875 1.296875 0.9375 1.34375 0.96875 1.34375 C 1.078125 1.34375 1.671875 0.78125 1.671875 -0.046875 C 1.671875 -0.46875 1.5 -0.796875 1.171875 -0.796875 C 0.953125 -0.796875 0.78125 -0.625 0.78125 -0.40625 C 0.78125 -0.1875 0.9375 0 1.1875 0 C 1.359375 0 1.46875 -0.109375 1.46875 -0.109375 Z M 1.46875 -0.109375 "
             style="stroke:none;stroke-width:0" />
        </g>
        <g
           id="g2516"
           style="fill:rgb(0%,0%,0%);fill-opacity:1;">
          <path
             id="path2514"
             transform="translate(158.647,136.259)"
             d="M 1.90625 -2.328125 C 2.453125 -2.328125 2.84375 -1.953125 2.84375 -1.203125 C 2.84375 -0.34375 2.328125 -0.078125 1.9375 -0.078125 C 1.65625 -0.078125 1.03125 -0.15625 0.75 -0.578125 C 1.078125 -0.578125 1.15625 -0.8125 1.15625 -0.96875 C 1.15625 -1.1875 0.984375 -1.34375 0.765625 -1.34375 C 0.578125 -1.34375 0.375 -1.21875 0.375 -0.9375 C 0.375 -0.28125 1.09375 0.140625 1.9375 0.140625 C 2.90625 0.140625 3.578125 -0.515625 3.578125 -1.203125 C 3.578125 -1.75 3.140625 -2.296875 2.375 -2.453125 C 3.09375 -2.71875 3.359375 -3.234375 3.359375 -3.671875 C 3.359375 -4.21875 2.734375 -4.625 1.953125 -4.625 C 1.1875 -4.625 0.59375 -4.25 0.59375 -3.6875 C 0.59375 -3.453125 0.75 -3.328125 0.953125 -3.328125 C 1.171875 -3.328125 1.3125 -3.484375 1.3125 -3.671875 C 1.3125 -3.875 1.171875 -4.03125 0.953125 -4.046875 C 1.203125 -4.34375 1.671875 -4.421875 1.9375 -4.421875 C 2.25 -4.421875 2.6875 -4.265625 2.6875 -3.671875 C 2.6875 -3.375 2.59375 -3.046875 2.40625 -2.84375 C 2.1875 -2.578125 1.984375 -2.5625 1.640625 -2.53125 C 1.46875 -2.515625 1.453125 -2.515625 1.421875 -2.515625 C 1.40625 -2.515625 1.34375 -2.5 1.34375 -2.421875 C 1.34375 -2.328125 1.40625 -2.328125 1.53125 -2.328125 Z M 1.90625 -2.328125 "
             style="stroke:none;stroke-width:0" />
        </g>
      </g>
    </g>
    <g
       id="g2724"
       ns1:jacobian_sqrt="0.935629"
       ns1:alignment="middle center"
       ns1:scale="2.65217622617"
       ns1:preamble="C:\\Users\\Buster\\AppData\\Roaming\\inkscape\\extensions\\textext\\default_packages.tex"
       ns1:text="$t_{1,4}$"
       ns1:pdfconverter="pdf2svg"
       ns1:texconverter="pdflatex"
       ns1:version="0.11.0"
       transform="matrix(0.935629,0.000000,0.000000,0.935629,13.412596,76.290254)">
      <g
         id="g2722">
        <g
           id="g2708"
           style="fill:rgb(0%,0%,0%);fill-opacity:1;">
          <path
             id="path2706"
             transform="translate(148.712,134.765)"
             d="M 2.046875 -3.984375 L 2.984375 -3.984375 C 3.1875 -3.984375 3.296875 -3.984375 3.296875 -4.1875 C 3.296875 -4.296875 3.1875 -4.296875 3.015625 -4.296875 L 2.140625 -4.296875 C 2.5 -5.71875 2.546875 -5.90625 2.546875 -5.96875 C 2.546875 -6.140625 2.421875 -6.234375 2.25 -6.234375 C 2.21875 -6.234375 1.9375 -6.234375 1.859375 -5.875 L 1.46875 -4.296875 L 0.53125 -4.296875 C 0.328125 -4.296875 0.234375 -4.296875 0.234375 -4.109375 C 0.234375 -3.984375 0.3125 -3.984375 0.515625 -3.984375 L 1.390625 -3.984375 C 0.671875 -1.15625 0.625 -0.984375 0.625 -0.8125 C 0.625 -0.265625 1 0.109375 1.546875 0.109375 C 2.5625 0.109375 3.125 -1.34375 3.125 -1.421875 C 3.125 -1.53125 3.046875 -1.53125 3.015625 -1.53125 C 2.921875 -1.53125 2.90625 -1.5 2.859375 -1.390625 C 2.4375 -0.34375 1.90625 -0.109375 1.5625 -0.109375 C 1.359375 -0.109375 1.25 -0.234375 1.25 -0.5625 C 1.25 -0.8125 1.28125 -0.875 1.3125 -1.046875 Z M 2.046875 -3.984375 "
             style="stroke:none;stroke-width:0" />
        </g>
        <g
           id="g2712"
           style="fill:rgb(0%,0%,0%);fill-opacity:1;">
          <path
             id="path2710"
             transform="translate(152.31,136.259)"
             d="M 2.328125 -4.4375 C 2.328125 -4.625 2.328125 -4.625 2.125 -4.625 C 1.671875 -4.1875 1.046875 -4.1875 0.765625 -4.1875 L 0.765625 -3.9375 C 0.921875 -3.9375 1.390625 -3.9375 1.765625 -4.125 L 1.765625 -0.578125 C 1.765625 -0.34375 1.765625 -0.25 1.078125 -0.25 L 0.8125 -0.25 L 0.8125 0 C 0.9375 0 1.796875 -0.03125 2.046875 -0.03125 C 2.265625 -0.03125 3.140625 0 3.296875 0 L 3.296875 -0.25 L 3.03125 -0.25 C 2.328125 -0.25 2.328125 -0.34375 2.328125 -0.578125 Z M 2.328125 -4.4375 "
             style="stroke:none;stroke-width:0" />
        </g>
        <g
           id="g2716"
           style="fill:rgb(0%,0%,0%);fill-opacity:1;">
          <path
             id="path2714"
             transform="translate(156.281,136.259)"
             d="M 1.46875 -0.109375 C 1.46875 0.265625 1.40625 0.71875 0.921875 1.15625 C 0.90625 1.1875 0.875 1.21875 0.875 1.25 C 0.875 1.296875 0.9375 1.34375 0.96875 1.34375 C 1.078125 1.34375 1.671875 0.78125 1.671875 -0.046875 C 1.671875 -0.46875 1.5 -0.796875 1.171875 -0.796875 C 0.953125 -0.796875 0.78125 -0.625 0.78125 -0.40625 C 0.78125 -0.1875 0.9375 0 1.1875 0 C 1.359375 0 1.46875 -0.109375 1.46875 -0.109375 Z M 1.46875 -0.109375 "
             style="stroke:none;stroke-width:0" />
        </g>
        <g
           id="g2720"
           style="fill:rgb(0%,0%,0%);fill-opacity:1;">
          <path
             id="path2718"
             transform="translate(158.647,136.259)"
             d="M 3.6875 -1.140625 L 3.6875 -1.390625 L 2.90625 -1.390625 L 2.90625 -4.5 C 2.90625 -4.640625 2.90625 -4.703125 2.765625 -4.703125 C 2.671875 -4.703125 2.640625 -4.703125 2.578125 -4.59375 L 0.265625 -1.390625 L 0.265625 -1.140625 L 2.328125 -1.140625 L 2.328125 -0.578125 C 2.328125 -0.328125 2.328125 -0.25 1.75 -0.25 L 1.5625 -0.25 L 1.5625 0 C 1.921875 -0.015625 2.359375 -0.03125 2.609375 -0.03125 C 2.875 -0.03125 3.3125 -0.015625 3.671875 0 L 3.671875 -0.25 L 3.484375 -0.25 C 2.90625 -0.25 2.90625 -0.328125 2.90625 -0.578125 L 2.90625 -1.140625 Z M 2.375 -3.9375 L 2.375 -1.390625 L 0.53125 -1.390625 Z M 2.375 -3.9375 "
             style="stroke:none;stroke-width:0" />
        </g>
      </g>
    </g>
    <g
       id="g3336"
       ns1:jacobian_sqrt="0.935629"
       ns1:alignment="middle center"
       ns1:scale="2.65217622617"
       ns1:preamble="C:\\Users\\Buster\\AppData\\Roaming\\inkscape\\extensions\\textext\\default_packages.tex"
       ns1:text="$t_{2,1}$"
       ns1:pdfconverter="pdf2svg"
       ns1:texconverter="pdflatex"
       ns1:version="0.11.0"
       transform="matrix(0.935629,0.000000,0.000000,0.935629,81.749065,13.553073)">
      <g
         id="g3334">
        <g
           id="g3320"
           style="fill:rgb(0%,0%,0%);fill-opacity:1;">
          <path
             id="path3318"
             transform="translate(148.712,134.765)"
             d="M 2.046875 -3.984375 L 2.984375 -3.984375 C 3.1875 -3.984375 3.296875 -3.984375 3.296875 -4.1875 C 3.296875 -4.296875 3.1875 -4.296875 3.015625 -4.296875 L 2.140625 -4.296875 C 2.5 -5.71875 2.546875 -5.90625 2.546875 -5.96875 C 2.546875 -6.140625 2.421875 -6.234375 2.25 -6.234375 C 2.21875 -6.234375 1.9375 -6.234375 1.859375 -5.875 L 1.46875 -4.296875 L 0.53125 -4.296875 C 0.328125 -4.296875 0.234375 -4.296875 0.234375 -4.109375 C 0.234375 -3.984375 0.3125 -3.984375 0.515625 -3.984375 L 1.390625 -3.984375 C 0.671875 -1.15625 0.625 -0.984375 0.625 -0.8125 C 0.625 -0.265625 1 0.109375 1.546875 0.109375 C 2.5625 0.109375 3.125 -1.34375 3.125 -1.421875 C 3.125 -1.53125 3.046875 -1.53125 3.015625 -1.53125 C 2.921875 -1.53125 2.90625 -1.5 2.859375 -1.390625 C 2.4375 -0.34375 1.90625 -0.109375 1.5625 -0.109375 C 1.359375 -0.109375 1.25 -0.234375 1.25 -0.5625 C 1.25 -0.8125 1.28125 -0.875 1.3125 -1.046875 Z M 2.046875 -3.984375 "
             style="stroke:none;stroke-width:0" />
        </g>
        <g
           id="g3324"
           style="fill:rgb(0%,0%,0%);fill-opacity:1;">
          <path
             id="path3322"
             transform="translate(152.31,136.259)"
             d="M 3.515625 -1.265625 L 3.28125 -1.265625 C 3.265625 -1.109375 3.1875 -0.703125 3.09375 -0.640625 C 3.046875 -0.59375 2.515625 -0.59375 2.40625 -0.59375 L 1.125 -0.59375 C 1.859375 -1.234375 2.109375 -1.4375 2.515625 -1.765625 C 3.03125 -2.171875 3.515625 -2.609375 3.515625 -3.265625 C 3.515625 -4.109375 2.78125 -4.625 1.890625 -4.625 C 1.03125 -4.625 0.4375 -4.015625 0.4375 -3.375 C 0.4375 -3.03125 0.734375 -2.984375 0.8125 -2.984375 C 0.96875 -2.984375 1.171875 -3.109375 1.171875 -3.359375 C 1.171875 -3.484375 1.125 -3.734375 0.765625 -3.734375 C 0.984375 -4.21875 1.453125 -4.375 1.78125 -4.375 C 2.484375 -4.375 2.84375 -3.828125 2.84375 -3.265625 C 2.84375 -2.65625 2.40625 -2.1875 2.1875 -1.9375 L 0.515625 -0.265625 C 0.4375 -0.203125 0.4375 -0.1875 0.4375 0 L 3.3125 0 Z M 3.515625 -1.265625 "
             style="stroke:none;stroke-width:0" />
        </g>
        <g
           id="g3328"
           style="fill:rgb(0%,0%,0%);fill-opacity:1;">
          <path
             id="path3326"
             transform="translate(156.281,136.259)"
             d="M 1.46875 -0.109375 C 1.46875 0.265625 1.40625 0.71875 0.921875 1.15625 C 0.90625 1.1875 0.875 1.21875 0.875 1.25 C 0.875 1.296875 0.9375 1.34375 0.96875 1.34375 C 1.078125 1.34375 1.671875 0.78125 1.671875 -0.046875 C 1.671875 -0.46875 1.5 -0.796875 1.171875 -0.796875 C 0.953125 -0.796875 0.78125 -0.625 0.78125 -0.40625 C 0.78125 -0.1875 0.9375 0 1.1875 0 C 1.359375 0 1.46875 -0.109375 1.46875 -0.109375 Z M 1.46875 -0.109375 "
             style="stroke:none;stroke-width:0" />
        </g>
        <g
           id="g3332"
           style="fill:rgb(0%,0%,0%);fill-opacity:1;">
          <path
             id="path3330"
             transform="translate(158.647,136.259)"
             d="M 2.328125 -4.4375 C 2.328125 -4.625 2.328125 -4.625 2.125 -4.625 C 1.671875 -4.1875 1.046875 -4.1875 0.765625 -4.1875 L 0.765625 -3.9375 C 0.921875 -3.9375 1.390625 -3.9375 1.765625 -4.125 L 1.765625 -0.578125 C 1.765625 -0.34375 1.765625 -0.25 1.078125 -0.25 L 0.8125 -0.25 L 0.8125 0 C 0.9375 0 1.796875 -0.03125 2.046875 -0.03125 C 2.265625 -0.03125 3.140625 0 3.296875 0 L 3.296875 -0.25 L 3.03125 -0.25 C 2.328125 -0.25 2.328125 -0.34375 2.328125 -0.578125 Z M 2.328125 -4.4375 "
             style="stroke:none;stroke-width:0" />
        </g>
      </g>
    </g>
    <g
       id="g3540"
       ns1:jacobian_sqrt="0.935629"
       ns1:alignment="middle center"
       ns1:scale="2.65217622617"
       ns1:preamble="C:\\Users\\Buster\\AppData\\Roaming\\inkscape\\extensions\\textext\\default_packages.tex"
       ns1:text="$t_{2,2}$"
       ns1:pdfconverter="pdf2svg"
       ns1:texconverter="pdflatex"
       ns1:version="0.11.0"
       transform="matrix(0.935629,0.000000,0.000000,0.935629,81.646731,36.307254)">
      <g
         id="g3538">
        <g
           id="g3524"
           style="fill:rgb(0%,0%,0%);fill-opacity:1;">
          <path
             id="path3522"
             transform="translate(148.712,134.765)"
             d="M 2.046875 -3.984375 L 2.984375 -3.984375 C 3.1875 -3.984375 3.296875 -3.984375 3.296875 -4.1875 C 3.296875 -4.296875 3.1875 -4.296875 3.015625 -4.296875 L 2.140625 -4.296875 C 2.5 -5.71875 2.546875 -5.90625 2.546875 -5.96875 C 2.546875 -6.140625 2.421875 -6.234375 2.25 -6.234375 C 2.21875 -6.234375 1.9375 -6.234375 1.859375 -5.875 L 1.46875 -4.296875 L 0.53125 -4.296875 C 0.328125 -4.296875 0.234375 -4.296875 0.234375 -4.109375 C 0.234375 -3.984375 0.3125 -3.984375 0.515625 -3.984375 L 1.390625 -3.984375 C 0.671875 -1.15625 0.625 -0.984375 0.625 -0.8125 C 0.625 -0.265625 1 0.109375 1.546875 0.109375 C 2.5625 0.109375 3.125 -1.34375 3.125 -1.421875 C 3.125 -1.53125 3.046875 -1.53125 3.015625 -1.53125 C 2.921875 -1.53125 2.90625 -1.5 2.859375 -1.390625 C 2.4375 -0.34375 1.90625 -0.109375 1.5625 -0.109375 C 1.359375 -0.109375 1.25 -0.234375 1.25 -0.5625 C 1.25 -0.8125 1.28125 -0.875 1.3125 -1.046875 Z M 2.046875 -3.984375 "
             style="stroke:none;stroke-width:0" />
        </g>
        <g
           id="g3528"
           style="fill:rgb(0%,0%,0%);fill-opacity:1;">
          <path
             id="path3526"
             transform="translate(152.31,136.259)"
             d="M 3.515625 -1.265625 L 3.28125 -1.265625 C 3.265625 -1.109375 3.1875 -0.703125 3.09375 -0.640625 C 3.046875 -0.59375 2.515625 -0.59375 2.40625 -0.59375 L 1.125 -0.59375 C 1.859375 -1.234375 2.109375 -1.4375 2.515625 -1.765625 C 3.03125 -2.171875 3.515625 -2.609375 3.515625 -3.265625 C 3.515625 -4.109375 2.78125 -4.625 1.890625 -4.625 C 1.03125 -4.625 0.4375 -4.015625 0.4375 -3.375 C 0.4375 -3.03125 0.734375 -2.984375 0.8125 -2.984375 C 0.96875 -2.984375 1.171875 -3.109375 1.171875 -3.359375 C 1.171875 -3.484375 1.125 -3.734375 0.765625 -3.734375 C 0.984375 -4.21875 1.453125 -4.375 1.78125 -4.375 C 2.484375 -4.375 2.84375 -3.828125 2.84375 -3.265625 C 2.84375 -2.65625 2.40625 -2.1875 2.1875 -1.9375 L 0.515625 -0.265625 C 0.4375 -0.203125 0.4375 -0.1875 0.4375 0 L 3.3125 0 Z M 3.515625 -1.265625 "
             style="stroke:none;stroke-width:0" />
        </g>
        <g
           id="g3532"
           style="fill:rgb(0%,0%,0%);fill-opacity:1;">
          <path
             id="path3530"
             transform="translate(156.281,136.259)"
             d="M 1.46875 -0.109375 C 1.46875 0.265625 1.40625 0.71875 0.921875 1.15625 C 0.90625 1.1875 0.875 1.21875 0.875 1.25 C 0.875 1.296875 0.9375 1.34375 0.96875 1.34375 C 1.078125 1.34375 1.671875 0.78125 1.671875 -0.046875 C 1.671875 -0.46875 1.5 -0.796875 1.171875 -0.796875 C 0.953125 -0.796875 0.78125 -0.625 0.78125 -0.40625 C 0.78125 -0.1875 0.9375 0 1.1875 0 C 1.359375 0 1.46875 -0.109375 1.46875 -0.109375 Z M 1.46875 -0.109375 "
             style="stroke:none;stroke-width:0" />
        </g>
        <g
           id="g3536"
           style="fill:rgb(0%,0%,0%);fill-opacity:1;">
          <path
             id="path3534"
             transform="translate(158.647,136.259)"
             d="M 3.515625 -1.265625 L 3.28125 -1.265625 C 3.265625 -1.109375 3.1875 -0.703125 3.09375 -0.640625 C 3.046875 -0.59375 2.515625 -0.59375 2.40625 -0.59375 L 1.125 -0.59375 C 1.859375 -1.234375 2.109375 -1.4375 2.515625 -1.765625 C 3.03125 -2.171875 3.515625 -2.609375 3.515625 -3.265625 C 3.515625 -4.109375 2.78125 -4.625 1.890625 -4.625 C 1.03125 -4.625 0.4375 -4.015625 0.4375 -3.375 C 0.4375 -3.03125 0.734375 -2.984375 0.8125 -2.984375 C 0.96875 -2.984375 1.171875 -3.109375 1.171875 -3.359375 C 1.171875 -3.484375 1.125 -3.734375 0.765625 -3.734375 C 0.984375 -4.21875 1.453125 -4.375 1.78125 -4.375 C 2.484375 -4.375 2.84375 -3.828125 2.84375 -3.265625 C 2.84375 -2.65625 2.40625 -2.1875 2.1875 -1.9375 L 0.515625 -0.265625 C 0.4375 -0.203125 0.4375 -0.1875 0.4375 0 L 3.3125 0 Z M 3.515625 -1.265625 "
             style="stroke:none;stroke-width:0" />
        </g>
      </g>
    </g>
    <g
       id="g3744"
       ns1:jacobian_sqrt="0.935629"
       ns1:alignment="middle center"
       ns1:scale="2.65217622617"
       ns1:preamble="C:\\Users\\Buster\\AppData\\Roaming\\inkscape\\extensions\\textext\\default_packages.tex"
       ns1:text="$t_{2,1}$"
       ns1:pdfconverter="pdf2svg"
       ns1:texconverter="pdflatex"
       ns1:version="0.11.0"
       transform="matrix(0.935629,0,0,0.935629,81.749065,65.940606)">
      <g
         id="g3742">
        <g
           id="g3728"
           style="fill:#000000;fill-opacity:1">
          <path
             id="path3726"
             transform="translate(148.712,134.765)"
             d="m 2.046875,-3.984375 h 0.9375 c 0.203125,0 0.3125,0 0.3125,-0.203125 0,-0.109375 -0.109375,-0.109375 -0.28125,-0.109375 h -0.875 C 2.5,-5.71875 2.546875,-5.90625 2.546875,-5.96875 c 0,-0.171875 -0.125,-0.265625 -0.296875,-0.265625 -0.03125,0 -0.3125,0 -0.390625,0.359375 L 1.46875,-4.296875 h -0.9375 c -0.203125,0 -0.296875,0 -0.296875,0.1875 0,0.125 0.078125,0.125 0.28125,0.125 h 0.875 C 0.671875,-1.15625 0.625,-0.984375 0.625,-0.8125 0.625,-0.265625 1,0.109375 1.546875,0.109375 2.5625,0.109375 3.125,-1.34375 3.125,-1.421875 3.125,-1.53125 3.046875,-1.53125 3.015625,-1.53125 2.921875,-1.53125 2.90625,-1.5 2.859375,-1.390625 2.4375,-0.34375 1.90625,-0.109375 1.5625,-0.109375 c -0.203125,0 -0.3125,-0.125 -0.3125,-0.453125 0,-0.25 0.03125,-0.3125 0.0625,-0.484375 z m 0,0"
             style="stroke:none;stroke-width:0"
             inkscape:connector-curvature="0" />
        </g>
        <g
           id="g3732"
           style="fill:#000000;fill-opacity:1">
          <path
             id="path3730"
             transform="translate(152.31,136.259)"
             d="M 3.515625,-1.265625 H 3.28125 c -0.015625,0.15625 -0.09375,0.5625 -0.1875,0.625 C 3.046875,-0.59375 2.515625,-0.59375 2.40625,-0.59375 H 1.125 c 0.734375,-0.640625 0.984375,-0.84375 1.390625,-1.171875 0.515625,-0.40625 1,-0.84375 1,-1.5 0,-0.84375 -0.734375,-1.359375 -1.625,-1.359375 -0.859375,0 -1.453125,0.609375 -1.453125,1.25 0,0.34375 0.296875,0.390625 0.375,0.390625 0.15625,0 0.359375,-0.125 0.359375,-0.375 0,-0.125 -0.046875,-0.375 -0.40625,-0.375 C 0.984375,-4.21875 1.453125,-4.375 1.78125,-4.375 c 0.703125,0 1.0625,0.546875 1.0625,1.109375 0,0.609375 -0.4375,1.078125 -0.65625,1.328125 L 0.515625,-0.265625 C 0.4375,-0.203125 0.4375,-0.1875 0.4375,0 h 2.875 z m 0,0"
             style="stroke:none;stroke-width:0"
             inkscape:connector-curvature="0" />
        </g>
        <g
           id="g3736"
           style="fill:#000000;fill-opacity:1">
          <path
             id="path3734"
             transform="translate(156.281,136.259)"
             d="m 1.46875,-0.109375 c 0,0.375 -0.0625,0.828125 -0.546875,1.265625 C 0.90625,1.1875 0.875,1.21875 0.875,1.25 c 0,0.046875 0.0625,0.09375 0.09375,0.09375 0.109375,0 0.703125,-0.5625 0.703125,-1.390625 0,-0.421875 -0.171875,-0.75 -0.5,-0.75 -0.21875,0 -0.390625,0.171875 -0.390625,0.390625 C 0.78125,-0.1875 0.9375,0 1.1875,0 1.359375,0 1.46875,-0.109375 1.46875,-0.109375 Z m 0,0"
             style="stroke:none;stroke-width:0"
             inkscape:connector-curvature="0" />
        </g>
        <g
           id="g3740"
           style="fill:#000000;fill-opacity:1">
          <path
             id="path3738"
             transform="translate(158.647,136.259)"
             d="m 2.328125,-4.4375 c 0,-0.1875 0,-0.1875 -0.203125,-0.1875 -0.453125,0.4375 -1.078125,0.4375 -1.359375,0.4375 v 0.25 c 0.15625,0 0.625,0 1,-0.1875 v 3.546875 c 0,0.234375 0,0.328125 -0.6875,0.328125 H 0.8125 V 0 c 0.125,0 0.984375,-0.03125 1.234375,-0.03125 0.21875,0 1.09375,0.03125 1.25,0.03125 V -0.25 H 3.03125 c -0.703125,0 -0.703125,-0.09375 -0.703125,-0.328125 z m 0,0"
             style="stroke:none;stroke-width:0"
             inkscape:connector-curvature="0" />
        </g>
      </g>
    </g>
    <g
       id="g3948"
       ns1:jacobian_sqrt="0.935629"
       ns1:alignment="middle center"
       ns1:scale="2.65217622617"
       ns1:preamble="C:\\Users\\Buster\\AppData\\Roaming\\inkscape\\extensions\\textext\\default_packages.tex"
       ns1:text="$t_{2,2}$"
       ns1:pdfconverter="pdf2svg"
       ns1:texconverter="pdflatex"
       ns1:version="0.11.0"
       transform="matrix(0.935629,0,0,0.935629,81.646731,89.753121)">
      <g
         id="g3946">
        <g
           id="g3932"
           style="fill:#000000;fill-opacity:1">
          <path
             id="path3930"
             transform="translate(148.712,134.765)"
             d="m 2.046875,-3.984375 h 0.9375 c 0.203125,0 0.3125,0 0.3125,-0.203125 0,-0.109375 -0.109375,-0.109375 -0.28125,-0.109375 h -0.875 C 2.5,-5.71875 2.546875,-5.90625 2.546875,-5.96875 c 0,-0.171875 -0.125,-0.265625 -0.296875,-0.265625 -0.03125,0 -0.3125,0 -0.390625,0.359375 L 1.46875,-4.296875 h -0.9375 c -0.203125,0 -0.296875,0 -0.296875,0.1875 0,0.125 0.078125,0.125 0.28125,0.125 h 0.875 C 0.671875,-1.15625 0.625,-0.984375 0.625,-0.8125 0.625,-0.265625 1,0.109375 1.546875,0.109375 2.5625,0.109375 3.125,-1.34375 3.125,-1.421875 3.125,-1.53125 3.046875,-1.53125 3.015625,-1.53125 2.921875,-1.53125 2.90625,-1.5 2.859375,-1.390625 2.4375,-0.34375 1.90625,-0.109375 1.5625,-0.109375 c -0.203125,0 -0.3125,-0.125 -0.3125,-0.453125 0,-0.25 0.03125,-0.3125 0.0625,-0.484375 z m 0,0"
             style="stroke:none;stroke-width:0"
             inkscape:connector-curvature="0" />
        </g>
        <g
           id="g3936"
           style="fill:#000000;fill-opacity:1">
          <path
             id="path3934"
             transform="translate(152.31,136.259)"
             d="M 3.515625,-1.265625 H 3.28125 c -0.015625,0.15625 -0.09375,0.5625 -0.1875,0.625 C 3.046875,-0.59375 2.515625,-0.59375 2.40625,-0.59375 H 1.125 c 0.734375,-0.640625 0.984375,-0.84375 1.390625,-1.171875 0.515625,-0.40625 1,-0.84375 1,-1.5 0,-0.84375 -0.734375,-1.359375 -1.625,-1.359375 -0.859375,0 -1.453125,0.609375 -1.453125,1.25 0,0.34375 0.296875,0.390625 0.375,0.390625 0.15625,0 0.359375,-0.125 0.359375,-0.375 0,-0.125 -0.046875,-0.375 -0.40625,-0.375 C 0.984375,-4.21875 1.453125,-4.375 1.78125,-4.375 c 0.703125,0 1.0625,0.546875 1.0625,1.109375 0,0.609375 -0.4375,1.078125 -0.65625,1.328125 L 0.515625,-0.265625 C 0.4375,-0.203125 0.4375,-0.1875 0.4375,0 h 2.875 z m 0,0"
             style="stroke:none;stroke-width:0"
             inkscape:connector-curvature="0" />
        </g>
        <g
           id="g3940"
           style="fill:#000000;fill-opacity:1">
          <path
             id="path3938"
             transform="translate(156.281,136.259)"
             d="m 1.46875,-0.109375 c 0,0.375 -0.0625,0.828125 -0.546875,1.265625 C 0.90625,1.1875 0.875,1.21875 0.875,1.25 c 0,0.046875 0.0625,0.09375 0.09375,0.09375 0.109375,0 0.703125,-0.5625 0.703125,-1.390625 0,-0.421875 -0.171875,-0.75 -0.5,-0.75 -0.21875,0 -0.390625,0.171875 -0.390625,0.390625 C 0.78125,-0.1875 0.9375,0 1.1875,0 1.359375,0 1.46875,-0.109375 1.46875,-0.109375 Z m 0,0"
             style="stroke:none;stroke-width:0"
             inkscape:connector-curvature="0" />
        </g>
        <g
           id="g3944"
           style="fill:#000000;fill-opacity:1">
          <path
             id="path3942"
             transform="translate(158.647,136.259)"
             d="M 3.515625,-1.265625 H 3.28125 c -0.015625,0.15625 -0.09375,0.5625 -0.1875,0.625 C 3.046875,-0.59375 2.515625,-0.59375 2.40625,-0.59375 H 1.125 c 0.734375,-0.640625 0.984375,-0.84375 1.390625,-1.171875 0.515625,-0.40625 1,-0.84375 1,-1.5 0,-0.84375 -0.734375,-1.359375 -1.625,-1.359375 -0.859375,0 -1.453125,0.609375 -1.453125,1.25 0,0.34375 0.296875,0.390625 0.375,0.390625 0.15625,0 0.359375,-0.125 0.359375,-0.375 0,-0.125 -0.046875,-0.375 -0.40625,-0.375 C 0.984375,-4.21875 1.453125,-4.375 1.78125,-4.375 c 0.703125,0 1.0625,0.546875 1.0625,1.109375 0,0.609375 -0.4375,1.078125 -0.65625,1.328125 L 0.515625,-0.265625 C 0.4375,-0.203125 0.4375,-0.1875 0.4375,0 h 2.875 z m 0,0"
             style="stroke:none;stroke-width:0"
             inkscape:connector-curvature="0" />
        </g>
      </g>
    </g>
    <g
       id="g4152"
       ns1:jacobian_sqrt="0.935629"
       ns1:alignment="middle center"
       ns1:scale="2.65217622617"
       ns1:preamble="C:\\Users\\Buster\\AppData\\Roaming\\inkscape\\extensions\\textext\\default_packages.tex"
       ns1:text="$t_{2,1}$"
       ns1:pdfconverter="pdf2svg"
       ns1:texconverter="pdflatex"
       ns1:version="0.11.0"
       transform="matrix(0.935629,0,0,0.935629,81.749065,100.86563)">
      <g
         id="g4150">
        <g
           id="g4136"
           style="fill:#000000;fill-opacity:1">
          <path
             id="path4134"
             transform="translate(148.712,134.765)"
             d="m 2.046875,-3.984375 h 0.9375 c 0.203125,0 0.3125,0 0.3125,-0.203125 0,-0.109375 -0.109375,-0.109375 -0.28125,-0.109375 h -0.875 C 2.5,-5.71875 2.546875,-5.90625 2.546875,-5.96875 c 0,-0.171875 -0.125,-0.265625 -0.296875,-0.265625 -0.03125,0 -0.3125,0 -0.390625,0.359375 L 1.46875,-4.296875 h -0.9375 c -0.203125,0 -0.296875,0 -0.296875,0.1875 0,0.125 0.078125,0.125 0.28125,0.125 h 0.875 C 0.671875,-1.15625 0.625,-0.984375 0.625,-0.8125 0.625,-0.265625 1,0.109375 1.546875,0.109375 2.5625,0.109375 3.125,-1.34375 3.125,-1.421875 3.125,-1.53125 3.046875,-1.53125 3.015625,-1.53125 2.921875,-1.53125 2.90625,-1.5 2.859375,-1.390625 2.4375,-0.34375 1.90625,-0.109375 1.5625,-0.109375 c -0.203125,0 -0.3125,-0.125 -0.3125,-0.453125 0,-0.25 0.03125,-0.3125 0.0625,-0.484375 z m 0,0"
             style="stroke:none;stroke-width:0"
             inkscape:connector-curvature="0" />
        </g>
        <g
           id="g4140"
           style="fill:#000000;fill-opacity:1">
          <path
             id="path4138"
             transform="translate(152.31,136.259)"
             d="M 3.515625,-1.265625 H 3.28125 c -0.015625,0.15625 -0.09375,0.5625 -0.1875,0.625 C 3.046875,-0.59375 2.515625,-0.59375 2.40625,-0.59375 H 1.125 c 0.734375,-0.640625 0.984375,-0.84375 1.390625,-1.171875 0.515625,-0.40625 1,-0.84375 1,-1.5 0,-0.84375 -0.734375,-1.359375 -1.625,-1.359375 -0.859375,0 -1.453125,0.609375 -1.453125,1.25 0,0.34375 0.296875,0.390625 0.375,0.390625 0.15625,0 0.359375,-0.125 0.359375,-0.375 0,-0.125 -0.046875,-0.375 -0.40625,-0.375 C 0.984375,-4.21875 1.453125,-4.375 1.78125,-4.375 c 0.703125,0 1.0625,0.546875 1.0625,1.109375 0,0.609375 -0.4375,1.078125 -0.65625,1.328125 L 0.515625,-0.265625 C 0.4375,-0.203125 0.4375,-0.1875 0.4375,0 h 2.875 z m 0,0"
             style="stroke:none;stroke-width:0"
             inkscape:connector-curvature="0" />
        </g>
        <g
           id="g4144"
           style="fill:#000000;fill-opacity:1">
          <path
             id="path4142"
             transform="translate(156.281,136.259)"
             d="m 1.46875,-0.109375 c 0,0.375 -0.0625,0.828125 -0.546875,1.265625 C 0.90625,1.1875 0.875,1.21875 0.875,1.25 c 0,0.046875 0.0625,0.09375 0.09375,0.09375 0.109375,0 0.703125,-0.5625 0.703125,-1.390625 0,-0.421875 -0.171875,-0.75 -0.5,-0.75 -0.21875,0 -0.390625,0.171875 -0.390625,0.390625 C 0.78125,-0.1875 0.9375,0 1.1875,0 1.359375,0 1.46875,-0.109375 1.46875,-0.109375 Z m 0,0"
             style="stroke:none;stroke-width:0"
             inkscape:connector-curvature="0" />
        </g>
        <g
           id="g4148"
           style="fill:#000000;fill-opacity:1">
          <path
             id="path4146"
             transform="translate(158.647,136.259)"
             d="m 2.328125,-4.4375 c 0,-0.1875 0,-0.1875 -0.203125,-0.1875 -0.453125,0.4375 -1.078125,0.4375 -1.359375,0.4375 v 0.25 c 0.15625,0 0.625,0 1,-0.1875 v 3.546875 c 0,0.234375 0,0.328125 -0.6875,0.328125 H 0.8125 V 0 c 0.125,0 0.984375,-0.03125 1.234375,-0.03125 0.21875,0 1.09375,0.03125 1.25,0.03125 V -0.25 H 3.03125 c -0.703125,0 -0.703125,-0.09375 -0.703125,-0.328125 z m 0,0"
             style="stroke:none;stroke-width:0"
             inkscape:connector-curvature="0" />
        </g>
      </g>
    </g>
    <g
       id="g4356"
       ns1:jacobian_sqrt="0.935629"
       ns1:alignment="middle center"
       ns1:scale="2.65217622617"
       ns1:preamble="C:\\Users\\Buster\\AppData\\Roaming\\inkscape\\extensions\\textext\\default_packages.tex"
       ns1:text="$t_{2,2}$"
       ns1:pdfconverter="pdf2svg"
       ns1:texconverter="pdflatex"
       ns1:version="0.11.0"
       transform="matrix(0.935629,0,0,0.935629,81.646731,125.73662)">
      <g
         id="g4354">
        <g
           id="g4340"
           style="fill:#000000;fill-opacity:1">
          <path
             id="path4338"
             transform="translate(148.712,134.765)"
             d="m 2.046875,-3.984375 h 0.9375 c 0.203125,0 0.3125,0 0.3125,-0.203125 0,-0.109375 -0.109375,-0.109375 -0.28125,-0.109375 h -0.875 C 2.5,-5.71875 2.546875,-5.90625 2.546875,-5.96875 c 0,-0.171875 -0.125,-0.265625 -0.296875,-0.265625 -0.03125,0 -0.3125,0 -0.390625,0.359375 L 1.46875,-4.296875 h -0.9375 c -0.203125,0 -0.296875,0 -0.296875,0.1875 0,0.125 0.078125,0.125 0.28125,0.125 h 0.875 C 0.671875,-1.15625 0.625,-0.984375 0.625,-0.8125 0.625,-0.265625 1,0.109375 1.546875,0.109375 2.5625,0.109375 3.125,-1.34375 3.125,-1.421875 3.125,-1.53125 3.046875,-1.53125 3.015625,-1.53125 2.921875,-1.53125 2.90625,-1.5 2.859375,-1.390625 2.4375,-0.34375 1.90625,-0.109375 1.5625,-0.109375 c -0.203125,0 -0.3125,-0.125 -0.3125,-0.453125 0,-0.25 0.03125,-0.3125 0.0625,-0.484375 z m 0,0"
             style="stroke:none;stroke-width:0"
             inkscape:connector-curvature="0" />
        </g>
        <g
           id="g4344"
           style="fill:#000000;fill-opacity:1">
          <path
             id="path4342"
             transform="translate(152.31,136.259)"
             d="M 3.515625,-1.265625 H 3.28125 c -0.015625,0.15625 -0.09375,0.5625 -0.1875,0.625 C 3.046875,-0.59375 2.515625,-0.59375 2.40625,-0.59375 H 1.125 c 0.734375,-0.640625 0.984375,-0.84375 1.390625,-1.171875 0.515625,-0.40625 1,-0.84375 1,-1.5 0,-0.84375 -0.734375,-1.359375 -1.625,-1.359375 -0.859375,0 -1.453125,0.609375 -1.453125,1.25 0,0.34375 0.296875,0.390625 0.375,0.390625 0.15625,0 0.359375,-0.125 0.359375,-0.375 0,-0.125 -0.046875,-0.375 -0.40625,-0.375 C 0.984375,-4.21875 1.453125,-4.375 1.78125,-4.375 c 0.703125,0 1.0625,0.546875 1.0625,1.109375 0,0.609375 -0.4375,1.078125 -0.65625,1.328125 L 0.515625,-0.265625 C 0.4375,-0.203125 0.4375,-0.1875 0.4375,0 h 2.875 z m 0,0"
             style="stroke:none;stroke-width:0"
             inkscape:connector-curvature="0" />
        </g>
        <g
           id="g4348"
           style="fill:#000000;fill-opacity:1">
          <path
             id="path4346"
             transform="translate(156.281,136.259)"
             d="m 1.46875,-0.109375 c 0,0.375 -0.0625,0.828125 -0.546875,1.265625 C 0.90625,1.1875 0.875,1.21875 0.875,1.25 c 0,0.046875 0.0625,0.09375 0.09375,0.09375 0.109375,0 0.703125,-0.5625 0.703125,-1.390625 0,-0.421875 -0.171875,-0.75 -0.5,-0.75 -0.21875,0 -0.390625,0.171875 -0.390625,0.390625 C 0.78125,-0.1875 0.9375,0 1.1875,0 1.359375,0 1.46875,-0.109375 1.46875,-0.109375 Z m 0,0"
             style="stroke:none;stroke-width:0"
             inkscape:connector-curvature="0" />
        </g>
        <g
           id="g4352"
           style="fill:#000000;fill-opacity:1">
          <path
             id="path4350"
             transform="translate(158.647,136.259)"
             d="M 3.515625,-1.265625 H 3.28125 c -0.015625,0.15625 -0.09375,0.5625 -0.1875,0.625 C 3.046875,-0.59375 2.515625,-0.59375 2.40625,-0.59375 H 1.125 c 0.734375,-0.640625 0.984375,-0.84375 1.390625,-1.171875 0.515625,-0.40625 1,-0.84375 1,-1.5 0,-0.84375 -0.734375,-1.359375 -1.625,-1.359375 -0.859375,0 -1.453125,0.609375 -1.453125,1.25 0,0.34375 0.296875,0.390625 0.375,0.390625 0.15625,0 0.359375,-0.125 0.359375,-0.375 0,-0.125 -0.046875,-0.375 -0.40625,-0.375 C 0.984375,-4.21875 1.453125,-4.375 1.78125,-4.375 c 0.703125,0 1.0625,0.546875 1.0625,1.109375 0,0.609375 -0.4375,1.078125 -0.65625,1.328125 L 0.515625,-0.265625 C 0.4375,-0.203125 0.4375,-0.1875 0.4375,0 h 2.875 z m 0,0"
             style="stroke:none;stroke-width:0"
             inkscape:connector-curvature="0" />
        </g>
      </g>
    </g>
    <rect
       style="opacity:0;fill:#ff4ada;fill-opacity:0.27222224;stroke:#000000;stroke-width:1.06500006;stroke-linecap:round;stroke-miterlimit:4;stroke-dasharray:6.38999992, 6.38999992;stroke-dashoffset:0;stroke-opacity:0.35911602"
       id="rect4370"
       width="149.9382"
       height="184.95052"
       x="124.54759"
       y="76.769913"
       inkscape:export-xdpi="87.214973"
       inkscape:export-ydpi="87.214973" />
    <rect
       style="opacity:0;fill:#ff4ada;fill-opacity:0.27222224;stroke:#000000;stroke-width:0.46499997;stroke-linecap:round;stroke-miterlimit:4;stroke-dasharray:none;stroke-dashoffset:0;stroke-opacity:0.35911602"
       id="rect4372"
       width="149.40367"
       height="187.08867"
       x="124.81488"
       y="76.769913"
       inkscape:export-xdpi="87.452576"
       inkscape:export-ydpi="87.452576" />
  </g>
</svg>
