<?xml version="1.0" encoding="UTF-8" standalone="no"?>
<!-- Created with Inkscape (http://www.inkscape.org/) -->

<svg
   xmlns:dc="http://purl.org/dc/elements/1.1/"
   xmlns:cc="http://creativecommons.org/ns#"
   xmlns:rdf="http://www.w3.org/1999/02/22-rdf-syntax-ns#"
   xmlns:svg="http://www.w3.org/2000/svg"
   xmlns="http://www.w3.org/2000/svg"
   xmlns:sodipodi="http://sodipodi.sourceforge.net/DTD/sodipodi-0.dtd"
   xmlns:inkscape="http://www.inkscape.org/namespaces/inkscape"
   width="297mm"
   height="210mm"
   viewBox="0 0 297 210"
   version="1.1"
   id="svg8"
   inkscape:version="0.92.4 (5da689c313, 2019-01-14)"
   sodipodi:docname="PermutationerExercise.svg">
  <defs
     id="defs2">
    <marker
       inkscape:stockid="TriangleOutM"
       orient="auto"
       refY="0.0"
       refX="0.0"
       id="marker8015"
       style="overflow:visible"
       inkscape:isstock="true">
      <path
         id="path8013"
         d="M 5.77,0.0 L -2.88,5.0 L -2.88,-5.0 L 5.77,0.0 z "
         style="fill-rule:evenodd;stroke:#da2b08;stroke-width:1pt;stroke-opacity:1;fill:#da2b08;fill-opacity:1"
         transform="scale(0.4)" />
    </marker>
    <inkscape:path-effect
       effect="spiro"
       id="path-effect8011"
       is_visible="true" />
    <inkscape:path-effect
       is_visible="true"
       id="path-effect7637"
       effect="spiro" />
    <marker
       inkscape:isstock="true"
       style="overflow:visible"
       id="marker6033"
       refX="0"
       refY="0"
       orient="auto"
       inkscape:stockid="TriangleOutM">
      <path
         transform="scale(0.4)"
         style="fill:#da2b08;fill-opacity:1;fill-rule:evenodd;stroke:#da2b08;stroke-width:1.00000003pt;stroke-opacity:1"
         d="M 5.77,0 -2.88,5 V -5 Z"
         id="path6031"
         inkscape:connector-curvature="0" />
    </marker>
    <inkscape:path-effect
       is_visible="true"
       id="path-effect6029"
       effect="spiro" />
    <marker
       inkscape:stockid="TriangleOutM"
       orient="auto"
       refY="0.0"
       refX="0.0"
       id="marker4949"
       style="overflow:visible"
       inkscape:isstock="true">
      <path
         id="path4947"
         d="M 5.77,0.0 L -2.88,5.0 L -2.88,-5.0 L 5.77,0.0 z "
         style="fill-rule:evenodd;stroke:#da2b08;stroke-width:1pt;stroke-opacity:1;fill:#da2b08;fill-opacity:1"
         transform="scale(0.4)" />
    </marker>
    <inkscape:path-effect
       effect="spiro"
       id="path-effect4945"
       is_visible="true" />
    <inkscape:path-effect
       is_visible="true"
       id="path-effect4601"
       effect="spiro" />
    <inkscape:path-effect
       effect="spiro"
       id="path-effect4329"
       is_visible="true" />
    <inkscape:path-effect
       is_visible="true"
       id="path-effect3415"
       effect="spiro" />
    <marker
       inkscape:stockid="Arrow2Send"
       orient="auto"
       refY="0.0"
       refX="0.0"
       id="Arrow2Send"
       style="overflow:visible;"
       inkscape:isstock="true">
      <path
         id="path1632"
         style="fill-rule:evenodd;stroke-width:0.625;stroke-linejoin:round;stroke:#7aff00;stroke-opacity:1;fill:#7aff00;fill-opacity:1"
         d="M 8.7185878,4.0337352 L -2.2072895,0.016013256 L 8.7185884,-4.0017078 C 6.9730900,-1.6296469 6.9831476,1.6157441 8.7185878,4.0337352 z "
         transform="scale(0.3) rotate(180) translate(-2.3,0)" />
    </marker>
    <inkscape:path-effect
       effect="spiro"
       id="path-effect1597"
       is_visible="true" />
    <inkscape:path-effect
       is_visible="true"
       id="path-effect884"
       effect="spiro" />
    <inkscape:path-effect
       effect="spiro"
       id="path-effect880"
       is_visible="true" />
    <inkscape:path-effect
       effect="spiro"
       id="path-effect876"
       is_visible="true" />
    <inkscape:path-effect
       is_visible="true"
       id="path-effect872"
       effect="spiro" />
    <inkscape:path-effect
       effect="spiro"
       id="path-effect868"
       is_visible="true" />
    <inkscape:path-effect
       is_visible="true"
       id="path-effect864"
       effect="spiro" />
    <inkscape:path-effect
       is_visible="true"
       id="path-effect860"
       effect="spiro" />
    <inkscape:path-effect
       effect="spiro"
       id="path-effect856"
       is_visible="true" />
    <marker
       inkscape:stockid="TriangleOutM"
       orient="auto"
       refY="0"
       refX="0"
       id="TriangleOutM-3"
       style="overflow:visible"
       inkscape:isstock="true">
      <path
         inkscape:connector-curvature="0"
         id="path1744-2"
         d="M 5.77,0 -2.88,5 V -5 Z"
         style="fill:#5cb60b;fill-opacity:1;fill-rule:evenodd;stroke:#5cb60b;stroke-width:1.00000003pt;stroke-opacity:1"
         transform="scale(0.4)" />
    </marker>
    <inkscape:path-effect
       effect="spiro"
       id="path-effect1597-6"
       is_visible="true" />
    <marker
       inkscape:stockid="TriangleOutM"
       orient="auto"
       refY="0"
       refX="0"
       id="TriangleOutM-3-5"
       style="overflow:visible"
       inkscape:isstock="true">
      <path
         inkscape:connector-curvature="0"
         id="path1744-2-9"
         d="M 5.77,0 -2.88,5 V -5 Z"
         style="fill:#5cb60b;fill-opacity:1;fill-rule:evenodd;stroke:#5cb60b;stroke-width:1.00000003pt;stroke-opacity:1"
         transform="scale(0.4)" />
    </marker>
    <inkscape:path-effect
       effect="spiro"
       id="path-effect1597-6-9"
       is_visible="true" />
    <marker
       inkscape:stockid="TriangleOutM"
       orient="auto"
       refY="0"
       refX="0"
       id="TriangleOutM-3-5-3"
       style="overflow:visible"
       inkscape:isstock="true">
      <path
         inkscape:connector-curvature="0"
         id="path1744-2-9-6"
         d="M 5.77,0 -2.88,5 V -5 Z"
         style="fill:#5cb60b;fill-opacity:1;fill-rule:evenodd;stroke:#5cb60b;stroke-width:1.00000003pt;stroke-opacity:1"
         transform="scale(0.4)" />
    </marker>
    <inkscape:path-effect
       effect="spiro"
       id="path-effect1597-6-9-1"
       is_visible="true" />
    <clipPath
       clipPathUnits="userSpaceOnUse"
       id="clipPath2677">
      <rect
         style="opacity:1;fill:#ffd413;fill-opacity:0.21568627;stroke:#5cb60b;stroke-width:0.96499997;stroke-linecap:round;stroke-miterlimit:4;stroke-dasharray:none;stroke-dashoffset:0;stroke-opacity:1"
         id="rect2679"
         width="29.617903"
         height="25.891367"
         x="79.247948"
         y="151.82118"
         d="m 79.247948,151.82118 h 29.617902 v 25.89137 H 79.247948 Z" />
    </clipPath>
    <marker
       inkscape:stockid="TriangleOutM"
       orient="auto"
       refY="0"
       refX="0"
       id="TriangleOutM-36"
       style="overflow:visible"
       inkscape:isstock="true">
      <path
         inkscape:connector-curvature="0"
         id="path1744-3"
         d="M 5.77,0 -2.88,5 V -5 Z"
         style="fill:#5cb60b;fill-opacity:1;fill-rule:evenodd;stroke:#5cb60b;stroke-width:1.00000003pt;stroke-opacity:1"
         transform="scale(0.4)" />
    </marker>
    <inkscape:path-effect
       effect="spiro"
       id="path-effect1597-5"
       is_visible="true" />
    <clipPath
       clipPathUnits="userSpaceOnUse"
       id="clipPath3265">
      <rect
         style="opacity:1;fill:#ffd413;fill-opacity:0.21568627;stroke:#5cb60b;stroke-width:0.96499997;stroke-linecap:round;stroke-miterlimit:4;stroke-dasharray:none;stroke-dashoffset:0;stroke-opacity:1"
         id="rect3267"
         width="22.111607"
         height="19.465773"
         x="106.02356"
         y="158.78677"
         d="m 106.02356,158.78677 h 22.11161 v 19.46578 h -22.11161 z" />
    </clipPath>
    <clipPath
       clipPathUnits="userSpaceOnUse"
       id="clipPath5361">
      <rect
         style="opacity:1;fill:#ffd413;fill-opacity:0.21568627;stroke:#da2b08;stroke-width:0.96499997;stroke-linecap:round;stroke-miterlimit:4;stroke-dasharray:5.78999974, 1.92999991;stroke-dashoffset:0;stroke-opacity:1"
         id="rect5363"
         width="21.230944"
         height="21.355656"
         x="85.323074"
         y="-177.13142"
         transform="scale(1,-1)"
         d="m 85.323074,-177.13142 h 21.230946 v 21.35565 H 85.323074 Z" />
    </clipPath>
    <inkscape:path-effect
       effect="spiro"
       id="path-effect4329-0"
       is_visible="true" />
    <clipPath
       clipPathUnits="userSpaceOnUse"
       id="clipPath5361-1">
      <rect
         style="opacity:1;fill:#ffd413;fill-opacity:0.21568627;stroke:#da2b08;stroke-width:0.96499997;stroke-linecap:round;stroke-miterlimit:4;stroke-dasharray:5.78999974, 1.92999991;stroke-dashoffset:0;stroke-opacity:1"
         id="rect5363-1"
         width="21.230944"
         height="21.355656"
         x="85.323074"
         y="-177.13142"
         transform="scale(1,-1)"
         d="m 85.323074,-177.13142 h 21.230946 v 21.35565 H 85.323074 Z" />
    </clipPath>
    <inkscape:path-effect
       is_visible="true"
       id="path-effect4601-3"
       effect="spiro" />
    <clipPath
       clipPathUnits="userSpaceOnUse"
       id="clipPath6481">
      <rect
         style="opacity:0.51000001;fill:#ffd413;fill-opacity:0.21568627;stroke:#da2b08;stroke-width:0.96500003;stroke-linecap:round;stroke-miterlimit:4;stroke-dasharray:5.78999974, 5.78999974;stroke-dashoffset:0;stroke-opacity:1"
         id="rect6483"
         width="39.030148"
         height="22.489584"
         x="84.905495"
         y="-178.72177"
         transform="scale(1,-1)"
         d="m 84.905495,-178.72177 h 39.030145 v 22.48958 H 84.905495 Z" />
    </clipPath>
    <marker
       inkscape:isstock="true"
       style="overflow:visible"
       id="marker6033-6"
       refX="0"
       refY="0"
       orient="auto"
       inkscape:stockid="TriangleOutM">
      <path
         transform="scale(0.4)"
         style="fill:#da2b08;fill-opacity:1;fill-rule:evenodd;stroke:#da2b08;stroke-width:1.00000003pt;stroke-opacity:1"
         d="M 5.77,0 -2.88,5 V -5 Z"
         id="path6031-6"
         inkscape:connector-curvature="0" />
    </marker>
    <clipPath
       clipPathUnits="userSpaceOnUse"
       id="clipPath6481-4">
      <rect
         d="m 84.905495,-178.72177 h 39.030145 v 22.48958 H 84.905495 Z"
         style="opacity:0.51000001;fill:#ffd413;fill-opacity:0.21568627;stroke:#da2b08;stroke-width:0.96500003;stroke-linecap:round;stroke-miterlimit:4;stroke-dasharray:5.78999974, 5.78999974;stroke-dashoffset:0;stroke-opacity:1"
         id="rect6483-9"
         width="39.030148"
         height="22.489584"
         x="84.905495"
         y="-178.72177"
         transform="scale(1,-1)" />
    </clipPath>
    <inkscape:path-effect
       is_visible="true"
       id="path-effect6029-6"
       effect="spiro" />
    <clipPath
       clipPathUnits="userSpaceOnUse"
       id="clipPath7391">
      <rect
         style="opacity:0.51000001;fill:#ffd413;fill-opacity:0.21568627;stroke:#da2b08;stroke-width:0.96499997;stroke-linecap:round;stroke-miterlimit:4;stroke-dasharray:3.85999982, 1.92999991, 0.96499997, 1.92999991;stroke-dashoffset:0;stroke-opacity:1"
         id="rect7393"
         width="36.166298"
         height="17.575893"
         x="81.470566"
         y="-179.02129"
         transform="scale(1,-1)"
         d="m 81.470566,-179.02129 h 36.166294 v 17.5759 H 81.470566 Z" />
    </clipPath>
    <marker
       inkscape:stockid="TriangleOutM"
       orient="auto"
       refY="0"
       refX="0"
       id="marker8015-2"
       style="overflow:visible"
       inkscape:isstock="true">
      <path
         inkscape:connector-curvature="0"
         id="path8013-4"
         d="M 5.77,0 -2.88,5 V -5 Z"
         style="fill:#da2b08;fill-opacity:1;fill-rule:evenodd;stroke:#da2b08;stroke-width:1.00000003pt;stroke-opacity:1"
         transform="scale(0.4)" />
    </marker>
    <inkscape:path-effect
       effect="spiro"
       id="path-effect8011-7"
       is_visible="true" />
    <clipPath
       clipPathUnits="userSpaceOnUse"
       id="clipPath5361-2">
      <rect
         style="opacity:1;fill:#ffd413;fill-opacity:0.21568627;stroke:#da2b08;stroke-width:0.96499997;stroke-linecap:round;stroke-miterlimit:4;stroke-dasharray:5.78999974, 1.92999991;stroke-dashoffset:0;stroke-opacity:1"
         id="rect5363-7"
         width="21.230944"
         height="21.355656"
         x="85.323074"
         y="-177.13142"
         transform="scale(1,-1)"
         d="m 85.323074,-177.13142 h 21.230946 v 21.35565 H 85.323074 Z" />
    </clipPath>
    <inkscape:path-effect
       is_visible="true"
       id="path-effect4601-7"
       effect="spiro" />
    <clipPath
       clipPathUnits="userSpaceOnUse"
       id="clipPath9247">
      <rect
         style="opacity:0.36800005;fill:#ffd413;fill-opacity:0.21568627;stroke:#da2b08;stroke-width:0.66499996;stroke-linecap:round;stroke-miterlimit:4;stroke-dasharray:none;stroke-dashoffset:0;stroke-opacity:1"
         id="rect9249"
         width="20.508802"
         height="29.293154"
         x="74.15358"
         y="-178.46828"
         transform="scale(1,-1)"
         d="m 74.15358,-178.46828 h 20.508802 v 29.29316 H 74.15358 Z" />
    </clipPath>
    <inkscape:path-effect
       is_visible="true"
       id="path-effect7637-3"
       effect="spiro" />
    <inkscape:path-effect
       is_visible="true"
       id="path-effect7637-3-4"
       effect="spiro" />
    <clipPath
       clipPathUnits="userSpaceOnUse"
       id="clipPath11963">
      <rect
         style="opacity:0.18600003;fill:#ffd413;fill-opacity:0.21568627;stroke:#da2b08;stroke-width:0.66499996;stroke-linecap:round;stroke-miterlimit:4;stroke-dasharray:2.65999997, 2.65999997;stroke-dashoffset:0;stroke-opacity:1"
         id="rect11965"
         width="54.995537"
         height="13.79613"
         x="83.565056"
         y="-177.27719"
         transform="scale(1,-1)"
         d="m 83.565056,-177.27719 h 54.995534 v 13.79613 H 83.565056 Z" />
    </clipPath>
    <marker
       inkscape:stockid="TriangleOutM"
       orient="auto"
       refY="0"
       refX="0"
       id="marker4949-3"
       style="overflow:visible"
       inkscape:isstock="true">
      <path
         inkscape:connector-curvature="0"
         id="path4947-3"
         d="M 5.77,0 -2.88,5 V -5 Z"
         style="fill:#da2b08;fill-opacity:1;fill-rule:evenodd;stroke:#da2b08;stroke-width:1.00000003pt;stroke-opacity:1"
         transform="scale(0.4)" />
    </marker>
    <clipPath
       clipPathUnits="userSpaceOnUse"
       id="clipPath7391-5">
      <rect
         style="opacity:0.51000001;fill:#ffd413;fill-opacity:0.21568627;stroke:#da2b08;stroke-width:0.96499997;stroke-linecap:round;stroke-miterlimit:4;stroke-dasharray:3.85999982, 1.92999991, 0.96499997, 1.92999991;stroke-dashoffset:0;stroke-opacity:1"
         id="rect7393-5"
         width="36.166298"
         height="17.575893"
         x="81.470566"
         y="-179.02129"
         transform="scale(1,-1)"
         d="m 81.470566,-179.02129 h 36.166294 v 17.5759 H 81.470566 Z" />
    </clipPath>
    <inkscape:path-effect
       effect="spiro"
       id="path-effect4945-7"
       is_visible="true" />
    <clipPath
       clipPathUnits="userSpaceOnUse"
       id="clipPath12549">
      <rect
         style="opacity:0.26000001;fill:#ffd413;fill-opacity:0.21568627;stroke:#da2b08;stroke-width:0.66499996;stroke-linecap:round;stroke-miterlimit:4;stroke-dasharray:2.65999997, 2.65999997;stroke-dashoffset:0;stroke-opacity:1"
         id="rect12551"
         width="28.086594"
         height="23.8125"
         x="-105.14018"
         y="-178.53735"
         transform="scale(-1)"
         d="m -105.14018,-178.53735 h 28.086591 v 23.8125 h -28.086591 z" />
    </clipPath>
  </defs>
  <sodipodi:namedview
     id="base"
     pagecolor="#ffffff"
     bordercolor="#666666"
     borderopacity="1.0"
     inkscape:pageopacity="0.0"
     inkscape:pageshadow="2"
     inkscape:zoom="1.4"
     inkscape:cx="537.46193"
     inkscape:cy="453.12383"
     inkscape:document-units="mm"
     inkscape:current-layer="layer1"
     showgrid="false"
     inkscape:window-width="1920"
     inkscape:window-height="1017"
     inkscape:window-x="-8"
     inkscape:window-y="-8"
     inkscape:window-maximized="1"
     inkscape:snap-global="false"
     showguides="false" />
  <metadata
     id="metadata5">
    <rdf:RDF>
      <cc:Work
         rdf:about="">
        <dc:format>image/svg+xml</dc:format>
        <dc:type
           rdf:resource="http://purl.org/dc/dcmitype/StillImage" />
        <dc:title />
      </cc:Work>
    </rdf:RDF>
  </metadata>
  <g
     inkscape:label="Layer 1"
     inkscape:groupmode="layer"
     id="layer1"
     transform="translate(0,-87)">
    <path
       style="fill:#f90000;stroke:#ff0000;stroke-width:1.065;stroke-linecap:butt;stroke-linejoin:miter;stroke-miterlimit:4;stroke-dasharray:none;stroke-opacity:1;fill-opacity:1"
       d="M 56.129464,162.44048 H 71.437499"
       id="path854"
       inkscape:connector-curvature="0"
       inkscape:path-effect="#path-effect856"
       inkscape:original-d="m 56.129464,162.44048 c 5.102942,-2.7e-4 10.205622,-2.7e-4 15.308035,0"
       transform="translate(22.230181,30.165377)"
       inkscape:export-xdpi="90.599304"
       inkscape:export-ydpi="90.599304" />
    <path
       transform="translate(42.867694,30.165377)"
       inkscape:original-d="m 56.129464,162.44048 c 5.102942,-2.7e-4 10.205622,-2.7e-4 15.308035,0"
       inkscape:path-effect="#path-effect860"
       inkscape:connector-curvature="0"
       id="path858"
       d="M 56.129464,162.44048 H 71.437499"
       style="fill:none;stroke:#000000;stroke-width:1.06500006;stroke-linecap:butt;stroke-linejoin:miter;stroke-miterlimit:4;stroke-dasharray:none;stroke-opacity:1"
       inkscape:export-xdpi="90.599304"
       inkscape:export-ydpi="90.599304" />
    <path
       transform="translate(63.505207,30.165377)"
       inkscape:original-d="m 56.129464,162.44048 c 5.102942,-2.7e-4 10.205622,-2.7e-4 15.308035,0"
       inkscape:path-effect="#path-effect864"
       inkscape:connector-curvature="0"
       id="path862"
       d="M 56.129464,162.44048 H 71.437499"
       style="fill:none;stroke:#000000;stroke-width:1.06500006;stroke-linecap:butt;stroke-linejoin:miter;stroke-miterlimit:4;stroke-dasharray:none;stroke-opacity:1"
       inkscape:export-xdpi="90.599304"
       inkscape:export-ydpi="90.599304" />
    <path
       style="fill:none;stroke:#000000;stroke-width:1.06500006;stroke-linecap:butt;stroke-linejoin:miter;stroke-miterlimit:4;stroke-dasharray:none;stroke-opacity:1"
       d="M 56.129464,162.44048 H 71.437499"
       id="path866"
       inkscape:connector-curvature="0"
       inkscape:path-effect="#path-effect868"
       inkscape:original-d="m 56.129464,162.44048 c 5.102942,-2.7e-4 10.205622,-2.7e-4 15.308035,0"
       transform="translate(84.14272,30.165377)"
       inkscape:export-xdpi="90.599304"
       inkscape:export-ydpi="90.599304" />
    <path
       transform="translate(104.78026,30.165377)"
       inkscape:original-d="m 56.129464,162.44048 c 5.102942,-2.7e-4 10.205622,-2.7e-4 15.308035,0"
       inkscape:path-effect="#path-effect872"
       inkscape:connector-curvature="0"
       id="path870"
       d="M 56.129464,162.44048 H 71.437499"
       style="fill:none;stroke:#000000;stroke-width:1.06500006;stroke-linecap:butt;stroke-linejoin:miter;stroke-miterlimit:4;stroke-dasharray:none;stroke-opacity:1"
       inkscape:export-xdpi="90.599304"
       inkscape:export-ydpi="90.599304" />
    <path
       style="fill:none;stroke:#000000;stroke-width:1.06500006;stroke-linecap:butt;stroke-linejoin:miter;stroke-miterlimit:4;stroke-dasharray:none;stroke-opacity:1"
       d="M 56.129464,162.44048 H 71.437499"
       id="path874"
       inkscape:connector-curvature="0"
       inkscape:path-effect="#path-effect876"
       inkscape:original-d="m 56.129464,162.44048 c 5.102942,-2.7e-4 10.205622,-2.7e-4 15.308035,0"
       transform="translate(124.88872,30.165377)"
       inkscape:export-xdpi="90.599304"
       inkscape:export-ydpi="90.599304" />
    <path
       style="fill:none;stroke:#000000;stroke-width:1.06500006;stroke-linecap:butt;stroke-linejoin:miter;stroke-miterlimit:4;stroke-dasharray:none;stroke-opacity:1"
       d="M 56.129464,162.44048 H 71.437499"
       id="path878"
       inkscape:connector-curvature="0"
       inkscape:path-effect="#path-effect880"
       inkscape:original-d="m 56.129464,162.44048 c 5.102942,-2.7e-4 10.205622,-2.7e-4 15.308035,0"
       transform="translate(145.52635,30.165377)"
       inkscape:export-xdpi="90.599304"
       inkscape:export-ydpi="90.599304" />
    <path
       transform="translate(166.16398,30.165377)"
       inkscape:original-d="m 56.129464,162.44048 c 5.102942,-2.7e-4 10.205622,-2.7e-4 15.308035,0"
       inkscape:path-effect="#path-effect884"
       inkscape:connector-curvature="0"
       id="path882"
       d="M 56.129464,162.44048 H 71.437499"
       style="fill:none;stroke:#000000;stroke-width:1.06500006;stroke-linecap:butt;stroke-linejoin:miter;stroke-miterlimit:4;stroke-dasharray:none;stroke-opacity:1"
       inkscape:export-xdpi="90.599304"
       inkscape:export-ydpi="90.599304" />
    <text
       xml:space="preserve"
       style="font-style:normal;font-weight:normal;font-size:7.05555534px;line-height:1.25;font-family:sans-serif;letter-spacing:0px;word-spacing:0px;fill:#000000;fill-opacity:1;stroke:none;stroke-width:0.26458332"
       x="87.12986"
       y="132.62924"
       id="text888"><tspan
         sodipodi:role="line"
         id="tspan886"
         x="87.12986"
         y="138.87175"
         style="stroke-width:0.26458332" /></text>
    <g
       id="g1443"
       style="fill:#ff0000;fill-opacity:1;stroke-width:0.79734357;stroke-miterlimit:4;stroke-dasharray:none"
       transform="matrix(1.3356852,0,0,1.3356852,-115.54587,9.3600947)"
       inkscape:export-xdpi="90.599304"
       inkscape:export-ydpi="90.599304">
      <path
         id="path1441"
         transform="translate(148.712,134.765)"
         d="m 2.9375,-6.375 c 0,-0.25 0,-0.265625 -0.234375,-0.265625 C 2.078125,-6 1.203125,-6 0.890625,-6 v 0.3125 c 0.203125,0 0.78125,0 1.296875,-0.265625 v 5.171875 c 0,0.359375 -0.03125,0.46875 -0.921875,0.46875 h -0.3125 V 0 c 0.34375,-0.03125 1.203125,-0.03125 1.609375,-0.03125 0.390625,0 1.265625,0 1.609375,0.03125 v -0.3125 h -0.3125 c -0.90625,0 -0.921875,-0.109375 -0.921875,-0.46875 z m 0,0"
         style="stroke:none;stroke-width:0.79734357;stroke-miterlimit:4;stroke-dasharray:none;fill:#ff0000;fill-opacity:1"
         inkscape:connector-curvature="0" />
    </g>
    <g
       id="g1447"
       style="fill:#000000;fill-opacity:1;stroke-width:0.83282202"
       transform="matrix(1.3356852,0,0,1.3356852,-106.02081,9.3600947)"
       inkscape:export-xdpi="90.599304"
       inkscape:export-ydpi="90.599304">
      <path
         id="path1445"
         transform="translate(157.01085,134.765)"
         d="m 1.265625,-0.765625 1.0625,-1.03125 c 1.546875,-1.375 2.140625,-1.90625 2.140625,-2.90625 0,-1.140625 -0.890625,-1.9375 -2.109375,-1.9375 -1.125,0 -1.859375,0.921875 -1.859375,1.8125 0,0.546875 0.5,0.546875 0.53125,0.546875 0.171875,0 0.515625,-0.109375 0.515625,-0.53125 0,-0.25 -0.1875,-0.515625 -0.53125,-0.515625 -0.078125,0 -0.09375,0 -0.125,0.015625 0.21875,-0.65625 0.765625,-1.015625 1.34375,-1.015625 0.90625,0 1.328125,0.8125 1.328125,1.625 C 3.5625,-3.90625 3.078125,-3.125 2.515625,-2.5 l -1.90625,2.125 C 0.5,-0.265625 0.5,-0.234375 0.5,0 H 4.203125 L 4.46875,-1.734375 H 4.234375 C 4.171875,-1.4375 4.109375,-1 4,-0.84375 3.9375,-0.765625 3.28125,-0.765625 3.0625,-0.765625 Z m 0,0"
         style="stroke:none;stroke-width:0"
         inkscape:connector-curvature="0" />
    </g>
    <g
       id="g1451"
       style="fill:#000000;fill-opacity:1;stroke-width:0.83282202"
       transform="matrix(1.3356852,0,0,1.3356852,-96.495771,9.3600947)"
       inkscape:export-xdpi="90.599304"
       inkscape:export-ydpi="90.599304">
      <path
         id="path1449"
         transform="translate(165.31965,134.765)"
         d="m 2.890625,-3.515625 c 0.8125,-0.265625 1.390625,-0.953125 1.390625,-1.75 0,-0.8125 -0.875,-1.375 -1.828125,-1.375 -1,0 -1.765625,0.59375 -1.765625,1.359375 0,0.328125 0.21875,0.515625 0.515625,0.515625 0.296875,0 0.5,-0.21875 0.5,-0.515625 0,-0.484375 -0.46875,-0.484375 -0.609375,-0.484375 0.296875,-0.5 0.953125,-0.625 1.3125,-0.625 0.421875,0 0.96875,0.21875 0.96875,1.109375 0,0.125 -0.03125,0.703125 -0.28125,1.140625 C 2.796875,-3.65625 2.453125,-3.625 2.203125,-3.625 2.125,-3.609375 1.890625,-3.59375 1.8125,-3.59375 c -0.078125,0.015625 -0.140625,0.03125 -0.140625,0.125 0,0.109375 0.0625,0.109375 0.234375,0.109375 h 0.4375 c 0.8125,0 1.1875,0.671875 1.1875,1.65625 0,1.359375 -0.6875,1.640625 -1.125,1.640625 -0.4375,0 -1.1875,-0.171875 -1.53125,-0.75 0.34375,0.046875 0.65625,-0.171875 0.65625,-0.546875 0,-0.359375 -0.265625,-0.5625 -0.546875,-0.5625 -0.25,0 -0.5625,0.140625 -0.5625,0.578125 0,0.90625 0.921875,1.5625 2.015625,1.5625 1.21875,0 2.125,-0.90625 2.125,-1.921875 0,-0.8125 -0.640625,-1.59375 -1.671875,-1.8125 z m 0,0"
         style="stroke:none;stroke-width:0"
         inkscape:connector-curvature="0" />
    </g>
    <g
       id="g1455"
       style="fill:#000000;fill-opacity:1;stroke-width:0.83282202"
       transform="matrix(1.3356852,0,0,1.3356852,-87.499932,9.3600947)"
       inkscape:export-xdpi="90.599304"
       inkscape:export-ydpi="90.599304">
      <path
         id="path1453"
         transform="translate(173.6185,134.765)"
         d="m 2.9375,-1.640625 v 0.859375 c 0,0.359375 -0.03125,0.46875 -0.765625,0.46875 H 1.96875 V 0 C 2.375,-0.03125 2.890625,-0.03125 3.3125,-0.03125 c 0.421875,0 0.9375,0 1.359375,0.03125 v -0.3125 h -0.21875 c -0.734375,0 -0.75,-0.109375 -0.75,-0.46875 V -1.640625 H 4.6875 v -0.3125 H 3.703125 v -4.53125 c 0,-0.203125 0,-0.265625 -0.171875,-0.265625 -0.078125,0 -0.109375,0 -0.1875,0.125 l -3.0625,4.671875 v 0.3125 z m 0.046875,-0.3125 H 0.5625 l 2.421875,-3.71875 z m 0,0"
         style="stroke:none;stroke-width:0"
         inkscape:connector-curvature="0" />
    </g>
    <g
       id="g1459"
       style="fill:#000000;fill-opacity:1;stroke-width:0.83282202"
       transform="matrix(1.3356852,0,0,1.3356852,-77.445759,9.3600947)"
       inkscape:export-xdpi="90.599304"
       inkscape:export-ydpi="90.599304">
      <path
         id="path1457"
         transform="translate(181.91735,134.765)"
         d="m 4.46875,-2 c 0,-1.1875 -0.8125,-2.1875 -1.890625,-2.1875 -0.46875,0 -0.90625,0.15625 -1.265625,0.515625 V -5.625 c 0.203125,0.0625 0.53125,0.125 0.84375,0.125 1.234375,0 1.9375,-0.90625 1.9375,-1.03125 0,-0.0625 -0.03125,-0.109375 -0.109375,-0.109375 0,0 -0.03125,0 -0.078125,0.03125 C 3.703125,-6.515625 3.21875,-6.3125 2.546875,-6.3125 2.15625,-6.3125 1.6875,-6.390625 1.21875,-6.59375 1.140625,-6.625 1.125,-6.625 1.109375,-6.625 1,-6.625 1,-6.546875 1,-6.390625 V -3.4375 c 0,0.171875 0,0.25 0.140625,0.25 0.078125,0 0.09375,-0.015625 0.140625,-0.078125 C 1.390625,-3.421875 1.75,-3.96875 2.5625,-3.96875 c 0.515625,0 0.765625,0.453125 0.84375,0.640625 0.15625,0.375 0.1875,0.75 0.1875,1.25 0,0.359375 0,0.953125 -0.25,1.375 C 3.109375,-0.3125 2.734375,-0.0625 2.28125,-0.0625 c -0.71875,0 -1.296875,-0.53125 -1.46875,-1.109375 0.03125,0 0.0625,0.015625 0.171875,0.015625 0.328125,0 0.5,-0.25 0.5,-0.484375 0,-0.25 -0.171875,-0.5 -0.5,-0.5 C 0.84375,-2.140625 0.5,-2.0625 0.5,-1.609375 0.5,-0.75 1.1875,0.21875 2.296875,0.21875 3.453125,0.21875 4.46875,-0.734375 4.46875,-2 Z m 0,0"
         style="stroke:none;stroke-width:0"
         inkscape:connector-curvature="0" />
    </g>
    <g
       id="g1463"
       style="fill:#000000;fill-opacity:1;stroke-width:0.83282202"
       transform="matrix(1.3356852,0,0,1.3356852,-68.979087,9.3600947)"
       inkscape:export-xdpi="90.599304"
       inkscape:export-ydpi="90.599304">
      <path
         id="path1461"
         transform="translate(190.22615,134.765)"
         d="m 1.3125,-3.265625 v -0.25 c 0,-2.515625 1.234375,-2.875 1.75,-2.875 0.234375,0 0.65625,0.0625 0.875,0.40625 -0.15625,0 -0.546875,0 -0.546875,0.4375 0,0.3125 0.234375,0.46875 0.453125,0.46875 0.15625,0 0.46875,-0.09375 0.46875,-0.484375 0,-0.59375 -0.4375,-1.078125 -1.265625,-1.078125 -1.28125,0 -2.625,1.28125 -2.625,3.484375 0,2.671875 1.15625,3.375 2.078125,3.375 1.109375,0 2.0625,-0.9375 2.0625,-2.25 0,-1.265625 -0.890625,-2.21875 -2,-2.21875 -0.671875,0 -1.046875,0.5 -1.25,0.984375 z M 2.5,-0.0625 c -0.625,0 -0.921875,-0.59375 -0.984375,-0.75 -0.1875,-0.46875 -0.1875,-1.265625 -0.1875,-1.4375 0,-0.78125 0.328125,-1.78125 1.21875,-1.78125 0.171875,0 0.625,0 0.9375,0.625 0.171875,0.359375 0.171875,0.875 0.171875,1.359375 0,0.484375 0,0.984375 -0.171875,1.34375 C 3.1875,-0.109375 2.734375,-0.0625 2.5,-0.0625 Z m 0,0"
         style="stroke:none;stroke-width:0"
         inkscape:connector-curvature="0" />
    </g>
    <g
       id="g1467"
       style="fill:#000000;fill-opacity:1;stroke-width:0.83282202"
       transform="matrix(1.3356852,0,0,1.3356852,-59.454081,9.3600947)"
       inkscape:export-xdpi="90.599304"
       inkscape:export-ydpi="90.599304">
      <path
         id="path1465"
         transform="translate(198.525,134.765)"
         d="m 4.75,-6.078125 c 0.078125,-0.109375 0.078125,-0.125 0.078125,-0.34375 H 2.40625 c -1.203125,0 -1.234375,-0.125 -1.265625,-0.3125 h -0.25 L 0.5625,-4.6875 h 0.25 c 0.03125,-0.15625 0.109375,-0.78125 0.25,-0.90625 0.0625,-0.0625 0.84375,-0.0625 0.96875,-0.0625 h 2.0625 C 3.984375,-5.5 3.203125,-4.40625 2.984375,-4.078125 2.078125,-2.734375 1.75,-1.34375 1.75,-0.328125 c 0,0.09375 0,0.546875 0.46875,0.546875 0.453125,0 0.453125,-0.453125 0.453125,-0.546875 V -0.84375 c 0,-0.546875 0.03125,-1.09375 0.109375,-1.625 0.046875,-0.234375 0.171875,-1.09375 0.625,-1.703125 z m 0,0"
         style="stroke:none;stroke-width:0"
         inkscape:connector-curvature="0" />
    </g>
    <g
       id="g1471"
       style="fill:#000000;fill-opacity:1;stroke-width:0.83282202"
       transform="matrix(1.3356852,0,0,1.3356852,-49.929075,9.3600947)"
       inkscape:export-xdpi="90.599304"
       inkscape:export-ydpi="90.599304">
      <path
         id="path1469"
         transform="translate(206.82385,134.765)"
         d="m 1.625,-4.5625 c -0.453125,-0.296875 -0.5,-0.625 -0.5,-0.796875 0,-0.609375 0.65625,-1.03125 1.359375,-1.03125 0.71875,0 1.359375,0.515625 1.359375,1.234375 0,0.578125 -0.390625,1.046875 -0.984375,1.390625 z m 1.453125,0.953125 C 3.796875,-3.984375 4.28125,-4.5 4.28125,-5.15625 c 0,-0.921875 -0.875,-1.484375 -1.78125,-1.484375 -1,0 -1.8125,0.734375 -1.8125,1.671875 0,0.171875 0.015625,0.625 0.4375,1.09375 0.109375,0.109375 0.484375,0.359375 0.734375,0.53125 C 1.28125,-3.046875 0.421875,-2.5 0.421875,-1.5 c 0,1.046875 1.015625,1.71875 2.0625,1.71875 1.125,0 2.078125,-0.828125 2.078125,-1.890625 0,-0.359375 -0.109375,-0.8125 -0.5,-1.234375 C 3.875,-3.109375 3.71875,-3.203125 3.078125,-3.609375 Z m -1,0.421875 1.234375,0.78125 c 0.28125,0.1875 0.75,0.484375 0.75,1.09375 0,0.734375 -0.75,1.25 -1.5625,1.25 -0.859375,0 -1.578125,-0.609375 -1.578125,-1.4375 0,-0.578125 0.3125,-1.21875 1.15625,-1.6875 z m 0,0"
         style="stroke:none;stroke-width:0"
         inkscape:connector-curvature="0" />
    </g>
  </g>
</svg>
