<?xml version="1.0" encoding="UTF-8" standalone="no"?>
<!-- Created with Inkscape (http://www.inkscape.org/) -->

<svg
   xmlns:ns1="http://www.iki.fi/pav/software/textext/"
   xmlns:dc="http://purl.org/dc/elements/1.1/"
   xmlns:cc="http://creativecommons.org/ns#"
   xmlns:rdf="http://www.w3.org/1999/02/22-rdf-syntax-ns#"
   xmlns:svg="http://www.w3.org/2000/svg"
   xmlns="http://www.w3.org/2000/svg"
   xmlns:sodipodi="http://sodipodi.sourceforge.net/DTD/sodipodi-0.dtd"
   xmlns:inkscape="http://www.inkscape.org/namespaces/inkscape"
   width="210mm"
   height="297mm"
   viewBox="0 0 210 297"
   version="1.1"
   id="svg8"
   inkscape:version="0.92.4 (5da689c313, 2019-01-14)"
   sodipodi:docname="FluxDefinition.svg">
  <defs
     id="defs2">
    <marker
       inkscape:isstock="true"
       style="overflow:visible"
       id="marker3056"
       refX="0.0"
       refY="0.0"
       orient="auto"
       inkscape:stockid="TriangleOutM">
      <path
         transform="scale(0.4)"
         style="fill-rule:evenodd;stroke:#0000a4;stroke-width:1pt;stroke-opacity:1;fill:#0000a4;fill-opacity:1"
         d="M 5.77,0.0 L -2.88,5.0 L -2.88,-5.0 L 5.77,0.0 z "
         id="path3054" />
    </marker>
    <inkscape:path-effect
       is_visible="true"
       id="path-effect3044"
       effect="spiro" />
    <inkscape:path-effect
       is_visible="true"
       id="path-effect3040"
       effect="spiro" />
    <marker
       inkscape:isstock="true"
       style="overflow:visible"
       id="marker2746"
       refX="0.0"
       refY="0.0"
       orient="auto"
       inkscape:stockid="TriangleOutM">
      <path
         transform="scale(0.4)"
         style="fill-rule:evenodd;stroke:#0000a4;stroke-width:1pt;stroke-opacity:1;fill:#0000a4;fill-opacity:1"
         d="M 5.77,0.0 L -2.88,5.0 L -2.88,-5.0 L 5.77,0.0 z "
         id="path2744" />
    </marker>
    <inkscape:path-effect
       effect="spiro"
       id="path-effect2742"
       is_visible="true" />
    <inkscape:path-effect
       is_visible="true"
       id="path-effect2738"
       effect="spiro" />
    <inkscape:path-effect
       effect="spiro"
       id="path-effect2734"
       is_visible="true" />
    <marker
       inkscape:stockid="TriangleOutM"
       orient="auto"
       refY="0.0"
       refX="0.0"
       id="marker2448"
       style="overflow:visible"
       inkscape:isstock="true"
       inkscape:collect="always">
      <path
         id="path2446"
         d="M 5.77,0.0 L -2.88,5.0 L -2.88,-5.0 L 5.77,0.0 z "
         style="fill-rule:evenodd;stroke:#0000a4;stroke-width:1pt;stroke-opacity:1;fill:#0000a4;fill-opacity:1"
         transform="scale(0.4)" />
    </marker>
    <inkscape:path-effect
       is_visible="true"
       id="path-effect2444"
       effect="spiro" />
    <inkscape:path-effect
       effect="spiro"
       id="path-effect2440"
       is_visible="true" />
    <inkscape:path-effect
       is_visible="true"
       id="path-effect2436"
       effect="spiro" />
    <marker
       inkscape:isstock="true"
       style="overflow:visible"
       id="marker2126"
       refX="0.0"
       refY="0.0"
       orient="auto"
       inkscape:stockid="TriangleOutM"
       inkscape:collect="always">
      <path
         transform="scale(0.4)"
         style="fill-rule:evenodd;stroke:#0000a4;stroke-width:1pt;stroke-opacity:1;fill:#0000a4;fill-opacity:1"
         d="M 5.77,0.0 L -2.88,5.0 L -2.88,-5.0 L 5.77,0.0 z "
         id="path2124" />
    </marker>
    <inkscape:path-effect
       effect="spiro"
       id="path-effect2122"
       is_visible="true" />
    <inkscape:path-effect
       is_visible="true"
       id="path-effect2118"
       effect="spiro" />
    <inkscape:path-effect
       effect="spiro"
       id="path-effect2114"
       is_visible="true" />
    <marker
       inkscape:stockid="TriangleOutM"
       orient="auto"
       refY="0.0"
       refX="0.0"
       id="marker1635"
       style="overflow:visible"
       inkscape:isstock="true"
       inkscape:collect="always">
      <path
         id="path1633"
         d="M 5.77,0.0 L -2.88,5.0 L -2.88,-5.0 L 5.77,0.0 z "
         style="fill-rule:evenodd;stroke:#0000a4;stroke-width:1pt;stroke-opacity:1;fill:#0000a4;fill-opacity:1"
         transform="scale(0.4)" />
    </marker>
    <inkscape:path-effect
       is_visible="true"
       id="path-effect1631"
       effect="spiro" />
    <marker
       inkscape:isstock="true"
       style="overflow:visible"
       id="marker1423"
       refX="0.0"
       refY="0.0"
       orient="auto"
       inkscape:stockid="TriangleOutM"
       inkscape:collect="always">
      <path
         transform="scale(0.4)"
         style="fill-rule:evenodd;stroke:#0000a4;stroke-width:1pt;stroke-opacity:1;fill:#0000a4;fill-opacity:1"
         d="M 5.77,0.0 L -2.88,5.0 L -2.88,-5.0 L 5.77,0.0 z "
         id="path1421" />
    </marker>
    <inkscape:path-effect
       effect="spiro"
       id="path-effect1419"
       is_visible="true" />
    <marker
       inkscape:stockid="TriangleOutM"
       orient="auto"
       refY="0.0"
       refX="0.0"
       id="marker1061"
       style="overflow:visible"
       inkscape:isstock="true"
       inkscape:collect="always">
      <path
         id="path1059"
         d="M 5.77,0.0 L -2.88,5.0 L -2.88,-5.0 L 5.77,0.0 z "
         style="fill-rule:evenodd;stroke:#0000a4;stroke-width:1pt;stroke-opacity:1;fill:#0000a4;fill-opacity:1"
         transform="scale(0.4)" />
    </marker>
    <inkscape:path-effect
       is_visible="true"
       id="path-effect1057"
       effect="spiro" />
    <marker
       inkscape:isstock="true"
       style="overflow:visible"
       id="marker981"
       refX="0.0"
       refY="0.0"
       orient="auto"
       inkscape:stockid="TriangleOutM"
       inkscape:collect="always">
      <path
         transform="scale(0.4)"
         style="fill-rule:evenodd;stroke:#0000a4;stroke-width:1pt;stroke-opacity:1;fill:#0000a4;fill-opacity:1"
         d="M 5.77,0.0 L -2.88,5.0 L -2.88,-5.0 L 5.77,0.0 z "
         id="path979" />
    </marker>
    <inkscape:path-effect
       effect="spiro"
       id="path-effect977"
       is_visible="true" />
    <inkscape:path-effect
       is_visible="true"
       id="path-effect967"
       effect="spiro" />
    <marker
       inkscape:stockid="TriangleOutM"
       orient="auto"
       refY="0.0"
       refX="0.0"
       id="marker2521"
       style="overflow:visible"
       inkscape:isstock="true">
      <path
         id="path2519"
         d="M 5.77,0.0 L -2.88,5.0 L -2.88,-5.0 L 5.77,0.0 z "
         style="fill-rule:evenodd;stroke:#0000a4;stroke-width:1pt;stroke-opacity:0.41847827;fill:#0000a4;fill-opacity:0.41847827"
         transform="scale(0.4)" />
    </marker>
    <inkscape:path-effect
       effect="spiro"
       id="path-effect2517"
       is_visible="true" />
    <marker
       inkscape:isstock="true"
       style="overflow:visible"
       id="marker2345"
       refX="0.0"
       refY="0.0"
       orient="auto"
       inkscape:stockid="TriangleOutM">
      <path
         transform="scale(0.4)"
         style="fill-rule:evenodd;stroke:#0000a4;stroke-width:1pt;stroke-opacity:1;fill:#0000a4;fill-opacity:1"
         d="M 5.77,0.0 L -2.88,5.0 L -2.88,-5.0 L 5.77,0.0 z "
         id="path2343" />
    </marker>
    <marker
       inkscape:isstock="true"
       style="overflow:visible"
       id="marker2251"
       refX="0.0"
       refY="0.0"
       orient="auto"
       inkscape:stockid="TriangleOutM">
      <path
         transform="scale(0.4)"
         style="fill-rule:evenodd;stroke:#0000a4;stroke-width:1pt;stroke-opacity:1;fill:#0000a4;fill-opacity:1"
         d="M 5.77,0.0 L -2.88,5.0 L -2.88,-5.0 L 5.77,0.0 z "
         id="path2249" />
    </marker>
    <marker
       inkscape:stockid="TriangleOutM"
       orient="auto"
       refY="0.0"
       refX="0.0"
       id="marker2121"
       style="overflow:visible"
       inkscape:isstock="true">
      <path
         id="path2119"
         d="M 5.77,0.0 L -2.88,5.0 L -2.88,-5.0 L 5.77,0.0 z "
         style="fill-rule:evenodd;stroke:#0000a4;stroke-width:1pt;stroke-opacity:1;fill:#0000a4;fill-opacity:1"
         transform="scale(0.4)" />
    </marker>
    <inkscape:path-effect
       is_visible="true"
       id="path-effect2117"
       effect="spiro" />
    <inkscape:path-effect
       effect="spiro"
       id="path-effect2113"
       is_visible="true" />
    <marker
       inkscape:isstock="true"
       style="overflow:visible"
       id="marker1965"
       refX="0.0"
       refY="0.0"
       orient="auto"
       inkscape:stockid="TriangleOutM"
       inkscape:collect="always">
      <path
         transform="scale(0.4)"
         style="fill-rule:evenodd;stroke:#0000a4;stroke-width:1pt;stroke-opacity:1;fill:#0000a4;fill-opacity:1"
         d="M 5.77,0.0 L -2.88,5.0 L -2.88,-5.0 L 5.77,0.0 z "
         id="path1963" />
    </marker>
    <inkscape:path-effect
       effect="spiro"
       id="path-effect1961"
       is_visible="true" />
    <inkscape:path-effect
       is_visible="true"
       id="path-effect1957"
       effect="spiro" />
    <marker
       inkscape:stockid="TriangleOutM"
       orient="auto"
       refY="0.0"
       refX="0.0"
       id="marker1785"
       style="overflow:visible"
       inkscape:isstock="true"
       inkscape:collect="always">
      <path
         id="path1783"
         d="M 5.77,0.0 L -2.88,5.0 L -2.88,-5.0 L 5.77,0.0 z "
         style="fill-rule:evenodd;stroke:#0000a4;stroke-width:1pt;stroke-opacity:1;fill:#0000a4;fill-opacity:1"
         transform="scale(0.4)" />
    </marker>
    <inkscape:path-effect
       is_visible="true"
       id="path-effect1781"
       effect="spiro" />
    <inkscape:path-effect
       effect="spiro"
       id="path-effect1777"
       is_visible="true" />
    <marker
       inkscape:stockid="TriangleOutM"
       orient="auto"
       refY="0.0"
       refX="0.0"
       id="marker1641"
       style="overflow:visible"
       inkscape:isstock="true"
       inkscape:collect="always">
      <path
         id="path1639"
         d="M 5.77,0.0 L -2.88,5.0 L -2.88,-5.0 L 5.77,0.0 z "
         style="fill-rule:evenodd;stroke:#0000a4;stroke-width:1pt;stroke-opacity:1;fill:#0000a4;fill-opacity:1"
         transform="scale(0.4)" />
    </marker>
    <inkscape:path-effect
       effect="spiro"
       id="path-effect1637"
       is_visible="true" />
    <marker
       inkscape:isstock="true"
       style="overflow:visible"
       id="marker1207"
       refX="0.0"
       refY="0.0"
       orient="auto"
       inkscape:stockid="TriangleOutM"
       inkscape:collect="always">
      <path
         transform="scale(0.4)"
         style="fill-rule:evenodd;stroke:#0000a4;stroke-width:1pt;stroke-opacity:1;fill:#0000a4;fill-opacity:1"
         d="M 5.77,0.0 L -2.88,5.0 L -2.88,-5.0 L 5.77,0.0 z "
         id="path1205" />
    </marker>
    <inkscape:path-effect
       is_visible="true"
       id="path-effect1203"
       effect="spiro" />
    <marker
       inkscape:stockid="TriangleOutM"
       orient="auto"
       refY="0.0"
       refX="0.0"
       id="TriangleOutM"
       style="overflow:visible"
       inkscape:isstock="true"
       inkscape:collect="always">
      <path
         id="path968"
         d="M 5.77,0.0 L -2.88,5.0 L -2.88,-5.0 L 5.77,0.0 z "
         style="fill-rule:evenodd;stroke:#dc00a4;stroke-width:1pt;stroke-opacity:1;fill:#dc00a4;fill-opacity:1"
         transform="scale(0.4)" />
    </marker>
    <inkscape:path-effect
       effect="spiro"
       id="path-effect821"
       is_visible="true" />
    <inkscape:path-effect
       effect="spiro"
       id="path-effect817"
       is_visible="true" />
  </defs>
  <sodipodi:namedview
     id="base"
     pagecolor="#ffffff"
     bordercolor="#666666"
     borderopacity="1.0"
     inkscape:pageopacity="0.0"
     inkscape:pageshadow="2"
     inkscape:zoom="1.4"
     inkscape:cx="293.81207"
     inkscape:cy="526.28046"
     inkscape:document-units="mm"
     inkscape:current-layer="layer1"
     showgrid="false"
     inkscape:snap-global="false"
     inkscape:window-width="1920"
     inkscape:window-height="1017"
     inkscape:window-x="-8"
     inkscape:window-y="-8"
     inkscape:window-maximized="1" />
  <metadata
     id="metadata5">
    <rdf:RDF>
      <cc:Work
         rdf:about="">
        <dc:format>image/svg+xml</dc:format>
        <dc:type
           rdf:resource="http://purl.org/dc/dcmitype/StillImage" />
        <dc:title />
      </cc:Work>
    </rdf:RDF>
  </metadata>
  <g
     inkscape:label="Layer 1"
     inkscape:groupmode="layer"
     id="layer1">
    <path
       transform="translate(0.4009043,8.3521727)"
       inkscape:original-d="m 89.802561,118.06305 c -1.84835,-4.18749 4.922478,-4.4993 3.073599,-8.68626"
       inkscape:path-effect="#path-effect1203"
       inkscape:connector-curvature="0"
       id="path1201"
       d="m 89.802561,118.06305 3.073599,-8.68626"
       style="opacity:1;fill:none;fill-opacity:1;stroke:#0000a4;stroke-width:0.40000001;stroke-linecap:round;stroke-miterlimit:4;stroke-dasharray:none;stroke-dashoffset:0;stroke-opacity:1;marker-end:url(#marker1207)"
       sodipodi:nodetypes="cc"
       inkscape:export-xdpi="329"
       inkscape:export-ydpi="329" />
    <path
       sodipodi:nodetypes="cc"
       style="opacity:1;fill:none;fill-opacity:1;stroke:#0000a4;stroke-width:0.40000001;stroke-linecap:round;stroke-miterlimit:4;stroke-dasharray:none;stroke-dashoffset:0;stroke-opacity:1;marker-end:url(#marker1641)"
       d="m 89.802561,118.06305 3.073599,-8.68626"
       id="path1635"
       inkscape:connector-curvature="0"
       inkscape:path-effect="#path-effect1637"
       inkscape:original-d="m 89.802561,118.06305 c -1.84835,-4.18749 4.922478,-4.4993 3.073599,-8.68626"
       transform="translate(7.6839989,5.3453905)"
       inkscape:export-xdpi="329"
       inkscape:export-ydpi="329" />
    <path
       sodipodi:nodetypes="cc"
       style="opacity:1;fill:none;fill-opacity:1;stroke:#0000a4;stroke-width:0.40000001;stroke-linecap:round;stroke-miterlimit:4;stroke-dasharray:none;stroke-dashoffset:0;stroke-opacity:1;marker-end:url(#marker1785)"
       d="m 89.802561,118.06305 3.073599,-8.68626"
       id="path1775"
       inkscape:connector-curvature="0"
       inkscape:path-effect="#path-effect1777"
       inkscape:original-d="m 89.802561,118.06305 c -1.84835,-4.18749 4.922478,-4.4993 3.073599,-8.68626"
       transform="translate(14.499372,2.4054257)"
       inkscape:export-xdpi="329"
       inkscape:export-ydpi="329" />
    <path
       transform="translate(20.847024,-0.33408696)"
       inkscape:original-d="m 89.802561,118.06305 c -1.84835,-4.18749 4.922478,-4.4993 3.073599,-8.68626"
       inkscape:path-effect="#path-effect1781"
       inkscape:connector-curvature="0"
       id="path1779"
       d="m 89.802561,118.06305 3.073599,-8.68626"
       style="opacity:1;fill:none;fill-opacity:1;stroke:#0000a4;stroke-width:0.40000001;stroke-linecap:round;stroke-miterlimit:4;stroke-dasharray:none;stroke-dashoffset:0;stroke-opacity:1;marker-end:url(#marker2345)"
       sodipodi:nodetypes="cc"
       inkscape:export-xdpi="329"
       inkscape:export-ydpi="329" />
    <path
       transform="translate(-13.096206,14.365737)"
       inkscape:original-d="m 89.802561,118.06305 c -1.84835,-4.18749 4.922478,-4.4993 3.073599,-8.68626"
       inkscape:path-effect="#path-effect1957"
       inkscape:connector-curvature="0"
       id="path1955"
       d="m 89.802561,118.06305 3.073599,-8.68626"
       style="opacity:1;fill:none;fill-opacity:1;stroke:#0000a4;stroke-width:0.40000001;stroke-linecap:round;stroke-miterlimit:4;stroke-dasharray:none;stroke-dashoffset:0;stroke-opacity:1;marker-end:url(#marker1965)"
       sodipodi:nodetypes="cc"
       inkscape:export-xdpi="329"
       inkscape:export-ydpi="329" />
    <path
       sodipodi:nodetypes="cc"
       style="opacity:1;fill:none;fill-opacity:1;stroke:#0000a4;stroke-width:0.40000001;stroke-linecap:round;stroke-miterlimit:4;stroke-dasharray:none;stroke-dashoffset:0;stroke-opacity:1;marker-end:url(#marker981)"
       d="m 89.802561,118.06305 3.073599,-8.68626"
       id="path1959"
       inkscape:connector-curvature="0"
       inkscape:path-effect="#path-effect1961"
       inkscape:original-d="m 89.802561,118.06305 c -1.84835,-4.18749 4.922478,-4.4993 3.073599,-8.68626"
       transform="translate(-5.8131114,11.358955)"
       inkscape:export-xdpi="329"
       inkscape:export-ydpi="329" />
    <path
       sodipodi:nodetypes="cc"
       style="opacity:1;fill:none;fill-opacity:1;stroke:#0000a4;stroke-width:0.40000001;stroke-linecap:round;stroke-miterlimit:4;stroke-dasharray:none;stroke-dashoffset:0;stroke-opacity:1;marker-end:url(#marker2121)"
       d="m 89.802561,118.06305 3.073599,-8.68626"
       id="path2111"
       inkscape:connector-curvature="0"
       inkscape:path-effect="#path-effect2113"
       inkscape:original-d="m 89.802561,118.06305 c -1.84835,-4.18749 4.922478,-4.4993 3.073599,-8.68626"
       transform="translate(-27.395126,20.847023)"
       inkscape:export-xdpi="329"
       inkscape:export-ydpi="329" />
    <path
       style="opacity:1;fill:none;fill-opacity:1;stroke:#000000;stroke-width:0.4;stroke-linecap:round;stroke-miterlimit:4;stroke-dasharray:none;stroke-dashoffset:0;stroke-opacity:1"
       d="M 61.988093,130.69048 116.98363,106.5"
       id="path815"
       inkscape:connector-curvature="0"
       inkscape:path-effect="#path-effect817"
       inkscape:original-d="M 61.988093,130.69048 C 80.320204,122.62672 98.652048,114.56322 116.98363,106.5"
       inkscape:export-xdpi="329"
       inkscape:export-ydpi="329" />
    <path
       transform="translate(-19.978396,17.572971)"
       inkscape:original-d="m 89.802561,118.06305 c -1.84835,-4.18749 4.922478,-4.4993 3.073599,-8.68626"
       inkscape:path-effect="#path-effect2117"
       inkscape:connector-curvature="0"
       id="path2115"
       d="m 89.802561,118.06305 3.073599,-8.68626"
       style="opacity:1;fill:none;fill-opacity:1;stroke:#0000a4;stroke-width:0.40000001;stroke-linecap:round;stroke-miterlimit:4;stroke-dasharray:none;stroke-dashoffset:0;stroke-opacity:1;marker-end:url(#marker2251)"
       sodipodi:nodetypes="cc"
       inkscape:export-xdpi="329"
       inkscape:export-ydpi="329" />
    <path
       style="opacity:1;fill:none;fill-opacity:1;stroke:#75ff04;stroke-width:0.40000004;stroke-linecap:round;stroke-miterlimit:4;stroke-dasharray:none;stroke-dashoffset:0;stroke-opacity:1"
       id="path2787"
       sodipodi:type="arc"
       sodipodi:cx="89.887177"
       sodipodi:cy="117.74808"
       sodipodi:rx="7.1455259"
       sodipodi:ry="7.1455259"
       sodipodi:start="4.3313485"
       sodipodi:end="5.0332706"
       sodipodi:open="true"
       d="m 87.229852,111.11504 a 7.1455259,7.1455259 0 0 1 4.911047,-0.14776"
       inkscape:export-xdpi="329"
       inkscape:export-ydpi="329" />
    <path
       style="opacity:1;fill:none;fill-opacity:1;stroke:#dc00a4;stroke-width:0.40000001;stroke-linecap:round;stroke-miterlimit:4;stroke-dasharray:none;stroke-dashoffset:0;stroke-opacity:1;marker-end:url(#TriangleOutM)"
       d="M 89.802561,118.06305 84.256718,105.50138"
       id="path819"
       inkscape:connector-curvature="0"
       inkscape:path-effect="#path-effect821"
       inkscape:original-d="m 89.802561,118.06305 c -1.84835,-4.18749 -3.696964,-8.37471 -5.545843,-12.56167"
       transform="translate(0.13363476)"
       inkscape:export-xdpi="329"
       inkscape:export-ydpi="329" />
    <path
       sodipodi:nodetypes="cc"
       style="opacity:1;fill:none;fill-opacity:1;stroke:#0000a4;stroke-width:0.40000001;stroke-linecap:round;stroke-miterlimit:4;stroke-dasharray:none;stroke-dashoffset:0;stroke-opacity:0.41847825;marker-end:url(#marker2521)"
       d="m 89.802561,118.06305 3.073599,-8.68626"
       id="path2515"
       inkscape:connector-curvature="0"
       inkscape:path-effect="#path-effect2517"
       inkscape:original-d="m 89.802561,118.06305 c -1.84835,-4.18749 4.922478,-4.4993 3.073599,-8.68626"
       transform="translate(0.13363476)"
       inkscape:export-xdpi="329"
       inkscape:export-ydpi="329" />
    <g
       id="g2874"
       ns1:jacobian_sqrt="0.576785"
       ns1:alignment="middle center"
       ns1:scale="1.63497987776"
       ns1:preamble="C:\\Users\\Buster Bie Lundgaard\\AppData\\Roaming\\inkscape\\extensions\\textext\\default_packages.tex"
       ns1:text="$\\theta$"
       ns1:pdfconverter="pdf2svg"
       ns1:texconverter="pdflatex"
       ns1:version="0.11.0"
       transform="matrix(0.45031388,0,0,0.45031388,21.460504,49.218734)"
       style="stroke-width:1.28085101"
       inkscape:export-xdpi="329"
       inkscape:export-ydpi="329">
      <g
         id="surface1"
         style="stroke-width:1.28085101">
        <g
           id="g2871"
           style="fill:#000000;fill-opacity:1;stroke-width:1.28085101">
          <path
             id="path2869"
             transform="translate(148.712,134.765)"
             d="m 4.53125,-4.984375 c 0,-0.65625 -0.171875,-2.046875 -1.1875,-2.046875 -1.390625,0 -2.921875,2.8125 -2.921875,5.09375 0,0.9375 0.28125,2.046875 1.1875,2.046875 1.40625,0 2.921875,-2.859375 2.921875,-5.09375 z M 1.46875,-3.625 C 1.640625,-4.25 1.84375,-5.046875 2.25,-5.765625 2.515625,-6.25 2.875,-6.8125 3.328125,-6.8125 c 0.484375,0 0.546875,0.640625 0.546875,1.203125 0,0.5 -0.078125,1 -0.3125,1.984375 z m 2,0.328125 C 3.359375,-2.84375 3.15625,-2 2.765625,-1.28125 c -0.34375,0.6875 -0.71875,1.171875 -1.15625,1.171875 -0.328125,0 -0.53125,-0.296875 -0.53125,-1.21875 0,-0.421875 0.0625,-1 0.3125,-1.96875 z m 0,0"
             style="stroke:none;stroke-width:0"
             inkscape:connector-curvature="0" />
        </g>
      </g>
    </g>
    <path
       inkscape:export-ydpi="329"
       inkscape:export-xdpi="329"
       transform="translate(-20.112031,99.02336)"
       inkscape:original-d="m 89.802561,118.06305 c -1.84835,-4.18749 4.922478,-4.4993 3.073599,-8.68626"
       inkscape:path-effect="#path-effect1057"
       inkscape:connector-curvature="0"
       id="path1055"
       d="m 89.802561,118.06305 3.073599,-8.68626"
       style="opacity:1;fill:none;fill-opacity:1;stroke:#0000a4;stroke-width:0.40000001;stroke-linecap:round;stroke-miterlimit:4;stroke-dasharray:none;stroke-dashoffset:0;stroke-opacity:1;marker-end:url(#marker1061)"
       sodipodi:nodetypes="cc" />
    <path
       sodipodi:nodetypes="cc"
       style="opacity:1;fill:none;fill-opacity:1;stroke:#0000a4;stroke-width:0.40000001;stroke-linecap:round;stroke-miterlimit:4;stroke-dasharray:none;stroke-dashoffset:0;stroke-opacity:1;marker-end:url(#marker2126)"
       d="m 89.802561,118.06305 3.073599,-8.68626"
       id="path2112"
       inkscape:connector-curvature="0"
       inkscape:path-effect="#path-effect2114"
       inkscape:original-d="m 89.802561,118.06305 c -1.84835,-4.18749 4.922478,-4.4993 3.073599,-8.68626"
       transform="translate(-8.5837572,94.676634)"
       inkscape:export-xdpi="329"
       inkscape:export-ydpi="329" />
    <path
       inkscape:export-ydpi="329"
       inkscape:export-xdpi="329"
       transform="translate(2.9445166,89.951932)"
       inkscape:original-d="m 89.802561,118.06305 c -1.84835,-4.18749 4.922478,-4.4993 3.073599,-8.68626"
       inkscape:path-effect="#path-effect2436"
       inkscape:connector-curvature="0"
       id="path2434"
       d="m 89.802561,118.06305 3.073599,-8.68626"
       style="opacity:1;fill:none;fill-opacity:1;stroke:#0000a4;stroke-width:0.40000001;stroke-linecap:round;stroke-miterlimit:4;stroke-dasharray:none;stroke-dashoffset:0;stroke-opacity:1;marker-end:url(#marker2448)"
       sodipodi:nodetypes="cc" />
    <path
       sodipodi:nodetypes="cc"
       style="opacity:1;fill:none;fill-opacity:1;stroke:#0000a4;stroke-width:0.40000001;stroke-linecap:round;stroke-miterlimit:4;stroke-dasharray:none;stroke-dashoffset:0;stroke-opacity:1;marker-end:url(#marker2746)"
       d="m 89.802561,118.06305 3.073599,-8.68626"
       id="path2732"
       inkscape:connector-curvature="0"
       inkscape:path-effect="#path-effect2734"
       inkscape:original-d="m 89.802561,118.06305 c -1.84835,-4.18749 4.922478,-4.4993 3.073599,-8.68626"
       transform="translate(14.661779,85.510712)"
       inkscape:export-xdpi="329"
       inkscape:export-ydpi="329" />
    <path
       inkscape:export-ydpi="329"
       inkscape:export-xdpi="329"
       inkscape:original-d="M 61.988093,130.69048 C 80.320204,122.62672 98.652048,114.56322 116.98363,106.5"
       inkscape:path-effect="#path-effect967"
       inkscape:connector-curvature="0"
       id="path965"
       d="M 61.988093,130.69048 116.98363,106.5"
       style="opacity:1;fill:none;fill-opacity:1;stroke:#000000;stroke-width:0.40000001;stroke-linecap:round;stroke-miterlimit:4;stroke-dasharray:none;stroke-dashoffset:0;stroke-opacity:1"
       transform="translate(-2.271791,88.384966)" />
    <path
       style="opacity:1;fill:none;fill-opacity:1;stroke:#000000;stroke-width:0.40000001;stroke-linecap:square;stroke-miterlimit:4;stroke-dasharray:none;stroke-dashoffset:0;stroke-opacity:1"
       d="M 59.73474,219.14344 77.240893,181.99297"
       id="path971"
       inkscape:connector-curvature="0"
       inkscape:export-xdpi="329"
       inkscape:export-ydpi="329" />
    <path
       inkscape:connector-curvature="0"
       id="path973"
       d="m 114.79226,194.82191 14.85164,-35.5164"
       style="opacity:1;fill:none;fill-opacity:1;stroke:#000000;stroke-width:0.40000001;stroke-linecap:square;stroke-miterlimit:4;stroke-dasharray:none;stroke-dashoffset:0;stroke-opacity:1"
       sodipodi:nodetypes="cc"
       inkscape:export-xdpi="329"
       inkscape:export-ydpi="329" />
    <path
       transform="translate(15.320751,51.108973)"
       style="opacity:1;fill:none;fill-opacity:1;stroke:#000000;stroke-width:0.40000001;stroke-linecap:round;stroke-miterlimit:4;stroke-dasharray:none;stroke-dashoffset:0;stroke-opacity:1"
       d="M 61.988093,130.69048 114.3378,108.1064"
       id="path975"
       inkscape:connector-curvature="0"
       inkscape:path-effect="#path-effect977"
       inkscape:original-d="M 61.988093,130.69048 C 80.320204,122.62672 96.006215,116.16962 114.3378,108.1064"
       inkscape:export-xdpi="329"
       inkscape:export-ydpi="329"
       sodipodi:nodetypes="cc" />
    <path
       sodipodi:nodetypes="cc"
       style="opacity:1;fill:none;fill-opacity:1;stroke:#0000a4;stroke-width:0.40000001;stroke-linecap:round;stroke-miterlimit:4;stroke-dasharray:none;stroke-dashoffset:0;stroke-opacity:1;marker-end:url(#marker1423)"
       d="m 89.802561,118.06305 3.073599,-8.68626"
       id="path1417"
       inkscape:connector-curvature="0"
       inkscape:path-effect="#path-effect1419"
       inkscape:original-d="m 89.802561,118.06305 c -1.84835,-4.18749 4.922478,-4.4993 3.073599,-8.68626"
       transform="translate(-15.03391,86.328057)"
       inkscape:export-xdpi="329"
       inkscape:export-ydpi="329" />
    <path
       inkscape:export-ydpi="329"
       inkscape:export-xdpi="329"
       transform="translate(-10.490328,74.568198)"
       inkscape:original-d="m 89.802561,118.06305 c -1.84835,-4.18749 4.922478,-4.4993 3.073599,-8.68626"
       inkscape:path-effect="#path-effect1631"
       inkscape:connector-curvature="0"
       id="path1629"
       d="m 89.802561,118.06305 3.073599,-8.68626"
       style="opacity:1;fill:none;fill-opacity:1;stroke:#0000a4;stroke-width:0.40000001;stroke-linecap:round;stroke-miterlimit:4;stroke-dasharray:none;stroke-dashoffset:0;stroke-opacity:1;marker-end:url(#marker1635)"
       sodipodi:nodetypes="cc" />
    <path
       inkscape:export-ydpi="329"
       inkscape:export-xdpi="329"
       transform="translate(-3.5056362,81.981331)"
       inkscape:original-d="m 89.802561,118.06305 c -1.84835,-4.18749 4.922478,-4.4993 3.073599,-8.68626"
       inkscape:path-effect="#path-effect2118"
       inkscape:connector-curvature="0"
       id="path2116"
       d="m 89.802561,118.06305 3.073599,-8.68626"
       style="opacity:1;fill:none;fill-opacity:1;stroke:#0000a4;stroke-width:0.40000001;stroke-linecap:round;stroke-miterlimit:4;stroke-dasharray:none;stroke-dashoffset:0;stroke-opacity:1;marker-end:url(#marker1423)"
       sodipodi:nodetypes="cc" />
    <path
       sodipodi:nodetypes="cc"
       style="opacity:1;fill:none;fill-opacity:1;stroke:#0000a4;stroke-width:0.40000001;stroke-linecap:round;stroke-miterlimit:4;stroke-dasharray:none;stroke-dashoffset:0;stroke-opacity:1;marker-end:url(#marker1423)"
       d="m 89.802561,118.06305 3.073599,-8.68626"
       id="path2438"
       inkscape:connector-curvature="0"
       inkscape:path-effect="#path-effect2440"
       inkscape:original-d="m 89.802561,118.06305 c -1.84835,-4.18749 4.922478,-4.4993 3.073599,-8.68626"
       transform="translate(8.0226376,77.256629)"
       inkscape:export-xdpi="329"
       inkscape:export-ydpi="329" />
    <path
       inkscape:export-ydpi="329"
       inkscape:export-xdpi="329"
       transform="translate(12.56622,65.49677)"
       inkscape:original-d="m 89.802561,118.06305 c -1.84835,-4.18749 4.922478,-4.4993 3.073599,-8.68626"
       inkscape:path-effect="#path-effect2444"
       inkscape:connector-curvature="0"
       id="path2442"
       d="m 89.802561,118.06305 3.073599,-8.68626"
       style="opacity:1;fill:none;fill-opacity:1;stroke:#0000a4;stroke-width:0.40000001;stroke-linecap:round;stroke-miterlimit:4;stroke-dasharray:none;stroke-dashoffset:0;stroke-opacity:1;marker-end:url(#marker1635)"
       sodipodi:nodetypes="cc" />
    <path
       inkscape:export-ydpi="329"
       inkscape:export-xdpi="329"
       transform="translate(19.7399,72.815409)"
       inkscape:original-d="m 89.802561,118.06305 c -1.84835,-4.18749 4.922478,-4.4993 3.073599,-8.68626"
       inkscape:path-effect="#path-effect2738"
       inkscape:connector-curvature="0"
       id="path2736"
       d="m 89.802561,118.06305 3.073599,-8.68626"
       style="opacity:1;fill:none;fill-opacity:1;stroke:#0000a4;stroke-width:0.40000001;stroke-linecap:round;stroke-miterlimit:4;stroke-dasharray:none;stroke-dashoffset:0;stroke-opacity:1;marker-end:url(#marker1423)"
       sodipodi:nodetypes="cc" />
    <path
       sodipodi:nodetypes="cc"
       style="opacity:1;fill:none;fill-opacity:1;stroke:#0000a4;stroke-width:0.40000001;stroke-linecap:round;stroke-miterlimit:4;stroke-dasharray:none;stroke-dashoffset:0;stroke-opacity:1;marker-end:url(#marker1635)"
       d="m 89.802561,118.06305 3.073599,-8.68626"
       id="path2740"
       inkscape:connector-curvature="0"
       inkscape:path-effect="#path-effect2742"
       inkscape:original-d="m 89.802561,118.06305 c -1.84835,-4.18749 4.922478,-4.4993 3.073599,-8.68626"
       transform="translate(24.283482,61.05555)"
       inkscape:export-xdpi="329"
       inkscape:export-ydpi="329" />
    <path
       inkscape:export-ydpi="329"
       inkscape:export-xdpi="329"
       d="m 88.783677,181.47118 a 7.1455259,7.1455259 0 0 1 4.911047,-0.14776"
       sodipodi:open="true"
       sodipodi:end="5.0332706"
       sodipodi:start="4.3313485"
       sodipodi:ry="7.1455259"
       sodipodi:rx="7.1455259"
       sodipodi:cy="188.10422"
       sodipodi:cx="91.441002"
       sodipodi:type="arc"
       id="path3036"
       style="opacity:1;fill:none;fill-opacity:1;stroke:#75ff04;stroke-width:0.40000004;stroke-linecap:round;stroke-miterlimit:4;stroke-dasharray:none;stroke-dashoffset:0;stroke-opacity:1" />
    <path
       inkscape:export-ydpi="329"
       inkscape:export-xdpi="329"
       transform="translate(1.6874619,70.356143)"
       inkscape:original-d="m 89.802561,118.06305 c -1.84835,-4.18749 -3.696964,-8.37471 -5.545843,-12.56167"
       inkscape:path-effect="#path-effect3040"
       inkscape:connector-curvature="0"
       id="path3038"
       d="M 89.802561,118.06305 84.256718,105.50138"
       style="opacity:1;fill:none;fill-opacity:1;stroke:#dc00a4;stroke-width:0.40000001;stroke-linecap:round;stroke-miterlimit:4;stroke-dasharray:none;stroke-dashoffset:0;stroke-opacity:1;marker-end:url(#TriangleOutM)" />
    <path
       inkscape:export-ydpi="329"
       inkscape:export-xdpi="329"
       transform="translate(1.6874619,70.356143)"
       inkscape:original-d="m 89.802561,118.06305 c -1.84835,-4.18749 4.922478,-4.4993 3.073599,-8.68626"
       inkscape:path-effect="#path-effect3044"
       inkscape:connector-curvature="0"
       id="path3042"
       d="m 89.802561,118.06305 3.073599,-8.68626"
       style="opacity:1;fill:none;fill-opacity:1;stroke:#0000a4;stroke-width:0.40000001;stroke-linecap:round;stroke-miterlimit:4;stroke-dasharray:none;stroke-dashoffset:0;stroke-opacity:0.41847827;marker-end:url(#marker2521)"
       sodipodi:nodetypes="cc" />
    <g
       inkscape:export-ydpi="329"
       inkscape:export-xdpi="329"
       style="stroke-width:0.97472441"
       transform="matrix(0.59174162,0,0,0.59174162,1.9226637,100.56673)"
       ns1:version="0.11.0"
       ns1:texconverter="pdflatex"
       ns1:pdfconverter="pdf2svg"
       ns1:text="$\\theta$"
       ns1:preamble="C:\\Users\\Buster Bie Lundgaard\\AppData\\Roaming\\inkscape\\extensions\\textext\\default_packages.tex"
       ns1:scale="1.63497987776"
       ns1:alignment="middle center"
       ns1:jacobian_sqrt="0.576785"
       id="g3052">
      <g
         style="stroke-width:0.97472441"
         id="g3050">
        <g
           style="fill:#000000;fill-opacity:1;stroke-width:0.97472441"
           id="g3048">
          <path
             inkscape:connector-curvature="0"
             style="stroke:none;stroke-width:0"
             d="m 4.53125,-4.984375 c 0,-0.65625 -0.171875,-2.046875 -1.1875,-2.046875 -1.390625,0 -2.921875,2.8125 -2.921875,5.09375 0,0.9375 0.28125,2.046875 1.1875,2.046875 1.40625,0 2.921875,-2.859375 2.921875,-5.09375 z M 1.46875,-3.625 C 1.640625,-4.25 1.84375,-5.046875 2.25,-5.765625 2.515625,-6.25 2.875,-6.8125 3.328125,-6.8125 c 0.484375,0 0.546875,0.640625 0.546875,1.203125 0,0.5 -0.078125,1 -0.3125,1.984375 z m 2,0.328125 C 3.359375,-2.84375 3.15625,-2 2.765625,-1.28125 c -0.34375,0.6875 -0.71875,1.171875 -1.15625,1.171875 -0.328125,0 -0.53125,-0.296875 -0.53125,-1.21875 0,-0.421875 0.0625,-1 0.3125,-1.96875 z m 0,0"
             transform="translate(148.712,134.765)"
             id="path3046" />
        </g>
      </g>
    </g>
    <g
       id="g3328"
       ns1:jacobian_sqrt="0.591742"
       inkscapeversion="0.92.4"
       ns1:alignment="middle center"
       ns1:scale="1.67737656412"
       ns1:preamble="C:\\Users\\Buster\\AppData\\Roaming\\inkscape\\extensions\\textext\\default_packages.tex"
       ns1:text="$\\vec n$"
       ns1:pdfconverter="pdf2svg"
       ns1:texconverter="pdflatex"
       ns1:version="0.11.0"
       transform="matrix(0.591742,0,0,0.591742,-4.4794714,94.714489)"
       inkscape:export-xdpi="329"
       inkscape:export-ydpi="329">
      <g
         id="g3326">
        <g
           id="g3320"
           style="fill:#000000;fill-opacity:1">
          <path
             id="path3318"
             transform="translate(148.445,134.765)"
             d="m 5.359375,-5.9375 c -0.140625,0.140625 -0.46875,0.421875 -0.46875,0.59375 0,0.09375 0.09375,0.203125 0.1875,0.203125 0.09375,0 0.140625,-0.078125 0.203125,-0.140625 C 5.390625,-5.421875 5.625,-5.703125 6.0625,-5.921875 6.125,-5.96875 6.234375,-6.015625 6.234375,-6.125 6.234375,-6.234375 6.15625,-6.28125 6.09375,-6.328125 5.875,-6.484375 5.765625,-6.65625 5.6875,-6.890625 5.65625,-6.984375 5.625,-7.125 5.484375,-7.125 c -0.140625,0 -0.203125,0.140625 -0.203125,0.21875 0,0.046875 0.078125,0.359375 0.234375,0.578125 H 2.15625 c -0.15625,0 -0.34375,0 -0.34375,0.203125 0,0.1875 0.1875,0.1875 0.34375,0.1875 z m 0,0"
             style="stroke:none;stroke-width:0"
             inkscape:connector-curvature="0" />
        </g>
        <g
           id="g3324"
           style="fill:#000000;fill-opacity:1">
          <path
             id="path3322"
             transform="translate(148.71399,134.765)"
             d="m 0.875,-0.59375 c -0.03125,0.15625 -0.09375,0.390625 -0.09375,0.4375 0,0.171875 0.140625,0.265625 0.296875,0.265625 0.125,0 0.296875,-0.078125 0.375,-0.28125 0,-0.015625 0.125,-0.484375 0.1875,-0.734375 l 0.21875,-0.890625 C 1.90625,-2.03125 1.96875,-2.25 2.03125,-2.46875 c 0.03125,-0.171875 0.109375,-0.46875 0.125,-0.5 0.140625,-0.3125 0.671875,-1.21875 1.625,-1.21875 0.453125,0 0.53125,0.375 0.53125,0.703125 0,0.609375 -0.484375,1.890625 -0.640625,2.3125 C 3.578125,-0.9375 3.5625,-0.8125 3.5625,-0.703125 c 0,0.46875 0.359375,0.8125 0.828125,0.8125 0.9375,0 1.296875,-1.453125 1.296875,-1.53125 0,-0.109375 -0.078125,-0.109375 -0.109375,-0.109375 -0.109375,0 -0.109375,0.03125 -0.15625,0.1875 -0.203125,0.671875 -0.53125,1.234375 -1.015625,1.234375 -0.171875,0 -0.234375,-0.09375 -0.234375,-0.328125 0,-0.25 0.078125,-0.484375 0.171875,-0.703125 0.1875,-0.53125 0.609375,-1.625 0.609375,-2.203125 0,-0.65625 -0.421875,-1.0625 -1.140625,-1.0625 -0.90625,0 -1.390625,0.640625 -1.5625,0.875 -0.046875,-0.5625 -0.453125,-0.875 -0.921875,-0.875 -0.453125,0 -0.640625,0.390625 -0.734375,0.5625 C 0.421875,-3.5 0.296875,-2.90625 0.296875,-2.875 c 0,0.109375 0.09375,0.109375 0.109375,0.109375 0.109375,0 0.109375,-0.015625 0.171875,-0.234375 0.171875,-0.703125 0.375,-1.1875 0.734375,-1.1875 0.1875,0 0.296875,0.125 0.296875,0.453125 0,0.21875 -0.03125,0.328125 -0.15625,0.84375 z m 0,0"
             style="stroke:none;stroke-width:0"
             inkscape:connector-curvature="0" />
        </g>
      </g>
    </g>
    <g
       id="g3468"
       ns1:jacobian_sqrt="0.591742"
       inkscapeversion="0.92.4"
       ns1:alignment="middle center"
       ns1:scale="1.67737656412"
       ns1:preamble="C:\\Users\\Buster\\AppData\\Roaming\\inkscape\\extensions\\textext\\default_packages.tex"
       ns1:text="$\\vec F$"
       ns1:pdfconverter="pdf2svg"
       ns1:texconverter="pdflatex"
       ns1:version="0.11.0"
       transform="matrix(0.591742,0,0,0.591742,11.82235,114.20102)"
       inkscape:export-xdpi="329"
       inkscape:export-ydpi="329">
      <g
         id="g3466">
        <g
           id="g3460"
           style="fill:#000000;fill-opacity:1">
          <path
             id="path3458"
             transform="translate(150.181,132.246)"
             d="m 5.359375,-5.9375 c -0.140625,0.140625 -0.46875,0.421875 -0.46875,0.59375 0,0.09375 0.09375,0.203125 0.1875,0.203125 0.09375,0 0.140625,-0.078125 0.203125,-0.140625 C 5.390625,-5.421875 5.625,-5.703125 6.0625,-5.921875 6.125,-5.96875 6.234375,-6.015625 6.234375,-6.125 6.234375,-6.234375 6.15625,-6.28125 6.09375,-6.328125 5.875,-6.484375 5.765625,-6.65625 5.6875,-6.890625 5.65625,-6.984375 5.625,-7.125 5.484375,-7.125 c -0.140625,0 -0.203125,0.140625 -0.203125,0.21875 0,0.046875 0.078125,0.359375 0.234375,0.578125 H 2.15625 c -0.15625,0 -0.34375,0 -0.34375,0.203125 0,0.1875 0.1875,0.1875 0.34375,0.1875 z m 0,0"
             style="stroke:none;stroke-width:0"
             inkscape:connector-curvature="0" />
        </g>
        <g
           id="g3464"
           style="fill:#000000;fill-opacity:1">
          <path
             id="path3462"
             transform="translate(148.712,134.765)"
             d="m 3.015625,-3.234375 h 0.96875 c 0.75,0 0.828125,0.15625 0.828125,0.4375 0,0.078125 0,0.1875 -0.0625,0.5 C 4.71875,-2.25 4.71875,-2.21875 4.71875,-2.1875 c 0,0.078125 0.0625,0.109375 0.109375,0.109375 0.109375,0 0.109375,-0.03125 0.15625,-0.203125 L 5.53125,-4.453125 C 5.5625,-4.5625 5.5625,-4.578125 5.5625,-4.609375 5.5625,-4.625 5.546875,-4.71875 5.4375,-4.71875 5.34375,-4.71875 5.328125,-4.671875 5.296875,-4.5 5.078125,-3.734375 4.859375,-3.546875 4,-3.546875 H 3.09375 l 0.640625,-2.53125 C 3.828125,-6.4375 3.84375,-6.46875 4.28125,-6.46875 h 1.3125 c 1.21875,0 1.453125,0.328125 1.453125,1.09375 0,0.234375 0,0.265625 -0.03125,0.546875 C 7,-4.703125 7,-4.6875 7,-4.65625 c 0,0.046875 0.03125,0.125 0.125,0.125 0.109375,0 0.109375,-0.0625 0.125,-0.25 L 7.453125,-6.515625 C 7.484375,-6.78125 7.4375,-6.78125 7.1875,-6.78125 H 2.296875 c -0.1875,0 -0.296875,0 -0.296875,0.203125 0,0.109375 0.09375,0.109375 0.28125,0.109375 0.375,0 0.65625,0 0.65625,0.171875 0,0.046875 0,0.0625 -0.0625,0.25 L 1.5625,-0.78125 c -0.09375,0.390625 -0.109375,0.46875 -0.90625,0.46875 -0.171875,0 -0.28125,0 -0.28125,0.1875 C 0.375,0 0.5,0 0.53125,0 0.8125,0 1.5625,-0.03125 1.84375,-0.03125 2.171875,-0.03125 3,0 3.328125,0 3.421875,0 3.53125,0 3.53125,-0.1875 3.53125,-0.265625 3.484375,-0.296875 3.484375,-0.296875 3.453125,-0.3125 3.421875,-0.3125 3.203125,-0.3125 c -0.21875,0 -0.265625,0 -0.515625,-0.015625 -0.296875,-0.03125 -0.328125,-0.078125 -0.328125,-0.203125 0,-0.015625 0,-0.078125 0.046875,-0.21875 z m 0,0"
             style="stroke:none;stroke-width:0"
             inkscape:connector-curvature="0" />
        </g>
      </g>
    </g>
    <g
       id="g3610"
       ns1:jacobian_sqrt="0.591742"
       inkscapeversion="0.92.4"
       ns1:alignment="middle center"
       ns1:scale="1.67737656412"
       ns1:preamble="C:\\Users\\Buster\\AppData\\Roaming\\inkscape\\extensions\\textext\\default_packages.tex"
       ns1:text="$U$"
       ns1:pdfconverter="pdf2svg"
       ns1:texconverter="pdflatex"
       ns1:version="0.11.0"
       transform="matrix(0.591742,0,0,0.591742,28.342281,117.17395)"
       inkscape:export-xdpi="329"
       inkscape:export-ydpi="329">
      <g
         id="g3608">
        <g
           id="g3606"
           style="fill:#000000;fill-opacity:1">
          <path
             id="path3604"
             transform="translate(148.712,134.765)"
             d="M 6.328125,-5.765625 C 6.4375,-6.171875 6.609375,-6.46875 7.40625,-6.5 c 0.046875,0 0.171875,-0.015625 0.171875,-0.203125 0,0 0,-0.109375 -0.125,-0.109375 -0.328125,0 -0.6875,0.03125 -1.015625,0.03125 -0.34375,0 -0.71875,-0.03125 -1.046875,-0.03125 -0.0625,0 -0.171875,0 -0.171875,0.203125 C 5.21875,-6.5 5.3125,-6.5 5.390625,-6.5 c 0.578125,0.015625 0.6875,0.21875 0.6875,0.4375 0,0.03125 -0.03125,0.1875 -0.03125,0.203125 l -0.90625,3.5625 C 4.8125,-0.953125 3.65625,-0.09375 2.65625,-0.09375 c -0.671875,0 -1.203125,-0.4375 -1.203125,-1.296875 0,-0.015625 0,-0.328125 0.109375,-0.765625 L 2.515625,-6.046875 C 2.609375,-6.40625 2.625,-6.5 3.359375,-6.5 c 0.265625,0 0.34375,0 0.34375,-0.203125 0,-0.109375 -0.109375,-0.109375 -0.140625,-0.109375 -0.28125,0 -1,0.03125 -1.28125,0.03125 -0.28125,0 -1,-0.03125 -1.28125,-0.03125 -0.078125,0 -0.1875,0 -0.1875,0.203125 C 0.8125,-6.5 0.890625,-6.5 1.09375,-6.5 c 0.015625,0 0.203125,0 0.375,0.015625 0.171875,0.03125 0.265625,0.03125 0.265625,0.171875 0,0.046875 -0.109375,0.46875 -0.171875,0.703125 l -0.21875,0.875 C 1.25,-4.34375 0.78125,-2.46875 0.734375,-2.265625 0.671875,-2 0.671875,-1.84375 0.671875,-1.6875 c 0,1.203125 0.90625,1.90625 1.953125,1.90625 1.25,0 2.484375,-1.125 2.8125,-2.4375 z m 0,0"
             style="stroke:none;stroke-width:0"
             inkscape:connector-curvature="0" />
        </g>
      </g>
    </g>
  </g>
</svg>
