<?xml version="1.0" encoding="UTF-8" standalone="no"?>
<!-- Created with Inkscape (http://www.inkscape.org/) -->

<svg
   xmlns:dc="http://purl.org/dc/elements/1.1/"
   xmlns:cc="http://creativecommons.org/ns#"
   xmlns:rdf="http://www.w3.org/1999/02/22-rdf-syntax-ns#"
   xmlns:svg="http://www.w3.org/2000/svg"
   xmlns="http://www.w3.org/2000/svg"
   xmlns:sodipodi="http://sodipodi.sourceforge.net/DTD/sodipodi-0.dtd"
   xmlns:inkscape="http://www.inkscape.org/namespaces/inkscape"
   width="210mm"
   height="297mm"
   viewBox="0 0 210 297"
   version="1.1"
   id="svg8"
   inkscape:version="0.92.4 (5da689c313, 2019-01-14)"
   sodipodi:docname="SommerfugleStokes.svg">
  <defs
     id="defs2" />
  <sodipodi:namedview
     id="base"
     pagecolor="#ffffff"
     bordercolor="#666666"
     borderopacity="1.0"
     inkscape:pageopacity="0.0"
     inkscape:pageshadow="2"
     inkscape:zoom="1.4"
     inkscape:cx="400.74205"
     inkscape:cy="669.16939"
     inkscape:document-units="mm"
     inkscape:current-layer="layer1"
     showgrid="false"
     inkscape:snap-global="false"
     inkscape:window-width="1920"
     inkscape:window-height="1017"
     inkscape:window-x="-8"
     inkscape:window-y="-8"
     inkscape:window-maximized="1" />
  <metadata
     id="metadata5">
    <rdf:RDF>
      <cc:Work
         rdf:about="">
        <dc:format>image/svg+xml</dc:format>
        <dc:type
           rdf:resource="http://purl.org/dc/dcmitype/StillImage" />
        <dc:title />
      </cc:Work>
    </rdf:RDF>
  </metadata>
  <g
     inkscape:label="Layer 1"
     inkscape:groupmode="layer"
     id="layer1">
    <path
       style="opacity:1;fill:#002ce3;fill-opacity:1;stroke:#1da214;stroke-width:0.639;stroke-linecap:round;stroke-miterlimit:4;stroke-dasharray:none;stroke-dashoffset:0;stroke-opacity:1"
       d="M 76.019069,186.29883 88.87026,141.50866"
       id="path815"
       inkscape:connector-curvature="0"
       sodipodi:nodetypes="cc"
       inkscape:export-xdpi="263.06094"
       inkscape:export-ydpi="263.06094" />
    <path
       style="opacity:1;fill:none;fill-opacity:1;stroke:#070707;stroke-width:0.33899999;stroke-linecap:round;stroke-miterlimit:4;stroke-dasharray:none;stroke-dashoffset:0;stroke-opacity:1"
       d="m 89.107885,141.4628 c 0,0 4.91369,-5.85864 13.701635,-0.0945 8.78795,5.76414 14.74107,8.032 18.80432,-0.18899 4.06324,-8.22098 7.27604,-15.21354 -0.85045,-17.00892 -8.12649,-1.79539 -1.03943,-11.81176 4.34673,-12.09524 5.38616,-0.28349 11.33928,-7.37054 3.96875,-9.44941 -7.37054,-2.07887 -11.43378,2.55134 -17.19792,4.53572 -5.76414,1.98437 -14.74107,0.94493 -14.74107,0.94493"
       id="path819"
       inkscape:connector-curvature="0"
       sodipodi:nodetypes="cssccscc"
       inkscape:export-xdpi="263.06094"
       inkscape:export-ydpi="263.06094" />
    <ellipse
       style="opacity:1;fill:none;fill-opacity:1;stroke:#1da214;stroke-width:0.639;stroke-linecap:round;stroke-miterlimit:4;stroke-dasharray:none;stroke-dashoffset:0;stroke-opacity:1"
       id="path817"
       cx="133.39809"
       cy="81.048828"
       rx="12.756697"
       ry="17.103424"
       transform="rotate(21.766348)"
       inkscape:export-xdpi="263.06094"
       inkscape:export-ydpi="263.06094" />
    <ellipse
       transform="matrix(0.93479493,0.35518789,-0.38691915,0.92211364,0,0)"
       ry="16.16011"
       rx="12.494376"
       cy="79.106094"
       cx="143.84209"
       id="ellipse821"
       style="opacity:1;fill:none;fill-opacity:1;stroke:#1f1f1f;stroke-width:0.41812208;stroke-linecap:round;stroke-miterlimit:4;stroke-dasharray:none;stroke-dashoffset:0;stroke-opacity:0.36956522"
       inkscape:export-xdpi="263.06094"
       inkscape:export-ydpi="263.06094" />
    <ellipse
       style="opacity:1;fill:none;fill-opacity:1;stroke:#1f1f1f;stroke-width:0.2451711;stroke-linecap:round;stroke-miterlimit:4;stroke-dasharray:none;stroke-dashoffset:0;stroke-opacity:0.36956524"
       id="ellipse823"
       cx="170.21887"
       cy="-28.805437"
       rx="6.8066964"
       ry="10.198937"
       transform="matrix(0.50405385,0.86367223,-0.94665721,0.32224235,0,0)"
       inkscape:export-xdpi="263.06094"
       inkscape:export-ydpi="263.06094" />
    <ellipse
       transform="matrix(0.83232845,-0.55428274,0.37770097,0.92592763,0,0)"
       ry="6.8317647"
       rx="4.5594697"
       cy="179.10805"
       cx="63.159409"
       id="ellipse825"
       style="opacity:1;fill:none;fill-opacity:1;stroke:#1f1f1f;stroke-width:0.26566618;stroke-linecap:round;stroke-miterlimit:4;stroke-dasharray:none;stroke-dashoffset:0;stroke-opacity:0.36956524"
       inkscape:export-xdpi="263.06094"
       inkscape:export-ydpi="263.06094" />
    <ellipse
       style="opacity:1;fill:none;fill-opacity:1;stroke:#1f1f1f;stroke-width:0.34703181;stroke-linecap:round;stroke-miterlimit:4;stroke-dasharray:none;stroke-dashoffset:0;stroke-opacity:0.36956524"
       id="ellipse827"
       cx="108.65268"
       cy="116.86356"
       rx="4.5737395"
       ry="5.8874817"
       transform="matrix(0.99887886,-0.0473395,0.06645599,0.99778936,0,0)"
       inkscape:export-xdpi="263.06094"
       inkscape:export-ydpi="263.06094" />
    <ellipse
       transform="matrix(0.92996003,0.36766063,-0.41698418,0.90891374,0,0)"
       ry="5.1980743"
       rx="4.3305297"
       cy="53.723663"
       cx="158.62935"
       id="ellipse829"
       style="opacity:1;fill:none;fill-opacity:1;stroke:#1f1f1f;stroke-width:0.31729302;stroke-linecap:round;stroke-miterlimit:4;stroke-dasharray:none;stroke-dashoffset:0;stroke-opacity:0.36956524"
       inkscape:export-xdpi="263.06094"
       inkscape:export-ydpi="263.06094" />
    <path
       style="opacity:1;fill:none;fill-opacity:1;stroke:#070707;stroke-width:0.34699997;stroke-linecap:round;stroke-miterlimit:4;stroke-dasharray:none;stroke-dashoffset:0;stroke-opacity:1"
       d="m 95.899994,140.39569 c 0,0 2.645834,0 11.339286,3.68527"
       id="path831"
       inkscape:connector-curvature="0"
       inkscape:export-xdpi="263.06094"
       inkscape:export-ydpi="263.06094" />
    <path
       style="opacity:1;fill:none;fill-opacity:1;stroke:#070707;stroke-width:0.53899997;stroke-linecap:round;stroke-miterlimit:4;stroke-dasharray:none;stroke-dashoffset:0;stroke-opacity:1"
       d="m 93.418173,117.89425 v 14.74107"
       id="path833"
       inkscape:connector-curvature="0"
       inkscape:export-xdpi="263.06094"
       inkscape:export-ydpi="263.06094" />
    <path
       inkscape:connector-curvature="0"
       id="path835"
       d="M 100.78871,125.26479 H 86.047638"
       style="opacity:1;fill:none;fill-opacity:1;stroke:#070707;stroke-width:0.53899997;stroke-linecap:round;stroke-miterlimit:4;stroke-dasharray:none;stroke-dashoffset:0;stroke-opacity:1"
       inkscape:export-xdpi="263.06094"
       inkscape:export-ydpi="263.06094" />
    <path
       style="opacity:1;fill:none;fill-opacity:1;stroke:#070707;stroke-width:0.53899997;stroke-linecap:round;stroke-miterlimit:4;stroke-dasharray:none;stroke-dashoffset:0;stroke-opacity:1"
       d="m 97.10344,118.88172 -7.370535,12.76614"
       id="path837"
       inkscape:connector-curvature="0"
       inkscape:export-xdpi="263.06094"
       inkscape:export-ydpi="263.06094" />
    <g
       id="g982"
       style="fill:#000000;fill-opacity:1"
       transform="matrix(0.44845903,0,0,0.44845903,-20.910694,24.62901)"
       inkscape:export-xdpi="263.06094"
       inkscape:export-ydpi="263.06094">
      <path
         id="path980"
         transform="translate(148.712,125.2)"
         d="M 3.734375,17.640625 C 3.953125,17.640625 4,17.640625 4,17.5 4.03125,10.515625 4.828125,4.71875 8.328125,-0.15625 c 0.0625,-0.09375 0.0625,-0.109375 0.0625,-0.140625 0,-0.09375 -0.0625,-0.09375 -0.21875,-0.09375 -0.171875,0 -0.1875,0 -0.203125,0.015625 -0.046875,0.03125 -1.3125,1.484375 -2.3125,3.5 -1.3125,2.625 -2.140625,5.640625 -2.515625,9.28125 -0.03125,0.296875 -0.234375,2.375 -0.234375,4.734375 v 0.390625 c 0,0.109375 0.0625,0.109375 0.28125,0.109375 z m 0,0"
         style="stroke:none;stroke-width:0"
         inkscape:connector-curvature="0" />
    </g>
    <g
       id="g986"
       style="fill:#000000;fill-opacity:1"
       transform="matrix(0.44845903,0,0,0.44845903,-20.910694,24.62901)"
       inkscape:export-xdpi="263.06094"
       inkscape:export-ydpi="263.06094">
      <path
         id="path984"
         transform="translate(148.712,143.133)"
         d="m 3.1875,-0.5 c -0.21875,0 -0.28125,0 -0.28125,0.109375 V 0 c 0,6.09375 1.078125,9.65625 1.390625,10.671875 C 4.96875,12.875 6.078125,15.21875 7.75,17.265625 7.890625,17.453125 7.9375,17.5 7.96875,17.515625 8,17.53125 8,17.53125 8.171875,17.53125 c 0.15625,0 0.21875,0 0.21875,-0.09375 0,-0.01563 0,-0.04687 -0.0625,-0.125 C 5.015625,12.703125 4.015625,7.15625 4,-0.359375 4,-0.5 3.953125,-0.5 3.734375,-0.5 Z m 0,0"
         style="stroke:none;stroke-width:0"
         inkscape:connector-curvature="0" />
    </g>
    <g
       id="g990"
       style="fill:#000000;fill-opacity:1"
       transform="matrix(0.44845903,0,0,0.44845903,-20.910694,24.62901)"
       inkscape:export-xdpi="263.06094"
       inkscape:export-ydpi="263.06094">
      <path
         id="path988"
         transform="translate(157.43,133.171)"
         d="M 3.328125,-3.015625 C 3.390625,-3.265625 3.625,-4.1875 4.3125,-4.1875 c 0.046875,0 0.296875,0 0.5,0.125 C 4.53125,-4 4.34375,-3.765625 4.34375,-3.515625 c 0,0.15625 0.109375,0.34375 0.375,0.34375 0.21875,0 0.53125,-0.171875 0.53125,-0.578125 0,-0.515625 -0.578125,-0.65625 -0.921875,-0.65625 -0.578125,0 -0.921875,0.53125 -1.046875,0.75 -0.25,-0.65625 -0.78125,-0.75 -1.078125,-0.75 -1.03125,0 -1.609375,1.28125 -1.609375,1.53125 0,0.109375 0.109375,0.109375 0.125,0.109375 0.078125,0 0.109375,-0.03125 0.125,-0.109375 0.34375,-1.0625 1,-1.3125 1.34375,-1.3125 0.1875,0 0.53125,0.09375 0.53125,0.671875 0,0.3125 -0.171875,0.96875 -0.53125,2.375 -0.15625,0.609375 -0.515625,1.03125 -0.953125,1.03125 -0.0625,0 -0.28125,0 -0.5,-0.125 0.25,-0.0625 0.46875,-0.265625 0.46875,-0.546875 0,-0.265625 -0.21875,-0.34375 -0.359375,-0.34375 -0.3125,0 -0.546875,0.25 -0.546875,0.578125 0,0.453125 0.484375,0.65625 0.921875,0.65625 0.671875,0 1.03125,-0.703125 1.046875,-0.75 0.125,0.359375 0.484375,0.75 1.078125,0.75 1.03125,0 1.59375,-1.28125 1.59375,-1.53125 0,-0.109375 -0.078125,-0.109375 -0.109375,-0.109375 -0.09375,0 -0.109375,0.046875 -0.140625,0.109375 -0.328125,1.078125 -1,1.3125 -1.3125,1.3125 -0.390625,0 -0.546875,-0.3125 -0.546875,-0.65625 0,-0.21875 0.046875,-0.4375 0.15625,-0.875 z m 0,0"
         style="stroke:none;stroke-width:0"
         inkscape:connector-curvature="0" />
    </g>
    <g
       id="g994"
       style="fill:#000000;fill-opacity:1"
       transform="matrix(0.44845903,0,0,0.44845903,-20.910694,24.62901)"
       inkscape:export-xdpi="263.06094"
       inkscape:export-ydpi="263.06094">
      <path
         id="path992"
         transform="translate(157.656,145.126)"
         d="m 4.84375,-3.796875 c 0.046875,-0.140625 0.046875,-0.15625 0.046875,-0.234375 0,-0.171875 -0.140625,-0.265625 -0.296875,-0.265625 -0.09375,0 -0.25,0.0625 -0.34375,0.203125 -0.015625,0.0625 -0.109375,0.359375 -0.140625,0.546875 -0.078125,0.25 -0.140625,0.53125 -0.203125,0.796875 l -0.453125,1.796875 c -0.03125,0.140625 -0.46875,0.84375 -1.125,0.84375 -0.5,0 -0.609375,-0.4375 -0.609375,-0.8125 C 1.71875,-1.375 1.890625,-2 2.21875,-2.875 2.375,-3.28125 2.421875,-3.390625 2.421875,-3.59375 c 0,-0.4375 -0.3125,-0.8125 -0.8125,-0.8125 -0.953125,0 -1.3125,1.453125 -1.3125,1.53125 0,0.109375 0.09375,0.109375 0.109375,0.109375 0.109375,0 0.109375,-0.03125 0.15625,-0.1875 0.28125,-0.9375 0.671875,-1.234375 1.015625,-1.234375 0.078125,0 0.25,0 0.25,0.3125 0,0.25 -0.109375,0.515625 -0.171875,0.703125 -0.40625,1.0625 -0.578125,1.625 -0.578125,2.09375 0,0.890625 0.625,1.1875 1.21875,1.1875 0.390625,0 0.71875,-0.171875 1,-0.453125 -0.125,0.515625 -0.25,1.015625 -0.640625,1.546875 -0.265625,0.328125 -0.640625,0.625 -1.09375,0.625 -0.140625,0 -0.59375,-0.03125 -0.765625,-0.421875 0.15625,0 0.296875,0 0.421875,-0.125 C 1.328125,1.203125 1.421875,1.0625 1.421875,0.875 1.421875,0.5625 1.15625,0.53125 1.0625,0.53125 0.828125,0.53125 0.5,0.6875 0.5,1.171875 c 0,0.5 0.4375,0.875 1.0625,0.875 1.015625,0 2.046875,-0.90625 2.328125,-2.03125 z m 0,0"
         style="stroke:none;stroke-width:0"
         inkscape:connector-curvature="0" />
    </g>
    <g
       id="g998"
       style="fill:#000000;fill-opacity:1"
       transform="matrix(0.44845903,0,0,0.44845903,-20.910694,24.62901)"
       inkscape:export-xdpi="263.06094"
       inkscape:export-ydpi="263.06094">
      <path
         id="path996"
         transform="translate(157.741,157.081)"
         d="m 1.328125,-0.828125 c 0.53125,-0.578125 0.828125,-0.828125 1.1875,-1.140625 0,0 0.609375,-0.53125 0.96875,-0.890625 C 4.4375,-3.78125 4.65625,-4.265625 4.65625,-4.3125 c 0,-0.09375 -0.09375,-0.09375 -0.109375,-0.09375 -0.078125,0 -0.09375,0.015625 -0.15625,0.109375 -0.296875,0.484375 -0.5,0.640625 -0.734375,0.640625 -0.25,0 -0.359375,-0.15625 -0.515625,-0.328125 -0.1875,-0.21875 -0.359375,-0.421875 -0.6875,-0.421875 -0.75,0 -1.203125,0.921875 -1.203125,1.140625 0,0.046875 0.03125,0.109375 0.109375,0.109375 0.09375,0 0.109375,-0.046875 0.140625,-0.109375 0.1875,-0.46875 0.765625,-0.46875 0.84375,-0.46875 0.203125,0 0.390625,0.0625 0.625,0.140625 0.40625,0.15625 0.515625,0.15625 0.765625,0.15625 -0.359375,0.421875 -1.1875,1.140625 -1.375,1.296875 l -0.90625,0.84375 C 0.78125,-0.625 0.421875,-0.0625 0.421875,0.015625 c 0,0.09375 0.109375,0.09375 0.125,0.09375 0.078125,0 0.09375,-0.015625 0.15625,-0.125 0.234375,-0.359375 0.53125,-0.625 0.859375,-0.625 0.21875,0 0.328125,0.09375 0.578125,0.375 0.15625,0.21875 0.34375,0.375 0.625,0.375 1,0 1.578125,-1.265625 1.578125,-1.53125 0,-0.046875 -0.046875,-0.109375 -0.125,-0.109375 -0.09375,0 -0.109375,0.0625 -0.140625,0.140625 C 3.84375,-0.75 3.203125,-0.5625 2.875,-0.5625 c -0.1875,0 -0.375,-0.0625 -0.578125,-0.125 -0.34375,-0.125 -0.5,-0.171875 -0.703125,-0.171875 -0.015625,0 -0.171875,0 -0.265625,0.03125 z m 0,0"
         style="stroke:none;stroke-width:0"
         inkscape:connector-curvature="0" />
    </g>
    <g
       id="g1002"
       style="fill:#000000;fill-opacity:1"
       transform="matrix(0.44845903,0,0,0.44845903,-20.910694,24.62901)"
       inkscape:export-xdpi="263.06094"
       inkscape:export-ydpi="263.06094">
      <path
         id="path1000"
         transform="translate(163.124,125.2)"
         d="M 5.8125,17.140625 C 5.8125,11.0625 4.71875,7.484375 4.421875,6.484375 3.734375,4.265625 2.625,1.9375 0.96875,-0.125 0.8125,-0.296875 0.78125,-0.34375 0.734375,-0.375 c -0.015625,0 -0.03125,-0.015625 -0.1875,-0.015625 -0.140625,0 -0.234375,0 -0.234375,0.09375 0,0.03125 0,0.046875 0.140625,0.234375 3.46875,4.84375 4.234375,10.8125 4.25,17.5625 0,0.140625 0.0625,0.140625 0.28125,0.140625 H 5.53125 c 0.203125,0 0.265625,0 0.28125,-0.109375 z m 0,0"
         style="stroke:none;stroke-width:0"
         inkscape:connector-curvature="0" />
    </g>
    <g
       id="g1006"
       style="fill:#000000;fill-opacity:1"
       transform="matrix(0.44845903,0,0,0.44845903,-20.910694,24.62901)"
       inkscape:export-xdpi="263.06094"
       inkscape:export-ydpi="263.06094">
      <path
         id="path1004"
         transform="translate(163.124,143.133)"
         d="M 5.8125,-0.390625 C 5.796875,-0.5 5.734375,-0.5 5.53125,-0.5 H 4.984375 c -0.21875,0 -0.28125,0 -0.28125,0.140625 0,1.03125 -0.015625,3.40625 -0.265625,5.875 C 3.890625,10.671875 2.578125,14.25 0.390625,17.3125 0.3125,17.390625 0.3125,17.421875 0.3125,17.4375 c 0,0.09375 0.09375,0.09375 0.234375,0.09375 0.15625,0 0.1875,0 0.203125,-0.01563 C 0.78125,17.48438 2.046875,16.03125 3.0625,14.03125 4.375,11.390625 5.203125,8.375 5.578125,4.75 5.609375,4.4375 5.8125,2.359375 5.8125,0 Z m 0,0"
         style="stroke:none;stroke-width:0"
         inkscape:connector-curvature="0" />
    </g>
    <g
       id="g1010"
       style="fill:#000000;fill-opacity:1"
       transform="matrix(0.44845903,0,0,0.44845903,-20.910694,24.62901)"
       inkscape:export-xdpi="263.06094"
       inkscape:export-ydpi="263.06094">
      <path
         id="path1008"
         transform="translate(174.608,145.226)"
         d="m 6.84375,-3.265625 c 0.15625,0 0.34375,0 0.34375,-0.1875 C 7.1875,-3.65625 7,-3.65625 6.859375,-3.65625 h -5.96875 c -0.140625,0 -0.328125,0 -0.328125,0.203125 0,0.1875 0.1875,0.1875 0.328125,0.1875 z m 0.015625,1.9375 c 0.140625,0 0.328125,0 0.328125,-0.203125 0,-0.1875 -0.1875,-0.1875 -0.34375,-0.1875 H 0.890625 c -0.140625,0 -0.328125,0 -0.328125,0.1875 0,0.203125 0.1875,0.203125 0.328125,0.203125 z m 0,0"
         style="stroke:none;stroke-width:0"
         inkscape:connector-curvature="0" />
    </g>
    <g
       id="g1046"
       style="fill:#000000;fill-opacity:1"
       transform="matrix(0.44845903,0,0,0.44845903,-36.256537,24.62901)"
       inkscape:export-xdpi="263.06094"
       inkscape:export-ydpi="263.06094">
      <path
         id="path1044"
         transform="translate(219.717,145.226)"
         d="m 7.578125,-6.921875 c 0,-0.03125 -0.015625,-0.109375 -0.109375,-0.109375 -0.03125,0 -0.046875,0.015625 -0.15625,0.125 L 6.625,-6.140625 C 6.53125,-6.28125 6.078125,-7.03125 4.96875,-7.03125 2.734375,-7.03125 0.5,-4.828125 0.5,-2.515625 0.5,-0.875 1.671875,0.21875 3.203125,0.21875 c 0.859375,0 1.625,-0.390625 2.15625,-0.859375 0.921875,-0.8125 1.09375,-1.71875 1.09375,-1.75 C 6.453125,-2.5 6.34375,-2.5 6.328125,-2.5 c -0.0625,0 -0.109375,0.03125 -0.125,0.109375 -0.09375,0.28125 -0.328125,1 -1.015625,1.578125 -0.6875,0.546875 -1.3125,0.71875 -1.828125,0.71875 -0.890625,0 -1.953125,-0.515625 -1.953125,-2.0625 0,-0.578125 0.203125,-2.1875 1.203125,-3.359375 0.609375,-0.703125 1.546875,-1.203125 2.4375,-1.203125 1.015625,0 1.609375,0.765625 1.609375,1.921875 0,0.40625 -0.03125,0.40625 -0.03125,0.515625 0,0.09375 0.109375,0.09375 0.140625,0.09375 0.125,0 0.125,-0.015625 0.1875,-0.203125 z m 0,0"
         style="stroke:none;stroke-width:0"
         inkscape:connector-curvature="0" />
    </g>
    <g
       id="g1052"
       style="fill:#000000;fill-opacity:1"
       transform="matrix(0.44845903,0,0,0.44845903,-36.256537,24.62901)"
       inkscape:export-xdpi="263.06094"
       inkscape:export-ydpi="263.06094">
      <path
         id="path1048"
         transform="translate(227.55458,145.226)"
         d="m 4.671875,-2.71875 c 0,-1.046875 -0.6875,-1.6875 -1.59375,-1.6875 -1.328125,0 -2.671875,1.421875 -2.671875,2.828125 0,0.984375 0.671875,1.6875 1.59375,1.6875 1.328125,0 2.671875,-1.375 2.671875,-2.828125 z m -2.65625,2.609375 c -0.4375,0 -0.875,-0.3125 -0.875,-1.09375 0,-0.484375 0.265625,-1.5625 0.578125,-2.0625 0.5,-0.765625 1.078125,-0.921875 1.359375,-0.921875 0.578125,0 0.875,0.484375 0.875,1.078125 0,0.390625 -0.203125,1.4375 -0.578125,2.078125 -0.359375,0.578125 -0.90625,0.921875 -1.359375,0.921875 z m 0,0"
         style="stroke:none;stroke-width:0"
         inkscape:connector-curvature="0" />
      <path
         id="path1050"
         transform="translate(232.38345,145.226)"
         d="M 3.890625,-3.734375 C 3.625,-3.71875 3.421875,-3.5 3.421875,-3.28125 c 0,0.140625 0.09375,0.296875 0.3125,0.296875 0.21875,0 0.453125,-0.171875 0.453125,-0.5625 C 4.1875,-4 3.765625,-4.40625 3,-4.40625 c -1.3125,0 -1.6875,1.015625 -1.6875,1.453125 0,0.78125 0.734375,0.921875 1.03125,0.984375 0.515625,0.109375 1.03125,0.21875 1.03125,0.765625 0,0.25 -0.21875,1.09375 -1.421875,1.09375 -0.140625,0 -0.90625,0 -1.140625,-0.53125 0.390625,0.046875 0.640625,-0.25 0.640625,-0.53125 0,-0.21875 -0.171875,-0.34375 -0.375,-0.34375 -0.265625,0 -0.5625,0.203125 -0.5625,0.65625 0,0.5625 0.578125,0.96875 1.421875,0.96875 1.625,0 2.015625,-1.203125 2.015625,-1.65625 0,-0.359375 -0.1875,-0.609375 -0.3125,-0.71875 -0.265625,-0.28125 -0.5625,-0.34375 -1,-0.421875 -0.359375,-0.078125 -0.75,-0.15625 -0.75,-0.609375 C 1.890625,-3.578125 2.125,-4.1875 3,-4.1875 c 0.25,0 0.75,0.078125 0.890625,0.453125 z m 0,0"
         style="stroke:none;stroke-width:0"
         inkscape:connector-curvature="0" />
    </g>
    <g
       id="g1056"
       style="fill:#000000;fill-opacity:1"
       transform="matrix(0.44845903,0,0,0.44845903,-36.256537,24.62901)"
       inkscape:export-xdpi="263.06094"
       inkscape:export-ydpi="263.06094">
      <path
         id="path1054"
         transform="translate(237.049,145.226)"
         d="m 3.296875,2.390625 c 0,-0.03125 0,-0.046875 -0.171875,-0.21875 C 1.890625,0.921875 1.5625,-0.96875 1.5625,-2.5 c 0,-1.734375 0.375,-3.46875 1.609375,-4.703125 0.125,-0.125 0.125,-0.140625 0.125,-0.171875 0,-0.078125 -0.03125,-0.109375 -0.09375,-0.109375 -0.109375,0 -1,0.6875 -1.59375,1.953125 -0.5,1.09375 -0.625,2.203125 -0.625,3.03125 0,0.78125 0.109375,1.984375 0.65625,3.125 C 2.25,1.84375 3.09375,2.5 3.203125,2.5 c 0.0625,0 0.09375,-0.03125 0.09375,-0.109375 z m 0,0"
         style="stroke:none;stroke-width:0"
         inkscape:connector-curvature="0" />
    </g>
    <g
       id="g1060"
       style="fill:#000000;fill-opacity:1"
       transform="matrix(0.44845903,0,0,0.44845903,-36.256537,24.62901)"
       inkscape:export-xdpi="263.06094"
       inkscape:export-ydpi="263.06094">
      <path
         id="path1058"
         transform="translate(240.923,145.226)"
         d="m 4.53125,-4.984375 c 0,-0.65625 -0.171875,-2.046875 -1.1875,-2.046875 -1.390625,0 -2.921875,2.8125 -2.921875,5.09375 0,0.9375 0.28125,2.046875 1.1875,2.046875 1.40625,0 2.921875,-2.859375 2.921875,-5.09375 z M 1.46875,-3.625 C 1.640625,-4.25 1.84375,-5.046875 2.25,-5.765625 2.515625,-6.25 2.875,-6.8125 3.328125,-6.8125 c 0.484375,0 0.546875,0.640625 0.546875,1.203125 0,0.5 -0.078125,1 -0.3125,1.984375 z m 2,0.328125 C 3.359375,-2.84375 3.15625,-2 2.765625,-1.28125 c -0.34375,0.6875 -0.71875,1.171875 -1.15625,1.171875 -0.328125,0 -0.53125,-0.296875 -0.53125,-1.21875 0,-0.421875 0.0625,-1 0.3125,-1.96875 z m 0,0"
         style="stroke:none;stroke-width:0"
         inkscape:connector-curvature="0" />
    </g>
    <g
       id="g1064"
       style="fill:#000000;fill-opacity:1"
       transform="matrix(0.44845903,0,0,0.44845903,-36.256537,24.62901)"
       inkscape:export-xdpi="263.06094"
       inkscape:export-ydpi="263.06094">
      <path
         id="path1062"
         transform="translate(245.877,145.226)"
         d="m 2.875,-2.5 c 0,-0.765625 -0.109375,-1.96875 -0.65625,-3.109375 -0.59375,-1.21875 -1.453125,-1.875 -1.546875,-1.875 -0.0625,0 -0.109375,0.046875 -0.109375,0.109375 0,0.03125 0,0.046875 0.1875,0.234375 0.984375,0.984375 1.546875,2.5625 1.546875,4.640625 0,1.71875 -0.359375,3.46875 -1.59375,4.71875 C 0.5625,2.34375 0.5625,2.359375 0.5625,2.390625 0.5625,2.453125 0.609375,2.5 0.671875,2.5 0.765625,2.5 1.671875,1.8125 2.25,0.546875 2.765625,-0.546875 2.875,-1.65625 2.875,-2.5 Z m 0,0"
         style="stroke:none;stroke-width:0"
         inkscape:connector-curvature="0" />
    </g>
    <g
       id="g1068"
       style="fill:#000000;fill-opacity:1"
       transform="matrix(0.44845903,0,0,0.44845903,-36.256537,24.62901)"
       inkscape:export-xdpi="263.06094"
       inkscape:export-ydpi="263.06094">
      <path
         id="path1066"
         transform="translate(251.965,145.226)"
         d="M 2.734375,-4.25 C 2.75,-4.390625 2.75,-4.640625 2.5,-4.640625 2.328125,-4.640625 2.203125,-4.5 2.234375,-4.375 V -4.25 L 2.375,-2.703125 1.09375,-3.625 C 1,-3.671875 0.984375,-3.703125 0.921875,-3.703125 c -0.140625,0 -0.28125,0.140625 -0.28125,0.28125 0,0.15625 0.109375,0.203125 0.203125,0.25 L 2.265625,-2.5 l -1.375,0.671875 c -0.15625,0.078125 -0.25,0.125 -0.25,0.265625 0,0.15625 0.140625,0.28125 0.28125,0.28125 0.0625,0 0.078125,0 0.328125,-0.1875 L 2.375,-2.265625 2.21875,-0.59375 c 0,0.203125 0.1875,0.25 0.265625,0.25 0.125,0 0.265625,-0.0625 0.265625,-0.25 L 2.609375,-2.265625 3.875,-1.34375 c 0.09375,0.046875 0.109375,0.0625 0.1875,0.0625 0.140625,0 0.265625,-0.140625 0.265625,-0.28125 0,-0.140625 -0.09375,-0.1875 -0.21875,-0.25 C 3.515625,-2.109375 3.5,-2.109375 2.71875,-2.484375 l 1.375,-0.671875 C 4.25,-3.234375 4.328125,-3.265625 4.328125,-3.421875 c 0,-0.140625 -0.125,-0.28125 -0.265625,-0.28125 -0.078125,0 -0.09375,0 -0.34375,0.1875 l -1.109375,0.8125 z m 0,0"
         style="stroke:none;stroke-width:0"
         inkscape:connector-curvature="0" />
    </g>
    <g
       id="g1072"
       style="fill:#000000;fill-opacity:1"
       transform="matrix(0.44845903,0,0,0.44845903,-36.256537,24.62901)"
       inkscape:export-xdpi="263.06094"
       inkscape:export-ydpi="263.06094">
      <path
         id="path1070"
         transform="translate(259.16,125.2)"
         d="M 3.734375,17.640625 C 3.953125,17.640625 4,17.640625 4,17.5 4.03125,10.515625 4.828125,4.71875 8.328125,-0.15625 c 0.0625,-0.09375 0.0625,-0.109375 0.0625,-0.140625 0,-0.09375 -0.0625,-0.09375 -0.21875,-0.09375 -0.171875,0 -0.1875,0 -0.203125,0.015625 -0.046875,0.03125 -1.3125,1.484375 -2.3125,3.5 -1.3125,2.625 -2.140625,5.640625 -2.515625,9.28125 -0.03125,0.296875 -0.234375,2.375 -0.234375,4.734375 v 0.390625 c 0,0.109375 0.0625,0.109375 0.28125,0.109375 z m 0,0"
         style="stroke:none;stroke-width:0"
         inkscape:connector-curvature="0" />
    </g>
    <g
       id="g1076"
       style="fill:#000000;fill-opacity:1"
       transform="matrix(0.44845903,0,0,0.44845903,-36.256537,24.62901)"
       inkscape:export-xdpi="263.06094"
       inkscape:export-ydpi="263.06094">
      <path
         id="path1074"
         transform="translate(259.16,143.133)"
         d="m 3.1875,-0.5 c -0.21875,0 -0.28125,0 -0.28125,0.109375 V 0 c 0,6.09375 1.078125,9.65625 1.390625,10.671875 C 4.96875,12.875 6.078125,15.21875 7.75,17.265625 7.890625,17.453125 7.9375,17.5 7.96875,17.515625 8,17.53125 8,17.53125 8.171875,17.53125 c 0.15625,0 0.21875,0 0.21875,-0.09375 0,-0.01563 0,-0.04687 -0.0625,-0.125 C 5.015625,12.703125 4.015625,7.15625 4,-0.359375 4,-0.5 3.953125,-0.5 3.734375,-0.5 Z m 0,0"
         style="stroke:none;stroke-width:0"
         inkscape:connector-curvature="0" />
    </g>
    <g
       id="g1080"
       style="fill:#000000;fill-opacity:1"
       transform="matrix(0.44845903,0,0,0.44845903,-36.256537,24.62901)"
       inkscape:export-xdpi="263.06094"
       inkscape:export-ydpi="263.06094">
      <path
         id="path1078"
         transform="translate(271.752,133.171)"
         d="m 2.9375,-6.375 c 0,-0.25 0,-0.265625 -0.234375,-0.265625 C 2.078125,-6 1.203125,-6 0.890625,-6 v 0.3125 c 0.203125,0 0.78125,0 1.296875,-0.265625 v 5.171875 c 0,0.359375 -0.03125,0.46875 -0.921875,0.46875 h -0.3125 V 0 c 0.34375,-0.03125 1.203125,-0.03125 1.609375,-0.03125 0.390625,0 1.265625,0 1.609375,0.03125 v -0.3125 h -0.3125 c -0.90625,0 -0.921875,-0.109375 -0.921875,-0.46875 z m 0,0"
         style="stroke:none;stroke-width:0"
         inkscape:connector-curvature="0" />
    </g>
    <g
       id="g1084"
       style="fill:#000000;fill-opacity:1"
       transform="matrix(0.44845903,0,0,0.44845903,-36.256537,24.62901)"
       inkscape:export-xdpi="263.06094"
       inkscape:export-ydpi="263.06094">
      <path
         id="path1082"
         transform="translate(276.733,133.171)"
         d="m 1.90625,-0.53125 c 0,-0.28125 -0.234375,-0.53125 -0.515625,-0.53125 -0.296875,0 -0.53125,0.25 -0.53125,0.53125 C 0.859375,-0.234375 1.09375,0 1.390625,0 1.671875,0 1.90625,-0.234375 1.90625,-0.53125 Z m 0,0"
         style="stroke:none;stroke-width:0"
         inkscape:connector-curvature="0" />
    </g>
    <g
       id="g1090"
       style="fill:#000000;fill-opacity:1"
       transform="matrix(0.44845903,0,0,0.44845903,-36.256537,24.62901)"
       inkscape:export-xdpi="263.06094"
       inkscape:export-ydpi="263.06094">
      <path
         id="path1086"
         transform="translate(279.501,133.171)"
         d="m 4.578125,-3.1875 c 0,-0.796875 -0.046875,-1.59375 -0.390625,-2.328125 -0.453125,-0.96875 -1.28125,-1.125 -1.6875,-1.125 -0.609375,0 -1.328125,0.265625 -1.75,1.1875 -0.3125,0.6875 -0.359375,1.46875 -0.359375,2.265625 0,0.75 0.03125,1.640625 0.453125,2.40625 0.421875,0.796875 1.15625,1 1.640625,1 0.53125,0 1.296875,-0.203125 1.734375,-1.15625 0.3125,-0.6875 0.359375,-1.46875 0.359375,-2.25 z M 2.484375,0 C 2.09375,0 1.5,-0.25 1.328125,-1.203125 1.21875,-1.796875 1.21875,-2.71875 1.21875,-3.3125 c 0,-0.640625 0,-1.296875 0.078125,-1.828125 0.1875,-1.1875 0.9375,-1.28125 1.1875,-1.28125 0.328125,0 0.984375,0.1875 1.171875,1.171875 0.109375,0.5625 0.109375,1.3125 0.109375,1.9375 0,0.75 0,1.421875 -0.109375,2.0625 C 3.5,-0.296875 2.9375,0 2.484375,0 Z m 0,0"
         style="stroke:none;stroke-width:0"
         inkscape:connector-curvature="0" />
      <path
         id="path1088"
         transform="translate(284.4823,133.171)"
         d="m 1.3125,-3.265625 v -0.25 c 0,-2.515625 1.234375,-2.875 1.75,-2.875 0.234375,0 0.65625,0.0625 0.875,0.40625 -0.15625,0 -0.546875,0 -0.546875,0.4375 0,0.3125 0.234375,0.46875 0.453125,0.46875 0.15625,0 0.46875,-0.09375 0.46875,-0.484375 0,-0.59375 -0.4375,-1.078125 -1.265625,-1.078125 -1.28125,0 -2.625,1.28125 -2.625,3.484375 0,2.671875 1.15625,3.375 2.078125,3.375 1.109375,0 2.0625,-0.9375 2.0625,-2.25 0,-1.265625 -0.890625,-2.21875 -2,-2.21875 -0.671875,0 -1.046875,0.5 -1.25,0.984375 z M 2.5,-0.0625 c -0.625,0 -0.921875,-0.59375 -0.984375,-0.75 -0.1875,-0.46875 -0.1875,-1.265625 -0.1875,-1.4375 0,-0.78125 0.328125,-1.78125 1.21875,-1.78125 0.171875,0 0.625,0 0.9375,0.625 0.171875,0.359375 0.171875,0.875 0.171875,1.359375 0,0.484375 0,0.984375 -0.171875,1.34375 C 3.1875,-0.109375 2.734375,-0.0625 2.5,-0.0625 Z m 0,0"
         style="stroke:none;stroke-width:0"
         inkscape:connector-curvature="0" />
    </g>
    <g
       id="g1094"
       style="fill:#000000;fill-opacity:1"
       transform="matrix(0.44845903,0,0,0.44845903,-36.256537,24.62901)"
       inkscape:export-xdpi="263.06094"
       inkscape:export-ydpi="263.06094">
      <path
         id="path1092"
         transform="translate(267.878,145.126)"
         d="m 6.5625,-2.296875 c 0.171875,0 0.359375,0 0.359375,-0.203125 0,-0.1875 -0.1875,-0.1875 -0.359375,-0.1875 H 1.171875 c -0.171875,0 -0.34375,0 -0.34375,0.1875 0,0.203125 0.171875,0.203125 0.34375,0.203125 z m 0,0"
         style="stroke:none;stroke-width:0"
         inkscape:connector-curvature="0" />
    </g>
    <g
       id="g1098"
       style="fill:#000000;fill-opacity:1"
       transform="matrix(0.44845903,0,0,0.44845903,-36.256537,24.62901)"
       inkscape:export-xdpi="263.06094"
       inkscape:export-ydpi="263.06094">
      <path
         id="path1096"
         transform="translate(275.627,145.126)"
         d="m 4.578125,-3.1875 c 0,-0.796875 -0.046875,-1.59375 -0.390625,-2.328125 -0.453125,-0.96875 -1.28125,-1.125 -1.6875,-1.125 -0.609375,0 -1.328125,0.265625 -1.75,1.1875 -0.3125,0.6875 -0.359375,1.46875 -0.359375,2.265625 0,0.75 0.03125,1.640625 0.453125,2.40625 0.421875,0.796875 1.15625,1 1.640625,1 0.53125,0 1.296875,-0.203125 1.734375,-1.15625 0.3125,-0.6875 0.359375,-1.46875 0.359375,-2.25 z M 2.484375,0 C 2.09375,0 1.5,-0.25 1.328125,-1.203125 1.21875,-1.796875 1.21875,-2.71875 1.21875,-3.3125 c 0,-0.640625 0,-1.296875 0.078125,-1.828125 0.1875,-1.1875 0.9375,-1.28125 1.1875,-1.28125 0.328125,0 0.984375,0.1875 1.171875,1.171875 0.109375,0.5625 0.109375,1.3125 0.109375,1.9375 0,0.75 0,1.421875 -0.109375,2.0625 C 3.5,-0.296875 2.9375,0 2.484375,0 Z m 0,0"
         style="stroke:none;stroke-width:0"
         inkscape:connector-curvature="0" />
    </g>
    <g
       id="g1102"
       style="fill:#000000;fill-opacity:1"
       transform="matrix(0.44845903,0,0,0.44845903,-36.256537,24.62901)"
       inkscape:export-xdpi="263.06094"
       inkscape:export-ydpi="263.06094">
      <path
         id="path1100"
         transform="translate(280.608,145.126)"
         d="m 1.90625,-0.53125 c 0,-0.28125 -0.234375,-0.53125 -0.515625,-0.53125 -0.296875,0 -0.53125,0.25 -0.53125,0.53125 C 0.859375,-0.234375 1.09375,0 1.390625,0 1.671875,0 1.90625,-0.234375 1.90625,-0.53125 Z m 0,0"
         style="stroke:none;stroke-width:0"
         inkscape:connector-curvature="0" />
    </g>
    <g
       id="g1108"
       style="fill:#000000;fill-opacity:1"
       transform="matrix(0.44845903,0,0,0.44845903,-36.256537,24.62901)"
       inkscape:export-xdpi="263.06094"
       inkscape:export-ydpi="263.06094">
      <path
         id="path1104"
         transform="translate(283.375,145.126)"
         d="m 4.46875,-2 c 0,-1.1875 -0.8125,-2.1875 -1.890625,-2.1875 -0.46875,0 -0.90625,0.15625 -1.265625,0.515625 V -5.625 c 0.203125,0.0625 0.53125,0.125 0.84375,0.125 1.234375,0 1.9375,-0.90625 1.9375,-1.03125 0,-0.0625 -0.03125,-0.109375 -0.109375,-0.109375 0,0 -0.03125,0 -0.078125,0.03125 C 3.703125,-6.515625 3.21875,-6.3125 2.546875,-6.3125 2.15625,-6.3125 1.6875,-6.390625 1.21875,-6.59375 1.140625,-6.625 1.125,-6.625 1.109375,-6.625 1,-6.625 1,-6.546875 1,-6.390625 V -3.4375 c 0,0.171875 0,0.25 0.140625,0.25 0.078125,0 0.09375,-0.015625 0.140625,-0.078125 C 1.390625,-3.421875 1.75,-3.96875 2.5625,-3.96875 c 0.515625,0 0.765625,0.453125 0.84375,0.640625 0.15625,0.375 0.1875,0.75 0.1875,1.25 0,0.359375 0,0.953125 -0.25,1.375 C 3.109375,-0.3125 2.734375,-0.0625 2.28125,-0.0625 c -0.71875,0 -1.296875,-0.53125 -1.46875,-1.109375 0.03125,0 0.0625,0.015625 0.171875,0.015625 0.328125,0 0.5,-0.25 0.5,-0.484375 0,-0.25 -0.171875,-0.5 -0.5,-0.5 C 0.84375,-2.140625 0.5,-2.0625 0.5,-1.609375 0.5,-0.75 1.1875,0.21875 2.296875,0.21875 3.453125,0.21875 4.46875,-0.734375 4.46875,-2 Z m 0,0"
         style="stroke:none;stroke-width:0"
         inkscape:connector-curvature="0" />
      <path
         id="path1106"
         transform="translate(288.3563,145.126)"
         d="m 2.9375,-6.375 c 0,-0.25 0,-0.265625 -0.234375,-0.265625 C 2.078125,-6 1.203125,-6 0.890625,-6 v 0.3125 c 0.203125,0 0.78125,0 1.296875,-0.265625 v 5.171875 c 0,0.359375 -0.03125,0.46875 -0.921875,0.46875 h -0.3125 V 0 c 0.34375,-0.03125 1.203125,-0.03125 1.609375,-0.03125 0.390625,0 1.265625,0 1.609375,0.03125 v -0.3125 h -0.3125 c -0.90625,0 -0.921875,-0.109375 -0.921875,-0.46875 z m 0,0"
         style="stroke:none;stroke-width:0"
         inkscape:connector-curvature="0" />
    </g>
    <g
       id="g1112"
       style="fill:#000000;fill-opacity:1"
       transform="matrix(0.44845903,0,0,0.44845903,-36.256537,24.62901)"
       inkscape:export-xdpi="263.06094"
       inkscape:export-ydpi="263.06094">
      <path
         id="path1110"
         transform="translate(271.752,157.081)"
         d="m 2.9375,-6.375 c 0,-0.25 0,-0.265625 -0.234375,-0.265625 C 2.078125,-6 1.203125,-6 0.890625,-6 v 0.3125 c 0.203125,0 0.78125,0 1.296875,-0.265625 v 5.171875 c 0,0.359375 -0.03125,0.46875 -0.921875,0.46875 h -0.3125 V 0 c 0.34375,-0.03125 1.203125,-0.03125 1.609375,-0.03125 0.390625,0 1.265625,0 1.609375,0.03125 v -0.3125 h -0.3125 c -0.90625,0 -0.921875,-0.109375 -0.921875,-0.46875 z m 0,0"
         style="stroke:none;stroke-width:0"
         inkscape:connector-curvature="0" />
    </g>
    <g
       id="g1116"
       style="fill:#000000;fill-opacity:1"
       transform="matrix(0.44845903,0,0,0.44845903,-36.256537,24.62901)"
       inkscape:export-xdpi="263.06094"
       inkscape:export-ydpi="263.06094">
      <path
         id="path1114"
         transform="translate(276.734,157.081)"
         d="m 1.90625,-0.53125 c 0,-0.28125 -0.234375,-0.53125 -0.515625,-0.53125 -0.296875,0 -0.53125,0.25 -0.53125,0.53125 C 0.859375,-0.234375 1.09375,0 1.390625,0 1.671875,0 1.90625,-0.234375 1.90625,-0.53125 Z m 0,0"
         style="stroke:none;stroke-width:0"
         inkscape:connector-curvature="0" />
    </g>
    <g
       id="g1122"
       style="fill:#000000;fill-opacity:1"
       transform="matrix(0.44845903,0,0,0.44845903,-36.256537,24.62901)"
       inkscape:export-xdpi="263.06094"
       inkscape:export-ydpi="263.06094">
      <path
         id="path1118"
         transform="translate(279.501,157.081)"
         d="m 1.3125,-3.265625 v -0.25 c 0,-2.515625 1.234375,-2.875 1.75,-2.875 0.234375,0 0.65625,0.0625 0.875,0.40625 -0.15625,0 -0.546875,0 -0.546875,0.4375 0,0.3125 0.234375,0.46875 0.453125,0.46875 0.15625,0 0.46875,-0.09375 0.46875,-0.484375 0,-0.59375 -0.4375,-1.078125 -1.265625,-1.078125 -1.28125,0 -2.625,1.28125 -2.625,3.484375 0,2.671875 1.15625,3.375 2.078125,3.375 1.109375,0 2.0625,-0.9375 2.0625,-2.25 0,-1.265625 -0.890625,-2.21875 -2,-2.21875 -0.671875,0 -1.046875,0.5 -1.25,0.984375 z M 2.5,-0.0625 c -0.625,0 -0.921875,-0.59375 -0.984375,-0.75 -0.1875,-0.46875 -0.1875,-1.265625 -0.1875,-1.4375 0,-0.78125 0.328125,-1.78125 1.21875,-1.78125 0.171875,0 0.625,0 0.9375,0.625 0.171875,0.359375 0.171875,0.875 0.171875,1.359375 0,0.484375 0,0.984375 -0.171875,1.34375 C 3.1875,-0.109375 2.734375,-0.0625 2.5,-0.0625 Z m 0,0"
         style="stroke:none;stroke-width:0"
         inkscape:connector-curvature="0" />
      <path
         id="path1120"
         transform="translate(284.4823,157.081)"
         d="m 1.265625,-0.765625 1.0625,-1.03125 c 1.546875,-1.375 2.140625,-1.90625 2.140625,-2.90625 0,-1.140625 -0.890625,-1.9375 -2.109375,-1.9375 -1.125,0 -1.859375,0.921875 -1.859375,1.8125 0,0.546875 0.5,0.546875 0.53125,0.546875 0.171875,0 0.515625,-0.109375 0.515625,-0.53125 0,-0.25 -0.1875,-0.515625 -0.53125,-0.515625 -0.078125,0 -0.09375,0 -0.125,0.015625 0.21875,-0.65625 0.765625,-1.015625 1.34375,-1.015625 0.90625,0 1.328125,0.8125 1.328125,1.625 C 3.5625,-3.90625 3.078125,-3.125 2.515625,-2.5 l -1.90625,2.125 C 0.5,-0.265625 0.5,-0.234375 0.5,0 H 4.203125 L 4.46875,-1.734375 H 4.234375 C 4.171875,-1.4375 4.109375,-1 4,-0.84375 3.9375,-0.765625 3.28125,-0.765625 3.0625,-0.765625 Z m 0,0"
         style="stroke:none;stroke-width:0"
         inkscape:connector-curvature="0" />
    </g>
    <g
       id="g1126"
       style="fill:#000000;fill-opacity:1"
       transform="matrix(0.44845903,0,0,0.44845903,-36.256537,24.62901)"
       inkscape:export-xdpi="263.06094"
       inkscape:export-ydpi="263.06094">
      <path
         id="path1124"
         transform="translate(293.338,125.2)"
         d="M 5.8125,17.140625 C 5.8125,11.0625 4.71875,7.484375 4.421875,6.484375 3.734375,4.265625 2.625,1.9375 0.96875,-0.125 0.8125,-0.296875 0.78125,-0.34375 0.734375,-0.375 c -0.015625,0 -0.03125,-0.015625 -0.1875,-0.015625 -0.140625,0 -0.234375,0 -0.234375,0.09375 0,0.03125 0,0.046875 0.140625,0.234375 3.46875,4.84375 4.234375,10.8125 4.25,17.5625 0,0.140625 0.0625,0.140625 0.28125,0.140625 H 5.53125 c 0.203125,0 0.265625,0 0.28125,-0.109375 z m 0,0"
         style="stroke:none;stroke-width:0"
         inkscape:connector-curvature="0" />
    </g>
    <g
       id="g1130"
       style="fill:#000000;fill-opacity:1"
       transform="matrix(0.44845903,0,0,0.44845903,-36.256537,24.62901)"
       inkscape:export-xdpi="263.06094"
       inkscape:export-ydpi="263.06094">
      <path
         id="path1128"
         transform="translate(293.338,143.133)"
         d="M 5.8125,-0.390625 C 5.796875,-0.5 5.734375,-0.5 5.53125,-0.5 H 4.984375 c -0.21875,0 -0.28125,0 -0.28125,0.140625 0,1.03125 -0.015625,3.40625 -0.265625,5.875 C 3.890625,10.671875 2.578125,14.25 0.390625,17.3125 0.3125,17.390625 0.3125,17.421875 0.3125,17.4375 c 0,0.09375 0.09375,0.09375 0.234375,0.09375 0.15625,0 0.1875,0 0.203125,-0.01563 C 0.78125,17.48438 2.046875,16.03125 3.0625,14.03125 4.375,11.390625 5.203125,8.375 5.578125,4.75 5.609375,4.4375 5.8125,2.359375 5.8125,0 Z m 0,0"
         style="stroke:none;stroke-width:0"
         inkscape:connector-curvature="0" />
    </g>
    <g
       id="g1134"
       style="fill:#000000;fill-opacity:1"
       transform="matrix(0.44845903,0,0,0.44845903,-36.256537,24.62901)"
       inkscape:export-xdpi="263.06094"
       inkscape:export-ydpi="263.06094">
      <path
         id="path1132"
         transform="translate(304.269,145.226)"
         d="m 4.078125,-2.296875 h 2.78125 C 7,-2.296875 7.1875,-2.296875 7.1875,-2.5 7.1875,-2.6875 7,-2.6875 6.859375,-2.6875 h -2.78125 v -2.796875 c 0,-0.140625 0,-0.328125 -0.203125,-0.328125 -0.203125,0 -0.203125,0.1875 -0.203125,0.328125 V -2.6875 h -2.78125 c -0.140625,0 -0.328125,0 -0.328125,0.1875 0,0.203125 0.1875,0.203125 0.328125,0.203125 h 2.78125 V 0.5 c 0,0.140625 0,0.328125 0.203125,0.328125 0.203125,0 0.203125,-0.1875 0.203125,-0.328125 z m 0,0"
         style="stroke:none;stroke-width:0"
         inkscape:connector-curvature="0" />
    </g>
    <g
       id="g1138"
       style="fill:#000000;fill-opacity:1"
       transform="matrix(0.44845903,0,0,0.44845903,-36.256537,24.62901)"
       inkscape:export-xdpi="263.06094"
       inkscape:export-ydpi="263.06094">
      <path
         id="path1136"
         transform="translate(314.232,145.226)"
         d="m 6.4375,-6.921875 c 0,-0.03125 -0.03125,-0.109375 -0.125,-0.109375 -0.046875,0 -0.046875,0.015625 -0.171875,0.15625 L 5.65625,-6.3125 c -0.25,-0.46875 -0.765625,-0.71875 -1.421875,-0.71875 -1.265625,0 -2.453125,1.15625 -2.453125,2.359375 0,0.796875 0.515625,1.265625 1.03125,1.40625 l 1.0625,0.28125 c 0.375,0.09375 0.921875,0.25 0.921875,1.0625 0,0.890625 -0.8125,1.828125 -1.796875,1.828125 -0.640625,0 -1.75,-0.21875 -1.75,-1.453125 0,-0.234375 0.0625,-0.484375 0.0625,-0.53125 0.015625,-0.046875 0.015625,-0.0625 0.015625,-0.078125 0,-0.09375 -0.0625,-0.109375 -0.109375,-0.109375 -0.046875,0 -0.078125,0.015625 -0.109375,0.046875 -0.03125,0.03125 -0.59375,2.3125 -0.59375,2.34375 0,0.046875 0.046875,0.09375 0.109375,0.09375 0.046875,0 0.0625,-0.015625 0.1875,-0.15625 L 1.296875,-0.5 c 0.421875,0.578125 1.109375,0.71875 1.6875,0.71875 1.359375,0 2.53125,-1.328125 2.53125,-2.5625 0,-0.6875 -0.34375,-1.03125 -0.484375,-1.171875 C 4.796875,-3.734375 4.640625,-3.78125 3.765625,-4 3.53125,-4.0625 3.1875,-4.171875 3.09375,-4.1875 2.828125,-4.28125 2.484375,-4.5625 2.484375,-5.09375 c 0,-0.8125 0.796875,-1.65625 1.75,-1.65625 0.8125,0 1.421875,0.4375 1.421875,1.546875 0,0.3125 -0.03125,0.5 -0.03125,0.5625 0,0 0,0.09375 0.109375,0.09375 0.109375,0 0.125,-0.03125 0.15625,-0.203125 z m 0,0"
         style="stroke:none;stroke-width:0"
         inkscape:connector-curvature="0" />
    </g>
    <g
       id="g1144"
       style="fill:#000000;fill-opacity:1"
       transform="matrix(0.44845903,0,0,0.44845903,-36.256537,24.62901)"
       inkscape:export-xdpi="263.06094"
       inkscape:export-ydpi="263.06094">
      <path
         id="path1140"
         transform="translate(320.9189,145.226)"
         d="m 2.828125,-6.234375 c 0,-0.203125 -0.140625,-0.359375 -0.359375,-0.359375 -0.28125,0 -0.546875,0.265625 -0.546875,0.53125 0,0.1875 0.140625,0.359375 0.375,0.359375 0.234375,0 0.53125,-0.234375 0.53125,-0.53125 z m -0.75,3.75 c 0.109375,-0.28125 0.109375,-0.3125 0.21875,-0.578125 0.078125,-0.203125 0.125,-0.34375 0.125,-0.53125 0,-0.4375 -0.3125,-0.8125 -0.8125,-0.8125 -0.9375,0 -1.3125,1.453125 -1.3125,1.53125 0,0.109375 0.09375,0.109375 0.109375,0.109375 0.109375,0 0.109375,-0.03125 0.15625,-0.1875 0.28125,-0.9375 0.671875,-1.234375 1.015625,-1.234375 0.078125,0 0.25,0 0.25,0.3125 0,0.21875 -0.078125,0.421875 -0.109375,0.53125 -0.078125,0.25 -0.53125,1.40625 -0.6875,1.84375 -0.109375,0.25 -0.234375,0.578125 -0.234375,0.796875 0,0.46875 0.34375,0.8125 0.8125,0.8125 0.9375,0 1.3125,-1.4375 1.3125,-1.53125 0,-0.109375 -0.09375,-0.109375 -0.125,-0.109375 -0.09375,0 -0.09375,0.03125 -0.140625,0.1875 -0.1875,0.625 -0.515625,1.234375 -1.015625,1.234375 -0.171875,0 -0.25,-0.09375 -0.25,-0.328125 0,-0.25 0.0625,-0.390625 0.296875,-1 z m 0,0"
         style="stroke:none;stroke-width:0"
         inkscape:connector-curvature="0" />
      <path
         id="path1142"
         transform="translate(324.35101,145.226)"
         d="m 0.875,-0.59375 c -0.03125,0.15625 -0.09375,0.390625 -0.09375,0.4375 0,0.171875 0.140625,0.265625 0.296875,0.265625 0.125,0 0.296875,-0.078125 0.375,-0.28125 0,-0.015625 0.125,-0.484375 0.1875,-0.734375 l 0.21875,-0.890625 C 1.90625,-2.03125 1.96875,-2.25 2.03125,-2.46875 c 0.03125,-0.171875 0.109375,-0.46875 0.125,-0.5 0.140625,-0.3125 0.671875,-1.21875 1.625,-1.21875 0.453125,0 0.53125,0.375 0.53125,0.703125 0,0.609375 -0.484375,1.890625 -0.640625,2.3125 C 3.578125,-0.9375 3.5625,-0.8125 3.5625,-0.703125 c 0,0.46875 0.359375,0.8125 0.828125,0.8125 0.9375,0 1.296875,-1.453125 1.296875,-1.53125 0,-0.109375 -0.078125,-0.109375 -0.109375,-0.109375 -0.109375,0 -0.109375,0.03125 -0.15625,0.1875 -0.203125,0.671875 -0.53125,1.234375 -1.015625,1.234375 -0.171875,0 -0.234375,-0.09375 -0.234375,-0.328125 0,-0.25 0.078125,-0.484375 0.171875,-0.703125 0.1875,-0.53125 0.609375,-1.625 0.609375,-2.203125 0,-0.65625 -0.421875,-1.0625 -1.140625,-1.0625 -0.90625,0 -1.390625,0.640625 -1.5625,0.875 -0.046875,-0.5625 -0.453125,-0.875 -0.921875,-0.875 -0.453125,0 -0.640625,0.390625 -0.734375,0.5625 C 0.421875,-3.5 0.296875,-2.90625 0.296875,-2.875 c 0,0.109375 0.09375,0.109375 0.109375,0.109375 0.109375,0 0.109375,-0.015625 0.171875,-0.234375 0.171875,-0.703125 0.375,-1.1875 0.734375,-1.1875 0.1875,0 0.296875,0.125 0.296875,0.453125 0,0.21875 -0.03125,0.328125 -0.15625,0.84375 z m 0,0"
         style="stroke:none;stroke-width:0"
         inkscape:connector-curvature="0" />
    </g>
    <g
       id="g1148"
       style="fill:#000000;fill-opacity:1"
       transform="matrix(0.44845903,0,0,0.44845903,-36.256537,24.62901)"
       inkscape:export-xdpi="263.06094"
       inkscape:export-ydpi="263.06094">
      <path
         id="path1146"
         transform="translate(330.327,145.226)"
         d="m 3.296875,2.390625 c 0,-0.03125 0,-0.046875 -0.171875,-0.21875 C 1.890625,0.921875 1.5625,-0.96875 1.5625,-2.5 c 0,-1.734375 0.375,-3.46875 1.609375,-4.703125 0.125,-0.125 0.125,-0.140625 0.125,-0.171875 0,-0.078125 -0.03125,-0.109375 -0.09375,-0.109375 -0.109375,0 -1,0.6875 -1.59375,1.953125 -0.5,1.09375 -0.625,2.203125 -0.625,3.03125 0,0.78125 0.109375,1.984375 0.65625,3.125 C 2.25,1.84375 3.09375,2.5 3.203125,2.5 c 0.0625,0 0.09375,-0.03125 0.09375,-0.109375 z m 0,0"
         style="stroke:none;stroke-width:0"
         inkscape:connector-curvature="0" />
    </g>
    <g
       id="g1152"
       style="fill:#000000;fill-opacity:1"
       transform="matrix(0.44845903,0,0,0.44845903,-36.256537,24.62901)"
       inkscape:export-xdpi="263.06094"
       inkscape:export-ydpi="263.06094">
      <path
         id="path1150"
         transform="translate(334.202,145.226)"
         d="m 4.53125,-4.984375 c 0,-0.65625 -0.171875,-2.046875 -1.1875,-2.046875 -1.390625,0 -2.921875,2.8125 -2.921875,5.09375 0,0.9375 0.28125,2.046875 1.1875,2.046875 1.40625,0 2.921875,-2.859375 2.921875,-5.09375 z M 1.46875,-3.625 C 1.640625,-4.25 1.84375,-5.046875 2.25,-5.765625 2.515625,-6.25 2.875,-6.8125 3.328125,-6.8125 c 0.484375,0 0.546875,0.640625 0.546875,1.203125 0,0.5 -0.078125,1 -0.3125,1.984375 z m 2,0.328125 C 3.359375,-2.84375 3.15625,-2 2.765625,-1.28125 c -0.34375,0.6875 -0.71875,1.171875 -1.15625,1.171875 -0.328125,0 -0.53125,-0.296875 -0.53125,-1.21875 0,-0.421875 0.0625,-1 0.3125,-1.96875 z m 0,0"
         style="stroke:none;stroke-width:0"
         inkscape:connector-curvature="0" />
    </g>
    <g
       id="g1156"
       style="fill:#000000;fill-opacity:1"
       transform="matrix(0.44845903,0,0,0.44845903,-36.256537,24.62901)"
       inkscape:export-xdpi="263.06094"
       inkscape:export-ydpi="263.06094">
      <path
         id="path1154"
         transform="translate(339.155,145.226)"
         d="m 2.875,-2.5 c 0,-0.765625 -0.109375,-1.96875 -0.65625,-3.109375 -0.59375,-1.21875 -1.453125,-1.875 -1.546875,-1.875 -0.0625,0 -0.109375,0.046875 -0.109375,0.109375 0,0.03125 0,0.046875 0.1875,0.234375 0.984375,0.984375 1.546875,2.5625 1.546875,4.640625 0,1.71875 -0.359375,3.46875 -1.59375,4.71875 C 0.5625,2.34375 0.5625,2.359375 0.5625,2.390625 0.5625,2.453125 0.609375,2.5 0.671875,2.5 0.765625,2.5 1.671875,1.8125 2.25,0.546875 2.765625,-0.546875 2.875,-1.65625 2.875,-2.5 Z m 0,0"
         style="stroke:none;stroke-width:0"
         inkscape:connector-curvature="0" />
    </g>
    <g
       id="g1160"
       style="fill:#000000;fill-opacity:1"
       transform="matrix(0.44845903,0,0,0.44845903,-36.256537,24.62901)"
       inkscape:export-xdpi="263.06094"
       inkscape:export-ydpi="263.06094">
      <path
         id="path1158"
         transform="translate(345.243,145.226)"
         d="M 2.734375,-4.25 C 2.75,-4.390625 2.75,-4.640625 2.5,-4.640625 2.328125,-4.640625 2.203125,-4.5 2.234375,-4.375 V -4.25 L 2.375,-2.703125 1.09375,-3.625 C 1,-3.671875 0.984375,-3.703125 0.921875,-3.703125 c -0.140625,0 -0.28125,0.140625 -0.28125,0.28125 0,0.15625 0.109375,0.203125 0.203125,0.25 L 2.265625,-2.5 l -1.375,0.671875 c -0.15625,0.078125 -0.25,0.125 -0.25,0.265625 0,0.15625 0.140625,0.28125 0.28125,0.28125 0.0625,0 0.078125,0 0.328125,-0.1875 L 2.375,-2.265625 2.21875,-0.59375 c 0,0.203125 0.1875,0.25 0.265625,0.25 0.125,0 0.265625,-0.0625 0.265625,-0.25 L 2.609375,-2.265625 3.875,-1.34375 c 0.09375,0.046875 0.109375,0.0625 0.1875,0.0625 0.140625,0 0.265625,-0.140625 0.265625,-0.28125 0,-0.140625 -0.09375,-0.1875 -0.21875,-0.25 C 3.515625,-2.109375 3.5,-2.109375 2.71875,-2.484375 l 1.375,-0.671875 C 4.25,-3.234375 4.328125,-3.265625 4.328125,-3.421875 c 0,-0.140625 -0.125,-0.28125 -0.265625,-0.28125 -0.078125,0 -0.09375,0 -0.34375,0.1875 l -1.109375,0.8125 z m 0,0"
         style="stroke:none;stroke-width:0"
         inkscape:connector-curvature="0" />
    </g>
    <g
       id="g1164"
       style="fill:#000000;fill-opacity:1"
       transform="matrix(0.44845903,0,0,0.44845903,-36.256537,24.62901)"
       inkscape:export-xdpi="263.06094"
       inkscape:export-ydpi="263.06094">
      <path
         id="path1162"
         transform="translate(352.439,125.2)"
         d="M 3.734375,17.640625 C 3.953125,17.640625 4,17.640625 4,17.5 4.03125,10.515625 4.828125,4.71875 8.328125,-0.15625 c 0.0625,-0.09375 0.0625,-0.109375 0.0625,-0.140625 0,-0.09375 -0.0625,-0.09375 -0.21875,-0.09375 -0.171875,0 -0.1875,0 -0.203125,0.015625 -0.046875,0.03125 -1.3125,1.484375 -2.3125,3.5 -1.3125,2.625 -2.140625,5.640625 -2.515625,9.28125 -0.03125,0.296875 -0.234375,2.375 -0.234375,4.734375 v 0.390625 c 0,0.109375 0.0625,0.109375 0.28125,0.109375 z m 0,0"
         style="stroke:none;stroke-width:0"
         inkscape:connector-curvature="0" />
    </g>
    <g
       id="g1168"
       style="fill:#000000;fill-opacity:1"
       transform="matrix(0.44845903,0,0,0.44845903,-36.256537,24.62901)"
       inkscape:export-xdpi="263.06094"
       inkscape:export-ydpi="263.06094">
      <path
         id="path1166"
         transform="translate(352.439,143.133)"
         d="m 3.1875,-0.5 c -0.21875,0 -0.28125,0 -0.28125,0.109375 V 0 c 0,6.09375 1.078125,9.65625 1.390625,10.671875 C 4.96875,12.875 6.078125,15.21875 7.75,17.265625 7.890625,17.453125 7.9375,17.5 7.96875,17.515625 8,17.53125 8,17.53125 8.171875,17.53125 c 0.15625,0 0.21875,0 0.21875,-0.09375 0,-0.01563 0,-0.04687 -0.0625,-0.125 C 5.015625,12.703125 4.015625,7.15625 4,-0.359375 4,-0.5 3.953125,-0.5 3.734375,-0.5 Z m 0,0"
         style="stroke:none;stroke-width:0"
         inkscape:connector-curvature="0" />
    </g>
    <g
       id="g1172"
       style="fill:#000000;fill-opacity:1"
       transform="matrix(0.44845903,0,0,0.44845903,-36.256537,24.62901)"
       inkscape:export-xdpi="263.06094"
       inkscape:export-ydpi="263.06094">
      <path
         id="path1170"
         transform="translate(361.156,133.171)"
         d="m 6.5625,-2.296875 c 0.171875,0 0.359375,0 0.359375,-0.203125 0,-0.1875 -0.1875,-0.1875 -0.359375,-0.1875 H 1.171875 c -0.171875,0 -0.34375,0 -0.34375,0.1875 0,0.203125 0.171875,0.203125 0.34375,0.203125 z m 0,0"
         style="stroke:none;stroke-width:0"
         inkscape:connector-curvature="0" />
    </g>
    <g
       id="g1176"
       style="fill:#000000;fill-opacity:1"
       transform="matrix(0.44845903,0,0,0.44845903,-36.256537,24.62901)"
       inkscape:export-xdpi="263.06094"
       inkscape:export-ydpi="263.06094">
      <path
         id="path1174"
         transform="translate(368.905,133.171)"
         d="m 2.9375,-6.375 c 0,-0.25 0,-0.265625 -0.234375,-0.265625 C 2.078125,-6 1.203125,-6 0.890625,-6 v 0.3125 c 0.203125,0 0.78125,0 1.296875,-0.265625 v 5.171875 c 0,0.359375 -0.03125,0.46875 -0.921875,0.46875 h -0.3125 V 0 c 0.34375,-0.03125 1.203125,-0.03125 1.609375,-0.03125 0.390625,0 1.265625,0 1.609375,0.03125 v -0.3125 h -0.3125 c -0.90625,0 -0.921875,-0.109375 -0.921875,-0.46875 z m 0,0"
         style="stroke:none;stroke-width:0"
         inkscape:connector-curvature="0" />
    </g>
    <g
       id="g1180"
       style="fill:#000000;fill-opacity:1"
       transform="matrix(0.44845903,0,0,0.44845903,-36.256537,24.62901)"
       inkscape:export-xdpi="263.06094"
       inkscape:export-ydpi="263.06094">
      <path
         id="path1178"
         transform="translate(373.886,133.171)"
         d="m 1.90625,-0.53125 c 0,-0.28125 -0.234375,-0.53125 -0.515625,-0.53125 -0.296875,0 -0.53125,0.25 -0.53125,0.53125 C 0.859375,-0.234375 1.09375,0 1.390625,0 1.671875,0 1.90625,-0.234375 1.90625,-0.53125 Z m 0,0"
         style="stroke:none;stroke-width:0"
         inkscape:connector-curvature="0" />
    </g>
    <g
       id="g1186"
       style="fill:#000000;fill-opacity:1"
       transform="matrix(0.44845903,0,0,0.44845903,-36.256537,24.62901)"
       inkscape:export-xdpi="263.06094"
       inkscape:export-ydpi="263.06094">
      <path
         id="path1182"
         transform="translate(376.653,133.171)"
         d="m 4.46875,-2 c 0,-1.1875 -0.8125,-2.1875 -1.890625,-2.1875 -0.46875,0 -0.90625,0.15625 -1.265625,0.515625 V -5.625 c 0.203125,0.0625 0.53125,0.125 0.84375,0.125 1.234375,0 1.9375,-0.90625 1.9375,-1.03125 0,-0.0625 -0.03125,-0.109375 -0.109375,-0.109375 0,0 -0.03125,0 -0.078125,0.03125 C 3.703125,-6.515625 3.21875,-6.3125 2.546875,-6.3125 2.15625,-6.3125 1.6875,-6.390625 1.21875,-6.59375 1.140625,-6.625 1.125,-6.625 1.109375,-6.625 1,-6.625 1,-6.546875 1,-6.390625 V -3.4375 c 0,0.171875 0,0.25 0.140625,0.25 0.078125,0 0.09375,-0.015625 0.140625,-0.078125 C 1.390625,-3.421875 1.75,-3.96875 2.5625,-3.96875 c 0.515625,0 0.765625,0.453125 0.84375,0.640625 0.15625,0.375 0.1875,0.75 0.1875,1.25 0,0.359375 0,0.953125 -0.25,1.375 C 3.109375,-0.3125 2.734375,-0.0625 2.28125,-0.0625 c -0.71875,0 -1.296875,-0.53125 -1.46875,-1.109375 0.03125,0 0.0625,0.015625 0.171875,0.015625 0.328125,0 0.5,-0.25 0.5,-0.484375 0,-0.25 -0.171875,-0.5 -0.5,-0.5 C 0.84375,-2.140625 0.5,-2.0625 0.5,-1.609375 0.5,-0.75 1.1875,0.21875 2.296875,0.21875 3.453125,0.21875 4.46875,-0.734375 4.46875,-2 Z m 0,0"
         style="stroke:none;stroke-width:0"
         inkscape:connector-curvature="0" />
      <path
         id="path1184"
         transform="translate(381.6343,133.171)"
         d="m 4.75,-6.078125 c 0.078125,-0.109375 0.078125,-0.125 0.078125,-0.34375 H 2.40625 c -1.203125,0 -1.234375,-0.125 -1.265625,-0.3125 h -0.25 L 0.5625,-4.6875 h 0.25 c 0.03125,-0.15625 0.109375,-0.78125 0.25,-0.90625 0.0625,-0.0625 0.84375,-0.0625 0.96875,-0.0625 h 2.0625 C 3.984375,-5.5 3.203125,-4.40625 2.984375,-4.078125 2.078125,-2.734375 1.75,-1.34375 1.75,-0.328125 c 0,0.09375 0,0.546875 0.46875,0.546875 0.453125,0 0.453125,-0.453125 0.453125,-0.546875 V -0.84375 c 0,-0.546875 0.03125,-1.09375 0.109375,-1.625 0.046875,-0.234375 0.171875,-1.09375 0.625,-1.703125 z m 0,0"
         style="stroke:none;stroke-width:0"
         inkscape:connector-curvature="0" />
    </g>
    <g
       id="g1190"
       style="fill:#000000;fill-opacity:1"
       transform="matrix(0.44845903,0,0,0.44845903,-36.256537,24.62901)"
       inkscape:export-xdpi="263.06094"
       inkscape:export-ydpi="263.06094">
      <path
         id="path1188"
         transform="translate(365.03,145.126)"
         d="m 4.578125,-3.1875 c 0,-0.796875 -0.046875,-1.59375 -0.390625,-2.328125 -0.453125,-0.96875 -1.28125,-1.125 -1.6875,-1.125 -0.609375,0 -1.328125,0.265625 -1.75,1.1875 -0.3125,0.6875 -0.359375,1.46875 -0.359375,2.265625 0,0.75 0.03125,1.640625 0.453125,2.40625 0.421875,0.796875 1.15625,1 1.640625,1 0.53125,0 1.296875,-0.203125 1.734375,-1.15625 0.3125,-0.6875 0.359375,-1.46875 0.359375,-2.25 z M 2.484375,0 C 2.09375,0 1.5,-0.25 1.328125,-1.203125 1.21875,-1.796875 1.21875,-2.71875 1.21875,-3.3125 c 0,-0.640625 0,-1.296875 0.078125,-1.828125 0.1875,-1.1875 0.9375,-1.28125 1.1875,-1.28125 0.328125,0 0.984375,0.1875 1.171875,1.171875 0.109375,0.5625 0.109375,1.3125 0.109375,1.9375 0,0.75 0,1.421875 -0.109375,2.0625 C 3.5,-0.296875 2.9375,0 2.484375,0 Z m 0,0"
         style="stroke:none;stroke-width:0"
         inkscape:connector-curvature="0" />
    </g>
    <g
       id="g1194"
       style="fill:#000000;fill-opacity:1"
       transform="matrix(0.44845903,0,0,0.44845903,-36.256537,24.62901)"
       inkscape:export-xdpi="263.06094"
       inkscape:export-ydpi="263.06094">
      <path
         id="path1192"
         transform="translate(370.012,145.126)"
         d="m 1.90625,-0.53125 c 0,-0.28125 -0.234375,-0.53125 -0.515625,-0.53125 -0.296875,0 -0.53125,0.25 -0.53125,0.53125 C 0.859375,-0.234375 1.09375,0 1.390625,0 1.671875,0 1.90625,-0.234375 1.90625,-0.53125 Z m 0,0"
         style="stroke:none;stroke-width:0"
         inkscape:connector-curvature="0" />
    </g>
    <g
       id="g1200"
       style="fill:#000000;fill-opacity:1"
       transform="matrix(0.44845903,0,0,0.44845903,-36.256537,24.62901)"
       inkscape:export-xdpi="263.06094"
       inkscape:export-ydpi="263.06094">
      <path
         id="path1196"
         transform="translate(372.779,145.126)"
         d="m 2.9375,-1.640625 v 0.859375 c 0,0.359375 -0.03125,0.46875 -0.765625,0.46875 H 1.96875 V 0 C 2.375,-0.03125 2.890625,-0.03125 3.3125,-0.03125 c 0.421875,0 0.9375,0 1.359375,0.03125 v -0.3125 h -0.21875 c -0.734375,0 -0.75,-0.109375 -0.75,-0.46875 V -1.640625 H 4.6875 v -0.3125 H 3.703125 v -4.53125 c 0,-0.203125 0,-0.265625 -0.171875,-0.265625 -0.078125,0 -0.109375,0 -0.1875,0.125 l -3.0625,4.671875 v 0.3125 z m 0.046875,-0.3125 H 0.5625 l 2.421875,-3.71875 z m 0,0"
         style="stroke:none;stroke-width:0"
         inkscape:connector-curvature="0" />
      <path
         id="path1198"
         transform="translate(377.7603,145.126)"
         d="m 1.265625,-0.765625 1.0625,-1.03125 c 1.546875,-1.375 2.140625,-1.90625 2.140625,-2.90625 0,-1.140625 -0.890625,-1.9375 -2.109375,-1.9375 -1.125,0 -1.859375,0.921875 -1.859375,1.8125 0,0.546875 0.5,0.546875 0.53125,0.546875 0.171875,0 0.515625,-0.109375 0.515625,-0.53125 0,-0.25 -0.1875,-0.515625 -0.53125,-0.515625 -0.078125,0 -0.09375,0 -0.125,0.015625 0.21875,-0.65625 0.765625,-1.015625 1.34375,-1.015625 0.90625,0 1.328125,0.8125 1.328125,1.625 C 3.5625,-3.90625 3.078125,-3.125 2.515625,-2.5 l -1.90625,2.125 C 0.5,-0.265625 0.5,-0.234375 0.5,0 H 4.203125 L 4.46875,-1.734375 H 4.234375 C 4.171875,-1.4375 4.109375,-1 4,-0.84375 3.9375,-0.765625 3.28125,-0.765625 3.0625,-0.765625 Z m 0,0"
         style="stroke:none;stroke-width:0"
         inkscape:connector-curvature="0" />
    </g>
    <g
       id="g1204"
       style="fill:#000000;fill-opacity:1"
       transform="matrix(0.44845903,0,0,0.44845903,-36.256537,24.62901)"
       inkscape:export-xdpi="263.06094"
       inkscape:export-ydpi="263.06094">
      <path
         id="path1202"
         transform="translate(365.03,157.081)"
         d="m 2.9375,-6.375 c 0,-0.25 0,-0.265625 -0.234375,-0.265625 C 2.078125,-6 1.203125,-6 0.890625,-6 v 0.3125 c 0.203125,0 0.78125,0 1.296875,-0.265625 v 5.171875 c 0,0.359375 -0.03125,0.46875 -0.921875,0.46875 h -0.3125 V 0 c 0.34375,-0.03125 1.203125,-0.03125 1.609375,-0.03125 0.390625,0 1.265625,0 1.609375,0.03125 v -0.3125 h -0.3125 c -0.90625,0 -0.921875,-0.109375 -0.921875,-0.46875 z m 0,0"
         style="stroke:none;stroke-width:0"
         inkscape:connector-curvature="0" />
    </g>
    <g
       id="g1208"
       style="fill:#000000;fill-opacity:1"
       transform="matrix(0.44845903,0,0,0.44845903,-36.256537,24.62901)"
       inkscape:export-xdpi="263.06094"
       inkscape:export-ydpi="263.06094">
      <path
         id="path1206"
         transform="translate(370.012,157.081)"
         d="m 1.90625,-0.53125 c 0,-0.28125 -0.234375,-0.53125 -0.515625,-0.53125 -0.296875,0 -0.53125,0.25 -0.53125,0.53125 C 0.859375,-0.234375 1.09375,0 1.390625,0 1.671875,0 1.90625,-0.234375 1.90625,-0.53125 Z m 0,0"
         style="stroke:none;stroke-width:0"
         inkscape:connector-curvature="0" />
    </g>
    <g
       id="g1214"
       style="fill:#000000;fill-opacity:1"
       transform="matrix(0.44845903,0,0,0.44845903,-36.256537,24.62901)"
       inkscape:export-xdpi="263.06094"
       inkscape:export-ydpi="263.06094">
      <path
         id="path1210"
         transform="translate(372.779,157.081)"
         d="m 2.9375,-6.375 c 0,-0.25 0,-0.265625 -0.234375,-0.265625 C 2.078125,-6 1.203125,-6 0.890625,-6 v 0.3125 c 0.203125,0 0.78125,0 1.296875,-0.265625 v 5.171875 c 0,0.359375 -0.03125,0.46875 -0.921875,0.46875 h -0.3125 V 0 c 0.34375,-0.03125 1.203125,-0.03125 1.609375,-0.03125 0.390625,0 1.265625,0 1.609375,0.03125 v -0.3125 h -0.3125 c -0.90625,0 -0.921875,-0.109375 -0.921875,-0.46875 z m 0,0"
         style="stroke:none;stroke-width:0"
         inkscape:connector-curvature="0" />
      <path
         id="path1212"
         transform="translate(377.7603,157.081)"
         d="m 1.3125,-3.265625 v -0.25 c 0,-2.515625 1.234375,-2.875 1.75,-2.875 0.234375,0 0.65625,0.0625 0.875,0.40625 -0.15625,0 -0.546875,0 -0.546875,0.4375 0,0.3125 0.234375,0.46875 0.453125,0.46875 0.15625,0 0.46875,-0.09375 0.46875,-0.484375 0,-0.59375 -0.4375,-1.078125 -1.265625,-1.078125 -1.28125,0 -2.625,1.28125 -2.625,3.484375 0,2.671875 1.15625,3.375 2.078125,3.375 1.109375,0 2.0625,-0.9375 2.0625,-2.25 0,-1.265625 -0.890625,-2.21875 -2,-2.21875 -0.671875,0 -1.046875,0.5 -1.25,0.984375 z M 2.5,-0.0625 c -0.625,0 -0.921875,-0.59375 -0.984375,-0.75 -0.1875,-0.46875 -0.1875,-1.265625 -0.1875,-1.4375 0,-0.78125 0.328125,-1.78125 1.21875,-1.78125 0.171875,0 0.625,0 0.9375,0.625 0.171875,0.359375 0.171875,0.875 0.171875,1.359375 0,0.484375 0,0.984375 -0.171875,1.34375 C 3.1875,-0.109375 2.734375,-0.0625 2.5,-0.0625 Z m 0,0"
         style="stroke:none;stroke-width:0"
         inkscape:connector-curvature="0" />
    </g>
    <g
       id="g1218"
       style="fill:#000000;fill-opacity:1"
       transform="matrix(0.44845903,0,0,0.44845903,-36.256537,24.62901)"
       inkscape:export-xdpi="263.06094"
       inkscape:export-ydpi="263.06094">
      <path
         id="path1216"
         transform="translate(386.616,125.2)"
         d="M 5.8125,17.140625 C 5.8125,11.0625 4.71875,7.484375 4.421875,6.484375 3.734375,4.265625 2.625,1.9375 0.96875,-0.125 0.8125,-0.296875 0.78125,-0.34375 0.734375,-0.375 c -0.015625,0 -0.03125,-0.015625 -0.1875,-0.015625 -0.140625,0 -0.234375,0 -0.234375,0.09375 0,0.03125 0,0.046875 0.140625,0.234375 3.46875,4.84375 4.234375,10.8125 4.25,17.5625 0,0.140625 0.0625,0.140625 0.28125,0.140625 H 5.53125 c 0.203125,0 0.265625,0 0.28125,-0.109375 z m 0,0"
         style="stroke:none;stroke-width:0"
         inkscape:connector-curvature="0" />
    </g>
    <g
       id="g1222"
       style="fill:#000000;fill-opacity:1"
       transform="matrix(0.44845903,0,0,0.44845903,-36.256537,24.62901)"
       inkscape:export-xdpi="263.06094"
       inkscape:export-ydpi="263.06094">
      <path
         id="path1220"
         transform="translate(386.616,143.133)"
         d="M 5.8125,-0.390625 C 5.796875,-0.5 5.734375,-0.5 5.53125,-0.5 H 4.984375 c -0.21875,0 -0.28125,0 -0.28125,0.140625 0,1.03125 -0.015625,3.40625 -0.265625,5.875 C 3.890625,10.671875 2.578125,14.25 0.390625,17.3125 0.3125,17.390625 0.3125,17.421875 0.3125,17.4375 c 0,0.09375 0.09375,0.09375 0.234375,0.09375 0.15625,0 0.1875,0 0.203125,-0.01563 C 0.78125,17.48438 2.046875,16.03125 3.0625,14.03125 4.375,11.390625 5.203125,8.375 5.578125,4.75 5.609375,4.4375 5.8125,2.359375 5.8125,0 Z m 0,0"
         style="stroke:none;stroke-width:0"
         inkscape:connector-curvature="0" />
    </g>
    <path
       style="opacity:1;fill:none;fill-opacity:1;stroke:#070707;stroke-width:0.239;stroke-linecap:round;stroke-miterlimit:4;stroke-dasharray:none;stroke-dashoffset:0;stroke-opacity:1"
       d="M 56.50744,95.916656 80.130951,116.32737"
       id="path1354"
       inkscape:connector-curvature="0"
       inkscape:export-xdpi="263.06094"
       inkscape:export-ydpi="263.06094" />
  </g>
</svg>
