<?xml version="1.0" encoding="UTF-8" standalone="no"?>
<!-- Created with Inkscape (http://www.inkscape.org/) -->

<svg
   xmlns:ns1="http://www.iki.fi/pav/software/textext/"
   xmlns:dc="http://purl.org/dc/elements/1.1/"
   xmlns:cc="http://creativecommons.org/ns#"
   xmlns:rdf="http://www.w3.org/1999/02/22-rdf-syntax-ns#"
   xmlns:svg="http://www.w3.org/2000/svg"
   xmlns="http://www.w3.org/2000/svg"
   xmlns:sodipodi="http://sodipodi.sourceforge.net/DTD/sodipodi-0.dtd"
   xmlns:inkscape="http://www.inkscape.org/namespaces/inkscape"
   width="210mm"
   height="297mm"
   viewBox="0 0 210 297"
   version="1.1"
   id="svg8"
   inkscape:version="0.92.4 (5da689c313, 2019-01-14)"
   sodipodi:docname="Spring.svg">
  <defs
     id="defs2">
    <marker
       inkscape:stockid="TriangleOutM"
       orient="auto"
       refY="0.0"
       refX="0.0"
       id="TriangleOutM"
       style="overflow:visible"
       inkscape:isstock="true">
      <path
         id="path1050"
         d="M 5.77,0.0 L -2.88,5.0 L -2.88,-5.0 L 5.77,0.0 z "
         style="fill-rule:evenodd;stroke:#050ab3;stroke-width:1pt;stroke-opacity:1;fill:#050ab3;fill-opacity:1"
         transform="scale(0.4)" />
    </marker>
    <marker
       inkscape:stockid="StopL"
       orient="auto"
       refY="0.0"
       refX="0.0"
       id="marker1886"
       style="overflow:visible"
       inkscape:isstock="true">
      <path
         id="path1884"
         d="M 0.0,5.65 L 0.0,-5.65"
         style="fill:none;fill-opacity:0.75;fill-rule:evenodd;stroke:#000000;stroke-width:1pt;stroke-opacity:0.92896178"
         transform="scale(0.8)" />
    </marker>
    <marker
       inkscape:stockid="StopL"
       orient="auto"
       refY="0.0"
       refX="0.0"
       id="marker1852"
       style="overflow:visible"
       inkscape:isstock="true">
      <path
         id="path1850"
         d="M 0.0,5.65 L 0.0,-5.65"
         style="fill:none;fill-opacity:0.75;fill-rule:evenodd;stroke:#000000;stroke-width:1pt;stroke-opacity:0.92896178"
         transform="scale(0.8)" />
    </marker>
    <marker
       inkscape:isstock="true"
       style="overflow:visible"
       id="marker1243"
       refX="0.0"
       refY="0.0"
       orient="auto"
       inkscape:stockid="StopL"
       inkscape:collect="always">
      <path
         transform="scale(0.8)"
         style="fill:none;fill-opacity:0.75;fill-rule:evenodd;stroke:#000000;stroke-width:1pt;stroke-opacity:0.73224045"
         d="M 0.0,5.65 L 0.0,-5.65"
         id="path1241" />
    </marker>
    <marker
       inkscape:isstock="true"
       style="overflow:visible"
       id="marker1221"
       refX="0.0"
       refY="0.0"
       orient="auto"
       inkscape:stockid="StopL"
       inkscape:collect="always">
      <path
         transform="scale(0.8)"
         style="fill:none;fill-opacity:0.75;fill-rule:evenodd;stroke:#000000;stroke-width:1pt;stroke-opacity:0.73224045"
         d="M 0.0,5.65 L 0.0,-5.65"
         id="path1219" />
    </marker>
    <marker
       inkscape:stockid="StopL"
       orient="auto"
       refY="0.0"
       refX="0.0"
       id="StopL"
       style="overflow:visible"
       inkscape:isstock="true"
       inkscape:collect="always">
      <path
         id="path1074"
         d="M 0.0,5.65 L 0.0,-5.65"
         style="fill:none;fill-opacity:0.75;fill-rule:evenodd;stroke:#000000;stroke-width:1pt;stroke-opacity:0.64480878"
         transform="scale(0.8)" />
    </marker>
    <inkscape:path-effect
       is_visible="true"
       id="path-effect901"
       effect="spiro" />
    <inkscape:path-effect
       effect="spiro"
       id="path-effect897"
       is_visible="true" />
    <inkscape:path-effect
       is_visible="true"
       id="path-effect893"
       effect="spiro" />
    <inkscape:path-effect
       effect="spiro"
       id="path-effect889"
       is_visible="true" />
    <inkscape:path-effect
       effect="spiro"
       id="path-effect845"
       is_visible="true" />
    <inkscape:path-effect
       is_visible="true"
       id="path-effect841"
       effect="spiro" />
    <inkscape:path-effect
       effect="spiro"
       id="path-effect837"
       is_visible="true" />
    <inkscape:path-effect
       is_visible="true"
       id="path-effect833"
       effect="spiro" />
    <inkscape:path-effect
       effect="spiro"
       id="path-effect829"
       is_visible="true" />
    <inkscape:path-effect
       is_visible="true"
       id="path-effect825"
       effect="spiro" />
    <inkscape:path-effect
       effect="spiro"
       id="path-effect821"
       is_visible="true" />
    <clipPath
       clipPathUnits="userSpaceOnUse"
       id="clipPath849">
      <path
         style="opacity:1;fill:none;fill-opacity:1;stroke:#727272;stroke-width:0.33045962;stroke-linecap:round;stroke-miterlimit:4;stroke-dasharray:none;stroke-dashoffset:0;stroke-opacity:0.92896178"
         d="m 50.607038,112.4696 0.539694,-4.07586 2.127018,-3.77518 0.984146,-0.16705 1.365103,-0.13363 c 0,0 0.92065,-0.56795 1.047635,-1.20271 0.126987,-0.63477 -2.666712,-4.510183 -3.460375,-4.343133 -0.793665,0.167042 -9.904931,1.403163 -10.031918,1.804073 -0.126988,0.4009 -0.761919,6.98241 -0.317463,8.01808 0.44445,1.03567 3.619106,4.64381 3.809586,4.81085 0.190479,0.16705 2.952431,0.3675 2.952431,0.3675 z"
         id="path851"
         inkscape:connector-curvature="0" />
    </clipPath>
  </defs>
  <sodipodi:namedview
     id="base"
     pagecolor="#ffffff"
     bordercolor="#666666"
     borderopacity="1.0"
     inkscape:pageopacity="0.0"
     inkscape:pageshadow="2"
     inkscape:zoom="3.959798"
     inkscape:cx="270.47069"
     inkscape:cy="700.75183"
     inkscape:document-units="mm"
     inkscape:current-layer="layer1"
     showgrid="false"
     inkscape:snap-global="false"
     inkscape:window-width="1920"
     inkscape:window-height="1001"
     inkscape:window-x="-9"
     inkscape:window-y="-9"
     inkscape:window-maximized="1" />
  <metadata
     id="metadata5">
    <rdf:RDF>
      <cc:Work
         rdf:about="">
        <dc:format>image/svg+xml</dc:format>
        <dc:type
           rdf:resource="http://purl.org/dc/dcmitype/StillImage" />
        <dc:title></dc:title>
      </cc:Work>
    </rdf:RDF>
  </metadata>
  <g
     inkscape:label="Layer 1"
     inkscape:groupmode="layer"
     id="layer1">
    <path
       style="opacity:1;fill:none;fill-opacity:1;stroke:#000000;stroke-width:0.539;stroke-linecap:round;stroke-miterlimit:4;stroke-dasharray:none;stroke-dashoffset:0;stroke-opacity:1"
       d="M 50.51394,98.418739 V 119.53303"
       id="path815"
       inkscape:connector-curvature="0"
       inkscape:export-xdpi="501.85626"
       inkscape:export-ydpi="501.85626" />
    <path
       style="opacity:1;fill:none;fill-opacity:1;stroke:#727272;stroke-width:0.24175217;stroke-linecap:round;stroke-miterlimit:4;stroke-dasharray:none;stroke-dashoffset:0;stroke-opacity:0.92896178"
       d="m 50.648809,112.0279 c -1.40875,-0.18148 -2.719208,-1.01857 -3.476148,-2.22046 -0.75694,-1.2019 -0.945738,-2.74539 -0.500811,-4.0943 0.444928,-1.34891 1.514987,-2.47717 2.83846,-2.99286 1.323473,-0.51569 2.874792,-0.40884 4.115061,0.28344 0.560078,0.31262 1.052544,0.73351 1.511906,1.18117 0.581133,0.56633 1.118605,1.18396 1.535813,1.87994 0.417208,0.69598 0.711955,1.47425 0.786462,2.28227 0.07451,0.80802 -0.08006,1.64661 -0.501368,2.34012 -0.421304,0.69351 -1.119688,1.22893 -1.915407,1.38793 -0.217336,0.0434 -0.440158,0.0593 -0.661458,0.0472"
       id="path819"
       inkscape:connector-curvature="0"
       inkscape:path-effect="#path-effect821"
       inkscape:original-d="m 50.648809,112.0279 c 0.992452,-3.00833 1.984639,-6.01638 2.976562,-9.02418 0.991923,-3.007797 1.008203,0.78718 1.511906,1.18117 0.503703,0.39399 -0.06273,5.25991 -0.0945,7.89026 -0.03176,2.63035 -0.440706,0.0312 -0.661458,0.0472"
       transform="matrix(1.0523558,0,0,1,-2.7618536,1.1339285)"
       inkscape:export-xdpi="501.85626"
       inkscape:export-ydpi="501.85626" />
    <path
       transform="matrix(1.0523558,0,0,1,1.1660749,1.2283785)"
       inkscape:original-d="m 50.648809,112.0279 c 0.992452,-3.00833 1.984639,-6.01638 2.976562,-9.02418 0.991923,-3.007797 1.008203,0.78718 1.511906,1.18117 0.503703,0.39399 -0.06273,5.25991 -0.0945,7.89026 -0.03176,2.63035 -0.440706,0.0312 -0.661458,0.0472"
       inkscape:path-effect="#path-effect825"
       inkscape:connector-curvature="0"
       id="path823"
       d="m 50.648809,112.0279 c -1.40875,-0.18148 -2.719208,-1.01857 -3.476148,-2.22046 -0.75694,-1.2019 -0.945738,-2.74539 -0.500811,-4.0943 0.444928,-1.34891 1.514987,-2.47717 2.83846,-2.99286 1.323473,-0.51569 2.874792,-0.40884 4.115061,0.28344 0.560078,0.31262 1.052544,0.73351 1.511906,1.18117 0.581133,0.56633 1.118605,1.18396 1.535813,1.87994 0.417208,0.69598 0.711955,1.47425 0.786462,2.28227 0.07451,0.80802 -0.08006,1.64661 -0.501368,2.34012 -0.421304,0.69351 -1.119688,1.22893 -1.915407,1.38793 -0.217336,0.0434 -0.440158,0.0593 -0.661458,0.0472"
       style="opacity:1;fill:none;fill-opacity:1;stroke:#727272;stroke-width:0.24175217;stroke-linecap:round;stroke-miterlimit:4;stroke-dasharray:none;stroke-dashoffset:0;stroke-opacity:0.92896178"
       inkscape:export-xdpi="501.85626"
       inkscape:export-ydpi="501.85626" />
    <path
       style="opacity:1;fill:none;fill-opacity:1;stroke:#727272;stroke-width:0.24175217;stroke-linecap:round;stroke-miterlimit:4;stroke-dasharray:none;stroke-dashoffset:0;stroke-opacity:0.92896178"
       d="m 50.648809,112.0279 c -1.40875,-0.18148 -2.719208,-1.01857 -3.476148,-2.22046 -0.75694,-1.2019 -0.945738,-2.74539 -0.500811,-4.0943 0.444928,-1.34891 1.514987,-2.47717 2.83846,-2.99286 1.323473,-0.51569 2.874792,-0.40884 4.115061,0.28344 0.560078,0.31262 1.052544,0.73351 1.511906,1.18117 0.581133,0.56633 1.118605,1.18396 1.535813,1.87994 0.417208,0.69598 0.711955,1.47425 0.786462,2.28227 0.07451,0.80802 -0.08006,1.64661 -0.501368,2.34012 -0.421304,0.69351 -1.119688,1.22893 -1.915407,1.38793 -0.217336,0.0434 -0.440158,0.0593 -0.661458,0.0472"
       id="path827"
       inkscape:connector-curvature="0"
       inkscape:path-effect="#path-effect829"
       inkscape:original-d="m 50.648809,112.0279 c 0.992452,-3.00833 1.984639,-6.01638 2.976562,-9.02418 0.991923,-3.007797 1.008203,0.78718 1.511906,1.18117 0.503703,0.39399 -0.06273,5.25991 -0.0945,7.89026 -0.03176,2.63035 -0.440706,0.0312 -0.661458,0.0472"
       transform="matrix(1.0523558,0,0,1,5.229319,1.2756255)"
       inkscape:export-xdpi="501.85626"
       inkscape:export-ydpi="501.85626" />
    <path
       transform="matrix(1.0523558,0,0,1,8.9710924,1.3424429)"
       inkscape:original-d="m 50.648809,112.0279 c 0.992452,-3.00833 1.984639,-6.01638 2.976562,-9.02418 0.991923,-3.007797 1.008203,0.78718 1.511906,1.18117 0.503703,0.39399 -0.06273,5.25991 -0.0945,7.89026 -0.03176,2.63035 -0.440706,0.0312 -0.661458,0.0472"
       inkscape:path-effect="#path-effect833"
       inkscape:connector-curvature="0"
       id="path831"
       d="m 50.648809,112.0279 c -1.40875,-0.18148 -2.719208,-1.01857 -3.476148,-2.22046 -0.75694,-1.2019 -0.945738,-2.74539 -0.500811,-4.0943 0.444928,-1.34891 1.514987,-2.47717 2.83846,-2.99286 1.323473,-0.51569 2.874792,-0.40884 4.115061,0.28344 0.560078,0.31262 1.052544,0.73351 1.511906,1.18117 0.581133,0.56633 1.118605,1.18396 1.535813,1.87994 0.417208,0.69598 0.711955,1.47425 0.786462,2.28227 0.07451,0.80802 -0.08006,1.64661 -0.501368,2.34012 -0.421304,0.69351 -1.119688,1.22893 -1.915407,1.38793 -0.217336,0.0434 -0.440158,0.0593 -0.661458,0.0472"
       style="opacity:1;fill:none;fill-opacity:1;stroke:#727272;stroke-width:0.24175217;stroke-linecap:round;stroke-miterlimit:4;stroke-dasharray:none;stroke-dashoffset:0;stroke-opacity:0.92896178"
       inkscape:export-xdpi="501.85626"
       inkscape:export-ydpi="501.85626" />
    <path
       style="opacity:1;fill:none;fill-opacity:1;stroke:#727272;stroke-width:0.24175217;stroke-linecap:round;stroke-miterlimit:4;stroke-dasharray:none;stroke-dashoffset:0;stroke-opacity:0.92896178"
       d="m 50.648809,112.0279 c -1.40875,-0.18148 -2.719208,-1.01857 -3.476148,-2.22046 -0.75694,-1.2019 -0.945738,-2.74539 -0.500811,-4.0943 0.444928,-1.34891 1.514987,-2.47717 2.83846,-2.99286 1.323473,-0.51569 2.874792,-0.40884 4.115061,0.28344 0.560078,0.31262 1.052544,0.73351 1.511906,1.18117 0.581133,0.56633 1.118605,1.18396 1.535813,1.87994 0.417208,0.69598 0.711955,1.47425 0.786462,2.28227 0.07451,0.80802 -0.08006,1.64661 -0.501368,2.34012 -0.421304,0.69351 -1.119688,1.22893 -1.915407,1.38793 -0.217336,0.0434 -0.440158,0.0593 -0.661458,0.0472"
       id="path835"
       inkscape:connector-curvature="0"
       inkscape:path-effect="#path-effect837"
       inkscape:original-d="m 50.648809,112.0279 c 0.992452,-3.00833 1.984639,-6.01638 2.976562,-9.02418 0.991923,-3.007797 1.008203,0.78718 1.511906,1.18117 0.503703,0.39399 -0.06273,5.25991 -0.0945,7.89026 -0.03176,2.63035 -0.440706,0.0312 -0.661458,0.0472"
       transform="matrix(1.0523558,0,0,1,12.646048,1.3424429)"
       inkscape:export-xdpi="501.85626"
       inkscape:export-ydpi="501.85626" />
    <path
       transform="matrix(1.0523558,0,0,1,16.567551,1.484184)"
       inkscape:original-d="m 50.648809,112.0279 c 0.992452,-3.00833 1.984639,-6.01638 2.976562,-9.02418 0.991923,-3.007797 1.008203,0.78718 1.511906,1.18117 0.503703,0.39399 -0.06273,5.25991 -0.0945,7.89026 -0.03176,2.63035 -0.440706,0.0312 -0.661458,0.0472"
       inkscape:path-effect="#path-effect841"
       inkscape:connector-curvature="0"
       id="path839"
       d="m 50.648809,112.0279 c -1.40875,-0.18148 -2.719208,-1.01857 -3.476148,-2.22046 -0.75694,-1.2019 -0.945738,-2.74539 -0.500811,-4.0943 0.444928,-1.34891 1.514987,-2.47717 2.83846,-2.99286 1.323473,-0.51569 2.874792,-0.40884 4.115061,0.28344 0.560078,0.31262 1.052544,0.73351 1.511906,1.18117 0.581133,0.56633 1.118605,1.18396 1.535813,1.87994 0.417208,0.69598 0.711955,1.47425 0.786462,2.28227 0.07451,0.80802 -0.08006,1.64661 -0.501368,2.34012 -0.421304,0.69351 -1.119688,1.22893 -1.915407,1.38793 -0.217336,0.0434 -0.440158,0.0593 -0.661458,0.0472"
       style="opacity:1;fill:none;fill-opacity:1;stroke:#727272;stroke-width:0.24175217;stroke-linecap:round;stroke-miterlimit:4;stroke-dasharray:none;stroke-dashoffset:0;stroke-opacity:0.92896178"
       inkscape:export-xdpi="501.85626"
       inkscape:export-ydpi="501.85626" />
    <path
       style="opacity:1;fill:none;fill-opacity:1;stroke:#727272;stroke-width:0.24175217;stroke-linecap:round;stroke-miterlimit:4;stroke-dasharray:none;stroke-dashoffset:0;stroke-opacity:0.92896178"
       d="m 50.648809,112.0279 c -1.40875,-0.18148 -2.719208,-1.01857 -3.476148,-2.22046 -0.75694,-1.2019 -0.945738,-2.74539 -0.500811,-4.0943 0.444928,-1.34891 1.514987,-2.47717 2.83846,-2.99286 1.323473,-0.51569 2.874792,-0.40884 4.115061,0.28344 0.560078,0.31262 1.052544,0.73351 1.511906,1.18117 0.581133,0.56633 1.118605,1.18396 1.535813,1.87994 0.417208,0.69598 0.711955,1.47425 0.786462,2.28227 0.07451,0.80802 -0.08006,1.64661 -0.501368,2.34012 -0.421304,0.69351 -1.119688,1.22893 -1.915407,1.38793 -0.217336,0.0434 -0.440158,0.0593 -0.661458,0.0472"
       id="path843"
       inkscape:connector-curvature="0"
       inkscape:path-effect="#path-effect845"
       inkscape:original-d="m 50.648809,112.0279 c 0.992452,-3.00833 1.984639,-6.01638 2.976562,-9.02418 0.991923,-3.007797 1.008203,0.78718 1.511906,1.18117 0.503703,0.39399 -0.06273,5.25991 -0.0945,7.89026 -0.03176,2.63035 -0.440706,0.0312 -0.661458,0.0472"
       transform="matrix(1.0523558,0,0,1,20.242507,1.5510014)"
       clip-path="url(#clipPath849)"
       inkscape:export-xdpi="501.85626"
       inkscape:export-ydpi="501.85626" />
    <rect
       style="opacity:1;fill:none;fill-opacity:1;stroke:#000000;stroke-width:0.53900003;stroke-linecap:round;stroke-miterlimit:4;stroke-dasharray:none;stroke-dashoffset:0;stroke-opacity:1"
       id="rect817"
       width="7.2760415"
       height="6.614583"
       x="76.754547"
       y="105.98658"
       ry="0.6394847"
       inkscape:export-xdpi="501.85626"
       inkscape:export-ydpi="501.85626" />
    <g
       id="g879"
       ns1:jacobian_sqrt="0.459892"
       ns1:alignment="middle center"
       ns1:scale="1.30363131363"
       ns1:preamble="C:\\Users\\Buster Bie Lundgaard\\AppData\\Roaming\\inkscape\\extensions\\textext\\default_packages.tex"
       ns1:text="$m$"
       ns1:pdfconverter="pdf2svg"
       ns1:texconverter="pdflatex"
       ns1:version="0.11.0"
       transform="matrix(0.40453772,0,0,0.40453772,18.386764,55.775718)"
       inkscape:export-xdpi="501.85626"
       inkscape:export-ydpi="501.85626">
      <g
         id="surface1">
        <g
           id="g876"
           style="fill:#000000;fill-opacity:1">
          <path
             id="path874"
             transform="translate(148.712,134.765)"
             d="m 0.875,-0.59375 c -0.03125,0.15625 -0.09375,0.390625 -0.09375,0.4375 0,0.171875 0.140625,0.265625 0.296875,0.265625 0.125,0 0.296875,-0.078125 0.375,-0.28125 0,-0.015625 0.125,-0.484375 0.1875,-0.734375 l 0.21875,-0.890625 C 1.90625,-2.03125 1.96875,-2.25 2.03125,-2.46875 c 0.03125,-0.171875 0.109375,-0.46875 0.125,-0.5 0.140625,-0.3125 0.671875,-1.21875 1.625,-1.21875 0.453125,0 0.53125,0.375 0.53125,0.703125 0,0.25 -0.0625,0.53125 -0.140625,0.828125 L 3.890625,-1.5 3.6875,-0.75 c -0.03125,0.203125 -0.125,0.546875 -0.125,0.59375 0,0.171875 0.140625,0.265625 0.28125,0.265625 0.3125,0 0.375,-0.25 0.453125,-0.5625 0.140625,-0.5625 0.515625,-2.015625 0.59375,-2.40625 0.03125,-0.125 0.5625,-1.328125 1.65625,-1.328125 0.421875,0 0.53125,0.34375 0.53125,0.703125 0,0.5625 -0.421875,1.703125 -0.625,2.234375 -0.078125,0.234375 -0.125,0.34375 -0.125,0.546875 0,0.46875 0.34375,0.8125 0.8125,0.8125 0.9375,0 1.3125,-1.453125 1.3125,-1.53125 0,-0.109375 -0.09375,-0.109375 -0.125,-0.109375 -0.09375,0 -0.09375,0.03125 -0.140625,0.1875 -0.15625,0.53125 -0.46875,1.234375 -1.015625,1.234375 -0.171875,0 -0.25,-0.09375 -0.25,-0.328125 0,-0.25 0.09375,-0.484375 0.1875,-0.703125 0.1875,-0.53125 0.609375,-1.625 0.609375,-2.203125 0,-0.640625 -0.40625,-1.0625 -1.15625,-1.0625 -0.734375,0 -1.25,0.4375 -1.625,0.96875 0,-0.125 -0.03125,-0.46875 -0.3125,-0.703125 -0.25,-0.21875 -0.5625,-0.265625 -0.8125,-0.265625 -0.90625,0 -1.390625,0.640625 -1.5625,0.875 -0.046875,-0.578125 -0.46875,-0.875 -0.921875,-0.875 -0.453125,0 -0.640625,0.390625 -0.734375,0.5625 -0.171875,0.359375 -0.296875,0.9375 -0.296875,0.96875 0,0.109375 0.09375,0.109375 0.109375,0.109375 0.109375,0 0.109375,-0.015625 0.171875,-0.234375 0.171875,-0.703125 0.375,-1.1875 0.734375,-1.1875 0.15625,0 0.296875,0.078125 0.296875,0.453125 0,0.21875 -0.03125,0.328125 -0.15625,0.84375 z m 0,0"
             style="stroke:none;stroke-width:0"
             inkscape:connector-curvature="0" />
        </g>
      </g>
    </g>
    <path
       style="opacity:1;fill:none;fill-opacity:1;stroke:#000000;stroke-width:0.139;stroke-linecap:round;stroke-miterlimit:4;stroke-dasharray:none;stroke-dashoffset:0;stroke-opacity:0.64480877;marker-start:url(#StopL);marker-end:url(#StopL)"
       d="m 51.449385,116.65988 h 42.02813"
       id="path903"
       inkscape:connector-curvature="0"
       inkscape:export-xdpi="501.85626"
       inkscape:export-ydpi="501.85626" />
    <path
       inkscape:connector-curvature="0"
       id="path1217"
       d="m 84.25672,120.60747 h 9.153978"
       style="opacity:1;fill:none;fill-opacity:1;stroke:#000000;stroke-width:0.139;stroke-linecap:round;stroke-miterlimit:4;stroke-dasharray:none;stroke-dashoffset:0;stroke-opacity:0.73224044;marker-start:url(#marker1221);marker-end:url(#marker1243)"
       sodipodi:nodetypes="cc"
       inkscape:export-xdpi="501.85626"
       inkscape:export-ydpi="501.85626" />
    <g
       id="g1688"
       ns1:jacobian_sqrt="0.459892"
       ns1:alignment="middle center"
       ns1:scale="1.30363131363"
       ns1:preamble="C:\\Users\\Buster Bie Lundgaard\\AppData\\Roaming\\inkscape\\extensions\\textext\\default_packages.tex"
       ns1:text="$L_0$"
       ns1:pdfconverter="pdf2svg"
       ns1:texconverter="pdflatex"
       ns1:version="0.11.0"
       transform="matrix(0.40453772,0,0,0.40453772,9.9135374,65.873892)"
       inkscape:export-xdpi="501.85626"
       inkscape:export-ydpi="501.85626">
      <g
         id="g1686">
        <g
           id="g1680"
           style="fill:#000000;fill-opacity:1">
          <path
             id="path1678"
             transform="translate(148.712,134.765)"
             d="M 3.734375,-6.03125 C 3.8125,-6.390625 3.84375,-6.5 4.78125,-6.5 c 0.296875,0 0.375,0 0.375,-0.1875 0,-0.125 -0.109375,-0.125 -0.15625,-0.125 -0.328125,0 -1.140625,0.03125 -1.46875,0.03125 -0.296875,0 -1.03125,-0.03125 -1.328125,-0.03125 -0.0625,0 -0.1875,0 -0.1875,0.203125 0,0.109375 0.09375,0.109375 0.28125,0.109375 0.015625,0 0.203125,0 0.375,0.015625 0.171875,0.03125 0.265625,0.03125 0.265625,0.171875 0,0.03125 0,0.0625 -0.03125,0.1875 L 1.5625,-0.78125 c -0.09375,0.390625 -0.109375,0.46875 -0.90625,0.46875 -0.171875,0 -0.265625,0 -0.265625,0.203125 C 0.390625,0 0.484375,0 0.65625,0 h 4.625 C 5.515625,0 5.515625,0 5.578125,-0.171875 L 6.375,-2.328125 c 0.03125,-0.109375 0.03125,-0.125 0.03125,-0.140625 0,-0.03125 -0.03125,-0.109375 -0.109375,-0.109375 -0.09375,0 -0.109375,0.0625 -0.171875,0.21875 -0.34375,0.90625 -0.78125,2.046875 -2.5,2.046875 H 2.6875 c -0.140625,0 -0.171875,0 -0.21875,0 -0.109375,-0.015625 -0.140625,-0.03125 -0.140625,-0.109375 0,-0.03125 0,-0.046875 0.046875,-0.21875 z m 0,0"
             style="stroke:none;stroke-width:0"
             inkscape:connector-curvature="0" />
        </g>
        <g
           id="g1684"
           style="fill:#000000;fill-opacity:1">
          <path
             id="path1682"
             transform="translate(155.492,136.259)"
             d="M 3.59375,-2.21875 C 3.59375,-2.984375 3.5,-3.546875 3.1875,-4.03125 2.96875,-4.34375 2.53125,-4.625 1.984375,-4.625 c -1.625,0 -1.625,1.90625 -1.625,2.40625 0,0.5 0,2.359375 1.625,2.359375 1.609375,0 1.609375,-1.859375 1.609375,-2.359375 z M 1.984375,-0.0625 c -0.328125,0 -0.75,-0.1875 -0.890625,-0.75 C 1,-1.21875 1,-1.796875 1,-2.3125 1,-2.828125 1,-3.359375 1.09375,-3.734375 1.25,-4.28125 1.6875,-4.4375 1.984375,-4.4375 c 0.375,0 0.734375,0.234375 0.859375,0.640625 0.109375,0.375 0.125,0.875 0.125,1.484375 0,0.515625 0,1.03125 -0.09375,1.46875 -0.140625,0.640625 -0.609375,0.78125 -0.890625,0.78125 z m 0,0"
             style="stroke:none;stroke-width:0"
             inkscape:connector-curvature="0" />
        </g>
      </g>
    </g>
    <g
       id="g1759"
       ns1:jacobian_sqrt="0.459892"
       ns1:alignment="middle center"
       ns1:scale="1.30363131363"
       ns1:preamble="C:\\Users\\Buster Bie Lundgaard\\AppData\\Roaming\\inkscape\\extensions\\textext\\default_packages.tex"
       ns1:text="$x$"
       ns1:pdfconverter="pdf2svg"
       ns1:texconverter="pdflatex"
       ns1:version="0.11.0"
       transform="matrix(0.40453772,0,0,0.40453772,27.552074,68.717345)"
       inkscape:export-xdpi="501.85626"
       inkscape:export-ydpi="501.85626">
      <g
         id="g1757">
        <g
           id="g1755"
           style="fill:#000000;fill-opacity:1">
          <path
             id="path1753"
             transform="translate(148.712,134.765)"
             d="M 3.328125,-3.015625 C 3.390625,-3.265625 3.625,-4.1875 4.3125,-4.1875 c 0.046875,0 0.296875,0 0.5,0.125 C 4.53125,-4 4.34375,-3.765625 4.34375,-3.515625 c 0,0.15625 0.109375,0.34375 0.375,0.34375 0.21875,0 0.53125,-0.171875 0.53125,-0.578125 0,-0.515625 -0.578125,-0.65625 -0.921875,-0.65625 -0.578125,0 -0.921875,0.53125 -1.046875,0.75 -0.25,-0.65625 -0.78125,-0.75 -1.078125,-0.75 -1.03125,0 -1.609375,1.28125 -1.609375,1.53125 0,0.109375 0.109375,0.109375 0.125,0.109375 0.078125,0 0.109375,-0.03125 0.125,-0.109375 0.34375,-1.0625 1,-1.3125 1.34375,-1.3125 0.1875,0 0.53125,0.09375 0.53125,0.671875 0,0.3125 -0.171875,0.96875 -0.53125,2.375 -0.15625,0.609375 -0.515625,1.03125 -0.953125,1.03125 -0.0625,0 -0.28125,0 -0.5,-0.125 0.25,-0.0625 0.46875,-0.265625 0.46875,-0.546875 0,-0.265625 -0.21875,-0.34375 -0.359375,-0.34375 -0.3125,0 -0.546875,0.25 -0.546875,0.578125 0,0.453125 0.484375,0.65625 0.921875,0.65625 0.671875,0 1.03125,-0.703125 1.046875,-0.75 0.125,0.359375 0.484375,0.75 1.078125,0.75 1.03125,0 1.59375,-1.28125 1.59375,-1.53125 0,-0.109375 -0.078125,-0.109375 -0.109375,-0.109375 -0.09375,0 -0.109375,0.046875 -0.140625,0.109375 -0.328125,1.078125 -1,1.3125 -1.3125,1.3125 -0.390625,0 -0.546875,-0.3125 -0.546875,-0.65625 0,-0.21875 0.046875,-0.4375 0.15625,-0.875 z m 0,0"
             style="stroke:none;stroke-width:0"
             inkscape:connector-curvature="0" />
        </g>
      </g>
    </g>
    <g
       id="g1828"
       ns1:jacobian_sqrt="0.459892"
       ns1:alignment="middle center"
       ns1:scale="1.30363131363"
       ns1:preamble="C:\\Users\\Buster Bie Lundgaard\\AppData\\Roaming\\inkscape\\extensions\\textext\\default_packages.tex"
       ns1:text="$v$"
       ns1:pdfconverter="pdf2svg"
       ns1:texconverter="pdflatex"
       ns1:version="0.11.0"
       transform="matrix(0.40453772,0,0,0.40453772,23.752128,48.818619)"
       inkscape:export-xdpi="501.85626"
       inkscape:export-ydpi="501.85626">
      <g
         id="g1826">
        <g
           id="g1824"
           style="fill:#000000;fill-opacity:1">
          <path
             id="path1822"
             transform="translate(148.712,134.765)"
             d="m 4.671875,-3.703125 c 0,-0.546875 -0.265625,-0.703125 -0.4375,-0.703125 -0.25,0 -0.5,0.265625 -0.5,0.484375 0,0.125 0.046875,0.1875 0.15625,0.296875 0.21875,0.203125 0.34375,0.453125 0.34375,0.8125 0,0.421875 -0.609375,2.703125 -1.765625,2.703125 -0.515625,0 -0.75,-0.34375 -0.75,-0.875 0,-0.546875 0.28125,-1.28125 0.578125,-2.109375 0.078125,-0.171875 0.125,-0.3125 0.125,-0.5 0,-0.4375 -0.3125,-0.8125 -0.8125,-0.8125 -0.9375,0 -1.3125,1.453125 -1.3125,1.53125 0,0.109375 0.09375,0.109375 0.109375,0.109375 0.109375,0 0.109375,-0.03125 0.15625,-0.1875 0.296875,-1 0.71875,-1.234375 1.015625,-1.234375 0.078125,0 0.25,0 0.25,0.3125 0,0.25 -0.109375,0.53125 -0.171875,0.703125 -0.4375,1.15625 -0.5625,1.609375 -0.5625,2.046875 0,1.078125 0.875,1.234375 1.328125,1.234375 1.671875,0 2.25,-3.296875 2.25,-3.8125 z m 0,0"
             style="stroke:none;stroke-width:0"
             inkscape:connector-curvature="0" />
        </g>
      </g>
    </g>
    <path
       sodipodi:nodetypes="cc"
       style="opacity:1;fill:none;fill-opacity:1;stroke:#050ab3;stroke-width:0.23899999;stroke-linecap:round;stroke-miterlimit:4;stroke-dasharray:none;stroke-dashoffset:0;stroke-opacity:1;marker-end:url(#TriangleOutM)"
       d="m 80.314494,104.03676 h 9.153978"
       id="path1848"
       inkscape:connector-curvature="0"
       inkscape:export-xdpi="501.85626"
       inkscape:export-ydpi="501.85626" />
  </g>
</svg>
