<?xml version="1.0" encoding="UTF-8" standalone="no"?>
<!-- Created with Inkscape (http://www.inkscape.org/) -->

<svg
   xmlns:ns1="http://www.iki.fi/pav/software/textext/"
   xmlns:dc="http://purl.org/dc/elements/1.1/"
   xmlns:cc="http://creativecommons.org/ns#"
   xmlns:rdf="http://www.w3.org/1999/02/22-rdf-syntax-ns#"
   xmlns:svg="http://www.w3.org/2000/svg"
   xmlns="http://www.w3.org/2000/svg"
   xmlns:sodipodi="http://sodipodi.sourceforge.net/DTD/sodipodi-0.dtd"
   xmlns:inkscape="http://www.inkscape.org/namespaces/inkscape"
   width="210mm"
   height="297mm"
   viewBox="0 0 210 297"
   version="1.1"
   id="svg8"
   inkscape:version="0.92.4 (5da689c313, 2019-01-14)"
   sodipodi:docname="GitterLigning.svg">
  <defs
     id="defs2">
    <marker
       inkscape:stockid="StopL"
       orient="auto"
       refY="0.0"
       refX="0.0"
       id="marker3245"
       style="overflow:visible"
       inkscape:isstock="true">
      <path
         id="path3243"
         d="M 0.0,5.65 L 0.0,-5.65"
         style="fill:none;fill-opacity:0.75;fill-rule:evenodd;stroke:#000000;stroke-width:1pt;stroke-opacity:1"
         transform="scale(0.8)" />
    </marker>
    <marker
       inkscape:stockid="StopM"
       orient="auto"
       refY="0.0"
       refX="0.0"
       id="StopM"
       style="overflow:visible"
       inkscape:isstock="true">
      <path
         id="path1169"
         d="M 0.0,5.65 L 0.0,-5.65"
         style="fill:none;fill-opacity:0.75;fill-rule:evenodd;stroke:#000000;stroke-width:1pt;stroke-opacity:1"
         transform="scale(0.4)" />
    </marker>
    <marker
       inkscape:stockid="StopL"
       orient="auto"
       refY="0.0"
       refX="0.0"
       id="StopL"
       style="overflow:visible"
       inkscape:isstock="true">
      <path
         id="path1166"
         d="M 0.0,5.65 L 0.0,-5.65"
         style="fill:none;fill-opacity:0.75;fill-rule:evenodd;stroke:#000000;stroke-width:1pt;stroke-opacity:1"
         transform="scale(0.8)" />
    </marker>
    <marker
       inkscape:stockid="TriangleOutL"
       orient="auto"
       refY="0.0"
       refX="0.0"
       id="marker2321"
       style="overflow:visible"
       inkscape:isstock="true">
      <path
         id="path2319"
         d="M 5.77,0.0 L -2.88,5.0 L -2.88,-5.0 L 5.77,0.0 z "
         style="fill-rule:evenodd;stroke:#fff01f;stroke-width:1pt;stroke-opacity:1;fill:#fff01f;fill-opacity:1"
         transform="scale(0.8)" />
    </marker>
    <marker
       inkscape:isstock="true"
       style="overflow:visible"
       id="marker1303"
       refX="0.0"
       refY="0.0"
       orient="auto"
       inkscape:stockid="TriangleOutL"
       inkscape:collect="always">
      <path
         transform="scale(0.8)"
         style="fill-rule:evenodd;stroke:#fff01f;stroke-width:1pt;stroke-opacity:1;fill:#fff01f;fill-opacity:1"
         d="M 5.77,0.0 L -2.88,5.0 L -2.88,-5.0 L 5.77,0.0 z "
         id="path1301" />
    </marker>
    <marker
       inkscape:stockid="TriangleOutL"
       orient="auto"
       refY="0.0"
       refX="0.0"
       id="TriangleOutL"
       style="overflow:visible"
       inkscape:isstock="true"
       inkscape:collect="always">
      <path
         id="path1139"
         d="M 5.77,0.0 L -2.88,5.0 L -2.88,-5.0 L 5.77,0.0 z "
         style="fill-rule:evenodd;stroke:#fff01f;stroke-width:1pt;stroke-opacity:1;fill:#fff01f;fill-opacity:1"
         transform="scale(0.8)" />
    </marker>
    <inkscape:perspective
       sodipodi:type="inkscape:persp3d"
       inkscape:vp_x="-68.153728 : 105.73687 : 1"
       inkscape:vp_y="0 : 1000 : 0"
       inkscape:vp_z="129.55187 : 121.50578 : 1"
       inkscape:persp3d-origin="105 : 99 : 1"
       id="perspective815" />
  </defs>
  <sodipodi:namedview
     id="base"
     pagecolor="#ffffff"
     bordercolor="#666666"
     borderopacity="1.0"
     inkscape:pageopacity="0.0"
     inkscape:pageshadow="2"
     inkscape:zoom="1.979899"
     inkscape:cx="171.31602"
     inkscape:cy="371.22408"
     inkscape:document-units="mm"
     inkscape:current-layer="layer1"
     showgrid="false"
     inkscape:snap-global="false"
     inkscape:window-width="1920"
     inkscape:window-height="1017"
     inkscape:window-x="-8"
     inkscape:window-y="-8"
     inkscape:window-maximized="1" />
  <metadata
     id="metadata5">
    <rdf:RDF>
      <cc:Work
         rdf:about="">
        <dc:format>image/svg+xml</dc:format>
        <dc:type
           rdf:resource="http://purl.org/dc/dcmitype/StillImage" />
        <dc:title />
      </cc:Work>
    </rdf:RDF>
  </metadata>
  <g
     inkscape:label="Layer 1"
     inkscape:groupmode="layer"
     id="layer1">
    <path
       inkscape:connector-curvature="0"
       id="path831"
       style="fill:#353564;fill-opacity:1;fill-rule:evenodd;stroke:none;stroke-width:1.02047241;stroke-linecap:square;stroke-linejoin:round;stroke-miterlimit:4;stroke-dasharray:none;stroke-dashoffset:0;stroke-opacity:1"
       d="m 17.481266,187.22778 v 24.86942 l 6.029206,-1.96918 v -23.53149 z"
       inkscape:export-xdpi="286.47916"
       inkscape:export-ydpi="286.47916" />
    <path
       inkscape:connector-curvature="0"
       id="path833"
       style="fill:#afafde;fill-opacity:1;fill-rule:evenodd;stroke:none;stroke-width:1.02047241;stroke-linecap:square;stroke-linejoin:round;stroke-miterlimit:4;stroke-dasharray:none;stroke-dashoffset:0;stroke-opacity:1"
       d="m 17.481266,212.0972 78.46745,19.09027 3.301524,-5.47188 -75.739768,-15.58757 z"
       inkscape:export-xdpi="286.47916"
       inkscape:export-ydpi="286.47916" />
    <path
       inkscape:connector-curvature="0"
       id="path835"
       style="fill:#e9e9ff;fill-opacity:1;fill-rule:evenodd;stroke:none;stroke-width:1.02047241;stroke-linecap:square;stroke-linejoin:round;stroke-miterlimit:4;stroke-dasharray:none;stroke-dashoffset:0;stroke-opacity:1"
       d="m 23.510472,186.59653 75.739768,-3.85589 v 42.97495 L 23.510472,210.12802 Z"
       inkscape:export-xdpi="286.47916"
       inkscape:export-ydpi="286.47916" />
    <path
       inkscape:connector-curvature="0"
       id="path837"
       style="fill:#767676;fill-opacity:1;fill-rule:evenodd;stroke:none;stroke-width:1.02047241;stroke-linecap:square;stroke-linejoin:round;stroke-miterlimit:4;stroke-dasharray:none;stroke-dashoffset:0;stroke-opacity:1"
       d="m 17.481266,187.22778 78.46745,-3.6976 3.301524,-0.78954 -75.739768,3.85589 z"
       inkscape:export-xdpi="286.47916"
       inkscape:export-ydpi="286.47916" />
    <path
       inkscape:connector-curvature="0"
       id="path839"
       style="fill:#ebebeb;fill-opacity:1;fill-rule:evenodd;stroke:none;stroke-width:1.02047241;stroke-linecap:square;stroke-linejoin:round;stroke-miterlimit:4;stroke-dasharray:none;stroke-dashoffset:0;stroke-opacity:1"
       d="m 95.948716,183.53018 v 47.65729 l 3.301524,-5.47188 v -42.97495 z"
       inkscape:export-xdpi="286.47916"
       inkscape:export-ydpi="286.47916" />
    <path
       inkscape:connector-curvature="0"
       id="path841"
       style="fill:#a3a3a3;fill-opacity:1;fill-rule:evenodd;stroke:none;stroke-width:1.02047241;stroke-linecap:square;stroke-linejoin:round;stroke-miterlimit:4;stroke-dasharray:none;stroke-dashoffset:0;stroke-opacity:1"
       d="m 17.481266,187.22778 78.46745,-3.6976 v 47.65729 L 17.481266,212.0972 Z"
       inkscape:export-xdpi="286.47916"
       inkscape:export-ydpi="286.47916" />
    <path
       style="opacity:0.45;fill:#5234b8;fill-opacity:1;stroke:#000000;stroke-width:0.27000001;stroke-linecap:square;stroke-miterlimit:4;stroke-dasharray:none;stroke-dashoffset:0;stroke-opacity:1"
       d="m -7.2349341,205.24549 0,13.41605"
       id="path853"
       inkscape:connector-curvature="0"
       sodipodi:nodetypes="cc"
       inkscape:export-xdpi="286.47916"
       inkscape:export-ydpi="286.47916" />
    <path
       inkscape:connector-curvature="0"
       id="path855"
       d="m 2.3089647,207.13537 v 14.83346"
       style="opacity:0.45;fill:#5234b8;fill-opacity:1;stroke:#000000;stroke-width:0.27000001;stroke-linecap:square;stroke-miterlimit:4;stroke-dasharray:none;stroke-dashoffset:0;stroke-opacity:1"
       inkscape:export-xdpi="286.47916"
       inkscape:export-ydpi="286.47916" />
    <path
       inkscape:connector-curvature="0"
       id="path861"
       d="m -6.1482526,205.33999 v 13.69954"
       style="opacity:0.45;fill:#5234b8;fill-opacity:1;stroke:#000000;stroke-width:0.27000001;stroke-linecap:square;stroke-miterlimit:4;stroke-dasharray:none;stroke-dashoffset:0;stroke-opacity:1"
       sodipodi:nodetypes="cc"
       inkscape:export-xdpi="286.47916"
       inkscape:export-ydpi="286.47916" />
    <path
       style="opacity:0.45;fill:#5234b8;fill-opacity:1;stroke:#000000;stroke-width:0.27000001;stroke-linecap:square;stroke-miterlimit:4;stroke-dasharray:none;stroke-dashoffset:0;stroke-opacity:1"
       d="m -5.0899192,205.48174 v 13.84127"
       id="path873"
       inkscape:connector-curvature="0"
       sodipodi:nodetypes="cc"
       inkscape:export-xdpi="286.47916"
       inkscape:export-ydpi="286.47916" />
    <path
       inkscape:connector-curvature="0"
       id="path877"
       d="m -4.0315858,205.57623 v 14.03026"
       style="opacity:0.45;fill:#5234b8;fill-opacity:1;stroke:#000000;stroke-width:0.27000001;stroke-linecap:square;stroke-miterlimit:4;stroke-dasharray:none;stroke-dashoffset:0;stroke-opacity:1"
       sodipodi:nodetypes="cc"
       inkscape:export-xdpi="286.47916"
       inkscape:export-ydpi="286.47916" />
    <path
       style="opacity:0.45;fill:#5234b8;fill-opacity:1;stroke:#000000;stroke-width:0.27000001;stroke-linecap:square;stroke-miterlimit:4;stroke-dasharray:none;stroke-dashoffset:0;stroke-opacity:1"
       d="m -2.9732524,205.71797 v 14.36099"
       id="path881"
       inkscape:connector-curvature="0"
       sodipodi:nodetypes="cc"
       inkscape:export-xdpi="286.47916"
       inkscape:export-ydpi="286.47916" />
    <path
       inkscape:connector-curvature="0"
       id="path885"
       d="m -1.914919,205.76522 0,14.64447"
       style="opacity:0.45;fill:#5234b8;fill-opacity:1;stroke:#000000;stroke-width:0.27000001;stroke-linecap:square;stroke-miterlimit:4;stroke-dasharray:none;stroke-dashoffset:0;stroke-opacity:1"
       sodipodi:nodetypes="cc"
       inkscape:export-xdpi="286.47916"
       inkscape:export-ydpi="286.47916" />
    <path
       style="opacity:0.45;fill:#5234b8;fill-opacity:1;stroke:#000000;stroke-width:0.27000001;stroke-linecap:square;stroke-miterlimit:4;stroke-dasharray:none;stroke-dashoffset:0;stroke-opacity:1"
       d="m -0.85658563,205.90696 0,14.9752"
       id="path889"
       inkscape:connector-curvature="0"
       sodipodi:nodetypes="cc"
       inkscape:export-xdpi="286.47916"
       inkscape:export-ydpi="286.47916" />
    <path
       inkscape:connector-curvature="0"
       id="path893"
       d="m 0.20174771,205.95421 0,15.25868"
       style="opacity:0.45;fill:#5234b8;fill-opacity:1;stroke:#000000;stroke-width:0.27000001;stroke-linecap:square;stroke-miterlimit:4;stroke-dasharray:none;stroke-dashoffset:0;stroke-opacity:1"
       sodipodi:nodetypes="cc"
       inkscape:export-xdpi="286.47916"
       inkscape:export-ydpi="286.47916" />
    <path
       style="opacity:0.45;fill:#5234b8;fill-opacity:1;stroke:#000000;stroke-width:0.27000001;stroke-linecap:square;stroke-miterlimit:4;stroke-dasharray:none;stroke-dashoffset:0;stroke-opacity:1"
       d="m 1.260081,206.0487 0,15.63666"
       id="path897"
       inkscape:connector-curvature="0"
       sodipodi:nodetypes="cc"
       inkscape:export-xdpi="286.47916"
       inkscape:export-ydpi="286.47916" />
    <path
       inkscape:connector-curvature="0"
       id="path901"
       d="m 2.3184144,206.09595 0,13.51054"
       style="opacity:0.45;fill:#5234b8;fill-opacity:1;stroke:#000000;stroke-width:0.27000001;stroke-linecap:square;stroke-miterlimit:4;stroke-dasharray:none;stroke-dashoffset:0;stroke-opacity:1"
       sodipodi:nodetypes="cc"
       inkscape:export-xdpi="286.47916"
       inkscape:export-ydpi="286.47916" />
    <path
       style="opacity:0.45;fill:#5234b8;fill-opacity:1;stroke:#000000;stroke-width:0.27000001;stroke-linecap:square;stroke-miterlimit:4;stroke-dasharray:none;stroke-dashoffset:0;stroke-opacity:1"
       d="m 3.3767478,206.23769 0,16.10913"
       id="path905"
       inkscape:connector-curvature="0"
       sodipodi:nodetypes="cc"
       inkscape:export-xdpi="286.47916"
       inkscape:export-ydpi="286.47916" />
    <path
       inkscape:connector-curvature="0"
       id="path909"
       d="m 4.4350812,206.33218 0,16.34537"
       style="opacity:0.45;fill:#5234b8;fill-opacity:1;stroke:#000000;stroke-width:0.27000001;stroke-linecap:square;stroke-miterlimit:4;stroke-dasharray:none;stroke-dashoffset:0;stroke-opacity:1"
       sodipodi:nodetypes="cc"
       inkscape:export-xdpi="286.47916"
       inkscape:export-ydpi="286.47916" />
    <path
       style="opacity:0.45;fill:#5234b8;fill-opacity:1;stroke:#000000;stroke-width:0.27000001;stroke-linecap:square;stroke-miterlimit:4;stroke-dasharray:none;stroke-dashoffset:0;stroke-opacity:1"
       d="m 5.4934146,206.37943 0,16.72334"
       id="path913"
       inkscape:connector-curvature="0"
       sodipodi:nodetypes="cc"
       inkscape:export-xdpi="286.47916"
       inkscape:export-ydpi="286.47916" />
    <path
       inkscape:connector-curvature="0"
       id="path917"
       d="m 6.551748,206.47392 0,17.00683"
       style="opacity:0.45;fill:#5234b8;fill-opacity:1;stroke:#000000;stroke-width:0.27000001;stroke-linecap:square;stroke-miterlimit:4;stroke-dasharray:none;stroke-dashoffset:0;stroke-opacity:1"
       sodipodi:nodetypes="cc"
       inkscape:export-xdpi="286.47916"
       inkscape:export-ydpi="286.47916" />
    <path
       style="opacity:0.45;fill:#5234b8;fill-opacity:1;stroke:#000000;stroke-width:0.27000001;stroke-linecap:square;stroke-miterlimit:4;stroke-dasharray:none;stroke-dashoffset:0;stroke-opacity:1"
       d="m 7.6100814,206.52117 0,17.3848"
       id="path921"
       inkscape:connector-curvature="0"
       sodipodi:nodetypes="cc"
       inkscape:export-xdpi="286.47916"
       inkscape:export-ydpi="286.47916" />
    <path
       inkscape:connector-curvature="0"
       id="path925"
       d="m 8.6684148,206.66291 0,17.66828"
       style="opacity:0.45;fill:#5234b8;fill-opacity:1;stroke:#000000;stroke-width:0.27000001;stroke-linecap:square;stroke-miterlimit:4;stroke-dasharray:none;stroke-dashoffset:0;stroke-opacity:1"
       sodipodi:nodetypes="cc"
       inkscape:export-xdpi="286.47916"
       inkscape:export-ydpi="286.47916" />
    <path
       style="opacity:1;fill:none;fill-opacity:1;stroke:#fff01f;stroke-width:0.17;stroke-linecap:square;stroke-miterlimit:4;stroke-dasharray:none;stroke-dashoffset:0;stroke-opacity:1;marker-end:url(#marker2321)"
       d="M 9.6383932,214.79018 75.299676,203.59321"
       id="path2317"
       inkscape:connector-curvature="0"
       sodipodi:nodetypes="cc"
       inkscape:export-xdpi="286.47916"
       inkscape:export-ydpi="286.47916" />
    <path
       style="opacity:0.45;fill:#5234b8;fill-opacity:1;stroke:#000000;stroke-width:0.27000001;stroke-linecap:square;stroke-miterlimit:4;stroke-dasharray:none;stroke-dashoffset:0;stroke-opacity:1"
       d="m 9.7267482,206.75741 0,18.04625"
       id="path929"
       inkscape:connector-curvature="0"
       sodipodi:nodetypes="cc"
       inkscape:export-xdpi="286.47916"
       inkscape:export-ydpi="286.47916" />
    <path
       inkscape:connector-curvature="0"
       id="path933"
       d="m 10.785082,206.94639 0,18.188"
       style="opacity:0.45;fill:#5234b8;fill-opacity:1;stroke:#000000;stroke-width:0.27000001;stroke-linecap:square;stroke-miterlimit:4;stroke-dasharray:none;stroke-dashoffset:0;stroke-opacity:1"
       sodipodi:nodetypes="cc"
       inkscape:export-xdpi="286.47916"
       inkscape:export-ydpi="286.47916" />
    <path
       style="opacity:0.45;fill:#5234b8;fill-opacity:1;stroke:#000000;stroke-width:0.27000001;stroke-linecap:square;stroke-miterlimit:4;stroke-dasharray:none;stroke-dashoffset:0;stroke-opacity:1"
       d="m 11.843416,207.04089 0,18.47148"
       id="path937"
       inkscape:connector-curvature="0"
       sodipodi:nodetypes="cc"
       inkscape:export-xdpi="286.47916"
       inkscape:export-ydpi="286.47916" />
    <path
       inkscape:connector-curvature="0"
       id="path941"
       d="m 12.90175,207.18263 0,18.56597"
       style="opacity:0.45;fill:#5234b8;fill-opacity:1;stroke:#000000;stroke-width:0.27000001;stroke-linecap:square;stroke-miterlimit:4;stroke-dasharray:none;stroke-dashoffset:0;stroke-opacity:1"
       sodipodi:nodetypes="cc"
       inkscape:export-xdpi="286.47916"
       inkscape:export-ydpi="286.47916" />
    <path
       style="opacity:0.45;fill:#5234b8;fill-opacity:1;stroke:#000000;stroke-width:0.27000001;stroke-linecap:square;stroke-miterlimit:4;stroke-dasharray:none;stroke-dashoffset:0;stroke-opacity:1"
       d="m 13.960084,206.94639 0,19.13294"
       id="path945"
       inkscape:connector-curvature="0"
       sodipodi:nodetypes="cc"
       inkscape:export-xdpi="286.47916"
       inkscape:export-ydpi="286.47916" />
    <path
       inkscape:connector-curvature="0"
       id="path949"
       d="m 15.018418,207.22988 0,19.36917"
       style="opacity:0.45;fill:#5234b8;fill-opacity:1;stroke:#000000;stroke-width:0.27000001;stroke-linecap:square;stroke-miterlimit:4;stroke-dasharray:none;stroke-dashoffset:0;stroke-opacity:1"
       sodipodi:nodetypes="cc"
       inkscape:export-xdpi="286.47916"
       inkscape:export-ydpi="286.47916" />
    <path
       style="opacity:0.45;fill:#5234b8;fill-opacity:1;stroke:#000000;stroke-width:0.27000001;stroke-linecap:square;stroke-miterlimit:4;stroke-dasharray:none;stroke-dashoffset:0;stroke-opacity:1"
       d="m 16.076752,207.37162 0,19.65265"
       id="path953"
       inkscape:connector-curvature="0"
       sodipodi:nodetypes="cc"
       inkscape:export-xdpi="286.47916"
       inkscape:export-ydpi="286.47916" />
    <path
       inkscape:connector-curvature="0"
       id="path957"
       d="m 17.135086,207.41886 0,19.7944"
       style="opacity:0.45;fill:#5234b8;fill-opacity:1;stroke:#000000;stroke-width:0.27000001;stroke-linecap:square;stroke-miterlimit:4;stroke-dasharray:none;stroke-dashoffset:0;stroke-opacity:1"
       sodipodi:nodetypes="cc"
       inkscape:export-xdpi="286.47916"
       inkscape:export-ydpi="286.47916" />
    <path
       style="opacity:0.45;fill:#5234b8;fill-opacity:1;stroke:#000000;stroke-width:0.27000001;stroke-linecap:square;stroke-miterlimit:4;stroke-dasharray:none;stroke-dashoffset:0;stroke-opacity:1"
       d="m 18.19342,207.60785 0,19.98339"
       id="path961"
       inkscape:connector-curvature="0"
       sodipodi:nodetypes="cc"
       inkscape:export-xdpi="286.47916"
       inkscape:export-ydpi="286.47916" />
    <path
       inkscape:connector-curvature="0"
       id="path965"
       d="m 19.251754,207.5606 0,20.50311"
       style="opacity:0.45;fill:#5234b8;fill-opacity:1;stroke:#000000;stroke-width:0.27000001;stroke-linecap:square;stroke-miterlimit:4;stroke-dasharray:none;stroke-dashoffset:0;stroke-opacity:1"
       sodipodi:nodetypes="cc"
       inkscape:export-xdpi="286.47916"
       inkscape:export-ydpi="286.47916" />
    <path
       style="opacity:0.45;fill:#5234b8;fill-opacity:1;stroke:#000000;stroke-width:0.27000001;stroke-linecap:square;stroke-miterlimit:4;stroke-dasharray:none;stroke-dashoffset:0;stroke-opacity:1"
       d="m 20.310088,207.60785 0,20.83383"
       id="path969"
       inkscape:connector-curvature="0"
       sodipodi:nodetypes="cc"
       inkscape:export-xdpi="286.47916"
       inkscape:export-ydpi="286.47916" />
    <path
       inkscape:connector-curvature="0"
       id="path973"
       d="m 21.368422,207.74959 0,21.07007"
       style="opacity:0.45;fill:#5234b8;fill-opacity:1;stroke:#000000;stroke-width:0.27000001;stroke-linecap:square;stroke-miterlimit:4;stroke-dasharray:none;stroke-dashoffset:0;stroke-opacity:1"
       sodipodi:nodetypes="cc"
       inkscape:export-xdpi="286.47916"
       inkscape:export-ydpi="286.47916" />
    <path
       style="opacity:0.45;fill:#5234b8;fill-opacity:1;stroke:#000000;stroke-width:0.27000001;stroke-linecap:square;stroke-miterlimit:4;stroke-dasharray:none;stroke-dashoffset:0;stroke-opacity:1"
       d="m 22.426756,207.93858 0,21.25906"
       id="path977"
       inkscape:connector-curvature="0"
       sodipodi:nodetypes="cc"
       inkscape:export-xdpi="286.47916"
       inkscape:export-ydpi="286.47916" />
    <path
       inkscape:connector-curvature="0"
       id="path981"
       d="m 23.48509,208.03307 0,21.58979"
       style="opacity:0.45;fill:#5234b8;fill-opacity:1;stroke:#000000;stroke-width:0.27000001;stroke-linecap:square;stroke-miterlimit:4;stroke-dasharray:none;stroke-dashoffset:0;stroke-opacity:1"
       sodipodi:nodetypes="cc"
       inkscape:export-xdpi="286.47916"
       inkscape:export-ydpi="286.47916" />
    <path
       style="opacity:0.45;fill:#5234b8;fill-opacity:1;stroke:#000000;stroke-width:0.27000001;stroke-linecap:square;stroke-miterlimit:4;stroke-dasharray:none;stroke-dashoffset:0;stroke-opacity:1"
       d="m 24.543424,208.03307 0,21.96777"
       id="path985"
       inkscape:connector-curvature="0"
       sodipodi:nodetypes="cc"
       inkscape:export-xdpi="286.47916"
       inkscape:export-ydpi="286.47916" />
    <path
       inkscape:connector-curvature="0"
       id="path989"
       d="m 25.601758,208.22206 0,22.06226"
       style="opacity:0.45;fill:#5234b8;fill-opacity:1;stroke:#000000;stroke-width:0.27000001;stroke-linecap:square;stroke-miterlimit:4;stroke-dasharray:none;stroke-dashoffset:0;stroke-opacity:1"
       sodipodi:nodetypes="cc"
       inkscape:export-xdpi="286.47916"
       inkscape:export-ydpi="286.47916" />
    <path
       style="opacity:0.45;fill:#5234b8;fill-opacity:1;stroke:#000000;stroke-width:0.27000001;stroke-linecap:square;stroke-miterlimit:4;stroke-dasharray:none;stroke-dashoffset:0;stroke-opacity:1"
       d="m 26.660092,208.26931 0,22.39298"
       id="path993"
       inkscape:connector-curvature="0"
       sodipodi:nodetypes="cc"
       inkscape:export-xdpi="286.47916"
       inkscape:export-ydpi="286.47916" />
    <path
       style="opacity:0.45;fill:none;fill-opacity:1;stroke:#000000;stroke-width:0.26999998;stroke-linecap:square;stroke-miterlimit:4;stroke-dasharray:none;stroke-dashoffset:0;stroke-opacity:1"
       d="m 17.386905,198.82068 78.335563,5.57515"
       id="path1291"
       inkscape:connector-curvature="0"
       inkscape:export-xdpi="286.47916"
       inkscape:export-ydpi="286.47916" />
    <ellipse
       style="opacity:1;fill:#b83434;fill-opacity:1;stroke:none;stroke-width:0.17;stroke-linecap:square;stroke-miterlimit:4;stroke-dasharray:none;stroke-dashoffset:0;stroke-opacity:1"
       id="path2109"
       cx="51.164005"
       cy="201.09032"
       rx="0.69689357"
       ry="0.73116779"
       inkscape:export-xdpi="286.47916"
       inkscape:export-ydpi="286.47916" />
    <path
       sodipodi:nodetypes="cc"
       inkscape:connector-curvature="0"
       id="path1299"
       d="M 9.6383932,214.79018 50.17634,201.65551"
       style="opacity:1;fill:none;fill-opacity:1;stroke:#fff01f;stroke-width:0.17;stroke-linecap:square;stroke-miterlimit:4;stroke-dasharray:none;stroke-dashoffset:0;stroke-opacity:1;marker-end:url(#marker1303)"
       inkscape:export-xdpi="286.47916"
       inkscape:export-ydpi="286.47916" />
    <path
       style="opacity:0.45;fill:#5234b8;fill-opacity:1;stroke:#422994;stroke-width:0.37;stroke-linecap:square;stroke-miterlimit:4;stroke-dasharray:none;stroke-dashoffset:0;stroke-opacity:1"
       d="m -8.1517205,204.12384 35.9477495,2.93995 10e-7,25.79152 -35.9477506,-13.36348 z"
       id="path851"
       inkscape:connector-curvature="0"
       sodipodi:nodetypes="ccccc"
       inkscape:export-xdpi="286.47916"
       inkscape:export-ydpi="286.47916" />
    <path
       style="opacity:1;fill:none;fill-opacity:1;stroke:#fff01f;stroke-width:0.27;stroke-linecap:square;stroke-miterlimit:4;stroke-dasharray:none;stroke-dashoffset:0;stroke-opacity:1;marker-end:url(#TriangleOutL)"
       d="M -14.457589,214.79018 H 7.4650297"
       id="path995"
       inkscape:connector-curvature="0"
       sodipodi:nodetypes="cc"
       inkscape:export-xdpi="286.47916"
       inkscape:export-ydpi="286.47916" />
    <ellipse
       ry="0.73116779"
       rx="0.69689357"
       cy="200.69179"
       cx="44.482265"
       id="ellipse2243"
       style="opacity:1;fill:#b83434;fill-opacity:1;stroke:none;stroke-width:0.17;stroke-linecap:square;stroke-miterlimit:4;stroke-dasharray:none;stroke-dashoffset:0;stroke-opacity:1"
       inkscape:export-xdpi="286.47916"
       inkscape:export-ydpi="286.47916" />
    <ellipse
       style="opacity:1;fill:#b83434;fill-opacity:1;stroke:none;stroke-width:0.17;stroke-linecap:square;stroke-miterlimit:4;stroke-dasharray:none;stroke-dashoffset:0;stroke-opacity:1"
       id="ellipse2293"
       cx="39.237846"
       cy="200.21931"
       rx="0.69689357"
       ry="0.73116779"
       inkscape:export-xdpi="286.47916"
       inkscape:export-ydpi="286.47916" />
    <ellipse
       ry="0.73116779"
       rx="0.69689357"
       cy="199.93584"
       cx="34.276909"
       id="ellipse2295"
       style="opacity:1;fill:#b83434;fill-opacity:1;stroke:none;stroke-width:0.17;stroke-linecap:square;stroke-miterlimit:4;stroke-dasharray:none;stroke-dashoffset:0;stroke-opacity:1"
       inkscape:export-xdpi="286.47916"
       inkscape:export-ydpi="286.47916" />
    <ellipse
       style="opacity:1;fill:#b83434;fill-opacity:1;stroke:none;stroke-width:0.17;stroke-linecap:square;stroke-miterlimit:4;stroke-dasharray:none;stroke-dashoffset:0;stroke-opacity:1"
       id="ellipse2297"
       cx="29.882936"
       cy="199.60512"
       rx="0.69689357"
       ry="0.73116779"
       inkscape:export-xdpi="286.47916"
       inkscape:export-ydpi="286.47916" />
    <ellipse
       ry="0.73116779"
       rx="0.69689357"
       cy="199.32164"
       cx="25.536209"
       id="ellipse2299"
       style="opacity:1;fill:#b83434;fill-opacity:1;stroke:none;stroke-width:0.17;stroke-linecap:square;stroke-miterlimit:4;stroke-dasharray:none;stroke-dashoffset:0;stroke-opacity:1"
       inkscape:export-xdpi="286.47916"
       inkscape:export-ydpi="286.47916" />
    <ellipse
       style="opacity:1;fill:#b83434;fill-opacity:1;stroke:none;stroke-width:0.17;stroke-linecap:square;stroke-miterlimit:4;stroke-dasharray:none;stroke-dashoffset:0;stroke-opacity:1"
       id="ellipse2301"
       cx="21.472965"
       cy="198.99091"
       rx="0.69689357"
       ry="0.73116779"
       inkscape:export-xdpi="286.47916"
       inkscape:export-ydpi="286.47916" />
    <ellipse
       style="opacity:1;fill:#b83434;fill-opacity:1;stroke:none;stroke-width:0.17;stroke-linecap:square;stroke-miterlimit:4;stroke-dasharray:none;stroke-dashoffset:0;stroke-opacity:1"
       id="ellipse2303"
       cx="58.278397"
       cy="201.73122"
       rx="0.69689357"
       ry="0.73116779"
       inkscape:export-xdpi="286.47916"
       inkscape:export-ydpi="286.47916" />
    <ellipse
       ry="0.73116779"
       rx="0.69689357"
       cy="202.25093"
       cx="66.735611"
       id="ellipse2305"
       style="opacity:1;fill:#b83434;fill-opacity:1;stroke:none;stroke-width:0.17;stroke-linecap:square;stroke-miterlimit:4;stroke-dasharray:none;stroke-dashoffset:0;stroke-opacity:1"
       inkscape:export-xdpi="286.47916"
       inkscape:export-ydpi="286.47916" />
    <ellipse
       style="opacity:1;fill:#b83434;fill-opacity:1;stroke:none;stroke-width:0.17;stroke-linecap:square;stroke-miterlimit:4;stroke-dasharray:none;stroke-dashoffset:0;stroke-opacity:1"
       id="ellipse2307"
       cx="76.421249"
       cy="203.00688"
       rx="0.69689357"
       ry="0.73116779"
       inkscape:export-xdpi="286.47916"
       inkscape:export-ydpi="286.47916" />
    <ellipse
       ry="0.73116779"
       rx="0.69689357"
       cy="203.74187"
       cx="88.314743"
       id="ellipse2309"
       style="opacity:1;fill:#b83434;fill-opacity:1;stroke:none;stroke-width:0.17;stroke-linecap:square;stroke-miterlimit:4;stroke-dasharray:none;stroke-dashoffset:0;stroke-opacity:1"
       inkscape:export-xdpi="286.47916"
       inkscape:export-ydpi="286.47916" />
    <path
       style="opacity:1;fill:none;fill-opacity:1;stroke:#00f921;stroke-width:0.17000002;stroke-linecap:square;stroke-miterlimit:4;stroke-dasharray:none;stroke-dashoffset:0;stroke-opacity:1"
       id="path2857"
       sodipodi:type="arc"
       sodipodi:cx="30.126274"
       sodipodi:cy="211.4866"
       sodipodi:rx="3.5779595"
       sodipodi:ry="3.4398251"
       sodipodi:start="4.9549428"
       sodipodi:end="5.9887386"
       sodipodi:open="true"
       d="m 30.985637,208.14747 a 3.5779595,3.4398251 0 0 1 2.564612,2.34086"
       inkscape:export-xdpi="286.47916"
       inkscape:export-ydpi="286.47916" />
    <path
       style="opacity:1;fill:none;fill-opacity:1;stroke:#000000;stroke-width:0.085;stroke-linecap:square;stroke-miterlimit:4;stroke-dasharray:none;stroke-dashoffset:0;stroke-opacity:1"
       d="M 51.215772,199.95461 V 177.37053"
       id="path2859"
       inkscape:connector-curvature="0"
       inkscape:export-xdpi="286.47916"
       inkscape:export-ydpi="286.47916" />
    <path
       inkscape:connector-curvature="0"
       id="path2861"
       d="m 58.302826,200.61607 0,-24.47396"
       style="opacity:1;fill:none;fill-opacity:1;stroke:#000000;stroke-width:0.085;stroke-linecap:square;stroke-miterlimit:4;stroke-dasharray:none;stroke-dashoffset:0;stroke-opacity:1"
       sodipodi:nodetypes="cc"
       inkscape:export-xdpi="286.47916"
       inkscape:export-ydpi="286.47916" />
    <path
       inkscape:connector-curvature="0"
       id="path2865"
       d="m 76.540177,201.93899 0,-27.30878"
       style="opacity:1;fill:none;fill-opacity:1;stroke:#000000;stroke-width:0.085;stroke-linecap:square;stroke-miterlimit:4;stroke-dasharray:none;stroke-dashoffset:0;stroke-opacity:1"
       sodipodi:nodetypes="cc"
       inkscape:export-xdpi="286.47916"
       inkscape:export-ydpi="286.47916" />
    <g
       id="g2943"
       ns1:jacobian_sqrt="0.385029"
       ns1:alignment="middle center"
       ns1:scale="1.09142033726"
       ns1:preamble="C:\\Users\\Buster\\AppData\\Roaming\\inkscape\\extensions\\textext\\default_packages.tex"
       ns1:text="$n$"
       ns1:pdfconverter="pdf2svg"
       ns1:texconverter="pdflatex"
       ns1:version="0.11.0"
       transform="matrix(0.31212612,0,0,0.31212612,29.254045,131.8207)"
       style="stroke-width:1.23356867"
       inkscape:export-xdpi="286.47916"
       inkscape:export-ydpi="286.47916">
      <g
         id="surface1"
         style="stroke-width:1.23356867">
        <g
           id="g2940"
           style="fill:#000000;fill-opacity:1;stroke-width:1.23356867">
          <path
             id="path2938"
             transform="translate(148.712,134.765)"
             d="m 0.875,-0.59375 c -0.03125,0.15625 -0.09375,0.390625 -0.09375,0.4375 0,0.171875 0.140625,0.265625 0.296875,0.265625 0.125,0 0.296875,-0.078125 0.375,-0.28125 0,-0.015625 0.125,-0.484375 0.1875,-0.734375 l 0.21875,-0.890625 C 1.90625,-2.03125 1.96875,-2.25 2.03125,-2.46875 c 0.03125,-0.171875 0.109375,-0.46875 0.125,-0.5 0.140625,-0.3125 0.671875,-1.21875 1.625,-1.21875 0.453125,0 0.53125,0.375 0.53125,0.703125 0,0.609375 -0.484375,1.890625 -0.640625,2.3125 C 3.578125,-0.9375 3.5625,-0.8125 3.5625,-0.703125 c 0,0.46875 0.359375,0.8125 0.828125,0.8125 0.9375,0 1.296875,-1.453125 1.296875,-1.53125 0,-0.109375 -0.078125,-0.109375 -0.109375,-0.109375 -0.109375,0 -0.109375,0.03125 -0.15625,0.1875 -0.203125,0.671875 -0.53125,1.234375 -1.015625,1.234375 -0.171875,0 -0.234375,-0.09375 -0.234375,-0.328125 0,-0.25 0.078125,-0.484375 0.171875,-0.703125 0.1875,-0.53125 0.609375,-1.625 0.609375,-2.203125 0,-0.65625 -0.421875,-1.0625 -1.140625,-1.0625 -0.90625,0 -1.390625,0.640625 -1.5625,0.875 -0.046875,-0.5625 -0.453125,-0.875 -0.921875,-0.875 -0.453125,0 -0.640625,0.390625 -0.734375,0.5625 C 0.421875,-3.5 0.296875,-2.90625 0.296875,-2.875 c 0,0.109375 0.09375,0.109375 0.109375,0.109375 0.109375,0 0.109375,-0.015625 0.171875,-0.234375 0.171875,-0.703125 0.375,-1.1875 0.734375,-1.1875 0.1875,0 0.296875,0.125 0.296875,0.453125 0,0.21875 -0.03125,0.328125 -0.15625,0.84375 z m 0,0"
             style="stroke:none;stroke-width:0"
             inkscape:connector-curvature="0" />
        </g>
      </g>
    </g>
    <g
       id="g3040"
       style="stroke-width:1.32587492"
       ns1:jacobian_sqrt="0.41384"
       ns1:alignment="middle center"
       ns1:scale="1.17308981854"
       ns1:preamble="C:\\Users\\Buster\\AppData\\Roaming\\inkscape\\extensions\\textext\\default_packages.tex"
       ns1:text="$0$"
       ns1:pdfconverter="pdf2svg"
       ns1:texconverter="pdflatex"
       ns1:version="0.11.0"
       transform="matrix(0.31212598,0,0,0.31212598,3.8890497,134.46418)"
       inkscape:export-xdpi="286.47916"
       inkscape:export-ydpi="286.47916">
      <g
         id="g3038"
         style="stroke-width:1.75794423">
        <g
           id="g3036"
           style="fill:#000000;fill-opacity:1;stroke-width:1.32587492">
          <path
             id="path3034"
             transform="translate(148.712,134.765)"
             d="m 4.578125,-3.1875 c 0,-0.796875 -0.046875,-1.59375 -0.390625,-2.328125 -0.453125,-0.96875 -1.28125,-1.125 -1.6875,-1.125 -0.609375,0 -1.328125,0.265625 -1.75,1.1875 -0.3125,0.6875 -0.359375,1.46875 -0.359375,2.265625 0,0.75 0.03125,1.640625 0.453125,2.40625 0.421875,0.796875 1.15625,1 1.640625,1 0.53125,0 1.296875,-0.203125 1.734375,-1.15625 0.3125,-0.6875 0.359375,-1.46875 0.359375,-2.25 z M 2.484375,0 C 2.09375,0 1.5,-0.25 1.328125,-1.203125 1.21875,-1.796875 1.21875,-2.71875 1.21875,-3.3125 c 0,-0.640625 0,-1.296875 0.078125,-1.828125 0.1875,-1.1875 0.9375,-1.28125 1.1875,-1.28125 0.328125,0 0.984375,0.1875 1.171875,1.171875 0.109375,0.5625 0.109375,1.3125 0.109375,1.9375 0,0.75 0,1.421875 -0.109375,2.0625 C 3.5,-0.296875 2.9375,0 2.484375,0 Z m 0,0"
             style="stroke:none;stroke-width:0"
             inkscape:connector-curvature="0" />
        </g>
      </g>
    </g>
    <path
       inkscape:connector-curvature="0"
       id="path3149"
       d="m 0.83546599,205.90136 v -4.59241"
       style="opacity:1;fill:none;fill-opacity:1;stroke:#000000;stroke-width:0.085;stroke-linecap:square;stroke-miterlimit:4;stroke-dasharray:none;stroke-dashoffset:0;stroke-opacity:1"
       sodipodi:nodetypes="cc"
       inkscape:export-xdpi="286.47916"
       inkscape:export-ydpi="286.47916" />
    <path
       style="opacity:1;fill:none;fill-opacity:1;stroke:#000000;stroke-width:0.085;stroke-linecap:square;stroke-miterlimit:4;stroke-dasharray:none;stroke-dashoffset:0;stroke-opacity:1"
       d="m 1.6372746,205.96818 v -4.59241"
       id="path3151"
       inkscape:connector-curvature="0"
       sodipodi:nodetypes="cc"
       inkscape:export-xdpi="286.47916"
       inkscape:export-ydpi="286.47916" />
    <path
       sodipodi:nodetypes="cc"
       inkscape:connector-curvature="0"
       id="path3153"
       d="m 0.81876167,200.53926 0.90203463,0.0347"
       style="opacity:1;fill:none;fill-opacity:1;stroke:#000000;stroke-width:0.1;stroke-linecap:square;stroke-miterlimit:4;stroke-dasharray:none;stroke-dashoffset:0;stroke-opacity:1;marker-start:url(#StopL);marker-end:url(#marker3245)"
       inkscape:export-xdpi="286.47916"
       inkscape:export-ydpi="286.47916" />
    <g
       id="g3767"
       ns1:jacobian_sqrt="0.41384"
       ns1:alignment="middle center"
       ns1:scale="1.17308981854"
       ns1:preamble="C:\\Users\\Buster\\AppData\\Roaming\\inkscape\\extensions\\textext\\default_packages.tex"
       ns1:text="$d$"
       ns1:pdfconverter="pdf2svg"
       ns1:texconverter="pdflatex"
       ns1:version="0.11.0"
       transform="matrix(0.37352254,0,0,0.37352254,-55.355474,149.02611)"
       style="stroke-width:1.10793853"
       inkscape:export-xdpi="286.47916"
       inkscape:export-ydpi="286.47916">
      <g
         id="g3765"
         style="stroke-width:1.10793853">
        <g
           id="g3763"
           style="fill:#000000;fill-opacity:1;stroke-width:1.10793853">
          <path
             id="path3761"
             transform="translate(148.712,134.765)"
             d="m 5.140625,-6.8125 c 0,0 0,-0.109375 -0.125,-0.109375 -0.15625,0 -1.09375,0.09375 -1.265625,0.109375 -0.078125,0.015625 -0.140625,0.0625 -0.140625,0.1875 0,0.125 0.09375,0.125 0.234375,0.125 0.484375,0 0.5,0.0625 0.5,0.171875 L 4.3125,-6.125 3.71875,-3.765625 C 3.53125,-4.140625 3.25,-4.40625 2.796875,-4.40625 c -1.15625,0 -2.390625,1.46875 -2.390625,2.921875 0,0.9375 0.546875,1.59375 1.3125,1.59375 0.203125,0 0.703125,-0.046875 1.296875,-0.75 0.078125,0.421875 0.4375,0.75 0.90625,0.75 0.359375,0 0.578125,-0.234375 0.75,-0.546875 0.15625,-0.359375 0.296875,-0.96875 0.296875,-0.984375 0,-0.109375 -0.09375,-0.109375 -0.125,-0.109375 -0.09375,0 -0.109375,0.046875 -0.140625,0.1875 -0.171875,0.640625 -0.34375,1.234375 -0.75,1.234375 -0.28125,0 -0.296875,-0.265625 -0.296875,-0.453125 0,-0.25 0.015625,-0.3125 0.046875,-0.484375 z m -2.0625,5.625 C 3.015625,-1 3.015625,-0.984375 2.875,-0.8125 2.4375,-0.265625 2.03125,-0.109375 1.75,-0.109375 c -0.5,0 -0.640625,-0.546875 -0.640625,-0.9375 0,-0.5 0.3125,-1.71875 0.546875,-2.1875 0.3125,-0.578125 0.75,-0.953125 1.15625,-0.953125 0.640625,0 0.78125,0.8125 0.78125,0.875 0,0.0625 -0.015625,0.125 -0.03125,0.171875 z m 0,0"
             style="stroke:none;stroke-width:0"
             inkscape:connector-curvature="0" />
        </g>
      </g>
    </g>
    <g
       id="g3893"
       ns1:jacobian_sqrt="0.41384"
       ns1:alignment="middle center"
       ns1:scale="1.17308981854"
       ns1:preamble="C:\\Users\\Buster\\AppData\\Roaming\\inkscape\\extensions\\textext\\default_packages.tex"
       ns1:text="$\\hdots$"
       ns1:pdfconverter="pdf2svg"
       ns1:texconverter="pdflatex"
       ns1:version="0.11.0"
       transform="matrix(0.31134684,-0.02204038,0.02204038,0.31134684,15.585701,135.61912)"
       inkscape:export-xdpi="286.47916"
       inkscape:export-ydpi="286.47916"
       style="stroke-width:1.32587492">
      <g
         id="g3891"
         style="stroke-width:1.32587492">
        <g
           id="g3881"
           style="fill:#000000;fill-opacity:1;stroke-width:1.32587492">
          <path
             id="path3879"
             transform="translate(148.712,134.765)"
             d="m 1.90625,-0.53125 c 0,-0.28125 -0.234375,-0.53125 -0.515625,-0.53125 -0.296875,0 -0.53125,0.25 -0.53125,0.53125 C 0.859375,-0.234375 1.09375,0 1.390625,0 1.671875,0 1.90625,-0.234375 1.90625,-0.53125 Z m 0,0"
             style="stroke:none;stroke-width:0"
             inkscape:connector-curvature="0" />
        </g>
        <g
           id="g3885"
           style="fill:#000000;fill-opacity:1;stroke-width:1.32587492">
          <path
             id="path3883"
             transform="translate(153.14336,134.765)"
             d="m 1.90625,-0.53125 c 0,-0.28125 -0.234375,-0.53125 -0.515625,-0.53125 -0.296875,0 -0.53125,0.25 -0.53125,0.53125 C 0.859375,-0.234375 1.09375,0 1.390625,0 1.671875,0 1.90625,-0.234375 1.90625,-0.53125 Z m 0,0"
             style="stroke:none;stroke-width:0"
             inkscape:connector-curvature="0" />
        </g>
        <g
           id="g3889"
           style="fill:#000000;fill-opacity:1;stroke-width:1.32587492">
          <path
             id="path3887"
             transform="translate(157.56477,134.765)"
             d="m 1.90625,-0.53125 c 0,-0.28125 -0.234375,-0.53125 -0.515625,-0.53125 -0.296875,0 -0.53125,0.25 -0.53125,0.53125 C 0.859375,-0.234375 1.09375,0 1.390625,0 1.671875,0 1.90625,-0.234375 1.90625,-0.53125 Z m 0,0"
             style="stroke:none;stroke-width:0"
             inkscape:connector-curvature="0" />
        </g>
      </g>
    </g>
    <g
       id="g4015"
       ns1:jacobian_sqrt="0.41384"
       inkscapeversion="0.92.4"
       ns1:alignment="middle center"
       ns1:scale="1.17308981854"
       ns1:preamble="C:\\Users\\Buster\\AppData\\Roaming\\inkscape\\extensions\\textext\\default_packages.tex"
       ns1:text="$\\theta_n$"
       ns1:pdfconverter="pdf2svg"
       ns1:texconverter="pdflatex"
       ns1:version="0.11.0"
       transform="matrix(0.33681652,0,0,0.33681652,-17.237198,163.40263)"
       style="stroke-width:1.22868085"
       inkscape:export-xdpi="286.47916"
       inkscape:export-ydpi="286.47916">
      <g
         id="g4013"
         style="stroke-width:1.22868085">
        <g
           id="g4007"
           style="fill:#000000;fill-opacity:1;stroke-width:1.22868085">
          <path
             id="path4005"
             transform="translate(148.712,134.765)"
             d="m 4.53125,-4.984375 c 0,-0.65625 -0.171875,-2.046875 -1.1875,-2.046875 -1.390625,0 -2.921875,2.8125 -2.921875,5.09375 0,0.9375 0.28125,2.046875 1.1875,2.046875 1.40625,0 2.921875,-2.859375 2.921875,-5.09375 z M 1.46875,-3.625 C 1.640625,-4.25 1.84375,-5.046875 2.25,-5.765625 2.515625,-6.25 2.875,-6.8125 3.328125,-6.8125 c 0.484375,0 0.546875,0.640625 0.546875,1.203125 0,0.5 -0.078125,1 -0.3125,1.984375 z m 2,0.328125 C 3.359375,-2.84375 3.15625,-2 2.765625,-1.28125 c -0.34375,0.6875 -0.71875,1.171875 -1.15625,1.171875 -0.328125,0 -0.53125,-0.296875 -0.53125,-1.21875 0,-0.421875 0.0625,-1 0.3125,-1.96875 z m 0,0"
             style="stroke:none;stroke-width:0"
             inkscape:connector-curvature="0" />
        </g>
        <g
           id="g4011"
           style="fill:#000000;fill-opacity:1;stroke-width:1.22868085">
          <path
             id="path4009"
             transform="translate(153.389,136.259)"
             d="m 0.84375,-0.4375 c -0.015625,0.09375 -0.0625,0.265625 -0.0625,0.28125 0,0.15625 0.125,0.21875 0.234375,0.21875 0.125,0 0.234375,-0.078125 0.28125,-0.140625 0.03125,-0.0625 0.078125,-0.296875 0.125,-0.4375 0.03125,-0.125 0.109375,-0.453125 0.140625,-0.625 0.046875,-0.15625 0.09375,-0.3125 0.125,-0.46875 0.078125,-0.28125 0.09375,-0.34375 0.296875,-0.625 C 2.171875,-2.515625 2.5,-2.875 3.03125,-2.875 c 0.390625,0 0.40625,0.359375 0.40625,0.484375 0,0.421875 -0.296875,1.1875 -0.40625,1.484375 -0.078125,0.203125 -0.109375,0.265625 -0.109375,0.375 0,0.375 0.296875,0.59375 0.65625,0.59375 0.703125,0 1,-0.953125 1,-1.0625 0,-0.09375 -0.078125,-0.09375 -0.109375,-0.09375 -0.09375,0 -0.09375,0.046875 -0.125,0.125 C 4.1875,-0.40625 3.875,-0.125 3.609375,-0.125 c -0.15625,0 -0.1875,-0.09375 -0.1875,-0.25 0,-0.15625 0.046875,-0.25 0.171875,-0.5625 0.078125,-0.21875 0.359375,-0.953125 0.359375,-1.34375 0,-0.671875 -0.53125,-0.796875 -0.90625,-0.796875 -0.578125,0 -0.96875,0.359375 -1.171875,0.640625 -0.046875,-0.484375 -0.453125,-0.640625 -0.75,-0.640625 -0.296875,0 -0.453125,0.21875 -0.546875,0.375 -0.15625,0.265625 -0.25,0.65625 -0.25,0.703125 0,0.078125 0.09375,0.078125 0.125,0.078125 0.09375,0 0.09375,-0.015625 0.140625,-0.203125 0.109375,-0.40625 0.25,-0.75 0.515625,-0.75 0.1875,0 0.234375,0.15625 0.234375,0.34375 0,0.125 -0.0625,0.390625 -0.125,0.578125 -0.046875,0.1875 -0.109375,0.46875 -0.140625,0.625 z m 0,0"
             style="stroke:none;stroke-width:0"
             inkscape:connector-curvature="0" />
        </g>
      </g>
    </g>
    <g
       id="g4144"
       ns1:jacobian_sqrt="0.312126"
       inkscapeversion="0.92.4"
       ns1:alignment="middle center"
       ns1:scale="0.884766598782"
       ns1:preamble="C:\\Users\\Buster\\AppData\\Roaming\\inkscape\\extensions\\textext\\default_packages.tex"
       ns1:text="$1$"
       ns1:pdfconverter="pdf2svg"
       ns1:texconverter="pdflatex"
       ns1:version="0.11.0"
       transform="matrix(0.312126,0,0,0.312126,10.961469,133.08091)"
       inkscape:export-xdpi="286.47916"
       inkscape:export-ydpi="286.47916">
      <g
         id="g4142">
        <g
           id="g4140"
           style="fill:#000000;fill-opacity:1">
          <path
             id="path4138"
             transform="translate(148.712,134.765)"
             d="m 2.9375,-6.375 c 0,-0.25 0,-0.265625 -0.234375,-0.265625 C 2.078125,-6 1.203125,-6 0.890625,-6 v 0.3125 c 0.203125,0 0.78125,0 1.296875,-0.265625 v 5.171875 c 0,0.359375 -0.03125,0.46875 -0.921875,0.46875 h -0.3125 V 0 c 0.34375,-0.03125 1.203125,-0.03125 1.609375,-0.03125 0.390625,0 1.265625,0 1.609375,0.03125 v -0.3125 h -0.3125 c -0.90625,0 -0.921875,-0.109375 -0.921875,-0.46875 z m 0,0"
             style="stroke:none;stroke-width:0"
             inkscape:connector-curvature="0" />
        </g>
      </g>
    </g>
  </g>
</svg>
