<?xml version="1.0" encoding="UTF-8" standalone="no"?>
<!-- Created with Inkscape (http://www.inkscape.org/) -->

<svg
   xmlns:ns1="http://www.iki.fi/pav/software/textext/"
   xmlns:dc="http://purl.org/dc/elements/1.1/"
   xmlns:cc="http://creativecommons.org/ns#"
   xmlns:rdf="http://www.w3.org/1999/02/22-rdf-syntax-ns#"
   xmlns:svg="http://www.w3.org/2000/svg"
   xmlns="http://www.w3.org/2000/svg"
   xmlns:sodipodi="http://sodipodi.sourceforge.net/DTD/sodipodi-0.dtd"
   xmlns:inkscape="http://www.inkscape.org/namespaces/inkscape"
   width="210mm"
   height="297mm"
   viewBox="0 0 210 297"
   version="1.1"
   id="svg8"
   inkscape:version="0.92.4 (5da689c313, 2019-01-14)"
   sodipodi:docname="AnglesExamples.svg">
  <defs
     id="defs2">
    <filter
       inkscape:collect="always"
       style="color-interpolation-filters:sRGB"
       id="filter1150"
       x="-0.092189784"
       width="1.1843796"
       y="-0.17183672"
       height="1.3436734">
      <feGaussianBlur
         inkscape:collect="always"
         stdDeviation="0.70325296"
         id="feGaussianBlur1152" />
    </filter>
  </defs>
  <sodipodi:namedview
     id="base"
     pagecolor="#ffffff"
     bordercolor="#666666"
     borderopacity="1.0"
     inkscape:pageopacity="0.0"
     inkscape:pageshadow="2"
     inkscape:zoom="0.98994949"
     inkscape:cx="1279.4327"
     inkscape:cy="925.79043"
     inkscape:document-units="mm"
     inkscape:current-layer="layer1"
     showgrid="false"
     inkscape:snap-global="false"
     inkscape:window-width="1920"
     inkscape:window-height="1017"
     inkscape:window-x="-8"
     inkscape:window-y="-8"
     inkscape:window-maximized="1" />
  <metadata
     id="metadata5">
    <rdf:RDF>
      <cc:Work
         rdf:about="">
        <dc:format>image/svg+xml</dc:format>
        <dc:type
           rdf:resource="http://purl.org/dc/dcmitype/StillImage" />
        <dc:title></dc:title>
      </cc:Work>
    </rdf:RDF>
  </metadata>
  <g
     inkscape:label="Layer 1"
     inkscape:groupmode="layer"
     id="layer1">
    <path
       style="opacity:0.77999998;fill:none;fill-opacity:1;stroke:#000000;stroke-width:0.65700001;stroke-linecap:square;stroke-miterlimit:4;stroke-dasharray:none;stroke-dashoffset:0;stroke-opacity:0.25757575"
       id="path915"
       sodipodi:type="arc"
       sodipodi:cx="334.95059"
       sodipodi:cy="85.420937"
       sodipodi:rx="11.7559"
       sodipodi:ry="12.332798"
       sodipodi:start="6.1281236"
       sodipodi:end="4.1737045"
       sodipodi:open="true"
       d="m 346.56545,83.516246 a 11.7559,12.332798 0 0 1 -8.33289,13.747136 11.7559,12.332798 0 0 1 -14.05975,-6.917315 11.7559,12.332798 0 0 1 4.74692,-15.511411"
       inkscape:export-xdpi="119.39887"
       inkscape:export-ydpi="119.39887" />
    <path
       style="opacity:0.77999998;fill:none;fill-opacity:1;stroke:#000000;stroke-width:0.457;stroke-linecap:square;stroke-miterlimit:4;stroke-dasharray:none;stroke-dashoffset:0;stroke-opacity:1"
       d="M 334.88871,84.787998 397.94435,75.929709 295.90477,12.625381 Z"
       id="path815"
       inkscape:connector-curvature="0"
       sodipodi:nodetypes="cccc"
       inkscape:export-xdpi="119.39887"
       inkscape:export-ydpi="119.39887" />
    <path
       d="M 238.46937,85.898118 A 11.7559,12.332798 0 0 1 226.85917,98.240893 11.7559,12.332798 0 0 1 214.96093,86.2038 11.7559,12.332798 0 0 1 226.29727,73.583976 11.7559,12.332798 0 0 1 238.45643,85.330608"
       sodipodi:open="true"
       sodipodi:end="6.236266"
       sodipodi:start="6.2822995"
       sodipodi:ry="12.332798"
       sodipodi:rx="11.7559"
       sodipodi:cy="85.909042"
       sodipodi:cx="226.71347"
       sodipodi:type="arc"
       id="path913"
       style="opacity:0.77999998;fill:none;fill-opacity:1;stroke:#000000;stroke-width:0.65700001;stroke-linecap:square;stroke-miterlimit:4;stroke-dasharray:none;stroke-dashoffset:0;stroke-opacity:0.26767677"
       inkscape:export-xdpi="119.39887"
       inkscape:export-ydpi="119.39887" />
    <path
       style="opacity:0.77999998;fill:none;fill-opacity:1;stroke:#00ce00;stroke-width:0.657;stroke-linecap:square;stroke-miterlimit:4;stroke-dasharray:none;stroke-dashoffset:0;stroke-opacity:1"
       id="path821"
       sodipodi:type="arc"
       sodipodi:cx="226.71347"
       sodipodi:cy="85.909042"
       sodipodi:rx="11.7559"
       sodipodi:ry="12.332798"
       sodipodi:start="5.6030752"
       sodipodi:end="6.236266"
       sodipodi:open="true"
       d="m 235.85372,78.153209 a 11.7559,12.332798 0 0 1 2.60271,7.177399"
       inkscape:export-xdpi="119.39887"
       inkscape:export-ydpi="119.39887" />
    <path
       style="opacity:0.77999998;fill:none;fill-opacity:1;stroke:#000000;stroke-width:0.45700002;stroke-linecap:square;stroke-miterlimit:4;stroke-dasharray:none;stroke-dashoffset:0;stroke-opacity:1"
       d="m 224.77366,85.589806 h 60.6702 V 43.628487 Z"
       id="path817"
       inkscape:connector-curvature="0"
       inkscape:export-xdpi="119.39887"
       inkscape:export-ydpi="119.39887" />
    <path
       d="m 329.84038,74.281566 a 11.7559,12.332798 0 0 1 10.23883,-0.05846 11.7559,12.332798 0 0 1 6.39903,8.385308"
       sodipodi:open="true"
       sodipodi:end="6.0586691"
       sodipodi:start="4.2563717"
       sodipodi:ry="12.332798"
       sodipodi:rx="11.7559"
       sodipodi:cy="85.354118"
       sodipodi:cx="335.0174"
       sodipodi:type="arc"
       id="path825"
       style="opacity:0.77999998;fill:none;fill-opacity:1;stroke:#00ce00;stroke-width:0.65700001;stroke-linecap:square;stroke-miterlimit:4;stroke-dasharray:none;stroke-dashoffset:0;stroke-opacity:1"
       inkscape:export-xdpi="119.39887"
       inkscape:export-ydpi="119.39887" />
    <rect
       style="opacity:0.57099998;fill:#e6fffd;fill-opacity:1;stroke:none;stroke-width:0.45700002;stroke-linecap:square;stroke-miterlimit:4;stroke-dasharray:none;stroke-dashoffset:0;stroke-opacity:0.25882353;filter:url(#filter1150)"
       id="rect1108"
       width="18.307962"
       height="9.822156"
       x="304.95456"
       y="20.242395"
       inkscape:export-xdpi="119.39887"
       inkscape:export-ydpi="119.39887" />
    <path
       style="opacity:0.77999998;fill:none;fill-opacity:1;stroke:#00ce00;stroke-width:0.65700001;stroke-linecap:square;stroke-miterlimit:4;stroke-dasharray:none;stroke-dashoffset:0;stroke-opacity:1"
       id="path829"
       sodipodi:type="arc"
       sodipodi:cx="90.556396"
       sodipodi:cy="-283.5224"
       sodipodi:rx="11.7559"
       sodipodi:ry="12.332798"
       sodipodi:start="5.5543276"
       sodipodi:end="6.0586691"
       sodipodi:open="true"
       d="m 99.325542,-291.73627 a 11.7559,12.332798 0 0 1 2.691708,5.46816"
       transform="rotate(75)"
       inkscape:export-xdpi="119.39887"
       inkscape:export-ydpi="119.39887" />
    <g
       id="g898"
       ns1:jacobian_sqrt="1.312122"
       ns1:alignment="middle center"
       ns1:scale="3.71940100171"
       ns1:preamble="C:\\Users\\Buster\\AppData\\Roaming\\inkscape\\extensions\\textext\\default_packages.tex"
       ns1:text="$33.9^o$"
       ns1:pdfconverter="pdf2svg"
       ns1:texconverter="pdflatex"
       ns1:version="0.11.0"
       transform="matrix(0.77084599,0,0,0.77084599,124.40413,-21.575574)"
       style="stroke-width:1.70218432"
       inkscape:export-xdpi="119.39887"
       inkscape:export-ydpi="119.39887">
      <g
         id="surface1"
         style="stroke-width:1.70218432">
        <g
           id="g883"
           style="fill:#000000;fill-opacity:1;stroke-width:1.70218432">
          <path
             id="path879"
             transform="translate(148.712,134.765)"
             d="m 2.890625,-3.515625 c 0.8125,-0.265625 1.390625,-0.953125 1.390625,-1.75 0,-0.8125 -0.875,-1.375 -1.828125,-1.375 -1,0 -1.765625,0.59375 -1.765625,1.359375 0,0.328125 0.21875,0.515625 0.515625,0.515625 0.296875,0 0.5,-0.21875 0.5,-0.515625 0,-0.484375 -0.46875,-0.484375 -0.609375,-0.484375 0.296875,-0.5 0.953125,-0.625 1.3125,-0.625 0.421875,0 0.96875,0.21875 0.96875,1.109375 0,0.125 -0.03125,0.703125 -0.28125,1.140625 C 2.796875,-3.65625 2.453125,-3.625 2.203125,-3.625 2.125,-3.609375 1.890625,-3.59375 1.8125,-3.59375 c -0.078125,0.015625 -0.140625,0.03125 -0.140625,0.125 0,0.109375 0.0625,0.109375 0.234375,0.109375 h 0.4375 c 0.8125,0 1.1875,0.671875 1.1875,1.65625 0,1.359375 -0.6875,1.640625 -1.125,1.640625 -0.4375,0 -1.1875,-0.171875 -1.53125,-0.75 0.34375,0.046875 0.65625,-0.171875 0.65625,-0.546875 0,-0.359375 -0.265625,-0.5625 -0.546875,-0.5625 -0.25,0 -0.5625,0.140625 -0.5625,0.578125 0,0.90625 0.921875,1.5625 2.015625,1.5625 1.21875,0 2.125,-0.90625 2.125,-1.921875 0,-0.8125 -0.640625,-1.59375 -1.671875,-1.8125 z m 0,0"
             style="stroke:none;stroke-width:0"
             inkscape:connector-curvature="0" />
          <path
             id="path881"
             transform="translate(153.6933,134.765)"
             d="m 2.890625,-3.515625 c 0.8125,-0.265625 1.390625,-0.953125 1.390625,-1.75 0,-0.8125 -0.875,-1.375 -1.828125,-1.375 -1,0 -1.765625,0.59375 -1.765625,1.359375 0,0.328125 0.21875,0.515625 0.515625,0.515625 0.296875,0 0.5,-0.21875 0.5,-0.515625 0,-0.484375 -0.46875,-0.484375 -0.609375,-0.484375 0.296875,-0.5 0.953125,-0.625 1.3125,-0.625 0.421875,0 0.96875,0.21875 0.96875,1.109375 0,0.125 -0.03125,0.703125 -0.28125,1.140625 C 2.796875,-3.65625 2.453125,-3.625 2.203125,-3.625 2.125,-3.609375 1.890625,-3.59375 1.8125,-3.59375 c -0.078125,0.015625 -0.140625,0.03125 -0.140625,0.125 0,0.109375 0.0625,0.109375 0.234375,0.109375 h 0.4375 c 0.8125,0 1.1875,0.671875 1.1875,1.65625 0,1.359375 -0.6875,1.640625 -1.125,1.640625 -0.4375,0 -1.1875,-0.171875 -1.53125,-0.75 0.34375,0.046875 0.65625,-0.171875 0.65625,-0.546875 0,-0.359375 -0.265625,-0.5625 -0.546875,-0.5625 -0.25,0 -0.5625,0.140625 -0.5625,0.578125 0,0.90625 0.921875,1.5625 2.015625,1.5625 1.21875,0 2.125,-0.90625 2.125,-1.921875 0,-0.8125 -0.640625,-1.59375 -1.671875,-1.8125 z m 0,0"
             style="stroke:none;stroke-width:0"
             inkscape:connector-curvature="0" />
        </g>
        <g
           id="g887"
           style="fill:#000000;fill-opacity:1;stroke-width:1.70218432">
          <path
             id="path885"
             transform="translate(158.675,134.765)"
             d="m 1.90625,-0.53125 c 0,-0.28125 -0.234375,-0.53125 -0.515625,-0.53125 -0.296875,0 -0.53125,0.25 -0.53125,0.53125 C 0.859375,-0.234375 1.09375,0 1.390625,0 1.671875,0 1.90625,-0.234375 1.90625,-0.53125 Z m 0,0"
             style="stroke:none;stroke-width:0"
             inkscape:connector-curvature="0" />
        </g>
        <g
           id="g891"
           style="fill:#000000;fill-opacity:1;stroke-width:1.70218432">
          <path
             id="path889"
             transform="translate(161.442,134.765)"
             d="m 3.65625,-3.171875 v 0.328125 c 0,2.328125 -1.03125,2.78125 -1.609375,2.78125 -0.171875,0 -0.71875,-0.015625 -0.984375,-0.359375 0.4375,0 0.515625,-0.28125 0.515625,-0.453125 0,-0.3125 -0.234375,-0.453125 -0.453125,-0.453125 -0.15625,0 -0.453125,0.078125 -0.453125,0.46875 0,0.671875 0.53125,1.078125 1.375,1.078125 1.296875,0 2.515625,-1.359375 2.515625,-3.5 0,-2.6875 -1.15625,-3.359375 -2.046875,-3.359375 -0.546875,0 -1.03125,0.1875 -1.453125,0.625 -0.421875,0.453125 -0.640625,0.875 -0.640625,1.625 0,1.234375 0.875,2.21875 1.984375,2.21875 0.609375,0 1.015625,-0.421875 1.25,-1 z M 2.421875,-2.40625 c -0.15625,0 -0.625,0 -0.921875,-0.625 -0.1875,-0.375 -0.1875,-0.859375 -0.1875,-1.359375 0,-0.53125 0,-1 0.21875,-1.375 0.265625,-0.5 0.640625,-0.625 0.984375,-0.625 0.46875,0 0.796875,0.34375 0.96875,0.78125 0.109375,0.328125 0.15625,0.953125 0.15625,1.40625 0,0.828125 -0.34375,1.796875 -1.21875,1.796875 z m 0,0"
             style="stroke:none;stroke-width:0"
             inkscape:connector-curvature="0" />
        </g>
        <g
           id="g895"
           style="fill:#000000;fill-opacity:1;stroke-width:1.70218432">
          <path
             id="path893"
             transform="translate(166.424,131.149)"
             d="m 3.703125,-1.859375 c 0,-0.765625 -0.578125,-1.21875 -1.265625,-1.21875 -1.03125,0 -2,0.96875 -2,1.921875 0,0.703125 0.5,1.21875 1.265625,1.21875 1,0 2,-0.90625 2,-1.921875 z m -2,1.734375 c -0.34375,0 -0.6875,-0.21875 -0.6875,-0.78125 0,-0.28125 0.125,-0.96875 0.40625,-1.359375 C 1.71875,-2.703125 2.125,-2.875 2.4375,-2.875 c 0.375,0 0.6875,0.25 0.6875,0.765625 C 3.125,-1.9375 3.046875,-1.25 2.734375,-0.765625 2.46875,-0.34375 2.0625,-0.125 1.703125,-0.125 Z m 0,0"
             style="stroke:none;stroke-width:0"
             inkscape:connector-curvature="0" />
        </g>
      </g>
    </g>
    <path
       style="opacity:1;fill:none;fill-opacity:1;stroke:#000000;stroke-width:0.45699999;stroke-linecap:square;stroke-miterlimit:4;stroke-dasharray:none;stroke-dashoffset:0;stroke-opacity:1"
       d="M 405.704,90.406208 431.64029,63.673693 459.05046,94.226264 433.58944,-0.90038853 Z"
       id="path919"
       inkscape:connector-curvature="0"
       sodipodi:nodetypes="ccccc"
       inkscape:export-xdpi="119.39887"
       inkscape:export-ydpi="119.39887" />
    <path
       style="opacity:0.77999998;fill:none;fill-opacity:1;stroke:#00ce00;stroke-width:0.65700001;stroke-linecap:square;stroke-miterlimit:4;stroke-dasharray:none;stroke-dashoffset:0;stroke-opacity:1"
       id="path921"
       sodipodi:type="arc"
       sodipodi:cx="266.44763"
       sodipodi:cy="-345.72681"
       sodipodi:rx="11.7559"
       sodipodi:ry="12.332798"
       sodipodi:start="1.3312835"
       sodipodi:end="6.0274844"
       sodipodi:open="true"
       d="m 269.23648,-333.74606 a 11.7559,12.332798 0 0 1 -14.19395,-8.99044 11.7559,12.332798 0 0 1 8.49317,-14.93878 11.7559,12.332798 0 0 1 14.2856,8.82922"
       transform="rotate(60.798803)"
       inkscape:export-xdpi="119.39887"
       inkscape:export-ydpi="119.39887" />
    <path
       transform="rotate(60.798803)"
       d="m 277.94003,-348.32334 a 11.7559,12.332798 0 0 1 -8.06362,14.39311"
       sodipodi:end="1.2748301"
       sodipodi:start="6.0710594"
       sodipodi:ry="12.332798"
       sodipodi:rx="11.7559"
       sodipodi:cy="-345.72681"
       sodipodi:cx="266.44763"
       sodipodi:type="arc"
       id="path923"
       style="opacity:0.77999998;fill:none;fill-opacity:1;stroke:#000000;stroke-width:0.65700001;stroke-linecap:square;stroke-miterlimit:4;stroke-dasharray:none;stroke-dashoffset:0;stroke-opacity:0.25882354"
       sodipodi:open="true"
       inkscape:export-xdpi="119.39887"
       inkscape:export-ydpi="119.39887" />
    <path
       transform="rotate(75)"
       id="path925"
       style="opacity:0.77999998;fill:none;fill-opacity:1;stroke:#000000;stroke-width:0.65700001;stroke-linecap:square;stroke-miterlimit:4;stroke-dasharray:none;stroke-dashoffset:0;stroke-opacity:0.25882354"
       sodipodi:type="arc"
       sodipodi:cx="90.556396"
       sodipodi:cy="-283.5224"
       sodipodi:rx="11.7559"
       sodipodi:ry="12.332798"
       sodipodi:start="6.1474254"
       sodipodi:end="5.4668691"
       sodipodi:open="true"
       d="m 102.20413,-285.19156 a 11.7559,12.332798 0 0 1 -8.107438,13.42943 11.7559,12.332798 0 0 1 -13.989145,-6.10863 11.7559,12.332798 0 0 1 3.370167,-15.49804 11.7559,12.332798 0 0 1 15.130416,0.86038"
       inkscape:export-xdpi="119.39887"
       inkscape:export-ydpi="119.39887" />
    <g
       id="g996"
       ns1:jacobian_sqrt="0.770846"
       ns1:alignment="middle center"
       ns1:scale="2.18507528063"
       ns1:preamble="C:\\Users\\Buster\\AppData\\Roaming\\inkscape\\extensions\\textext\\default_packages.tex"
       ns1:text="$109.7^o$"
       ns1:pdfconverter="pdf2svg"
       ns1:texconverter="pdflatex"
       ns1:version="0.11.0"
       transform="matrix(0.770846,0,0,0.770846,224.92404,-30.878415)"
       inkscape:export-xdpi="119.39887"
       inkscape:export-ydpi="119.39887">
      <g
         id="g994">
        <g
           id="g980"
           style="fill:#000000;fill-opacity:1">
          <path
             id="path974"
             transform="translate(148.712,134.765)"
             d="m 2.9375,-6.375 c 0,-0.25 0,-0.265625 -0.234375,-0.265625 C 2.078125,-6 1.203125,-6 0.890625,-6 v 0.3125 c 0.203125,0 0.78125,0 1.296875,-0.265625 v 5.171875 c 0,0.359375 -0.03125,0.46875 -0.921875,0.46875 h -0.3125 V 0 c 0.34375,-0.03125 1.203125,-0.03125 1.609375,-0.03125 0.390625,0 1.265625,0 1.609375,0.03125 v -0.3125 h -0.3125 c -0.90625,0 -0.921875,-0.109375 -0.921875,-0.46875 z m 0,0"
             style="stroke:none;stroke-width:0"
             inkscape:connector-curvature="0" />
          <path
             id="path976"
             transform="translate(153.6933,134.765)"
             d="m 4.578125,-3.1875 c 0,-0.796875 -0.046875,-1.59375 -0.390625,-2.328125 -0.453125,-0.96875 -1.28125,-1.125 -1.6875,-1.125 -0.609375,0 -1.328125,0.265625 -1.75,1.1875 -0.3125,0.6875 -0.359375,1.46875 -0.359375,2.265625 0,0.75 0.03125,1.640625 0.453125,2.40625 0.421875,0.796875 1.15625,1 1.640625,1 0.53125,0 1.296875,-0.203125 1.734375,-1.15625 0.3125,-0.6875 0.359375,-1.46875 0.359375,-2.25 z M 2.484375,0 C 2.09375,0 1.5,-0.25 1.328125,-1.203125 1.21875,-1.796875 1.21875,-2.71875 1.21875,-3.3125 c 0,-0.640625 0,-1.296875 0.078125,-1.828125 0.1875,-1.1875 0.9375,-1.28125 1.1875,-1.28125 0.328125,0 0.984375,0.1875 1.171875,1.171875 0.109375,0.5625 0.109375,1.3125 0.109375,1.9375 0,0.75 0,1.421875 -0.109375,2.0625 C 3.5,-0.296875 2.9375,0 2.484375,0 Z m 0,0"
             style="stroke:none;stroke-width:0"
             inkscape:connector-curvature="0" />
          <path
             id="path978"
             transform="translate(158.6746,134.765)"
             d="m 3.65625,-3.171875 v 0.328125 c 0,2.328125 -1.03125,2.78125 -1.609375,2.78125 -0.171875,0 -0.71875,-0.015625 -0.984375,-0.359375 0.4375,0 0.515625,-0.28125 0.515625,-0.453125 0,-0.3125 -0.234375,-0.453125 -0.453125,-0.453125 -0.15625,0 -0.453125,0.078125 -0.453125,0.46875 0,0.671875 0.53125,1.078125 1.375,1.078125 1.296875,0 2.515625,-1.359375 2.515625,-3.5 0,-2.6875 -1.15625,-3.359375 -2.046875,-3.359375 -0.546875,0 -1.03125,0.1875 -1.453125,0.625 -0.421875,0.453125 -0.640625,0.875 -0.640625,1.625 0,1.234375 0.875,2.21875 1.984375,2.21875 0.609375,0 1.015625,-0.421875 1.25,-1 z M 2.421875,-2.40625 c -0.15625,0 -0.625,0 -0.921875,-0.625 -0.1875,-0.375 -0.1875,-0.859375 -0.1875,-1.359375 0,-0.53125 0,-1 0.21875,-1.375 0.265625,-0.5 0.640625,-0.625 0.984375,-0.625 0.46875,0 0.796875,0.34375 0.96875,0.78125 0.109375,0.328125 0.15625,0.953125 0.15625,1.40625 0,0.828125 -0.34375,1.796875 -1.21875,1.796875 z m 0,0"
             style="stroke:none;stroke-width:0"
             inkscape:connector-curvature="0" />
        </g>
        <g
           id="g984"
           style="fill:#000000;fill-opacity:1">
          <path
             id="path982"
             transform="translate(163.656,134.765)"
             d="m 1.90625,-0.53125 c 0,-0.28125 -0.234375,-0.53125 -0.515625,-0.53125 -0.296875,0 -0.53125,0.25 -0.53125,0.53125 C 0.859375,-0.234375 1.09375,0 1.390625,0 1.671875,0 1.90625,-0.234375 1.90625,-0.53125 Z m 0,0"
             style="stroke:none;stroke-width:0"
             inkscape:connector-curvature="0" />
        </g>
        <g
           id="g988"
           style="fill:#000000;fill-opacity:1">
          <path
             id="path986"
             transform="translate(166.424,134.765)"
             d="m 4.75,-6.078125 c 0.078125,-0.109375 0.078125,-0.125 0.078125,-0.34375 H 2.40625 c -1.203125,0 -1.234375,-0.125 -1.265625,-0.3125 h -0.25 L 0.5625,-4.6875 h 0.25 c 0.03125,-0.15625 0.109375,-0.78125 0.25,-0.90625 0.0625,-0.0625 0.84375,-0.0625 0.96875,-0.0625 h 2.0625 C 3.984375,-5.5 3.203125,-4.40625 2.984375,-4.078125 2.078125,-2.734375 1.75,-1.34375 1.75,-0.328125 c 0,0.09375 0,0.546875 0.46875,0.546875 0.453125,0 0.453125,-0.453125 0.453125,-0.546875 V -0.84375 c 0,-0.546875 0.03125,-1.09375 0.109375,-1.625 0.046875,-0.234375 0.171875,-1.09375 0.625,-1.703125 z m 0,0"
             style="stroke:none;stroke-width:0"
             inkscape:connector-curvature="0" />
        </g>
        <g
           id="g992"
           style="fill:#000000;fill-opacity:1">
          <path
             id="path990"
             transform="translate(171.405,131.149)"
             d="m 3.703125,-1.859375 c 0,-0.765625 -0.578125,-1.21875 -1.265625,-1.21875 -1.03125,0 -2,0.96875 -2,1.921875 0,0.703125 0.5,1.21875 1.265625,1.21875 1,0 2,-0.90625 2,-1.921875 z m -2,1.734375 c -0.34375,0 -0.6875,-0.21875 -0.6875,-0.78125 0,-0.28125 0.125,-0.96875 0.40625,-1.359375 C 1.71875,-2.703125 2.125,-2.875 2.4375,-2.875 c 0.375,0 0.6875,0.25 0.6875,0.765625 C 3.125,-1.9375 3.046875,-1.25 2.734375,-0.765625 2.46875,-0.34375 2.0625,-0.125 1.703125,-0.125 Z m 0,0"
             style="stroke:none;stroke-width:0"
             inkscape:connector-curvature="0" />
        </g>
      </g>
    </g>
    <g
       id="g1093"
       ns1:jacobian_sqrt="0.770846164827"
       ns1:alignment="middle center"
       ns1:scale="2.18507527776"
       ns1:preamble="C:\\Users\\Buster\\AppData\\Roaming\\inkscape\\extensions\\textext\\default_packages.tex"
       ns1:text="$27.2^o$"
       ns1:pdfconverter="pdf2svg"
       ns1:texconverter="pdflatex"
       ns1:version="0.11.0"
       transform="matrix(0.77039469,-0.02637874,0.02637874,0.77039469,187.60925,-72.135557)"
       inkscape:export-xdpi="119.39887"
       inkscape:export-ydpi="119.39887">
      <g
         id="g1091">
        <g
           id="g1077"
           style="fill:#000000;fill-opacity:1">
          <path
             id="path1073"
             transform="translate(148.712,134.765)"
             d="m 1.265625,-0.765625 1.0625,-1.03125 c 1.546875,-1.375 2.140625,-1.90625 2.140625,-2.90625 0,-1.140625 -0.890625,-1.9375 -2.109375,-1.9375 -1.125,0 -1.859375,0.921875 -1.859375,1.8125 0,0.546875 0.5,0.546875 0.53125,0.546875 0.171875,0 0.515625,-0.109375 0.515625,-0.53125 0,-0.25 -0.1875,-0.515625 -0.53125,-0.515625 -0.078125,0 -0.09375,0 -0.125,0.015625 0.21875,-0.65625 0.765625,-1.015625 1.34375,-1.015625 0.90625,0 1.328125,0.8125 1.328125,1.625 C 3.5625,-3.90625 3.078125,-3.125 2.515625,-2.5 l -1.90625,2.125 C 0.5,-0.265625 0.5,-0.234375 0.5,0 H 4.203125 L 4.46875,-1.734375 H 4.234375 C 4.171875,-1.4375 4.109375,-1 4,-0.84375 3.9375,-0.765625 3.28125,-0.765625 3.0625,-0.765625 Z m 0,0"
             style="stroke:none;stroke-width:0"
             inkscape:connector-curvature="0" />
          <path
             id="path1075"
             transform="translate(153.6933,134.765)"
             d="m 4.75,-6.078125 c 0.078125,-0.109375 0.078125,-0.125 0.078125,-0.34375 H 2.40625 c -1.203125,0 -1.234375,-0.125 -1.265625,-0.3125 h -0.25 L 0.5625,-4.6875 h 0.25 c 0.03125,-0.15625 0.109375,-0.78125 0.25,-0.90625 0.0625,-0.0625 0.84375,-0.0625 0.96875,-0.0625 h 2.0625 C 3.984375,-5.5 3.203125,-4.40625 2.984375,-4.078125 2.078125,-2.734375 1.75,-1.34375 1.75,-0.328125 c 0,0.09375 0,0.546875 0.46875,0.546875 0.453125,0 0.453125,-0.453125 0.453125,-0.546875 V -0.84375 c 0,-0.546875 0.03125,-1.09375 0.109375,-1.625 0.046875,-0.234375 0.171875,-1.09375 0.625,-1.703125 z m 0,0"
             style="stroke:none;stroke-width:0"
             inkscape:connector-curvature="0" />
        </g>
        <g
           id="g1081"
           style="fill:#000000;fill-opacity:1">
          <path
             id="path1079"
             transform="translate(158.675,134.765)"
             d="m 1.90625,-0.53125 c 0,-0.28125 -0.234375,-0.53125 -0.515625,-0.53125 -0.296875,0 -0.53125,0.25 -0.53125,0.53125 C 0.859375,-0.234375 1.09375,0 1.390625,0 1.671875,0 1.90625,-0.234375 1.90625,-0.53125 Z m 0,0"
             style="stroke:none;stroke-width:0"
             inkscape:connector-curvature="0" />
        </g>
        <g
           id="g1085"
           style="fill:#000000;fill-opacity:1">
          <path
             id="path1083"
             transform="translate(161.442,134.765)"
             d="m 1.265625,-0.765625 1.0625,-1.03125 c 1.546875,-1.375 2.140625,-1.90625 2.140625,-2.90625 0,-1.140625 -0.890625,-1.9375 -2.109375,-1.9375 -1.125,0 -1.859375,0.921875 -1.859375,1.8125 0,0.546875 0.5,0.546875 0.53125,0.546875 0.171875,0 0.515625,-0.109375 0.515625,-0.53125 0,-0.25 -0.1875,-0.515625 -0.53125,-0.515625 -0.078125,0 -0.09375,0 -0.125,0.015625 0.21875,-0.65625 0.765625,-1.015625 1.34375,-1.015625 0.90625,0 1.328125,0.8125 1.328125,1.625 C 3.5625,-3.90625 3.078125,-3.125 2.515625,-2.5 l -1.90625,2.125 C 0.5,-0.265625 0.5,-0.234375 0.5,0 H 4.203125 L 4.46875,-1.734375 H 4.234375 C 4.171875,-1.4375 4.109375,-1 4,-0.84375 3.9375,-0.765625 3.28125,-0.765625 3.0625,-0.765625 Z m 0,0"
             style="stroke:none;stroke-width:0"
             inkscape:connector-curvature="0" />
        </g>
        <g
           id="g1089"
           style="fill:#000000;fill-opacity:1">
          <path
             id="path1087"
             transform="translate(166.424,131.149)"
             d="m 3.703125,-1.859375 c 0,-0.765625 -0.578125,-1.21875 -1.265625,-1.21875 -1.03125,0 -2,0.96875 -2,1.921875 0,0.703125 0.5,1.21875 1.265625,1.21875 1,0 2,-0.90625 2,-1.921875 z m -2,1.734375 c -0.34375,0 -0.6875,-0.21875 -0.6875,-0.78125 0,-0.28125 0.125,-0.96875 0.40625,-1.359375 C 1.71875,-2.703125 2.125,-2.875 2.4375,-2.875 c 0.375,0 0.6875,0.25 0.6875,0.765625 C 3.125,-1.9375 3.046875,-1.25 2.734375,-0.765625 2.46875,-0.34375 2.0625,-0.125 1.703125,-0.125 Z m 0,0"
             style="stroke:none;stroke-width:0"
             inkscape:connector-curvature="0" />
        </g>
      </g>
    </g>
    <g
       id="g1277"
       ns1:jacobian_sqrt="0.770846"
       ns1:alignment="middle center"
       ns1:scale="2.18507528063"
       ns1:preamble="C:\\Users\\Buster\\AppData\\Roaming\\inkscape\\extensions\\textext\\default_packages.tex"
       ns1:text="$276.9^o$"
       ns1:pdfconverter="pdf2svg"
       ns1:texconverter="pdflatex"
       ns1:version="0.11.0"
       transform="matrix(0.770846,0,0,0.770846,307.97129,-53.647087)"
       inkscape:export-xdpi="119.39887"
       inkscape:export-ydpi="119.39887">
      <g
         id="g1275">
        <g
           id="g1261"
           style="fill:#000000;fill-opacity:1">
          <path
             id="path1255"
             transform="translate(148.712,134.765)"
             d="m 1.265625,-0.765625 1.0625,-1.03125 c 1.546875,-1.375 2.140625,-1.90625 2.140625,-2.90625 0,-1.140625 -0.890625,-1.9375 -2.109375,-1.9375 -1.125,0 -1.859375,0.921875 -1.859375,1.8125 0,0.546875 0.5,0.546875 0.53125,0.546875 0.171875,0 0.515625,-0.109375 0.515625,-0.53125 0,-0.25 -0.1875,-0.515625 -0.53125,-0.515625 -0.078125,0 -0.09375,0 -0.125,0.015625 0.21875,-0.65625 0.765625,-1.015625 1.34375,-1.015625 0.90625,0 1.328125,0.8125 1.328125,1.625 C 3.5625,-3.90625 3.078125,-3.125 2.515625,-2.5 l -1.90625,2.125 C 0.5,-0.265625 0.5,-0.234375 0.5,0 H 4.203125 L 4.46875,-1.734375 H 4.234375 C 4.171875,-1.4375 4.109375,-1 4,-0.84375 3.9375,-0.765625 3.28125,-0.765625 3.0625,-0.765625 Z m 0,0"
             style="stroke:none;stroke-width:0"
             inkscape:connector-curvature="0" />
          <path
             id="path1257"
             transform="translate(153.6933,134.765)"
             d="m 4.75,-6.078125 c 0.078125,-0.109375 0.078125,-0.125 0.078125,-0.34375 H 2.40625 c -1.203125,0 -1.234375,-0.125 -1.265625,-0.3125 h -0.25 L 0.5625,-4.6875 h 0.25 c 0.03125,-0.15625 0.109375,-0.78125 0.25,-0.90625 0.0625,-0.0625 0.84375,-0.0625 0.96875,-0.0625 h 2.0625 C 3.984375,-5.5 3.203125,-4.40625 2.984375,-4.078125 2.078125,-2.734375 1.75,-1.34375 1.75,-0.328125 c 0,0.09375 0,0.546875 0.46875,0.546875 0.453125,0 0.453125,-0.453125 0.453125,-0.546875 V -0.84375 c 0,-0.546875 0.03125,-1.09375 0.109375,-1.625 0.046875,-0.234375 0.171875,-1.09375 0.625,-1.703125 z m 0,0"
             style="stroke:none;stroke-width:0"
             inkscape:connector-curvature="0" />
          <path
             id="path1259"
             transform="translate(158.6746,134.765)"
             d="m 1.3125,-3.265625 v -0.25 c 0,-2.515625 1.234375,-2.875 1.75,-2.875 0.234375,0 0.65625,0.0625 0.875,0.40625 -0.15625,0 -0.546875,0 -0.546875,0.4375 0,0.3125 0.234375,0.46875 0.453125,0.46875 0.15625,0 0.46875,-0.09375 0.46875,-0.484375 0,-0.59375 -0.4375,-1.078125 -1.265625,-1.078125 -1.28125,0 -2.625,1.28125 -2.625,3.484375 0,2.671875 1.15625,3.375 2.078125,3.375 1.109375,0 2.0625,-0.9375 2.0625,-2.25 0,-1.265625 -0.890625,-2.21875 -2,-2.21875 -0.671875,0 -1.046875,0.5 -1.25,0.984375 z M 2.5,-0.0625 c -0.625,0 -0.921875,-0.59375 -0.984375,-0.75 -0.1875,-0.46875 -0.1875,-1.265625 -0.1875,-1.4375 0,-0.78125 0.328125,-1.78125 1.21875,-1.78125 0.171875,0 0.625,0 0.9375,0.625 0.171875,0.359375 0.171875,0.875 0.171875,1.359375 0,0.484375 0,0.984375 -0.171875,1.34375 C 3.1875,-0.109375 2.734375,-0.0625 2.5,-0.0625 Z m 0,0"
             style="stroke:none;stroke-width:0"
             inkscape:connector-curvature="0" />
        </g>
        <g
           id="g1265"
           style="fill:#000000;fill-opacity:1">
          <path
             id="path1263"
             transform="translate(163.656,134.765)"
             d="m 1.90625,-0.53125 c 0,-0.28125 -0.234375,-0.53125 -0.515625,-0.53125 -0.296875,0 -0.53125,0.25 -0.53125,0.53125 C 0.859375,-0.234375 1.09375,0 1.390625,0 1.671875,0 1.90625,-0.234375 1.90625,-0.53125 Z m 0,0"
             style="stroke:none;stroke-width:0"
             inkscape:connector-curvature="0" />
        </g>
        <g
           id="g1269"
           style="fill:#000000;fill-opacity:1">
          <path
             id="path1267"
             transform="translate(166.424,134.765)"
             d="m 3.65625,-3.171875 v 0.328125 c 0,2.328125 -1.03125,2.78125 -1.609375,2.78125 -0.171875,0 -0.71875,-0.015625 -0.984375,-0.359375 0.4375,0 0.515625,-0.28125 0.515625,-0.453125 0,-0.3125 -0.234375,-0.453125 -0.453125,-0.453125 -0.15625,0 -0.453125,0.078125 -0.453125,0.46875 0,0.671875 0.53125,1.078125 1.375,1.078125 1.296875,0 2.515625,-1.359375 2.515625,-3.5 0,-2.6875 -1.15625,-3.359375 -2.046875,-3.359375 -0.546875,0 -1.03125,0.1875 -1.453125,0.625 -0.421875,0.453125 -0.640625,0.875 -0.640625,1.625 0,1.234375 0.875,2.21875 1.984375,2.21875 0.609375,0 1.015625,-0.421875 1.25,-1 z M 2.421875,-2.40625 c -0.15625,0 -0.625,0 -0.921875,-0.625 -0.1875,-0.375 -0.1875,-0.859375 -0.1875,-1.359375 0,-0.53125 0,-1 0.21875,-1.375 0.265625,-0.5 0.640625,-0.625 0.984375,-0.625 0.46875,0 0.796875,0.34375 0.96875,0.78125 0.109375,0.328125 0.15625,0.953125 0.15625,1.40625 0,0.828125 -0.34375,1.796875 -1.21875,1.796875 z m 0,0"
             style="stroke:none;stroke-width:0"
             inkscape:connector-curvature="0" />
        </g>
        <g
           id="g1273"
           style="fill:#000000;fill-opacity:1">
          <path
             id="path1271"
             transform="translate(171.405,131.149)"
             d="m 3.703125,-1.859375 c 0,-0.765625 -0.578125,-1.21875 -1.265625,-1.21875 -1.03125,0 -2,0.96875 -2,1.921875 0,0.703125 0.5,1.21875 1.265625,1.21875 1,0 2,-0.90625 2,-1.921875 z m -2,1.734375 c -0.34375,0 -0.6875,-0.21875 -0.6875,-0.78125 0,-0.28125 0.125,-0.96875 0.40625,-1.359375 C 1.71875,-2.703125 2.125,-2.875 2.4375,-2.875 c 0.375,0 0.6875,0.25 0.6875,0.765625 C 3.125,-1.9375 3.046875,-1.25 2.734375,-0.765625 2.46875,-0.34375 2.0625,-0.125 1.703125,-0.125 Z m 0,0"
             style="stroke:none;stroke-width:0"
             inkscape:connector-curvature="0" />
        </g>
      </g>
    </g>
  </g>
</svg>
