<?xml version="1.0" encoding="UTF-8" standalone="no"?>
<!-- Created with Inkscape (http://www.inkscape.org/) -->

<svg
   xmlns:ns1="http://www.iki.fi/pav/software/textext/"
   xmlns:dc="http://purl.org/dc/elements/1.1/"
   xmlns:cc="http://creativecommons.org/ns#"
   xmlns:rdf="http://www.w3.org/1999/02/22-rdf-syntax-ns#"
   xmlns:svg="http://www.w3.org/2000/svg"
   xmlns="http://www.w3.org/2000/svg"
   xmlns:xlink="http://www.w3.org/1999/xlink"
   xmlns:sodipodi="http://sodipodi.sourceforge.net/DTD/sodipodi-0.dtd"
   xmlns:inkscape="http://www.inkscape.org/namespaces/inkscape"
   width="210mm"
   height="297mm"
   viewBox="0 0 210 297"
   version="1.1"
   id="svg8"
   inkscape:version="0.92.5 (2060ec1f9f, 2020-04-08)"
   sodipodi:docname="Metalrør.svg">
  <defs
     id="defs2">
    <marker
       inkscape:stockid="StopM"
       orient="auto"
       refY="0.0"
       refX="0.0"
       id="marker1157"
       style="overflow:visible"
       inkscape:isstock="true">
      <path
         id="path1155"
         d="M 0.0,5.65 L 0.0,-5.65"
         style="fill:#808080;fill-opacity:1;fill-rule:evenodd;stroke:#000000;stroke-width:1pt;stroke-opacity:1"
         transform="scale(0.4)" />
    </marker>
    <marker
       inkscape:stockid="StopM"
       orient="auto"
       refY="0.0"
       refX="0.0"
       id="StopM"
       style="overflow:visible"
       inkscape:isstock="true">
      <path
         id="path1045"
         d="M 0.0,5.65 L 0.0,-5.65"
         style="fill:#808080;fill-opacity:1;fill-rule:evenodd;stroke:#000000;stroke-width:1pt;stroke-opacity:1"
         transform="scale(0.4)" />
    </marker>
    <linearGradient
       inkscape:collect="always"
       id="linearGradient859">
      <stop
         style="stop-color:#808080;stop-opacity:1"
         offset="0"
         id="stop855" />
      <stop
         id="stop863"
         offset="0.475999"
         style="stop-color:#818181;stop-opacity:0" />
      <stop
         style="stop-color:#808080;stop-opacity:1"
         offset="1"
         id="stop857" />
    </linearGradient>
    <linearGradient
       inkscape:collect="always"
       xlink:href="#linearGradient859"
       id="linearGradient861"
       x1="139.74495"
       y1="76.981705"
       x2="145.50676"
       y2="92.550156"
       gradientUnits="userSpaceOnUse"
       gradientTransform="translate(-0.124545,0.07492368)" />
  </defs>
  <sodipodi:namedview
     id="base"
     pagecolor="#ffffff"
     bordercolor="#666666"
     borderopacity="1.0"
     inkscape:pageopacity="0.0"
     inkscape:pageshadow="2"
     inkscape:zoom="1.979899"
     inkscape:cx="452.79345"
     inkscape:cy="820.50132"
     inkscape:document-units="mm"
     inkscape:current-layer="layer1"
     showgrid="false"
     inkscape:snap-global="false"
     inkscape:window-width="1920"
     inkscape:window-height="1017"
     inkscape:window-x="-8"
     inkscape:window-y="-8"
     inkscape:window-maximized="1" />
  <metadata
     id="metadata5">
    <rdf:RDF>
      <cc:Work
         rdf:about="">
        <dc:format>image/svg+xml</dc:format>
        <dc:type
           rdf:resource="http://purl.org/dc/dcmitype/StillImage" />
        <dc:title />
      </cc:Work>
    </rdf:RDF>
  </metadata>
  <g
     inkscape:label="Layer 1"
     inkscape:groupmode="layer"
     id="layer1">
    <ellipse
       ry="7.88306"
       rx="6.5462666"
       cy="95.077866"
       cx="115.72771"
       id="ellipse817"
       style="opacity:1;fill:none;fill-opacity:1;stroke:#040404;stroke-width:0.157;stroke-linecap:square;stroke-miterlimit:4;stroke-dasharray:none;stroke-dashoffset:0;stroke-opacity:1"
       inkscape:export-xdpi="291.44101"
       inkscape:export-ydpi="291.44101" />
    <path
       style="opacity:1;fill:none;fill-opacity:1;stroke:#999999;stroke-width:0.35699999;stroke-linecap:square;stroke-miterlimit:4;stroke-dasharray:none;stroke-dashoffset:0;stroke-opacity:1"
       d="M 117.35637,103.40499 166.7945,84.79308"
       id="path819"
       inkscape:connector-curvature="0"
       sodipodi:nodetypes="cc"
       inkscape:export-xdpi="291.44101"
       inkscape:export-ydpi="291.44101" />
    <path
       sodipodi:nodetypes="cc"
       inkscape:connector-curvature="0"
       id="path823"
       d="m 113.62382,86.872999 48.8526,-18.658982"
       style="opacity:1;fill:none;fill-opacity:1;stroke:#999999;stroke-width:0.35699999;stroke-linecap:square;stroke-miterlimit:4;stroke-dasharray:none;stroke-dashoffset:0;stroke-opacity:1"
       inkscape:export-xdpi="291.44101"
       inkscape:export-ydpi="291.44101" />
    <path
       id="ellipse825"
       style="opacity:1;fill:none;fill-opacity:1;stroke:#999999;stroke-width:0.35700002;stroke-linecap:square;stroke-miterlimit:4;stroke-dasharray:none;stroke-dashoffset:0;stroke-opacity:1"
       sodipodi:type="arc"
       sodipodi:cx="164.11391"
       sodipodi:cy="76.693123"
       sodipodi:rx="7.2372704"
       sodipodi:ry="8.7109623"
       sodipodi:start="4.5285232"
       sodipodi:end="1.1453958"
       sodipodi:open="true"
       d="m 162.79071,68.12899 a 7.2372704,8.7109623 0 0 1 8.22724,5.951339 7.2372704,8.7109623 0 0 1 -3.91733,10.547379"
       inkscape:export-xdpi="291.44101"
       inkscape:export-ydpi="291.44101" />
    <path
       inkscape:connector-curvature="0"
       id="path853"
       d="m 162.57808,68.345767 c 4.58012,-1.27222 7.12883,3.094424 7.17653,3.203177 0.0187,-0.0187 1.78091,2.639748 1.27733,6.921177 -0.46698,3.970214 -3.82424,5.999186 -3.88231,6.019814 l -48.58218,18.674995 c 0,0 3.83338,-2.63763 4.30585,-6.370141 0.47247,-3.732517 -0.75544,-5.818082 -0.75544,-5.818082 0,0 -2.05785,-4.92862 -8.2003,-4.42594 z"
       style="opacity:1;fill:url(#linearGradient861);fill-opacity:1;stroke:none;stroke-width:0.15699999;stroke-linecap:square;stroke-miterlimit:4;stroke-dasharray:none;stroke-dashoffset:0;stroke-opacity:1"
       sodipodi:nodetypes="ccsccsccc"
       inkscape:export-xdpi="291.44101"
       inkscape:export-ydpi="291.44101" />
    <ellipse
       style="opacity:1;fill:none;fill-opacity:1;stroke:#000000;stroke-width:0.157;stroke-linecap:square;stroke-miterlimit:4;stroke-dasharray:none;stroke-dashoffset:0;stroke-opacity:1"
       id="path815"
       cx="115.72771"
       cy="95.077866"
       rx="7.2162771"
       ry="8.6862593"
       inkscape:export-xdpi="291.44101"
       inkscape:export-ydpi="291.44101" />
    <ellipse
       style="opacity:1;fill:none;fill-opacity:1;stroke:#dedede;stroke-width:0.257;stroke-linecap:square;stroke-miterlimit:4;stroke-dasharray:none;stroke-dashoffset:0;stroke-opacity:1"
       id="ellipse865"
       cx="115.72771"
       cy="95.077873"
       rx="6.7407365"
       ry="8.1168928"
       inkscape:export-xdpi="291.44101"
       inkscape:export-ydpi="291.44101" />
    <ellipse
       ry="8.2839365"
       rx="6.8799005"
       cy="95.077873"
       cx="115.72771"
       id="ellipse867"
       style="opacity:1;fill:none;fill-opacity:1;stroke:#dedede;stroke-width:0.257;stroke-linecap:square;stroke-miterlimit:4;stroke-dasharray:none;stroke-dashoffset:0;stroke-opacity:1"
       inkscape:export-xdpi="291.44101"
       inkscape:export-ydpi="291.44101" />
    <ellipse
       style="opacity:1;fill:none;fill-opacity:1;stroke:#dedede;stroke-width:0.257;stroke-linecap:square;stroke-miterlimit:4;stroke-dasharray:none;stroke-dashoffset:0;stroke-opacity:1"
       id="ellipse869"
       cx="115.72771"
       cy="95.077873"
       rx="7.0329809"
       ry="8.4676838"
       inkscape:export-xdpi="291.44101"
       inkscape:export-ydpi="291.44101" />
    <path
       style="opacity:1;fill:#808080;fill-opacity:1;stroke:#000000;stroke-width:0.257;stroke-linecap:square;stroke-miterlimit:4;stroke-dasharray:none;stroke-dashoffset:0;stroke-opacity:1;marker-start:url(#StopM);marker-end:url(#marker1157)"
       d="M 112.92039,82.876486 162.81324,64.261159"
       id="path871"
       inkscape:connector-curvature="0"
       sodipodi:nodetypes="cc"
       inkscape:export-xdpi="291.44101"
       inkscape:export-ydpi="291.44101" />
    <g
       id="g1516"
       ns1:jacobian_sqrt="0.761006"
       ns1:alignment="middle center"
       ns1:scale="2.15718317386"
       ns1:preamble="C:\\Users\\Buster\\AppData\\Roaming\\inkscape\\extensions\\textext\\default_packages.tex"
       ns1:text="$11\\text{m}$"
       ns1:pdfconverter="pdf2svg"
       ns1:texconverter="pdflatex"
       ns1:version="0.11.0"
       transform="matrix(0.4993963,0,0,0.4993963,55.8375,4.3411386)"
       inkscape:export-xdpi="291.44101"
       inkscape:export-ydpi="291.44101"
       style="stroke-width:1.52385187">
      <g
         id="surface1"
         style="stroke-width:1.52385187">
        <g
           id="g1513"
           style="fill:#000000;fill-opacity:1;stroke-width:1.52385187">
          <path
             id="path1507"
             transform="translate(148.712,134.765)"
             d="m 2.9375,-6.375 c 0,-0.25 0,-0.265625 -0.234375,-0.265625 C 2.078125,-6 1.203125,-6 0.890625,-6 v 0.3125 c 0.203125,0 0.78125,0 1.296875,-0.265625 v 5.171875 c 0,0.359375 -0.03125,0.46875 -0.921875,0.46875 h -0.3125 V 0 c 0.34375,-0.03125 1.203125,-0.03125 1.609375,-0.03125 0.390625,0 1.265625,0 1.609375,0.03125 v -0.3125 h -0.3125 c -0.90625,0 -0.921875,-0.109375 -0.921875,-0.46875 z m 0,0"
             style="stroke:none;stroke-width:0"
             inkscape:connector-curvature="0" />
          <path
             id="path1509"
             transform="translate(153.6933,134.765)"
             d="m 2.9375,-6.375 c 0,-0.25 0,-0.265625 -0.234375,-0.265625 C 2.078125,-6 1.203125,-6 0.890625,-6 v 0.3125 c 0.203125,0 0.78125,0 1.296875,-0.265625 v 5.171875 c 0,0.359375 -0.03125,0.46875 -0.921875,0.46875 h -0.3125 V 0 c 0.34375,-0.03125 1.203125,-0.03125 1.609375,-0.03125 0.390625,0 1.265625,0 1.609375,0.03125 v -0.3125 h -0.3125 c -0.90625,0 -0.921875,-0.109375 -0.921875,-0.46875 z m 0,0"
             style="stroke:none;stroke-width:0"
             inkscape:connector-curvature="0" />
          <path
             id="path1511"
             transform="translate(158.6746,134.765)"
             d="M 1.09375,-3.421875 V -0.75 c 0,0.4375 -0.109375,0.4375 -0.78125,0.4375 V 0 c 0.359375,-0.015625 0.859375,-0.03125 1.140625,-0.03125 0.25,0 0.765625,0.015625 1.109375,0.03125 v -0.3125 c -0.671875,0 -0.78125,0 -0.78125,-0.4375 V -2.59375 C 1.78125,-3.625 2.5,-4.1875 3.125,-4.1875 c 0.640625,0 0.75,0.53125 0.75,1.109375 V -0.75 c 0,0.4375 -0.109375,0.4375 -0.78125,0.4375 V 0 c 0.34375,-0.015625 0.859375,-0.03125 1.125,-0.03125 0.25,0 0.78125,0.015625 1.109375,0.03125 v -0.3125 c -0.65625,0 -0.765625,0 -0.765625,-0.4375 v -1.84375 c 0,-1.03125 0.703125,-1.59375 1.34375,-1.59375 0.625,0 0.734375,0.53125 0.734375,1.109375 V -0.75 c 0,0.4375 -0.109375,0.4375 -0.78125,0.4375 V 0 c 0.34375,-0.015625 0.859375,-0.03125 1.125,-0.03125 0.265625,0 0.78125,0.015625 1.125,0.03125 v -0.3125 c -0.515625,0 -0.765625,0 -0.78125,-0.296875 v -1.90625 c 0,-0.859375 0,-1.15625 -0.3125,-1.515625 -0.140625,-0.171875 -0.46875,-0.375 -1.046875,-0.375 -0.828125,0 -1.28125,0.59375 -1.4375,0.984375 C 4.390625,-4.296875 3.65625,-4.40625 3.203125,-4.40625 2.46875,-4.40625 2,-3.984375 1.71875,-3.359375 V -4.40625 L 0.3125,-4.296875 v 0.3125 c 0.703125,0 0.78125,0.0625 0.78125,0.5625 z m 0,0"
             style="stroke:none;stroke-width:0"
             inkscape:connector-curvature="0" />
        </g>
      </g>
    </g>
  </g>
</svg>
