<?xml version="1.0" encoding="UTF-8" standalone="no"?>
<!-- Created with Inkscape (http://www.inkscape.org/) -->

<svg
   xmlns:dc="http://purl.org/dc/elements/1.1/"
   xmlns:cc="http://creativecommons.org/ns#"
   xmlns:rdf="http://www.w3.org/1999/02/22-rdf-syntax-ns#"
   xmlns:svg="http://www.w3.org/2000/svg"
   xmlns="http://www.w3.org/2000/svg"
   xmlns:xlink="http://www.w3.org/1999/xlink"
   xmlns:sodipodi="http://sodipodi.sourceforge.net/DTD/sodipodi-0.dtd"
   xmlns:inkscape="http://www.inkscape.org/namespaces/inkscape"
   width="210mm"
   height="297mm"
   viewBox="0 0 210 297"
   version="1.1"
   id="svg2925"
   inkscape:version="0.92.4 (5da689c313, 2019-01-14)"
   sodipodi:docname="TreeExercise.svg">
  <defs
     id="defs2919">
    <linearGradient
       inkscape:collect="always"
       id="linearGradient4791">
      <stop
         style="stop-color:#547ec7;stop-opacity:1"
         offset="0"
         id="stop4787" />
      <stop
         style="stop-color:#264172;stop-opacity:0.96862745"
         offset="1"
         id="stop4789" />
    </linearGradient>
    <marker
       inkscape:stockid="TriangleOutM"
       orient="auto"
       refY="0.0"
       refX="0.0"
       id="TriangleOutM"
       style="overflow:visible"
       inkscape:isstock="true">
      <path
         id="path3667"
         d="M 5.77,0.0 L -2.88,5.0 L -2.88,-5.0 L 5.77,0.0 z "
         style="fill-rule:evenodd;stroke:#00db07;stroke-width:1pt;stroke-opacity:0.469697;fill:#00db07;fill-opacity:0.469697"
         transform="scale(0.4)" />
    </marker>
    <linearGradient
       inkscape:collect="always"
       id="linearGradient3476">
      <stop
         style="stop-color:#462e00;stop-opacity:1;"
         offset="0"
         id="stop3472" />
      <stop
         id="stop3480"
         offset="0.54529637"
         style="stop-color:#674400;stop-opacity:1" />
      <stop
         style="stop-color:#342200;stop-opacity:0.8392157"
         offset="1"
         id="stop3474" />
    </linearGradient>
    <linearGradient
       inkscape:collect="always"
       xlink:href="#linearGradient3476"
       id="linearGradient3478"
       x1="55.085255"
       y1="145.62035"
       x2="133.58347"
       y2="144.8644"
       gradientUnits="userSpaceOnUse" />
    <linearGradient
       inkscape:collect="always"
       xlink:href="#linearGradient4791"
       id="linearGradient4793"
       x1="168.11253"
       y1="187.55315"
       x2="14.165293"
       y2="174.7242"
       gradientUnits="userSpaceOnUse"
       gradientTransform="matrix(1.2590266,0,0,1,-23.55664,0)" />
    <linearGradient
       inkscape:collect="always"
       xlink:href="#linearGradient3476"
       id="linearGradient4801"
       gradientUnits="userSpaceOnUse"
       x1="55.085255"
       y1="145.62035"
       x2="133.58347"
       y2="144.8644"
       gradientTransform="matrix(-0.42703267,0,0,0.42703267,215.43647,148.79431)" />
    <filter
       inkscape:collect="always"
       style="color-interpolation-filters:sRGB"
       id="filter4887"
       x="-0.083375115"
       width="1.1667502"
       y="-0.063356134"
       height="1.1267123">
      <feGaussianBlur
         inkscape:collect="always"
         stdDeviation="3.7690409"
         id="feGaussianBlur4889" />
    </filter>
    <filter
       inkscape:collect="always"
       style="color-interpolation-filters:sRGB"
       id="filter4950"
       x="-0.09733377"
       width="1.1946675"
       y="-0.12129163"
       height="1.2425833">
      <feGaussianBlur
         inkscape:collect="always"
         stdDeviation="2.5368259"
         id="feGaussianBlur4952" />
    </filter>
  </defs>
  <sodipodi:namedview
     id="base"
     pagecolor="#ffffff"
     bordercolor="#666666"
     borderopacity="1.0"
     inkscape:pageopacity="0.0"
     inkscape:pageshadow="2"
     inkscape:zoom="0.9899495"
     inkscape:cx="524.24468"
     inkscape:cy="421.73962"
     inkscape:document-units="mm"
     inkscape:current-layer="layer1"
     showgrid="false"
     inkscape:snap-global="false"
     inkscape:window-width="1920"
     inkscape:window-height="1017"
     inkscape:window-x="-8"
     inkscape:window-y="-8"
     inkscape:window-maximized="1" />
  <metadata
     id="metadata2922">
    <rdf:RDF>
      <cc:Work
         rdf:about="">
        <dc:format>image/svg+xml</dc:format>
        <dc:type
           rdf:resource="http://purl.org/dc/dcmitype/StillImage" />
        <dc:title />
      </cc:Work>
    </rdf:RDF>
  </metadata>
  <g
     inkscape:label="Layer 1"
     inkscape:groupmode="layer"
     id="layer1">
    <rect
       style="opacity:1;fill:url(#linearGradient4793);fill-opacity:1;stroke:none;stroke-width:0.65699995;stroke-linecap:square;stroke-miterlimit:4;stroke-dasharray:none;stroke-dashoffset:0;stroke-opacity:1"
       id="rect4785"
       width="214.35017"
       height="142.45467"
       x="-9.087163"
       y="117.39488" />
    <path
       style="opacity:1;fill:url(#linearGradient3478);fill-opacity:1;stroke:none;stroke-width:0.55700004;stroke-linecap:square;stroke-miterlimit:4;stroke-dasharray:none;stroke-dashoffset:0;stroke-opacity:1"
       d="m 32.127977,245.97321 20.032736,-15.875 4.535715,-20.03274 11.339285,-181.428566 58.208327,-0.377976 9.44941,201.083332 3.40178,7.18154 18.52084,8.31548 10.58333,15.11905 -150.056543,-0.37798 6.425595,-11.33929 z"
       id="path3470"
       inkscape:connector-curvature="0" />
    <path
       style="opacity:1;fill:#4d3300;fill-opacity:1;stroke:none;stroke-width:0.55700004;stroke-linecap:square;stroke-miterlimit:4;stroke-dasharray:none;stroke-dashoffset:0;stroke-opacity:1"
       d="m 119.44047,88.735118 54.42858,3.02381 49.1369,-7.559524 -43.84524,14.363093 -31.37202,-2.267854 -27.21429,6.425597 z"
       id="path3482"
       inkscape:connector-curvature="0" />
    <path
       style="opacity:1;fill:#4d3300;fill-opacity:1;stroke:none;stroke-width:0.55700004;stroke-linecap:square;stroke-miterlimit:4;stroke-dasharray:none;stroke-dashoffset:0;stroke-opacity:1"
       d="m 119.44047,88.829612 c 0,0 -5.76413,6.99256 -2.55134,10.488838 3.2128,3.49628 3.40179,3.1183 3.77977,3.02381 0.37797,-0.0945 -1.22843,-13.512648 -1.22843,-13.512648 z"
       id="path3484"
       inkscape:connector-curvature="0" />
    <ellipse
       style="opacity:1;fill:#3e2900;fill-opacity:1;stroke:none;stroke-width:0.55700004;stroke-linecap:square;stroke-miterlimit:4;stroke-dasharray:none;stroke-dashoffset:0;stroke-opacity:1"
       id="path3486"
       cx="62.555061"
       cy="151.29019"
       rx="3.5907736"
       ry="16.819941" />
    <ellipse
       ry="12.393641"
       rx="2.645833"
       cy="147.78995"
       cx="18.290123"
       id="ellipse3488"
       style="opacity:1;fill:#3e2900;fill-opacity:1;stroke:none;stroke-width:0.55700004;stroke-linecap:square;stroke-miterlimit:4;stroke-dasharray:none;stroke-dashoffset:0;stroke-opacity:1"
       transform="rotate(17.880725)" />
    <path
       style="opacity:1;fill:#3e2900;fill-opacity:1;stroke:none;stroke-width:0.55700004;stroke-linecap:square;stroke-miterlimit:4;stroke-dasharray:none;stroke-dashoffset:0;stroke-opacity:1"
       d="m -31.058897,157.79405 94.872023,9.44941 -0.377976,-32.12798 h -87.3125 z"
       id="path3490"
       inkscape:connector-curvature="0" />
    <ellipse
       style="opacity:1;fill:#241800;fill-opacity:1;stroke:none;stroke-width:0.55741191;stroke-linecap:square;stroke-miterlimit:4;stroke-dasharray:none;stroke-dashoffset:0;stroke-opacity:1"
       id="path3492"
       cx="-19.153353"
       cy="311.37683"
       rx="1.3584181"
       ry="1.4624641"
       transform="matrix(0.89765412,-0.44070067,0.39127441,0.92027406,0,0)" />
    <path
       sodipodi:nodetypes="cc"
       inkscape:connector-curvature="0"
       id="path3496"
       d="M 105.11751,293.96652 69.718118,278.46312"
       style="opacity:1;fill:none;fill-opacity:1;stroke:#241800;stroke-width:0.55700004;stroke-linecap:square;stroke-miterlimit:4;stroke-dasharray:none;stroke-dashoffset:0;stroke-opacity:0.56565653" />
    <ellipse
       transform="matrix(-0.97969706,0.20048361,-0.14556096,-0.98934928,0,0)"
       ry="1.1144753"
       rx="1.031173"
       cy="-288.05164"
       cx="-27.703526"
       id="ellipse3500"
       style="opacity:1;fill:none;fill-opacity:1;stroke:#241800;stroke-width:0.55743361;stroke-linecap:square;stroke-miterlimit:4;stroke-dasharray:none;stroke-dashoffset:0;stroke-opacity:0.56565653" />
    <path
       style="opacity:1;fill:none;fill-opacity:1;stroke:#241800;stroke-width:0.45699999;stroke-linecap:square;stroke-miterlimit:4;stroke-dasharray:0.914, 2.742;stroke-dashoffset:0;stroke-opacity:1"
       id="path3502"
       sodipodi:type="arc"
       sodipodi:cx="94.588531"
       sodipodi:cy="223.8616"
       sodipodi:rx="40.348953"
       sodipodi:ry="10.205357"
       sodipodi:start="4.6511498"
       sodipodi:end="4.6365357"
       sodipodi:open="true"
       d="m 92.119139,213.67538 a 40.348953,10.205357 0 0 1 42.733421,9.52443 40.348953,10.205357 0 0 1 -37.500425,10.84318 40.348953,10.205357 0 0 1 -43.007437,-9.4452 40.348953,10.205357 0 0 1 37.186167,-10.9122" />
    <path
       style="opacity:1;fill:none;fill-opacity:1;stroke:#241800;stroke-width:0.55700004;stroke-linecap:square;stroke-miterlimit:4;stroke-dasharray:none;stroke-dashoffset:0;stroke-opacity:0.56565653"
       d="M 104.44934,296.03786 69.049944,280.53446"
       id="path3494"
       inkscape:connector-curvature="0"
       sodipodi:nodetypes="cc" />
    <path
       style="opacity:1;fill:#a0a0a0;fill-opacity:1;stroke:none;stroke-width:0.45700002;stroke-linecap:square;stroke-miterlimit:4;stroke-dasharray:0.91399999, 2.74199997;stroke-dashoffset:0;stroke-opacity:1"
       d="m 107.51838,295.09022 -2.68259,-0.99401 -0.66818,1.40317 2.81623,1.25387 z"
       id="path3506"
       inkscape:connector-curvature="0"
       sodipodi:nodetypes="ccccc" />
    <path
       style="opacity:1;fill:#5f5f5f;fill-opacity:0.43939394;stroke:none;stroke-width:0.45700002;stroke-linecap:square;stroke-miterlimit:4;stroke-dasharray:0.91399999, 2.74199997;stroke-dashoffset:0;stroke-opacity:1"
       d="m 104.85886,294.10612 -36.492417,-16.00493 -0.850447,1.55915 36.666644,15.84548 z"
       id="path3508"
       inkscape:connector-curvature="0"
       sodipodi:nodetypes="ccccc" />
    <path
       style="opacity:1;fill:#5f5f5f;fill-opacity:0.90909095;stroke:none;stroke-width:0.45700002;stroke-linecap:square;stroke-miterlimit:4;stroke-dasharray:0.91399999, 2.74199997;stroke-dashoffset:0;stroke-opacity:1"
       d="m 67.549775,279.62116 -1.670436,-1.72055 2.505652,0.23386 z"
       id="path3510"
       inkscape:connector-curvature="0" />
    <path
       style="opacity:1;fill:none;fill-opacity:0.90909095;stroke:#383734;stroke-width:0.15916763;stroke-linecap:square;stroke-miterlimit:4;stroke-dasharray:none;stroke-dashoffset:0;stroke-opacity:1"
       id="path3512"
       sodipodi:type="arc"
       sodipodi:cx="230.92297"
       sodipodi:cy="123.68845"
       sodipodi:rx="0.20016786"
       sodipodi:ry="0.32387838"
       sodipodi:start="0.94912306"
       sodipodi:end="4.6447695"
       sodipodi:open="true"
       d="m 231.03955,123.95174 a 0.20016786,0.32387838 0 0 1 -0.23128,0.002 0.20016786,0.32387838 0 0 1 -0.0781,-0.35222 0.20016786,0.32387838 0 0 1 0.17932,-0.23634"
       transform="matrix(0.62007171,0.78454514,-0.62007171,0.78454514,0,0)" />
    <path
       transform="matrix(0.62952796,0.77697783,-0.62952796,0.77697783,0,0)"
       d="m 232.53021,126.45312 a 0.3353202,0.5425595 0 0 1 -0.33995,-0.15909 0.3353202,0.5425595 0 0 1 -0.0625,-0.56361 0.3353202,0.5425595 0 0 1 0.28458,-0.34037"
       sodipodi:open="true"
       sodipodi:end="4.6317206"
       sodipodi:start="1.2964687"
       sodipodi:ry="0.5425595"
       sodipodi:rx="0.3353202"
       sodipodi:cy="125.93085"
       sodipodi:cx="232.43938"
       sodipodi:type="arc"
       id="path3514"
       style="opacity:1;fill:none;fill-opacity:0.90909095;stroke:#383734;stroke-width:0.15873505;stroke-linecap:square;stroke-miterlimit:4;stroke-dasharray:none;stroke-dashoffset:0;stroke-opacity:1" />
    <path
       style="opacity:1;fill:none;fill-opacity:0.90909095;stroke:#383734;stroke-width:0.158453;stroke-linecap:square;stroke-miterlimit:4;stroke-dasharray:none;stroke-dashoffset:0;stroke-opacity:1"
       id="path3516"
       sodipodi:type="arc"
       sodipodi:cx="233.90567"
       sodipodi:cy="127.46985"
       sodipodi:rx="0.48716438"
       sodipodi:ry="0.78824854"
       sodipodi:start="1.0733259"
       sodipodi:end="4.6317206"
       sodipodi:open="true"
       d="m 234.13815,128.16256 a 0.48716438,0.78824854 0 0 1 -0.54207,-0.0841 0.48716438,0.78824854 0 0 1 -0.15524,-0.84455 0.48716438,0.78824854 0 0 1 0.42557,-0.54974"
       transform="matrix(0.63631586,0.77142862,-0.63631586,0.77142862,0,0)" />
    <path
       style="opacity:1;fill:none;fill-opacity:0.90909095;stroke:#905e00;stroke-width:0.65700001;stroke-linecap:square;stroke-miterlimit:4;stroke-dasharray:none;stroke-dashoffset:0;stroke-opacity:0.93434347"
       d="m 100.56529,303.63821 11.52827,-14.74107"
       id="path3518"
       inkscape:connector-curvature="0" />
    <ellipse
       transform="matrix(0.46102409,-0.88738762,0.86102632,0.50856039,0,0)"
       ry="0.92211825"
       rx="0.85651481"
       cy="231.93648"
       cx="-200.5507"
       id="ellipse3504"
       style="opacity:1;fill:#a0a0a0;fill-opacity:1;stroke:none;stroke-width:0.55741191;stroke-linecap:square;stroke-miterlimit:4;stroke-dasharray:none;stroke-dashoffset:0;stroke-opacity:1"
       inkscape:transform-center-x="0.04273339"
       inkscape:transform-center-y="-0.12817644" />
    <path
       style="opacity:1;fill:none;fill-opacity:0.90909095;stroke:#00db07;stroke-width:0.35700008;stroke-linecap:square;stroke-miterlimit:4;stroke-dasharray:none;stroke-dashoffset:0;stroke-opacity:0.469697;marker-end:url(#TriangleOutM)"
       id="path3520"
       sodipodi:type="arc"
       sodipodi:cx="116.33657"
       sodipodi:cy="291.72012"
       sodipodi:rx="4.6144552"
       sodipodi:ry="4.5956249"
       sodipodi:start="5.3577015"
       sodipodi:end="2.9103073"
       sodipodi:open="true"
       d="m 119.11193,288.04862 a 4.6144552,4.5956249 0 0 1 1.55439,5.26077 4.6144552,4.5956249 0 0 1 -4.61066,2.99783 4.6144552,4.5956249 0 0 1 -4.21067,-3.53365"
       transform="matrix(-0.74813068,0.66355142,0.66283463,0.74876582,0,0)" />
    <g
       id="g4297"
       style="opacity:0.33800001"
       transform="translate(-14.552083,67.846726)">
      <path
         sodipodi:nodetypes="csc"
         inkscape:connector-curvature="0"
         id="path4272"
         d="m 121.44051,259.70424 c 0,0 2.21339,-30.1616 6.52148,-20.22355 3.35496,7.73931 2.0901,20.08448 2.50126,20.09717"
         style="opacity:1;fill:none;fill-opacity:0.90909095;stroke:#000000;stroke-width:0.65700001;stroke-linecap:square;stroke-miterlimit:4;stroke-dasharray:none;stroke-dashoffset:0;stroke-opacity:1" />
      <path
         sodipodi:nodetypes="cc"
         inkscape:connector-curvature="0"
         id="path4274"
         d="m 126.16743,237.57953 c 0,0 5.05241,-8.5166 4.11696,-21.54599"
         style="opacity:1;fill:none;fill-opacity:0.90909095;stroke:#000000;stroke-width:0.65699995;stroke-linecap:square;stroke-miterlimit:4;stroke-dasharray:none;stroke-dashoffset:0;stroke-opacity:1" />
      <ellipse
         transform="rotate(-7.316126)"
         ry="3.7325146"
         rx="2.9293153"
         cy="226.61078"
         cx="101.71091"
         id="path4276"
         style="opacity:1;fill:#dbc265;fill-opacity:1;stroke:#000000;stroke-width:0.65699995;stroke-linecap:square;stroke-miterlimit:4;stroke-dasharray:none;stroke-dashoffset:0;stroke-opacity:1" />
      <path
         sodipodi:nodetypes="ccc"
         inkscape:connector-curvature="0"
         id="path4280"
         d="m 123.67927,224.16998 c 0,0 4.36492,-5.89106 5.21536,-0.4104 0.85045,5.48065 0.28348,5.85863 0.28348,5.85863"
         style="opacity:1;fill:none;fill-opacity:1;stroke:#000000;stroke-width:0.65699995;stroke-linecap:square;stroke-miterlimit:4;stroke-dasharray:none;stroke-dashoffset:0;stroke-opacity:1" />
      <path
         inkscape:connector-curvature="0"
         id="path4284"
         d="m 117.73958,232.93303 c 0,0 4.44122,4.72471 7.9375,0.66146 3.49628,-4.06324 3.77977,-5.19717 3.77977,-5.19717"
         style="opacity:1;fill:none;fill-opacity:1;stroke:#000000;stroke-width:0.65699995;stroke-linecap:square;stroke-miterlimit:4;stroke-dasharray:none;stroke-dashoffset:0;stroke-opacity:1" />
    </g>
    <g
       id="g4853"
       style="filter:url(#filter4887)"
       transform="translate(0,2.4244201)">
      <path
         sodipodi:nodetypes="cccccccccccc"
         style="opacity:1;fill:url(#linearGradient4801);fill-opacity:1;stroke:none;stroke-width:0.55700004;stroke-linecap:square;stroke-miterlimit:4;stroke-dasharray:none;stroke-dashoffset:0;stroke-opacity:1"
         d="m 201.71677,253.8329 -8.55462,-6.77914 -1.9369,-8.55463 -7.51495,-121.44176 -20.31326,-0.0278 -5.9061,129.70135 -1.45267,3.06675 -7.90901,3.55098 -4.51942,6.45633 64.07905,-0.16141 -2.74395,-4.84225 z"
         id="path4795"
         inkscape:connector-curvature="0" />
      <path
         style="opacity:1;fill:#4d3300;fill-opacity:1;stroke:none;stroke-width:0.55700004;stroke-linecap:square;stroke-miterlimit:4;stroke-dasharray:none;stroke-dashoffset:0;stroke-opacity:1"
         d="m 164.43149,186.68711 -23.24278,1.29125 -20.98306,-3.22815 18.72335,6.1335 13.39688,-0.96845 11.62139,2.74394 z"
         id="path4797"
         inkscape:connector-curvature="0" />
      <path
         style="opacity:1;fill:#3e2900;fill-opacity:1;stroke:none;stroke-width:0.55700004;stroke-linecap:square;stroke-miterlimit:4;stroke-dasharray:none;stroke-dashoffset:0;stroke-opacity:1"
         d="m 228.69963,216.17753 -40.51344,4.0352 0.1614,-13.7197 h 37.28529 z"
         id="path4799"
         inkscape:connector-curvature="0" />
      <path
         inkscape:connector-curvature="0"
         id="path4847"
         d="m 178.20313,150.98207 10.46066,2.07669 9.44365,-5.19176 -8.42664,9.86437 -6.02941,-1.55754 -5.23033,4.41302 z"
         style="opacity:1;fill:#6a4600;fill-opacity:1;stroke:none;stroke-width:0.55700004;stroke-linecap:square;stroke-miterlimit:4;stroke-dasharray:none;stroke-dashoffset:0;stroke-opacity:1" />
    </g>
    <g
       id="g4900"
       style="opacity:0.85799997;filter:url(#filter4950)"
       transform="translate(-2.2678571,-0.75595238)">
      <path
         inkscape:connector-curvature="0"
         id="path4891"
         d="m -10.354727,180.44199 8.5526246,-1.20271 7.216277,0.40091 c 0,0 3.3408692,2.93996 4.4099468,3.20723 1.0690786,0.26727 7.6171816,-1.87089 7.8844506,-2.40543 0.26727,-0.53454 2.405426,-3.0736 3.608139,-3.0736 1.202713,0 4.409947,-0.13363 5.612661,0.66818 1.202711,0.80181 6.548101,4.54358 7.082642,4.94449 0.534537,0.4009 7.617182,0.13363 7.617182,0.13363 0,0 1.737251,-0.53454 3.474503,0.93544 1.737251,1.46999 4.009043,3.47451 4.276312,4.14268 0.267269,0.66817 0.801809,4.40995 0.400904,5.21176 -0.400904,0.8018 -2.806329,3.60813 -2.806329,3.60813 l -3.875408,2.13816 c 0,0 -1.870887,7.34991 -1.603618,8.01809 0.267269,0.66817 1.870887,2.67269 2.405425,3.4745 0.53454,0.80181 0.133636,2.80633 0.133636,2.80633 0,0 -0.668174,2.00452 -1.870888,2.53906 -1.202711,0.53454 -6.414468,0.66818 -6.949006,1.06908 -0.53454,0.4009 -3.741774,2.00452 -4.142679,2.67269 -0.400904,0.66818 -0.935442,3.74178 -2.138156,4.94449 -1.202714,1.20271 -4.543581,2.53906 -5.07812,2.80633 -0.53454,0.26727 -5.746295,-0.26727 -5.746295,-0.26727 l -4.810852,-4.67722 c 0,0 -1.202713,-2.13815 -2.80633,-2.13815 -1.6036166,0 -4.5435813,0 -5.211755,0 -0.6681738,0 -3.3408691,0.53454 -3.7417735,1.06907 -0.4009042,0.53455 -3.0735994,2.53907 -3.0735994,2.53907 l -4.2763125,0.26726 -3.8754079,-2.27178 -2.9399647,0.26726 z"
         style="opacity:1;fill:#023900;fill-opacity:1;stroke:none;stroke-width:0.65699995;stroke-linecap:square;stroke-miterlimit:4;stroke-dasharray:none;stroke-dashoffset:0;stroke-opacity:1" />
      <path
         inkscape:connector-curvature="0"
         id="path4893"
         d="m -7.7228068,203.69274 c 0,0 1.5780278,-4.99758 2.2287392,-5.55324 0.6507185,-0.55566 2.4431614,-0.94735 4.3349427,-2.41184 1.89178142,-1.46449 3.447502,-2.98507 4.0725407,-4.34213 0.6250397,-1.35706 3.3267749,-2.58009 4.4038633,-2.3472 1.0770877,0.2329 3.1447679,2.17221 1.5500769,4.56311 -1.5946924,2.3909 -3.5339975,4.45858 -3.5040418,5.39354 0.029956,0.93497 0.8998214,3.04635 0.744399,4.45521 -0.1554149,1.40887 -1.3708055,3.1191 -1.3708055,3.1191 0,0 -5.31651987,-1.09985 -5.46720282,-1.62984 -0.15068289,-0.52999 -3.55493708,1.71833 -3.80495148,2.26116 -0.2500141,0.54282 -3.1875602,-3.50787 -3.1875602,-3.50787 z"
         style="opacity:1;fill:#024800;fill-opacity:1;stroke:none;stroke-width:0.65699995;stroke-linecap:square;stroke-miterlimit:4;stroke-dasharray:none;stroke-dashoffset:0;stroke-opacity:1" />
      <path
         inkscape:connector-curvature="0"
         id="path4895"
         d="m 9.7328867,208.62514 4.9136903,-5.85863 6.236607,-1.13393 c 0,0 2.362351,-2.55134 3.02381,-3.02381 0.661458,-0.47247 7.559523,-1.5119 7.559523,-1.5119 0,0 2.929316,2.64583 3.212798,3.21279 0.283483,0.56697 -0.661458,2.36235 -0.94494,3.02381 -0.283483,0.66146 1.133927,3.96875 1.41741,4.34673 0.283482,0.37798 -0.188987,1.88988 -1.039435,2.55134 -0.850445,0.66146 -3.023809,0.94494 -3.401785,1.22842 -0.377975,0.28348 -1.700892,0.56697 -2.645833,1.88988 -0.944941,1.32292 -5.386161,5.85863 -5.386161,5.85863 0,0 -2.173363,1.13393 -2.740327,0 -0.566964,-1.13393 -1.228423,-5.10268 -1.228423,-5.10268 l -3.590774,-0.94494 -4.157738,-0.0945 z"
         style="opacity:1;fill:#012e00;fill-opacity:1;stroke:none;stroke-width:0.65699995;stroke-linecap:square;stroke-miterlimit:4;stroke-dasharray:none;stroke-dashoffset:0;stroke-opacity:1" />
    </g>
    <path
       style="opacity:1;fill:#012900;fill-opacity:0.969697;stroke:none;stroke-width:0.65699995;stroke-linecap:square;stroke-miterlimit:4;stroke-dasharray:none;stroke-dashoffset:0;stroke-opacity:1"
       d="m 5.9211595,258.60968 c 0,0 -7.780693,-9.1701 -3.056701,-17.92338 4.723991,-8.75328 1.667292,-14.5888 2.223055,-15.42245 0.555765,-0.83364 2.056604,-4.30185 2.89025,-4.30185 0.833646,0 3.7789145,-3.3399 10.4480795,0.41151 6.669167,3.75141 7.780694,6.53022 15.283506,3.89034 7.502813,-2.63987 10.698456,-1.66729 13.199393,0.6947 2.500936,2.36201 5.140814,6.80812 5.418695,8.33647 0.277885,1.52834 -0.972585,3.7514 -0.972585,6.39128 0,2.63988 -2.084113,3.75141 0.833646,7.22493 2.91776,3.47353 4.029287,5.14081 4.307169,5.69658 0.277882,0.55576 0.833647,5.97446 0.833647,5.97446 z"
       id="path4954"
       inkscape:connector-curvature="0"
       sodipodi:nodetypes="cscsscccscccc" />
    <rect
       style="opacity:1;fill:none;fill-opacity:1;stroke:none;stroke-width:0.75699997;stroke-linecap:square;stroke-miterlimit:4;stroke-dasharray:none;stroke-dashoffset:0;stroke-opacity:1"
       id="rect877"
       width="165.03893"
       height="108.24416"
       x="27.528759"
       y="151.33812"
       inkscape:export-xdpi="172.98708"
       inkscape:export-ydpi="172.98708" />
    <rect
       style="opacity:1;fill:none;fill-opacity:1;stroke:none;stroke-width:0.75699997;stroke-linecap:square;stroke-miterlimit:4;stroke-dasharray:none;stroke-dashoffset:0;stroke-opacity:1"
       id="rect874"
       width="150.24553"
       height="102.62054"
       x="24.379463"
       y="156.39285"
       inkscape:export-xdpi="205.23"
       inkscape:export-ydpi="205.23" />
  </g>
</svg>
