<?xml version="1.0" encoding="UTF-8" standalone="no"?>
<!-- Created with Inkscape (http://www.inkscape.org/) -->

<svg
   xmlns:ns1="http://www.iki.fi/pav/software/textext/"
   xmlns:dc="http://purl.org/dc/elements/1.1/"
   xmlns:cc="http://creativecommons.org/ns#"
   xmlns:rdf="http://www.w3.org/1999/02/22-rdf-syntax-ns#"
   xmlns:svg="http://www.w3.org/2000/svg"
   xmlns="http://www.w3.org/2000/svg"
   xmlns:sodipodi="http://sodipodi.sourceforge.net/DTD/sodipodi-0.dtd"
   xmlns:inkscape="http://www.inkscape.org/namespaces/inkscape"
   width="210mm"
   height="297mm"
   viewBox="0 0 210 297"
   version="1.1"
   id="svg8"
   inkscape:version="0.92.4 (5da689c313, 2019-01-14)"
   sodipodi:docname="ZerosParadox.svg">
  <defs
     id="defs2">
    <marker
       inkscape:isstock="true"
       style="overflow:visible"
       id="marker5146"
       refX="0.0"
       refY="0.0"
       orient="auto"
       inkscape:stockid="StopM">
      <path
         transform="scale(0.4)"
         style="fill:none;fill-opacity:0.75;fill-rule:evenodd;stroke:#4d4d4d;stroke-width:1pt;stroke-opacity:1"
         d="M 0.0,5.65 L 0.0,-5.65"
         id="path5144" />
    </marker>
    <marker
       inkscape:isstock="true"
       style="overflow:visible"
       id="marker5082"
       refX="0.0"
       refY="0.0"
       orient="auto"
       inkscape:stockid="StopM">
      <path
         transform="scale(0.4)"
         style="fill:none;fill-opacity:0.75;fill-rule:evenodd;stroke:#4d4d4d;stroke-width:1pt;stroke-opacity:1"
         d="M 0.0,5.65 L 0.0,-5.65"
         id="path5080" />
    </marker>
    <marker
       inkscape:stockid="StopM"
       orient="auto"
       refY="0.0"
       refX="0.0"
       id="marker3846"
       style="overflow:visible"
       inkscape:isstock="true"
       inkscape:collect="always">
      <path
         id="path3844"
         d="M 0.0,5.65 L 0.0,-5.65"
         style="fill:none;fill-opacity:0.75;fill-rule:evenodd;stroke:#4d4d4d;stroke-width:1pt;stroke-opacity:1"
         transform="scale(0.4)" />
    </marker>
    <marker
       inkscape:stockid="StopM"
       orient="auto"
       refY="0.0"
       refX="0.0"
       id="marker3794"
       style="overflow:visible"
       inkscape:isstock="true"
       inkscape:collect="always">
      <path
         id="path3792"
         d="M 0.0,5.65 L 0.0,-5.65"
         style="fill:none;fill-opacity:0.75;fill-rule:evenodd;stroke:#4d4d4d;stroke-width:1pt;stroke-opacity:1"
         transform="scale(0.4)" />
    </marker>
    <marker
       inkscape:isstock="true"
       style="overflow:visible"
       id="marker1718"
       refX="0.0"
       refY="0.0"
       orient="auto"
       inkscape:stockid="StopM"
       inkscape:collect="always">
      <path
         transform="scale(0.4)"
         style="fill:none;fill-opacity:0.75;fill-rule:evenodd;stroke:#4d4d4d;stroke-width:1pt;stroke-opacity:1"
         d="M 0.0,5.65 L 0.0,-5.65"
         id="path1716" />
    </marker>
    <marker
       inkscape:isstock="true"
       style="overflow:visible"
       id="marker1678"
       refX="0.0"
       refY="0.0"
       orient="auto"
       inkscape:stockid="StopM"
       inkscape:collect="always">
      <path
         transform="scale(0.4)"
         style="fill:none;fill-opacity:0.75;fill-rule:evenodd;stroke:#4d4d4d;stroke-width:1pt;stroke-opacity:1"
         d="M 0.0,5.65 L 0.0,-5.65"
         id="path1676" />
    </marker>
    <marker
       inkscape:stockid="StopM"
       orient="auto"
       refY="0.0"
       refX="0.0"
       id="marker1582"
       style="overflow:visible"
       inkscape:isstock="true"
       inkscape:collect="always">
      <path
         id="path1580"
         d="M 0.0,5.65 L 0.0,-5.65"
         style="fill:none;fill-opacity:0.75;fill-rule:evenodd;stroke:#4d4d4d;stroke-width:1pt;stroke-opacity:1"
         transform="scale(0.4)" />
    </marker>
    <marker
       inkscape:stockid="StopM"
       orient="auto"
       refY="0.0"
       refX="0.0"
       id="StopM"
       style="overflow:visible"
       inkscape:isstock="true"
       inkscape:collect="always">
      <path
         id="path1071"
         d="M 0.0,5.65 L 0.0,-5.65"
         style="fill:none;fill-opacity:0.75;fill-rule:evenodd;stroke:#4d4d4d;stroke-width:1pt;stroke-opacity:1"
         transform="scale(0.4)" />
    </marker>
    <marker
       inkscape:isstock="true"
       style="overflow:visible"
       id="marker1433"
       refX="0.0"
       refY="0.0"
       orient="auto"
       inkscape:stockid="TriangleOutM">
      <path
         transform="scale(0.4)"
         style="fill-rule:evenodd;stroke:#0f0fbd;stroke-width:1pt;stroke-opacity:1;fill:#0f0fbd;fill-opacity:1"
         d="M 5.77,0.0 L -2.88,5.0 L -2.88,-5.0 L 5.77,0.0 z "
         id="path1431" />
    </marker>
    <marker
       inkscape:stockid="TriangleOutM"
       orient="auto"
       refY="0.0"
       refX="0.0"
       id="TriangleOutM"
       style="overflow:visible"
       inkscape:isstock="true"
       inkscape:collect="always">
      <path
         id="path1044"
         d="M 5.77,0.0 L -2.88,5.0 L -2.88,-5.0 L 5.77,0.0 z "
         style="fill-rule:evenodd;stroke:#0f0fbd;stroke-width:1pt;stroke-opacity:1;fill:#0f0fbd;fill-opacity:1"
         transform="scale(0.4)" />
    </marker>
  </defs>
  <sodipodi:namedview
     id="base"
     pagecolor="#ffffff"
     bordercolor="#666666"
     borderopacity="1.0"
     inkscape:pageopacity="0.0"
     inkscape:pageshadow="2"
     inkscape:zoom="1.4"
     inkscape:cx="382.16172"
     inkscape:cy="461.97036"
     inkscape:document-units="mm"
     inkscape:current-layer="layer1"
     showgrid="false"
     inkscape:window-width="1920"
     inkscape:window-height="1017"
     inkscape:window-x="-8"
     inkscape:window-y="-8"
     inkscape:window-maximized="1"
     inkscape:snap-global="false" />
  <metadata
     id="metadata5">
    <rdf:RDF>
      <cc:Work
         rdf:about="">
        <dc:format>image/svg+xml</dc:format>
        <dc:type
           rdf:resource="http://purl.org/dc/dcmitype/StillImage" />
        <dc:title />
      </cc:Work>
    </rdf:RDF>
  </metadata>
  <g
     inkscape:label="Layer 1"
     inkscape:groupmode="layer"
     id="layer1">
    <circle
       style="opacity:1;fill:#000000;fill-opacity:1;stroke:none;stroke-width:0.34999999;stroke-linecap:square;stroke-miterlimit:4;stroke-dasharray:none;stroke-dashoffset:0;stroke-opacity:1"
       id="path830"
       cx="17.773424"
       cy="104.29867"
       r="2.0045214"
       inkscape:export-xdpi="134.51044"
       inkscape:export-ydpi="134.51044" />
    <path
       style="opacity:1;fill:#000000;fill-opacity:1;stroke:#000000;stroke-width:0.75;stroke-linecap:square;stroke-miterlimit:4;stroke-dasharray:none;stroke-dashoffset:0;stroke-opacity:1"
       d="M 20.032738,104.23214 H 176.13691"
       id="path832"
       inkscape:connector-curvature="0"
       inkscape:export-xdpi="134.51044"
       inkscape:export-ydpi="134.51044" />
    <circle
       r="2.0045214"
       cy="104.29867"
       cx="178.4133"
       id="circle834"
       style="opacity:1;fill:#000000;fill-opacity:1;stroke:none;stroke-width:0.34999999;stroke-linecap:square;stroke-miterlimit:4;stroke-dasharray:none;stroke-dashoffset:0;stroke-opacity:1"
       inkscape:export-xdpi="134.51044"
       inkscape:export-ydpi="134.51044" />
    <g
       id="g847"
       ns1:jacobian_sqrt="0.923577"
       ns1:alignment="middle center"
       ns1:scale="2.61801393859"
       ns1:preamble="C:\\Users\\Buster\\AppData\\Roaming\\inkscape\\extensions\\textext\\default_packages.tex"
       ns1:text="$\\text{A}$"
       ns1:pdfconverter="pdf2svg"
       ns1:texconverter="pdflatex"
       ns1:version="0.11.0"
       transform="matrix(1.3735093,0,0,1.3735093,-191.4751,-67.099958)"
       style="stroke-width:0.6724214"
       inkscape:export-xdpi="134.51044"
       inkscape:export-ydpi="134.51044">
      <g
         id="surface1"
         style="stroke-width:0.6724214">
        <g
           id="g844"
           style="fill:#000000;fill-opacity:1;stroke-width:0.6724214">
          <path
             id="path842"
             transform="translate(148.712,134.765)"
             d="m 3.96875,-6.9375 c -0.046875,-0.125 -0.078125,-0.203125 -0.234375,-0.203125 -0.15625,0 -0.1875,0.0625 -0.234375,0.203125 L 1.4375,-0.984375 C 1.25,-0.46875 0.859375,-0.3125 0.3125,-0.3125 V 0 c 0.234375,-0.015625 0.671875,-0.03125 1.015625,-0.03125 0.3125,0 0.828125,0.015625 1.15625,0.03125 v -0.3125 c -0.5,0 -0.75,-0.25 -0.75,-0.5 0,-0.03125 0.015625,-0.140625 0.015625,-0.15625 L 2.21875,-2.265625 H 4.671875 L 5.203125,-0.75 c 0.015625,0.046875 0.03125,0.109375 0.03125,0.140625 0,0.296875 -0.5625,0.296875 -0.828125,0.296875 V 0 c 0.359375,-0.03125 1.0625,-0.03125 1.4375,-0.03125 0.421875,0 0.890625,0.015625 1.296875,0.03125 V -0.3125 H 6.96875 C 6.375,-0.3125 6.234375,-0.375 6.125,-0.703125 Z m -0.53125,1.109375 1.125,3.25 H 2.328125 Z m 0,0"
             style="stroke:none;stroke-width:0"
             inkscape:connector-curvature="0" />
        </g>
      </g>
    </g>
    <g
       id="g879"
       ns1:jacobian_sqrt="1.373509"
       ns1:alignment="middle center"
       ns1:scale="3.89341277683"
       ns1:preamble="C:\\Users\\Buster\\AppData\\Roaming\\inkscape\\extensions\\textext\\default_packages.tex"
       ns1:text="$\\text{B}$"
       ns1:pdfconverter="pdf2svg"
       ns1:texconverter="pdflatex"
       ns1:version="0.11.0"
       transform="matrix(1.373509,0,0,1.373509,-30.416682,-67.546673)"
       inkscape:export-xdpi="134.51044"
       inkscape:export-ydpi="134.51044">
      <g
         id="g877">
        <g
           id="g875"
           style="fill:#000000;fill-opacity:1">
          <path
             id="path873"
             transform="translate(148.712,134.765)"
             d="m 2.21875,-3.65625 v -2.4375 C 2.21875,-6.4375 2.234375,-6.5 2.703125,-6.5 H 3.9375 c 0.96875,0 1.3125,0.84375 1.3125,1.375 0,0.640625 -0.484375,1.46875 -1.59375,1.46875 z M 4.5625,-3.5625 C 5.53125,-3.75 6.21875,-4.390625 6.21875,-5.125 6.21875,-5.984375 5.296875,-6.8125 4,-6.8125 H 0.359375 V -6.5 H 0.59375 c 0.765625,0 0.796875,0.109375 0.796875,0.46875 v 5.25 c 0,0.359375 -0.03125,0.46875 -0.796875,0.46875 H 0.359375 V 0 h 3.90625 c 1.328125,0 2.21875,-0.890625 2.21875,-1.828125 0,-0.859375 -0.8125,-1.609375 -1.921875,-1.734375 z m -0.609375,3.25 h -1.25 c -0.46875,0 -0.484375,-0.0625 -0.484375,-0.390625 v -2.71875 h 1.875 C 5.078125,-3.421875 5.5,-2.5 5.5,-1.828125 5.5,-1.125 4.96875,-0.3125 3.953125,-0.3125 Z m 0,0"
             style="stroke:none;stroke-width:0"
             inkscape:connector-curvature="0" />
        </g>
      </g>
    </g>
    <path
       style="opacity:1;fill:none;fill-opacity:1;stroke:#747474;stroke-width:0.75;stroke-linecap:square;stroke-miterlimit:4;stroke-dasharray:none;stroke-dashoffset:0;stroke-opacity:1"
       d="m 14.376121,101.97612 3.271617,-8.06699 3.36004,7.89351"
       id="path887"
       inkscape:connector-curvature="0"
       sodipodi:nodetypes="ccc"
       inkscape:export-xdpi="134.51044"
       inkscape:export-ydpi="134.51044" />
    <path
       style="opacity:1;fill:none;fill-opacity:1;stroke:#747474;stroke-width:0.75;stroke-linecap:square;stroke-miterlimit:4;stroke-dasharray:none;stroke-dashoffset:0;stroke-opacity:1"
       d="M 17.647738,93.909129 V 83.760341"
       id="path889"
       inkscape:connector-curvature="0"
       inkscape:export-xdpi="134.51044"
       inkscape:export-ydpi="134.51044" />
    <path
       style="opacity:1;fill:none;fill-opacity:1;stroke:#747474;stroke-width:0.75;stroke-linecap:square;stroke-miterlimit:4;stroke-dasharray:none;stroke-dashoffset:0;stroke-opacity:1"
       d="m 18.001429,85.668662 3.978993,5.985183"
       id="path891"
       inkscape:connector-curvature="0"
       inkscape:export-xdpi="134.51044"
       inkscape:export-ydpi="134.51044" />
    <path
       style="opacity:1;fill:none;fill-opacity:1;stroke:#747474;stroke-width:0.75;stroke-linecap:square;stroke-miterlimit:4;stroke-dasharray:none;stroke-dashoffset:0;stroke-opacity:1"
       d="m 17.294051,85.755405 -3.978994,6.245407"
       id="path893"
       inkscape:connector-curvature="0"
       inkscape:export-xdpi="134.51044"
       inkscape:export-ydpi="134.51044" />
    <ellipse
       style="opacity:1;fill:none;fill-opacity:1;stroke:#747474;stroke-width:0.75;stroke-linecap:square;stroke-miterlimit:4;stroke-dasharray:none;stroke-dashoffset:0;stroke-opacity:1"
       id="path895"
       cx="17.647739"
       cy="81.027985"
       rx="2.1221302"
       ry="2.2119153"
       inkscape:export-xdpi="134.51044"
       inkscape:export-ydpi="134.51044" />
    <path
       style="opacity:1;fill:none;fill-opacity:1;stroke:#0f0fbd;stroke-width:0.75;stroke-linecap:square;stroke-miterlimit:4;stroke-dasharray:none;stroke-dashoffset:0;stroke-opacity:1;marker-end:url(#TriangleOutM)"
       d="M 24.28497,89.869038 H 41.671874"
       id="path897"
       inkscape:connector-curvature="0"
       inkscape:export-xdpi="134.51044"
       inkscape:export-ydpi="134.51044" />
    <circle
       inkscape:export-ydpi="134.51044"
       inkscape:export-xdpi="134.51044"
       r="2.0045214"
       cy="181.00502"
       cx="4.9761286"
       id="circle1397"
       style="opacity:1;fill:#000000;fill-opacity:1;stroke:none;stroke-width:0.34999999;stroke-linecap:square;stroke-miterlimit:4;stroke-dasharray:none;stroke-dashoffset:0;stroke-opacity:1" />
    <path
       inkscape:export-ydpi="134.51044"
       inkscape:export-xdpi="134.51044"
       inkscape:connector-curvature="0"
       id="path1399"
       d="M 7.2354431,180.93849 H 163.33961"
       style="opacity:1;fill:#000000;fill-opacity:1;stroke:#000000;stroke-width:0.75;stroke-linecap:square;stroke-miterlimit:4;stroke-dasharray:none;stroke-dashoffset:0;stroke-opacity:1" />
    <circle
       inkscape:export-ydpi="134.51044"
       inkscape:export-xdpi="134.51044"
       style="opacity:1;fill:#000000;fill-opacity:1;stroke:none;stroke-width:0.34999999;stroke-linecap:square;stroke-miterlimit:4;stroke-dasharray:none;stroke-dashoffset:0;stroke-opacity:1"
       id="circle1401"
       cx="165.61601"
       cy="181.00502"
       r="2.0045214" />
    <g
       inkscape:export-ydpi="134.51044"
       inkscape:export-xdpi="134.51044"
       style="stroke-width:0.6724214"
       transform="matrix(1.3735093,0,0,1.3735093,-204.2724,9.6063964)"
       ns1:version="0.11.0"
       ns1:texconverter="pdflatex"
       ns1:pdfconverter="pdf2svg"
       ns1:text="$\\text{A}$"
       ns1:preamble="C:\\Users\\Buster\\AppData\\Roaming\\inkscape\\extensions\\textext\\default_packages.tex"
       ns1:scale="2.61801393859"
       ns1:alignment="middle center"
       ns1:jacobian_sqrt="0.923577"
       id="g1409">
      <g
         style="stroke-width:0.6724214"
         id="g1407">
        <g
           style="fill:#000000;fill-opacity:1;stroke-width:0.6724214"
           id="g1405">
          <path
             inkscape:connector-curvature="0"
             style="stroke:none;stroke-width:0"
             d="m 3.96875,-6.9375 c -0.046875,-0.125 -0.078125,-0.203125 -0.234375,-0.203125 -0.15625,0 -0.1875,0.0625 -0.234375,0.203125 L 1.4375,-0.984375 C 1.25,-0.46875 0.859375,-0.3125 0.3125,-0.3125 V 0 c 0.234375,-0.015625 0.671875,-0.03125 1.015625,-0.03125 0.3125,0 0.828125,0.015625 1.15625,0.03125 v -0.3125 c -0.5,0 -0.75,-0.25 -0.75,-0.5 0,-0.03125 0.015625,-0.140625 0.015625,-0.15625 L 2.21875,-2.265625 H 4.671875 L 5.203125,-0.75 c 0.015625,0.046875 0.03125,0.109375 0.03125,0.140625 0,0.296875 -0.5625,0.296875 -0.828125,0.296875 V 0 c 0.359375,-0.03125 1.0625,-0.03125 1.4375,-0.03125 0.421875,0 0.890625,0.015625 1.296875,0.03125 V -0.3125 H 6.96875 C 6.375,-0.3125 6.234375,-0.375 6.125,-0.703125 Z m -0.53125,1.109375 1.125,3.25 H 2.328125 Z m 0,0"
             transform="translate(148.712,134.765)"
             id="path1403" />
        </g>
      </g>
    </g>
    <g
       inkscape:export-ydpi="134.51044"
       inkscape:export-xdpi="134.51044"
       transform="matrix(1.373509,0,0,1.373509,-43.213977,9.1596814)"
       ns1:version="0.11.0"
       ns1:texconverter="pdflatex"
       ns1:pdfconverter="pdf2svg"
       ns1:text="$\\text{B}$"
       ns1:preamble="C:\\Users\\Buster\\AppData\\Roaming\\inkscape\\extensions\\textext\\default_packages.tex"
       ns1:scale="3.89341277683"
       ns1:alignment="middle center"
       ns1:jacobian_sqrt="1.373509"
       id="g1417">
      <g
         id="g1415">
        <g
           style="fill:#000000;fill-opacity:1"
           id="g1413">
          <path
             inkscape:connector-curvature="0"
             style="stroke:none;stroke-width:0"
             d="m 2.21875,-3.65625 v -2.4375 C 2.21875,-6.4375 2.234375,-6.5 2.703125,-6.5 H 3.9375 c 0.96875,0 1.3125,0.84375 1.3125,1.375 0,0.640625 -0.484375,1.46875 -1.59375,1.46875 z M 4.5625,-3.5625 C 5.53125,-3.75 6.21875,-4.390625 6.21875,-5.125 6.21875,-5.984375 5.296875,-6.8125 4,-6.8125 H 0.359375 V -6.5 H 0.59375 c 0.765625,0 0.796875,0.109375 0.796875,0.46875 v 5.25 c 0,0.359375 -0.03125,0.46875 -0.796875,0.46875 H 0.359375 V 0 h 3.90625 c 1.328125,0 2.21875,-0.890625 2.21875,-1.828125 0,-0.859375 -0.8125,-1.609375 -1.921875,-1.734375 z m -0.609375,3.25 h -1.25 c -0.46875,0 -0.484375,-0.0625 -0.484375,-0.390625 v -2.71875 h 1.875 C 5.078125,-3.421875 5.5,-2.5 5.5,-1.828125 5.5,-1.125 4.96875,-0.3125 3.953125,-0.3125 Z m 0,0"
             transform="translate(148.712,134.765)"
             id="path1411" />
        </g>
      </g>
    </g>
    <path
       inkscape:export-ydpi="134.51044"
       inkscape:export-xdpi="134.51044"
       sodipodi:nodetypes="ccc"
       inkscape:connector-curvature="0"
       id="path1419"
       d="m 1.5788261,178.68247 3.271617,-8.06699 3.36004,7.89351"
       style="opacity:1;fill:none;fill-opacity:1;stroke:#747474;stroke-width:0.75;stroke-linecap:square;stroke-miterlimit:4;stroke-dasharray:none;stroke-dashoffset:0;stroke-opacity:1" />
    <path
       inkscape:export-ydpi="134.51044"
       inkscape:export-xdpi="134.51044"
       inkscape:connector-curvature="0"
       id="path1421"
       d="M 4.8504431,170.61548 V 160.4667"
       style="opacity:1;fill:none;fill-opacity:1;stroke:#747474;stroke-width:0.75;stroke-linecap:square;stroke-miterlimit:4;stroke-dasharray:none;stroke-dashoffset:0;stroke-opacity:1" />
    <path
       inkscape:export-ydpi="134.51044"
       inkscape:export-xdpi="134.51044"
       inkscape:connector-curvature="0"
       id="path1423"
       d="m 5.2041341,162.37502 3.978993,5.98518"
       style="opacity:1;fill:none;fill-opacity:1;stroke:#747474;stroke-width:0.75;stroke-linecap:square;stroke-miterlimit:4;stroke-dasharray:none;stroke-dashoffset:0;stroke-opacity:1" />
    <path
       inkscape:export-ydpi="134.51044"
       inkscape:export-xdpi="134.51044"
       inkscape:connector-curvature="0"
       id="path1425"
       d="m 4.4967561,162.46176 -3.97899396,6.24541"
       style="opacity:1;fill:none;fill-opacity:1;stroke:#747474;stroke-width:0.75;stroke-linecap:square;stroke-miterlimit:4;stroke-dasharray:none;stroke-dashoffset:0;stroke-opacity:1" />
    <ellipse
       inkscape:export-ydpi="134.51044"
       inkscape:export-xdpi="134.51044"
       ry="2.2119153"
       rx="2.1221302"
       cy="157.73434"
       cx="4.8504438"
       id="ellipse1427"
       style="opacity:1;fill:none;fill-opacity:1;stroke:#747474;stroke-width:0.75;stroke-linecap:square;stroke-miterlimit:4;stroke-dasharray:none;stroke-dashoffset:0;stroke-opacity:1" />
    <path
       inkscape:export-ydpi="134.51044"
       inkscape:export-xdpi="134.51044"
       inkscape:connector-curvature="0"
       id="path1429"
       d="M 11.487675,166.57539 H 28.874579"
       style="opacity:1;fill:none;fill-opacity:1;stroke:#0f0fbd;stroke-width:0.75;stroke-linecap:square;stroke-miterlimit:4;stroke-dasharray:none;stroke-dashoffset:0;stroke-opacity:1;marker-end:url(#marker1433)" />
    <path
       style="opacity:1;fill:none;fill-opacity:1;stroke:#8e8e8e;stroke-width:0.64999998;stroke-linecap:square;stroke-miterlimit:4;stroke-dasharray:2.6, 2.6;stroke-dashoffset:0;stroke-opacity:1"
       d="m 85.325,145.05356 v 68.2247"
       id="path1465"
       inkscape:connector-curvature="0"
       inkscape:export-xdpi="134.51044"
       inkscape:export-ydpi="134.51044" />
    <path
       inkscape:connector-curvature="0"
       id="path1467"
       d="m 127.825,145.05356 v 68.2247"
       style="opacity:1;fill:none;fill-opacity:1;stroke:#8e8e8e;stroke-width:0.64999998;stroke-linecap:square;stroke-miterlimit:4;stroke-dasharray:2.6, 2.6;stroke-dashoffset:0;stroke-opacity:1"
       inkscape:export-xdpi="134.51044"
       inkscape:export-ydpi="134.51044" />
    <path
       style="opacity:1;fill:none;fill-opacity:1;stroke:#8e8e8e;stroke-width:0.64999998;stroke-linecap:square;stroke-miterlimit:4;stroke-dasharray:2.6, 2.6;stroke-dashoffset:0;stroke-opacity:1"
       d="m 148.31905,145.24255 v 68.2247"
       id="path1469"
       inkscape:connector-curvature="0"
       inkscape:export-xdpi="134.51044"
       inkscape:export-ydpi="134.51044" />
    <path
       inkscape:connector-curvature="0"
       id="path1471"
       d="m 157.31494,145.24255 v 68.2247"
       style="opacity:1;fill:none;fill-opacity:1;stroke:#8e8e8e;stroke-width:0.64999998;stroke-linecap:square;stroke-miterlimit:4;stroke-dasharray:2.6, 2.6;stroke-dashoffset:0;stroke-opacity:1"
       inkscape:export-xdpi="134.51044"
       inkscape:export-ydpi="134.51044" />
    <g
       id="g1528"
       ns1:jacobian_sqrt="1.37351"
       inkscapeversion="0.92.4"
       ns1:alignment="middle center"
       ns1:scale="3.89341277683"
       ns1:preamble="C:\\Users\\Buster\\AppData\\Roaming\\inkscape\\extensions\\textext\\default_packages.tex"
       ns1:text="$1s$"
       ns1:pdfconverter="pdf2svg"
       ns1:texconverter="pdflatex"
       ns1:version="0.11.0"
       transform="matrix(1.452701,0,0,1.452701,-178.65962,30.042158)"
       style="stroke-width:0.94548708"
       inkscape:export-xdpi="134.51044"
       inkscape:export-ydpi="134.51044">
      <g
         id="g1526"
         style="stroke-width:0.94548708">
        <g
           id="g1520"
           style="fill:#000000;fill-opacity:1;stroke-width:0.94548708">
          <path
             id="path1518"
             transform="translate(148.712,134.765)"
             d="m 2.9375,-6.375 c 0,-0.25 0,-0.265625 -0.234375,-0.265625 C 2.078125,-6 1.203125,-6 0.890625,-6 v 0.3125 c 0.203125,0 0.78125,0 1.296875,-0.265625 v 5.171875 c 0,0.359375 -0.03125,0.46875 -0.921875,0.46875 h -0.3125 V 0 c 0.34375,-0.03125 1.203125,-0.03125 1.609375,-0.03125 0.390625,0 1.265625,0 1.609375,0.03125 v -0.3125 h -0.3125 c -0.90625,0 -0.921875,-0.109375 -0.921875,-0.46875 z m 0,0"
             style="stroke:none;stroke-width:0"
             inkscape:connector-curvature="0" />
        </g>
        <g
           id="g1524"
           style="fill:#000000;fill-opacity:1;stroke-width:0.94548708">
          <path
             id="path1522"
             transform="translate(153.694,134.765)"
             d="M 3.890625,-3.734375 C 3.625,-3.71875 3.421875,-3.5 3.421875,-3.28125 c 0,0.140625 0.09375,0.296875 0.3125,0.296875 0.21875,0 0.453125,-0.171875 0.453125,-0.5625 C 4.1875,-4 3.765625,-4.40625 3,-4.40625 c -1.3125,0 -1.6875,1.015625 -1.6875,1.453125 0,0.78125 0.734375,0.921875 1.03125,0.984375 0.515625,0.109375 1.03125,0.21875 1.03125,0.765625 0,0.25 -0.21875,1.09375 -1.421875,1.09375 -0.140625,0 -0.90625,0 -1.140625,-0.53125 0.390625,0.046875 0.640625,-0.25 0.640625,-0.53125 0,-0.21875 -0.171875,-0.34375 -0.375,-0.34375 -0.265625,0 -0.5625,0.203125 -0.5625,0.65625 0,0.5625 0.578125,0.96875 1.421875,0.96875 1.625,0 2.015625,-1.203125 2.015625,-1.65625 0,-0.359375 -0.1875,-0.609375 -0.3125,-0.71875 -0.265625,-0.28125 -0.5625,-0.34375 -1,-0.421875 -0.359375,-0.078125 -0.75,-0.15625 -0.75,-0.609375 C 1.890625,-3.578125 2.125,-4.1875 3,-4.1875 c 0.25,0 0.75,0.078125 0.890625,0.453125 z m 0,0"
             style="stroke:none;stroke-width:0"
             inkscape:connector-curvature="0" />
        </g>
      </g>
    </g>
    <path
       inkscape:connector-curvature="0"
       id="path1538"
       d="m 5.0050594,195.70238 0,18.33184"
       style="opacity:1;fill:none;fill-opacity:1;stroke:#8e8e8e;stroke-width:0.64999998;stroke-linecap:square;stroke-miterlimit:4;stroke-dasharray:2.6, 2.6;stroke-dashoffset:0;stroke-opacity:1"
       sodipodi:nodetypes="cc"
       inkscape:export-xdpi="134.51044"
       inkscape:export-ydpi="134.51044" />
    <path
       style="opacity:1;fill:none;fill-opacity:1;stroke:#4d4d4d;stroke-width:0.54999999;stroke-linecap:square;stroke-miterlimit:4;stroke-dasharray:2.19999996,1.09999998,0.54999999,1.09999998;stroke-dashoffset:0;stroke-opacity:1;marker-end:url(#StopM);marker-start:url(#marker1582)"
       d="M 6.236607,213.27826 H 83.343749"
       id="path1540"
       inkscape:connector-curvature="0"
       inkscape:export-xdpi="134.51044"
       inkscape:export-ydpi="134.51044" />
    <path
       inkscape:connector-curvature="0"
       id="path1674"
       d="m 87.728323,213.27826 37.986967,0"
       style="opacity:1;fill:none;fill-opacity:1;stroke:#4d4d4d;stroke-width:0.55000001;stroke-linecap:square;stroke-miterlimit:4;stroke-dasharray:2.19999996, 1.09999998, 0.54999999, 1.09999998;stroke-dashoffset:0;stroke-opacity:1;marker-start:url(#marker1678);marker-end:url(#marker1718)"
       sodipodi:nodetypes="cc"
       inkscape:export-xdpi="134.51044"
       inkscape:export-ydpi="134.51044" />
    <path
       sodipodi:nodetypes="cc"
       style="opacity:1;fill:none;fill-opacity:1;stroke:#4d4d4d;stroke-width:0.55000001;stroke-linecap:square;stroke-miterlimit:4;stroke-dasharray:2.19999996, 1.09999998, 0.54999999, 1.09999998;stroke-dashoffset:0;stroke-opacity:1;marker-start:url(#marker3794);marker-end:url(#marker3846)"
       d="m 130.06184,213.27826 16.25341,0"
       id="path3790"
       inkscape:connector-curvature="0"
       inkscape:export-xdpi="134.51044"
       inkscape:export-ydpi="134.51044" />
    <path
       inkscape:connector-curvature="0"
       id="path5078"
       d="m 149.64113,213.27826 6.42603,0"
       style="opacity:1;fill:none;fill-opacity:1;stroke:#4d4d4d;stroke-width:0.55000001;stroke-linecap:square;stroke-miterlimit:4;stroke-dasharray:2.19999996, 1.09999998, 0.54999999, 1.09999998;stroke-dashoffset:0;stroke-opacity:1;marker-start:url(#marker5082);marker-end:url(#marker5146)"
       sodipodi:nodetypes="cc"
       inkscape:export-xdpi="134.51044"
       inkscape:export-ydpi="134.51044" />
    <g
       id="g5872"
       ns1:jacobian_sqrt="1.37351"
       inkscapeversion="0.92.4"
       ns1:alignment="middle center"
       ns1:scale="3.89341277683"
       ns1:preamble="C:\\Users\\Buster\\AppData\\Roaming\\inkscape\\extensions\\textext\\default_packages.tex"
       ns1:text="$...$"
       ns1:pdfconverter="pdf2svg"
       ns1:texconverter="pdflatex"
       ns1:version="0.11.0"
       transform="matrix(1.1219622,0,0,1.1219622,-8.1335178,62.841299)"
       style="stroke-width:1.22420347"
       inkscape:export-xdpi="134.51044"
       inkscape:export-ydpi="134.51044">
      <g
         id="g5870"
         style="stroke-width:1.22420347">
        <g
           id="g5868"
           style="fill:#000000;fill-opacity:1;stroke-width:1.22420347">
          <path
             id="path5862"
             transform="translate(148.712,134.765)"
             d="m 1.90625,-0.53125 c 0,-0.28125 -0.234375,-0.53125 -0.515625,-0.53125 -0.296875,0 -0.53125,0.25 -0.53125,0.53125 C 0.859375,-0.234375 1.09375,0 1.390625,0 1.671875,0 1.90625,-0.234375 1.90625,-0.53125 Z m 0,0"
             style="stroke:none;stroke-width:0"
             inkscape:connector-curvature="0" />
          <path
             id="path5864"
             transform="translate(151.47961,134.765)"
             d="m 1.90625,-0.53125 c 0,-0.28125 -0.234375,-0.53125 -0.515625,-0.53125 -0.296875,0 -0.53125,0.25 -0.53125,0.53125 C 0.859375,-0.234375 1.09375,0 1.390625,0 1.671875,0 1.90625,-0.234375 1.90625,-0.53125 Z m 0,0"
             style="stroke:none;stroke-width:0"
             inkscape:connector-curvature="0" />
          <path
             id="path5866"
             transform="translate(154.24722,134.765)"
             d="m 1.90625,-0.53125 c 0,-0.28125 -0.234375,-0.53125 -0.515625,-0.53125 -0.296875,0 -0.53125,0.25 -0.53125,0.53125 C 0.859375,-0.234375 1.09375,0 1.390625,0 1.671875,0 1.90625,-0.234375 1.90625,-0.53125 Z m 0,0"
             style="stroke:none;stroke-width:0"
             inkscape:connector-curvature="0" />
        </g>
      </g>
    </g>
    <g
       id="g5988"
       ns1:jacobian_sqrt="1.452701"
       inkscapeversion="0.92.4"
       ns1:alignment="middle center"
       ns1:scale="4.11789112152"
       ns1:preamble="C:\\Users\\Buster\\AppData\\Roaming\\inkscape\\extensions\\textext\\default_packages.tex"
       ns1:text="$\\frac{1}{2}s$"
       ns1:pdfconverter="pdf2svg"
       ns1:texconverter="pdflatex"
       ns1:version="0.11.0"
       transform="matrix(1.452701,0,0,1.452701,-116.60965,32.413797)"
       inkscape:export-xdpi="134.51044"
       inkscape:export-ydpi="134.51044">
      <g
         id="g5986">
        <g
           id="g5974"
           style="fill:#000000;fill-opacity:1">
          <path
             id="path5972"
             transform="translate(149.908,130.842)"
             d="m 2.328125,-4.4375 c 0,-0.1875 0,-0.1875 -0.203125,-0.1875 -0.453125,0.4375 -1.078125,0.4375 -1.359375,0.4375 v 0.25 c 0.15625,0 0.625,0 1,-0.1875 v 3.546875 c 0,0.234375 0,0.328125 -0.6875,0.328125 H 0.8125 V 0 c 0.125,0 0.984375,-0.03125 1.234375,-0.03125 0.21875,0 1.09375,0.03125 1.25,0.03125 V -0.25 H 3.03125 c -0.703125,0 -0.703125,-0.09375 -0.703125,-0.328125 z m 0,0"
             style="stroke:none;stroke-width:0"
             inkscape:connector-curvature="0" />
        </g>
        <path
           id="path5976"
           transform="matrix(1,0,0,-1,149.908,132.274)"
           d="M -0.00175,5.625e-4 H 3.970906"
           style="fill:none;stroke:#000000;stroke-width:0.398;stroke-linecap:butt;stroke-linejoin:miter;stroke-miterlimit:10;stroke-opacity:1"
           inkscape:connector-curvature="0" />
        <g
           id="g5980"
           style="fill:#000000;fill-opacity:1">
          <path
             id="path5978"
             transform="translate(149.908,138.2)"
             d="M 3.515625,-1.265625 H 3.28125 c -0.015625,0.15625 -0.09375,0.5625 -0.1875,0.625 C 3.046875,-0.59375 2.515625,-0.59375 2.40625,-0.59375 H 1.125 c 0.734375,-0.640625 0.984375,-0.84375 1.390625,-1.171875 0.515625,-0.40625 1,-0.84375 1,-1.5 0,-0.84375 -0.734375,-1.359375 -1.625,-1.359375 -0.859375,0 -1.453125,0.609375 -1.453125,1.25 0,0.34375 0.296875,0.390625 0.375,0.390625 0.15625,0 0.359375,-0.125 0.359375,-0.375 0,-0.125 -0.046875,-0.375 -0.40625,-0.375 C 0.984375,-4.21875 1.453125,-4.375 1.78125,-4.375 c 0.703125,0 1.0625,0.546875 1.0625,1.109375 0,0.609375 -0.4375,1.078125 -0.65625,1.328125 L 0.515625,-0.265625 C 0.4375,-0.203125 0.4375,-0.1875 0.4375,0 h 2.875 z m 0,0"
             style="stroke:none;stroke-width:0"
             inkscape:connector-curvature="0" />
        </g>
        <g
           id="g5984"
           style="fill:#000000;fill-opacity:1">
          <path
             id="path5982"
             transform="translate(155.075,134.765)"
             d="M 3.890625,-3.734375 C 3.625,-3.71875 3.421875,-3.5 3.421875,-3.28125 c 0,0.140625 0.09375,0.296875 0.3125,0.296875 0.21875,0 0.453125,-0.171875 0.453125,-0.5625 C 4.1875,-4 3.765625,-4.40625 3,-4.40625 c -1.3125,0 -1.6875,1.015625 -1.6875,1.453125 0,0.78125 0.734375,0.921875 1.03125,0.984375 0.515625,0.109375 1.03125,0.21875 1.03125,0.765625 0,0.25 -0.21875,1.09375 -1.421875,1.09375 -0.140625,0 -0.90625,0 -1.140625,-0.53125 0.390625,0.046875 0.640625,-0.25 0.640625,-0.53125 0,-0.21875 -0.171875,-0.34375 -0.375,-0.34375 -0.265625,0 -0.5625,0.203125 -0.5625,0.65625 0,0.5625 0.578125,0.96875 1.421875,0.96875 1.625,0 2.015625,-1.203125 2.015625,-1.65625 0,-0.359375 -0.1875,-0.609375 -0.3125,-0.71875 -0.265625,-0.28125 -0.5625,-0.34375 -1,-0.421875 -0.359375,-0.078125 -0.75,-0.15625 -0.75,-0.609375 C 1.890625,-3.578125 2.125,-4.1875 3,-4.1875 c 0.25,0 0.75,0.078125 0.890625,0.453125 z m 0,0"
             style="stroke:none;stroke-width:0"
             inkscape:connector-curvature="0" />
        </g>
      </g>
    </g>
    <g
       id="g6122"
       ns1:jacobian_sqrt="1.452701"
       inkscapeversion="0.92.4"
       ns1:alignment="middle center"
       ns1:scale="4.11789112152"
       ns1:preamble="C:\\Users\\Buster\\AppData\\Roaming\\inkscape\\extensions\\textext\\default_packages.tex"
       ns1:text="$\\frac{1}{4}s$"
       ns1:pdfconverter="pdf2svg"
       ns1:texconverter="pdflatex"
       ns1:version="0.11.0"
       transform="matrix(1.452701,0.000000,0.000000,1.452701,-85.388704,32.413797)"
       inkscape:export-xdpi="134.51044"
       inkscape:export-ydpi="134.51044">
      <g
         id="g6120">
        <g
           id="g6108"
           style="fill:rgb(0%,0%,0%);fill-opacity:1;">
          <path
             id="path6106"
             transform="translate(149.908,130.842)"
             d="M 2.328125 -4.4375 C 2.328125 -4.625 2.328125 -4.625 2.125 -4.625 C 1.671875 -4.1875 1.046875 -4.1875 0.765625 -4.1875 L 0.765625 -3.9375 C 0.921875 -3.9375 1.390625 -3.9375 1.765625 -4.125 L 1.765625 -0.578125 C 1.765625 -0.34375 1.765625 -0.25 1.078125 -0.25 L 0.8125 -0.25 L 0.8125 0 C 0.9375 0 1.796875 -0.03125 2.046875 -0.03125 C 2.265625 -0.03125 3.140625 0 3.296875 0 L 3.296875 -0.25 L 3.03125 -0.25 C 2.328125 -0.25 2.328125 -0.34375 2.328125 -0.578125 Z M 2.328125 -4.4375 "
             style="stroke:none;stroke-width:0" />
        </g>
        <path
           id="path6110"
           transform="matrix(1,0,0,-1,149.908,132.274)"
           d="M -0.00175 0.0005625 L 3.970906 0.0005625 "
           style="fill:none;stroke-width:0.398;stroke-linecap:butt;stroke-linejoin:miter;stroke:rgb(0%,0%,0%);stroke-opacity:1;stroke-miterlimit:10;" />
        <g
           id="g6114"
           style="fill:rgb(0%,0%,0%);fill-opacity:1;">
          <path
             id="path6112"
             transform="translate(149.908,138.2)"
             d="M 3.6875 -1.140625 L 3.6875 -1.390625 L 2.90625 -1.390625 L 2.90625 -4.5 C 2.90625 -4.640625 2.90625 -4.703125 2.765625 -4.703125 C 2.671875 -4.703125 2.640625 -4.703125 2.578125 -4.59375 L 0.265625 -1.390625 L 0.265625 -1.140625 L 2.328125 -1.140625 L 2.328125 -0.578125 C 2.328125 -0.328125 2.328125 -0.25 1.75 -0.25 L 1.5625 -0.25 L 1.5625 0 C 1.921875 -0.015625 2.359375 -0.03125 2.609375 -0.03125 C 2.875 -0.03125 3.3125 -0.015625 3.671875 0 L 3.671875 -0.25 L 3.484375 -0.25 C 2.90625 -0.25 2.90625 -0.328125 2.90625 -0.578125 L 2.90625 -1.140625 Z M 2.375 -3.9375 L 2.375 -1.390625 L 0.53125 -1.390625 Z M 2.375 -3.9375 "
             style="stroke:none;stroke-width:0" />
        </g>
        <g
           id="g6118"
           style="fill:rgb(0%,0%,0%);fill-opacity:1;">
          <path
             id="path6116"
             transform="translate(155.075,134.765)"
             d="M 3.890625 -3.734375 C 3.625 -3.71875 3.421875 -3.5 3.421875 -3.28125 C 3.421875 -3.140625 3.515625 -2.984375 3.734375 -2.984375 C 3.953125 -2.984375 4.1875 -3.15625 4.1875 -3.546875 C 4.1875 -4 3.765625 -4.40625 3 -4.40625 C 1.6875 -4.40625 1.3125 -3.390625 1.3125 -2.953125 C 1.3125 -2.171875 2.046875 -2.03125 2.34375 -1.96875 C 2.859375 -1.859375 3.375 -1.75 3.375 -1.203125 C 3.375 -0.953125 3.15625 -0.109375 1.953125 -0.109375 C 1.8125 -0.109375 1.046875 -0.109375 0.8125 -0.640625 C 1.203125 -0.59375 1.453125 -0.890625 1.453125 -1.171875 C 1.453125 -1.390625 1.28125 -1.515625 1.078125 -1.515625 C 0.8125 -1.515625 0.515625 -1.3125 0.515625 -0.859375 C 0.515625 -0.296875 1.09375 0.109375 1.9375 0.109375 C 3.5625 0.109375 3.953125 -1.09375 3.953125 -1.546875 C 3.953125 -1.90625 3.765625 -2.15625 3.640625 -2.265625 C 3.375 -2.546875 3.078125 -2.609375 2.640625 -2.6875 C 2.28125 -2.765625 1.890625 -2.84375 1.890625 -3.296875 C 1.890625 -3.578125 2.125 -4.1875 3 -4.1875 C 3.25 -4.1875 3.75 -4.109375 3.890625 -3.734375 Z M 3.890625 -3.734375 "
             style="stroke:none;stroke-width:0" />
        </g>
      </g>
    </g>
    <g
       id="g6265"
       ns1:jacobian_sqrt="1.452701"
       inkscapeversion="0.92.4"
       ns1:alignment="middle center"
       ns1:scale="4.11789112152"
       ns1:preamble="C:\\Users\\Buster\\AppData\\Roaming\\inkscape\\extensions\\textext\\default_packages.tex"
       ns1:text="$\\frac{1}{8}s$"
       ns1:pdfconverter="pdf2svg"
       ns1:texconverter="pdflatex"
       ns1:version="0.11.0"
       transform="matrix(1.452701,0.000000,0.000000,1.452701,-66.867859,32.311654)"
       inkscape:export-xdpi="134.51044"
       inkscape:export-ydpi="134.51044">
      <g
         id="g6263">
        <g
           id="g6251"
           style="fill:rgb(0%,0%,0%);fill-opacity:1;">
          <path
             id="path6249"
             transform="translate(149.908,130.842)"
             d="M 2.328125 -4.4375 C 2.328125 -4.625 2.328125 -4.625 2.125 -4.625 C 1.671875 -4.1875 1.046875 -4.1875 0.765625 -4.1875 L 0.765625 -3.9375 C 0.921875 -3.9375 1.390625 -3.9375 1.765625 -4.125 L 1.765625 -0.578125 C 1.765625 -0.34375 1.765625 -0.25 1.078125 -0.25 L 0.8125 -0.25 L 0.8125 0 C 0.9375 0 1.796875 -0.03125 2.046875 -0.03125 C 2.265625 -0.03125 3.140625 0 3.296875 0 L 3.296875 -0.25 L 3.03125 -0.25 C 2.328125 -0.25 2.328125 -0.34375 2.328125 -0.578125 Z M 2.328125 -4.4375 "
             style="stroke:none;stroke-width:0" />
        </g>
        <path
           id="path6253"
           transform="matrix(1,0,0,-1,149.908,132.274)"
           d="M -0.00175 0.0005625 L 3.970906 0.0005625 "
           style="fill:none;stroke-width:0.398;stroke-linecap:butt;stroke-linejoin:miter;stroke:rgb(0%,0%,0%);stroke-opacity:1;stroke-miterlimit:10;" />
        <g
           id="g6257"
           style="fill:rgb(0%,0%,0%);fill-opacity:1;">
          <path
             id="path6255"
             transform="translate(149.908,138.2)"
             d="M 2.46875 -2.515625 C 3.015625 -2.78125 3.359375 -3.109375 3.359375 -3.59375 C 3.359375 -4.265625 2.65625 -4.625 1.984375 -4.625 C 1.21875 -4.625 0.59375 -4.125 0.59375 -3.46875 C 0.59375 -3.140625 0.75 -2.90625 0.875 -2.765625 C 1 -2.609375 1.046875 -2.578125 1.453125 -2.34375 C 1.0625 -2.171875 0.375 -1.796875 0.375 -1.0625 C 0.375 -0.296875 1.171875 0.140625 1.96875 0.140625 C 2.859375 0.140625 3.578125 -0.421875 3.578125 -1.171875 C 3.578125 -1.640625 3.3125 -2.03125 2.90625 -2.265625 C 2.8125 -2.328125 2.578125 -2.453125 2.46875 -2.515625 Z M 1.34375 -3.171875 C 1.15625 -3.28125 0.96875 -3.46875 0.96875 -3.734375 C 0.96875 -4.171875 1.46875 -4.421875 1.96875 -4.421875 C 2.515625 -4.421875 3 -4.078125 3 -3.59375 C 3 -2.96875 2.265625 -2.65625 2.265625 -2.65625 C 2.25 -2.65625 2.234375 -2.65625 2.1875 -2.6875 Z M 1.671875 -2.203125 L 2.640625 -1.65625 C 2.8125 -1.546875 3.15625 -1.34375 3.15625 -0.9375 C 3.15625 -0.40625 2.578125 -0.078125 1.984375 -0.078125 C 1.34375 -0.078125 0.796875 -0.5 0.796875 -1.0625 C 0.796875 -1.578125 1.171875 -1.984375 1.671875 -2.203125 Z M 1.671875 -2.203125 "
             style="stroke:none;stroke-width:0" />
        </g>
        <g
           id="g6261"
           style="fill:rgb(0%,0%,0%);fill-opacity:1;">
          <path
             id="path6259"
             transform="translate(155.075,134.765)"
             d="M 3.890625 -3.734375 C 3.625 -3.71875 3.421875 -3.5 3.421875 -3.28125 C 3.421875 -3.140625 3.515625 -2.984375 3.734375 -2.984375 C 3.953125 -2.984375 4.1875 -3.15625 4.1875 -3.546875 C 4.1875 -4 3.765625 -4.40625 3 -4.40625 C 1.6875 -4.40625 1.3125 -3.390625 1.3125 -2.953125 C 1.3125 -2.171875 2.046875 -2.03125 2.34375 -1.96875 C 2.859375 -1.859375 3.375 -1.75 3.375 -1.203125 C 3.375 -0.953125 3.15625 -0.109375 1.953125 -0.109375 C 1.8125 -0.109375 1.046875 -0.109375 0.8125 -0.640625 C 1.203125 -0.59375 1.453125 -0.890625 1.453125 -1.171875 C 1.453125 -1.390625 1.28125 -1.515625 1.078125 -1.515625 C 0.8125 -1.515625 0.515625 -1.3125 0.515625 -0.859375 C 0.515625 -0.296875 1.09375 0.109375 1.9375 0.109375 C 3.5625 0.109375 3.953125 -1.09375 3.953125 -1.546875 C 3.953125 -1.90625 3.765625 -2.15625 3.640625 -2.265625 C 3.375 -2.546875 3.078125 -2.609375 2.640625 -2.6875 C 2.28125 -2.765625 1.890625 -2.84375 1.890625 -3.296875 C 1.890625 -3.578125 2.125 -4.1875 3 -4.1875 C 3.25 -4.1875 3.75 -4.109375 3.890625 -3.734375 Z M 3.890625 -3.734375 "
             style="stroke:none;stroke-width:0" />
        </g>
      </g>
    </g>
  </g>
</svg>
