<?xml version="1.0" encoding="UTF-8" standalone="no"?>
<!-- Created with Inkscape (http://www.inkscape.org/) -->

<svg
   xmlns:dc="http://purl.org/dc/elements/1.1/"
   xmlns:cc="http://creativecommons.org/ns#"
   xmlns:rdf="http://www.w3.org/1999/02/22-rdf-syntax-ns#"
   xmlns:svg="http://www.w3.org/2000/svg"
   xmlns="http://www.w3.org/2000/svg"
   xmlns:sodipodi="http://sodipodi.sourceforge.net/DTD/sodipodi-0.dtd"
   xmlns:inkscape="http://www.inkscape.org/namespaces/inkscape"
   width="82.328972mm"
   height="11.95582mm"
   viewBox="0 0 82.32897 11.95582"
   version="1.1"
   id="svg8"
   inkscape:version="0.92.5 (2060ec1f9f, 2020-04-08)"
   sodipodi:docname="atematisk.svg">
  <defs
     id="defs2">
    <clipPath
       clipPathUnits="userSpaceOnUse"
       id="clipPath2169">
      <path
         style="fill:none;stroke:#000000;stroke-width:0.26458332px;stroke-linecap:butt;stroke-linejoin:miter;stroke-opacity:1"
         d="m 151.47459,135.19303 1.36214,-4.75074 h 0.72169 l 1.21785,4.54508 c 0,0 0.46055,0.92074 -0.53159,0.92074 -0.99214,0 -2.77009,-0.71508 -2.77009,-0.71508 z"
         id="path2171"
         inkscape:connector-curvature="0" />
    </clipPath>
    <clipPath
       clipPathUnits="userSpaceOnUse"
       id="clipPath2356">
      <path
         style="fill:none;stroke:#000000;stroke-width:0.26458332px;stroke-linecap:butt;stroke-linejoin:miter;stroke-opacity:1"
         d="m 183.94447,264.18693 v 1.1103 l 3.17123,-0.84972 c 0,0 1.27777,-1.80696 1.16051,-2.01006 -0.11726,-0.20311 -0.9386,-0.3991 -1.48943,-0.3991 -0.55083,0 -2.84231,2.14858 -2.84231,2.14858 z"
         id="path2358"
         inkscape:connector-curvature="0" />
    </clipPath>
  </defs>
  <sodipodi:namedview
     id="base"
     pagecolor="#ffffff"
     bordercolor="#666666"
     borderopacity="1.0"
     inkscape:pageopacity="0.0"
     inkscape:pageshadow="2"
     inkscape:zoom="0.35355339"
     inkscape:cx="-12.821259"
     inkscape:cy="80.895072"
     inkscape:document-units="mm"
     inkscape:current-layer="layer1"
     showgrid="false"
     inkscape:window-width="1920"
     inkscape:window-height="1017"
     inkscape:window-x="-8"
     inkscape:window-y="-8"
     inkscape:window-maximized="1"
     inkscape:snap-global="false"
     fit-margin-top="0"
     fit-margin-left="0"
     fit-margin-right="0"
     fit-margin-bottom="0"
     inkscape:lockguides="true" />
  <metadata
     id="metadata5">
    <rdf:RDF>
      <cc:Work
         rdf:about="">
        <dc:format>image/svg+xml</dc:format>
        <dc:type
           rdf:resource="http://purl.org/dc/dcmitype/StillImage" />
        <dc:title></dc:title>
      </cc:Work>
    </rdf:RDF>
  </metadata>
  <g
     inkscape:label="Layer 1"
     inkscape:groupmode="layer"
     id="layer1"
     transform="translate(-467.30247,-197.59668)">
    <path
       cx="137.64586"
       cy="208.90065"
       rx="4.0012174"
       ry="2.0162227"
       id="path2370"
       style="fill:none;fill-opacity:1;stroke:#000000;stroke-width:0.26499999;stroke-miterlimit:4;stroke-dasharray:none;stroke-opacity:1"
       d=""
       inkscape:connector-curvature="0" />
    <path
       inkscape:export-ydpi="136.93546"
       inkscape:export-xdpi="136.93546"
       inkscape:connector-curvature="0"
       style="fill:#000000;fill-opacity:1;stroke:none;stroke-width:0"
       d="m 473.16,208.13491 c 0,0.53494 0,1.3106 1.76529,1.3106 h 0.82916 c 0.32096,0 0.53493,0 0.53493,-0.40121 0,-0.40119 -0.21397,-0.40119 -0.4547,-0.40119 -1.04312,-0.0267 -1.04312,-0.24073 -1.04312,-0.64193 v -3.66431 c 0,-1.52456 -1.20361,-2.62119 -3.74454,-2.62119 -0.96289,0 -3.04914,0.0803 -3.04914,1.57807 0,0.74891 0.58843,1.06987 1.04312,1.06987 0.53493,0 1.09662,-0.37445 1.09662,-1.06987 0,-0.5082 -0.32096,-0.8024 -0.37445,-0.8559 0.48144,-0.0803 1.01638,-0.10698 1.23035,-0.10698 1.25709,0 1.87228,0.72215 1.87228,2.006 v 0.58843 c -1.23036,0.0534 -5.56333,0.21397 -5.56333,2.67467 0,1.63157 2.13974,1.95253 3.3166,1.95253 1.36407,0 2.16648,-0.69542 2.54093,-1.41759 z m -0.2942,-2.67468 v 1.60481 c 0,1.6583 -1.57807,1.87227 -2.00602,1.87227 -0.8559,0 -1.55131,-0.58843 -1.55131,-1.36407 0,-1.81879 2.70143,-2.05951 3.55733,-2.11301 z m 0,0"
       id="path1905" />
    <path
       inkscape:export-ydpi="136.93546"
       inkscape:export-xdpi="136.93546"
       inkscape:connector-curvature="0"
       style="fill:#000000;fill-opacity:1;stroke:none;stroke-width:0"
       d="m 478.06595,202.67857 v 4.68069 c 0,1.81878 1.47107,2.19324 2.70142,2.19324 1.28384,0 2.05951,-0.98964 2.05951,-2.21999 v -0.90939 h -0.8024 v 0.88265 c 0,1.1501 -0.56169,1.55131 -1.04314,1.55131 -0.98962,0 -0.98962,-1.09662 -0.98962,-1.47108 v -4.70743 h 2.5142 v -0.80241 h -2.5142 v -3.2631 h -0.8024 c 0,1.71179 -0.82916,3.39685 -2.54096,3.45034 v 0.61517 z m 0,0"
       id="path1907" />
    <path
       inkscape:export-ydpi="136.93546"
       inkscape:export-xdpi="136.93546"
       inkscape:connector-curvature="0"
       style="fill:#000000;fill-opacity:1;stroke:none;stroke-width:0"
       d="m 491.81748,205.7277 c 0.37445,0 0.53494,0 0.53494,-0.45469 0,-0.53493 -0.10699,-1.79204 -0.96289,-2.64794 -0.61517,-0.61516 -1.52456,-0.90939 -2.70142,-0.90939 -2.72817,0 -4.22599,1.76529 -4.22599,3.87829 0,2.30023 1.7118,3.95853 4.46671,3.95853 2.70143,0 3.42359,-1.81878 3.42359,-2.11301 0,-0.2942 -0.32097,-0.2942 -0.4012,-0.2942 -0.29422,0 -0.32096,0.0803 -0.42795,0.3477 -0.34771,0.82916 -1.33734,1.36409 -2.43396,1.36409 -2.40721,0 -2.43395,-2.27348 -2.43395,-3.12938 z m -5.16212,-0.56167 c 0.0267,-0.66868 0.0534,-1.39084 0.40119,-1.95253 0.45471,-0.66866 1.15012,-0.88263 1.63156,-0.88263 2.006,0 2.03276,2.24673 2.0595,2.83516 z m 0,0"
       id="path1909" />
    <path
       inkscape:export-ydpi="136.93546"
       inkscape:export-xdpi="136.93546"
       inkscape:connector-curvature="0"
       style="fill:#000000;fill-opacity:1;stroke:none;stroke-width:0"
       d="m 494.8688,203.37398 v 5.26913 h -1.17685 v 0.8024 c 0.48144,-0.0267 1.49782,-0.0534 2.13974,-0.0534 0.66868,0 1.68505,0.0267 2.13974,0.0534 v -0.8024 h -1.17686 v -3.55733 c 0,-1.87228 1.49782,-2.70142 2.56769,-2.70142 0.56169,0 0.93615,0.3477 0.93615,1.6583 v 4.60045 h -1.17686 v 0.8024 c 0.48144,-0.0267 1.49782,-0.0534 2.16648,-0.0534 0.66868,0 1.6583,0.0267 2.13974,0.0534 v -0.8024 h -1.17685 v -3.55733 c 0,-1.87228 1.47108,-2.70142 2.54095,-2.70142 0.58843,0 0.96288,0.3477 0.96288,1.6583 v 4.60045 h -1.17686 v 0.8024 c 0.48145,-0.0267 1.49782,-0.0534 2.13975,-0.0534 0.66866,0 1.68504,0.0267 2.16648,0.0534 v -0.8024 h -1.17686 v -4.41323 c 0,-1.76529 -0.88264,-2.4607 -2.64792,-2.4607 -1.55132,0 -2.43397,0.85589 -2.88866,1.63156 -0.32096,-1.57807 -1.89903,-1.63156 -2.54095,-1.63156 -1.49782,0 -2.4607,0.77566 -3.02238,1.84553 v -1.84553 l -2.9154,0.13369 v 0.8024 c 1.04313,0 1.17685,0 1.17685,0.66866 z m 0,0"
       id="path1911" />
    <path
       inkscape:export-ydpi="136.93546"
       inkscape:export-xdpi="136.93546"
       inkscape:connector-curvature="0"
       style="fill:#000000;fill-opacity:1;stroke:none;stroke-width:0"
       d="m 515.65154,208.13491 c 0,0.53494 0,1.3106 1.76529,1.3106 h 0.82916 c 0.32096,0 0.53493,0 0.53493,-0.40121 0,-0.40119 -0.21397,-0.40119 -0.4547,-0.40119 -1.04312,-0.0267 -1.04312,-0.24073 -1.04312,-0.64193 v -3.66431 c 0,-1.52456 -1.20361,-2.62119 -3.74455,-2.62119 -0.96288,0 -3.04913,0.0803 -3.04913,1.57807 0,0.74891 0.58843,1.06987 1.04312,1.06987 0.53493,0 1.09662,-0.37445 1.09662,-1.06987 0,-0.5082 -0.32096,-0.8024 -0.37445,-0.8559 0.48144,-0.0803 1.01638,-0.10698 1.23035,-0.10698 1.25709,0 1.87228,0.72215 1.87228,2.006 v 0.58843 c -1.23036,0.0534 -5.56333,0.21397 -5.56333,2.67467 0,1.63157 2.13974,1.95253 3.3166,1.95253 1.36407,0 2.16648,-0.69542 2.54093,-1.41759 z m -0.2942,-2.67468 v 1.60481 c 0,1.6583 -1.57807,1.87227 -2.00602,1.87227 -0.8559,0 -1.55131,-0.58843 -1.55131,-1.36407 0,-1.81879 2.70143,-2.05951 3.55733,-2.11301 z m 0,0"
       id="path1913" />
    <path
       inkscape:export-ydpi="136.93546"
       inkscape:export-xdpi="136.93546"
       inkscape:connector-curvature="0"
       style="fill:#000000;fill-opacity:1;stroke:none;stroke-width:0"
       d="m 520.55751,202.67857 v 4.68069 c 0,1.81878 1.47106,2.19324 2.70142,2.19324 1.28384,0 2.05951,-0.98964 2.05951,-2.21999 v -0.90939 h -0.80241 v 0.88265 c 0,1.1501 -0.56169,1.55131 -1.04313,1.55131 -0.98962,0 -0.98962,-1.09662 -0.98962,-1.47108 v -4.70743 h 2.5142 v -0.80241 h -2.5142 v -3.2631 h -0.80241 c 0,1.71179 -0.82915,3.39685 -2.54095,3.45034 v 0.61517 z m 0,0"
       id="path1915" />
    <path
       inkscape:export-ydpi="136.93546"
       inkscape:export-xdpi="136.93546"
       inkscape:connector-curvature="0"
       style="fill:#000000;fill-opacity:1;stroke:none;stroke-width:0"
       d="m 530.24351,201.76918 -2.96889,0.13369 v 0.8024 c 1.01638,0 1.12337,0 1.12337,0.66866 v 5.26913 h -1.17686 v 0.8024 c 0.53494,-0.0267 1.36408,-0.0534 2.08625,-0.0534 0.50818,0 1.39083,0.0267 1.97926,0.0534 v -0.8024 h -1.04313 z m 0.16039,-2.8619 c 0,-0.74891 -0.61516,-1.3106 -1.31058,-1.3106 -0.74891,0 -1.33734,0.58843 -1.33734,1.3106 0,0.74891 0.58843,1.33734 1.33734,1.33734 0.69542,0 1.31058,-0.58843 1.31058,-1.33734 z m 0,0"
       id="path1917" />
    <path
       inkscape:export-ydpi="136.93546"
       inkscape:export-xdpi="136.93546"
       inkscape:connector-curvature="0"
       style="fill:#000000;fill-opacity:1;stroke:none;stroke-width:0"
       d="m 535.47657,204.41712 c -0.64193,-0.10699 -1.73854,-0.29423 -1.73854,-1.09663 0,-1.06987 1.57805,-1.06987 1.89902,-1.06987 1.28384,0 1.92576,0.5082 2.00601,1.44432 0.0267,0.26747 0.0534,0.34772 0.4012,0.34772 0.40121,0 0.40121,-0.0803 0.40121,-0.48144 v -1.3641 c 0,-0.32096 0,-0.48144 -0.29423,-0.48144 -0.0803,0 -0.10698,0 -0.77564,0.32096 -0.45471,-0.21397 -1.04314,-0.32096 -1.7118,-0.32096 -0.53493,0 -3.15612,0 -3.15612,2.24673 0,0.66868 0.3477,1.12337 0.69542,1.41759 0.66866,0.58843 1.33734,0.69542 2.64792,0.93613 0.61519,0.10699 1.87228,0.32096 1.87228,1.33734 0,1.28384 -1.55132,1.28384 -1.92577,1.28384 -1.81878,0 -2.24673,-1.25709 -2.46071,-1.97926 -0.0803,-0.24071 -0.18722,-0.24071 -0.40119,-0.24071 -0.42795,0 -0.42795,0.10699 -0.42795,0.48144 v 1.87228 c 0,0.32096 0,0.48144 0.32096,0.48144 0.10699,0 0.13369,0 0.50818,-0.26747 0.0267,0 0.40121,-0.24073 0.42795,-0.29422 0.80241,0.56169 1.68506,0.56169 2.03276,0.56169 0.53493,0 3.15612,0 3.15612,-2.48746 0,-0.74891 -0.3477,-1.33734 -0.93613,-1.81878 -0.66868,-0.48144 -1.23035,-0.58843 -2.54095,-0.82914 z m 0,0"
       id="path1919" />
    <path
       inkscape:export-ydpi="136.93546"
       inkscape:export-xdpi="136.93546"
       inkscape:connector-curvature="0"
       style="fill:#000000;fill-opacity:1;stroke:none;stroke-width:0"
       d="m 543.26571,205.40674 v -7.81006 l -3.02238,0.13369 v 0.80245 c 1.04312,0 1.17686,0 1.17686,0.66866 v 9.44163 h -1.17686 v 0.8024 c 0.61517,-0.0267 1.41757,-0.0534 2.03276,-0.0534 0.64192,0 1.44432,0.0267 2.05949,0.0534 v -0.8024 h -1.17686 v -2.1665 c 0.5082,-0.40119 0.64192,-0.50818 0.98964,-0.72216 l 1.71179,2.13975 c 0.1604,0.21397 0.42795,0.53493 0.42795,0.58843 0,0.16039 -0.29422,0.16039 -0.53493,0.16039 v 0.80241 c 0.50818,-0.0267 2.006,-0.0534 2.08625,-0.0534 0.61516,0 1.20359,0.0267 1.79202,0.0534 v -0.80241 h -0.2942 c -0.74891,0 -0.80241,-0.0803 -1.01638,-0.34771 l -2.88865,-3.58407 2.21997,-1.73854 c 0.24073,-0.18723 0.40121,-0.29422 1.55131,-0.29422 v -0.8024 c -0.48144,0.0534 -0.90939,0.0534 -1.33734,0.0534 -0.45468,0 -1.57805,-0.0534 -1.97926,-0.0534 v 0.8024 c 0.40121,0 0.45471,0.0534 0.58843,0.18724 z m 0,0"
       id="path1921" />
  </g>
</svg>
