<?xml version="1.0" encoding="UTF-8" standalone="no"?>
<!-- Created with Inkscape (http://www.inkscape.org/) -->

<svg
   xmlns:dc="http://purl.org/dc/elements/1.1/"
   xmlns:cc="http://creativecommons.org/ns#"
   xmlns:rdf="http://www.w3.org/1999/02/22-rdf-syntax-ns#"
   xmlns:svg="http://www.w3.org/2000/svg"
   xmlns="http://www.w3.org/2000/svg"
   xmlns:sodipodi="http://sodipodi.sourceforge.net/DTD/sodipodi-0.dtd"
   xmlns:inkscape="http://www.inkscape.org/namespaces/inkscape"
   width="8.3679581mm"
   height="7.672955mm"
   viewBox="0 0 8.3679579 7.6729548"
   version="1.1"
   id="svg8"
   inkscape:version="0.92.5 (2060ec1f9f, 2020-04-08)"
   sodipodi:docname="o0.svg">
  <defs
     id="defs2">
    <clipPath
       clipPathUnits="userSpaceOnUse"
       id="clipPath2169">
      <path
         style="fill:none;stroke:#000000;stroke-width:0.26458332px;stroke-linecap:butt;stroke-linejoin:miter;stroke-opacity:1"
         d="m 151.47459,135.19303 1.36214,-4.75074 h 0.72169 l 1.21785,4.54508 c 0,0 0.46055,0.92074 -0.53159,0.92074 -0.99214,0 -2.77009,-0.71508 -2.77009,-0.71508 z"
         id="path2171"
         inkscape:connector-curvature="0" />
    </clipPath>
    <clipPath
       clipPathUnits="userSpaceOnUse"
       id="clipPath2356">
      <path
         style="fill:none;stroke:#000000;stroke-width:0.26458332px;stroke-linecap:butt;stroke-linejoin:miter;stroke-opacity:1"
         d="m 183.94447,264.18693 v 1.1103 l 3.17123,-0.84972 c 0,0 1.27777,-1.80696 1.16051,-2.01006 -0.11726,-0.20311 -0.9386,-0.3991 -1.48943,-0.3991 -0.55083,0 -2.84231,2.14858 -2.84231,2.14858 z"
         id="path2358"
         inkscape:connector-curvature="0" />
    </clipPath>
  </defs>
  <sodipodi:namedview
     id="base"
     pagecolor="#ffffff"
     bordercolor="#666666"
     borderopacity="1.0"
     inkscape:pageopacity="0.0"
     inkscape:pageshadow="2"
     inkscape:zoom="4"
     inkscape:cx="81.638464"
     inkscape:cy="23.574232"
     inkscape:document-units="mm"
     inkscape:current-layer="layer1"
     showgrid="false"
     inkscape:window-width="1920"
     inkscape:window-height="1017"
     inkscape:window-x="-8"
     inkscape:window-y="-8"
     inkscape:window-maximized="1"
     inkscape:snap-global="false"
     fit-margin-top="0"
     fit-margin-left="0"
     fit-margin-right="0"
     fit-margin-bottom="0"
     inkscape:lockguides="true" />
  <metadata
     id="metadata5">
    <rdf:RDF>
      <cc:Work
         rdf:about="">
        <dc:format>image/svg+xml</dc:format>
        <dc:type
           rdf:resource="http://purl.org/dc/dcmitype/StillImage" />
        <dc:title></dc:title>
      </cc:Work>
    </rdf:RDF>
  </metadata>
  <g
     inkscape:label="Layer 1"
     inkscape:groupmode="layer"
     id="layer1"
     transform="translate(-469.63974,-240.84388)">
    <path
       cx="137.64586"
       cy="208.90065"
       rx="4.0012174"
       ry="2.0162227"
       id="path2370"
       style="fill:none;fill-opacity:1;stroke:#000000;stroke-width:0.26499999;stroke-miterlimit:4;stroke-dasharray:none;stroke-opacity:1"
       d=""
       inkscape:connector-curvature="0" />
    <path
       d="m 470.27625,244.65787 q 0.0143,-1.64532 1.07398,-2.73579 1.05962,-1.09047 2.4817,-1.07806 1.47169,0.0129 2.48702,1.1545 1.01534,1.14165 1.00156,2.72082 -0.0144,1.64532 -1.07391,2.72752 -1.05955,1.0822 -2.48163,1.06979 -1.47169,-0.0128 -2.4871,-1.14623 -1.01533,-1.14165 -1.00162,-2.71255 z m 1.42193,0.0289 q -0.0117,1.33941 0.28802,2.05312 0.21847,0.54763 0.67787,0.96506 0.45947,0.40917 1.10436,0.4148 0.82679,0.007 1.42843,-0.71517 0.70201,-0.8538 0.71854,-2.74715 0.0111,-1.27326 -0.28831,-2.02004 -0.21847,-0.54763 -0.68606,-0.97341 -0.4676,-0.42578 -1.11249,-0.4314 -0.82679,-0.007 -1.42858,0.7317 -0.68525,0.82914 -0.70178,2.72249 z"
       style="font-style:italic;font-variant:normal;font-weight:bold;font-stretch:normal;font-size:16.93333244px;line-height:1.25;font-family:'CMU Serif Upright Italic';-inkscape-font-specification:'CMU Serif Upright Italic, Bold Italic';letter-spacing:-0.05820833px;word-spacing:0px;stroke-width:0.26458332"
       id="path1738"
       inkscape:connector-curvature="0"
       inkscape:export-filename="C:\Users\bbcoo\Desktop\DriveOnRig\Min bog\Hjemmeside\Assets\Forside\GlobeAnim2\1.png"
       inkscape:export-xdpi="546.3515"
       inkscape:export-ydpi="546.3515" />
    <path
       d="m 477.03175,243.61913 a 4.0012174,2.0162227 0 0 1 -0.58078,2.7266 4.0012174,2.0162227 0 0 1 -5.4393,-0.0872 4.0012174,2.0162227 0 0 1 -0.23584,-2.73968"
       sodipodi:open="true"
       sodipodi:end="3.8460724"
       sodipodi:start="5.6422786"
       sodipodi:ry="2.0162227"
       sodipodi:rx="4.0012174"
       sodipodi:cy="244.82468"
       sodipodi:cx="473.82455"
       sodipodi:type="arc"
       id="path1740"
       style="fill:none;fill-opacity:1;stroke:#000000;stroke-width:0.36500001;stroke-miterlimit:4;stroke-dasharray:none;stroke-opacity:1"
       inkscape:export-filename="C:\Users\bbcoo\Desktop\DriveOnRig\Min bog\Hjemmeside\Assets\Forside\GlobeAnim2\1.png"
       inkscape:export-xdpi="546.3515"
       inkscape:export-ydpi="546.3515" />
    <path
       sodipodi:nodetypes="cc"
       inkscape:connector-curvature="0"
       id="path1742"
       d="m 469.82223,244.78507 c 0,0 0.0238,-2.69308 3.15746,-3.66046"
       style="fill:none;stroke:#000000;stroke-width:0.36500001;stroke-linecap:butt;stroke-linejoin:miter;stroke-miterlimit:4;stroke-dasharray:none;stroke-opacity:1"
       inkscape:export-filename="C:\Users\bbcoo\Desktop\DriveOnRig\Min bog\Hjemmeside\Assets\Forside\GlobeAnim2\1.png"
       inkscape:export-xdpi="546.3515"
       inkscape:export-ydpi="546.3515" />
    <path
       sodipodi:nodetypes="cc"
       inkscape:connector-curvature="0"
       id="path1744"
       d="m 473.89141,248.33161 c -0.0135,0.003 3.3991,0.19971 3.9329,-3.40772"
       style="fill:none;stroke:#000000;stroke-width:0.36500001;stroke-linecap:butt;stroke-linejoin:miter;stroke-miterlimit:4;stroke-dasharray:none;stroke-opacity:1"
       inkscape:export-filename="C:\Users\bbcoo\Desktop\DriveOnRig\Min bog\Hjemmeside\Assets\Forside\GlobeAnim2\1.png"
       inkscape:export-xdpi="546.3515"
       inkscape:export-ydpi="546.3515" />
    <path
       inkscape:export-ydpi="546.3515"
       inkscape:export-xdpi="546.3515"
       inkscape:export-filename="C:\Users\bbcoo\Desktop\DriveOnRig\Min bog\Hjemmeside\Assets\Forside\GlobeAnim2\1.png"
       inkscape:connector-curvature="0"
       id="path1746"
       style="font-style:italic;font-variant:normal;font-weight:bold;font-stretch:normal;font-size:16.93333244px;line-height:1.25;font-family:'CMU Serif Upright Italic';-inkscape-font-specification:'CMU Serif Upright Italic, Bold Italic';letter-spacing:-0.05820833px;word-spacing:0px;stroke-width:0.26458332"
       d="m 479.9336,244.65787 q 0.0138,-1.64532 1.03364,-2.73579 1.01982,-1.09047 2.38849,-1.07806 1.41642,0.0129 2.39361,1.1545 0.97721,1.14165 0.96395,2.72082 -0.0139,1.64532 -1.03358,2.72752 -1.01975,1.0822 -2.38842,1.06979 -1.41642,-0.0128 -2.39369,-1.14623 -0.9772,-1.14165 -0.964,-2.71255 z m 1.36852,0.0289 q -0.0113,1.33941 0.2772,2.05312 0.21027,0.54763 0.65241,0.96506 0.44222,0.40917 1.06289,0.4148 0.79573,0.007 1.37478,-0.71517 0.67564,-0.8538 0.69155,-2.74715 0.0107,-1.27326 -0.27748,-2.02004 -0.21027,-0.54763 -0.66029,-0.97341 -0.45004,-0.42578 -1.07071,-0.4314 -0.79574,-0.007 -1.37493,0.7317 -0.65951,0.82914 -0.67542,2.72249 z" />
    <path
       inkscape:export-ydpi="546.3515"
       inkscape:export-xdpi="546.3515"
       inkscape:export-filename="C:\Users\bbcoo\Desktop\DriveOnRig\Min bog\Hjemmeside\Assets\Forside\GlobeAnim2\1.png"
       style="fill:none;fill-opacity:1;stroke:#000000;stroke-width:0.36500001;stroke-miterlimit:4;stroke-dasharray:none;stroke-opacity:1"
       id="path1748"
       sodipodi:type="arc"
       sodipodi:cx="483.3497"
       sodipodi:cy="244.82468"
       sodipodi:rx="4.0012174"
       sodipodi:ry="2.0162227"
       sodipodi:start="5.5589758"
       sodipodi:end="3.8460724"
       sodipodi:open="true"
       d="m 486.34671,243.48884 a 4.0012174,2.0162227 0 0 1 -0.20709,2.78109 4.0012174,2.0162227 0 0 1 -5.52271,0.0275 4.0012174,2.0162227 0 0 1 -0.31593,-2.77848" />
    <path
       inkscape:export-ydpi="546.3515"
       inkscape:export-xdpi="546.3515"
       inkscape:export-filename="C:\Users\bbcoo\Desktop\DriveOnRig\Min bog\Hjemmeside\Assets\Forside\GlobeAnim2\1.png"
       style="fill:none;stroke:#000000;stroke-width:0.36500001;stroke-linecap:butt;stroke-linejoin:miter;stroke-miterlimit:4;stroke-dasharray:none;stroke-opacity:1"
       d="m 479.34729,244.78507 c -0.049,-0.0413 -0.0961,-2.96967 3.27439,-3.69554"
       id="path1750"
       inkscape:connector-curvature="0"
       sodipodi:nodetypes="cc" />
    <path
       inkscape:export-ydpi="546.3515"
       inkscape:export-xdpi="546.3515"
       inkscape:export-filename="C:\Users\bbcoo\Desktop\DriveOnRig\Min bog\Hjemmeside\Assets\Forside\GlobeAnim2\1.png"
       style="fill:none;stroke:#000000;stroke-width:0.36500001;stroke-linecap:butt;stroke-linejoin:miter;stroke-miterlimit:4;stroke-dasharray:none;stroke-opacity:1"
       d="m 483.41647,248.33161 c -0.0135,0.003 3.3991,0.19971 3.9329,-3.40772"
       id="path1752"
       inkscape:connector-curvature="0"
       sodipodi:nodetypes="cc" />
    <path
       d="m 488.69796,244.65787 q 0.0126,-1.64532 0.94288,-2.73579 0.93028,-1.09047 2.17878,-1.07806 1.29205,0.0129 2.18344,1.1545 0.8914,1.14165 0.87931,2.72082 -0.0127,1.64532 -0.94283,2.72752 -0.93021,1.0822 -2.17871,1.06979 -1.29205,-0.0128 -2.18351,-1.14623 -0.8914,-1.14165 -0.87936,-2.71255 z m 1.24836,0.0289 q -0.0103,1.33941 0.25286,2.05312 0.19181,0.54763 0.59513,0.96506 0.40339,0.40917 0.96956,0.4148 0.72586,0.007 1.25407,-0.71517 0.61632,-0.8538 0.63083,-2.74715 0.01,-1.27326 -0.25312,-2.02004 -0.1918,-0.54763 -0.60231,-0.97341 -0.41053,-0.42578 -0.9767,-0.4314 -0.72587,-0.007 -1.2542,0.7317 -0.60161,0.82914 -0.61612,2.72249 z"
       style="font-style:italic;font-variant:normal;font-weight:bold;font-stretch:normal;font-size:16.93333244px;line-height:1.25;font-family:'CMU Serif Upright Italic';-inkscape-font-specification:'CMU Serif Upright Italic, Bold Italic';letter-spacing:-0.05820833px;word-spacing:0px;stroke-width:0.26458332"
       id="path1754"
       inkscape:connector-curvature="0"
       inkscape:export-filename="C:\Users\bbcoo\Desktop\DriveOnRig\Min bog\Hjemmeside\Assets\Forside\GlobeAnim2\1.png"
       inkscape:export-xdpi="546.3515"
       inkscape:export-ydpi="546.3515" />
    <path
       d="m 494.56916,243.3614 a 4.0012174,2.0162227 0 0 1 0.92357,2.25923 4.0012174,2.0162227 0 0 1 -3.88811,1.21744 4.0012174,2.0162227 0 0 1 -3.61079,-1.41782 4.0012174,2.0162227 0 0 1 1.39256,-2.19734"
       sodipodi:open="true"
       sodipodi:end="4.0596795"
       sodipodi:start="5.4710566"
       sodipodi:ry="2.0162227"
       sodipodi:rx="4.0012174"
       sodipodi:cy="244.82468"
       sodipodi:cx="491.8165"
       sodipodi:type="arc"
       id="path1756"
       style="fill:none;fill-opacity:1;stroke:#000000;stroke-width:0.36500001;stroke-miterlimit:4;stroke-dasharray:none;stroke-opacity:1"
       inkscape:export-filename="C:\Users\bbcoo\Desktop\DriveOnRig\Min bog\Hjemmeside\Assets\Forside\GlobeAnim2\1.png"
       inkscape:export-xdpi="546.3515"
       inkscape:export-ydpi="546.3515" />
    <path
       sodipodi:nodetypes="cc"
       inkscape:connector-curvature="0"
       id="path1758"
       d="m 487.81401,244.78507 c -0.0267,-0.0183 -0.1225,-2.95376 3.3559,-3.68526"
       style="fill:none;stroke:#000000;stroke-width:0.36500001;stroke-linecap:butt;stroke-linejoin:miter;stroke-miterlimit:4;stroke-dasharray:none;stroke-opacity:1"
       inkscape:export-filename="C:\Users\bbcoo\Desktop\DriveOnRig\Min bog\Hjemmeside\Assets\Forside\GlobeAnim2\1.png"
       inkscape:export-xdpi="546.3515"
       inkscape:export-ydpi="546.3515" />
    <path
       sodipodi:nodetypes="cc"
       inkscape:connector-curvature="0"
       id="path1760"
       d="m 491.88319,248.33161 c 0.0114,-0.005 3.61043,0.12927 3.9329,-3.40772"
       style="fill:none;stroke:#000000;stroke-width:0.36500001;stroke-linecap:butt;stroke-linejoin:miter;stroke-miterlimit:4;stroke-dasharray:none;stroke-opacity:1"
       inkscape:export-filename="C:\Users\bbcoo\Desktop\DriveOnRig\Min bog\Hjemmeside\Assets\Forside\GlobeAnim2\1.png"
       inkscape:export-xdpi="546.3515"
       inkscape:export-ydpi="546.3515" />
    <path
       inkscape:export-ydpi="546.3515"
       inkscape:export-xdpi="546.3515"
       inkscape:export-filename="C:\Users\bbcoo\Desktop\DriveOnRig\Min bog\Hjemmeside\Assets\Forside\GlobeAnim2\1.png"
       inkscape:connector-curvature="0"
       id="path1762"
       style="font-style:italic;font-variant:normal;font-weight:bold;font-stretch:normal;font-size:16.93333244px;line-height:1.25;font-family:'CMU Serif Upright Italic';-inkscape-font-specification:'CMU Serif Upright Italic, Bold Italic';letter-spacing:-0.05820833px;word-spacing:0px;stroke-width:0.26458332"
       d="m 497.42925,244.65787 q 0.0115,-1.64532 0.8622,-2.73579 0.85069,-1.09047 1.99237,-1.07806 1.1815,0.0129 1.99662,1.1545 0.81513,1.14165 0.80408,2.72082 -0.0116,1.64532 -0.86216,2.72752 -0.85062,1.0822 -1.9923,1.06979 -1.1815,-0.0128 -1.99669,-1.14623 -0.81513,-1.14165 -0.80412,-2.71255 z m 1.14155,0.0289 q -0.009,1.33941 0.23122,2.05312 0.1754,0.54763 0.54421,0.96506 0.36888,0.40917 0.88661,0.4148 0.66375,0.007 1.14677,-0.71517 0.56359,-0.8538 0.57686,-2.74715 0.009,-1.27326 -0.23147,-2.02004 -0.17539,-0.54763 -0.55077,-0.97341 -0.37541,-0.42578 -0.89314,-0.4314 -0.66376,-0.007 -1.14689,0.7317 -0.55013,0.82914 -0.5634,2.72249 z" />
    <path
       inkscape:export-ydpi="546.3515"
       inkscape:export-xdpi="546.3515"
       inkscape:export-filename="C:\Users\bbcoo\Desktop\DriveOnRig\Min bog\Hjemmeside\Assets\Forside\GlobeAnim2\1.png"
       style="fill:none;fill-opacity:1;stroke:#000000;stroke-width:0.36500001;stroke-miterlimit:4;stroke-dasharray:none;stroke-opacity:1"
       id="path1764"
       sodipodi:type="arc"
       sodipodi:cx="500.28329"
       sodipodi:cy="244.82468"
       sodipodi:rx="4.0012174"
       sodipodi:ry="2.0162227"
       sodipodi:start="5.2787416"
       sodipodi:end="4.070187"
       sodipodi:open="true"
       d="m 502.43018,243.12326 a 4.0012174,2.0162227 0 0 1 1.71548,2.22795 4.0012174,2.0162227 0 0 1 -3.71066,1.48824 4.0012174,2.0162227 0 0 1 -3.92379,-1.34227 4.0012174,2.0162227 0 0 1 1.37551,-2.28705" />
    <path
       d="m 506.0944,244.65787 q 0.0107,-1.64532 0.80169,-2.73579 0.791,-1.09047 1.85256,-1.07806 1.09859,0.0129 1.85651,1.1545 0.75793,1.14165 0.74765,2.72082 -0.0108,1.64532 -0.80166,2.72752 -0.79093,1.0822 -1.85249,1.06979 -1.09859,-0.0128 -1.85657,-1.14623 -0.75793,-1.14165 -0.74769,-2.71255 z m 1.06144,0.0289 q -0.008,1.33941 0.21499,2.05312 0.16309,0.54763 0.50602,0.96506 0.343,0.40917 0.8244,0.4148 0.61717,0.007 1.06629,-0.71517 0.52404,-0.8538 0.53638,-2.74715 0.008,-1.27326 -0.21523,-2.02004 -0.16308,-0.54763 -0.51212,-0.97341 -0.34906,-0.42578 -0.83046,-0.4314 -0.61718,-0.007 -1.06641,0.7317 -0.51152,0.82914 -0.52386,2.72249 z"
       style="font-style:italic;font-variant:normal;font-weight:bold;font-stretch:normal;font-size:16.93333244px;line-height:1.25;font-family:'CMU Serif Upright Italic';-inkscape-font-specification:'CMU Serif Upright Italic, Bold Italic';letter-spacing:-0.05820833px;word-spacing:0px;stroke-width:0.26458332"
       id="path1770"
       inkscape:connector-curvature="0"
       inkscape:export-filename="C:\Users\bbcoo\Desktop\DriveOnRig\Min bog\Hjemmeside\Assets\Forside\GlobeAnim2\1.png"
       inkscape:export-xdpi="546.3515"
       inkscape:export-ydpi="546.3515" />
    <path
       d="m 510.88053,243.11803 a 4.0012174,2.0162227 0 0 1 1.71884,2.25693 4.0012174,2.0162227 0 0 1 -3.81481,1.46586 4.0012174,2.0162227 0 0 1 -3.8644,-1.43249 4.0012174,2.0162227 0 0 1 1.64134,-2.27153"
       sodipodi:open="true"
       sodipodi:end="4.1336445"
       sodipodi:start="5.2738867"
       sodipodi:ry="2.0162227"
       sodipodi:rx="4.0012174"
       sodipodi:cy="244.82468"
       sodipodi:cx="508.75006"
       sodipodi:type="arc"
       id="path1772"
       style="fill:none;fill-opacity:1;stroke:#000000;stroke-width:0.36500001;stroke-miterlimit:4;stroke-dasharray:none;stroke-opacity:1"
       inkscape:export-filename="C:\Users\bbcoo\Desktop\DriveOnRig\Min bog\Hjemmeside\Assets\Forside\GlobeAnim2\1.png"
       inkscape:export-xdpi="546.3515"
       inkscape:export-ydpi="546.3515" />
    <path
       inkscape:export-ydpi="546.3515"
       inkscape:export-xdpi="546.3515"
       inkscape:export-filename="C:\Users\bbcoo\Desktop\DriveOnRig\Min bog\Hjemmeside\Assets\Forside\GlobeAnim2\1.png"
       inkscape:connector-curvature="0"
       id="path1778"
       style="font-style:italic;font-variant:normal;font-weight:bold;font-stretch:normal;font-size:16.93333244px;line-height:1.25;font-family:'CMU Serif Upright Italic';-inkscape-font-specification:'CMU Serif Upright Italic, Bold Italic';letter-spacing:-0.05820833px;word-spacing:0px;stroke-width:0.26458332"
       d="m 514.72648,244.65787 q 0.01,-1.64532 0.75127,-2.73579 0.74125,-1.09047 1.73604,-1.07806 1.0295,0.0129 1.73976,1.1545 0.71026,1.14165 0.70062,2.72082 -0.0101,1.64532 -0.75124,2.72752 -0.74118,1.0822 -1.73598,1.06979 -1.0295,-0.0128 -1.73981,-1.14623 -0.71026,-1.14165 -0.70066,-2.71255 z m 0.99468,0.0289 q -0.007,1.33941 0.20147,2.05312 0.15283,0.54763 0.47419,0.96506 0.32143,0.40917 0.77256,0.4148 0.57835,0.007 0.99922,-0.71517 0.49109,-0.8538 0.50265,-2.74715 0.007,-1.27326 -0.20169,-2.02004 -0.15283,-0.54763 -0.47991,-0.97341 -0.32711,-0.42578 -0.77824,-0.4314 -0.57836,-0.007 -0.99934,0.7317 -0.47935,0.82914 -0.49091,2.72249 z" />
    <path
       inkscape:export-ydpi="546.3515"
       inkscape:export-xdpi="546.3515"
       inkscape:export-filename="C:\Users\bbcoo\Desktop\DriveOnRig\Min bog\Hjemmeside\Assets\Forside\GlobeAnim2\1.png"
       style="fill:none;fill-opacity:1;stroke:#000000;stroke-width:0.36500001;stroke-miterlimit:4;stroke-dasharray:none;stroke-opacity:1"
       id="path1780"
       sodipodi:type="arc"
       sodipodi:cx="517.21686"
       sodipodi:cy="244.82468"
       sodipodi:rx="4.0012174"
       sodipodi:ry="2.0162227"
       sodipodi:start="5.1900159"
       sodipodi:end="4.2027496"
       sodipodi:open="true"
       d="m 519.05611,243.03409 a 4.0012174,2.0162227 0 0 1 2.05586,2.25183 4.0012174,2.0162227 0 0 1 -3.83107,1.55472 4.0012174,2.0162227 0 0 1 -3.92786,-1.49213 4.0012174,2.0162227 0 0 1 1.91177,-2.28384" />
    <path
       d="m 523.52391,244.65787 q 0.009,-1.64532 0.65043,-2.73579 0.64176,-1.09047 1.50302,-1.07806 0.89131,0.0129 1.50624,1.1545 0.61492,1.14165 0.60658,2.72082 -0.009,1.64532 -0.65041,2.72752 -0.64169,1.0822 -1.50296,1.06979 -0.89132,-0.0128 -1.50629,-1.14623 -0.61492,-1.14165 -0.60661,-2.71255 z m 0.86117,0.0289 q -0.006,1.33941 0.17443,2.05312 0.13231,0.54763 0.41054,0.96506 0.27828,0.40917 0.66886,0.4148 0.50072,0.007 0.8651,-0.71517 0.42517,-0.8538 0.43518,-2.74715 0.006,-1.27326 -0.17462,-2.02004 -0.13231,-0.54763 -0.41549,-0.97341 -0.2832,-0.42578 -0.67378,-0.4314 -0.50073,-0.007 -0.8652,0.7317 -0.41501,0.82914 -0.42502,2.72249 z"
       style="font-style:italic;font-variant:normal;font-weight:bold;font-stretch:normal;font-size:16.93333244px;line-height:1.25;font-family:'CMU Serif Upright Italic';-inkscape-font-specification:'CMU Serif Upright Italic, Bold Italic';letter-spacing:-0.05820833px;word-spacing:0px;stroke-width:0.26458332"
       id="path1787"
       inkscape:connector-curvature="0"
       inkscape:export-filename="C:\Users\bbcoo\Desktop\DriveOnRig\Min bog\Hjemmeside\Assets\Forside\GlobeAnim2\1.png"
       inkscape:export-xdpi="546.3515"
       inkscape:export-ydpi="546.3515" />
    <path
       d="m 527.39073,243.00116 a 4.0012174,2.0162227 0 0 1 2.20379,2.24958 4.0012174,2.0162227 0 0 1 -3.85113,1.58993 4.0012174,2.0162227 0 0 1 -3.94361,-1.53129 4.0012174,2.0162227 0 0 1 2.06952,-2.28172"
       sodipodi:open="true"
       sodipodi:end="4.2417555"
       sodipodi:start="5.1531609"
       sodipodi:ry="2.0162227"
       sodipodi:rx="4.0012174"
       sodipodi:cy="244.82468"
       sodipodi:cx="525.68365"
       sodipodi:type="arc"
       id="path1789"
       style="fill:none;fill-opacity:1;stroke:#000000;stroke-width:0.36500001;stroke-miterlimit:4;stroke-dasharray:none;stroke-opacity:1"
       inkscape:export-filename="C:\Users\bbcoo\Desktop\DriveOnRig\Min bog\Hjemmeside\Assets\Forside\GlobeAnim2\1.png"
       inkscape:export-xdpi="546.3515"
       inkscape:export-ydpi="546.3515" />
    <path
       inkscape:export-ydpi="546.3515"
       inkscape:export-xdpi="546.3515"
       inkscape:export-filename="C:\Users\bbcoo\Desktop\DriveOnRig\Min bog\Hjemmeside\Assets\Forside\GlobeAnim2\1.png"
       inkscape:connector-curvature="0"
       id="path1795"
       style="font-style:italic;font-variant:normal;font-weight:bold;font-stretch:normal;font-size:16.93333244px;line-height:1.25;font-family:'CMU Serif Upright Italic';-inkscape-font-specification:'CMU Serif Upright Italic, Bold Italic';letter-spacing:-0.05820833px;word-spacing:0px;stroke-width:0.26458332"
       d="m 532.28827,244.65787 q 0.008,-1.64532 0.55968,-2.73579 0.55221,-1.09047 1.2933,-1.07806 0.76694,0.0129 1.29607,1.1545 0.52912,1.14165 0.52194,2.72082 -0.008,1.64532 -0.55966,2.72752 -0.55215,1.0822 -1.29325,1.06979 -0.76695,-0.0128 -1.29611,-1.14623 -0.52912,-1.14165 -0.52197,-2.71255 z m 0.74101,0.0289 q -0.005,1.33941 0.15009,2.05312 0.11385,0.54763 0.35326,0.96506 0.23945,0.40917 0.57553,0.4148 0.43086,0.007 0.74439,-0.71517 0.36585,-0.8538 0.37446,-2.74715 0.005,-1.27326 -0.15025,-2.02004 -0.11385,-0.54763 -0.35752,-0.97341 -0.24368,-0.42578 -0.57977,-0.4314 -0.43086,-0.007 -0.74447,0.7317 -0.35711,0.82914 -0.36572,2.72249 z" />
    <path
       inkscape:export-ydpi="546.3515"
       inkscape:export-xdpi="546.3515"
       inkscape:export-filename="C:\Users\bbcoo\Desktop\DriveOnRig\Min bog\Hjemmeside\Assets\Forside\GlobeAnim2\1.png"
       style="fill:none;fill-opacity:1;stroke:#000000;stroke-width:0.36500001;stroke-miterlimit:4;stroke-dasharray:none;stroke-opacity:1"
       id="path1797"
       sodipodi:type="arc"
       sodipodi:cx="534.15045"
       sodipodi:cy="244.82468"
       sodipodi:rx="4.0012174"
       sodipodi:ry="2.0162227"
       sodipodi:start="5.0643155"
       sodipodi:end="4.334585"
       sodipodi:open="true"
       d="m 535.5297,242.93203 a 4.0012174,2.0162227 0 0 1 2.56463,2.23275 4.0012174,2.0162227 0 0 1 -3.89211,1.67595 4.0012174,2.0162227 0 0 1 -3.97687,-1.62464 4.0012174,2.0162227 0 0 1 2.44913,-2.26545" />
    <path
       d="m 541.05263,244.65787 q 0.007,-1.64532 0.46893,-2.73579 0.46266,-1.09047 1.08358,-1.07806 0.64257,0.0129 1.0859,1.1545 0.44332,1.14165 0.4373,2.72082 -0.007,1.64532 -0.46891,2.72752 -0.46261,1.0822 -1.08353,1.06979 -0.64259,-0.0128 -1.08594,-1.14623 -0.44332,-1.14165 -0.43733,-2.71255 z m 0.62085,0.0289 q -0.004,1.33941 0.12575,2.05312 0.0954,0.54763 0.29598,0.96506 0.20062,0.40917 0.4822,0.4148 0.36099,0.007 0.62368,-0.71517 0.30653,-0.8538 0.31374,-2.74715 0.004,-1.27326 -0.12588,-2.02004 -0.0954,-0.54763 -0.29955,-0.97341 -0.20416,-0.42578 -0.48575,-0.4314 -0.361,-0.007 -0.62375,0.7317 -0.2992,0.82914 -0.30642,2.72249 z"
       style="font-style:italic;font-variant:normal;font-weight:bold;font-stretch:normal;font-size:16.93333244px;line-height:1.25;font-family:'CMU Serif Upright Italic';-inkscape-font-specification:'CMU Serif Upright Italic, Bold Italic';letter-spacing:-0.05820833px;word-spacing:0px;stroke-width:0.26458332"
       id="path1803"
       inkscape:connector-curvature="0"
       inkscape:export-filename="C:\Users\bbcoo\Desktop\DriveOnRig\Min bog\Hjemmeside\Assets\Forside\GlobeAnim2\1.png"
       inkscape:export-xdpi="546.3515"
       inkscape:export-ydpi="546.3515" />
    <path
       d="m 543.73078,242.8881 a 4.0012174,2.0162227 0 0 1 2.84959,2.21415 4.0012174,2.0162227 0 0 1 -3.93989,1.73862 4.0012174,2.0162227 0 0 1 -3.97969,-1.71545 4.0012174,2.0162227 0 0 1 2.79838,-2.23067"
       sodipodi:open="true"
       sodipodi:end="4.4187564"
       sodipodi:start="4.9944099"
       sodipodi:ry="2.0162227"
       sodipodi:rx="4.0012174"
       sodipodi:cy="244.82468"
       sodipodi:cx="542.61725"
       sodipodi:type="arc"
       id="path1805"
       style="fill:none;fill-opacity:1;stroke:#000000;stroke-width:0.36500001;stroke-miterlimit:4;stroke-dasharray:none;stroke-opacity:1"
       inkscape:export-filename="C:\Users\bbcoo\Desktop\DriveOnRig\Min bog\Hjemmeside\Assets\Forside\GlobeAnim2\1.png"
       inkscape:export-xdpi="546.3515"
       inkscape:export-ydpi="546.3515" />
    <path
       inkscape:export-ydpi="546.3515"
       inkscape:export-xdpi="546.3515"
       inkscape:export-filename="C:\Users\bbcoo\Desktop\DriveOnRig\Min bog\Hjemmeside\Assets\Forside\GlobeAnim2\1.png"
       inkscape:connector-curvature="0"
       id="path1811"
       style="font-style:italic;font-variant:normal;font-weight:bold;font-stretch:normal;font-size:16.93333244px;line-height:1.25;font-family:'CMU Serif Upright Italic';-inkscape-font-specification:'CMU Serif Upright Italic, Bold Italic';letter-spacing:-0.05820833px;word-spacing:0px;stroke-width:0.26458332"
       d="m 549.78392,244.65787 q 0.006,-1.64532 0.38826,-2.73579 0.38306,-1.09047 0.89716,-1.07806 0.53202,0.0129 0.89908,1.1545 0.36706,1.14165 0.36207,2.72082 -0.006,1.64532 -0.38824,2.72752 -0.38302,1.0822 -0.89712,1.06979 -0.53204,-0.0128 -0.89912,-1.14623 -0.36705,-1.14165 -0.36209,-2.71255 z m 0.51404,0.0289 q -0.003,1.33941 0.10412,2.05312 0.079,0.54763 0.24506,0.96506 0.1661,0.40917 0.39924,0.4148 0.29889,0.007 0.51639,-0.71517 0.25379,-0.8538 0.25976,-2.74715 0.003,-1.27326 -0.10422,-2.02004 -0.079,-0.54763 -0.24802,-0.97341 -0.16904,-0.42578 -0.40218,-0.4314 -0.2989,-0.007 -0.51644,0.7317 -0.24773,0.82914 -0.25371,2.72249 z" />
    <path
       inkscape:export-ydpi="546.3515"
       inkscape:export-xdpi="546.3515"
       inkscape:export-filename="C:\Users\bbcoo\Desktop\DriveOnRig\Min bog\Hjemmeside\Assets\Forside\GlobeAnim2\1.png"
       style="fill:none;fill-opacity:1;stroke:#000000;stroke-width:0.36500001;stroke-miterlimit:4;stroke-dasharray:none;stroke-opacity:1"
       id="path1813"
       sodipodi:type="arc"
       sodipodi:cx="551.08405"
       sodipodi:cy="244.82468"
       sodipodi:rx="4.0012174"
       sodipodi:ry="2.0162227"
       sodipodi:start="4.9465865"
       sodipodi:end="4.4624559"
       sodipodi:open="true"
       d="m 552.01258,242.86349 a 4.0012174,2.0162227 0 0 1 3.04709,2.18887 4.0012174,2.0162227 0 0 1 -3.94414,1.78848 4.0012174,2.0162227 0 0 1 -3.99951,-1.75699 4.0012174,2.0162227 0 0 1 2.97837,-2.21275" />
    <path
       d="m 558.51521,244.65787 c 0.003,-1.09688 0.0558,-2.00881 0.25752,-2.73579 0.20231,-0.72698 0.4893,-1.08633 0.76081,-1.07806 0.28099,0.009 0.56833,0.39343 0.76219,1.1545 0.19386,0.7611 0.23955,1.66804 0.23692,2.72082 -0.003,1.09688 -0.0562,2.00605 -0.25792,2.72752 -0.20229,0.72147 -0.48885,1.07806 -0.76037,1.06979 -0.28099,-0.009 -0.56876,-0.39061 -0.76263,-1.14623 -0.19386,-0.7611 -0.23914,-1.66528 -0.23652,-2.71255 z m 0.40723,0.0289 c -0.001,0.89294 0.0262,1.57731 0.0825,2.05312 0.0417,0.36509 0.10645,0.68677 0.19414,0.96506 0.0877,0.27278 0.19315,0.41105 0.31628,0.4148 0.15786,0.005 0.29423,-0.23372 0.4091,-0.71517 0.13403,-0.5692 0.20263,-1.48492 0.20578,-2.74715 0.001,-0.84884 -0.0262,-1.52219 -0.0826,-2.02004 -0.0417,-0.36509 -0.10723,-0.68956 -0.19649,-0.97341 -0.0893,-0.28385 -0.19548,-0.42765 -0.31861,-0.4314 -0.15786,-0.005 -0.29424,0.23923 -0.40913,0.7317 -0.13084,0.55276 -0.19784,1.46026 -0.201,2.72249 z"
       style="font-style:italic;font-variant:normal;font-weight:bold;font-stretch:normal;font-size:16.93333244px;line-height:1.25;font-family:'CMU Serif Upright Italic';-inkscape-font-specification:'CMU Serif Upright Italic, Bold Italic';letter-spacing:-0.05820833px;word-spacing:0px;stroke-width:0.26458332"
       id="path1819"
       inkscape:connector-curvature="0"
       inkscape:export-filename="C:\Users\bbcoo\Desktop\DriveOnRig\Min bog\Hjemmeside\Assets\Forside\GlobeAnim2\1.png"
       inkscape:export-xdpi="546.3515"
       inkscape:export-ydpi="546.3515"
       sodipodi:nodetypes="ccccccccccccccccccccc" />
    <path
       d="m 560.32143,242.8462 a 4.0012174,2.0162227 0 0 1 3.21155,2.17512 4.0012174,2.0162227 0 0 1 -3.98843,1.81958 4.0012174,2.0162227 0 0 1 -3.97706,-1.82589 4.0012174,2.0162227 0 0 1 3.22511,-2.17002"
       sodipodi:open="true"
       sodipodi:end="4.5217336"
       sodipodi:start="4.9061874"
       sodipodi:ry="2.0162227"
       sodipodi:rx="4.0012174"
       sodipodi:cy="244.82468"
       sodipodi:cx="559.55084"
       sodipodi:type="arc"
       id="path1821"
       style="fill:none;fill-opacity:1;stroke:#000000;stroke-width:0.36500001;stroke-miterlimit:4;stroke-dasharray:none;stroke-opacity:1"
       inkscape:export-filename="C:\Users\bbcoo\Desktop\DriveOnRig\Min bog\Hjemmeside\Assets\Forside\GlobeAnim2\1.png"
       inkscape:export-xdpi="546.3515"
       inkscape:export-ydpi="546.3515" />
    <path
       inkscape:export-ydpi="546.3515"
       inkscape:export-xdpi="546.3515"
       inkscape:export-filename="C:\Users\bbcoo\Desktop\DriveOnRig\Min bog\Hjemmeside\Assets\Forside\GlobeAnim2\1.png"
       inkscape:connector-curvature="0"
       id="path1827"
       style="font-style:italic;font-variant:normal;font-weight:bold;font-stretch:normal;font-size:16.93333244px;line-height:1.25;font-family:'CMU Serif Upright Italic';-inkscape-font-specification:'CMU Serif Upright Italic, Bold Italic';letter-spacing:-0.05820833px;word-spacing:0px;stroke-width:0.26458332"
       d="m 567.2465,244.65787 c 0.003,-1.09688 0.0279,-2.00881 0.17653,-2.73579 0.14925,-0.72698 0.3744,-1.08633 0.5747,-1.07806 0.20729,0.009 0.43246,0.39343 0.57547,1.1545 0.14301,0.7611 0.21355,1.66804 0.2116,2.72082 -0.003,1.09688 -0.0783,2.00605 -0.2269,2.72752 -0.14924,0.72147 -0.37401,1.07806 -0.57431,1.06979 -0.2073,-0.009 -0.43283,-0.39061 -0.57584,-1.14623 -0.14301,-0.7611 -0.16318,-1.66528 -0.16125,-2.71255 z m 0.30042,0.0289 c -6.7e-4,0.89294 0.0196,1.57731 0.0609,2.05312 0.0308,0.36509 0.0785,0.68677 0.14322,0.96506 0.0647,0.27278 0.14251,0.41105 0.23332,0.4148 0.11646,0.005 0.21706,-0.23372 0.3018,-0.71517 0.0989,-0.5692 0.19949,-1.48492 0.20181,-2.74715 6.7e-4,-0.84884 -0.0696,-1.52219 -0.1109,-2.02004 -0.0308,-0.36509 -0.0791,-0.68956 -0.14496,-0.97341 -0.0659,-0.28385 -0.14421,-0.42765 -0.23504,-0.4314 -0.11646,-0.005 -0.21707,0.23923 -0.30183,0.7317 -0.0965,0.55276 -0.14595,1.46026 -0.14828,2.72249 z"
       sodipodi:nodetypes="ccccccccccccccccccccc" />
    <path
       inkscape:export-ydpi="546.3515"
       inkscape:export-xdpi="546.3515"
       inkscape:export-filename="C:\Users\bbcoo\Desktop\DriveOnRig\Min bog\Hjemmeside\Assets\Forside\GlobeAnim2\1.png"
       style="fill:none;fill-opacity:1;stroke:#000000;stroke-width:0.36500001;stroke-miterlimit:4;stroke-dasharray:none;stroke-opacity:1"
       id="path1829"
       sodipodi:type="arc"
       sodipodi:cx="568.01764"
       sodipodi:cy="244.82468"
       sodipodi:rx="4.0012174"
       sodipodi:ry="2.0162227"
       sodipodi:start="4.8488954"
       sodipodi:end="4.552683"
       sodipodi:open="true"
       d="m 568.56214,242.82721 a 4.0012174,2.0162227 0 0 1 3.44892,2.1233 4.0012174,2.0162227 0 0 1 -3.94701,1.89025 4.0012174,2.0162227 0 0 1 -4.03296,-1.8436 4.0012174,2.0162227 0 0 1 3.35024,-2.16305" />
    <path
       d="m 575.91165,244.65787 c 0.002,-1.09688 0.008,-2.00881 0.11683,-2.73579 0.10945,-0.72698 0.2872,-1.08633 0.43409,-1.07806 0.15202,0.009 0.33004,0.39343 0.43491,1.1545 0.10488,0.7611 0.10704,1.66804 0.10562,2.72082 -0.002,1.09688 -0.008,2.00605 -0.11683,2.72752 -0.10944,0.72147 -0.28718,1.07806 -0.43407,1.06979 -0.15203,-0.009 -0.33005,-0.39061 -0.43493,-1.14623 -0.10488,-0.7611 -0.10703,-1.66528 -0.10562,-2.71255 z m 0.22032,0.0289 c -4.9e-4,0.89294 0.0144,1.57731 0.0447,2.05312 0.0226,0.36509 0.0576,0.68677 0.10503,0.96506 0.0475,0.27278 0.1045,0.41105 0.1711,0.4148 0.0854,0.005 0.15918,-0.23372 0.22133,-0.71517 0.0725,-0.5692 0.10962,-1.48492 0.11133,-2.74715 4.9e-4,-0.84884 -0.0144,-1.52219 -0.0447,-2.02004 -0.0226,-0.36509 -0.058,-0.68956 -0.10631,-0.97341 -0.0483,-0.28385 -0.10579,-0.42765 -0.17237,-0.4314 -0.0854,-0.005 -0.15918,0.23923 -0.22134,0.7317 -0.0708,0.55276 -0.10703,1.46026 -0.10874,2.72249 z"
       style="font-style:italic;font-variant:normal;font-weight:bold;font-stretch:normal;font-size:16.93333244px;line-height:1.25;font-family:'CMU Serif Upright Italic';-inkscape-font-specification:'CMU Serif Upright Italic, Bold Italic';letter-spacing:-0.05820833px;word-spacing:0px;stroke-width:0.26458332"
       id="path1835"
       inkscape:connector-curvature="0"
       inkscape:export-filename="C:\Users\bbcoo\Desktop\DriveOnRig\Min bog\Hjemmeside\Assets\Forside\GlobeAnim2\1.png"
       inkscape:export-xdpi="546.3515"
       inkscape:export-ydpi="546.3515"
       sodipodi:nodetypes="ccccccccccccccccccccc" />
    <path
       d="m 576.95983,242.82274 a 4.0012174,2.0162227 0 0 1 3.51928,2.11721 4.0012174,2.0162227 0 0 1 -3.97592,1.90093 4.0012174,2.0162227 0 0 1 -4.01111,-1.88207 4.0012174,2.0162227 0 0 1 3.47974,-2.13374"
       sodipodi:open="true"
       sodipodi:end="4.5839213"
       sodipodi:start="4.8314825"
       sodipodi:ry="2.0162227"
       sodipodi:rx="4.0012174"
       sodipodi:cy="244.82468"
       sodipodi:cx="576.48444"
       sodipodi:type="arc"
       id="path1837"
       style="fill:none;fill-opacity:1;stroke:#000000;stroke-width:0.36500001;stroke-miterlimit:4;stroke-dasharray:none;stroke-opacity:1"
       inkscape:export-filename="C:\Users\bbcoo\Desktop\DriveOnRig\Min bog\Hjemmeside\Assets\Forside\GlobeAnim2\1.png"
       inkscape:export-xdpi="546.3515"
       inkscape:export-ydpi="546.3515" />
    <path
       inkscape:export-ydpi="546.3515"
       inkscape:export-xdpi="546.3515"
       inkscape:export-filename="C:\Users\bbcoo\Desktop\DriveOnRig\Min bog\Hjemmeside\Assets\Forside\GlobeAnim2\1.png"
       style="fill:none;stroke:#000000;stroke-width:0.36500001;stroke-linecap:butt;stroke-linejoin:miter;stroke-miterlimit:4;stroke-dasharray:none;stroke-opacity:1"
       d="m 496.28073,244.78507 c -0.0378,-0.0258 -0.0242,-3.20023 3.6924,-3.74514"
       id="path1843"
       inkscape:connector-curvature="0"
       sodipodi:nodetypes="cc" />
    <path
       sodipodi:nodetypes="cc"
       inkscape:connector-curvature="0"
       id="path1845"
       d="m 504.74745,244.78507 c -0.0378,-0.0258 -0.0242,-3.20023 3.6924,-3.74514"
       style="fill:none;stroke:#000000;stroke-width:0.36500001;stroke-linecap:butt;stroke-linejoin:miter;stroke-miterlimit:4;stroke-dasharray:none;stroke-opacity:1"
       inkscape:export-filename="C:\Users\bbcoo\Desktop\DriveOnRig\Min bog\Hjemmeside\Assets\Forside\GlobeAnim2\1.png"
       inkscape:export-xdpi="546.3515"
       inkscape:export-ydpi="546.3515" />
    <path
       inkscape:export-ydpi="546.3515"
       inkscape:export-xdpi="546.3515"
       inkscape:export-filename="C:\Users\bbcoo\Desktop\DriveOnRig\Min bog\Hjemmeside\Assets\Forside\GlobeAnim2\1.png"
       style="fill:none;stroke:#000000;stroke-width:0.36500001;stroke-linecap:butt;stroke-linejoin:miter;stroke-miterlimit:4;stroke-dasharray:none;stroke-opacity:1"
       d="m 513.21417,244.78507 c -0.058,-0.0485 -0.0387,-3.36842 3.81642,-3.75754"
       id="path1847"
       inkscape:connector-curvature="0"
       sodipodi:nodetypes="cc" />
    <path
       sodipodi:nodetypes="cc"
       inkscape:connector-curvature="0"
       id="path1849"
       d="m 521.68089,244.78507 c -0.0612,-0.0541 -0.0644,-3.50433 3.86603,-3.76167"
       style="fill:none;stroke:#000000;stroke-width:0.36500001;stroke-linecap:butt;stroke-linejoin:miter;stroke-miterlimit:4;stroke-dasharray:none;stroke-opacity:1"
       inkscape:export-filename="C:\Users\bbcoo\Desktop\DriveOnRig\Min bog\Hjemmeside\Assets\Forside\GlobeAnim2\1.png"
       inkscape:export-xdpi="546.3515"
       inkscape:export-ydpi="546.3515" />
    <path
       inkscape:export-ydpi="546.3515"
       inkscape:export-xdpi="546.3515"
       inkscape:export-filename="C:\Users\bbcoo\Desktop\DriveOnRig\Min bog\Hjemmeside\Assets\Forside\GlobeAnim2\1.png"
       style="fill:none;stroke:#000000;stroke-width:0.36500001;stroke-linecap:butt;stroke-linejoin:miter;stroke-miterlimit:4;stroke-dasharray:none;stroke-opacity:1"
       d="m 530.14761,244.78507 c -0.0612,-0.0541 -0.0644,-3.50433 3.86603,-3.76167"
       id="path1851"
       inkscape:connector-curvature="0"
       sodipodi:nodetypes="cc" />
    <path
       sodipodi:nodetypes="cc"
       inkscape:connector-curvature="0"
       id="path1853"
       d="m 538.61433,244.78507 c -0.0612,-0.0541 -0.0644,-3.50433 3.86603,-3.76167"
       style="fill:none;stroke:#000000;stroke-width:0.36500001;stroke-linecap:butt;stroke-linejoin:miter;stroke-miterlimit:4;stroke-dasharray:none;stroke-opacity:1"
       inkscape:export-filename="C:\Users\bbcoo\Desktop\DriveOnRig\Min bog\Hjemmeside\Assets\Forside\GlobeAnim2\1.png"
       inkscape:export-xdpi="546.3515"
       inkscape:export-ydpi="546.3515" />
    <path
       inkscape:export-ydpi="546.3515"
       inkscape:export-xdpi="546.3515"
       inkscape:export-filename="C:\Users\bbcoo\Desktop\DriveOnRig\Min bog\Hjemmeside\Assets\Forside\GlobeAnim2\1.png"
       style="fill:none;stroke:#000000;stroke-width:0.36500001;stroke-linecap:butt;stroke-linejoin:miter;stroke-miterlimit:4;stroke-dasharray:none;stroke-opacity:1"
       d="m 547.08105,244.78507 c -0.0612,-0.0541 0.006,-3.50433 3.93619,-3.76167"
       id="path1855"
       inkscape:connector-curvature="0"
       sodipodi:nodetypes="cc" />
    <path
       sodipodi:nodetypes="cc"
       inkscape:connector-curvature="0"
       id="path1857"
       d="m 555.54777,244.78507 c -0.0709,-0.0767 -0.0681,-3.67726 3.93619,-3.76167"
       style="fill:none;stroke:#000000;stroke-width:0.36500001;stroke-linecap:butt;stroke-linejoin:miter;stroke-miterlimit:4;stroke-dasharray:none;stroke-opacity:1"
       inkscape:export-filename="C:\Users\bbcoo\Desktop\DriveOnRig\Min bog\Hjemmeside\Assets\Forside\GlobeAnim2\1.png"
       inkscape:export-xdpi="546.3515"
       inkscape:export-ydpi="546.3515" />
    <path
       inkscape:export-ydpi="546.3515"
       inkscape:export-xdpi="546.3515"
       inkscape:export-filename="C:\Users\bbcoo\Desktop\DriveOnRig\Min bog\Hjemmeside\Assets\Forside\GlobeAnim2\1.png"
       style="fill:none;stroke:#000000;stroke-width:0.36500001;stroke-linecap:butt;stroke-linejoin:miter;stroke-miterlimit:4;stroke-dasharray:none;stroke-opacity:1"
       d="m 564.01449,244.78507 c -0.0776,-0.0789 -0.22795,-3.73054 3.93619,-3.76167"
       id="path1859"
       inkscape:connector-curvature="0"
       sodipodi:nodetypes="cc" />
    <path
       sodipodi:nodetypes="cc"
       inkscape:connector-curvature="0"
       id="path1861"
       d="m 572.48121,244.78507 c -0.0776,-0.0789 -0.22795,-3.73054 3.93619,-3.76167"
       style="fill:none;stroke:#000000;stroke-width:0.36500001;stroke-linecap:butt;stroke-linejoin:miter;stroke-miterlimit:4;stroke-dasharray:none;stroke-opacity:1"
       inkscape:export-filename="C:\Users\bbcoo\Desktop\DriveOnRig\Min bog\Hjemmeside\Assets\Forside\GlobeAnim2\1.png"
       inkscape:export-xdpi="546.3515"
       inkscape:export-ydpi="546.3515" />
    <path
       inkscape:export-ydpi="546.3515"
       inkscape:export-xdpi="546.3515"
       inkscape:export-filename="C:\Users\bbcoo\Desktop\DriveOnRig\Min bog\Hjemmeside\Assets\Forside\GlobeAnim2\1.png"
       style="fill:none;stroke:#000000;stroke-width:0.36500001;stroke-linecap:butt;stroke-linejoin:miter;stroke-miterlimit:4;stroke-dasharray:none;stroke-opacity:1"
       d="m 500.34991,248.33161 c 0.0204,-0.006 3.79538,0.10285 3.9329,-3.40772"
       id="path1863"
       inkscape:connector-curvature="0"
       sodipodi:nodetypes="cc" />
    <path
       sodipodi:nodetypes="cc"
       inkscape:connector-curvature="0"
       id="path1865"
       d="m 508.81663,248.33161 c 0.0411,-0.006 3.94275,0.10285 3.9329,-3.40772"
       style="fill:none;stroke:#000000;stroke-width:0.36500001;stroke-linecap:butt;stroke-linejoin:miter;stroke-miterlimit:4;stroke-dasharray:none;stroke-opacity:1"
       inkscape:export-filename="C:\Users\bbcoo\Desktop\DriveOnRig\Min bog\Hjemmeside\Assets\Forside\GlobeAnim2\1.png"
       inkscape:export-xdpi="546.3515"
       inkscape:export-ydpi="546.3515" />
    <path
       inkscape:export-ydpi="546.3515"
       inkscape:export-xdpi="546.3515"
       inkscape:export-filename="C:\Users\bbcoo\Desktop\DriveOnRig\Min bog\Hjemmeside\Assets\Forside\GlobeAnim2\1.png"
       style="fill:none;stroke:#000000;stroke-width:0.36500001;stroke-linecap:butt;stroke-linejoin:miter;stroke-miterlimit:4;stroke-dasharray:none;stroke-opacity:1"
       d="m 517.28335,248.33161 c 0.0626,0.0112 4.0629,0.19897 3.9329,-3.40772"
       id="path1867"
       inkscape:connector-curvature="0"
       sodipodi:nodetypes="cc" />
    <path
       sodipodi:nodetypes="cc"
       inkscape:connector-curvature="0"
       id="path1869"
       d="m 525.75007,248.33161 c 0.0887,0.0178 4.24522,0.143 3.94459,-3.51296"
       style="fill:none;stroke:#000000;stroke-width:0.36500001;stroke-linecap:butt;stroke-linejoin:miter;stroke-miterlimit:4;stroke-dasharray:none;stroke-opacity:1"
       inkscape:export-filename="C:\Users\bbcoo\Desktop\DriveOnRig\Min bog\Hjemmeside\Assets\Forside\GlobeAnim2\1.png"
       inkscape:export-xdpi="546.3515"
       inkscape:export-ydpi="546.3515" />
    <path
       inkscape:export-ydpi="546.3515"
       inkscape:export-xdpi="546.3515"
       inkscape:export-filename="C:\Users\bbcoo\Desktop\DriveOnRig\Min bog\Hjemmeside\Assets\Forside\GlobeAnim2\1.png"
       style="fill:none;stroke:#000000;stroke-width:0.36500001;stroke-linecap:butt;stroke-linejoin:miter;stroke-miterlimit:4;stroke-dasharray:none;stroke-opacity:1"
       d="m 525.75007,248.33161 c 0.0887,0.0178 4.24522,0.143 3.94459,-3.51296"
       id="path1871"
       inkscape:connector-curvature="0"
       sodipodi:nodetypes="cc" />
    <path
       sodipodi:nodetypes="cc"
       inkscape:connector-curvature="0"
       id="path1873"
       d="m 534.04729,248.32748 c 0.0887,0.0178 4.38992,0.37037 4.11409,-3.50883"
       style="fill:none;stroke:#000000;stroke-width:0.36500001;stroke-linecap:butt;stroke-linejoin:miter;stroke-miterlimit:4;stroke-dasharray:none;stroke-opacity:1"
       inkscape:export-filename="C:\Users\bbcoo\Desktop\DriveOnRig\Min bog\Hjemmeside\Assets\Forside\GlobeAnim2\1.png"
       inkscape:export-xdpi="546.3515"
       inkscape:export-ydpi="546.3515" />
    <path
       inkscape:export-ydpi="546.3515"
       inkscape:export-xdpi="546.3515"
       inkscape:export-filename="C:\Users\bbcoo\Desktop\DriveOnRig\Min bog\Hjemmeside\Assets\Forside\GlobeAnim2\1.png"
       style="fill:none;stroke:#000000;stroke-width:0.36500001;stroke-linecap:butt;stroke-linejoin:miter;stroke-miterlimit:4;stroke-dasharray:none;stroke-opacity:1"
       d="m 542.51401,248.32748 c 0.0887,0.0178 4.38992,0.37037 4.11409,-3.50883"
       id="path1875"
       inkscape:connector-curvature="0"
       sodipodi:nodetypes="cc" />
    <path
       sodipodi:nodetypes="cc"
       inkscape:connector-curvature="0"
       id="path1877"
       d="m 550.98073,248.32748 c 0.0887,0.0178 4.38992,0.37037 4.11409,-3.50883"
       style="fill:none;stroke:#000000;stroke-width:0.36500001;stroke-linecap:butt;stroke-linejoin:miter;stroke-miterlimit:4;stroke-dasharray:none;stroke-opacity:1"
       inkscape:export-filename="C:\Users\bbcoo\Desktop\DriveOnRig\Min bog\Hjemmeside\Assets\Forside\GlobeAnim2\1.png"
       inkscape:export-xdpi="546.3515"
       inkscape:export-ydpi="546.3515" />
    <path
       inkscape:export-ydpi="546.3515"
       inkscape:export-xdpi="546.3515"
       inkscape:export-filename="C:\Users\bbcoo\Desktop\DriveOnRig\Min bog\Hjemmeside\Assets\Forside\GlobeAnim2\1.png"
       style="fill:none;stroke:#000000;stroke-width:0.36500001;stroke-linecap:butt;stroke-linejoin:miter;stroke-miterlimit:4;stroke-dasharray:none;stroke-opacity:1"
       d="m 559.44745,248.32748 c 0.0887,0.0178 4.38992,0.37037 4.11409,-3.50883"
       id="path1879"
       inkscape:connector-curvature="0"
       sodipodi:nodetypes="cc" />
    <path
       sodipodi:nodetypes="cc"
       inkscape:connector-curvature="0"
       id="path1881"
       d="m 567.91417,248.32748 c 0.0887,0.0178 4.38992,0.37037 4.11409,-3.50883"
       style="fill:none;stroke:#000000;stroke-width:0.36500001;stroke-linecap:butt;stroke-linejoin:miter;stroke-miterlimit:4;stroke-dasharray:none;stroke-opacity:1"
       inkscape:export-filename="C:\Users\bbcoo\Desktop\DriveOnRig\Min bog\Hjemmeside\Assets\Forside\GlobeAnim2\1.png"
       inkscape:export-xdpi="546.3515"
       inkscape:export-ydpi="546.3515" />
    <path
       inkscape:export-ydpi="546.3515"
       inkscape:export-xdpi="546.3515"
       inkscape:export-filename="C:\Users\bbcoo\Desktop\DriveOnRig\Min bog\Hjemmeside\Assets\Forside\GlobeAnim2\1.png"
       style="fill:none;stroke:#000000;stroke-width:0.36500001;stroke-linecap:butt;stroke-linejoin:miter;stroke-miterlimit:4;stroke-dasharray:none;stroke-opacity:1"
       d="m 576.38089,248.32748 c 0.0887,0.0178 4.38992,0.37037 4.11409,-3.50883"
       id="path1883"
       inkscape:connector-curvature="0"
       sodipodi:nodetypes="cc" />
    <rect
       style="fill:none;fill-opacity:0.23737374;stroke:none;stroke-width:0.16500002;stroke-miterlimit:4;stroke-dasharray:none;stroke-opacity:1"
       id="rect1955"
       width="8.3865471"
       height="4.5491881"
       x="479.14554"
       y="240.59229" />
  </g>
</svg>
