<?xml version="1.0" encoding="UTF-8" standalone="no"?>
<!-- Created with Inkscape (http://www.inkscape.org/) -->

<svg
   xmlns:ns1="http://www.iki.fi/pav/software/textext/"
   xmlns:dc="http://purl.org/dc/elements/1.1/"
   xmlns:cc="http://creativecommons.org/ns#"
   xmlns:rdf="http://www.w3.org/1999/02/22-rdf-syntax-ns#"
   xmlns:svg="http://www.w3.org/2000/svg"
   xmlns="http://www.w3.org/2000/svg"
   xmlns:sodipodi="http://sodipodi.sourceforge.net/DTD/sodipodi-0.dtd"
   xmlns:inkscape="http://www.inkscape.org/namespaces/inkscape"
   width="14.711786mm"
   height="10.904759mm"
   viewBox="0 0 14.711786 10.904759"
   version="1.1"
   id="svg8"
   inkscape:version="0.92.5 (2060ec1f9f, 2020-04-08)"
   sodipodi:docname="Pi.svg">
  <defs
     id="defs2">
    <clipPath
       clipPathUnits="userSpaceOnUse"
       id="clipPath2169">
      <path
         style="fill:none;stroke:#000000;stroke-width:0.26458332px;stroke-linecap:butt;stroke-linejoin:miter;stroke-opacity:1"
         d="m 151.47459,135.19303 1.36214,-4.75074 h 0.72169 l 1.21785,4.54508 c 0,0 0.46055,0.92074 -0.53159,0.92074 -0.99214,0 -2.77009,-0.71508 -2.77009,-0.71508 z"
         id="path2171"
         inkscape:connector-curvature="0" />
    </clipPath>
    <clipPath
       clipPathUnits="userSpaceOnUse"
       id="clipPath2356">
      <path
         style="fill:none;stroke:#000000;stroke-width:0.26458332px;stroke-linecap:butt;stroke-linejoin:miter;stroke-opacity:1"
         d="m 183.94447,264.18693 v 1.1103 l 3.17123,-0.84972 c 0,0 1.27777,-1.80696 1.16051,-2.01006 -0.11726,-0.20311 -0.9386,-0.3991 -1.48943,-0.3991 -0.55083,0 -2.84231,2.14858 -2.84231,2.14858 z"
         id="path2358"
         inkscape:connector-curvature="0" />
    </clipPath>
  </defs>
  <sodipodi:namedview
     id="base"
     pagecolor="#ffffff"
     bordercolor="#666666"
     borderopacity="1.0"
     inkscape:pageopacity="0.0"
     inkscape:pageshadow="2"
     inkscape:zoom="5.6568542"
     inkscape:cx="-30.532"
     inkscape:cy="6.1159034"
     inkscape:document-units="mm"
     inkscape:current-layer="layer1"
     showgrid="false"
     inkscape:window-width="1920"
     inkscape:window-height="1017"
     inkscape:window-x="-8"
     inkscape:window-y="-8"
     inkscape:window-maximized="1"
     inkscape:snap-global="false"
     fit-margin-top="0"
     fit-margin-left="0"
     fit-margin-right="0"
     fit-margin-bottom="0"
     inkscape:lockguides="true" />
  <metadata
     id="metadata5">
    <rdf:RDF>
      <cc:Work
         rdf:about="">
        <dc:format>image/svg+xml</dc:format>
        <dc:type
           rdf:resource="http://purl.org/dc/dcmitype/StillImage" />
        <dc:title />
      </cc:Work>
    </rdf:RDF>
  </metadata>
  <g
     inkscape:label="Layer 1"
     inkscape:groupmode="layer"
     id="layer1"
     transform="translate(-466.70257,-184.06091)">
    <path
       cx="137.64586"
       cy="208.90065"
       rx="4.0012174"
       ry="2.0162227"
       id="path2370"
       style="fill:none;fill-opacity:1;stroke:#000000;stroke-width:0.26499999;stroke-miterlimit:4;stroke-dasharray:none;stroke-opacity:1"
       d=""
       inkscape:connector-curvature="0" />
    <g
       inkscape:export-ydpi="181.28323"
       inkscape:export-xdpi="181.28323"
       id="g1899"
       ns1:jacobian_sqrt="0.708584"
       inkscapeversion="0.92.5"
       ns1:alignment="middle center"
       ns1:scale="2.00858589339"
       ns1:preamble="C:\\Users\\bbcoo\\AppData\\Roaming\\inkscape\\extensions\\textext\\default_packages.tex"
       ns1:text="$\\boldsymbol{\\pi}$"
       ns1:pdfconverter="pdf2svg"
       ns1:texconverter="pdflatex"
       ns1:version="0.11.1"
       transform="matrix(2.4149402,0,0,2.4149402,106.81707,-130.7101)"
       style="stroke-width:0.2934168"
       inkscape:export-filename="C:\Users\bbcoo\Desktop\DriveOnRig\Min bog\Hjemmeside\Assets\Forside\Logo\pi.png">
      <g
         id="g1897"
         style="stroke-width:0.2934168">
        <g
           id="g1895"
           style="fill:#000000;fill-opacity:1;stroke-width:0.2934168">
          <path
             inkscape:connector-curvature="0"
             id="path1893"
             transform="matrix(0.10956103,0,0,0.10956103,13.097031,73.338499)"
             d="m 1258.0547,520.30078 c -1.9966,0 -5.8484,-10e-4 -10.6973,4.27734 -3.1375,2.99491 -6.7012,7.55834 -6.7012,8.55665 0,1.28353 0.9978,1.28515 1.9961,1.28515 1.4262,0 1.5682,-0.14427 2.2813,-1.14258 3.5654,-4.27843 9.5562,-4.27734 11.2676,-4.27734 h 5.4179 c -2.2818,7.13073 -5.8463,14.68907 -10.8379,23.81641 -1.4261,2.70967 -1.7109,3.13834 -1.7109,4.42187 0,2.56706 1.9955,4.13477 4.4199,4.13477 1.854,0 3.2811,-0.9979 3.8516,-1.56836 1.4261,-1.28353 1.4256,-1.71242 1.9961,-3.56641 L 1266.1836,529 h 10.2676 c -2.1392,8.41426 -3.1367,13.97518 -3.1367,19.39453 0,6.13243 1.7117,13.12109 6.1328,13.12109 2.9949,0 6.2734,-2.99532 6.2734,-5.99023 0,-0.9983 -0.2849,-1.56799 -1.1406,-2.99414 -4.1358,-7.27334 -4.1348,-14.40368 -4.1348,-16.82813 0,-2.13921 -10e-5,-3.13776 0.4277,-6.70312 h 11.4082 c 1.5171,0 2.8104,-0.005 3.9786,-0.99805 v -7.42578 c -0.8798,-0.25966 -1.8381,-0.27539 -2.5528,-0.27539 z"
             style="stroke:none;stroke-width:0" />
        </g>
      </g>
    </g>
  </g>
</svg>
