<?xml version="1.0" encoding="UTF-8" standalone="no"?>
<!-- Created with Inkscape (http://www.inkscape.org/) -->

<svg
   xmlns:dc="http://purl.org/dc/elements/1.1/"
   xmlns:cc="http://creativecommons.org/ns#"
   xmlns:rdf="http://www.w3.org/1999/02/22-rdf-syntax-ns#"
   xmlns:svg="http://www.w3.org/2000/svg"
   xmlns="http://www.w3.org/2000/svg"
   xmlns:sodipodi="http://sodipodi.sourceforge.net/DTD/sodipodi-0.dtd"
   xmlns:inkscape="http://www.inkscape.org/namespaces/inkscape"
   width="4.9195952mm"
   height="10.868584mm"
   viewBox="0 0 4.9195951 10.868583"
   version="1.1"
   id="svg8"
   inkscape:version="0.92.5 (2060ec1f9f, 2020-04-08)"
   sodipodi:docname="PiM.svg">
  <defs
     id="defs2">
    <clipPath
       clipPathUnits="userSpaceOnUse"
       id="clipPath2169">
      <path
         style="fill:none;stroke:#000000;stroke-width:0.26458332px;stroke-linecap:butt;stroke-linejoin:miter;stroke-opacity:1"
         d="m 151.47459,135.19303 1.36214,-4.75074 h 0.72169 l 1.21785,4.54508 c 0,0 0.46055,0.92074 -0.53159,0.92074 -0.99214,0 -2.77009,-0.71508 -2.77009,-0.71508 z"
         id="path2171"
         inkscape:connector-curvature="0" />
    </clipPath>
    <clipPath
       clipPathUnits="userSpaceOnUse"
       id="clipPath2356">
      <path
         style="fill:none;stroke:#000000;stroke-width:0.26458332px;stroke-linecap:butt;stroke-linejoin:miter;stroke-opacity:1"
         d="m 183.94447,264.18693 v 1.1103 l 3.17123,-0.84972 c 0,0 1.27777,-1.80696 1.16051,-2.01006 -0.11726,-0.20311 -0.9386,-0.3991 -1.48943,-0.3991 -0.55083,0 -2.84231,2.14858 -2.84231,2.14858 z"
         id="path2358"
         inkscape:connector-curvature="0" />
    </clipPath>
  </defs>
  <sodipodi:namedview
     id="base"
     pagecolor="#ffffff"
     bordercolor="#666666"
     borderopacity="1.0"
     inkscape:pageopacity="0.0"
     inkscape:pageshadow="2"
     inkscape:zoom="8.0000002"
     inkscape:cx="-7.9464515"
     inkscape:cy="13.413548"
     inkscape:document-units="mm"
     inkscape:current-layer="g1889"
     showgrid="false"
     inkscape:window-width="1920"
     inkscape:window-height="1017"
     inkscape:window-x="-8"
     inkscape:window-y="-8"
     inkscape:window-maximized="1"
     inkscape:snap-global="false"
     fit-margin-top="0"
     fit-margin-left="0"
     fit-margin-right="0"
     fit-margin-bottom="0"
     inkscape:lockguides="true" />
  <metadata
     id="metadata5">
    <rdf:RDF>
      <cc:Work
         rdf:about="">
        <dc:format>image/svg+xml</dc:format>
        <dc:type
           rdf:resource="http://purl.org/dc/dcmitype/StillImage" />
        <dc:title />
      </cc:Work>
    </rdf:RDF>
  </metadata>
  <g
     inkscape:label="Layer 1"
     inkscape:groupmode="layer"
     id="layer1"
     transform="translate(-492.75581,-183.96842)">
    <path
       cx="137.64586"
       cy="208.90065"
       rx="4.0012174"
       ry="2.0162227"
       id="path2370"
       style="fill:none;fill-opacity:1;stroke:#000000;stroke-width:0.26499999;stroke-miterlimit:4;stroke-dasharray:none;stroke-opacity:1"
       d=""
       inkscape:connector-curvature="0" />
    <g
       id="g1889"
       style="stroke-width:0.2934168"
       transform="matrix(-2.4149402,0,0,2.4149402,858.00115,-130.27215)">
      <path
         inkscape:connector-curvature="0"
         id="path1885"
         d="m 151.24405,130.12396 v 0.9531 h -0.1622 l -0.75003,2.98446 c -0.0625,0.20313 -0.0624,0.2499 -0.21869,0.39053 -0.0625,0.0625 -0.21885,0.17205 -0.42198,0.17205 -0.26563,0 -0.48423,-0.17198 -0.48425,-0.45323 0,-0.14062 0.0312,-0.18759 0.18745,-0.48446 0.54688,-1 0.93741,-1.8281 1.18742,-2.60935 h -0.005 c 0,-6e-5 0.007,-0.003 0.007,-0.003 v -0.95052 z"
         style="fill:#000000;fill-opacity:1;stroke:none;stroke-width:0"
         sodipodi:nodetypes="cccccsccccccc"
         inkscape:export-filename="C:\Users\bbcoo\Desktop\DriveOnRig\Min bog\Hjemmeside\Assets\Forside\Logo\PiM.png"
         inkscape:export-xdpi="184.28"
         inkscape:export-ydpi="184.28" />
    </g>
  </g>
</svg>
