<?xml version="1.0" encoding="UTF-8" standalone="no"?>
<!-- Created with Inkscape (http://www.inkscape.org/) -->

<svg
   xmlns:dc="http://purl.org/dc/elements/1.1/"
   xmlns:cc="http://creativecommons.org/ns#"
   xmlns:rdf="http://www.w3.org/1999/02/22-rdf-syntax-ns#"
   xmlns:svg="http://www.w3.org/2000/svg"
   xmlns="http://www.w3.org/2000/svg"
   xmlns:sodipodi="http://sodipodi.sourceforge.net/DTD/sodipodi-0.dtd"
   xmlns:inkscape="http://www.inkscape.org/namespaces/inkscape"
   width="77.667198mm"
   height="15.211376mm"
   viewBox="0 0 77.667197 15.211376"
   version="1.1"
   id="svg8"
   inkscape:version="0.92.5 (2060ec1f9f, 2020-04-08)"
   sodipodi:docname="Turguide.svg">
  <defs
     id="defs2">
    <clipPath
       clipPathUnits="userSpaceOnUse"
       id="clipPath2169">
      <path
         style="fill:none;stroke:#000000;stroke-width:0.26458332px;stroke-linecap:butt;stroke-linejoin:miter;stroke-opacity:1"
         d="m 151.47459,135.19303 1.36214,-4.75074 h 0.72169 l 1.21785,4.54508 c 0,0 0.46055,0.92074 -0.53159,0.92074 -0.99214,0 -2.77009,-0.71508 -2.77009,-0.71508 z"
         id="path2171"
         inkscape:connector-curvature="0" />
    </clipPath>
    <clipPath
       clipPathUnits="userSpaceOnUse"
       id="clipPath2356">
      <path
         style="fill:none;stroke:#000000;stroke-width:0.26458332px;stroke-linecap:butt;stroke-linejoin:miter;stroke-opacity:1"
         d="m 183.94447,264.18693 v 1.1103 l 3.17123,-0.84972 c 0,0 1.27777,-1.80696 1.16051,-2.01006 -0.11726,-0.20311 -0.9386,-0.3991 -1.48943,-0.3991 -0.55083,0 -2.84231,2.14858 -2.84231,2.14858 z"
         id="path2358"
         inkscape:connector-curvature="0" />
    </clipPath>
  </defs>
  <sodipodi:namedview
     id="base"
     pagecolor="#ffffff"
     bordercolor="#666666"
     borderopacity="1.0"
     inkscape:pageopacity="0.0"
     inkscape:pageshadow="2"
     inkscape:zoom="1.4142136"
     inkscape:cx="-29.354412"
     inkscape:cy="52.211494"
     inkscape:document-units="mm"
     inkscape:current-layer="layer1"
     showgrid="false"
     inkscape:window-width="1920"
     inkscape:window-height="1017"
     inkscape:window-x="-8"
     inkscape:window-y="-8"
     inkscape:window-maximized="1"
     inkscape:snap-global="false"
     fit-margin-top="0"
     fit-margin-left="0"
     fit-margin-right="0"
     fit-margin-bottom="0"
     inkscape:lockguides="true" />
  <metadata
     id="metadata5">
    <rdf:RDF>
      <cc:Work
         rdf:about="">
        <dc:format>image/svg+xml</dc:format>
        <dc:type
           rdf:resource="http://purl.org/dc/dcmitype/StillImage" />
        <dc:title></dc:title>
      </cc:Work>
    </rdf:RDF>
  </metadata>
  <g
     inkscape:label="Layer 1"
     inkscape:groupmode="layer"
     id="layer1"
     transform="translate(-469.04107,-221.60889)">
    <path
       cx="137.64586"
       cy="208.90065"
       rx="4.0012174"
       ry="2.0162227"
       id="path2370"
       style="fill:none;fill-opacity:1;stroke:#000000;stroke-width:0.26499999;stroke-miterlimit:4;stroke-dasharray:none;stroke-opacity:1"
       d=""
       inkscape:connector-curvature="0" />
    <g
       id="g1484">
      <path
         inkscape:connector-curvature="0"
         id="path1446"
         style="font-style:italic;font-variant:normal;font-weight:bold;font-stretch:normal;font-size:16.93333244px;line-height:1.25;font-family:'CMU Serif Upright Italic';-inkscape-font-specification:'CMU Serif Upright Italic, Bold Italic';letter-spacing:-0.05820833px;word-spacing:0px;stroke-width:0.26458332"
         d="m 469.04107,225.64834 0.37217,-3.80029 10.32663,0.0901 0.28926,3.80606 -0.42167,-0.004 q -0.0599,-0.71162 -0.11449,-1.09245 -0.0463,-0.38076 -0.15822,-0.81997 -0.11192,-0.43921 -0.28367,-0.65569 -0.16349,-0.21641 -0.45947,-0.40917 -0.29592,-0.20102 -0.717,-0.27085 -0.42109,-0.0698 -1.01638,-0.075 l -0.67797,-0.006 q -0.47127,-0.004 -0.67071,0.10991 -0.1911,0.10582 -0.19478,0.52748 l -0.0784,8.98722 q -0.005,0.52088 0.37455,0.66476 0.3791,0.14387 1.7185,0.15556 l 0.35552,0.003 -0.005,0.52088 q -1.81024,-0.0654 -3.00082,-0.0758 -1.69492,-0.0148 -3.41508,0.0198 l 0.005,-0.52088 0.37206,0.003 q 1.32286,0.0115 1.69607,-0.1175 0.38156,-0.13723 0.38617,-0.66638 l 0.0784,-8.98722 q 0.004,-0.42167 -0.18554,-0.53081 -0.18088,-0.11734 -0.66869,-0.12159 l -0.66143,-0.006 q -0.72758,-0.006 -1.20835,0.13002 -0.47242,0.12817 -0.7636,0.33234 -0.28284,0.19598 -0.46065,0.674 -0.16948,0.46983 -0.24757,0.89084 -0.0698,0.42109 -0.14318,1.24731 z"
         inkscape:export-xdpi="136.93546"
         inkscape:export-ydpi="136.93546" />
      <path
         inkscape:connector-curvature="0"
         id="path1451"
         style="font-style:italic;font-variant:normal;font-weight:bold;font-stretch:normal;font-size:16.93333244px;line-height:1.25;font-family:'CMU Serif Upright Italic';-inkscape-font-specification:'CMU Serif Upright Italic, Bold Italic';letter-spacing:-0.05820833px;word-spacing:0px;stroke-width:0.26458332"
         d="m 489.25797,228.287 q 0.003,-0.35552 0.0809,-0.74347 0.0778,-0.38794 0.24669,-0.79162 0.17724,-0.41188 0.52673,-0.66516 0.34956,-0.26154 0.80429,-0.25757 0.72758,0.006 1.23543,0.5565 0.51619,0.54196 0.51013,1.23647 -8.7e-4,0.0992 -0.13398,1.13989 -0.13311,1.04067 -0.13874,1.68557 -0.013,1.48822 0.45309,2.08763 0.46615,0.59113 1.07797,0.59647 0.57876,0.005 0.97915,-0.39661 0.4004,-0.40167 0.50301,-0.78939 0.017,-0.0495 0.0208,-0.48767 l 0.0393,-4.50601 q 0.003,-0.33898 0.0539,-0.49564 0.13568,-0.38744 0.54907,-0.38383 0.59529,0.005 0.58815,0.82372 l -0.0387,4.4316 q -0.0159,1.82721 0.79431,1.83428 0.30592,0.003 0.4738,-0.28527 0.17622,-0.29613 0.21218,-0.62655 0.036,-0.33043 0.0479,-0.75202 0.012,-0.42986 0.0125,-0.47947 0.018,-0.16521 0.14236,-0.20547 0.13265,-0.0402 0.21446,0.0598 0.0656,0.0667 0.0629,0.37263 -0.0102,1.16578 -0.27153,1.7423 -0.25309,0.57659 -0.93106,0.57067 -1.06656,-0.009 -1.7514,-1.12327 -0.63796,1.09415 -1.77073,1.09253 -0.4382,-0.004 -0.85871,-0.13979 -0.41231,-0.12762 -0.8395,-0.44556 -0.42719,-0.31793 -0.69426,-0.98174 -0.26707,-0.66382 -0.25913,-1.57329 0.006,-0.6945 0.14765,-1.75991 0.14986,-1.06533 0.15181,-1.28857 0.01,-1.11617 -0.63516,-1.12179 -0.42166,-0.004 -0.76461,0.44809 -0.34295,0.45178 -0.40173,1.50137 -0.0204,0.43806 -0.22713,0.44452 -0.0827,-7.2e-4 -0.14802,-0.0922 -0.0653,-0.0998 -0.0641,-0.23208 z"
         inkscape:export-xdpi="136.93546"
         inkscape:export-ydpi="136.93546" />
      <path
         inkscape:connector-curvature="0"
         id="path1453"
         style="font-style:italic;font-variant:normal;font-weight:bold;font-stretch:normal;font-size:16.93333244px;line-height:1.25;font-family:'CMU Serif Upright Italic';-inkscape-font-specification:'CMU Serif Upright Italic, Bold Italic';letter-spacing:-0.05820833px;word-spacing:0px;stroke-width:0.26458332"
         d="m 499.05564,228.27046 q 0.004,-0.50434 0.0322,-0.84311 0.0278,-0.34704 0.139,-0.76776 0.11116,-0.42073 0.36927,-0.62519 0.25818,-0.21273 0.66331,-0.20919 0.47127,0.004 0.99782,0.30637 0.53489,0.29407 0.8182,0.9911 0.24331,-0.40303 0.41047,-0.60829 0.1755,-0.21345 0.59085,-0.43308 0.41541,-0.22789 0.96109,-0.22313 0.77719,0.007 1.41905,0.35966 0.64187,0.35289 0.63596,1.03085 -0.003,0.33899 -0.23648,0.56847 -0.23345,0.22121 -0.5559,0.2184 -0.33899,-0.003 -0.56035,-0.21987 -0.21301,-0.22511 -0.21005,-0.5641 0.003,-0.30591 0.17795,-0.49456 0.18363,-0.19684 0.42397,-0.26089 -0.56012,-0.24468 -1.11407,-0.24951 -0.48781,-0.004 -0.87023,0.23219 -0.37407,0.22826 -0.56727,0.57385 -0.18492,0.34567 -0.27846,0.64252 -0.0935,0.29685 -0.0951,0.47874 l -0.0402,4.60523 q -0.006,0.72758 -0.60171,0.73065 -0.45473,-0.004 -0.55861,-0.4183 -0.0322,-0.0995 -0.029,-0.47156 l 0.0393,-4.50602 q 0.0139,-1.5957 -0.58747,-1.84901 -0.25544,-0.10145 -0.49651,0.0453 -0.25775,0.16312 -0.3449,0.67501 -0.0872,0.51189 -0.0996,0.99136 -0.0125,0.47946 -0.0792,0.54503 -0.0502,0.0657 -0.1412,0.0732 -0.21497,-0.002 -0.21215,-0.32433 z"
         inkscape:export-xdpi="136.93546"
         inkscape:export-ydpi="136.93546" />
      <path
         inkscape:connector-curvature="0"
         id="path1455"
         style="font-style:italic;font-variant:normal;font-weight:bold;font-stretch:normal;font-size:16.93333244px;line-height:1.25;font-family:'CMU Serif Upright Italic';-inkscape-font-specification:'CMU Serif Upright Italic, Bold Italic';letter-spacing:-0.05820833px;word-spacing:0px;stroke-width:0.26458332"
         d="m 507.57822,232.25508 q -0.91677,-1.06638 -0.90263,-2.68689 0.0142,-1.62878 0.95772,-2.67892 0.94351,-1.05014 2.10929,-1.03996 1.00042,0.009 1.76873,1.03246 0.0196,-0.35537 0.20283,-0.50261 0.19153,-0.15543 0.39823,-0.15362 0.59529,0.005 0.58082,0.71616 l -0.0636,7.2923 q -0.006,0.74411 -0.30883,1.27893 -0.29407,0.53489 -0.79253,0.8034 -0.49026,0.27685 -0.97907,0.38835 -0.48062,0.11983 -0.98497,0.11543 -2.53825,-0.0222 -2.53526,-1.31202 0.003,-0.35552 0.23655,-0.57673 0.23338,-0.21295 0.55583,-0.21014 0.30591,0.003 0.52727,0.21959 0.22955,0.22525 0.2266,0.56424 -0.004,0.4878 -0.50243,0.72324 0.5771,0.19522 1.4783,0.20308 0.72758,0.006 1.30253,-0.50128 0.58316,-0.49929 0.59333,-1.66507 l 0.0169,-1.93469 q -0.75299,1.01046 -1.78648,1.00144 -1.18231,-0.0103 -2.09908,-1.07669 z m 0.51952,-2.68275 q -0.006,0.67797 0.0233,1.11646 0.0376,0.43029 0.21465,0.98583 0.1854,0.54734 0.53796,0.88943 0.40174,0.39213 0.85648,0.3961 0.57875,0.005 1.15421,-0.56046 0.58381,-0.5737 0.58872,-1.13592 l 0.0291,-3.33197 q 0.005,-0.52088 -0.54435,-1.10447 -0.54063,-0.58351 -1.16899,-0.589 -0.50435,-0.004 -0.87138,0.36448 -0.36704,0.36888 -0.54492,0.85518 -0.26222,0.67573 -0.27478,2.11434 z"
         inkscape:export-xdpi="136.93546"
         inkscape:export-ydpi="136.93546" />
      <path
         inkscape:connector-curvature="0"
         id="path1457"
         style="font-style:italic;font-variant:normal;font-weight:bold;font-stretch:normal;font-size:16.93333244px;line-height:1.25;font-family:'CMU Serif Upright Italic';-inkscape-font-specification:'CMU Serif Upright Italic, Bold Italic';letter-spacing:-0.05820833px;word-spacing:0px;stroke-width:0.26458332"
         d="m 514.18569,228.287 q 0.003,-0.35552 0.0809,-0.74347 0.0778,-0.38794 0.2467,-0.79162 0.17723,-0.41188 0.52672,-0.66516 0.34957,-0.26154 0.8043,-0.25757 0.72758,0.006 1.23543,0.5565 0.51618,0.54196 0.51012,1.23647 -8.6e-4,0.0992 -0.13397,1.13989 -0.13311,1.04067 -0.13874,1.68557 -0.013,1.48822 0.45309,2.08763 0.46615,0.59113 1.07797,0.59647 0.57876,0.005 0.97915,-0.39661 0.4004,-0.40167 0.503,-0.78939 0.017,-0.0495 0.0208,-0.48767 l 0.0393,-4.50601 q 0.003,-0.33898 0.0539,-0.49564 0.13567,-0.38744 0.54907,-0.38383 0.59529,0.005 0.58815,0.82372 l -0.0387,4.4316 q -0.0159,1.82721 0.79431,1.83428 0.30591,0.003 0.4738,-0.28527 0.17622,-0.29613 0.21218,-0.62655 0.036,-0.33043 0.0479,-0.75202 0.012,-0.42986 0.0125,-0.47947 0.018,-0.16521 0.14236,-0.20547 0.13264,-0.0402 0.21446,0.0598 0.0656,0.0667 0.0629,0.37263 -0.0102,1.16578 -0.27153,1.7423 -0.25308,0.57659 -0.93105,0.57067 -1.06656,-0.009 -1.7514,-1.12327 -0.63796,1.09415 -1.77073,1.09253 -0.4382,-0.004 -0.85871,-0.13979 -0.41232,-0.12762 -0.83951,-0.44556 -0.42719,-0.31793 -0.69426,-0.98174 -0.26706,-0.66382 -0.25913,-1.57329 0.006,-0.6945 0.14766,-1.75991 0.14986,-1.06533 0.15181,-1.28857 0.01,-1.11617 -0.63516,-1.12179 -0.42166,-0.004 -0.76461,0.44809 -0.34296,0.45178 -0.40173,1.50137 -0.0204,0.43806 -0.22713,0.44452 -0.0827,-7.2e-4 -0.14803,-0.0922 -0.0653,-0.0998 -0.0641,-0.23208 z"
         inkscape:export-xdpi="136.93546"
         inkscape:export-ydpi="136.93546" />
      <path
         inkscape:connector-curvature="0"
         id="path1459"
         style="font-style:italic;font-variant:normal;font-weight:bold;font-stretch:normal;font-size:16.93333244px;line-height:1.25;font-family:'CMU Serif Upright Italic';-inkscape-font-specification:'CMU Serif Upright Italic, Bold Italic';letter-spacing:-0.05820833px;word-spacing:0px;stroke-width:0.26458332"
         d="m 523.98321,228.287 q 0.004,-0.50435 0.12462,-1.01595 0.12023,-0.5116 0.5212,-0.9794 0.40924,-0.46774 1.0128,-0.46247 0.72758,0.006 1.23542,0.5565 0.51619,0.54196 0.50999,1.253 -0.002,0.19016 -0.28312,2.12255 -0.27319,1.93245 -0.276,2.2549 -0.01,1.09963 0.65184,1.10541 0.11575,10e-4 0.24847,-0.0474 0.14098,-0.0484 0.3241,-0.18734 0.19146,-0.14717 0.34339,-0.50139 0.16019,-0.35415 0.21435,-0.87459 0.0174,-0.0991 0.0186,-0.23963 10e-4,-0.14882 0.0102,-0.22316 0.009,-0.0826 0.0261,-0.14861 0.0171,-0.066 0.0587,-0.0987 0.0416,-0.0327 0.13258,-0.0319 0.22323,0.002 0.21244,0.29125 -0.004,0.50434 -0.1247,1.02421 -0.12022,0.5116 -0.52946,0.97934 -0.4009,0.45954 -0.98793,0.45441 -0.74411,-0.006 -1.2521,-0.54011 -0.49965,-0.54182 -0.49323,-1.27766 0.002,-0.19016 0.26651,-2.11442 0.27311,-1.92419 0.27593,-2.24664 0.01,-1.11617 -0.63516,-1.12179 -0.11575,-0.001 -0.25674,0.0474 -0.13272,0.0485 -0.33245,0.19554 -0.19138,0.1389 -0.35165,0.50131 -0.152,0.36249 -0.20622,0.89121 -5.8e-4,0.0661 -0.0101,0.20662 -0.009,0.13222 -0.0183,0.20655 -0.009,0.0743 -0.0262,0.15688 -0.0172,0.0825 -0.059,0.13178 -0.0417,0.041 -0.13264,0.0402 -0.21497,-0.002 -0.2123,-0.30779 z m 2.03506,-4.85242 q -0.21294,-0.23337 -0.21034,-0.53102 0.003,-0.30591 0.22799,-0.54373 0.2336,-0.23775 0.55605,-0.23494 0.33898,0.003 0.55185,0.24461 0.22114,0.24171 0.21855,0.53936 -0.003,0.28938 -0.23612,0.52712 -0.22533,0.23783 -0.54778,0.23501 -0.33898,-0.003 -0.5602,-0.23641 z"
         inkscape:export-xdpi="136.93546"
         inkscape:export-ydpi="136.93546" />
      <path
         inkscape:connector-curvature="0"
         id="path1461"
         style="font-style:italic;font-variant:normal;font-weight:bold;font-stretch:normal;font-size:16.93333244px;line-height:1.25;font-family:'CMU Serif Upright Italic';-inkscape-font-specification:'CMU Serif Upright Italic, Bold Italic';letter-spacing:-0.05820833px;word-spacing:0px;stroke-width:0.26458332"
         d="m 531.35521,232.42051 q -0.92475,-1.09952 -0.91032,-2.7531 0.0145,-1.66185 0.95004,-2.74514 0.93553,-1.08328 2.11784,-1.07296 1.03349,0.009 1.76858,1.049 l 0.0274,-3.13354 q 5.7e-4,-0.0661 0.01,-0.19836 0.009,-0.14048 0.0101,-0.20662 0.006,-0.71104 -0.22386,-0.87842 -0.22171,-0.17558 -1.08985,-0.18315 l 0.005,-0.52915 2.49023,-0.16018 -0.0846,9.69827 q -0.0161,1.84374 0.80243,1.85089 0.40513,0.004 0.57489,-0.49937 0.17802,-0.50283 0.19156,-1.10631 0.0135,-0.60349 0.0305,-0.65295 0.0503,-0.0823 0.14969,-0.0979 0.10763,-0.0156 0.17305,0.0677 0.0492,0.05 0.0464,0.37249 -0.0102,1.16578 -0.27153,1.74229 -0.26135,0.57652 -0.93106,0.57068 -0.47127,-0.004 -0.99789,-0.29811 -0.52662,-0.294 -0.81008,-0.97449 -0.73854,1.25037 -1.93739,1.23991 -1.16578,-0.0102 -2.0906,-1.10142 z m 0.51191,-2.75723 q -0.006,0.72758 0.023,1.1578 0.0376,0.43029 0.21436,1.0189 0.18511,0.58041 0.55421,0.92264 0.38549,0.35892 0.84022,0.36288 0.6449,0.006 1.18751,-0.58497 0.55095,-0.59879 0.55535,-1.10314 l 0.0302,-3.45598 q 0.005,-0.52088 -0.54414,-1.12927 -0.54041,-0.60832 -1.16878,-0.61381 -0.93427,-0.008 -1.41658,1.25273 -0.26244,0.70053 -0.27528,2.17222 z"
         inkscape:export-xdpi="136.93546"
         inkscape:export-ydpi="136.93546" />
      <path
         inkscape:connector-curvature="0"
         id="path1463"
         style="font-style:italic;font-variant:normal;font-weight:bold;font-stretch:normal;font-size:16.93333244px;line-height:1.25;font-family:'CMU Serif Upright Italic';-inkscape-font-specification:'CMU Serif Upright Italic, Bold Italic';letter-spacing:-0.05820833px;word-spacing:0px;stroke-width:0.26458332"
         d="m 539.78292,229.26228 q 0.0131,-1.50476 1.08814,-2.4628 1.075,-0.95804 2.44747,-0.94606 0.91774,0.008 1.54163,0.5261 0.63223,0.5099 0.6253,1.30362 -0.004,0.42167 -0.18831,0.73426 -0.17637,0.31266 -0.52528,0.4998 -0.34884,0.17886 -0.68891,0.29992 -0.33173,0.11286 -0.85304,0.15793 -0.51304,0.0451 -0.84383,0.0505 -0.33079,0.005 -0.82686,0.001 l -0.35552,-0.003 q 0.0164,1.91018 0.62051,2.80019 0.61215,0.91488 1.49682,0.9226 0.008,7e-5 0.0165,1.4e-4 0.79372,0.007 1.58242,-0.35827 0.79697,-0.36513 1.22441,-1.02289 0.0167,-0.0164 0.0922,-0.14802 0.0838,-0.13157 0.13395,-0.18901 0.0502,-0.0657 0.11633,-0.0651 0.0828,-0.0158 0.14831,0.0592 0.0738,0.0668 0.0731,0.14947 -10e-4,0.16536 -0.22735,0.46932 -0.21764,0.30404 -0.60926,0.6479 -0.39162,0.34386 -1.08009,0.59418 -0.68848,0.25032 -1.47393,0.24346 -1.5213,-0.0133 -2.53548,-1.28721 -1.01411,-1.28221 -0.99932,-2.97713 z m 1.42418,-0.22736 0.52914,0.005 q 0.61183,0.005 1.05032,-0.0239 0.43849,-0.0292 0.97698,-0.14858 0.54684,-0.12752 0.84708,-0.42257 0.30024,-0.29505 0.30436,-0.76632 0.005,-0.57875 -0.43774,-1.00431 -0.43452,-0.42549 -1.12903,-0.43155 -0.62836,-0.005 -1.12768,0.36224 -0.49932,0.36773 -0.74414,0.94439 -0.22778,0.51893 -0.26929,1.48599 z"
         inkscape:export-xdpi="136.93546"
         inkscape:export-ydpi="136.93546" />
    </g>
  </g>
</svg>
