<?xml version="1.0" encoding="UTF-8" standalone="no"?>
<!-- Created with Inkscape (http://www.inkscape.org/) -->

<svg
   xmlns:ns1="http://www.iki.fi/pav/software/textext/"
   xmlns:dc="http://purl.org/dc/elements/1.1/"
   xmlns:cc="http://creativecommons.org/ns#"
   xmlns:rdf="http://www.w3.org/1999/02/22-rdf-syntax-ns#"
   xmlns:svg="http://www.w3.org/2000/svg"
   xmlns="http://www.w3.org/2000/svg"
   xmlns:xlink="http://www.w3.org/1999/xlink"
   xmlns:sodipodi="http://sodipodi.sourceforge.net/DTD/sodipodi-0.dtd"
   xmlns:inkscape="http://www.inkscape.org/namespaces/inkscape"
   width="210mm"
   height="297mm"
   viewBox="0 0 210 297"
   version="1.1"
   id="svg12796"
   inkscape:version="0.92.4 (5da689c313, 2019-01-14)"
   sodipodi:docname="Motherfucking cake.svg">
  <defs
     id="defs12790">
    <marker
       inkscape:isstock="true"
       style="overflow:visible"
       id="marker15647"
       refX="0.0"
       refY="0.0"
       orient="auto"
       inkscape:stockid="TriangleOutL">
      <path
         transform="scale(0.8)"
         style="fill-rule:evenodd;stroke:#1e0eff;stroke-width:1pt;stroke-opacity:0.90980392;fill:#1e0eff;fill-opacity:0.90980392"
         d="M 5.77,0.0 L -2.88,5.0 L -2.88,-5.0 L 5.77,0.0 z "
         id="path15645" />
    </marker>
    <marker
       inkscape:stockid="TriangleOutL"
       orient="auto"
       refY="0.0"
       refX="0.0"
       id="TriangleOutL"
       style="overflow:visible"
       inkscape:isstock="true"
       inkscape:collect="always">
      <path
         id="path8654"
         d="M 5.77,0.0 L -2.88,5.0 L -2.88,-5.0 L 5.77,0.0 z "
         style="fill-rule:evenodd;stroke:#1e0eff;stroke-width:1pt;stroke-opacity:0.90980392;fill:#1e0eff;fill-opacity:0.90980392"
         transform="scale(0.8)" />
    </marker>
    <marker
       inkscape:stockid="TriangleOutM"
       orient="auto"
       refY="0.0"
       refX="0.0"
       id="TriangleOutM"
       style="overflow:visible"
       inkscape:isstock="true">
      <path
         id="path8657"
         d="M 5.77,0.0 L -2.88,5.0 L -2.88,-5.0 L 5.77,0.0 z "
         style="fill-rule:evenodd;stroke:#1e0eff;stroke-width:1pt;stroke-opacity:0.90980392;fill:#002af9;fill-opacity:1"
         transform="scale(0.4)" />
    </marker>
    <linearGradient
       inkscape:collect="always"
       id="linearGradient13460">
      <stop
         style="stop-color:#989898;stop-opacity:1"
         offset="0"
         id="stop13456" />
      <stop
         id="stop13468"
         offset="0.24333428"
         style="stop-color:#c5c5c5;stop-opacity:0.90980393" />
      <stop
         id="stop13466"
         offset="0.51132351"
         style="stop-color:#989898;stop-opacity:0.98888886" />
      <stop
         id="stop13464"
         offset="0.76357228"
         style="stop-color:#b1b1b1;stop-opacity:1" />
      <stop
         style="stop-color:#989898;stop-opacity:1"
         offset="1"
         id="stop13458" />
    </linearGradient>
    <linearGradient
       inkscape:collect="always"
       id="linearGradient13392">
      <stop
         style="stop-color:#5d3725;stop-opacity:0"
         offset="0"
         id="stop13388" />
      <stop
         id="stop13396"
         offset="0.47299027"
         style="stop-color:#ffffff;stop-opacity:0.23888889" />
      <stop
         style="stop-color:#5d3725;stop-opacity:0;"
         offset="1"
         id="stop13390" />
    </linearGradient>
    <linearGradient
       inkscape:collect="always"
       id="linearGradient13374">
      <stop
         style="stop-color:#774630;stop-opacity:1;"
         offset="0"
         id="stop13370" />
      <stop
         id="stop13380"
         offset="0.45700887"
         style="stop-color:#8f553a;stop-opacity:1" />
      <stop
         style="stop-color:#774630;stop-opacity:1"
         offset="1"
         id="stop13372" />
    </linearGradient>
    <linearGradient
       inkscape:collect="always"
       xlink:href="#linearGradient13374"
       id="linearGradient13378"
       gradientUnits="userSpaceOnUse"
       x1="108.51142"
       y1="132.62924"
       x2="22.717911"
       y2="140.38007" />
    <linearGradient
       inkscape:collect="always"
       xlink:href="#linearGradient13392"
       id="linearGradient13448"
       gradientUnits="userSpaceOnUse"
       gradientTransform="translate(138.65097,224.4143)"
       x1="12.095238"
       y1="180.59171"
       x2="121.9743"
       y2="180.59171" />
    <mask
       maskUnits="userSpaceOnUse"
       id="mask13444">
      <rect
         y="371.18552"
         x="150.74622"
         height="67.640938"
         width="109.87907"
         id="rect13446"
         style="opacity:1;fill:url(#linearGradient13448);fill-opacity:1;stroke:none;stroke-width:2.37669873;stroke-linecap:round;stroke-miterlimit:4;stroke-dasharray:4.75339763, 4.75339763;stroke-dashoffset:0;stroke-opacity:1" />
    </mask>
    <linearGradient
       inkscape:collect="always"
       xlink:href="#linearGradient13460"
       id="linearGradient13462"
       x1="58.019344"
       y1="110.56324"
       x2="101.58109"
       y2="131.35193"
       gradientUnits="userSpaceOnUse" />
    <linearGradient
       inkscape:collect="always"
       xlink:href="#linearGradient13374"
       id="linearGradient15635"
       gradientUnits="userSpaceOnUse"
       x1="108.51142"
       y1="132.62924"
       x2="22.717911"
       y2="140.38007"
       gradientTransform="translate(259.25144,8.5526249)" />
    <linearGradient
       inkscape:collect="always"
       xlink:href="#linearGradient13460"
       id="linearGradient15637"
       gradientUnits="userSpaceOnUse"
       x1="58.019344"
       y1="110.56324"
       x2="101.58109"
       y2="131.35193"
       gradientTransform="translate(259.25144,8.5526249)" />
  </defs>
  <sodipodi:namedview
     id="base"
     pagecolor="#ffffff"
     bordercolor="#666666"
     borderopacity="1.0"
     inkscape:pageopacity="0.0"
     inkscape:pageshadow="2"
     inkscape:zoom="0.98994949"
     inkscape:cx="1067.8819"
     inkscape:cy="587.13904"
     inkscape:document-units="mm"
     inkscape:current-layer="layer1"
     showgrid="false"
     inkscape:window-width="1920"
     inkscape:window-height="1017"
     inkscape:window-x="-8"
     inkscape:window-y="-8"
     inkscape:window-maximized="1"
     inkscape:snap-global="false"
     showguides="false" />
  <metadata
     id="metadata12793">
    <rdf:RDF>
      <cc:Work
         rdf:about="">
        <dc:format>image/svg+xml</dc:format>
        <dc:type
           rdf:resource="http://purl.org/dc/dcmitype/StillImage" />
        <dc:title />
      </cc:Work>
    </rdf:RDF>
  </metadata>
  <g
     inkscape:label="Layer 1"
     inkscape:groupmode="layer"
     id="layer1">
    <ellipse
       style="opacity:1;fill:#5d3725;fill-opacity:1;stroke:none;stroke-width:0.56999999;stroke-linecap:round;stroke-miterlimit:4;stroke-dasharray:1.14, 1.13999999999999990;stroke-dashoffset:0;stroke-opacity:1"
       id="ellipse13360"
       cx="67.351913"
       cy="189.05736"
       rx="55.057522"
       ry="24.856066"
       inkscape:export-xdpi="164.58347"
       inkscape:export-ydpi="164.58347" />
    <path
       style="opacity:1;fill:#5d3725;fill-opacity:1;stroke:none;stroke-width:0.56999999;stroke-linecap:round;stroke-miterlimit:4;stroke-dasharray:1.14, 1.13999999999999990;stroke-dashoffset:0;stroke-opacity:1"
       d="m 12.361215,188.88947 v -34.292 H 122.36979 v 34.67931 z"
       id="path13384"
       inkscape:connector-curvature="0"
       inkscape:export-xdpi="164.58347"
       inkscape:export-ydpi="164.58347" />
    <path
       style="opacity:1;fill:#341a18;fill-opacity:1;stroke:none;stroke-width:0.56999999;stroke-linecap:round;stroke-miterlimit:4;stroke-dasharray:1.14, 1.13999999999999990;stroke-dashoffset:0;stroke-opacity:1"
       d="M 12.361215,154.81261 V 139.7787 l 109.981415,-0.40091 0.0668,15.43482 -58.39839,12.16076 -42.763123,-11.09168 z"
       id="path13382"
       inkscape:connector-curvature="0"
       inkscape:export-xdpi="164.58347"
       inkscape:export-ydpi="164.58347" />
    <ellipse
       ry="24.856066"
       rx="55.057522"
       cy="154.13283"
       cx="67.351913"
       id="ellipse13356"
       style="opacity:1;fill:#341a18;fill-opacity:1;stroke:none;stroke-width:0.56999999;stroke-linecap:round;stroke-miterlimit:4;stroke-dasharray:1.14, 1.13999999999999990;stroke-dashoffset:0;stroke-opacity:1"
       inkscape:export-xdpi="164.58347"
       inkscape:export-ydpi="164.58347" />
    <ellipse
       style="opacity:1;fill:#3c1e1c;fill-opacity:1;stroke:none;stroke-width:0.56999999;stroke-linecap:round;stroke-miterlimit:4;stroke-dasharray:1.14, 1.13999999999999990;stroke-dashoffset:0;stroke-opacity:1"
       id="path13343"
       cx="67.351913"
       cy="139.84552"
       rx="55.057522"
       ry="24.856066"
       inkscape:export-xdpi="164.58347"
       inkscape:export-ydpi="164.58347" />
    <ellipse
       ry="20.654696"
       rx="45.751263"
       cy="139.60503"
       cx="66.817375"
       id="ellipse13358"
       style="opacity:1;fill:url(#linearGradient13378);fill-opacity:1;stroke:none;stroke-width:0.47365406;stroke-linecap:round;stroke-miterlimit:4;stroke-dasharray:0.94730813, 0.94730813000000003;stroke-dashoffset:0;stroke-opacity:1"
       inkscape:export-xdpi="164.58347"
       inkscape:export-ydpi="164.58347" />
    <path
       style="opacity:1;fill:url(#linearGradient13462);fill-opacity:1;stroke:none;stroke-width:0.56999999;stroke-linecap:round;stroke-miterlimit:4;stroke-dasharray:1.14, 1.13999999999999990;stroke-dashoffset:0;stroke-opacity:1"
       d="m 61.043155,102.34226 36.474701,42.33333 8.315474,-23.62351 z"
       id="path13450"
       inkscape:connector-curvature="0"
       inkscape:export-xdpi="164.58347"
       inkscape:export-ydpi="164.58347" />
    <path
       style="opacity:1;fill:#595959;fill-opacity:1;stroke:none;stroke-width:0.56999999;stroke-linecap:round;stroke-miterlimit:4;stroke-dasharray:1.14, 1.14;stroke-dashoffset:0;stroke-opacity:1"
       d="m 102.24256,131.06845 43.46726,20.03273 5.48066,-12.09523 -45.63392,-17.93095 z"
       id="path13452"
       inkscape:connector-curvature="0"
       sodipodi:nodetypes="ccccc"
       inkscape:export-xdpi="164.58347"
       inkscape:export-ydpi="164.58347" />
    <path
       style="opacity:1;fill:#404040;fill-opacity:1;stroke:none;stroke-width:0.56999999;stroke-linecap:round;stroke-miterlimit:4;stroke-dasharray:1.14, 1.13999999999999990;stroke-dashoffset:0;stroke-opacity:1"
       d="m 140.70164,148.73884 5.05543,2.36235 5.4334,-12.14249 -5.10267,-1.98437 z"
       id="path13454"
       inkscape:connector-curvature="0"
       inkscape:export-xdpi="164.58347"
       inkscape:export-ydpi="164.58347" />
    <path
       style="opacity:1;fill:none;fill-opacity:1;stroke:#1e0eff;stroke-width:1.07000005;stroke-linecap:round;stroke-miterlimit:4;stroke-dasharray:none;stroke-dashoffset:0;stroke-opacity:0.90980392;marker-end:url(#TriangleOutL)"
       d="m 90.525296,129.46205 -21.72975,-5.82247"
       id="path13470"
       inkscape:connector-curvature="0"
       inkscape:export-xdpi="164.58347"
       inkscape:export-ydpi="164.58347" />
    <path
       style="opacity:1;fill:#1b10fe;fill-opacity:1;stroke:#d30d0d;stroke-width:0.40000001;stroke-linecap:round;stroke-miterlimit:4;stroke-dasharray:none;stroke-dashoffset:0;stroke-opacity:0.90980392"
       d="M 75.370007,164.03341 31.003264,121.00301"
       id="path13590"
       inkscape:connector-curvature="0"
       inkscape:export-xdpi="164.58347"
       inkscape:export-ydpi="164.58347" />
    <path
       id="ellipse13956"
       style="opacity:1;fill:#c50e0e;fill-opacity:0.46666667;stroke:none;stroke-width:0.56999999;stroke-linecap:round;stroke-miterlimit:4;stroke-dasharray:1.14, 1.13999999999999990;stroke-dashoffset:0;stroke-opacity:1"
       sodipodi:type="arc"
       sodipodi:cx="67.351913"
       sodipodi:cy="139.84552"
       sodipodi:rx="55.057522"
       sodipodi:ry="24.856066"
       sodipodi:start="1.4222448"
       sodipodi:end="3.9880743"
       sodipodi:open="true"
       d="M 75.500744,164.42783 A 55.057522,24.856066 0 0 1 17.455198,150.35242 55.057522,24.856066 0 0 1 30.86957,121.22948"
       inkscape:export-xdpi="164.58347"
       inkscape:export-ydpi="164.58347" />
    <ellipse
       ry="1.7946742"
       rx="1.7802151"
       cy="120.77738"
       cx="31.005209"
       id="ellipse13592"
       style="opacity:1;fill:#1b10fe;fill-opacity:1;stroke:#000000;stroke-width:0.25224957;stroke-linecap:round;stroke-miterlimit:4;stroke-dasharray:none;stroke-dashoffset:0;stroke-opacity:0.90980392"
       inkscape:export-xdpi="164.58347"
       inkscape:export-ydpi="164.58347" />
    <ellipse
       style="opacity:1;fill:#1b10fe;fill-opacity:1;stroke:#000000;stroke-width:0.30529779;stroke-linecap:round;stroke-miterlimit:4;stroke-dasharray:none;stroke-dashoffset:0;stroke-opacity:0.90980392"
       id="path13588"
       cx="76.323212"
       cy="164.69786"
       rx="2.1545954"
       ry="2.1720951"
       inkscape:export-xdpi="164.58347"
       inkscape:export-ydpi="164.58347" />
    <g
       id="g15497"
       ns1:jacobian_sqrt="0.460424"
       inkscapeversion="0.92.4"
       ns1:alignment="middle center"
       ns1:scale="1.30513895205"
       ns1:preamble="C:\\Users\\Buster\\AppData\\Roaming\\inkscape\\extensions\\textext\\default_packages.tex"
       ns1:text="$P$"
       ns1:pdfconverter="pdf2svg"
       ns1:texconverter="pdflatex"
       ns1:version="0.11.0"
       transform="matrix(1.2313293,0,0,1.2313293,-109.08723,-4.8396146)"
       inkscape:export-xdpi="164.58347"
       inkscape:export-ydpi="164.58347">
      <g
         id="surface1">
        <g
           id="g15494"
           style="fill:#000000;fill-opacity:1">
          <path
             id="path15492"
             transform="translate(148.712,134.765)"
             d="M 3.015625,-3.15625 H 4.71875 c 1.40625,0 2.796875,-1.03125 2.796875,-2.140625 0,-0.78125 -0.65625,-1.515625 -1.96875,-1.515625 h -3.21875 c -0.1875,0 -0.296875,0 -0.296875,0.1875 0,0.125 0.078125,0.125 0.28125,0.125 0.125,0 0.3125,0.015625 0.421875,0.015625 0.171875,0.03125 0.21875,0.046875 0.21875,0.171875 0,0.03125 0,0.0625 -0.03125,0.1875 l -1.34375,5.34375 c -0.09375,0.390625 -0.109375,0.46875 -0.90625,0.46875 -0.15625,0 -0.265625,0 -0.265625,0.1875 C 0.40625,0 0.515625,0 0.546875,0 0.828125,0 1.53125,-0.03125 1.8125,-0.03125 c 0.21875,0 0.4375,0.015625 0.640625,0.015625 0.21875,0 0.4375,0.015625 0.640625,0.015625 0.078125,0 0.203125,0 0.203125,-0.203125 0,-0.109375 -0.09375,-0.109375 -0.28125,-0.109375 -0.359375,0 -0.640625,0 -0.640625,-0.171875 0,-0.0625 0.015625,-0.109375 0.03125,-0.171875 z M 3.734375,-6.125 C 3.828125,-6.46875 3.84375,-6.5 4.28125,-6.5 h 0.953125 c 0.828125,0 1.359375,0.265625 1.359375,0.953125 0,0.390625 -0.203125,1.25 -0.59375,1.609375 -0.5,0.453125 -1.09375,0.53125 -1.53125,0.53125 H 3.0625 Z m 0,0"
             style="stroke:none;stroke-width:0"
             inkscape:connector-curvature="0" />
        </g>
      </g>
    </g>
    <g
       id="g15577"
       ns1:jacobian_sqrt="1.231329"
       inkscapeversion="0.92.4"
       ns1:alignment="middle center"
       ns1:scale="3.49038241323"
       ns1:preamble="C:\\Users\\Buster\\AppData\\Roaming\\inkscape\\extensions\\textext\\default_packages.tex"
       ns1:text="$\\vec{n}$"
       ns1:pdfconverter="pdf2svg"
       ns1:texconverter="pdflatex"
       ns1:version="0.11.0"
       transform="matrix(1.231329,0.000000,0.000000,1.231329,-101.342579,-40.921952)"
       inkscape:export-xdpi="164.58347"
       inkscape:export-ydpi="164.58347">
      <g
         id="g15575">
        <g
           id="g15569"
           style="fill:rgb(0%,0%,0%);fill-opacity:1;">
          <path
             id="path15567"
             transform="translate(148.445,134.765)"
             d="M 5.359375 -5.9375 C 5.21875 -5.796875 4.890625 -5.515625 4.890625 -5.34375 C 4.890625 -5.25 4.984375 -5.140625 5.078125 -5.140625 C 5.171875 -5.140625 5.21875 -5.21875 5.28125 -5.28125 C 5.390625 -5.421875 5.625 -5.703125 6.0625 -5.921875 C 6.125 -5.96875 6.234375 -6.015625 6.234375 -6.125 C 6.234375 -6.234375 6.15625 -6.28125 6.09375 -6.328125 C 5.875 -6.484375 5.765625 -6.65625 5.6875 -6.890625 C 5.65625 -6.984375 5.625 -7.125 5.484375 -7.125 C 5.34375 -7.125 5.28125 -6.984375 5.28125 -6.90625 C 5.28125 -6.859375 5.359375 -6.546875 5.515625 -6.328125 L 2.15625 -6.328125 C 2 -6.328125 1.8125 -6.328125 1.8125 -6.125 C 1.8125 -5.9375 2 -5.9375 2.15625 -5.9375 Z M 5.359375 -5.9375 "
             style="stroke:none;stroke-width:0" />
        </g>
        <g
           id="g15573"
           style="fill:rgb(0%,0%,0%);fill-opacity:1;">
          <path
             id="path15571"
             transform="translate(148.71399,134.765)"
             d="M 0.875 -0.59375 C 0.84375 -0.4375 0.78125 -0.203125 0.78125 -0.15625 C 0.78125 0.015625 0.921875 0.109375 1.078125 0.109375 C 1.203125 0.109375 1.375 0.03125 1.453125 -0.171875 C 1.453125 -0.1875 1.578125 -0.65625 1.640625 -0.90625 L 1.859375 -1.796875 C 1.90625 -2.03125 1.96875 -2.25 2.03125 -2.46875 C 2.0625 -2.640625 2.140625 -2.9375 2.15625 -2.96875 C 2.296875 -3.28125 2.828125 -4.1875 3.78125 -4.1875 C 4.234375 -4.1875 4.3125 -3.8125 4.3125 -3.484375 C 4.3125 -2.875 3.828125 -1.59375 3.671875 -1.171875 C 3.578125 -0.9375 3.5625 -0.8125 3.5625 -0.703125 C 3.5625 -0.234375 3.921875 0.109375 4.390625 0.109375 C 5.328125 0.109375 5.6875 -1.34375 5.6875 -1.421875 C 5.6875 -1.53125 5.609375 -1.53125 5.578125 -1.53125 C 5.46875 -1.53125 5.46875 -1.5 5.421875 -1.34375 C 5.21875 -0.671875 4.890625 -0.109375 4.40625 -0.109375 C 4.234375 -0.109375 4.171875 -0.203125 4.171875 -0.4375 C 4.171875 -0.6875 4.25 -0.921875 4.34375 -1.140625 C 4.53125 -1.671875 4.953125 -2.765625 4.953125 -3.34375 C 4.953125 -4 4.53125 -4.40625 3.8125 -4.40625 C 2.90625 -4.40625 2.421875 -3.765625 2.25 -3.53125 C 2.203125 -4.09375 1.796875 -4.40625 1.328125 -4.40625 C 0.875 -4.40625 0.6875 -4.015625 0.59375 -3.84375 C 0.421875 -3.5 0.296875 -2.90625 0.296875 -2.875 C 0.296875 -2.765625 0.390625 -2.765625 0.40625 -2.765625 C 0.515625 -2.765625 0.515625 -2.78125 0.578125 -3 C 0.75 -3.703125 0.953125 -4.1875 1.3125 -4.1875 C 1.5 -4.1875 1.609375 -4.0625 1.609375 -3.734375 C 1.609375 -3.515625 1.578125 -3.40625 1.453125 -2.890625 Z M 0.875 -0.59375 "
             style="stroke:none;stroke-width:0" />
        </g>
      </g>
    </g>
    <ellipse
       inkscape:export-ydpi="164.58347"
       inkscape:export-xdpi="164.58347"
       ry="24.856066"
       rx="55.057522"
       cy="197.60999"
       cx="326.60336"
       id="ellipse15587"
       style="opacity:1;fill:#5d3725;fill-opacity:1;stroke:none;stroke-width:0.56999999;stroke-linecap:round;stroke-miterlimit:4;stroke-dasharray:1.14, 1.14;stroke-dashoffset:0;stroke-opacity:1" />
    <path
       inkscape:export-ydpi="164.58347"
       inkscape:export-xdpi="164.58347"
       inkscape:connector-curvature="0"
       id="path15589"
       d="m 271.61266,197.44209 v -34.292 h 110.00857 v 34.67931 z"
       style="opacity:1;fill:#5d3725;fill-opacity:1;stroke:none;stroke-width:0.56999999;stroke-linecap:round;stroke-miterlimit:4;stroke-dasharray:1.14, 1.14;stroke-dashoffset:0;stroke-opacity:1" />
    <path
       inkscape:export-ydpi="164.58347"
       inkscape:export-xdpi="164.58347"
       inkscape:connector-curvature="0"
       id="path15591"
       d="m 271.61266,163.36523 v -15.03391 l 109.98141,-0.40091 0.0668,15.43482 -58.39839,12.16076 -42.76312,-11.09168 z"
       style="opacity:1;fill:#341a18;fill-opacity:1;stroke:none;stroke-width:0.56999999;stroke-linecap:round;stroke-miterlimit:4;stroke-dasharray:1.14, 1.14;stroke-dashoffset:0;stroke-opacity:1" />
    <ellipse
       inkscape:export-ydpi="164.58347"
       inkscape:export-xdpi="164.58347"
       style="opacity:1;fill:#341a18;fill-opacity:1;stroke:none;stroke-width:0.56999999;stroke-linecap:round;stroke-miterlimit:4;stroke-dasharray:1.14, 1.14;stroke-dashoffset:0;stroke-opacity:1"
       id="ellipse15593"
       cx="326.60336"
       cy="162.68546"
       rx="55.057522"
       ry="24.856066" />
    <ellipse
       inkscape:export-ydpi="164.58347"
       inkscape:export-xdpi="164.58347"
       ry="24.856066"
       rx="55.057522"
       cy="148.39815"
       cx="326.60336"
       id="ellipse15595"
       style="opacity:1;fill:#3c1e1c;fill-opacity:1;stroke:none;stroke-width:0.56999999;stroke-linecap:round;stroke-miterlimit:4;stroke-dasharray:1.14, 1.14;stroke-dashoffset:0;stroke-opacity:1" />
    <path
       style="opacity:1;fill:#0ea0c5;fill-opacity:0.30555558;stroke:none;stroke-width:0.60000002;stroke-linecap:round;stroke-miterlimit:4;stroke-dasharray:none;stroke-dashoffset:0;stroke-opacity:0.90980392"
       d="m 220.17113,143.16368 143.81994,-37.60863 c 0,0 68.41368,44.22321 68.60267,43.46726 0.189,-0.75595 -177.6488,54.61756 -177.6488,54.61756 L 219.41518,144.4866 Z"
       id="path15643"
       inkscape:connector-curvature="0"
       inkscape:export-xdpi="164.58347"
       inkscape:export-ydpi="164.58347" />
    <path
       style="opacity:1;fill:#0ea0c5;fill-opacity:0.30555558;stroke:none;stroke-width:0.60000002;stroke-linecap:round;stroke-miterlimit:4;stroke-dasharray:none;stroke-dashoffset:0;stroke-opacity:0.90980392"
       d="M 224.50639,185.01406 282.77115,56.190146 400.90428,94.676955 352.79578,241.6752 Z"
       id="path15639"
       inkscape:connector-curvature="0"
       inkscape:export-xdpi="164.58347"
       inkscape:export-ydpi="164.58347" />
    <ellipse
       inkscape:export-ydpi="164.58347"
       inkscape:export-xdpi="164.58347"
       style="opacity:1;fill:url(#linearGradient15635);fill-opacity:1;stroke:none;stroke-width:0.47365406;stroke-linecap:round;stroke-miterlimit:4;stroke-dasharray:0.94730813, 0.94730813;stroke-dashoffset:0;stroke-opacity:1"
       id="ellipse15597"
       cx="326.06882"
       cy="148.15765"
       rx="45.751263"
       ry="20.654696" />
    <path
       inkscape:export-ydpi="164.58347"
       inkscape:export-xdpi="164.58347"
       inkscape:connector-curvature="0"
       id="path15599"
       d="m 320.2946,110.89488 36.4747,42.33333 8.31547,-23.62351 z"
       style="opacity:1;fill:url(#linearGradient15637);fill-opacity:1;stroke:none;stroke-width:0.56999999;stroke-linecap:round;stroke-miterlimit:4;stroke-dasharray:1.14, 1.14;stroke-dashoffset:0;stroke-opacity:1" />
    <ellipse
       inkscape:export-ydpi="164.58347"
       inkscape:export-xdpi="164.58347"
       style="opacity:1;fill:#1b10fe;fill-opacity:1;stroke:#000000;stroke-width:0.25224957;stroke-linecap:round;stroke-miterlimit:4;stroke-dasharray:none;stroke-dashoffset:0;stroke-opacity:0.90980392"
       id="ellipse15611"
       cx="290.25665"
       cy="129.33"
       rx="1.7802151"
       ry="1.7946742" />
    <ellipse
       inkscape:export-ydpi="164.58347"
       inkscape:export-xdpi="164.58347"
       ry="2.1720951"
       rx="2.1545954"
       cy="173.25049"
       cx="335.57465"
       id="ellipse15613"
       style="opacity:1;fill:#1b10fe;fill-opacity:1;stroke:#000000;stroke-width:0.30529779;stroke-linecap:round;stroke-miterlimit:4;stroke-dasharray:none;stroke-dashoffset:0;stroke-opacity:0.90980392" />
    <g
       inkscape:export-ydpi="164.58347"
       inkscape:export-xdpi="164.58347"
       transform="matrix(1.2313293,0,0,1.2313293,150.16421,3.7130103)"
       ns1:version="0.11.0"
       ns1:texconverter="pdflatex"
       ns1:pdfconverter="pdf2svg"
       ns1:text="$P$"
       ns1:preamble="C:\\Users\\Buster\\AppData\\Roaming\\inkscape\\extensions\\textext\\default_packages.tex"
       ns1:scale="1.30513895205"
       ns1:alignment="middle center"
       inkscapeversion="0.92.4"
       ns1:jacobian_sqrt="0.460424"
       id="g15621">
      <g
         id="g15619">
        <g
           style="fill:#000000;fill-opacity:1"
           id="g15617">
          <path
             inkscape:connector-curvature="0"
             style="stroke:none;stroke-width:0"
             d="M 3.015625,-3.15625 H 4.71875 c 1.40625,0 2.796875,-1.03125 2.796875,-2.140625 0,-0.78125 -0.65625,-1.515625 -1.96875,-1.515625 h -3.21875 c -0.1875,0 -0.296875,0 -0.296875,0.1875 0,0.125 0.078125,0.125 0.28125,0.125 0.125,0 0.3125,0.015625 0.421875,0.015625 0.171875,0.03125 0.21875,0.046875 0.21875,0.171875 0,0.03125 0,0.0625 -0.03125,0.1875 l -1.34375,5.34375 c -0.09375,0.390625 -0.109375,0.46875 -0.90625,0.46875 -0.15625,0 -0.265625,0 -0.265625,0.1875 C 0.40625,0 0.515625,0 0.546875,0 0.828125,0 1.53125,-0.03125 1.8125,-0.03125 c 0.21875,0 0.4375,0.015625 0.640625,0.015625 0.21875,0 0.4375,0.015625 0.640625,0.015625 0.078125,0 0.203125,0 0.203125,-0.203125 0,-0.109375 -0.09375,-0.109375 -0.28125,-0.109375 -0.359375,0 -0.640625,0 -0.640625,-0.171875 0,-0.0625 0.015625,-0.109375 0.03125,-0.171875 z M 3.734375,-6.125 C 3.828125,-6.46875 3.84375,-6.5 4.28125,-6.5 h 0.953125 c 0.828125,0 1.359375,0.265625 1.359375,0.953125 0,0.390625 -0.203125,1.25 -0.59375,1.609375 -0.5,0.453125 -1.09375,0.53125 -1.53125,0.53125 H 3.0625 Z m 0,0"
             transform="translate(148.712,134.765)"
             id="path15615" />
        </g>
      </g>
    </g>
    <g
       inkscape:export-ydpi="164.58347"
       inkscape:export-xdpi="164.58347"
       transform="matrix(1.231329,0,0,1.231329,157.90886,-32.369327)"
       ns1:version="0.11.0"
       ns1:texconverter="pdflatex"
       ns1:pdfconverter="pdf2svg"
       ns1:text="$\\vec{n}$"
       ns1:preamble="C:\\Users\\Buster\\AppData\\Roaming\\inkscape\\extensions\\textext\\default_packages.tex"
       ns1:scale="3.49038241323"
       ns1:alignment="middle center"
       inkscapeversion="0.92.4"
       ns1:jacobian_sqrt="1.231329"
       id="g15633">
      <g
         id="g15631">
        <g
           style="fill:#000000;fill-opacity:1"
           id="g15625">
          <path
             style="stroke:none;stroke-width:0"
             d="m 5.359375,-5.9375 c -0.140625,0.140625 -0.46875,0.421875 -0.46875,0.59375 0,0.09375 0.09375,0.203125 0.1875,0.203125 0.09375,0 0.140625,-0.078125 0.203125,-0.140625 C 5.390625,-5.421875 5.625,-5.703125 6.0625,-5.921875 6.125,-5.96875 6.234375,-6.015625 6.234375,-6.125 6.234375,-6.234375 6.15625,-6.28125 6.09375,-6.328125 5.875,-6.484375 5.765625,-6.65625 5.6875,-6.890625 5.65625,-6.984375 5.625,-7.125 5.484375,-7.125 c -0.140625,0 -0.203125,0.140625 -0.203125,0.21875 0,0.046875 0.078125,0.359375 0.234375,0.578125 H 2.15625 c -0.15625,0 -0.34375,0 -0.34375,0.203125 0,0.1875 0.1875,0.1875 0.34375,0.1875 z m 0,0"
             transform="translate(148.445,134.765)"
             id="path15623"
             inkscape:connector-curvature="0" />
        </g>
        <g
           style="fill:#000000;fill-opacity:1"
           id="g15629">
          <path
             style="stroke:none;stroke-width:0"
             d="m 0.875,-0.59375 c -0.03125,0.15625 -0.09375,0.390625 -0.09375,0.4375 0,0.171875 0.140625,0.265625 0.296875,0.265625 0.125,0 0.296875,-0.078125 0.375,-0.28125 0,-0.015625 0.125,-0.484375 0.1875,-0.734375 l 0.21875,-0.890625 C 1.90625,-2.03125 1.96875,-2.25 2.03125,-2.46875 c 0.03125,-0.171875 0.109375,-0.46875 0.125,-0.5 0.140625,-0.3125 0.671875,-1.21875 1.625,-1.21875 0.453125,0 0.53125,0.375 0.53125,0.703125 0,0.609375 -0.484375,1.890625 -0.640625,2.3125 C 3.578125,-0.9375 3.5625,-0.8125 3.5625,-0.703125 c 0,0.46875 0.359375,0.8125 0.828125,0.8125 0.9375,0 1.296875,-1.453125 1.296875,-1.53125 0,-0.109375 -0.078125,-0.109375 -0.109375,-0.109375 -0.109375,0 -0.109375,0.03125 -0.15625,0.1875 -0.203125,0.671875 -0.53125,1.234375 -1.015625,1.234375 -0.171875,0 -0.234375,-0.09375 -0.234375,-0.328125 0,-0.25 0.078125,-0.484375 0.171875,-0.703125 0.1875,-0.53125 0.609375,-1.625 0.609375,-2.203125 0,-0.65625 -0.421875,-1.0625 -1.140625,-1.0625 -0.90625,0 -1.390625,0.640625 -1.5625,0.875 -0.046875,-0.5625 -0.453125,-0.875 -0.921875,-0.875 -0.453125,0 -0.640625,0.390625 -0.734375,0.5625 C 0.421875,-3.5 0.296875,-2.90625 0.296875,-2.875 c 0,0.109375 0.09375,0.109375 0.109375,0.109375 0.109375,0 0.109375,-0.015625 0.171875,-0.234375 0.171875,-0.703125 0.375,-1.1875 0.734375,-1.1875 0.1875,0 0.296875,0.125 0.296875,0.453125 0,0.21875 -0.03125,0.328125 -0.15625,0.84375 z m 0,0"
             transform="translate(148.71399,134.765)"
             id="path15627"
             inkscape:connector-curvature="0" />
        </g>
      </g>
    </g>
    <path
       inkscape:export-ydpi="164.58347"
       inkscape:export-xdpi="164.58347"
       inkscape:connector-curvature="0"
       id="path15605"
       d="M 349.77674,138.01467 328.04699,132.1922"
       style="opacity:1;fill:none;fill-opacity:1;stroke:#1e0eff;stroke-width:1.07000005;stroke-linecap:round;stroke-miterlimit:4;stroke-dasharray:none;stroke-dashoffset:0;stroke-opacity:0.90980392;marker-end:url(#marker15647)" />
    <path
       inkscape:export-ydpi="164.58347"
       inkscape:export-xdpi="164.58347"
       inkscape:connector-curvature="0"
       id="path15607"
       d="m 334.62145,172.58603 -44.36674,-43.0304"
       style="opacity:1;fill:#1b10fe;fill-opacity:1;stroke:#d30d0d;stroke-width:0.6;stroke-linecap:round;stroke-miterlimit:4;stroke-dasharray:none;stroke-dashoffset:0;stroke-opacity:0.90980392" />
    <path
       inkscape:export-ydpi="164.58347"
       inkscape:export-xdpi="164.58347"
       sodipodi:nodetypes="ccccc"
       inkscape:connector-curvature="0"
       id="path15601"
       d="m 361.494,139.62107 43.46726,20.03273 5.48066,-12.09523 -45.63392,-17.93095 z"
       style="opacity:1;fill:#595959;fill-opacity:1;stroke:none;stroke-width:0.56999999;stroke-linecap:round;stroke-miterlimit:4;stroke-dasharray:1.14, 1.14;stroke-dashoffset:0;stroke-opacity:1" />
    <path
       inkscape:export-ydpi="164.58347"
       inkscape:export-xdpi="164.58347"
       inkscape:connector-curvature="0"
       id="path15603"
       d="m 399.95308,157.29146 5.05543,2.36235 5.4334,-12.14249 -5.10267,-1.98437 z"
       style="opacity:1;fill:#404040;fill-opacity:1;stroke:none;stroke-width:0.56999999;stroke-linecap:round;stroke-miterlimit:4;stroke-dasharray:1.14, 1.14;stroke-dashoffset:0;stroke-opacity:1" />
  </g>
</svg>
